<svg version="1.1" viewBox="0.0 0.0 600.0 371.0" fill="none" stroke="none" stroke-linecap="square" stroke-miterlimit="10" width="600" height="371" xmlns:xlink="http://www.w3.org/1999/xlink" xmlns="http://www.w3.org/2000/svg"><path fill="#ffffff" d="M0 0L600.0 0L600.0 371.0L0 371.0L0 0Z" fill-rule="nonzero"/><path stroke="#333333" stroke-width="1.0" stroke-linecap="butt" d="M45.5 344.5L581.5 344.5" fill-rule="nonzero"/><path stroke="#cccccc" stroke-width="1.0" stroke-linecap="butt" d="M45.5 286.5L581.5 286.5" fill-rule="nonzero"/><path stroke="#cccccc" stroke-width="1.0" stroke-linecap="butt" d="M45.5 228.5L581.5 228.5" fill-rule="nonzero"/><path stroke="#cccccc" stroke-width="1.0" stroke-linecap="butt" d="M45.5 170.5L581.5 170.5" fill-rule="nonzero"/><path stroke="#cccccc" stroke-width="1.0" stroke-linecap="butt" d="M45.5 111.5L581.5 111.5" fill-rule="nonzero"/><path stroke="#cccccc" stroke-width="1.0" stroke-linecap="butt" d="M45.5 53.5L581.5 53.5" fill-rule="nonzero"/><clipPath id="id_0"><path d="M45.55 53.416668L581.45 53.416668L581.45 344.95L45.55 344.95L45.55 53.416668Z" clip-rule="nonzero"/></clipPath><path stroke="#4285f4" stroke-width="2.0" stroke-linecap="butt" clip-path="url(#id_0)" d="M48.256565 344.95L53.669697 344.95L59.08283 344.95L64.49596 344.95L69.90909 344.95L75.32222 344.95L80.73535 344.95L86.14848 344.95L91.561615 56.332L96.97475 344.95L102.38788 344.95L107.80101 56.332L113.21414 344.95L118.62727 344.95L124.040405 56.332L129.45354 56.332L134.86667 344.95L140.2798 344.95L145.69293 344.95L151.10606 344.95L156.5192 56.332L161.93233 56.332L167.34546 56.332L172.75859 344.95L178.17172 344.95L183.58485 56.332L188.99799 344.95L194.41112 56.332L199.82425 344.95L205.23738 344.95L210.6505 344.95L216.06363 56.332L221.47676 56.332L226.8899 344.95L232.30302 56.332L237.71616 56.332L243.12929 56.332L248.54242 56.332L253.95555 344.95L259.36868 344.95L264.78183 344.95L270.19495 344.95L275.6081 56.332L281.0212 344.95L286.43436 344.95L291.84747 344.95L297.26062 56.332L302.67374 344.95L308.08688 344.95L313.5 344.95L318.91312 344.95L324.32626 56.332L329.73938 344.95L335.15253 56.332L340.56564 56.332L345.9788 56.332L351.3919 56.332L356.80505 56.332L362.21817 344.95L367.63132 56.332L373.04443 56.332L378.45758 56.332L383.8707 56.332L389.28384 56.332L394.69696 56.332L400.1101 344.95L405.52322 56.332L410.93637 344.95L416.3495 344.95L421.76263 56.332L427.17575 344.95L432.5889 344.95L438.002 344.95L443.41516 344.95L448.82828 344.95L454.24142 56.332L459.65454 56.332L465.0677 344.95L470.4808 344.95L475.89395 56.332L481.30707 344.95L486.7202 344.95L492.13333 344.95L497.54648 56.332L502.9596 56.332L508.37274 56.332L513.7859 344.95L519.199 56.332L524.6121 344.95L530.02527 344.95L535.43835 344.95L540.8515 56.332L546.26465 344.95L551.6778 56.332L557.0909 56.332L562.504 344.95L567.9172 344.95L573.3303 56.332L578.7434 56.332" fill-rule="nonzero"/><path stroke="#db4437" stroke-width="2.0" stroke-linecap="butt" clip-path="url(#id_0)" d="M48.256565 344.95L53.669697 344.95L59.08283 344.95L64.49596 344.95L69.90909 344.95L75.32222 344.95L80.73535 344.95L86.14848 344.95L91.561615 344.95L96.97475 279.40488L102.38788 203.60051L107.80101 245.77737L113.21414 214.71468L118.62727 199.04085L124.040405 237.22801L129.45354 166.83824L134.86667 114.40214L140.2798 153.15926L145.69293 197.90092L151.10606 230.38852L156.5192 271.14047L161.93233 199.32582L167.34546 122.66652L172.75859 103.85792L178.17172 128.93605L183.58485 171.3979L188.99799 157.14896L194.41112 157.43393L199.82425 139.1953L205.23738 149.7395L210.6505 180.51723L216.06363 213.57477L221.47676 193.62625L226.8899 121.5266L232.30302 144.03993L237.71616 113.547195L243.12929 102.14805L248.54242 99.86822L253.95555 99.86822L259.36868 116.11201L264.78183 167.12321L270.19495 212.43484L275.6081 264.58597L281.0212 250.62201L286.43436 201.03569L291.84747 239.79282L297.26062 269.4306L302.67374 195.6211L308.08688 188.7816L313.5 220.9842L318.91312 251.76193L324.32626 280.2598L329.73938 227.25375L335.15253 169.973L340.56564 150.02449L345.9788 103.85792L351.3919 101.00813L356.80505 99.298256L362.21817 99.013275L367.63132 132.3558L373.04443 112.97724L378.45758 103.00298L383.8707 100.43817L389.28384 99.58324L394.69696 99.013275L400.1101 98.7283L405.52322 132.64078L410.93637 126.9412L416.3495 137.20044L421.76263 183.93697L427.17575 143.75496L432.5889 136.06053L438.002 191.91637L443.41516 226.96877L448.82828 268.0057L454.24142 309.04266L459.65454 225.82886L465.0677 142.61504L470.4808 157.14896L475.89395 204.74042L481.30707 165.12836L486.7202 156.86398L492.13333 199.89578L497.54648 236.08809L502.9596 184.50693L508.37274 116.39699L513.7859 102.718L519.199 138.34036L524.6121 118.96179L530.02527 126.37125L535.43835 171.11292L540.8515 209.87004L546.26465 152.87427L551.6778 154.01419L557.0909 148.31462L562.504 108.41758L567.9172 147.45967L573.3303 189.35156L578.7434 141.7601" fill-rule="nonzero"/><path fill="#000000" fill-opacity="0.0" clip-path="url(#id_0)" d="M51.256565 344.95C51.256565 346.60684 49.91342 347.95 48.256565 347.95C46.599712 347.95 45.256565 346.60684 45.256565 344.95C45.256565 343.29315 46.599712 341.95 48.256565 341.95C49.91342 341.95 51.256565 343.29315 51.256565 344.95Z" fill-rule="nonzero"/><path fill="#000000" fill-opacity="0.0" clip-path="url(#id_0)" d="M56.669697 344.95C56.669697 346.60684 55.32655 347.95 53.669697 347.95C52.012844 347.95 50.669697 346.60684 50.669697 344.95C50.669697 343.29315 52.012844 341.95 53.669697 341.95C55.32655 341.95 56.669697 343.29315 56.669697 344.95Z" fill-rule="nonzero"/><path fill="#000000" fill-opacity="0.0" clip-path="url(#id_0)" d="M62.08283 344.95C62.08283 346.60684 60.73968 347.95 59.08283 347.95C57.425976 347.95 56.08283 346.60684 56.08283 344.95C56.08283 343.29315 57.425976 341.95 59.08283 341.95C60.73968 341.95 62.08283 343.29315 62.08283 344.95Z" fill-rule="nonzero"/><path fill="#000000" fill-opacity="0.0" clip-path="url(#id_0)" d="M67.49596 344.95C67.49596 346.60684 66.15282 347.95 64.49596 347.95C62.839104 347.95 61.49596 346.60684 61.49596 344.95C61.49596 343.29315 62.839104 341.95 64.49596 341.95C66.15282 341.95 67.49596 343.29315 67.49596 344.95Z" fill-rule="nonzero"/><path fill="#000000" fill-opacity="0.0" clip-path="url(#id_0)" d="M72.90909 344.95C72.90909 346.60684 71.56595 347.95 69.90909 347.95C68.252235 347.95 66.90909 346.60684 66.90909 344.95C66.90909 343.29315 68.252235 341.95 69.90909 341.95C71.56595 341.95 72.90909 343.29315 72.90909 344.95Z" fill-rule="nonzero"/><path fill="#000000" fill-opacity="0.0" clip-path="url(#id_0)" d="M78.32222 344.95C78.32222 346.60684 76.97908 347.95 75.32222 347.95C73.66537 347.95 72.32222 346.60684 72.32222 344.95C72.32222 343.29315 73.66537 341.95 75.32222 341.95C76.97908 341.95 78.32222 343.29315 78.32222 344.95Z" fill-rule="nonzero"/><path fill="#000000" fill-opacity="0.0" clip-path="url(#id_0)" d="M83.73535 344.95C83.73535 346.60684 82.392204 347.95 80.73535 347.95C79.0785 347.95 77.73535 346.60684 77.73535 344.95C77.73535 343.29315 79.0785 341.95 80.73535 341.95C82.392204 341.95 83.73535 343.29315 83.73535 344.95Z" fill-rule="nonzero"/><path fill="#000000" fill-opacity="0.0" clip-path="url(#id_0)" d="M89.14848 344.95C89.14848 346.60684 87.805336 347.95 86.14848 347.95C84.49163 347.95 83.14848 346.60684 83.14848 344.95C83.14848 343.29315 84.49163 341.95 86.14848 341.95C87.805336 341.95 89.14848 343.29315 89.14848 344.95Z" fill-rule="nonzero"/><path fill="#000000" fill-opacity="0.0" clip-path="url(#id_0)" d="M94.561615 56.332C94.561615 57.988853 93.21847 59.332 91.561615 59.332C89.90476 59.332 88.561615 57.988853 88.561615 56.332C88.561615 54.675144 89.90476 53.332 91.561615 53.332C93.21847 53.332 94.561615 54.675144 94.561615 56.332Z" fill-rule="nonzero"/><path fill="#000000" fill-opacity="0.0" clip-path="url(#id_0)" d="M99.97475 344.95C99.97475 346.60684 98.6316 347.95 96.97475 347.95C95.317894 347.95 93.97475 346.60684 93.97475 344.95C93.97475 343.29315 95.317894 341.95 96.97475 341.95C98.6316 341.95 99.97475 343.29315 99.97475 344.95Z" fill-rule="nonzero"/><path fill="#000000" fill-opacity="0.0" clip-path="url(#id_0)" d="M105.38788 344.95C105.38788 346.60684 104.04473 347.95 102.38788 347.95C100.731026 347.95 99.38788 346.60684 99.38788 344.95C99.38788 343.29315 100.731026 341.95 102.38788 341.95C104.04473 341.95 105.38788 343.29315 105.38788 344.95Z" fill-rule="nonzero"/><path fill="#000000" fill-opacity="0.0" clip-path="url(#id_0)" d="M110.80101 56.332C110.80101 57.988853 109.45786 59.332 107.80101 59.332C106.14416 59.332 104.80101 57.988853 104.80101 56.332C104.80101 54.675144 106.14416 53.332 107.80101 53.332C109.45786 53.332 110.80101 54.675144 110.80101 56.332Z" fill-rule="nonzero"/><path fill="#000000" fill-opacity="0.0" clip-path="url(#id_0)" d="M116.21414 344.95C116.21414 346.60684 114.870995 347.95 113.21414 347.95C111.55729 347.95 110.21414 346.60684 110.21414 344.95C110.21414 343.29315 111.55729 341.95 113.21414 341.95C114.870995 341.95 116.21414 343.29315 116.21414 344.95Z" fill-rule="nonzero"/><path fill="#000000" fill-opacity="0.0" clip-path="url(#id_0)" d="M121.62727 344.95C121.62727 346.60684 120.28413 347.95 118.62727 347.95C116.97042 347.95 115.62727 346.60684 115.62727 344.95C115.62727 343.29315 116.97042 341.95 118.62727 341.95C120.28413 341.95 121.62727 343.29315 121.62727 344.95Z" fill-rule="nonzero"/><path fill="#000000" fill-opacity="0.0" clip-path="url(#id_0)" d="M127.040405 56.332C127.040405 57.988853 125.69726 59.332 124.040405 59.332C122.38355 59.332 121.040405 57.988853 121.040405 56.332C121.040405 54.675144 122.38355 53.332 124.040405 53.332C125.69726 53.332 127.040405 54.675144 127.040405 56.332Z" fill-rule="nonzero"/><path fill="#000000" fill-opacity="0.0" clip-path="url(#id_0)" d="M132.45354 56.332C132.45354 57.988853 131.11038 59.332 129.45354 59.332C127.796684 59.332 126.45354 57.988853 126.45354 56.332C126.45354 54.675144 127.796684 53.332 129.45354 53.332C131.11038 53.332 132.45354 54.675144 132.45354 56.332Z" fill-rule="nonzero"/><path fill="#000000" fill-opacity="0.0" clip-path="url(#id_0)" d="M137.86667 344.95C137.86667 346.60684 136.52351 347.95 134.86667 347.95C133.20981 347.95 131.86667 346.60684 131.86667 344.95C131.86667 343.29315 133.20981 341.95 134.86667 341.95C136.52351 341.95 137.86667 343.29315 137.86667 344.95Z" fill-rule="nonzero"/><path fill="#000000" fill-opacity="0.0" clip-path="url(#id_0)" d="M143.2798 344.95C143.2798 346.60684 141.93665 347.95 140.2798 347.95C138.62294 347.95 137.2798 346.60684 137.2798 344.95C137.2798 343.29315 138.62294 341.95 140.2798 341.95C141.93665 341.95 143.2798 343.29315 143.2798 344.95Z" fill-rule="nonzero"/><path fill="#000000" fill-opacity="0.0" clip-path="url(#id_0)" d="M148.69293 344.95C148.69293 346.60684 147.34978 347.95 145.69293 347.95C144.03607 347.95 142.69293 346.60684 142.69293 344.95C142.69293 343.29315 144.03607 341.95 145.69293 341.95C147.34978 341.95 148.69293 343.29315 148.69293 344.95Z" fill-rule="nonzero"/><path fill="#000000" fill-opacity="0.0" clip-path="url(#id_0)" d="M154.10606 344.95C154.10606 346.60684 152.76291 347.95 151.10606 347.95C149.4492 347.95 148.10606 346.60684 148.10606 344.95C148.10606 343.29315 149.4492 341.95 151.10606 341.95C152.76291 341.95 154.10606 343.29315 154.10606 344.95Z" fill-rule="nonzero"/><path fill="#000000" fill-opacity="0.0" clip-path="url(#id_0)" d="M159.5192 56.332C159.5192 57.988853 158.17604 59.332 156.5192 59.332C154.86234 59.332 153.5192 57.988853 153.5192 56.332C153.5192 54.675144 154.86234 53.332 156.5192 53.332C158.17604 53.332 159.5192 54.675144 159.5192 56.332Z" fill-rule="nonzero"/><path fill="#000000" fill-opacity="0.0" clip-path="url(#id_0)" d="M164.93233 56.332C164.93233 57.988853 163.58917 59.332 161.93233 59.332C160.27547 59.332 158.93233 57.988853 158.93233 56.332C158.93233 54.675144 160.27547 53.332 161.93233 53.332C163.58917 53.332 164.93233 54.675144 164.93233 56.332Z" fill-rule="nonzero"/><path fill="#000000" fill-opacity="0.0" clip-path="url(#id_0)" d="M170.34546 56.332C170.34546 57.988853 169.0023 59.332 167.34546 59.332C165.6886 59.332 164.34546 57.988853 164.34546 56.332C164.34546 54.675144 165.6886 53.332 167.34546 53.332C169.0023 53.332 170.34546 54.675144 170.34546 56.332Z" fill-rule="nonzero"/><path fill="#000000" fill-opacity="0.0" clip-path="url(#id_0)" d="M175.75859 344.95C175.75859 346.60684 174.41544 347.95 172.75859 347.95C171.10173 347.95 169.75859 346.60684 169.75859 344.95C169.75859 343.29315 171.10173 341.95 172.75859 341.95C174.41544 341.95 175.75859 343.29315 175.75859 344.95Z" fill-rule="nonzero"/><path fill="#000000" fill-opacity="0.0" clip-path="url(#id_0)" d="M181.17172 344.95C181.17172 346.60684 179.82857 347.95 178.17172 347.95C176.51486 347.95 175.17172 346.60684 175.17172 344.95C175.17172 343.29315 176.51486 341.95 178.17172 341.95C179.82857 341.95 181.17172 343.29315 181.17172 344.95Z" fill-rule="nonzero"/><path fill="#000000" fill-opacity="0.0" clip-path="url(#id_0)" d="M186.58485 56.332C186.58485 57.988853 185.2417 59.332 183.58485 59.332C181.928 59.332 180.58485 57.988853 180.58485 56.332C180.58485 54.675144 181.928 53.332 183.58485 53.332C185.2417 53.332 186.58485 54.675144 186.58485 56.332Z" fill-rule="nonzero"/><path fill="#000000" fill-opacity="0.0" clip-path="url(#id_0)" d="M191.99799 344.95C191.99799 346.60684 190.65483 347.95 188.99799 347.95C187.34113 347.95 185.99799 346.60684 185.99799 344.95C185.99799 343.29315 187.34113 341.95 188.99799 341.95C190.65483 341.95 191.99799 343.29315 191.99799 344.95Z" fill-rule="nonzero"/><path fill="#000000" fill-opacity="0.0" clip-path="url(#id_0)" d="M197.41112 56.332C197.41112 57.988853 196.06796 59.332 194.41112 59.332C192.75426 59.332 191.41112 57.988853 191.41112 56.332C191.41112 54.675144 192.75426 53.332 194.41112 53.332C196.06796 53.332 197.41112 54.675144 197.41112 56.332Z" fill-rule="nonzero"/><path fill="#000000" fill-opacity="0.0" clip-path="url(#id_0)" d="M202.82425 344.95C202.82425 346.60684 201.4811 347.95 199.82425 347.95C198.16739 347.95 196.82425 346.60684 196.82425 344.95C196.82425 343.29315 198.16739 341.95 199.82425 341.95C201.4811 341.95 202.82425 343.29315 202.82425 344.95Z" fill-rule="nonzero"/><path fill="#000000" fill-opacity="0.0" clip-path="url(#id_0)" d="M208.23738 344.95C208.23738 346.60684 206.89423 347.95 205.23738 347.95C203.58052 347.95 202.23738 346.60684 202.23738 344.95C202.23738 343.29315 203.58052 341.95 205.23738 341.95C206.89423 341.95 208.23738 343.29315 208.23738 344.95Z" fill-rule="nonzero"/><path fill="#000000" fill-opacity="0.0" clip-path="url(#id_0)" d="M213.6505 344.95C213.6505 346.60684 212.30736 347.95 210.6505 347.95C208.99365 347.95 207.6505 346.60684 207.6505 344.95C207.6505 343.29315 208.99365 341.95 210.6505 341.95C212.30736 341.95 213.6505 343.29315 213.6505 344.95Z" fill-rule="nonzero"/><path fill="#000000" fill-opacity="0.0" clip-path="url(#id_0)" d="M219.06363 56.332C219.06363 57.988853 217.72049 59.332 216.06363 59.332C214.40678 59.332 213.06363 57.988853 213.06363 56.332C213.06363 54.675144 214.40678 53.332 216.06363 53.332C217.72049 53.332 219.06363 54.675144 219.06363 56.332Z" fill-rule="nonzero"/><path fill="#000000" fill-opacity="0.0" clip-path="url(#id_0)" d="M224.47676 56.332C224.47676 57.988853 223.13362 59.332 221.47676 59.332C219.81992 59.332 218.47676 57.988853 218.47676 56.332C218.47676 54.675144 219.81992 53.332 221.47676 53.332C223.13362 53.332 224.47676 54.675144 224.47676 56.332Z" fill-rule="nonzero"/><path fill="#000000" fill-opacity="0.0" clip-path="url(#id_0)" d="M229.8899 344.95C229.8899 346.60684 228.54675 347.95 226.8899 347.95C225.23305 347.95 223.8899 346.60684 223.8899 344.95C223.8899 343.29315 225.23305 341.95 226.8899 341.95C228.54675 341.95 229.8899 343.29315 229.8899 344.95Z" fill-rule="nonzero"/><path fill="#000000" fill-opacity="0.0" clip-path="url(#id_0)" d="M235.30302 56.332C235.30302 57.988853 233.95988 59.332 232.30302 59.332C230.64618 59.332 229.30302 57.988853 229.30302 56.332C229.30302 54.675144 230.64618 53.332 232.30302 53.332C233.95988 53.332 235.30302 54.675144 235.30302 56.332Z" fill-rule="nonzero"/><path fill="#000000" fill-opacity="0.0" clip-path="url(#id_0)" d="M240.71616 56.332C240.71616 57.988853 239.37302 59.332 237.71616 59.332C236.05931 59.332 234.71616 57.988853 234.71616 56.332C234.71616 54.675144 236.05931 53.332 237.71616 53.332C239.37302 53.332 240.71616 54.675144 240.71616 56.332Z" fill-rule="nonzero"/><path fill="#000000" fill-opacity="0.0" clip-path="url(#id_0)" d="M246.12929 56.332C246.12929 57.988853 244.78615 59.332 243.12929 59.332C241.47244 59.332 240.12929 57.988853 240.12929 56.332C240.12929 54.675144 241.47244 53.332 243.12929 53.332C244.78615 53.332 246.12929 54.675144 246.12929 56.332Z" fill-rule="nonzero"/><path fill="#000000" fill-opacity="0.0" clip-path="url(#id_0)" d="M251.54242 56.332C251.54242 57.988853 250.19928 59.332 248.54242 59.332C246.88557 59.332 245.54242 57.988853 245.54242 56.332C245.54242 54.675144 246.88557 53.332 248.54242 53.332C250.19928 53.332 251.54242 54.675144 251.54242 56.332Z" fill-rule="nonzero"/><path fill="#000000" fill-opacity="0.0" clip-path="url(#id_0)" d="M256.95557 344.95C256.95557 346.60684 255.61241 347.95 253.95555 347.95C252.2987 347.95 250.95555 346.60684 250.95555 344.95C250.95555 343.29315 252.2987 341.95 253.95555 341.95C255.61241 341.95 256.95557 343.29315 256.95557 344.95Z" fill-rule="nonzero"/><path fill="#000000" fill-opacity="0.0" clip-path="url(#id_0)" d="M262.36868 344.95C262.36868 346.60684 261.02554 347.95 259.36868 347.95C257.71182 347.95 256.36868 346.60684 256.36868 344.95C256.36868 343.29315 257.71182 341.95 259.36868 341.95C261.02554 341.95 262.36868 343.29315 262.36868 344.95Z" fill-rule="nonzero"/><path fill="#000000" fill-opacity="0.0" clip-path="url(#id_0)" d="M267.78183 344.95C267.78183 346.60684 266.43866 347.95 264.78183 347.95C263.12497 347.95 261.78183 346.60684 261.78183 344.95C261.78183 343.29315 263.12497 341.95 264.78183 341.95C266.43866 341.95 267.78183 343.29315 267.78183 344.95Z" fill-rule="nonzero"/><path fill="#000000" fill-opacity="0.0" clip-path="url(#id_0)" d="M273.19495 344.95C273.19495 346.60684 271.8518 347.95 270.19495 347.95C268.5381 347.95 267.19495 346.60684 267.19495 344.95C267.19495 343.29315 268.5381 341.95 270.19495 341.95C271.8518 341.95 273.19495 343.29315 273.19495 344.95Z" fill-rule="nonzero"/><path fill="#000000" fill-opacity="0.0" clip-path="url(#id_0)" d="M278.6081 56.332C278.6081 57.988853 277.26492 59.332 275.6081 59.332C273.95123 59.332 272.6081 57.988853 272.6081 56.332C272.6081 54.675144 273.95123 53.332 275.6081 53.332C277.26492 53.332 278.6081 54.675144 278.6081 56.332Z" fill-rule="nonzero"/><path fill="#000000" fill-opacity="0.0" clip-path="url(#id_0)" d="M284.0212 344.95C284.0212 346.60684 282.67807 347.95 281.0212 347.95C279.36435 347.95 278.0212 346.60684 278.0212 344.95C278.0212 343.29315 279.36435 341.95 281.0212 341.95C282.67807 341.95 284.0212 343.29315 284.0212 344.95Z" fill-rule="nonzero"/><path fill="#000000" fill-opacity="0.0" clip-path="url(#id_0)" d="M289.43436 344.95C289.43436 346.60684 288.0912 347.95 286.43436 347.95C284.7775 347.95 283.43436 346.60684 283.43436 344.95C283.43436 343.29315 284.7775 341.95 286.43436 341.95C288.0912 341.95 289.43436 343.29315 289.43436 344.95Z" fill-rule="nonzero"/><path fill="#000000" fill-opacity="0.0" clip-path="url(#id_0)" d="M294.84747 344.95C294.84747 346.60684 293.50433 347.95 291.84747 347.95C290.1906 347.95 288.84747 346.60684 288.84747 344.95C288.84747 343.29315 290.1906 341.95 291.84747 341.95C293.50433 341.95 294.84747 343.29315 294.84747 344.95Z" fill-rule="nonzero"/><path fill="#000000" fill-opacity="0.0" clip-path="url(#id_0)" d="M300.26062 56.332C300.26062 57.988853 298.91745 59.332 297.26062 59.332C295.60376 59.332 294.26062 57.988853 294.26062 56.332C294.26062 54.675144 295.60376 53.332 297.26062 53.332C298.91745 53.332 300.26062 54.675144 300.26062 56.332Z" fill-rule="nonzero"/><path fill="#000000" fill-opacity="0.0" clip-path="url(#id_0)" d="M305.67374 344.95C305.67374 346.60684 304.3306 347.95 302.67374 347.95C301.01688 347.95 299.67374 346.60684 299.67374 344.95C299.67374 343.29315 301.01688 341.95 302.67374 341.95C304.3306 341.95 305.67374 343.29315 305.67374 344.95Z" fill-rule="nonzero"/><path fill="#000000" fill-opacity="0.0" clip-path="url(#id_0)" d="M311.08688 344.95C311.08688 346.60684 309.7437 347.95 308.08688 347.95C306.43002 347.95 305.08688 346.60684 305.08688 344.95C305.08688 343.29315 306.43002 341.95 308.08688 341.95C309.7437 341.95 311.08688 343.29315 311.08688 344.95Z" fill-rule="nonzero"/><path fill="#000000" fill-opacity="0.0" clip-path="url(#id_0)" d="M316.5 344.95C316.5 346.60684 315.15686 347.95 313.5 347.95C311.84314 347.95 310.5 346.60684 310.5 344.95C310.5 343.29315 311.84314 341.95 313.5 341.95C315.15686 341.95 316.5 343.29315 316.5 344.95Z" fill-rule="nonzero"/><path fill="#000000" fill-opacity="0.0" clip-path="url(#id_0)" d="M321.91312 344.95C321.91312 346.60684 320.56998 347.95 318.91312 347.95C317.2563 347.95 315.91312 346.60684 315.91312 344.95C315.91312 343.29315 317.2563 341.95 318.91312 341.95C320.56998 341.95 321.91312 343.29315 321.91312 344.95Z" fill-rule="nonzero"/><path fill="#000000" fill-opacity="0.0" clip-path="url(#id_0)" d="M327.32626 56.332C327.32626 57.988853 325.98312 59.332 324.32626 59.332C322.6694 59.332 321.32626 57.988853 321.32626 56.332C321.32626 54.675144 322.6694 53.332 324.32626 53.332C325.98312 53.332 327.32626 54.675144 327.32626 56.332Z" fill-rule="nonzero"/><path fill="#000000" fill-opacity="0.0" clip-path="url(#id_0)" d="M332.73938 344.95C332.73938 346.60684 331.39624 347.95 329.73938 347.95C328.08255 347.95 326.73938 346.60684 326.73938 344.95C326.73938 343.29315 328.08255 341.95 329.73938 341.95C331.39624 341.95 332.73938 343.29315 332.73938 344.95Z" fill-rule="nonzero"/><path fill="#000000" fill-opacity="0.0" clip-path="url(#id_0)" d="M338.15253 56.332C338.15253 57.988853 336.8094 59.332 335.15253 59.332C333.49567 59.332 332.15253 57.988853 332.15253 56.332C332.15253 54.675144 333.49567 53.332 335.15253 53.332C336.8094 53.332 338.15253 54.675144 338.15253 56.332Z" fill-rule="nonzero"/><path fill="#000000" fill-opacity="0.0" clip-path="url(#id_0)" d="M343.56564 56.332C343.56564 57.988853 342.2225 59.332 340.56564 59.332C338.9088 59.332 337.56564 57.988853 337.56564 56.332C337.56564 54.675144 338.9088 53.332 340.56564 53.332C342.2225 53.332 343.56564 54.675144 343.56564 56.332Z" fill-rule="nonzero"/><path fill="#000000" fill-opacity="0.0" clip-path="url(#id_0)" d="M348.9788 56.332C348.9788 57.988853 347.63565 59.332 345.9788 59.332C344.32193 59.332 342.9788 57.988853 342.9788 56.332C342.9788 54.675144 344.32193 53.332 345.9788 53.332C347.63565 53.332 348.9788 54.675144 348.9788 56.332Z" fill-rule="nonzero"/><path fill="#000000" fill-opacity="0.0" clip-path="url(#id_0)" d="M354.3919 56.332C354.3919 57.988853 353.04877 59.332 351.3919 59.332C349.73508 59.332 348.3919 57.988853 348.3919 56.332C348.3919 54.675144 349.73508 53.332 351.3919 53.332C353.04877 53.332 354.3919 54.675144 354.3919 56.332Z" fill-rule="nonzero"/><path fill="#000000" fill-opacity="0.0" clip-path="url(#id_0)" d="M359.80505 56.332C359.80505 57.988853 358.4619 59.332 356.80505 59.332C355.1482 59.332 353.80505 57.988853 353.80505 56.332C353.80505 54.675144 355.1482 53.332 356.80505 53.332C358.4619 53.332 359.80505 54.675144 359.80505 56.332Z" fill-rule="nonzero"/><path fill="#000000" fill-opacity="0.0" clip-path="url(#id_0)" d="M365.21817 344.95C365.21817 346.60684 363.87503 347.95 362.21817 347.95C360.56134 347.95 359.21817 346.60684 359.21817 344.95C359.21817 343.29315 360.56134 341.95 362.21817 341.95C363.87503 341.95 365.21817 343.29315 365.21817 344.95Z" fill-rule="nonzero"/><path fill="#000000" fill-opacity="0.0" clip-path="url(#id_0)" d="M370.63132 56.332C370.63132 57.988853 369.28818 59.332 367.63132 59.332C365.97446 59.332 364.63132 57.988853 364.63132 56.332C364.63132 54.675144 365.97446 53.332 367.63132 53.332C369.28818 53.332 370.63132 54.675144 370.63132 56.332Z" fill-rule="nonzero"/><path fill="#000000" fill-opacity="0.0" clip-path="url(#id_0)" d="M376.04443 56.332C376.04443 57.988853 374.7013 59.332 373.04443 59.332C371.3876 59.332 370.04443 57.988853 370.04443 56.332C370.04443 54.675144 371.3876 53.332 373.04443 53.332C374.7013 53.332 376.04443 54.675144 376.04443 56.332Z" fill-rule="nonzero"/><path fill="#000000" fill-opacity="0.0" clip-path="url(#id_0)" d="M381.45758 56.332C381.45758 57.988853 380.11444 59.332 378.45758 59.332C376.80072 59.332 375.45758 57.988853 375.45758 56.332C375.45758 54.675144 376.80072 53.332 378.45758 53.332C380.11444 53.332 381.45758 54.675144 381.45758 56.332Z" fill-rule="nonzero"/><path fill="#000000" fill-opacity="0.0" clip-path="url(#id_0)" d="M386.8707 56.332C386.8707 57.988853 385.52756 59.332 383.8707 59.332C382.21387 59.332 380.8707 57.988853 380.8707 56.332C380.8707 54.675144 382.21387 53.332 383.8707 53.332C385.52756 53.332 386.8707 54.675144 386.8707 56.332Z" fill-rule="nonzero"/><path fill="#000000" fill-opacity="0.0" clip-path="url(#id_0)" d="M392.28384 56.332C392.28384 57.988853 390.9407 59.332 389.28384 59.332C387.62698 59.332 386.28384 57.988853 386.28384 56.332C386.28384 54.675144 387.62698 53.332 389.28384 53.332C390.9407 53.332 392.28384 54.675144 392.28384 56.332Z" fill-rule="nonzero"/><path fill="#000000" fill-opacity="0.0" clip-path="url(#id_0)" d="M397.69696 56.332C397.69696 57.988853 396.35382 59.332 394.69696 59.332C393.04013 59.332 391.69696 57.988853 391.69696 56.332C391.69696 54.675144 393.04013 53.332 394.69696 53.332C396.35382 53.332 397.69696 54.675144 397.69696 56.332Z" fill-rule="nonzero"/><path fill="#000000" fill-opacity="0.0" clip-path="url(#id_0)" d="M403.1101 344.95C403.1101 346.60684 401.76697 347.95 400.1101 347.95C398.45325 347.95 397.1101 346.60684 397.1101 344.95C397.1101 343.29315 398.45325 341.95 400.1101 341.95C401.76697 341.95 403.1101 343.29315 403.1101 344.95Z" fill-rule="nonzero"/><path fill="#000000" fill-opacity="0.0" clip-path="url(#id_0)" d="M408.52322 56.332C408.52322 57.988853 407.18008 59.332 405.52322 59.332C403.86636 59.332 402.52322 57.988853 402.52322 56.332C402.52322 54.675144 403.86636 53.332 405.52322 53.332C407.18008 53.332 408.52322 54.675144 408.52322 56.332Z" fill-rule="nonzero"/><path fill="#000000" fill-opacity="0.0" clip-path="url(#id_0)" d="M413.93637 344.95C413.93637 346.60684 412.59323 347.95 410.93637 347.95C409.2795 347.95 407.93637 346.60684 407.93637 344.95C407.93637 343.29315 409.2795 341.95 410.93637 341.95C412.59323 341.95 413.93637 343.29315 413.93637 344.95Z" fill-rule="nonzero"/><path fill="#000000" fill-opacity="0.0" clip-path="url(#id_0)" d="M419.3495 344.95C419.3495 346.60684 418.00635 347.95 416.3495 347.95C414.69263 347.95 413.3495 346.60684 413.3495 344.95C413.3495 343.29315 414.69263 341.95 416.3495 341.95C418.00635 341.95 419.3495 343.29315 419.3495 344.95Z" fill-rule="nonzero"/><path fill="#000000" fill-opacity="0.0" clip-path="url(#id_0)" d="M424.76263 56.332C424.76263 57.988853 423.4195 59.332 421.76263 59.332C420.10577 59.332 418.76263 57.988853 418.76263 56.332C418.76263 54.675144 420.10577 53.332 421.76263 53.332C423.4195 53.332 424.76263 54.675144 424.76263 56.332Z" fill-rule="nonzero"/><path fill="#000000" fill-opacity="0.0" clip-path="url(#id_0)" d="M430.17575 344.95C430.17575 346.60684 428.8326 347.95 427.17575 347.95C425.5189 347.95 424.17575 346.60684 424.17575 344.95C424.17575 343.29315 425.5189 341.95 427.17575 341.95C428.8326 341.95 430.17575 343.29315 430.17575 344.95Z" fill-rule="nonzero"/><path fill="#000000" fill-opacity="0.0" clip-path="url(#id_0)" d="M435.5889 344.95C435.5889 346.60684 434.24576 347.95 432.5889 347.95C430.93204 347.95 429.5889 346.60684 429.5889 344.95C429.5889 343.29315 430.93204 341.95 432.5889 341.95C434.24576 341.95 435.5889 343.29315 435.5889 344.95Z" fill-rule="nonzero"/><path fill="#000000" fill-opacity="0.0" clip-path="url(#id_0)" d="M441.002 344.95C441.002 346.60684 439.65887 347.95 438.002 347.95C436.34515 347.95 435.002 346.60684 435.002 344.95C435.002 343.29315 436.34515 341.95 438.002 341.95C439.65887 341.95 441.002 343.29315 441.002 344.95Z" fill-rule="nonzero"/><path fill="#000000" fill-opacity="0.0" clip-path="url(#id_0)" d="M446.41516 344.95C446.41516 346.60684 445.072 347.95 443.41516 347.95C441.7583 347.95 440.41516 346.60684 440.41516 344.95C440.41516 343.29315 441.7583 341.95 443.41516 341.95C445.072 341.95 446.41516 343.29315 446.41516 344.95Z" fill-rule="nonzero"/><path fill="#000000" fill-opacity="0.0" clip-path="url(#id_0)" d="M451.82828 344.95C451.82828 346.60684 450.48514 347.95 448.82828 347.95C447.17142 347.95 445.82828 346.60684 445.82828 344.95C445.82828 343.29315 447.17142 341.95 448.82828 341.95C450.48514 341.95 451.82828 343.29315 451.82828 344.95Z" fill-rule="nonzero"/><path fill="#000000" fill-opacity="0.0" clip-path="url(#id_0)" d="M457.24142 56.332C457.24142 57.988853 455.89825 59.332 454.24142 59.332C452.58456 59.332 451.24142 57.988853 451.24142 56.332C451.24142 54.675144 452.58456 53.332 454.24142 53.332C455.89825 53.332 457.24142 54.675144 457.24142 56.332Z" fill-rule="nonzero"/><path fill="#000000" fill-opacity="0.0" clip-path="url(#id_0)" d="M462.65454 56.332C462.65454 57.988853 461.3114 59.332 459.65454 59.332C457.99768 59.332 456.65454 57.988853 456.65454 56.332C456.65454 54.675144 457.99768 53.332 459.65454 53.332C461.3114 53.332 462.65454 54.675144 462.65454 56.332Z" fill-rule="nonzero"/><path fill="#000000" fill-opacity="0.0" clip-path="url(#id_0)" d="M468.0677 344.95C468.0677 346.60684 466.72452 347.95 465.0677 347.95C463.41083 347.95 462.0677 346.60684 462.0677 344.95C462.0677 343.29315 463.41083 341.95 465.0677 341.95C466.72452 341.95 468.0677 343.29315 468.0677 344.95Z" fill-rule="nonzero"/><path fill="#000000" fill-opacity="0.0" clip-path="url(#id_0)" d="M473.4808 344.95C473.4808 346.60684 472.13766 347.95 470.4808 347.95C468.82394 347.95 467.4808 346.60684 467.4808 344.95C467.4808 343.29315 468.82394 341.95 470.4808 341.95C472.13766 341.95 473.4808 343.29315 473.4808 344.95Z" fill-rule="nonzero"/><path fill="#000000" fill-opacity="0.0" clip-path="url(#id_0)" d="M478.89395 56.332C478.89395 57.988853 477.55078 59.332 475.89395 59.332C474.2371 59.332 472.89395 57.988853 472.89395 56.332C472.89395 54.675144 474.2371 53.332 475.89395 53.332C477.55078 53.332 478.89395 54.675144 478.89395 56.332Z" fill-rule="nonzero"/><path fill="#000000" fill-opacity="0.0" clip-path="url(#id_0)" d="M484.30707 344.95C484.30707 346.60684 482.96393 347.95 481.30707 347.95C479.6502 347.95 478.30707 346.60684 478.30707 344.95C478.30707 343.29315 479.6502 341.95 481.30707 341.95C482.96393 341.95 484.30707 343.29315 484.30707 344.95Z" fill-rule="nonzero"/><path fill="#000000" fill-opacity="0.0" clip-path="url(#id_0)" d="M489.7202 344.95C489.7202 346.60684 488.37704 347.95 486.7202 347.95C485.06335 347.95 483.7202 346.60684 483.7202 344.95C483.7202 343.29315 485.06335 341.95 486.7202 341.95C488.37704 341.95 489.7202 343.29315 489.7202 344.95Z" fill-rule="nonzero"/><path fill="#000000" fill-opacity="0.0" clip-path="url(#id_0)" d="M495.13333 344.95C495.13333 346.60684 493.7902 347.95 492.13333 347.95C490.47647 347.95 489.13333 346.60684 489.13333 344.95C489.13333 343.29315 490.47647 341.95 492.13333 341.95C493.7902 341.95 495.13333 343.29315 495.13333 344.95Z" fill-rule="nonzero"/><path fill="#000000" fill-opacity="0.0" clip-path="url(#id_0)" d="M500.54648 56.332C500.54648 57.988853 499.2033 59.332 497.54648 59.332C495.88962 59.332 494.54648 57.988853 494.54648 56.332C494.54648 54.675144 495.88962 53.332 497.54648 53.332C499.2033 53.332 500.54648 54.675144 500.54648 56.332Z" fill-rule="nonzero"/><path fill="#000000" fill-opacity="0.0" clip-path="url(#id_0)" d="M505.9596 56.332C505.9596 57.988853 504.61646 59.332 502.9596 59.332C501.30273 59.332 499.9596 57.988853 499.9596 56.332C499.9596 54.675144 501.30273 53.332 502.9596 53.332C504.61646 53.332 505.9596 54.675144 505.9596 56.332Z" fill-rule="nonzero"/><path fill="#000000" fill-opacity="0.0" clip-path="url(#id_0)" d="M511.37274 56.332C511.37274 57.988853 510.02957 59.332 508.37274 59.332C506.71588 59.332 505.37274 57.988853 505.37274 56.332C505.37274 54.675144 506.71588 53.332 508.37274 53.332C510.02957 53.332 511.37274 54.675144 511.37274 56.332Z" fill-rule="nonzero"/><path fill="#000000" fill-opacity="0.0" clip-path="url(#id_0)" d="M516.7859 344.95C516.7859 346.60684 515.4427 347.95 513.7859 347.95C512.129 347.95 510.78586 346.60684 510.78586 344.95C510.78586 343.29315 512.129 341.95 513.7859 341.95C515.4427 341.95 516.7859 343.29315 516.7859 344.95Z" fill-rule="nonzero"/><path fill="#000000" fill-opacity="0.0" clip-path="url(#id_0)" d="M522.199 56.332C522.199 57.988853 520.85583 59.332 519.199 59.332C517.5421 59.332 516.199 57.988853 516.199 56.332C516.199 54.675144 517.5421 53.332 519.199 53.332C520.85583 53.332 522.199 54.675144 522.199 56.332Z" fill-rule="nonzero"/><path fill="#000000" fill-opacity="0.0" clip-path="url(#id_0)" d="M527.6121 344.95C527.6121 346.60684 526.269 347.95 524.6121 347.95C522.95526 347.95 521.6121 346.60684 521.6121 344.95C521.6121 343.29315 522.95526 341.95 524.6121 341.95C526.269 341.95 527.6121 343.29315 527.6121 344.95Z" fill-rule="nonzero"/><path fill="#000000" fill-opacity="0.0" clip-path="url(#id_0)" d="M533.02527 344.95C533.02527 346.60684 531.6821 347.95 530.02527 347.95C528.3684 347.95 527.02527 346.60684 527.02527 344.95C527.02527 343.29315 528.3684 341.95 530.02527 341.95C531.6821 341.95 533.02527 343.29315 533.02527 344.95Z" fill-rule="nonzero"/><path fill="#000000" fill-opacity="0.0" clip-path="url(#id_0)" d="M538.43835 344.95C538.43835 346.60684 537.0952 347.95 535.43835 347.95C533.78156 347.95 532.43835 346.60684 532.43835 344.95C532.43835 343.29315 533.78156 341.95 535.43835 341.95C537.0952 341.95 538.43835 343.29315 538.43835 344.95Z" fill-rule="nonzero"/><path fill="#000000" fill-opacity="0.0" clip-path="url(#id_0)" d="M543.8515 56.332C543.8515 57.988853 542.50836 59.332 540.8515 59.332C539.19464 59.332 537.8515 57.988853 537.8515 56.332C537.8515 54.675144 539.19464 53.332 540.8515 53.332C542.50836 53.332 543.8515 54.675144 543.8515 56.332Z" fill-rule="nonzero"/><path fill="#000000" fill-opacity="0.0" clip-path="url(#id_0)" d="M549.26465 344.95C549.26465 346.60684 547.9215 347.95 546.26465 347.95C544.6078 347.95 543.26465 346.60684 543.26465 344.95C543.26465 343.29315 544.6078 341.95 546.26465 341.95C547.9215 341.95 549.26465 343.29315 549.26465 344.95Z" fill-rule="nonzero"/><path fill="#000000" fill-opacity="0.0" clip-path="url(#id_0)" d="M554.6778 56.332C554.6778 57.988853 553.33466 59.332 551.6778 59.332C550.02094 59.332 548.6778 57.988853 548.6778 56.332C548.6778 54.675144 550.02094 53.332 551.6778 53.332C553.33466 53.332 554.6778 54.675144 554.6778 56.332Z" fill-rule="nonzero"/><path fill="#000000" fill-opacity="0.0" clip-path="url(#id_0)" d="M560.0909 56.332C560.0909 57.988853 558.74774 59.332 557.0909 59.332C555.4341 59.332 554.0909 57.988853 554.0909 56.332C554.0909 54.675144 555.4341 53.332 557.0909 53.332C558.74774 53.332 560.0909 54.675144 560.0909 56.332Z" fill-rule="nonzero"/><path fill="#000000" fill-opacity="0.0" clip-path="url(#id_0)" d="M565.504 344.95C565.504 346.60684 564.1609 347.95 562.504 347.95C560.84717 347.95 559.504 346.60684 559.504 344.95C559.504 343.29315 560.84717 341.95 562.504 341.95C564.1609 341.95 565.504 343.29315 565.504 344.95Z" fill-rule="nonzero"/><path fill="#000000" fill-opacity="0.0" clip-path="url(#id_0)" d="M570.9172 344.95C570.9172 346.60684 569.57404 347.95 567.9172 347.95C566.2603 347.95 564.9172 346.60684 564.9172 344.95C564.9172 343.29315 566.2603 341.95 567.9172 341.95C569.57404 341.95 570.9172 343.29315 570.9172 344.95Z" fill-rule="nonzero"/><path fill="#000000" fill-opacity="0.0" clip-path="url(#id_0)" d="M576.3303 56.332C576.3303 57.988853 574.9872 59.332 573.3303 59.332C571.67346 59.332 570.3303 57.988853 570.3303 56.332C570.3303 54.675144 571.67346 53.332 573.3303 53.332C574.9872 53.332 576.3303 54.675144 576.3303 56.332Z" fill-rule="nonzero"/><path fill="#000000" fill-opacity="0.0" clip-path="url(#id_0)" d="M581.7434 56.332C581.7434 57.988853 580.40027 59.332 578.7434 59.332C577.0866 59.332 575.7434 57.988853 575.7434 56.332C575.7434 54.675144 577.0866 53.332 578.7434 53.332C580.40027 53.332 581.7434 54.675144 581.7434 56.332Z" fill-rule="nonzero"/><path fill="#000000" fill-opacity="0.0" clip-path="url(#id_0)" d="M51.256565 344.95C51.256565 346.60684 49.91342 347.95 48.256565 347.95C46.599712 347.95 45.256565 346.60684 45.256565 344.95C45.256565 343.29315 46.599712 341.95 48.256565 341.95C49.91342 341.95 51.256565 343.29315 51.256565 344.95Z" fill-rule="nonzero"/><path fill="#000000" fill-opacity="0.0" clip-path="url(#id_0)" d="M56.669697 344.95C56.669697 346.60684 55.32655 347.95 53.669697 347.95C52.012844 347.95 50.669697 346.60684 50.669697 344.95C50.669697 343.29315 52.012844 341.95 53.669697 341.95C55.32655 341.95 56.669697 343.29315 56.669697 344.95Z" fill-rule="nonzero"/><path fill="#000000" fill-opacity="0.0" clip-path="url(#id_0)" d="M62.08283 344.95C62.08283 346.60684 60.73968 347.95 59.08283 347.95C57.425976 347.95 56.08283 346.60684 56.08283 344.95C56.08283 343.29315 57.425976 341.95 59.08283 341.95C60.73968 341.95 62.08283 343.29315 62.08283 344.95Z" fill-rule="nonzero"/><path fill="#000000" fill-opacity="0.0" clip-path="url(#id_0)" d="M67.49596 344.95C67.49596 346.60684 66.15282 347.95 64.49596 347.95C62.839104 347.95 61.49596 346.60684 61.49596 344.95C61.49596 343.29315 62.839104 341.95 64.49596 341.95C66.15282 341.95 67.49596 343.29315 67.49596 344.95Z" fill-rule="nonzero"/><path fill="#000000" fill-opacity="0.0" clip-path="url(#id_0)" d="M72.90909 344.95C72.90909 346.60684 71.56595 347.95 69.90909 347.95C68.252235 347.95 66.90909 346.60684 66.90909 344.95C66.90909 343.29315 68.252235 341.95 69.90909 341.95C71.56595 341.95 72.90909 343.29315 72.90909 344.95Z" fill-rule="nonzero"/><path fill="#000000" fill-opacity="0.0" clip-path="url(#id_0)" d="M78.32222 344.95C78.32222 346.60684 76.97908 347.95 75.32222 347.95C73.66537 347.95 72.32222 346.60684 72.32222 344.95C72.32222 343.29315 73.66537 341.95 75.32222 341.95C76.97908 341.95 78.32222 343.29315 78.32222 344.95Z" fill-rule="nonzero"/><path fill="#000000" fill-opacity="0.0" clip-path="url(#id_0)" d="M83.73535 344.95C83.73535 346.60684 82.392204 347.95 80.73535 347.95C79.0785 347.95 77.73535 346.60684 77.73535 344.95C77.73535 343.29315 79.0785 341.95 80.73535 341.95C82.392204 341.95 83.73535 343.29315 83.73535 344.95Z" fill-rule="nonzero"/><path fill="#000000" fill-opacity="0.0" clip-path="url(#id_0)" d="M89.14848 344.95C89.14848 346.60684 87.805336 347.95 86.14848 347.95C84.49163 347.95 83.14848 346.60684 83.14848 344.95C83.14848 343.29315 84.49163 341.95 86.14848 341.95C87.805336 341.95 89.14848 343.29315 89.14848 344.95Z" fill-rule="nonzero"/><path fill="#000000" fill-opacity="0.0" clip-path="url(#id_0)" d="M94.561615 344.95C94.561615 346.60684 93.21847 347.95 91.561615 347.95C89.90476 347.95 88.561615 346.60684 88.561615 344.95C88.561615 343.29315 89.90476 341.95 91.561615 341.95C93.21847 341.95 94.561615 343.29315 94.561615 344.95Z" fill-rule="nonzero"/><path fill="#000000" fill-opacity="0.0" clip-path="url(#id_0)" d="M99.97475 279.40488C99.97475 281.06174 98.6316 282.40488 96.97475 282.40488C95.317894 282.40488 93.97475 281.06174 93.97475 279.40488C93.97475 277.74802 95.317894 276.40488 96.97475 276.40488C98.6316 276.40488 99.97475 277.74802 99.97475 279.40488Z" fill-rule="nonzero"/><path fill="#000000" fill-opacity="0.0" clip-path="url(#id_0)" d="M105.38788 203.60051C105.38788 205.25735 104.04473 206.60051 102.38788 206.60051C100.731026 206.60051 99.38788 205.25735 99.38788 203.60051C99.38788 201.94365 100.731026 200.60051 102.38788 200.60051C104.04473 200.60051 105.38788 201.94365 105.38788 203.60051Z" fill-rule="nonzero"/><path fill="#000000" fill-opacity="0.0" clip-path="url(#id_0)" d="M110.80101 245.77737C110.80101 247.43422 109.45786 248.77737 107.80101 248.77737C106.14416 248.77737 104.80101 247.43422 104.80101 245.77737C104.80101 244.12051 106.14416 242.77737 107.80101 242.77737C109.45786 242.77737 110.80101 244.12051 110.80101 245.77737Z" fill-rule="nonzero"/><path fill="#000000" fill-opacity="0.0" clip-path="url(#id_0)" d="M116.21414 214.71468C116.21414 216.37154 114.870995 217.71468 113.21414 217.71468C111.55729 217.71468 110.21414 216.37154 110.21414 214.71468C110.21414 213.05783 111.55729 211.71468 113.21414 211.71468C114.870995 211.71468 116.21414 213.05783 116.21414 214.71468Z" fill-rule="nonzero"/><path fill="#000000" fill-opacity="0.0" clip-path="url(#id_0)" d="M121.62727 199.04085C121.62727 200.6977 120.28413 202.04085 118.62727 202.04085C116.97042 202.04085 115.62727 200.6977 115.62727 199.04085C115.62727 197.38399 116.97042 196.04085 118.62727 196.04085C120.28413 196.04085 121.62727 197.38399 121.62727 199.04085Z" fill-rule="nonzero"/><path fill="#000000" fill-opacity="0.0" clip-path="url(#id_0)" d="M127.040405 237.22801C127.040405 238.88486 125.69726 240.22801 124.040405 240.22801C122.38355 240.22801 121.040405 238.88486 121.040405 237.22801C121.040405 235.57115 122.38355 234.22801 124.040405 234.22801C125.69726 234.22801 127.040405 235.57115 127.040405 237.22801Z" fill-rule="nonzero"/><path fill="#000000" fill-opacity="0.0" clip-path="url(#id_0)" d="M132.45354 166.83824C132.45354 168.49509 131.11038 169.83824 129.45354 169.83824C127.796684 169.83824 126.45354 168.49509 126.45354 166.83824C126.45354 165.18138 127.796684 163.83824 129.45354 163.83824C131.11038 163.83824 132.45354 165.18138 132.45354 166.83824Z" fill-rule="nonzero"/><path fill="#000000" fill-opacity="0.0" clip-path="url(#id_0)" d="M137.86667 114.40214C137.86667 116.05899 136.52351 117.40214 134.86667 117.40214C133.20981 117.40214 131.86667 116.05899 131.86667 114.40214C131.86667 112.74528 133.20981 111.40214 134.86667 111.40214C136.52351 111.40214 137.86667 112.74528 137.86667 114.40214Z" fill-rule="nonzero"/><path fill="#000000" fill-opacity="0.0" clip-path="url(#id_0)" d="M143.2798 153.15926C143.2798 154.8161 141.93665 156.15926 140.2798 156.15926C138.62294 156.15926 137.2798 154.8161 137.2798 153.15926C137.2798 151.5024 138.62294 150.15926 140.2798 150.15926C141.93665 150.15926 143.2798 151.5024 143.2798 153.15926Z" fill-rule="nonzero"/><path fill="#000000" fill-opacity="0.0" clip-path="url(#id_0)" d="M148.69293 197.90092C148.69293 199.55779 147.34978 200.90092 145.69293 200.90092C144.03607 200.90092 142.69293 199.55779 142.69293 197.90092C142.69293 196.24408 144.03607 194.90092 145.69293 194.90092C147.34978 194.90092 148.69293 196.24408 148.69293 197.90092Z" fill-rule="nonzero"/><path fill="#000000" fill-opacity="0.0" clip-path="url(#id_0)" d="M154.10606 230.38852C154.10606 232.04536 152.76291 233.38852 151.10606 233.38852C149.4492 233.38852 148.10606 232.04536 148.10606 230.38852C148.10606 228.73166 149.4492 227.38852 151.10606 227.38852C152.76291 227.38852 154.10606 228.73166 154.10606 230.38852Z" fill-rule="nonzero"/><path fill="#000000" fill-opacity="0.0" clip-path="url(#id_0)" d="M159.5192 271.14047C159.5192 272.79733 158.17604 274.14047 156.5192 274.14047C154.86234 274.14047 153.5192 272.79733 153.5192 271.14047C153.5192 269.48364 154.86234 268.14047 156.5192 268.14047C158.17604 268.14047 159.5192 269.48364 159.5192 271.14047Z" fill-rule="nonzero"/><path fill="#000000" fill-opacity="0.0" clip-path="url(#id_0)" d="M164.93233 199.32582C164.93233 200.98268 163.58917 202.32582 161.93233 202.32582C160.27547 202.32582 158.93233 200.98268 158.93233 199.32582C158.93233 197.66898 160.27547 196.32582 161.93233 196.32582C163.58917 196.32582 164.93233 197.66898 164.93233 199.32582Z" fill-rule="nonzero"/><path fill="#000000" fill-opacity="0.0" clip-path="url(#id_0)" d="M170.34546 122.66652C170.34546 124.32337 169.0023 125.66652 167.34546 125.66652C165.6886 125.66652 164.34546 124.32337 164.34546 122.66652C164.34546 121.00967 165.6886 119.66652 167.34546 119.66652C169.0023 119.66652 170.34546 121.00967 170.34546 122.66652Z" fill-rule="nonzero"/><path fill="#000000" fill-opacity="0.0" clip-path="url(#id_0)" d="M175.75859 103.85792C175.75859 105.51477 174.41544 106.85792 172.75859 106.85792C171.10173 106.85792 169.75859 105.51477 169.75859 103.85792C169.75859 102.201065 171.10173 100.85792 172.75859 100.85792C174.41544 100.85792 175.75859 102.201065 175.75859 103.85792Z" fill-rule="nonzero"/><path fill="#000000" fill-opacity="0.0" clip-path="url(#id_0)" d="M181.17172 128.93605C181.17172 130.59291 179.82857 131.93605 178.17172 131.93605C176.51486 131.93605 175.17172 130.59291 175.17172 128.93605C175.17172 127.2792 176.51486 125.93605 178.17172 125.93605C179.82857 125.93605 181.17172 127.2792 181.17172 128.93605Z" fill-rule="nonzero"/><path fill="#000000" fill-opacity="0.0" clip-path="url(#id_0)" d="M186.58485 171.3979C186.58485 173.05475 185.2417 174.3979 183.58485 174.3979C181.928 174.3979 180.58485 173.05475 180.58485 171.3979C180.58485 169.74104 181.928 168.3979 183.58485 168.3979C185.2417 168.3979 186.58485 169.74104 186.58485 171.3979Z" fill-rule="nonzero"/><path fill="#000000" fill-opacity="0.0" clip-path="url(#id_0)" d="M191.99799 157.14896C191.99799 158.80582 190.65483 160.14896 188.99799 160.14896C187.34113 160.14896 185.99799 158.80582 185.99799 157.14896C185.99799 155.4921 187.34113 154.14896 188.99799 154.14896C190.65483 154.14896 191.99799 155.4921 191.99799 157.14896Z" fill-rule="nonzero"/><path fill="#000000" fill-opacity="0.0" clip-path="url(#id_0)" d="M197.41112 157.43393C197.41112 159.09079 196.06796 160.43393 194.41112 160.43393C192.75426 160.43393 191.41112 159.09079 191.41112 157.43393C191.41112 155.77708 192.75426 154.43393 194.41112 154.43393C196.06796 154.43393 197.41112 155.77708 197.41112 157.43393Z" fill-rule="nonzero"/><path fill="#000000" fill-opacity="0.0" clip-path="url(#id_0)" d="M202.82425 139.1953C202.82425 140.85214 201.4811 142.1953 199.82425 142.1953C198.16739 142.1953 196.82425 140.85214 196.82425 139.1953C196.82425 137.53844 198.16739 136.1953 199.82425 136.1953C201.4811 136.1953 202.82425 137.53844 202.82425 139.1953Z" fill-rule="nonzero"/><path fill="#000000" fill-opacity="0.0" clip-path="url(#id_0)" d="M208.23738 149.7395C208.23738 151.39636 206.89423 152.7395 205.23738 152.7395C203.58052 152.7395 202.23738 151.39636 202.23738 149.7395C202.23738 148.08266 203.58052 146.7395 205.23738 146.7395C206.89423 146.7395 208.23738 148.08266 208.23738 149.7395Z" fill-rule="nonzero"/><path fill="#000000" fill-opacity="0.0" clip-path="url(#id_0)" d="M213.6505 180.51723C213.6505 182.17407 212.30736 183.51723 210.6505 183.51723C208.99365 183.51723 207.6505 182.17407 207.6505 180.51723C207.6505 178.86037 208.99365 177.51723 210.6505 177.51723C212.30736 177.51723 213.6505 178.86037 213.6505 180.51723Z" fill-rule="nonzero"/><path fill="#000000" fill-opacity="0.0" clip-path="url(#id_0)" d="M219.06363 213.57477C219.06363 215.23161 217.72049 216.57477 216.06363 216.57477C214.40678 216.57477 213.06363 215.23161 213.06363 213.57477C213.06363 211.91791 214.40678 210.57477 216.06363 210.57477C217.72049 210.57477 219.06363 211.91791 219.06363 213.57477Z" fill-rule="nonzero"/><path fill="#000000" fill-opacity="0.0" clip-path="url(#id_0)" d="M224.47676 193.62625C224.47676 195.2831 223.13362 196.62625 221.47676 196.62625C219.81992 196.62625 218.47676 195.2831 218.47676 193.62625C218.47676 191.96939 219.81992 190.62625 221.47676 190.62625C223.13362 190.62625 224.47676 191.96939 224.47676 193.62625Z" fill-rule="nonzero"/><path fill="#000000" fill-opacity="0.0" clip-path="url(#id_0)" d="M229.8899 121.5266C229.8899 123.18346 228.54675 124.5266 226.8899 124.5266C225.23305 124.5266 223.8899 123.18346 223.8899 121.5266C223.8899 119.86975 225.23305 118.5266 226.8899 118.5266C228.54675 118.5266 229.8899 119.86975 229.8899 121.5266Z" fill-rule="nonzero"/><path fill="#000000" fill-opacity="0.0" clip-path="url(#id_0)" d="M235.30302 144.03993C235.30302 145.6968 233.95988 147.03993 232.30302 147.03993C230.64618 147.03993 229.30302 145.6968 229.30302 144.03993C229.30302 142.38307 230.64618 141.03993 232.30302 141.03993C233.95988 141.03993 235.30302 142.38307 235.30302 144.03993Z" fill-rule="nonzero"/><path fill="#000000" fill-opacity="0.0" clip-path="url(#id_0)" d="M240.71616 113.547195C240.71616 115.204056 239.37302 116.547195 237.71616 116.547195C236.05931 116.547195 234.71616 115.204056 234.71616 113.547195C234.71616 111.89034 236.05931 110.547195 237.71616 110.547195C239.37302 110.547195 240.71616 111.89034 240.71616 113.547195Z" fill-rule="nonzero"/><path fill="#000000" fill-opacity="0.0" clip-path="url(#id_0)" d="M246.12929 102.14805C246.12929 103.8049 244.78615 105.14805 243.12929 105.14805C241.47244 105.14805 240.12929 103.8049 240.12929 102.14805C240.12929 100.49119 241.47244 99.14805 243.12929 99.14805C244.78615 99.14805 246.12929 100.49119 246.12929 102.14805Z" fill-rule="nonzero"/><path fill="#000000" fill-opacity="0.0" clip-path="url(#id_0)" d="M251.54242 99.86822C251.54242 101.52507 250.19928 102.86822 248.54242 102.86822C246.88557 102.86822 245.54242 101.52507 245.54242 99.86822C245.54242 98.21136 246.88557 96.86822 248.54242 96.86822C250.19928 96.86822 251.54242 98.21136 251.54242 99.86822Z" fill-rule="nonzero"/><path fill="#000000" fill-opacity="0.0" clip-path="url(#id_0)" d="M256.95557 99.86822C256.95557 101.52507 255.61241 102.86822 253.95555 102.86822C252.2987 102.86822 250.95555 101.52507 250.95555 99.86822C250.95555 98.21136 252.2987 96.86822 253.95555 96.86822C255.61241 96.86822 256.95557 98.21136 256.95557 99.86822Z" fill-rule="nonzero"/><path fill="#000000" fill-opacity="0.0" clip-path="url(#id_0)" d="M262.36868 116.11201C262.36868 117.76886 261.02554 119.11201 259.36868 119.11201C257.71182 119.11201 256.36868 117.76886 256.36868 116.11201C256.36868 114.455154 257.71182 113.11201 259.36868 113.11201C261.02554 113.11201 262.36868 114.455154 262.36868 116.11201Z" fill-rule="nonzero"/><path fill="#000000" fill-opacity="0.0" clip-path="url(#id_0)" d="M267.78183 167.12321C267.78183 168.78008 266.43866 170.12321 264.78183 170.12321C263.12497 170.12321 261.78183 168.78008 261.78183 167.12321C261.78183 165.46635 263.12497 164.12321 264.78183 164.12321C266.43866 164.12321 267.78183 165.46635 267.78183 167.12321Z" fill-rule="nonzero"/><path fill="#000000" fill-opacity="0.0" clip-path="url(#id_0)" d="M273.19495 212.43484C273.19495 214.0917 271.8518 215.43484 270.19495 215.43484C268.5381 215.43484 267.19495 214.0917 267.19495 212.43484C267.19495 210.778 268.5381 209.43484 270.19495 209.43484C271.8518 209.43484 273.19495 210.778 273.19495 212.43484Z" fill-rule="nonzero"/><path fill="#000000" fill-opacity="0.0" clip-path="url(#id_0)" d="M278.6081 264.58597C278.6081 266.24283 277.26492 267.58597 275.6081 267.58597C273.95123 267.58597 272.6081 266.24283 272.6081 264.58597C272.6081 262.9291 273.95123 261.58597 275.6081 261.58597C277.26492 261.58597 278.6081 262.9291 278.6081 264.58597Z" fill-rule="nonzero"/><path fill="#000000" fill-opacity="0.0" clip-path="url(#id_0)" d="M284.0212 250.62201C284.0212 252.27887 282.67807 253.62201 281.0212 253.62201C279.36435 253.62201 278.0212 252.27887 278.0212 250.62201C278.0212 248.96515 279.36435 247.62201 281.0212 247.62201C282.67807 247.62201 284.0212 248.96515 284.0212 250.62201Z" fill-rule="nonzero"/><path fill="#000000" fill-opacity="0.0" clip-path="url(#id_0)" d="M289.43436 201.03569C289.43436 202.69255 288.0912 204.03569 286.43436 204.03569C284.7775 204.03569 283.43436 202.69255 283.43436 201.03569C283.43436 199.37885 284.7775 198.03569 286.43436 198.03569C288.0912 198.03569 289.43436 199.37885 289.43436 201.03569Z" fill-rule="nonzero"/><path fill="#000000" fill-opacity="0.0" clip-path="url(#id_0)" d="M294.84747 239.79282C294.84747 241.44968 293.50433 242.79282 291.84747 242.79282C290.1906 242.79282 288.84747 241.44968 288.84747 239.79282C288.84747 238.13596 290.1906 236.79282 291.84747 236.79282C293.50433 236.79282 294.84747 238.13596 294.84747 239.79282Z" fill-rule="nonzero"/><path fill="#000000" fill-opacity="0.0" clip-path="url(#id_0)" d="M300.26062 269.4306C300.26062 271.08746 298.91745 272.4306 297.26062 272.4306C295.60376 272.4306 294.26062 271.08746 294.26062 269.4306C294.26062 267.77377 295.60376 266.4306 297.26062 266.4306C298.91745 266.4306 300.26062 267.77377 300.26062 269.4306Z" fill-rule="nonzero"/><path fill="#000000" fill-opacity="0.0" clip-path="url(#id_0)" d="M305.67374 195.6211C305.67374 197.27795 304.3306 198.6211 302.67374 198.6211C301.01688 198.6211 299.67374 197.27795 299.67374 195.6211C299.67374 193.96425 301.01688 192.6211 302.67374 192.6211C304.3306 192.6211 305.67374 193.96425 305.67374 195.6211Z" fill-rule="nonzero"/><path fill="#000000" fill-opacity="0.0" clip-path="url(#id_0)" d="M311.08688 188.7816C311.08688 190.43846 309.7437 191.7816 308.08688 191.7816C306.43002 191.7816 305.08688 190.43846 305.08688 188.7816C305.08688 187.12476 306.43002 185.7816 308.08688 185.7816C309.7437 185.7816 311.08688 187.12476 311.08688 188.7816Z" fill-rule="nonzero"/><path fill="#000000" fill-opacity="0.0" clip-path="url(#id_0)" d="M316.5 220.9842C316.5 222.64107 315.15686 223.9842 313.5 223.9842C311.84314 223.9842 310.5 222.64107 310.5 220.9842C310.5 219.32736 311.84314 217.9842 313.5 217.9842C315.15686 217.9842 316.5 219.32736 316.5 220.9842Z" fill-rule="nonzero"/><path fill="#000000" fill-opacity="0.0" clip-path="url(#id_0)" d="M321.91312 251.76193C321.91312 253.41878 320.56998 254.76193 318.91312 254.76193C317.2563 254.76193 315.91312 253.41878 315.91312 251.76193C315.91312 250.10507 317.2563 248.76193 318.91312 248.76193C320.56998 248.76193 321.91312 250.10507 321.91312 251.76193Z" fill-rule="nonzero"/><path fill="#000000" fill-opacity="0.0" clip-path="url(#id_0)" d="M327.32626 280.2598C327.32626 281.91666 325.98312 283.2598 324.32626 283.2598C322.6694 283.2598 321.32626 281.91666 321.32626 280.2598C321.32626 278.60297 322.6694 277.2598 324.32626 277.2598C325.98312 277.2598 327.32626 278.60297 327.32626 280.2598Z" fill-rule="nonzero"/><path fill="#000000" fill-opacity="0.0" clip-path="url(#id_0)" d="M332.73938 227.25375C332.73938 228.9106 331.39624 230.25375 329.73938 230.25375C328.08255 230.25375 326.73938 228.9106 326.73938 227.25375C326.73938 225.5969 328.08255 224.25375 329.73938 224.25375C331.39624 224.25375 332.73938 225.5969 332.73938 227.25375Z" fill-rule="nonzero"/><path fill="#000000" fill-opacity="0.0" clip-path="url(#id_0)" d="M338.15253 169.973C338.15253 171.62985 336.8094 172.973 335.15253 172.973C333.49567 172.973 332.15253 171.62985 332.15253 169.973C332.15253 168.31615 333.49567 166.973 335.15253 166.973C336.8094 166.973 338.15253 168.31615 338.15253 169.973Z" fill-rule="nonzero"/><path fill="#000000" fill-opacity="0.0" clip-path="url(#id_0)" d="M343.56564 150.02449C343.56564 151.68134 342.2225 153.02449 340.56564 153.02449C338.9088 153.02449 337.56564 151.68134 337.56564 150.02449C337.56564 148.36763 338.9088 147.02449 340.56564 147.02449C342.2225 147.02449 343.56564 148.36763 343.56564 150.02449Z" fill-rule="nonzero"/><path fill="#000000" fill-opacity="0.0" clip-path="url(#id_0)" d="M348.9788 103.85792C348.9788 105.51477 347.63565 106.85792 345.9788 106.85792C344.32193 106.85792 342.9788 105.51477 342.9788 103.85792C342.9788 102.201065 344.32193 100.85792 345.9788 100.85792C347.63565 100.85792 348.9788 102.201065 348.9788 103.85792Z" fill-rule="nonzero"/><path fill="#000000" fill-opacity="0.0" clip-path="url(#id_0)" d="M354.3919 101.00813C354.3919 102.664986 353.04877 104.00813 351.3919 104.00813C349.73508 104.00813 348.3919 102.664986 348.3919 101.00813C348.3919 99.35127 349.73508 98.00813 351.3919 98.00813C353.04877 98.00813 354.3919 99.35127 354.3919 101.00813Z" fill-rule="nonzero"/><path fill="#000000" fill-opacity="0.0" clip-path="url(#id_0)" d="M359.80505 99.298256C359.80505 100.95511 358.4619 102.298256 356.80505 102.298256C355.1482 102.298256 353.80505 100.95511 353.80505 99.298256C353.80505 97.6414 355.1482 96.298256 356.80505 96.298256C358.4619 96.298256 359.80505 97.6414 359.80505 99.298256Z" fill-rule="nonzero"/><path fill="#000000" fill-opacity="0.0" clip-path="url(#id_0)" d="M365.21817 99.013275C365.21817 100.670135 363.87503 102.013275 362.21817 102.013275C360.56134 102.013275 359.21817 100.670135 359.21817 99.013275C359.21817 97.35642 360.56134 96.013275 362.21817 96.013275C363.87503 96.013275 365.21817 97.35642 365.21817 99.013275Z" fill-rule="nonzero"/><path fill="#000000" fill-opacity="0.0" clip-path="url(#id_0)" d="M370.63132 132.3558C370.63132 134.01265 369.28818 135.3558 367.63132 135.3558C365.97446 135.3558 364.63132 134.01265 364.63132 132.3558C364.63132 130.69894 365.97446 129.3558 367.63132 129.3558C369.28818 129.3558 370.63132 130.69894 370.63132 132.3558Z" fill-rule="nonzero"/><path fill="#000000" fill-opacity="0.0" clip-path="url(#id_0)" d="M376.04443 112.97724C376.04443 114.634094 374.7013 115.97724 373.04443 115.97724C371.3876 115.97724 370.04443 114.634094 370.04443 112.97724C370.04443 111.32039 371.3876 109.97724 373.04443 109.97724C374.7013 109.97724 376.04443 111.32039 376.04443 112.97724Z" fill-rule="nonzero"/><path fill="#000000" fill-opacity="0.0" clip-path="url(#id_0)" d="M381.45758 103.00298C381.45758 104.659836 380.11444 106.00298 378.45758 106.00298C376.80072 106.00298 375.45758 104.659836 375.45758 103.00298C375.45758 101.34613 376.80072 100.00298 378.45758 100.00298C380.11444 100.00298 381.45758 101.34613 381.45758 103.00298Z" fill-rule="nonzero"/><path fill="#000000" fill-opacity="0.0" clip-path="url(#id_0)" d="M386.8707 100.43817C386.8707 102.095024 385.52756 103.43817 383.8707 103.43817C382.21387 103.43817 380.8707 102.095024 380.8707 100.43817C380.8707 98.78132 382.21387 97.43817 383.8707 97.43817C385.52756 97.43817 386.8707 98.78132 386.8707 100.43817Z" fill-rule="nonzero"/><path fill="#000000" fill-opacity="0.0" clip-path="url(#id_0)" d="M392.28384 99.58324C392.28384 101.24009 390.9407 102.58324 389.28384 102.58324C387.62698 102.58324 386.28384 101.24009 386.28384 99.58324C386.28384 97.926384 387.62698 96.58324 389.28384 96.58324C390.9407 96.58324 392.28384 97.926384 392.28384 99.58324Z" fill-rule="nonzero"/><path fill="#000000" fill-opacity="0.0" clip-path="url(#id_0)" d="M397.69696 99.013275C397.69696 100.670135 396.35382 102.013275 394.69696 102.013275C393.04013 102.013275 391.69696 100.670135 391.69696 99.013275C391.69696 97.35642 393.04013 96.013275 394.69696 96.013275C396.35382 96.013275 397.69696 97.35642 397.69696 99.013275Z" fill-rule="nonzero"/><path fill="#000000" fill-opacity="0.0" clip-path="url(#id_0)" d="M403.1101 98.7283C403.1101 100.385155 401.76697 101.7283 400.1101 101.7283C398.45325 101.7283 397.1101 100.385155 397.1101 98.7283C397.1101 97.07144 398.45325 95.7283 400.1101 95.7283C401.76697 95.7283 403.1101 97.07144 403.1101 98.7283Z" fill-rule="nonzero"/><path fill="#000000" fill-opacity="0.0" clip-path="url(#id_0)" d="M408.52322 132.64078C408.52322 134.29764 407.18008 135.64078 405.52322 135.64078C403.86636 135.64078 402.52322 134.29764 402.52322 132.64078C402.52322 130.98392 403.86636 129.64078 405.52322 129.64078C407.18008 129.64078 408.52322 130.98392 408.52322 132.64078Z" fill-rule="nonzero"/><path fill="#000000" fill-opacity="0.0" clip-path="url(#id_0)" d="M413.93637 126.9412C413.93637 128.59805 412.59323 129.94121 410.93637 129.94121C409.2795 129.94121 407.93637 128.59805 407.93637 126.9412C407.93637 125.28435 409.2795 123.9412 410.93637 123.9412C412.59323 123.9412 413.93637 125.28435 413.93637 126.9412Z" fill-rule="nonzero"/><path fill="#000000" fill-opacity="0.0" clip-path="url(#id_0)" d="M419.3495 137.20044C419.3495 138.8573 418.00635 140.20044 416.3495 140.20044C414.69263 140.20044 413.3495 138.8573 413.3495 137.20044C413.3495 135.54358 414.69263 134.20044 416.3495 134.20044C418.00635 134.20044 419.3495 135.54358 419.3495 137.20044Z" fill-rule="nonzero"/><path fill="#000000" fill-opacity="0.0" clip-path="url(#id_0)" d="M424.76263 183.93697C424.76263 185.59383 423.4195 186.93697 421.76263 186.93697C420.10577 186.93697 418.76263 185.59383 418.76263 183.93697C418.76263 182.2801 420.10577 180.93697 421.76263 180.93697C423.4195 180.93697 424.76263 182.2801 424.76263 183.93697Z" fill-rule="nonzero"/><path fill="#000000" fill-opacity="0.0" clip-path="url(#id_0)" d="M430.17575 143.75496C430.17575 145.4118 428.8326 146.75496 427.17575 146.75496C425.5189 146.75496 424.17575 145.4118 424.17575 143.75496C424.17575 142.0981 425.5189 140.75496 427.17575 140.75496C428.8326 140.75496 430.17575 142.0981 430.17575 143.75496Z" fill-rule="nonzero"/><path fill="#000000" fill-opacity="0.0" clip-path="url(#id_0)" d="M435.5889 136.06053C435.5889 137.71738 434.24576 139.06053 432.5889 139.06053C430.93204 139.06053 429.5889 137.71738 429.5889 136.06053C429.5889 134.40367 430.93204 133.06053 432.5889 133.06053C434.24576 133.06053 435.5889 134.40367 435.5889 136.06053Z" fill-rule="nonzero"/><path fill="#000000" fill-opacity="0.0" clip-path="url(#id_0)" d="M441.002 191.91637C441.002 193.57323 439.65887 194.91637 438.002 194.91637C436.34515 194.91637 435.002 193.57323 435.002 191.91637C435.002 190.25952 436.34515 188.91637 438.002 188.91637C439.65887 188.91637 441.002 190.25952 441.002 191.91637Z" fill-rule="nonzero"/><path fill="#000000" fill-opacity="0.0" clip-path="url(#id_0)" d="M446.41516 226.96877C446.41516 228.62563 445.072 229.96877 443.41516 229.96877C441.7583 229.96877 440.41516 228.62563 440.41516 226.96877C440.41516 225.31192 441.7583 223.96877 443.41516 223.96877C445.072 223.96877 446.41516 225.31192 446.41516 226.96877Z" fill-rule="nonzero"/><path fill="#000000" fill-opacity="0.0" clip-path="url(#id_0)" d="M451.82828 268.0057C451.82828 269.66257 450.48514 271.0057 448.82828 271.0057C447.17142 271.0057 445.82828 269.66257 445.82828 268.0057C445.82828 266.34888 447.17142 265.0057 448.82828 265.0057C450.48514 265.0057 451.82828 266.34888 451.82828 268.0057Z" fill-rule="nonzero"/><path fill="#000000" fill-opacity="0.0" clip-path="url(#id_0)" d="M457.24142 309.04266C457.24142 310.69952 455.89825 312.04266 454.24142 312.04266C452.58456 312.04266 451.24142 310.69952 451.24142 309.04266C451.24142 307.3858 452.58456 306.04266 454.24142 306.04266C455.89825 306.04266 457.24142 307.3858 457.24142 309.04266Z" fill-rule="nonzero"/><path fill="#000000" fill-opacity="0.0" clip-path="url(#id_0)" d="M462.65454 225.82886C462.65454 227.4857 461.3114 228.82886 459.65454 228.82886C457.99768 228.82886 456.65454 227.4857 456.65454 225.82886C456.65454 224.172 457.99768 222.82886 459.65454 222.82886C461.3114 222.82886 462.65454 224.172 462.65454 225.82886Z" fill-rule="nonzero"/><path fill="#000000" fill-opacity="0.0" clip-path="url(#id_0)" d="M468.0677 142.61504C468.0677 144.2719 466.72452 145.61504 465.0677 145.61504C463.41083 145.61504 462.0677 144.2719 462.0677 142.61504C462.0677 140.95818 463.41083 139.61504 465.0677 139.61504C466.72452 139.61504 468.0677 140.95818 468.0677 142.61504Z" fill-rule="nonzero"/><path fill="#000000" fill-opacity="0.0" clip-path="url(#id_0)" d="M473.4808 157.14896C473.4808 158.80582 472.13766 160.14896 470.4808 160.14896C468.82394 160.14896 467.4808 158.80582 467.4808 157.14896C467.4808 155.4921 468.82394 154.14896 470.4808 154.14896C472.13766 154.14896 473.4808 155.4921 473.4808 157.14896Z" fill-rule="nonzero"/><path fill="#000000" fill-opacity="0.0" clip-path="url(#id_0)" d="M478.89395 204.74042C478.89395 206.39728 477.55078 207.74042 475.89395 207.74042C474.2371 207.74042 472.89395 206.39728 472.89395 204.74042C472.89395 203.08357 474.2371 201.74042 475.89395 201.74042C477.55078 201.74042 478.89395 203.08357 478.89395 204.74042Z" fill-rule="nonzero"/><path fill="#000000" fill-opacity="0.0" clip-path="url(#id_0)" d="M484.30707 165.12836C484.30707 166.78522 482.96393 168.12836 481.30707 168.12836C479.6502 168.12836 478.30707 166.78522 478.30707 165.12836C478.30707 163.47151 479.6502 162.12836 481.30707 162.12836C482.96393 162.12836 484.30707 163.47151 484.30707 165.12836Z" fill-rule="nonzero"/><path fill="#000000" fill-opacity="0.0" clip-path="url(#id_0)" d="M489.7202 156.86398C489.7202 158.52083 488.37704 159.86398 486.7202 159.86398C485.06335 159.86398 483.7202 158.52083 483.7202 156.86398C483.7202 155.20712 485.06335 153.86398 486.7202 153.86398C488.37704 153.86398 489.7202 155.20712 489.7202 156.86398Z" fill-rule="nonzero"/><path fill="#000000" fill-opacity="0.0" clip-path="url(#id_0)" d="M495.13333 199.89578C495.13333 201.55263 493.7902 202.89578 492.13333 202.89578C490.47647 202.89578 489.13333 201.55263 489.13333 199.89578C489.13333 198.23892 490.47647 196.89578 492.13333 196.89578C493.7902 196.89578 495.13333 198.23892 495.13333 199.89578Z" fill-rule="nonzero"/><path fill="#000000" fill-opacity="0.0" clip-path="url(#id_0)" d="M500.54648 236.08809C500.54648 237.74495 499.2033 239.08809 497.54648 239.08809C495.88962 239.08809 494.54648 237.74495 494.54648 236.08809C494.54648 234.43124 495.88962 233.08809 497.54648 233.08809C499.2033 233.08809 500.54648 234.43124 500.54648 236.08809Z" fill-rule="nonzero"/><path fill="#000000" fill-opacity="0.0" clip-path="url(#id_0)" d="M505.9596 184.50693C505.9596 186.16377 504.61646 187.50693 502.9596 187.50693C501.30273 187.50693 499.9596 186.16377 499.9596 184.50693C499.9596 182.85007 501.30273 181.50693 502.9596 181.50693C504.61646 181.50693 505.9596 182.85007 505.9596 184.50693Z" fill-rule="nonzero"/><path fill="#000000" fill-opacity="0.0" clip-path="url(#id_0)" d="M511.37274 116.39699C511.37274 118.05384 510.02957 119.39699 508.37274 119.39699C506.71588 119.39699 505.37274 118.05384 505.37274 116.39699C505.37274 114.740135 506.71588 113.39699 508.37274 113.39699C510.02957 113.39699 511.37274 114.740135 511.37274 116.39699Z" fill-rule="nonzero"/><path fill="#000000" fill-opacity="0.0" clip-path="url(#id_0)" d="M516.7859 102.718C516.7859 104.374855 515.4427 105.718 513.7859 105.718C512.129 105.718 510.78586 104.374855 510.78586 102.718C510.78586 101.06115 512.129 99.718 513.7859 99.718C515.4427 99.718 516.7859 101.06115 516.7859 102.718Z" fill-rule="nonzero"/><path fill="#000000" fill-opacity="0.0" clip-path="url(#id_0)" d="M522.199 138.34036C522.199 139.99721 520.85583 141.34036 519.199 141.34036C517.5421 141.34036 516.199 139.99721 516.199 138.34036C516.199 136.6835 517.5421 135.34036 519.199 135.34036C520.85583 135.34036 522.199 136.6835 522.199 138.34036Z" fill-rule="nonzero"/><path fill="#000000" fill-opacity="0.0" clip-path="url(#id_0)" d="M527.6121 118.96179C527.6121 120.61865 526.269 121.96179 524.6121 121.96179C522.95526 121.96179 521.6121 120.61865 521.6121 118.96179C521.6121 117.30494 522.95526 115.96179 524.6121 115.96179C526.269 115.96179 527.6121 117.30494 527.6121 118.96179Z" fill-rule="nonzero"/><path fill="#000000" fill-opacity="0.0" clip-path="url(#id_0)" d="M533.02527 126.37125C533.02527 128.02809 531.6821 129.37125 530.02527 129.37125C528.3684 129.37125 527.02527 128.02809 527.02527 126.37125C527.02527 124.71439 528.3684 123.37125 530.02527 123.37125C531.6821 123.37125 533.02527 124.71439 533.02527 126.37125Z" fill-rule="nonzero"/><path fill="#000000" fill-opacity="0.0" clip-path="url(#id_0)" d="M538.43835 171.11292C538.43835 172.76978 537.0952 174.11292 535.43835 174.11292C533.78156 174.11292 532.43835 172.76978 532.43835 171.11292C532.43835 169.45607 533.78156 168.11292 535.43835 168.11292C537.0952 168.11292 538.43835 169.45607 538.43835 171.11292Z" fill-rule="nonzero"/><path fill="#000000" fill-opacity="0.0" clip-path="url(#id_0)" d="M543.8515 209.87004C543.8515 211.52689 542.50836 212.87004 540.8515 212.87004C539.19464 212.87004 537.8515 211.52689 537.8515 209.87004C537.8515 208.21318 539.19464 206.87004 540.8515 206.87004C542.50836 206.87004 543.8515 208.21318 543.8515 209.87004Z" fill-rule="nonzero"/><path fill="#000000" fill-opacity="0.0" clip-path="url(#id_0)" d="M549.26465 152.87427C549.26465 154.53113 547.9215 155.87427 546.26465 155.87427C544.6078 155.87427 543.26465 154.53113 543.26465 152.87427C543.26465 151.21742 544.6078 149.87427 546.26465 149.87427C547.9215 149.87427 549.26465 151.21742 549.26465 152.87427Z" fill-rule="nonzero"/><path fill="#000000" fill-opacity="0.0" clip-path="url(#id_0)" d="M554.6778 154.01419C554.6778 155.67105 553.33466 157.01419 551.6778 157.01419C550.02094 157.01419 548.6778 155.67105 548.6778 154.01419C548.6778 152.35733 550.02094 151.01419 551.6778 151.01419C553.33466 151.01419 554.6778 152.35733 554.6778 154.01419Z" fill-rule="nonzero"/><path fill="#000000" fill-opacity="0.0" clip-path="url(#id_0)" d="M560.0909 148.31462C560.0909 149.97147 558.74774 151.31462 557.0909 151.31462C555.4341 151.31462 554.0909 149.97147 554.0909 148.31462C554.0909 146.65776 555.4341 145.31462 557.0909 145.31462C558.74774 145.31462 560.0909 146.65776 560.0909 148.31462Z" fill-rule="nonzero"/><path fill="#000000" fill-opacity="0.0" clip-path="url(#id_0)" d="M565.504 108.41758C565.504 110.07443 564.1609 111.41758 562.504 111.41758C560.84717 111.41758 559.504 110.07443 559.504 108.41758C559.504 106.76073 560.84717 105.41758 562.504 105.41758C564.1609 105.41758 565.504 106.76073 565.504 108.41758Z" fill-rule="nonzero"/><path fill="#000000" fill-opacity="0.0" clip-path="url(#id_0)" d="M570.9172 147.45967C570.9172 149.11653 569.57404 150.45967 567.9172 150.45967C566.2603 150.45967 564.9172 149.11653 564.9172 147.45967C564.9172 145.80283 566.2603 144.45967 567.9172 144.45967C569.57404 144.45967 570.9172 145.80283 570.9172 147.45967Z" fill-rule="nonzero"/><path fill="#000000" fill-opacity="0.0" clip-path="url(#id_0)" d="M576.3303 189.35156C576.3303 191.00842 574.9872 192.35156 573.3303 192.35156C571.67346 192.35156 570.3303 191.00842 570.3303 189.35156C570.3303 187.69472 571.67346 186.35156 573.3303 186.35156C574.9872 186.35156 576.3303 187.69472 576.3303 189.35156Z" fill-rule="nonzero"/><path fill="#000000" fill-opacity="0.0" clip-path="url(#id_0)" d="M581.7434 141.7601C581.7434 143.41696 580.40027 144.7601 578.7434 144.7601C577.0866 144.7601 575.7434 143.41696 575.7434 141.7601C575.7434 140.10324 577.0866 138.7601 578.7434 138.7601C580.40027 138.7601 581.7434 140.10324 581.7434 141.7601Z" fill-rule="nonzero"/><path fill="#757575" d="M38.6125 345.8094Q38.6125 347.71564 37.95625 348.65314Q37.315624 349.575 35.925 349.575Q34.565624 349.575 33.909374 348.66876Q33.253124 347.7625 33.221874 345.95L33.221874 344.5125Q33.221874 342.6219 33.8625 341.71564Q34.51875 340.79376 35.909374 340.79376Q37.284374 340.79376 37.940624 341.6844Q38.596874 342.5594 38.6125 344.40314L38.6125 345.8094ZM37.51875 344.325Q37.51875 342.95 37.128124 342.325Q36.753124 341.6844 35.909374 341.6844Q35.08125 341.6844 34.690624 342.325Q34.315624 342.95 34.315624 344.2469L34.315624 345.98126Q34.315624 347.35626 34.70625 348.02814Q35.1125 348.6844 35.925 348.6844Q36.721874 348.6844 37.1125 348.0594Q37.503124 347.4344 37.51875 346.10626L37.51875 344.325Z" fill-rule="nonzero"/><path fill="#757575" d="M36.815624 291.14334L35.7375 291.14334L35.7375 283.9246L33.55 284.72147L33.55 283.7371L36.659374 282.56522L36.815624 282.56522L36.815624 291.14334Z" fill-rule="nonzero"/><path fill="#757575" d="M38.846874 232.83667L33.253124 232.83667L33.253124 232.05542L36.20625 228.77417Q36.8625 228.02417 37.1125 227.57104Q37.3625 227.1023 37.3625 226.6023Q37.3625 225.93042 36.95625 225.50854Q36.565624 225.07104 35.878124 225.07104Q35.08125 225.07104 34.628124 225.5398Q34.175 225.99292 34.175 226.82104L33.096874 226.82104Q33.096874 225.63354 33.846874 224.9148Q34.6125 224.18042 35.878124 224.18042Q37.08125 224.18042 37.76875 224.80542Q38.45625 225.43042 38.45625 226.4773Q38.45625 227.7273 36.846874 229.4773L34.565624 231.94604L38.846874 231.94604L38.846874 232.83667Z" fill-rule="nonzero"/><path fill="#757575" d="M34.83125 169.73312L35.64375 169.73312Q36.425 169.7175 36.8625 169.32687Q37.3 168.93625 37.3 168.26437Q37.3 166.76437 35.8 166.76437Q35.096874 166.76437 34.675 167.17062Q34.26875 167.57687 34.26875 168.23312L33.175 168.23312Q33.175 167.2175 33.909374 166.54562Q34.659374 165.87375 35.8 165.87375Q37.003124 165.87375 37.690624 166.51437Q38.378124 167.155 38.378124 168.29562Q38.378124 168.85812 38.01875 169.37375Q37.659374 169.88937 37.034374 170.155Q37.7375 170.37375 38.1125 170.88937Q38.503124 171.405 38.503124 172.155Q38.503124 173.29562 37.753124 173.98312Q37.003124 174.655 35.8 174.655Q34.6125 174.655 33.846874 173.99875Q33.096874 173.3425 33.096874 172.28L34.190624 172.28Q34.190624 172.95187 34.628124 173.35812Q35.065624 173.76437 35.815624 173.76437Q36.596874 173.76437 37.003124 173.35812Q37.425 172.93625 37.425 172.17062Q37.425 171.43625 36.971874 171.04562Q36.51875 170.63937 35.64375 170.62375L34.83125 170.62375L34.83125 169.73312Z" fill-rule="nonzero"/><path fill="#757575" d="M37.83125 113.36396L39.01875 113.36396L39.01875 114.23896L37.83125 114.23896L37.83125 116.223335L36.753124 116.223335L36.753124 114.23896L32.8625 114.23896L32.8625 113.598335L36.675 107.692085L37.83125 107.692085L37.83125 113.36396ZM34.096874 113.36396L36.753124 113.36396L36.753124 109.17646L36.6125 109.410835L34.096874 113.36396Z" fill-rule="nonzero"/><path fill="#757575" d="M33.753124 53.635418L34.190624 49.385418L38.565624 49.385418L38.565624 50.385418L35.1125 50.385418L34.846874 52.713543Q35.4875 52.338543 36.284374 52.338543Q37.440624 52.338543 38.128124 53.119793Q38.815624 53.885418 38.815624 55.197918Q38.815624 56.510418 38.096874 57.276043Q37.39375 58.041668 36.1125 58.041668Q34.9875 58.041668 34.26875 57.416668Q33.55 56.776043 33.45625 55.666668L34.471874 55.666668Q34.58125 56.401043 35.003124 56.776043Q35.425 57.151043 36.1125 57.151043Q36.8625 57.151043 37.3 56.635418Q37.7375 56.119793 37.7375 55.213543Q37.7375 54.354168 37.26875 53.838543Q36.8 53.322918 36.01875 53.322918Q35.315624 53.322918 34.909374 53.619793L34.628124 53.854168L33.753124 53.635418Z" fill-rule="nonzero"/><path stroke="#4285f4" stroke-width="4.0" stroke-linecap="butt" d="M265.5 26.05L277.5 26.05" fill-rule="nonzero"/><path fill="#757575" d="M290.23438 29.925Q289.60938 30.675 288.375 30.675Q287.35938 30.675 286.82812 30.08125Q286.29688 29.4875 286.29688 28.33125L286.29688 24.20625L287.375 24.20625L287.375 28.3Q287.375 29.753124 288.54688 29.753124Q289.79688 29.753124 290.20312 28.815624L290.20312 24.20625L291.29688 24.20625L291.29688 30.55L290.26562 30.55L290.23438 29.925Z" fill-rule="nonzero"/><path stroke="#db4437" stroke-width="4.0" stroke-linecap="butt" d="M308.5 26.05L320.5 26.05" fill-rule="nonzero"/><path fill="#757575" d="M331.39062 28.95625L332.875 24.20625L334.03125 24.20625L331.48438 31.534374Q330.89062 33.1125 329.60938 33.1125L329.39062 33.096874L329.0 33.01875L329.0 32.14375L329.28125 32.159374Q329.84375 32.159374 330.14062 31.940624Q330.45312 31.721874 330.65625 31.128124L330.89062 30.471874L328.625 24.20625L329.8125 24.20625L331.39062 28.95625Z" fill-rule="nonzero"/></svg>