<?xml version="1.0" encoding="utf-8" standalone="no"?>
<!DOCTYPE svg PUBLIC "-//W3C//DTD SVG 1.1//EN"
  "http://www.w3.org/Graphics/SVG/1.1/DTD/svg11.dtd">
<!-- Created with matplotlib (https://matplotlib.org/) -->
<svg height="777.6pt" version="1.1" viewBox="0 0 1382.4 777.6" width="1382.4pt" xmlns="http://www.w3.org/2000/svg" xmlns:xlink="http://www.w3.org/1999/xlink">
 <defs>
  <style type="text/css">
*{stroke-linecap:butt;stroke-linejoin:round;white-space:pre;}
  </style>
 </defs>
 <g id="figure_1">
  <g id="patch_1">
   <path d="M 0 777.6 
L 1382.4 777.6 
L 1382.4 0 
L 0 0 
z
" style="fill:#ffffff;"/>
  </g>
  <g id="axes_1">
   <g id="patch_2">
    <path d="M 172.8 259.632 
L 1244.16 259.632 
L 1244.16 93.312 
L 172.8 93.312 
z
" style="fill:#ffffff;"/>
   </g>
   <g id="matplotlib.axis_1">
    <g id="xtick_1">
     <g id="line2d_1">
      <path clip-path="url(#p7431fc7052)" d="M 221.498182 259.632 
L 221.498182 93.312 
" style="fill:none;stroke:#808080;stroke-linecap:square;stroke-width:0.8;"/>
     </g>
     <g id="line2d_2">
      <defs>
       <path d="M 0 0 
L 0 3.5 
" id="m9477be32ce" style="stroke:#000000;stroke-width:0.8;"/>
      </defs>
      <g>
       <use style="stroke:#000000;stroke-width:0.8;" x="221.498182" xlink:href="#m9477be32ce" y="259.632"/>
      </g>
     </g>
    </g>
    <g id="xtick_2">
     <g id="line2d_3">
      <path clip-path="url(#p7431fc7052)" d="M 343.548763 259.632 
L 343.548763 93.312 
" style="fill:none;stroke:#808080;stroke-linecap:square;stroke-width:0.8;"/>
     </g>
     <g id="line2d_4">
      <g>
       <use style="stroke:#000000;stroke-width:0.8;" x="343.548763" xlink:href="#m9477be32ce" y="259.632"/>
      </g>
     </g>
    </g>
    <g id="xtick_3">
     <g id="line2d_5">
      <path clip-path="url(#p7431fc7052)" d="M 465.599344 259.632 
L 465.599344 93.312 
" style="fill:none;stroke:#808080;stroke-linecap:square;stroke-width:0.8;"/>
     </g>
     <g id="line2d_6">
      <g>
       <use style="stroke:#000000;stroke-width:0.8;" x="465.599344" xlink:href="#m9477be32ce" y="259.632"/>
      </g>
     </g>
    </g>
    <g id="xtick_4">
     <g id="line2d_7">
      <path clip-path="url(#p7431fc7052)" d="M 587.649925 259.632 
L 587.649925 93.312 
" style="fill:none;stroke:#808080;stroke-linecap:square;stroke-width:0.8;"/>
     </g>
     <g id="line2d_8">
      <g>
       <use style="stroke:#000000;stroke-width:0.8;" x="587.649925" xlink:href="#m9477be32ce" y="259.632"/>
      </g>
     </g>
    </g>
    <g id="xtick_5">
     <g id="line2d_9">
      <path clip-path="url(#p7431fc7052)" d="M 709.700506 259.632 
L 709.700506 93.312 
" style="fill:none;stroke:#808080;stroke-linecap:square;stroke-width:0.8;"/>
     </g>
     <g id="line2d_10">
      <g>
       <use style="stroke:#000000;stroke-width:0.8;" x="709.700506" xlink:href="#m9477be32ce" y="259.632"/>
      </g>
     </g>
    </g>
    <g id="xtick_6">
     <g id="line2d_11">
      <path clip-path="url(#p7431fc7052)" d="M 831.751087 259.632 
L 831.751087 93.312 
" style="fill:none;stroke:#808080;stroke-linecap:square;stroke-width:0.8;"/>
     </g>
     <g id="line2d_12">
      <g>
       <use style="stroke:#000000;stroke-width:0.8;" x="831.751087" xlink:href="#m9477be32ce" y="259.632"/>
      </g>
     </g>
    </g>
    <g id="xtick_7">
     <g id="line2d_13">
      <path clip-path="url(#p7431fc7052)" d="M 953.801668 259.632 
L 953.801668 93.312 
" style="fill:none;stroke:#808080;stroke-linecap:square;stroke-width:0.8;"/>
     </g>
     <g id="line2d_14">
      <g>
       <use style="stroke:#000000;stroke-width:0.8;" x="953.801668" xlink:href="#m9477be32ce" y="259.632"/>
      </g>
     </g>
    </g>
    <g id="xtick_8">
     <g id="line2d_15">
      <path clip-path="url(#p7431fc7052)" d="M 1075.852249 259.632 
L 1075.852249 93.312 
" style="fill:none;stroke:#808080;stroke-linecap:square;stroke-width:0.8;"/>
     </g>
     <g id="line2d_16">
      <g>
       <use style="stroke:#000000;stroke-width:0.8;" x="1075.852249" xlink:href="#m9477be32ce" y="259.632"/>
      </g>
     </g>
    </g>
    <g id="xtick_9">
     <g id="line2d_17">
      <path clip-path="url(#p7431fc7052)" d="M 1197.90283 259.632 
L 1197.90283 93.312 
" style="fill:none;stroke:#808080;stroke-linecap:square;stroke-width:0.8;"/>
     </g>
     <g id="line2d_18">
      <g>
       <use style="stroke:#000000;stroke-width:0.8;" x="1197.90283" xlink:href="#m9477be32ce" y="259.632"/>
      </g>
     </g>
    </g>
   </g>
   <g id="matplotlib.axis_2">
    <g id="ytick_1">
     <g id="line2d_19">
      <path clip-path="url(#p7431fc7052)" d="M 172.8 245.772 
L 1244.16 245.772 
" style="fill:none;stroke:#808080;stroke-linecap:square;stroke-width:0.8;"/>
     </g>
     <g id="line2d_20">
      <defs>
       <path d="M 0 0 
L -3.5 0 
" id="m75b41d26f3" style="stroke:#000000;stroke-width:0.8;"/>
      </defs>
      <g>
       <use style="stroke:#000000;stroke-width:0.8;" x="172.8" xlink:href="#m75b41d26f3" y="245.772"/>
      </g>
     </g>
     <g id="text_1">
      <!-- 0 -->
      <defs>
       <path d="M 31.78125 66.40625 
Q 24.171875 66.40625 20.328125 58.90625 
Q 16.5 51.421875 16.5 36.375 
Q 16.5 21.390625 20.328125 13.890625 
Q 24.171875 6.390625 31.78125 6.390625 
Q 39.453125 6.390625 43.28125 13.890625 
Q 47.125 21.390625 47.125 36.375 
Q 47.125 51.421875 43.28125 58.90625 
Q 39.453125 66.40625 31.78125 66.40625 
z
M 31.78125 74.21875 
Q 44.046875 74.21875 50.515625 64.515625 
Q 56.984375 54.828125 56.984375 36.375 
Q 56.984375 17.96875 50.515625 8.265625 
Q 44.046875 -1.421875 31.78125 -1.421875 
Q 19.53125 -1.421875 13.0625 8.265625 
Q 6.59375 17.96875 6.59375 36.375 
Q 6.59375 54.828125 13.0625 64.515625 
Q 19.53125 74.21875 31.78125 74.21875 
z
" id="DejaVuSans-48"/>
      </defs>
      <g transform="translate(159.4375 249.571219)scale(0.1 -0.1)">
       <use xlink:href="#DejaVuSans-48"/>
      </g>
     </g>
    </g>
    <g id="ytick_2">
     <g id="line2d_21">
      <path clip-path="url(#p7431fc7052)" d="M 172.8 218.052 
L 1244.16 218.052 
" style="fill:none;stroke:#808080;stroke-linecap:square;stroke-width:0.8;"/>
     </g>
     <g id="line2d_22">
      <g>
       <use style="stroke:#000000;stroke-width:0.8;" x="172.8" xlink:href="#m75b41d26f3" y="218.052"/>
      </g>
     </g>
     <g id="text_2">
      <!-- 1 -->
      <defs>
       <path d="M 12.40625 8.296875 
L 28.515625 8.296875 
L 28.515625 63.921875 
L 10.984375 60.40625 
L 10.984375 69.390625 
L 28.421875 72.90625 
L 38.28125 72.90625 
L 38.28125 8.296875 
L 54.390625 8.296875 
L 54.390625 0 
L 12.40625 0 
z
" id="DejaVuSans-49"/>
      </defs>
      <g transform="translate(159.4375 221.851219)scale(0.1 -0.1)">
       <use xlink:href="#DejaVuSans-49"/>
      </g>
     </g>
    </g>
    <g id="ytick_3">
     <g id="line2d_23">
      <path clip-path="url(#p7431fc7052)" d="M 172.8 190.332 
L 1244.16 190.332 
" style="fill:none;stroke:#808080;stroke-linecap:square;stroke-width:0.8;"/>
     </g>
     <g id="line2d_24">
      <g>
       <use style="stroke:#000000;stroke-width:0.8;" x="172.8" xlink:href="#m75b41d26f3" y="190.332"/>
      </g>
     </g>
     <g id="text_3">
      <!-- 2 -->
      <defs>
       <path d="M 19.1875 8.296875 
L 53.609375 8.296875 
L 53.609375 0 
L 7.328125 0 
L 7.328125 8.296875 
Q 12.9375 14.109375 22.625 23.890625 
Q 32.328125 33.6875 34.8125 36.53125 
Q 39.546875 41.84375 41.421875 45.53125 
Q 43.3125 49.21875 43.3125 52.78125 
Q 43.3125 58.59375 39.234375 62.25 
Q 35.15625 65.921875 28.609375 65.921875 
Q 23.96875 65.921875 18.8125 64.3125 
Q 13.671875 62.703125 7.8125 59.421875 
L 7.8125 69.390625 
Q 13.765625 71.78125 18.9375 73 
Q 24.125 74.21875 28.421875 74.21875 
Q 39.75 74.21875 46.484375 68.546875 
Q 53.21875 62.890625 53.21875 53.421875 
Q 53.21875 48.921875 51.53125 44.890625 
Q 49.859375 40.875 45.40625 35.40625 
Q 44.1875 33.984375 37.640625 27.21875 
Q 31.109375 20.453125 19.1875 8.296875 
z
" id="DejaVuSans-50"/>
      </defs>
      <g transform="translate(159.4375 194.131219)scale(0.1 -0.1)">
       <use xlink:href="#DejaVuSans-50"/>
      </g>
     </g>
    </g>
    <g id="ytick_4">
     <g id="line2d_25">
      <path clip-path="url(#p7431fc7052)" d="M 172.8 162.612 
L 1244.16 162.612 
" style="fill:none;stroke:#808080;stroke-linecap:square;stroke-width:0.8;"/>
     </g>
     <g id="line2d_26">
      <g>
       <use style="stroke:#000000;stroke-width:0.8;" x="172.8" xlink:href="#m75b41d26f3" y="162.612"/>
      </g>
     </g>
     <g id="text_4">
      <!-- 3 -->
      <defs>
       <path d="M 40.578125 39.3125 
Q 47.65625 37.796875 51.625 33 
Q 55.609375 28.21875 55.609375 21.1875 
Q 55.609375 10.40625 48.1875 4.484375 
Q 40.765625 -1.421875 27.09375 -1.421875 
Q 22.515625 -1.421875 17.65625 -0.515625 
Q 12.796875 0.390625 7.625 2.203125 
L 7.625 11.71875 
Q 11.71875 9.328125 16.59375 8.109375 
Q 21.484375 6.890625 26.8125 6.890625 
Q 36.078125 6.890625 40.9375 10.546875 
Q 45.796875 14.203125 45.796875 21.1875 
Q 45.796875 27.640625 41.28125 31.265625 
Q 36.765625 34.90625 28.71875 34.90625 
L 20.21875 34.90625 
L 20.21875 43.015625 
L 29.109375 43.015625 
Q 36.375 43.015625 40.234375 45.921875 
Q 44.09375 48.828125 44.09375 54.296875 
Q 44.09375 59.90625 40.109375 62.90625 
Q 36.140625 65.921875 28.71875 65.921875 
Q 24.65625 65.921875 20.015625 65.03125 
Q 15.375 64.15625 9.8125 62.3125 
L 9.8125 71.09375 
Q 15.4375 72.65625 20.34375 73.4375 
Q 25.25 74.21875 29.59375 74.21875 
Q 40.828125 74.21875 47.359375 69.109375 
Q 53.90625 64.015625 53.90625 55.328125 
Q 53.90625 49.265625 50.4375 45.09375 
Q 46.96875 40.921875 40.578125 39.3125 
z
" id="DejaVuSans-51"/>
      </defs>
      <g transform="translate(159.4375 166.411219)scale(0.1 -0.1)">
       <use xlink:href="#DejaVuSans-51"/>
      </g>
     </g>
    </g>
    <g id="ytick_5">
     <g id="line2d_27">
      <path clip-path="url(#p7431fc7052)" d="M 172.8 134.892 
L 1244.16 134.892 
" style="fill:none;stroke:#808080;stroke-linecap:square;stroke-width:0.8;"/>
     </g>
     <g id="line2d_28">
      <g>
       <use style="stroke:#000000;stroke-width:0.8;" x="172.8" xlink:href="#m75b41d26f3" y="134.892"/>
      </g>
     </g>
     <g id="text_5">
      <!-- 4 -->
      <defs>
       <path d="M 37.796875 64.3125 
L 12.890625 25.390625 
L 37.796875 25.390625 
z
M 35.203125 72.90625 
L 47.609375 72.90625 
L 47.609375 25.390625 
L 58.015625 25.390625 
L 58.015625 17.1875 
L 47.609375 17.1875 
L 47.609375 0 
L 37.796875 0 
L 37.796875 17.1875 
L 4.890625 17.1875 
L 4.890625 26.703125 
z
" id="DejaVuSans-52"/>
      </defs>
      <g transform="translate(159.4375 138.691219)scale(0.1 -0.1)">
       <use xlink:href="#DejaVuSans-52"/>
      </g>
     </g>
    </g>
    <g id="ytick_6">
     <g id="line2d_29">
      <path clip-path="url(#p7431fc7052)" d="M 172.8 107.172 
L 1244.16 107.172 
" style="fill:none;stroke:#808080;stroke-linecap:square;stroke-width:0.8;"/>
     </g>
     <g id="line2d_30">
      <g>
       <use style="stroke:#000000;stroke-width:0.8;" x="172.8" xlink:href="#m75b41d26f3" y="107.172"/>
      </g>
     </g>
     <g id="text_6">
      <!-- 5 -->
      <defs>
       <path d="M 10.796875 72.90625 
L 49.515625 72.90625 
L 49.515625 64.59375 
L 19.828125 64.59375 
L 19.828125 46.734375 
Q 21.96875 47.46875 24.109375 47.828125 
Q 26.265625 48.1875 28.421875 48.1875 
Q 40.625 48.1875 47.75 41.5 
Q 54.890625 34.8125 54.890625 23.390625 
Q 54.890625 11.625 47.5625 5.09375 
Q 40.234375 -1.421875 26.90625 -1.421875 
Q 22.3125 -1.421875 17.546875 -0.640625 
Q 12.796875 0.140625 7.71875 1.703125 
L 7.71875 11.625 
Q 12.109375 9.234375 16.796875 8.0625 
Q 21.484375 6.890625 26.703125 6.890625 
Q 35.15625 6.890625 40.078125 11.328125 
Q 45.015625 15.765625 45.015625 23.390625 
Q 45.015625 31 40.078125 35.4375 
Q 35.15625 39.890625 26.703125 39.890625 
Q 22.75 39.890625 18.8125 39.015625 
Q 14.890625 38.140625 10.796875 36.28125 
z
" id="DejaVuSans-53"/>
      </defs>
      <g transform="translate(159.4375 110.971219)scale(0.1 -0.1)">
       <use xlink:href="#DejaVuSans-53"/>
      </g>
     </g>
    </g>
    <g id="text_7">
     <!-- Voltagem (V) -->
     <defs>
      <path d="M 28.609375 0 
L 0.78125 72.90625 
L 11.078125 72.90625 
L 34.1875 11.53125 
L 57.328125 72.90625 
L 67.578125 72.90625 
L 39.796875 0 
z
" id="DejaVuSans-86"/>
      <path d="M 30.609375 48.390625 
Q 23.390625 48.390625 19.1875 42.75 
Q 14.984375 37.109375 14.984375 27.296875 
Q 14.984375 17.484375 19.15625 11.84375 
Q 23.34375 6.203125 30.609375 6.203125 
Q 37.796875 6.203125 41.984375 11.859375 
Q 46.1875 17.53125 46.1875 27.296875 
Q 46.1875 37.015625 41.984375 42.703125 
Q 37.796875 48.390625 30.609375 48.390625 
z
M 30.609375 56 
Q 42.328125 56 49.015625 48.375 
Q 55.71875 40.765625 55.71875 27.296875 
Q 55.71875 13.875 49.015625 6.21875 
Q 42.328125 -1.421875 30.609375 -1.421875 
Q 18.84375 -1.421875 12.171875 6.21875 
Q 5.515625 13.875 5.515625 27.296875 
Q 5.515625 40.765625 12.171875 48.375 
Q 18.84375 56 30.609375 56 
z
" id="DejaVuSans-111"/>
      <path d="M 9.421875 75.984375 
L 18.40625 75.984375 
L 18.40625 0 
L 9.421875 0 
z
" id="DejaVuSans-108"/>
      <path d="M 18.3125 70.21875 
L 18.3125 54.6875 
L 36.8125 54.6875 
L 36.8125 47.703125 
L 18.3125 47.703125 
L 18.3125 18.015625 
Q 18.3125 11.328125 20.140625 9.421875 
Q 21.96875 7.515625 27.59375 7.515625 
L 36.8125 7.515625 
L 36.8125 0 
L 27.59375 0 
Q 17.1875 0 13.234375 3.875 
Q 9.28125 7.765625 9.28125 18.015625 
L 9.28125 47.703125 
L 2.6875 47.703125 
L 2.6875 54.6875 
L 9.28125 54.6875 
L 9.28125 70.21875 
z
" id="DejaVuSans-116"/>
      <path d="M 34.28125 27.484375 
Q 23.390625 27.484375 19.1875 25 
Q 14.984375 22.515625 14.984375 16.5 
Q 14.984375 11.71875 18.140625 8.90625 
Q 21.296875 6.109375 26.703125 6.109375 
Q 34.1875 6.109375 38.703125 11.40625 
Q 43.21875 16.703125 43.21875 25.484375 
L 43.21875 27.484375 
z
M 52.203125 31.203125 
L 52.203125 0 
L 43.21875 0 
L 43.21875 8.296875 
Q 40.140625 3.328125 35.546875 0.953125 
Q 30.953125 -1.421875 24.3125 -1.421875 
Q 15.921875 -1.421875 10.953125 3.296875 
Q 6 8.015625 6 15.921875 
Q 6 25.140625 12.171875 29.828125 
Q 18.359375 34.515625 30.609375 34.515625 
L 43.21875 34.515625 
L 43.21875 35.40625 
Q 43.21875 41.609375 39.140625 45 
Q 35.0625 48.390625 27.6875 48.390625 
Q 23 48.390625 18.546875 47.265625 
Q 14.109375 46.140625 10.015625 43.890625 
L 10.015625 52.203125 
Q 14.9375 54.109375 19.578125 55.046875 
Q 24.21875 56 28.609375 56 
Q 40.484375 56 46.34375 49.84375 
Q 52.203125 43.703125 52.203125 31.203125 
z
" id="DejaVuSans-97"/>
      <path d="M 45.40625 27.984375 
Q 45.40625 37.75 41.375 43.109375 
Q 37.359375 48.484375 30.078125 48.484375 
Q 22.859375 48.484375 18.828125 43.109375 
Q 14.796875 37.75 14.796875 27.984375 
Q 14.796875 18.265625 18.828125 12.890625 
Q 22.859375 7.515625 30.078125 7.515625 
Q 37.359375 7.515625 41.375 12.890625 
Q 45.40625 18.265625 45.40625 27.984375 
z
M 54.390625 6.78125 
Q 54.390625 -7.171875 48.1875 -13.984375 
Q 42 -20.796875 29.203125 -20.796875 
Q 24.46875 -20.796875 20.265625 -20.09375 
Q 16.0625 -19.390625 12.109375 -17.921875 
L 12.109375 -9.1875 
Q 16.0625 -11.328125 19.921875 -12.34375 
Q 23.78125 -13.375 27.78125 -13.375 
Q 36.625 -13.375 41.015625 -8.765625 
Q 45.40625 -4.15625 45.40625 5.171875 
L 45.40625 9.625 
Q 42.625 4.78125 38.28125 2.390625 
Q 33.9375 0 27.875 0 
Q 17.828125 0 11.671875 7.65625 
Q 5.515625 15.328125 5.515625 27.984375 
Q 5.515625 40.671875 11.671875 48.328125 
Q 17.828125 56 27.875 56 
Q 33.9375 56 38.28125 53.609375 
Q 42.625 51.21875 45.40625 46.390625 
L 45.40625 54.6875 
L 54.390625 54.6875 
z
" id="DejaVuSans-103"/>
      <path d="M 56.203125 29.59375 
L 56.203125 25.203125 
L 14.890625 25.203125 
Q 15.484375 15.921875 20.484375 11.0625 
Q 25.484375 6.203125 34.421875 6.203125 
Q 39.59375 6.203125 44.453125 7.46875 
Q 49.3125 8.734375 54.109375 11.28125 
L 54.109375 2.78125 
Q 49.265625 0.734375 44.1875 -0.34375 
Q 39.109375 -1.421875 33.890625 -1.421875 
Q 20.796875 -1.421875 13.15625 6.1875 
Q 5.515625 13.8125 5.515625 26.8125 
Q 5.515625 40.234375 12.765625 48.109375 
Q 20.015625 56 32.328125 56 
Q 43.359375 56 49.78125 48.890625 
Q 56.203125 41.796875 56.203125 29.59375 
z
M 47.21875 32.234375 
Q 47.125 39.59375 43.09375 43.984375 
Q 39.0625 48.390625 32.421875 48.390625 
Q 24.90625 48.390625 20.390625 44.140625 
Q 15.875 39.890625 15.1875 32.171875 
z
" id="DejaVuSans-101"/>
      <path d="M 52 44.1875 
Q 55.375 50.25 60.0625 53.125 
Q 64.75 56 71.09375 56 
Q 79.640625 56 84.28125 50.015625 
Q 88.921875 44.046875 88.921875 33.015625 
L 88.921875 0 
L 79.890625 0 
L 79.890625 32.71875 
Q 79.890625 40.578125 77.09375 44.375 
Q 74.3125 48.1875 68.609375 48.1875 
Q 61.625 48.1875 57.5625 43.546875 
Q 53.515625 38.921875 53.515625 30.90625 
L 53.515625 0 
L 44.484375 0 
L 44.484375 32.71875 
Q 44.484375 40.625 41.703125 44.40625 
Q 38.921875 48.1875 33.109375 48.1875 
Q 26.21875 48.1875 22.15625 43.53125 
Q 18.109375 38.875 18.109375 30.90625 
L 18.109375 0 
L 9.078125 0 
L 9.078125 54.6875 
L 18.109375 54.6875 
L 18.109375 46.1875 
Q 21.1875 51.21875 25.484375 53.609375 
Q 29.78125 56 35.6875 56 
Q 41.65625 56 45.828125 52.96875 
Q 50 49.953125 52 44.1875 
z
" id="DejaVuSans-109"/>
      <path id="DejaVuSans-32"/>
      <path d="M 31 75.875 
Q 24.46875 64.65625 21.28125 53.65625 
Q 18.109375 42.671875 18.109375 31.390625 
Q 18.109375 20.125 21.3125 9.0625 
Q 24.515625 -2 31 -13.1875 
L 23.1875 -13.1875 
Q 15.875 -1.703125 12.234375 9.375 
Q 8.59375 20.453125 8.59375 31.390625 
Q 8.59375 42.28125 12.203125 53.3125 
Q 15.828125 64.359375 23.1875 75.875 
z
" id="DejaVuSans-40"/>
      <path d="M 8.015625 75.875 
L 15.828125 75.875 
Q 23.140625 64.359375 26.78125 53.3125 
Q 30.421875 42.28125 30.421875 31.390625 
Q 30.421875 20.453125 26.78125 9.375 
Q 23.140625 -1.703125 15.828125 -13.1875 
L 8.015625 -13.1875 
Q 14.5 -2 17.703125 9.0625 
Q 20.90625 20.125 20.90625 31.390625 
Q 20.90625 42.671875 17.703125 53.65625 
Q 14.5 64.65625 8.015625 75.875 
z
" id="DejaVuSans-41"/>
     </defs>
     <g transform="translate(152.11 229.14325)rotate(-90)scale(0.16 -0.16)">
      <use xlink:href="#DejaVuSans-86"/>
      <use x="68.298828" xlink:href="#DejaVuSans-111"/>
      <use x="129.480469" xlink:href="#DejaVuSans-108"/>
      <use x="157.263672" xlink:href="#DejaVuSans-116"/>
      <use x="196.472656" xlink:href="#DejaVuSans-97"/>
      <use x="257.751953" xlink:href="#DejaVuSans-103"/>
      <use x="321.228516" xlink:href="#DejaVuSans-101"/>
      <use x="382.751953" xlink:href="#DejaVuSans-109"/>
      <use x="480.164062" xlink:href="#DejaVuSans-32"/>
      <use x="511.951172" xlink:href="#DejaVuSans-40"/>
      <use x="550.964844" xlink:href="#DejaVuSans-86"/>
      <use x="619.373047" xlink:href="#DejaVuSans-41"/>
     </g>
    </g>
   </g>
   <g id="line2d_31">
    <path clip-path="url(#p7431fc7052)" d="M 221.498182 245.772 
L 343.548763 245.772 
L 345.989774 216.37494 
L 348.430786 176.80464 
L 350.871798 193.33962 
L 353.312809 169.08462 
L 355.753821 168.00354 
L 358.194833 177.08184 
L 360.635844 153.64458 
L 363.076856 164.3445 
L 365.517867 165.56418 
L 367.958879 159.88158 
L 370.399891 163.66536 
L 372.840902 160.82406 
L 375.281914 161.10126 
L 377.722925 161.76654 
L 380.163937 160.28352 
L 382.604949 161.226 
L 385.04596 161.10126 
L 387.486972 160.28352 
L 389.927984 160.54686 
L 392.368995 160.28352 
L 394.810007 160.96266 
L 397.251018 160.28352 
L 399.69203 160.54686 
L 402.133042 160.28352 
L 404.574053 161.226 
L 407.015065 159.32718 
L 409.456077 160.96266 
L 411.897088 160.00632 
L 414.3381 160.42212 
L 416.779111 160.68546 
L 421.661135 160.14492 
L 424.102146 160.68546 
L 426.543158 159.88158 
L 428.98417 161.10126 
L 431.425181 160.14492 
L 433.866193 160.54686 
L 436.307204 159.88158 
L 438.748216 160.82406 
L 441.189228 160.14492 
L 443.630239 160.96266 
L 446.071251 160.14492 
L 448.512262 160.00632 
L 450.953274 161.3646 
L 453.394286 159.88158 
L 455.835297 160.68546 
L 458.276309 160.00632 
L 460.717321 161.10126 
L 463.158332 160.14492 
L 465.599344 160.00632 
L 470.481367 196.31952 
L 472.922379 209.8746 
L 475.36339 217.99656 
L 477.804402 229.91616 
L 480.245414 219.35484 
L 482.686425 228.43314 
L 485.127437 233.17326 
L 487.568448 237.51144 
L 490.00946 236.01456 
L 492.450472 245.772 
L 494.891483 222.19614 
L 497.332495 230.7339 
L 499.773506 232.89606 
L 502.214518 241.43382 
L 504.65553 227.07486 
L 507.096541 236.8323 
L 509.537553 225.71658 
L 511.978565 237.37284 
L 514.419576 217.99656 
L 516.860588 229.23702 
L 519.301599 224.7741 
L 521.742611 237.77478 
L 524.183623 214.19892 
L 526.624634 225.31464 
L 529.065646 226.39572 
L 531.506658 239.535 
L 533.947669 212.4387 
L 536.388681 223.95636 
L 538.829692 225.85518 
L 541.270704 238.59252 
L 543.711716 216.91548 
L 546.152727 224.9127 
L 548.593739 235.33542 
L 551.034751 221.6556 
L 553.475762 232.49412 
L 555.916774 225.85518 
L 558.357785 237.23424 
L 560.798797 219.21624 
L 563.239809 230.7339 
L 565.68082 223.69302 
L 568.121832 236.6937 
L 570.562843 215.6958 
L 573.003855 225.85518 
L 575.444867 229.51422 
L 577.885878 239.8122 
L 580.32689 220.97646 
L 582.767902 229.79142 
L 585.208913 232.77132 
L 587.649925 241.17048 
L 590.090936 206.6175 
L 592.531948 175.18302 
L 594.97296 192.79908 
L 597.413971 165.56418 
L 599.854983 165.16224 
L 602.295995 162.72288 
L 604.737006 146.6037 
L 607.178018 156.08394 
L 609.619029 145.10682 
L 612.060041 150.52608 
L 614.501053 142.94466 
L 616.942064 149.04306 
L 619.383076 143.0694 
L 621.824087 148.76586 
L 624.265099 141.98832 
L 626.706111 147.68478 
L 629.147122 142.94466 
L 631.588134 147.54618 
L 634.029146 141.44778 
L 636.470157 148.08672 
L 638.911169 142.94466 
L 641.35218 147.82338 
L 643.793192 141.84972 
L 646.234204 147.82338 
L 648.675215 142.94466 
L 651.116227 147.94812 
L 653.557239 141.84972 
L 655.99825 147.40758 
L 658.439262 141.72498 
L 660.880273 147.40758 
L 663.321285 141.98832 
L 665.762297 147.14424 
L 668.203308 141.72498 
L 670.64432 148.22532 
L 673.085332 142.26552 
L 675.526343 147.40758 
L 677.967355 141.72498 
L 680.408366 147.82338 
L 682.849378 142.40412 
L 685.29039 146.72844 
L 687.731401 141.98832 
L 690.172413 147.14424 
L 692.613424 142.12692 
L 695.054436 146.4651 
L 697.495448 141.84972 
L 699.936459 146.86704 
L 702.377471 142.26552 
L 704.818483 147.40758 
L 707.259494 142.12692 
L 709.700506 147.00564 
L 712.141517 163.66536 
L 714.582529 186.56208 
L 717.023541 185.2038 
L 719.464552 198.07974 
L 721.905564 206.07696 
L 724.346576 204.99588 
L 726.787587 218.27376 
L 729.228599 202.55652 
L 731.66961 213.25644 
L 734.110622 208.91826 
L 736.551634 220.29732 
L 738.992645 207.69858 
L 741.433657 218.13516 
L 743.874668 207.15804 
L 746.31568 218.6757 
L 748.756692 206.3403 
L 751.197703 217.99656 
L 753.638715 204.45534 
L 756.079727 215.01666 
L 758.520738 210.53988 
L 760.96175 221.6556 
L 763.402761 206.07696 
L 765.843773 215.15526 
L 768.284785 212.03676 
L 770.725796 224.09496 
L 773.166808 203.7762 
L 775.60782 211.89816 
L 778.048831 216.77688 
L 780.489843 211.63482 
L 782.930854 223.27722 
L 785.371866 204.71868 
L 787.812878 215.4186 
L 790.253889 207.55998 
L 792.694901 217.31742 
L 795.135913 210.53988 
L 797.576924 224.7741 
L 800.017936 196.86006 
L 802.458947 205.25922 
L 804.899959 215.5572 
L 807.340971 202.27932 
L 809.781982 213.53364 
L 812.222994 208.37772 
L 814.664005 221.3784 
L 817.105017 200.6577 
L 819.546029 210.27654 
L 821.98704 213.65838 
L 824.428052 213.25644 
L 826.869064 224.23356 
L 829.310075 202.27932 
L 831.751087 212.97924 
L 834.192098 181.42002 
L 836.63311 176.5413 
L 839.074122 195.64038 
L 841.515133 176.80464 
L 843.956145 189.68058 
L 846.397157 188.3223 
L 848.838168 194.6979 
L 851.27918 193.47822 
L 853.720191 200.5191 
L 856.161203 191.5794 
L 858.602215 204.85728 
L 861.043226 185.6196 
L 863.484238 196.72146 
L 865.925249 193.61682 
L 868.366261 199.43802 
L 870.807273 192.93768 
L 873.248284 204.99588 
L 875.689296 189.81918 
L 878.130308 200.3805 
L 880.571319 191.17746 
L 883.012331 203.7762 
L 885.453342 190.22112 
L 887.894354 200.5191 
L 890.335366 192.79908 
L 892.776377 203.23566 
L 895.217389 193.88016 
L 897.658401 202.27932 
L 900.099412 196.18092 
L 902.540424 204.71868 
L 904.981435 190.76166 
L 907.422447 203.499 
L 909.863459 188.3223 
L 912.30447 198.07974 
L 914.745482 194.6979 
L 917.186494 201.33684 
L 919.627505 193.33962 
L 922.068517 203.23566 
L 924.509528 193.06242 
L 926.95054 205.12062 
L 929.391552 189.68058 
L 931.832563 201.47544 
L 934.273575 189.41724 
L 936.714586 202.14072 
L 939.155598 189.54198 
L 941.59661 201.73878 
L 944.037621 188.5995 
L 946.478633 199.97856 
L 948.919645 191.03886 
L 951.360656 204.99588 
L 953.801668 184.66326 
L 956.242679 194.4207 
L 958.683691 215.29386 
L 961.124703 203.09706 
L 963.565714 214.47612 
L 966.006726 228.69648 
L 968.447738 213.93558 
L 970.888749 224.7741 
L 973.329761 229.23702 
L 975.770772 237.77478 
L 978.211784 225.57798 
L 980.652796 234.79488 
L 983.093807 229.79142 
L 985.534819 242.5149 
L 987.97583 214.19892 
L 992.857854 232.63272 
L 995.298865 225.45324 
L 997.739877 238.31532 
L 1000.180889 216.23634 
L 1002.6219 223.95636 
L 1005.062912 238.85586 
L 1007.503923 210.13794 
L 1009.944935 217.99656 
L 1012.385947 235.33542 
L 1014.826958 207.43524 
L 1017.26797 215.15526 
L 1019.708982 231.0111 
L 1022.149993 210.27654 
L 1024.591005 221.6556 
L 1027.032016 228.15594 
L 1029.473028 231.67638 
L 1031.91404 241.03188 
L 1034.355051 223.15248 
L 1039.237075 237.91338 
L 1041.678086 227.21346 
L 1044.119098 238.05198 
L 1046.560109 223.81776 
L 1049.001121 234.11574 
L 1051.442133 225.31464 
L 1053.883144 236.5551 
L 1056.324156 223.01388 
L 1058.765167 233.4366 
L 1061.206179 225.31464 
L 1063.647191 236.43036 
L 1066.088202 223.01388 
L 1068.529214 234.11574 
L 1070.970226 223.27722 
L 1073.411237 233.991 
L 1075.852249 226.13238 
L 1078.29326 187.64316 
L 1080.734272 180.74088 
L 1083.175284 197.94114 
L 1085.616295 170.5815 
L 1088.057307 174.91968 
L 1090.498319 186.16014 
L 1092.93933 170.1657 
L 1095.380342 182.2239 
L 1097.821353 175.46022 
L 1100.262365 181.42002 
L 1102.703377 177.76098 
L 1105.144388 179.244 
L 1107.5854 180.06174 
L 1110.026411 177.62238 
L 1112.467423 182.2239 
L 1114.908435 175.58496 
L 1117.349446 183.18024 
L 1119.790458 175.86216 
L 1122.23147 182.2239 
L 1124.672481 175.72356 
L 1127.113493 183.31884 
L 1129.554504 175.46022 
L 1131.995516 182.5011 
L 1134.436528 176.2641 
L 1136.877539 181.42002 
L 1139.318551 183.44358 
L 1141.759563 170.5815 
L 1144.200574 184.53852 
L 1146.641586 173.82474 
L 1149.082597 183.58218 
L 1151.523609 172.48032 
L 1153.964621 183.72078 
L 1156.405632 175.32162 
L 1158.846644 181.68336 
L 1161.287656 176.6799 
L 1163.728667 180.60228 
L 1166.169679 178.84206 
L 1168.61069 179.6598 
L 1171.051702 179.11926 
L 1173.492714 179.11926 
L 1175.933725 180.60228 
L 1178.374737 177.62238 
L 1180.815748 181.14282 
L 1183.25676 177.76098 
L 1185.697772 180.87948 
L 1188.138783 177.76098 
L 1190.579795 181.42002 
L 1193.020807 177.62238 
L 1195.461818 181.42002 
L 1195.461818 181.42002 
" style="fill:none;stroke:#ff0000;stroke-linecap:square;stroke-width:4;"/>
   </g>
   <g id="line2d_32">
    <path clip-path="url(#p7431fc7052)" d="M 221.498182 245.772 
L 341.107751 245.772 
L 343.548763 134.892 
L 463.158332 134.892 
L 465.599344 245.772 
L 585.208913 245.772 
L 587.649925 107.172 
L 707.259494 107.172 
L 709.700506 218.052 
L 829.310075 218.052 
L 831.751087 190.332 
L 951.360656 190.332 
L 953.801668 245.772 
L 1073.411237 245.772 
L 1075.852249 162.612 
L 1195.461818 162.612 
L 1195.461818 162.612 
" style="fill:none;stroke:#0000ff;stroke-dasharray:7.4,3.2;stroke-dashoffset:0;stroke-width:2;"/>
   </g>
   <g id="patch_3">
    <path d="M 172.8 259.632 
L 172.8 93.312 
" style="fill:none;stroke:#000000;stroke-linecap:square;stroke-linejoin:miter;stroke-width:0.8;"/>
   </g>
   <g id="patch_4">
    <path d="M 1244.16 259.632 
L 1244.16 93.312 
" style="fill:none;stroke:#000000;stroke-linecap:square;stroke-linejoin:miter;stroke-width:0.8;"/>
   </g>
   <g id="patch_5">
    <path d="M 172.8 259.632 
L 1244.16 259.632 
" style="fill:none;stroke:#000000;stroke-linecap:square;stroke-linejoin:miter;stroke-width:0.8;"/>
   </g>
   <g id="patch_6">
    <path d="M 172.8 93.312 
L 1244.16 93.312 
" style="fill:none;stroke:#000000;stroke-linecap:square;stroke-linejoin:miter;stroke-width:0.8;"/>
   </g>
   <g id="text_8">
    <!-- Dados Lidos - y(k) -->
    <defs>
     <path d="M 19.671875 64.796875 
L 19.671875 8.109375 
L 31.59375 8.109375 
Q 46.6875 8.109375 53.6875 14.9375 
Q 60.6875 21.78125 60.6875 36.53125 
Q 60.6875 51.171875 53.6875 57.984375 
Q 46.6875 64.796875 31.59375 64.796875 
z
M 9.8125 72.90625 
L 30.078125 72.90625 
Q 51.265625 72.90625 61.171875 64.09375 
Q 71.09375 55.28125 71.09375 36.53125 
Q 71.09375 17.671875 61.125 8.828125 
Q 51.171875 0 30.078125 0 
L 9.8125 0 
z
" id="DejaVuSans-68"/>
     <path d="M 45.40625 46.390625 
L 45.40625 75.984375 
L 54.390625 75.984375 
L 54.390625 0 
L 45.40625 0 
L 45.40625 8.203125 
Q 42.578125 3.328125 38.25 0.953125 
Q 33.9375 -1.421875 27.875 -1.421875 
Q 17.96875 -1.421875 11.734375 6.484375 
Q 5.515625 14.40625 5.515625 27.296875 
Q 5.515625 40.1875 11.734375 48.09375 
Q 17.96875 56 27.875 56 
Q 33.9375 56 38.25 53.625 
Q 42.578125 51.265625 45.40625 46.390625 
z
M 14.796875 27.296875 
Q 14.796875 17.390625 18.875 11.75 
Q 22.953125 6.109375 30.078125 6.109375 
Q 37.203125 6.109375 41.296875 11.75 
Q 45.40625 17.390625 45.40625 27.296875 
Q 45.40625 37.203125 41.296875 42.84375 
Q 37.203125 48.484375 30.078125 48.484375 
Q 22.953125 48.484375 18.875 42.84375 
Q 14.796875 37.203125 14.796875 27.296875 
z
" id="DejaVuSans-100"/>
     <path d="M 44.28125 53.078125 
L 44.28125 44.578125 
Q 40.484375 46.53125 36.375 47.5 
Q 32.28125 48.484375 27.875 48.484375 
Q 21.1875 48.484375 17.84375 46.4375 
Q 14.5 44.390625 14.5 40.28125 
Q 14.5 37.15625 16.890625 35.375 
Q 19.28125 33.59375 26.515625 31.984375 
L 29.59375 31.296875 
Q 39.15625 29.25 43.1875 25.515625 
Q 47.21875 21.78125 47.21875 15.09375 
Q 47.21875 7.46875 41.1875 3.015625 
Q 35.15625 -1.421875 24.609375 -1.421875 
Q 20.21875 -1.421875 15.453125 -0.5625 
Q 10.6875 0.296875 5.421875 2 
L 5.421875 11.28125 
Q 10.40625 8.6875 15.234375 7.390625 
Q 20.0625 6.109375 24.8125 6.109375 
Q 31.15625 6.109375 34.5625 8.28125 
Q 37.984375 10.453125 37.984375 14.40625 
Q 37.984375 18.0625 35.515625 20.015625 
Q 33.0625 21.96875 24.703125 23.78125 
L 21.578125 24.515625 
Q 13.234375 26.265625 9.515625 29.90625 
Q 5.8125 33.546875 5.8125 39.890625 
Q 5.8125 47.609375 11.28125 51.796875 
Q 16.75 56 26.8125 56 
Q 31.78125 56 36.171875 55.265625 
Q 40.578125 54.546875 44.28125 53.078125 
z
" id="DejaVuSans-115"/>
     <path d="M 9.8125 72.90625 
L 19.671875 72.90625 
L 19.671875 8.296875 
L 55.171875 8.296875 
L 55.171875 0 
L 9.8125 0 
z
" id="DejaVuSans-76"/>
     <path d="M 9.421875 54.6875 
L 18.40625 54.6875 
L 18.40625 0 
L 9.421875 0 
z
M 9.421875 75.984375 
L 18.40625 75.984375 
L 18.40625 64.59375 
L 9.421875 64.59375 
z
" id="DejaVuSans-105"/>
     <path d="M 4.890625 31.390625 
L 31.203125 31.390625 
L 31.203125 23.390625 
L 4.890625 23.390625 
z
" id="DejaVuSans-45"/>
     <path d="M 32.171875 -5.078125 
Q 28.375 -14.84375 24.75 -17.8125 
Q 21.140625 -20.796875 15.09375 -20.796875 
L 7.90625 -20.796875 
L 7.90625 -13.28125 
L 13.1875 -13.28125 
Q 16.890625 -13.28125 18.9375 -11.515625 
Q 21 -9.765625 23.484375 -3.21875 
L 25.09375 0.875 
L 2.984375 54.6875 
L 12.5 54.6875 
L 29.59375 11.921875 
L 46.6875 54.6875 
L 56.203125 54.6875 
z
" id="DejaVuSans-121"/>
     <path d="M 9.078125 75.984375 
L 18.109375 75.984375 
L 18.109375 31.109375 
L 44.921875 54.6875 
L 56.390625 54.6875 
L 27.390625 29.109375 
L 57.625 0 
L 45.90625 0 
L 18.109375 26.703125 
L 18.109375 0 
L 9.078125 0 
z
" id="DejaVuSans-107"/>
    </defs>
    <g transform="translate(613.784766 87.312)scale(0.21 -0.21)">
     <use xlink:href="#DejaVuSans-68"/>
     <use x="77.001953" xlink:href="#DejaVuSans-97"/>
     <use x="138.28125" xlink:href="#DejaVuSans-100"/>
     <use x="201.757812" xlink:href="#DejaVuSans-111"/>
     <use x="262.939453" xlink:href="#DejaVuSans-115"/>
     <use x="315.039062" xlink:href="#DejaVuSans-32"/>
     <use x="346.826172" xlink:href="#DejaVuSans-76"/>
     <use x="402.539062" xlink:href="#DejaVuSans-105"/>
     <use x="430.322266" xlink:href="#DejaVuSans-100"/>
     <use x="493.798828" xlink:href="#DejaVuSans-111"/>
     <use x="554.980469" xlink:href="#DejaVuSans-115"/>
     <use x="607.080078" xlink:href="#DejaVuSans-32"/>
     <use x="638.867188" xlink:href="#DejaVuSans-45"/>
     <use x="674.951172" xlink:href="#DejaVuSans-32"/>
     <use x="706.738281" xlink:href="#DejaVuSans-121"/>
     <use x="765.917969" xlink:href="#DejaVuSans-40"/>
     <use x="804.931641" xlink:href="#DejaVuSans-107"/>
     <use x="862.841797" xlink:href="#DejaVuSans-41"/>
    </g>
   </g>
   <g id="legend_1">
    <g id="patch_7">
     <path d="M 1195.130312 130.66825 
L 1237.16 130.66825 
Q 1239.16 130.66825 1239.16 128.66825 
L 1239.16 100.312 
Q 1239.16 98.312 1237.16 98.312 
L 1195.130312 98.312 
Q 1193.130312 98.312 1193.130312 100.312 
L 1193.130312 128.66825 
Q 1193.130312 130.66825 1195.130312 130.66825 
z
" style="fill:#ffffff;opacity:0.8;stroke:#cccccc;stroke-linejoin:miter;"/>
    </g>
    <g id="line2d_33">
     <path d="M 1197.130312 106.410438 
L 1217.130312 106.410438 
" style="fill:none;stroke:#ff0000;stroke-linecap:square;stroke-width:4;"/>
    </g>
    <g id="line2d_34"/>
    <g id="text_9">
     <!-- y -->
     <g transform="translate(1225.130312 109.910438)scale(0.1 -0.1)">
      <use xlink:href="#DejaVuSans-121"/>
     </g>
    </g>
    <g id="line2d_35">
     <path d="M 1197.130312 121.088563 
L 1217.130312 121.088563 
" style="fill:none;stroke:#0000ff;stroke-dasharray:7.4,3.2;stroke-dashoffset:0;stroke-width:2;"/>
    </g>
    <g id="line2d_36"/>
    <g id="text_10">
     <!-- yr -->
     <defs>
      <path d="M 41.109375 46.296875 
Q 39.59375 47.171875 37.8125 47.578125 
Q 36.03125 48 33.890625 48 
Q 26.265625 48 22.1875 43.046875 
Q 18.109375 38.09375 18.109375 28.8125 
L 18.109375 0 
L 9.078125 0 
L 9.078125 54.6875 
L 18.109375 54.6875 
L 18.109375 46.1875 
Q 20.953125 51.171875 25.484375 53.578125 
Q 30.03125 56 36.53125 56 
Q 37.453125 56 38.578125 55.875 
Q 39.703125 55.765625 41.0625 55.515625 
z
" id="DejaVuSans-114"/>
     </defs>
     <g transform="translate(1225.130312 124.588563)scale(0.1 -0.1)">
      <use xlink:href="#DejaVuSans-121"/>
      <use x="59.179688" xlink:href="#DejaVuSans-114"/>
     </g>
    </g>
   </g>
  </g>
  <g id="axes_2">
   <g id="patch_8">
    <path d="M 172.8 475.848 
L 1244.16 475.848 
L 1244.16 309.528 
L 172.8 309.528 
z
" style="fill:#ffffff;"/>
   </g>
   <g id="matplotlib.axis_3">
    <g id="xtick_10">
     <g id="line2d_37">
      <path clip-path="url(#p7935abe00d)" d="M 221.498182 475.848 
L 221.498182 309.528 
" style="fill:none;stroke:#808080;stroke-linecap:square;stroke-width:0.8;"/>
     </g>
     <g id="line2d_38">
      <g>
       <use style="stroke:#000000;stroke-width:0.8;" x="221.498182" xlink:href="#m9477be32ce" y="475.848"/>
      </g>
     </g>
    </g>
    <g id="xtick_11">
     <g id="line2d_39">
      <path clip-path="url(#p7935abe00d)" d="M 343.548763 475.848 
L 343.548763 309.528 
" style="fill:none;stroke:#808080;stroke-linecap:square;stroke-width:0.8;"/>
     </g>
     <g id="line2d_40">
      <g>
       <use style="stroke:#000000;stroke-width:0.8;" x="343.548763" xlink:href="#m9477be32ce" y="475.848"/>
      </g>
     </g>
    </g>
    <g id="xtick_12">
     <g id="line2d_41">
      <path clip-path="url(#p7935abe00d)" d="M 465.599344 475.848 
L 465.599344 309.528 
" style="fill:none;stroke:#808080;stroke-linecap:square;stroke-width:0.8;"/>
     </g>
     <g id="line2d_42">
      <g>
       <use style="stroke:#000000;stroke-width:0.8;" x="465.599344" xlink:href="#m9477be32ce" y="475.848"/>
      </g>
     </g>
    </g>
    <g id="xtick_13">
     <g id="line2d_43">
      <path clip-path="url(#p7935abe00d)" d="M 587.649925 475.848 
L 587.649925 309.528 
" style="fill:none;stroke:#808080;stroke-linecap:square;stroke-width:0.8;"/>
     </g>
     <g id="line2d_44">
      <g>
       <use style="stroke:#000000;stroke-width:0.8;" x="587.649925" xlink:href="#m9477be32ce" y="475.848"/>
      </g>
     </g>
    </g>
    <g id="xtick_14">
     <g id="line2d_45">
      <path clip-path="url(#p7935abe00d)" d="M 709.700506 475.848 
L 709.700506 309.528 
" style="fill:none;stroke:#808080;stroke-linecap:square;stroke-width:0.8;"/>
     </g>
     <g id="line2d_46">
      <g>
       <use style="stroke:#000000;stroke-width:0.8;" x="709.700506" xlink:href="#m9477be32ce" y="475.848"/>
      </g>
     </g>
    </g>
    <g id="xtick_15">
     <g id="line2d_47">
      <path clip-path="url(#p7935abe00d)" d="M 831.751087 475.848 
L 831.751087 309.528 
" style="fill:none;stroke:#808080;stroke-linecap:square;stroke-width:0.8;"/>
     </g>
     <g id="line2d_48">
      <g>
       <use style="stroke:#000000;stroke-width:0.8;" x="831.751087" xlink:href="#m9477be32ce" y="475.848"/>
      </g>
     </g>
    </g>
    <g id="xtick_16">
     <g id="line2d_49">
      <path clip-path="url(#p7935abe00d)" d="M 953.801668 475.848 
L 953.801668 309.528 
" style="fill:none;stroke:#808080;stroke-linecap:square;stroke-width:0.8;"/>
     </g>
     <g id="line2d_50">
      <g>
       <use style="stroke:#000000;stroke-width:0.8;" x="953.801668" xlink:href="#m9477be32ce" y="475.848"/>
      </g>
     </g>
    </g>
    <g id="xtick_17">
     <g id="line2d_51">
      <path clip-path="url(#p7935abe00d)" d="M 1075.852249 475.848 
L 1075.852249 309.528 
" style="fill:none;stroke:#808080;stroke-linecap:square;stroke-width:0.8;"/>
     </g>
     <g id="line2d_52">
      <g>
       <use style="stroke:#000000;stroke-width:0.8;" x="1075.852249" xlink:href="#m9477be32ce" y="475.848"/>
      </g>
     </g>
    </g>
    <g id="xtick_18">
     <g id="line2d_53">
      <path clip-path="url(#p7935abe00d)" d="M 1197.90283 475.848 
L 1197.90283 309.528 
" style="fill:none;stroke:#808080;stroke-linecap:square;stroke-width:0.8;"/>
     </g>
     <g id="line2d_54">
      <g>
       <use style="stroke:#000000;stroke-width:0.8;" x="1197.90283" xlink:href="#m9477be32ce" y="475.848"/>
      </g>
     </g>
    </g>
   </g>
   <g id="matplotlib.axis_4">
    <g id="ytick_7">
     <g id="line2d_55">
      <path clip-path="url(#p7935abe00d)" d="M 172.8 461.988 
L 1244.16 461.988 
" style="fill:none;stroke:#808080;stroke-linecap:square;stroke-width:0.8;"/>
     </g>
     <g id="line2d_56">
      <g>
       <use style="stroke:#000000;stroke-width:0.8;" x="172.8" xlink:href="#m75b41d26f3" y="461.988"/>
      </g>
     </g>
     <g id="text_11">
      <!-- 0 -->
      <g transform="translate(159.4375 465.787219)scale(0.1 -0.1)">
       <use xlink:href="#DejaVuSans-48"/>
      </g>
     </g>
    </g>
    <g id="ytick_8">
     <g id="line2d_57">
      <path clip-path="url(#p7935abe00d)" d="M 172.8 434.268 
L 1244.16 434.268 
" style="fill:none;stroke:#808080;stroke-linecap:square;stroke-width:0.8;"/>
     </g>
     <g id="line2d_58">
      <g>
       <use style="stroke:#000000;stroke-width:0.8;" x="172.8" xlink:href="#m75b41d26f3" y="434.268"/>
      </g>
     </g>
     <g id="text_12">
      <!-- 1 -->
      <g transform="translate(159.4375 438.067219)scale(0.1 -0.1)">
       <use xlink:href="#DejaVuSans-49"/>
      </g>
     </g>
    </g>
    <g id="ytick_9">
     <g id="line2d_59">
      <path clip-path="url(#p7935abe00d)" d="M 172.8 406.548 
L 1244.16 406.548 
" style="fill:none;stroke:#808080;stroke-linecap:square;stroke-width:0.8;"/>
     </g>
     <g id="line2d_60">
      <g>
       <use style="stroke:#000000;stroke-width:0.8;" x="172.8" xlink:href="#m75b41d26f3" y="406.548"/>
      </g>
     </g>
     <g id="text_13">
      <!-- 2 -->
      <g transform="translate(159.4375 410.347219)scale(0.1 -0.1)">
       <use xlink:href="#DejaVuSans-50"/>
      </g>
     </g>
    </g>
    <g id="ytick_10">
     <g id="line2d_61">
      <path clip-path="url(#p7935abe00d)" d="M 172.8 378.828 
L 1244.16 378.828 
" style="fill:none;stroke:#808080;stroke-linecap:square;stroke-width:0.8;"/>
     </g>
     <g id="line2d_62">
      <g>
       <use style="stroke:#000000;stroke-width:0.8;" x="172.8" xlink:href="#m75b41d26f3" y="378.828"/>
      </g>
     </g>
     <g id="text_14">
      <!-- 3 -->
      <g transform="translate(159.4375 382.627219)scale(0.1 -0.1)">
       <use xlink:href="#DejaVuSans-51"/>
      </g>
     </g>
    </g>
    <g id="ytick_11">
     <g id="line2d_63">
      <path clip-path="url(#p7935abe00d)" d="M 172.8 351.108 
L 1244.16 351.108 
" style="fill:none;stroke:#808080;stroke-linecap:square;stroke-width:0.8;"/>
     </g>
     <g id="line2d_64">
      <g>
       <use style="stroke:#000000;stroke-width:0.8;" x="172.8" xlink:href="#m75b41d26f3" y="351.108"/>
      </g>
     </g>
     <g id="text_15">
      <!-- 4 -->
      <g transform="translate(159.4375 354.907219)scale(0.1 -0.1)">
       <use xlink:href="#DejaVuSans-52"/>
      </g>
     </g>
    </g>
    <g id="ytick_12">
     <g id="line2d_65">
      <path clip-path="url(#p7935abe00d)" d="M 172.8 323.388 
L 1244.16 323.388 
" style="fill:none;stroke:#808080;stroke-linecap:square;stroke-width:0.8;"/>
     </g>
     <g id="line2d_66">
      <g>
       <use style="stroke:#000000;stroke-width:0.8;" x="172.8" xlink:href="#m75b41d26f3" y="323.388"/>
      </g>
     </g>
     <g id="text_16">
      <!-- 5 -->
      <g transform="translate(159.4375 327.187219)scale(0.1 -0.1)">
       <use xlink:href="#DejaVuSans-53"/>
      </g>
     </g>
    </g>
    <g id="text_17">
     <!-- Voltagem (V) -->
     <g transform="translate(152.11 445.35925)rotate(-90)scale(0.16 -0.16)">
      <use xlink:href="#DejaVuSans-86"/>
      <use x="68.298828" xlink:href="#DejaVuSans-111"/>
      <use x="129.480469" xlink:href="#DejaVuSans-108"/>
      <use x="157.263672" xlink:href="#DejaVuSans-116"/>
      <use x="196.472656" xlink:href="#DejaVuSans-97"/>
      <use x="257.751953" xlink:href="#DejaVuSans-103"/>
      <use x="321.228516" xlink:href="#DejaVuSans-101"/>
      <use x="382.751953" xlink:href="#DejaVuSans-109"/>
      <use x="480.164062" xlink:href="#DejaVuSans-32"/>
      <use x="511.951172" xlink:href="#DejaVuSans-40"/>
      <use x="550.964844" xlink:href="#DejaVuSans-86"/>
      <use x="619.373047" xlink:href="#DejaVuSans-41"/>
     </g>
    </g>
   </g>
   <g id="line2d_67">
    <path clip-path="url(#p7935abe00d)" d="M 221.498182 461.988 
L 341.107751 461.988 
L 343.548763 323.388 
L 345.989774 398.748576 
L 348.430786 461.988 
L 350.871798 323.388 
L 353.312809 442.989419 
L 355.753821 407.699158 
L 358.194833 325.48252 
L 360.635844 461.988 
L 363.076856 369.037809 
L 365.517867 355.79113 
L 367.958879 388.490457 
L 370.399891 358.212979 
L 372.840902 375.222314 
L 375.281914 370.413514 
L 377.722925 364.724176 
L 380.163937 373.543332 
L 382.604949 366.090608 
L 385.04596 366.795081 
L 387.486972 371.663231 
L 389.927984 369.133733 
L 392.368995 370.466243 
L 394.810007 365.854004 
L 397.251018 370.443506 
L 399.69203 368.397873 
L 402.133042 370.022298 
L 404.574053 363.966368 
L 407.015065 376.425893 
L 409.456077 364.950838 
L 411.897088 371.603683 
L 414.3381 368.561134 
L 416.779111 367.061684 
L 419.220123 369.015621 
L 421.661135 370.660737 
L 424.102146 367.024426 
L 426.543158 372.318005 
L 428.98417 364.227918 
L 431.425181 370.966991 
L 433.866193 368.061717 
L 436.307204 372.291828 
L 438.748216 365.917183 
L 441.189228 370.682175 
L 443.630239 365.332302 
L 446.071251 370.981291 
L 448.512262 371.395206 
L 450.953274 362.638166 
L 453.394286 372.866449 
L 455.835297 367.11638 
L 458.276309 371.606205 
L 460.717321 364.385266 
L 463.158332 371.061919 
L 465.599344 461.988 
L 468.040355 461.988 
L 470.481367 448.789067 
L 472.922379 442.205525 
L 475.36339 452.038595 
L 477.804402 422.859126 
L 480.245414 461.988 
L 482.686425 444.373007 
L 485.127437 447.293727 
L 487.568448 444.669177 
L 490.00946 461.988 
L 492.450472 416.089002 
L 494.891483 461.988 
L 497.332495 443.586508 
L 499.773506 459.347064 
L 502.214518 426.510447 
L 504.65553 461.988 
L 507.096541 429.024748 
L 509.537553 461.988 
L 511.978565 419.310537 
L 514.419576 461.988 
L 516.860588 433.038992 
L 519.301599 461.988 
L 521.742611 412.404779 
L 524.183623 461.988 
L 526.624634 439.301453 
L 529.065646 461.988 
L 531.506658 409.205766 
L 533.947669 461.988 
L 536.388681 439.376158 
L 538.829692 461.988 
L 541.270704 412.46026 
L 543.711716 461.988 
L 546.152727 454.552484 
L 548.593739 423.57541 
L 551.034751 461.988 
L 553.475762 430.216694 
L 555.916774 461.988 
L 558.357785 420.81504 
L 560.798797 461.988 
L 563.239809 429.569058 
L 565.68082 461.988 
L 568.121832 413.969101 
L 570.562843 461.988 
L 573.003855 443.017915 
L 575.444867 456.856231 
L 577.885878 419.074137 
L 580.32689 461.988 
L 582.767902 443.646327 
L 585.208913 455.717003 
L 587.649925 323.388 
L 590.090936 397.010199 
L 592.531948 461.988 
L 594.97296 323.388 
L 597.413971 421.990105 
L 599.854983 355.836119 
L 602.295995 329.039196 
L 604.737006 400.546939 
L 607.178018 323.388 
L 609.619029 375.115308 
L 612.060041 323.388 
L 614.501053 362.270581 
L 616.942064 323.388 
L 619.383076 354.527179 
L 621.824087 323.388 
L 624.265099 359.872953 
L 626.706111 323.388 
L 629.147122 348.905105 
L 631.588134 323.388 
L 634.029146 357.46044 
L 636.470157 323.388 
L 638.911169 350.795831 
L 641.35218 323.388 
L 643.793192 356.292056 
L 646.234204 323.388 
L 648.675215 349.55708 
L 651.116227 323.388 
L 653.557239 356.878833 
L 655.99825 323.388 
L 658.439262 355.103408 
L 660.880273 323.388 
L 663.321285 353.483604 
L 665.762297 323.388 
L 668.203308 353.864657 
L 670.64432 323.388 
L 673.085332 355.625196 
L 675.526343 323.388 
L 677.967355 355.103408 
L 680.408366 323.388 
L 682.849378 352.881941 
L 685.29039 323.388 
L 687.731401 350.288929 
L 690.172413 323.388 
L 692.613424 351.392324 
L 695.054436 323.388 
L 697.495448 349.902707 
L 699.936459 323.388 
L 702.377471 349.235847 
L 704.818483 323.388 
L 707.259494 352.631075 
L 709.700506 461.988 
L 712.141517 461.988 
L 714.582529 399.847743 
L 717.023541 461.988 
L 719.464552 430.319438 
L 721.905564 422.591317 
L 724.346576 461.988 
L 726.787587 399.207966 
L 729.228599 461.988 
L 731.66961 418.594752 
L 734.110622 461.988 
L 736.551634 405.211924 
L 738.992645 461.988 
L 741.433657 412.773995 
L 743.874668 461.988 
L 746.31568 406.906433 
L 748.756692 461.988 
L 751.197703 407.237175 
L 753.638715 461.988 
L 756.079727 416.699688 
L 758.520738 461.988 
L 760.96175 404.485244 
L 763.402761 461.988 
L 765.843773 423.47526 
L 768.284785 461.988 
L 770.725796 396.522064 
L 773.166808 461.988 
L 775.60782 432.686907 
L 778.048831 423.20625 
L 780.489843 461.988 
L 782.930854 399.661257 
L 785.371866 461.988 
L 787.812878 415.466106 
L 790.253889 461.988 
L 792.694901 417.151939 
L 795.135913 461.988 
L 797.576924 385.30335 
L 800.017936 461.988 
L 802.458947 440.989504 
L 804.899959 404.487885 
L 807.340971 461.988 
L 809.781982 415.585746 
L 812.222994 461.988 
L 814.664005 396.0195 
L 817.105017 461.988 
L 819.546029 427.992067 
L 821.98704 431.927647 
L 824.428052 452.68249 
L 826.869064 395.792896 
L 829.310075 461.988 
L 831.751087 323.388 
L 834.192098 461.988 
L 836.63311 461.988 
L 839.074122 364.464702 
L 841.515133 461.988 
L 843.956145 402.362183 
L 846.397157 435.31313 
L 848.838168 409.586771 
L 851.27918 431.559133 
L 853.720191 395.769231 
L 856.161203 461.988 
L 858.602215 378.510772 
L 861.043226 461.988 
L 863.484238 400.519302 
L 865.925249 434.755026 
L 868.366261 404.999011 
L 870.807273 454.413724 
L 873.248284 379.478032 
L 875.689296 461.988 
L 878.130308 397.767371 
L 880.571319 461.988 
L 883.012331 383.26977 
L 885.453342 461.988 
L 887.894354 398.805568 
L 890.335366 456.615148 
L 892.776377 390.98129 
L 895.217389 458.023736 
L 897.658401 402.798939 
L 900.099412 446.502726 
L 902.540424 391.666585 
L 904.981435 461.988 
L 907.422447 383.018904 
L 909.863459 461.988 
L 912.30447 404.878022 
L 914.745482 437.124269 
L 917.186494 399.834134 
L 919.627505 457.757469 
L 922.068517 394.213153 
L 924.509528 461.988 
L 926.95054 383.867094 
L 929.391552 461.988 
L 931.832563 390.380421 
L 934.273575 461.988 
L 936.714586 385.049532 
L 939.155598 461.988 
L 941.59661 388.108642 
L 944.037621 461.988 
L 946.478633 394.502329 
L 948.919645 461.988 
L 951.360656 375.115544 
L 953.801668 461.988 
L 956.242679 461.988 
L 958.683691 407.902524 
L 961.124703 461.988 
L 963.565714 453.74604 
L 966.006726 414.83133 
L 968.447738 461.988 
L 970.888749 441.387563 
L 973.329761 452.492297 
L 975.770772 427.669597 
L 978.211784 461.988 
L 980.652796 434.515595 
L 983.093807 461.988 
L 985.534819 406.849774 
L 987.97583 461.988 
L 990.416842 450.981095 
L 992.857854 431.003775 
L 995.298865 461.988 
L 997.739877 412.274592 
L 1000.180889 461.988 
L 1002.6219 457.240257 
L 1005.062912 399.044093 
L 1007.503923 461.988 
L 1009.944935 461.988 
L 1012.385947 395.527734 
L 1014.826958 461.988 
L 1017.26797 461.988 
L 1019.708982 408.761151 
L 1022.149993 461.988 
L 1024.591005 443.357333 
L 1027.032016 445.660958 
L 1029.473028 455.974108 
L 1031.91404 421.2105 
L 1034.355051 461.988 
L 1036.796063 449.790188 
L 1039.237075 430.924261 
L 1041.678086 461.988 
L 1044.119098 422.174471 
L 1046.560109 461.988 
L 1049.001121 430.41291 
L 1051.442133 461.988 
L 1053.883144 422.44973 
L 1056.324156 461.988 
L 1058.765167 430.808849 
L 1061.206179 461.988 
L 1063.647191 423.217006 
L 1066.088202 461.988 
L 1068.529214 426.631459 
L 1070.970226 461.988 
L 1073.411237 428.637486 
L 1075.852249 323.388 
L 1078.29326 461.988 
L 1080.734272 461.988 
L 1083.175284 329.956711 
L 1085.616295 461.988 
L 1088.057307 423.771988 
L 1090.498319 351.982998 
L 1092.93933 459.929624 
L 1095.380342 375.64599 
L 1097.821353 423.122842 
L 1100.262365 383.290546 
L 1102.703377 409.801376 
L 1105.144388 399.46118 
L 1107.5854 395.169147 
L 1110.026411 411.430915 
L 1112.467423 381.462941 
L 1114.908435 425.864933 
L 1117.349446 374.704513 
L 1119.790458 424.581139 
L 1122.23147 381.116397 
L 1124.672481 424.803334 
L 1127.113493 373.863496 
L 1129.554504 427.198061 
L 1131.995516 379.099403 
L 1134.436528 421.565568 
L 1136.877539 386.132494 
L 1139.318551 376.562251 
L 1141.759563 459.422003 
L 1144.200574 363.058438 
L 1146.641586 436.476581 
L 1149.082597 370.354113 
L 1151.523609 444.648966 
L 1153.964621 368.107832 
L 1156.405632 426.468923 
L 1158.846644 383.037458 
L 1161.287656 417.537163 
L 1163.728667 390.687999 
L 1166.169679 403.767888 
L 1168.61069 398.348991 
L 1171.051702 402.251281 
L 1173.492714 402.062832 
L 1175.933725 392.827085 
L 1178.374737 412.56065 
L 1180.815748 388.794233 
L 1183.25676 411.817802 
L 1185.697772 390.617852 
L 1188.138783 411.67924 
L 1190.579795 387.209396 
L 1193.020807 413.018147 
L 1195.461818 387.365184 
L 1195.461818 387.365184 
" style="fill:none;stroke:#008000;stroke-dasharray:14.8,6.4;stroke-dashoffset:0;stroke-width:4;"/>
   </g>
   <g id="patch_9">
    <path d="M 172.8 475.848 
L 172.8 309.528 
" style="fill:none;stroke:#000000;stroke-linecap:square;stroke-linejoin:miter;stroke-width:0.8;"/>
   </g>
   <g id="patch_10">
    <path d="M 1244.16 475.848 
L 1244.16 309.528 
" style="fill:none;stroke:#000000;stroke-linecap:square;stroke-linejoin:miter;stroke-width:0.8;"/>
   </g>
   <g id="patch_11">
    <path d="M 172.8 475.848 
L 1244.16 475.848 
" style="fill:none;stroke:#000000;stroke-linecap:square;stroke-linejoin:miter;stroke-width:0.8;"/>
   </g>
   <g id="patch_12">
    <path d="M 172.8 309.528 
L 1244.16 309.528 
" style="fill:none;stroke:#000000;stroke-linecap:square;stroke-linejoin:miter;stroke-width:0.8;"/>
   </g>
   <g id="text_18">
    <!-- Sada controlador - u(k) -->
    <defs>
     <path d="M 53.515625 70.515625 
L 53.515625 60.890625 
Q 47.90625 63.578125 42.921875 64.890625 
Q 37.9375 66.21875 33.296875 66.21875 
Q 25.25 66.21875 20.875 63.09375 
Q 16.5 59.96875 16.5 54.203125 
Q 16.5 49.359375 19.40625 46.890625 
Q 22.3125 44.4375 30.421875 42.921875 
L 36.375 41.703125 
Q 47.40625 39.59375 52.65625 34.296875 
Q 57.90625 29 57.90625 20.125 
Q 57.90625 9.515625 50.796875 4.046875 
Q 43.703125 -1.421875 29.984375 -1.421875 
Q 24.8125 -1.421875 18.96875 -0.25 
Q 13.140625 0.921875 6.890625 3.21875 
L 6.890625 13.375 
Q 12.890625 10.015625 18.65625 8.296875 
Q 24.421875 6.59375 29.984375 6.59375 
Q 38.421875 6.59375 43.015625 9.90625 
Q 47.609375 13.234375 47.609375 19.390625 
Q 47.609375 24.75 44.3125 27.78125 
Q 41.015625 30.8125 33.5 32.328125 
L 27.484375 33.5 
Q 16.453125 35.6875 11.515625 40.375 
Q 6.59375 45.0625 6.59375 53.421875 
Q 6.59375 63.09375 13.40625 68.65625 
Q 20.21875 74.21875 32.171875 74.21875 
Q 37.3125 74.21875 42.625 73.28125 
Q 47.953125 72.359375 53.515625 70.515625 
z
" id="DejaVuSans-83"/>
     <path d="M 20.65625 79.984375 
L 30.375 79.984375 
L 14.46875 61.625 
L 6.984375 61.625 
z
M 9.421875 54.6875 
L 18.40625 54.6875 
L 18.40625 0 
L 9.421875 0 
z
M 13.921875 56 
z
" id="DejaVuSans-237"/>
     <path d="M 48.78125 52.59375 
L 48.78125 44.1875 
Q 44.96875 46.296875 41.140625 47.34375 
Q 37.3125 48.390625 33.40625 48.390625 
Q 24.65625 48.390625 19.8125 42.84375 
Q 14.984375 37.3125 14.984375 27.296875 
Q 14.984375 17.28125 19.8125 11.734375 
Q 24.65625 6.203125 33.40625 6.203125 
Q 37.3125 6.203125 41.140625 7.25 
Q 44.96875 8.296875 48.78125 10.40625 
L 48.78125 2.09375 
Q 45.015625 0.34375 40.984375 -0.53125 
Q 36.96875 -1.421875 32.421875 -1.421875 
Q 20.0625 -1.421875 12.78125 6.34375 
Q 5.515625 14.109375 5.515625 27.296875 
Q 5.515625 40.671875 12.859375 48.328125 
Q 20.21875 56 33.015625 56 
Q 37.15625 56 41.109375 55.140625 
Q 45.0625 54.296875 48.78125 52.59375 
z
" id="DejaVuSans-99"/>
     <path d="M 54.890625 33.015625 
L 54.890625 0 
L 45.90625 0 
L 45.90625 32.71875 
Q 45.90625 40.484375 42.875 44.328125 
Q 39.84375 48.1875 33.796875 48.1875 
Q 26.515625 48.1875 22.3125 43.546875 
Q 18.109375 38.921875 18.109375 30.90625 
L 18.109375 0 
L 9.078125 0 
L 9.078125 54.6875 
L 18.109375 54.6875 
L 18.109375 46.1875 
Q 21.34375 51.125 25.703125 53.5625 
Q 30.078125 56 35.796875 56 
Q 45.21875 56 50.046875 50.171875 
Q 54.890625 44.34375 54.890625 33.015625 
z
" id="DejaVuSans-110"/>
     <path d="M 8.5 21.578125 
L 8.5 54.6875 
L 17.484375 54.6875 
L 17.484375 21.921875 
Q 17.484375 14.15625 20.5 10.265625 
Q 23.53125 6.390625 29.59375 6.390625 
Q 36.859375 6.390625 41.078125 11.03125 
Q 45.3125 15.671875 45.3125 23.6875 
L 45.3125 54.6875 
L 54.296875 54.6875 
L 54.296875 0 
L 45.3125 0 
L 45.3125 8.40625 
Q 42.046875 3.421875 37.71875 1 
Q 33.40625 -1.421875 27.6875 -1.421875 
Q 18.265625 -1.421875 13.375 4.4375 
Q 8.5 10.296875 8.5 21.578125 
z
M 31.109375 56 
z
" id="DejaVuSans-117"/>
    </defs>
    <g transform="translate(584.169844 303.528)scale(0.21 -0.21)">
     <use xlink:href="#DejaVuSans-83"/>
     <use x="63.476562" xlink:href="#DejaVuSans-97"/>
     <use x="124.755859" xlink:href="#DejaVuSans-237"/>
     <use x="152.539062" xlink:href="#DejaVuSans-100"/>
     <use x="216.015625" xlink:href="#DejaVuSans-97"/>
     <use x="277.294922" xlink:href="#DejaVuSans-32"/>
     <use x="309.082031" xlink:href="#DejaVuSans-99"/>
     <use x="364.0625" xlink:href="#DejaVuSans-111"/>
     <use x="425.244141" xlink:href="#DejaVuSans-110"/>
     <use x="488.623047" xlink:href="#DejaVuSans-116"/>
     <use x="527.832031" xlink:href="#DejaVuSans-114"/>
     <use x="568.914062" xlink:href="#DejaVuSans-111"/>
     <use x="630.095703" xlink:href="#DejaVuSans-108"/>
     <use x="657.878906" xlink:href="#DejaVuSans-97"/>
     <use x="719.158203" xlink:href="#DejaVuSans-100"/>
     <use x="782.634766" xlink:href="#DejaVuSans-111"/>
     <use x="843.816406" xlink:href="#DejaVuSans-114"/>
     <use x="884.929688" xlink:href="#DejaVuSans-32"/>
     <use x="916.716797" xlink:href="#DejaVuSans-45"/>
     <use x="952.800781" xlink:href="#DejaVuSans-32"/>
     <use x="984.587891" xlink:href="#DejaVuSans-117"/>
     <use x="1047.966797" xlink:href="#DejaVuSans-40"/>
     <use x="1086.980469" xlink:href="#DejaVuSans-107"/>
     <use x="1144.890625" xlink:href="#DejaVuSans-41"/>
    </g>
   </g>
  </g>
  <g id="axes_3">
   <g id="patch_13">
    <path d="M 172.8 692.064 
L 1244.16 692.064 
L 1244.16 525.744 
L 172.8 525.744 
z
" style="fill:#ffffff;"/>
   </g>
   <g id="matplotlib.axis_5">
    <g id="xtick_19">
     <g id="line2d_68">
      <path clip-path="url(#p526fdc008f)" d="M 221.498182 692.064 
L 221.498182 525.744 
" style="fill:none;stroke:#808080;stroke-linecap:square;stroke-width:0.8;"/>
     </g>
     <g id="line2d_69">
      <g>
       <use style="stroke:#000000;stroke-width:0.8;" x="221.498182" xlink:href="#m9477be32ce" y="692.064"/>
      </g>
     </g>
     <g id="text_19">
      <!-- 0 -->
      <g transform="translate(218.316932 706.662438)scale(0.1 -0.1)">
       <use xlink:href="#DejaVuSans-48"/>
      </g>
     </g>
    </g>
    <g id="xtick_20">
     <g id="line2d_70">
      <path clip-path="url(#p526fdc008f)" d="M 343.548763 692.064 
L 343.548763 525.744 
" style="fill:none;stroke:#808080;stroke-linecap:square;stroke-width:0.8;"/>
     </g>
     <g id="line2d_71">
      <g>
       <use style="stroke:#000000;stroke-width:0.8;" x="343.548763" xlink:href="#m9477be32ce" y="692.064"/>
      </g>
     </g>
     <g id="text_20">
      <!-- 50 -->
      <g transform="translate(337.186263 706.662438)scale(0.1 -0.1)">
       <use xlink:href="#DejaVuSans-53"/>
       <use x="63.623047" xlink:href="#DejaVuSans-48"/>
      </g>
     </g>
    </g>
    <g id="xtick_21">
     <g id="line2d_72">
      <path clip-path="url(#p526fdc008f)" d="M 465.599344 692.064 
L 465.599344 525.744 
" style="fill:none;stroke:#808080;stroke-linecap:square;stroke-width:0.8;"/>
     </g>
     <g id="line2d_73">
      <g>
       <use style="stroke:#000000;stroke-width:0.8;" x="465.599344" xlink:href="#m9477be32ce" y="692.064"/>
      </g>
     </g>
     <g id="text_21">
      <!-- 100 -->
      <g transform="translate(456.055594 706.662438)scale(0.1 -0.1)">
       <use xlink:href="#DejaVuSans-49"/>
       <use x="63.623047" xlink:href="#DejaVuSans-48"/>
       <use x="127.246094" xlink:href="#DejaVuSans-48"/>
      </g>
     </g>
    </g>
    <g id="xtick_22">
     <g id="line2d_74">
      <path clip-path="url(#p526fdc008f)" d="M 587.649925 692.064 
L 587.649925 525.744 
" style="fill:none;stroke:#808080;stroke-linecap:square;stroke-width:0.8;"/>
     </g>
     <g id="line2d_75">
      <g>
       <use style="stroke:#000000;stroke-width:0.8;" x="587.649925" xlink:href="#m9477be32ce" y="692.064"/>
      </g>
     </g>
     <g id="text_22">
      <!-- 150 -->
      <g transform="translate(578.106175 706.662438)scale(0.1 -0.1)">
       <use xlink:href="#DejaVuSans-49"/>
       <use x="63.623047" xlink:href="#DejaVuSans-53"/>
       <use x="127.246094" xlink:href="#DejaVuSans-48"/>
      </g>
     </g>
    </g>
    <g id="xtick_23">
     <g id="line2d_76">
      <path clip-path="url(#p526fdc008f)" d="M 709.700506 692.064 
L 709.700506 525.744 
" style="fill:none;stroke:#808080;stroke-linecap:square;stroke-width:0.8;"/>
     </g>
     <g id="line2d_77">
      <g>
       <use style="stroke:#000000;stroke-width:0.8;" x="709.700506" xlink:href="#m9477be32ce" y="692.064"/>
      </g>
     </g>
     <g id="text_23">
      <!-- 200 -->
      <g transform="translate(700.156756 706.662438)scale(0.1 -0.1)">
       <use xlink:href="#DejaVuSans-50"/>
       <use x="63.623047" xlink:href="#DejaVuSans-48"/>
       <use x="127.246094" xlink:href="#DejaVuSans-48"/>
      </g>
     </g>
    </g>
    <g id="xtick_24">
     <g id="line2d_78">
      <path clip-path="url(#p526fdc008f)" d="M 831.751087 692.064 
L 831.751087 525.744 
" style="fill:none;stroke:#808080;stroke-linecap:square;stroke-width:0.8;"/>
     </g>
     <g id="line2d_79">
      <g>
       <use style="stroke:#000000;stroke-width:0.8;" x="831.751087" xlink:href="#m9477be32ce" y="692.064"/>
      </g>
     </g>
     <g id="text_24">
      <!-- 250 -->
      <g transform="translate(822.207337 706.662438)scale(0.1 -0.1)">
       <use xlink:href="#DejaVuSans-50"/>
       <use x="63.623047" xlink:href="#DejaVuSans-53"/>
       <use x="127.246094" xlink:href="#DejaVuSans-48"/>
      </g>
     </g>
    </g>
    <g id="xtick_25">
     <g id="line2d_80">
      <path clip-path="url(#p526fdc008f)" d="M 953.801668 692.064 
L 953.801668 525.744 
" style="fill:none;stroke:#808080;stroke-linecap:square;stroke-width:0.8;"/>
     </g>
     <g id="line2d_81">
      <g>
       <use style="stroke:#000000;stroke-width:0.8;" x="953.801668" xlink:href="#m9477be32ce" y="692.064"/>
      </g>
     </g>
     <g id="text_25">
      <!-- 300 -->
      <g transform="translate(944.257918 706.662438)scale(0.1 -0.1)">
       <use xlink:href="#DejaVuSans-51"/>
       <use x="63.623047" xlink:href="#DejaVuSans-48"/>
       <use x="127.246094" xlink:href="#DejaVuSans-48"/>
      </g>
     </g>
    </g>
    <g id="xtick_26">
     <g id="line2d_82">
      <path clip-path="url(#p526fdc008f)" d="M 1075.852249 692.064 
L 1075.852249 525.744 
" style="fill:none;stroke:#808080;stroke-linecap:square;stroke-width:0.8;"/>
     </g>
     <g id="line2d_83">
      <g>
       <use style="stroke:#000000;stroke-width:0.8;" x="1075.852249" xlink:href="#m9477be32ce" y="692.064"/>
      </g>
     </g>
     <g id="text_26">
      <!-- 350 -->
      <g transform="translate(1066.308499 706.662438)scale(0.1 -0.1)">
       <use xlink:href="#DejaVuSans-51"/>
       <use x="63.623047" xlink:href="#DejaVuSans-53"/>
       <use x="127.246094" xlink:href="#DejaVuSans-48"/>
      </g>
     </g>
    </g>
    <g id="xtick_27">
     <g id="line2d_84">
      <path clip-path="url(#p526fdc008f)" d="M 1197.90283 692.064 
L 1197.90283 525.744 
" style="fill:none;stroke:#808080;stroke-linecap:square;stroke-width:0.8;"/>
     </g>
     <g id="line2d_85">
      <g>
       <use style="stroke:#000000;stroke-width:0.8;" x="1197.90283" xlink:href="#m9477be32ce" y="692.064"/>
      </g>
     </g>
     <g id="text_27">
      <!-- 400 -->
      <g transform="translate(1188.35908 706.662438)scale(0.1 -0.1)">
       <use xlink:href="#DejaVuSans-52"/>
       <use x="63.623047" xlink:href="#DejaVuSans-48"/>
       <use x="127.246094" xlink:href="#DejaVuSans-48"/>
      </g>
     </g>
    </g>
    <g id="text_28">
     <!-- Amostras (k) -->
     <defs>
      <path d="M 34.1875 63.1875 
L 20.796875 26.90625 
L 47.609375 26.90625 
z
M 28.609375 72.90625 
L 39.796875 72.90625 
L 67.578125 0 
L 57.328125 0 
L 50.6875 18.703125 
L 17.828125 18.703125 
L 11.1875 0 
L 0.78125 0 
z
" id="DejaVuSans-65"/>
     </defs>
     <g transform="translate(650.835 726.419313)scale(0.18 -0.18)">
      <use xlink:href="#DejaVuSans-65"/>
      <use x="68.408203" xlink:href="#DejaVuSans-109"/>
      <use x="165.820312" xlink:href="#DejaVuSans-111"/>
      <use x="227.001953" xlink:href="#DejaVuSans-115"/>
      <use x="279.101562" xlink:href="#DejaVuSans-116"/>
      <use x="318.310547" xlink:href="#DejaVuSans-114"/>
      <use x="359.423828" xlink:href="#DejaVuSans-97"/>
      <use x="420.703125" xlink:href="#DejaVuSans-115"/>
      <use x="472.802734" xlink:href="#DejaVuSans-32"/>
      <use x="504.589844" xlink:href="#DejaVuSans-40"/>
      <use x="543.603516" xlink:href="#DejaVuSans-107"/>
      <use x="601.513672" xlink:href="#DejaVuSans-41"/>
     </g>
    </g>
   </g>
   <g id="matplotlib.axis_6">
    <g id="ytick_13">
     <g id="line2d_86">
      <path clip-path="url(#p526fdc008f)" d="M 172.8 669.384 
L 1244.16 669.384 
" style="fill:none;stroke:#808080;stroke-linecap:square;stroke-width:0.8;"/>
     </g>
     <g id="line2d_87">
      <g>
       <use style="stroke:#000000;stroke-width:0.8;" x="172.8" xlink:href="#m75b41d26f3" y="669.384"/>
      </g>
     </g>
     <g id="text_29">
      <!-- 4 -->
      <defs>
       <path d="M 10.59375 35.5 
L 73.1875 35.5 
L 73.1875 27.203125 
L 10.59375 27.203125 
z
" id="DejaVuSans-8722"/>
      </defs>
      <g transform="translate(151.057812 673.183219)scale(0.1 -0.1)">
       <use xlink:href="#DejaVuSans-8722"/>
       <use x="83.789062" xlink:href="#DejaVuSans-52"/>
      </g>
     </g>
    </g>
    <g id="ytick_14">
     <g id="line2d_88">
      <path clip-path="url(#p526fdc008f)" d="M 172.8 639.144 
L 1244.16 639.144 
" style="fill:none;stroke:#808080;stroke-linecap:square;stroke-width:0.8;"/>
     </g>
     <g id="line2d_89">
      <g>
       <use style="stroke:#000000;stroke-width:0.8;" x="172.8" xlink:href="#m75b41d26f3" y="639.144"/>
      </g>
     </g>
     <g id="text_30">
      <!-- 2 -->
      <g transform="translate(151.057812 642.943219)scale(0.1 -0.1)">
       <use xlink:href="#DejaVuSans-8722"/>
       <use x="83.789062" xlink:href="#DejaVuSans-50"/>
      </g>
     </g>
    </g>
    <g id="ytick_15">
     <g id="line2d_90">
      <path clip-path="url(#p526fdc008f)" d="M 172.8 608.904 
L 1244.16 608.904 
" style="fill:none;stroke:#808080;stroke-linecap:square;stroke-width:0.8;"/>
     </g>
     <g id="line2d_91">
      <g>
       <use style="stroke:#000000;stroke-width:0.8;" x="172.8" xlink:href="#m75b41d26f3" y="608.904"/>
      </g>
     </g>
     <g id="text_31">
      <!-- 0 -->
      <g transform="translate(159.4375 612.703219)scale(0.1 -0.1)">
       <use xlink:href="#DejaVuSans-48"/>
      </g>
     </g>
    </g>
    <g id="ytick_16">
     <g id="line2d_92">
      <path clip-path="url(#p526fdc008f)" d="M 172.8 578.664 
L 1244.16 578.664 
" style="fill:none;stroke:#808080;stroke-linecap:square;stroke-width:0.8;"/>
     </g>
     <g id="line2d_93">
      <g>
       <use style="stroke:#000000;stroke-width:0.8;" x="172.8" xlink:href="#m75b41d26f3" y="578.664"/>
      </g>
     </g>
     <g id="text_32">
      <!-- 2 -->
      <g transform="translate(159.4375 582.463219)scale(0.1 -0.1)">
       <use xlink:href="#DejaVuSans-50"/>
      </g>
     </g>
    </g>
    <g id="ytick_17">
     <g id="line2d_94">
      <path clip-path="url(#p526fdc008f)" d="M 172.8 548.424 
L 1244.16 548.424 
" style="fill:none;stroke:#808080;stroke-linecap:square;stroke-width:0.8;"/>
     </g>
     <g id="line2d_95">
      <g>
       <use style="stroke:#000000;stroke-width:0.8;" x="172.8" xlink:href="#m75b41d26f3" y="548.424"/>
      </g>
     </g>
     <g id="text_33">
      <!-- 4 -->
      <g transform="translate(159.4375 552.223219)scale(0.1 -0.1)">
       <use xlink:href="#DejaVuSans-52"/>
      </g>
     </g>
    </g>
    <g id="text_34">
     <!-- Voltagem (V) -->
     <g transform="translate(143.730312 661.57525)rotate(-90)scale(0.16 -0.16)">
      <use xlink:href="#DejaVuSans-86"/>
      <use x="68.298828" xlink:href="#DejaVuSans-111"/>
      <use x="129.480469" xlink:href="#DejaVuSans-108"/>
      <use x="157.263672" xlink:href="#DejaVuSans-116"/>
      <use x="196.472656" xlink:href="#DejaVuSans-97"/>
      <use x="257.751953" xlink:href="#DejaVuSans-103"/>
      <use x="321.228516" xlink:href="#DejaVuSans-101"/>
      <use x="382.751953" xlink:href="#DejaVuSans-109"/>
      <use x="480.164062" xlink:href="#DejaVuSans-32"/>
      <use x="511.951172" xlink:href="#DejaVuSans-40"/>
      <use x="550.964844" xlink:href="#DejaVuSans-86"/>
      <use x="619.373047" xlink:href="#DejaVuSans-41"/>
     </g>
    </g>
   </g>
   <g id="line2d_96">
    <path clip-path="url(#p526fdc008f)" d="M 221.498182 608.904 
L 341.107751 608.904 
L 343.548763 548.424 
L 345.989774 564.45876 
L 348.430786 586.04256 
L 350.871798 577.02348 
L 353.312809 590.25348 
L 355.753821 590.84316 
L 358.194833 585.89136 
L 360.635844 598.67532 
L 363.076856 592.839 
L 365.517867 592.17372 
L 367.958879 595.27332 
L 370.399891 593.20944 
L 372.840902 594.75924 
L 375.281914 594.60804 
L 377.722925 594.24516 
L 380.163937 595.05408 
L 382.604949 594.54 
L 385.04596 594.60804 
L 387.486972 595.05408 
L 389.927984 594.91044 
L 392.368995 595.05408 
L 394.810007 594.68364 
L 397.251018 595.05408 
L 399.69203 594.91044 
L 402.133042 595.05408 
L 404.574053 594.54 
L 407.015065 595.57572 
L 409.456077 594.68364 
L 411.897088 595.20528 
L 416.779111 594.83484 
L 421.661135 595.12968 
L 424.102146 594.83484 
L 426.543158 595.27332 
L 428.98417 594.60804 
L 431.425181 595.12968 
L 433.866193 594.91044 
L 436.307204 595.27332 
L 438.748216 594.75924 
L 441.189228 595.12968 
L 443.630239 594.68364 
L 446.071251 595.12968 
L 448.512262 595.20528 
L 450.953274 594.4644 
L 453.394286 595.27332 
L 455.835297 594.83484 
L 458.276309 595.20528 
L 460.717321 594.60804 
L 463.158332 595.12968 
L 465.599344 655.68528 
L 470.481367 635.87808 
L 472.922379 628.4844 
L 475.36339 624.05424 
L 477.804402 617.55264 
L 480.245414 623.31336 
L 482.686425 618.36156 
L 485.127437 615.77604 
L 487.568448 613.40976 
L 490.00946 614.22624 
L 492.450472 608.904 
L 494.891483 621.76356 
L 497.332495 617.1066 
L 499.773506 615.92724 
L 502.214518 611.27028 
L 504.65553 619.10244 
L 507.096541 613.7802 
L 509.537553 619.84332 
L 511.978565 613.48536 
L 514.419576 624.05424 
L 516.860588 617.92308 
L 519.301599 620.3574 
L 521.742611 613.26612 
L 524.183623 626.12568 
L 526.624634 620.06256 
L 529.065646 619.47288 
L 531.506658 612.306 
L 533.947669 627.0858 
L 536.388681 620.80344 
L 538.829692 619.76772 
L 541.270704 612.82008 
L 543.711716 624.64392 
L 546.152727 620.2818 
L 548.593739 614.59668 
L 551.034751 622.0584 
L 553.475762 616.14648 
L 555.916774 619.76772 
L 558.357785 613.56096 
L 560.798797 623.38896 
L 563.239809 617.1066 
L 565.68082 620.94708 
L 568.121832 613.8558 
L 570.562843 625.3092 
L 573.003855 619.76772 
L 575.444867 617.77188 
L 577.885878 612.1548 
L 580.32689 622.42884 
L 582.767902 617.62068 
L 585.208913 615.99528 
L 587.649925 535.81392 
L 590.090936 554.661 
L 592.531948 571.80708 
L 594.97296 562.19832 
L 597.413971 577.05372 
L 599.854983 577.27296 
L 602.295995 578.60352 
L 604.737006 587.3958 
L 607.178018 582.22476 
L 609.619029 588.21228 
L 612.060041 585.25632 
L 614.501053 589.39164 
L 616.942064 586.06524 
L 619.383076 589.3236 
L 621.824087 586.21644 
L 624.265099 589.91328 
L 626.706111 586.80612 
L 629.147122 589.39164 
L 631.588134 586.88172 
L 634.029146 590.20812 
L 636.470157 586.58688 
L 638.911169 589.39164 
L 641.35218 586.73052 
L 643.793192 589.98888 
L 646.234204 586.73052 
L 648.675215 589.39164 
L 651.116227 586.66248 
L 653.557239 589.98888 
L 655.99825 586.95732 
L 658.439262 590.05692 
L 660.880273 586.95732 
L 663.321285 589.91328 
L 665.762297 587.10096 
L 668.203308 590.05692 
L 670.64432 586.51128 
L 673.085332 589.76208 
L 675.526343 586.95732 
L 677.967355 590.05692 
L 680.408366 586.73052 
L 682.849378 589.68648 
L 685.29039 587.32776 
L 687.731401 589.91328 
L 690.172413 587.10096 
L 692.613424 589.83768 
L 695.054436 587.4714 
L 697.495448 589.98888 
L 699.936459 587.25216 
L 702.377471 589.76208 
L 704.818483 586.95732 
L 707.259494 589.83768 
L 709.700506 647.65656 
L 712.141517 638.56944 
L 714.582529 626.08032 
L 717.023541 626.8212 
L 719.464552 619.79796 
L 721.905564 615.43584 
L 724.346576 616.02552 
L 726.787587 608.78304 
L 729.228599 617.35608 
L 731.66961 611.51976 
L 734.110622 613.88604 
L 736.551634 607.67928 
L 738.992645 614.55132 
L 741.433657 608.85864 
L 743.874668 614.84616 
L 746.31568 608.5638 
L 748.756692 615.2922 
L 751.197703 608.93424 
L 753.638715 616.32036 
L 756.079727 610.55964 
L 758.520738 613.00152 
L 760.96175 606.9384 
L 763.402761 615.43584 
L 765.843773 610.48404 
L 768.284785 612.18504 
L 770.725796 605.60784 
L 773.166808 616.6908 
L 775.60782 612.26064 
L 778.048831 609.59952 
L 780.489843 612.40428 
L 782.930854 606.05388 
L 785.371866 616.17672 
L 787.812878 610.3404 
L 790.253889 614.62692 
L 792.694901 609.30468 
L 795.135913 613.00152 
L 797.576924 605.2374 
L 800.017936 620.46324 
L 802.458947 615.88188 
L 804.899959 610.2648 
L 807.340971 617.50728 
L 809.781982 611.36856 
L 812.222994 614.18088 
L 814.664005 607.0896 
L 817.105017 618.3918 
L 819.546029 613.14516 
L 821.98704 611.30052 
L 824.428052 611.51976 
L 826.869064 605.53224 
L 829.310075 617.50728 
L 831.751087 596.55096 
L 834.192098 613.76508 
L 836.63311 616.4262 
L 839.074122 606.00852 
L 841.515133 616.28256 
L 843.956145 609.25932 
L 846.397157 610.0002 
L 848.838168 606.5226 
L 851.27918 607.18788 
L 853.720191 603.3474 
L 856.161203 608.2236 
L 858.602215 600.98112 
L 861.043226 611.4744 
L 863.484238 605.41884 
L 865.925249 607.11228 
L 868.366261 603.93708 
L 870.807273 607.48272 
L 873.248284 600.90552 
L 875.689296 609.18372 
L 878.130308 603.423 
L 880.571319 608.44284 
L 883.012331 601.5708 
L 885.453342 608.96448 
L 887.894354 603.3474 
L 890.335366 607.55832 
L 892.776377 601.86564 
L 895.217389 606.96864 
L 897.658401 602.38728 
L 900.099412 605.71368 
L 902.540424 601.05672 
L 904.981435 608.66964 
L 907.422447 601.722 
L 909.863459 610.0002 
L 912.30447 604.67796 
L 914.745482 606.5226 
L 917.186494 602.90136 
L 919.627505 607.26348 
L 922.068517 601.86564 
L 924.509528 607.41468 
L 926.95054 600.83748 
L 929.391552 609.25932 
L 931.832563 602.82576 
L 934.273575 609.40296 
L 936.714586 602.46288 
L 939.155598 609.33492 
L 941.59661 602.68212 
L 944.037621 609.849 
L 946.478633 603.64224 
L 948.919645 608.51844 
L 951.360656 600.90552 
L 953.801668 642.23604 
L 956.242679 636.9138 
L 958.683691 625.52844 
L 961.124703 632.18124 
L 963.565714 625.97448 
L 966.006726 618.21792 
L 968.447738 626.26932 
L 970.888749 620.3574 
L 973.329761 617.92308 
L 975.770772 613.26612 
L 978.211784 619.91892 
L 980.652796 614.89152 
L 983.093807 617.62068 
L 985.534819 610.6806 
L 987.97583 626.12568 
L 992.857854 616.07088 
L 995.298865 619.98696 
L 997.739877 612.97128 
L 1000.180889 625.01436 
L 1002.6219 620.80344 
L 1005.062912 612.67644 
L 1007.503923 628.34076 
L 1009.944935 624.05424 
L 1012.385947 614.59668 
L 1014.826958 629.81496 
L 1017.26797 625.60404 
L 1019.708982 616.9554 
L 1022.149993 628.26516 
L 1024.591005 622.0584 
L 1027.032016 618.51276 
L 1029.473028 616.59252 
L 1031.91404 611.48952 
L 1034.355051 621.24192 
L 1039.237075 613.19052 
L 1041.678086 619.02684 
L 1044.119098 613.11492 
L 1046.560109 620.87904 
L 1049.001121 615.26196 
L 1051.442133 620.06256 
L 1053.883144 613.9314 
L 1056.324156 621.31752 
L 1058.765167 615.6324 
L 1061.206179 620.06256 
L 1063.647191 613.99944 
L 1066.088202 621.31752 
L 1068.529214 615.26196 
L 1070.970226 621.17388 
L 1073.411237 615.33 
L 1075.852249 574.25652 
L 1078.29326 595.25064 
L 1080.734272 599.01552 
L 1083.175284 589.63356 
L 1085.616295 604.557 
L 1088.057307 602.19072 
L 1090.498319 596.05956 
L 1092.93933 604.7838 
L 1095.380342 598.2066 
L 1097.821353 601.89588 
L 1100.262365 598.64508 
L 1102.703377 600.64092 
L 1105.144388 599.832 
L 1107.5854 599.38596 
L 1110.026411 600.71652 
L 1112.467423 598.2066 
L 1114.908435 601.82784 
L 1117.349446 597.68496 
L 1119.790458 601.67664 
L 1122.23147 598.2066 
L 1124.672481 601.75224 
L 1127.113493 597.60936 
L 1129.554504 601.89588 
L 1131.995516 598.0554 
L 1134.436528 601.4574 
L 1136.877539 598.64508 
L 1139.318551 597.54132 
L 1141.759563 604.557 
L 1144.200574 596.94408 
L 1146.641586 602.78796 
L 1149.082597 597.46572 
L 1151.523609 603.52128 
L 1153.964621 597.39012 
L 1156.405632 601.97148 
L 1158.846644 598.50144 
L 1161.287656 601.2306 
L 1163.728667 599.09112 
L 1166.169679 600.05124 
L 1168.61069 599.6052 
L 1171.051702 599.90004 
L 1173.492714 599.90004 
L 1175.933725 599.09112 
L 1178.374737 600.71652 
L 1180.815748 598.79628 
L 1183.25676 600.64092 
L 1185.697772 598.93992 
L 1188.138783 600.64092 
L 1190.579795 598.64508 
L 1193.020807 600.71652 
L 1195.461818 598.64508 
L 1195.461818 598.64508 
" style="fill:none;stroke:#000000;stroke-linecap:square;stroke-width:4;"/>
   </g>
   <g id="patch_14">
    <path d="M 172.8 692.064 
L 172.8 525.744 
" style="fill:none;stroke:#000000;stroke-linecap:square;stroke-linejoin:miter;stroke-width:0.8;"/>
   </g>
   <g id="patch_15">
    <path d="M 1244.16 692.064 
L 1244.16 525.744 
" style="fill:none;stroke:#000000;stroke-linecap:square;stroke-linejoin:miter;stroke-width:0.8;"/>
   </g>
   <g id="patch_16">
    <path d="M 172.8 692.064 
L 1244.16 692.064 
" style="fill:none;stroke:#000000;stroke-linecap:square;stroke-linejoin:miter;stroke-width:0.8;"/>
   </g>
   <g id="patch_17">
    <path d="M 172.8 525.744 
L 1244.16 525.744 
" style="fill:none;stroke:#000000;stroke-linecap:square;stroke-linejoin:miter;stroke-width:0.8;"/>
   </g>
   <g id="text_35">
    <!-- Erro - e(k) -->
    <defs>
     <path d="M 9.8125 72.90625 
L 55.90625 72.90625 
L 55.90625 64.59375 
L 19.671875 64.59375 
L 19.671875 43.015625 
L 54.390625 43.015625 
L 54.390625 34.71875 
L 19.671875 34.71875 
L 19.671875 8.296875 
L 56.78125 8.296875 
L 56.78125 0 
L 9.8125 0 
z
" id="DejaVuSans-69"/>
    </defs>
    <g transform="translate(655.596094 519.744)scale(0.21 -0.21)">
     <use xlink:href="#DejaVuSans-69"/>
     <use x="63.183594" xlink:href="#DejaVuSans-114"/>
     <use x="104.28125" xlink:href="#DejaVuSans-114"/>
     <use x="145.363281" xlink:href="#DejaVuSans-111"/>
     <use x="206.544922" xlink:href="#DejaVuSans-32"/>
     <use x="238.332031" xlink:href="#DejaVuSans-45"/>
     <use x="274.416016" xlink:href="#DejaVuSans-32"/>
     <use x="306.203125" xlink:href="#DejaVuSans-101"/>
     <use x="367.726562" xlink:href="#DejaVuSans-40"/>
     <use x="406.740234" xlink:href="#DejaVuSans-107"/>
     <use x="464.650391" xlink:href="#DejaVuSans-41"/>
    </g>
   </g>
  </g>
  <g id="text_36">
   <!-- Controlador avano - LR -->
   <defs>
    <path d="M 64.40625 67.28125 
L 64.40625 56.890625 
Q 59.421875 61.53125 53.78125 63.8125 
Q 48.140625 66.109375 41.796875 66.109375 
Q 29.296875 66.109375 22.65625 58.46875 
Q 16.015625 50.828125 16.015625 36.375 
Q 16.015625 21.96875 22.65625 14.328125 
Q 29.296875 6.6875 41.796875 6.6875 
Q 48.140625 6.6875 53.78125 8.984375 
Q 59.421875 11.28125 64.40625 15.921875 
L 64.40625 5.609375 
Q 59.234375 2.09375 53.4375 0.328125 
Q 47.65625 -1.421875 41.21875 -1.421875 
Q 24.65625 -1.421875 15.125 8.703125 
Q 5.609375 18.84375 5.609375 36.375 
Q 5.609375 53.953125 15.125 64.078125 
Q 24.65625 74.21875 41.21875 74.21875 
Q 47.75 74.21875 53.53125 72.484375 
Q 59.328125 70.75 64.40625 67.28125 
z
" id="DejaVuSans-67"/>
    <path d="M 2.984375 54.6875 
L 12.5 54.6875 
L 29.59375 8.796875 
L 46.6875 54.6875 
L 56.203125 54.6875 
L 35.6875 0 
L 23.484375 0 
z
" id="DejaVuSans-118"/>
    <path d="M 48.78125 52.59375 
L 48.78125 44.1875 
Q 44.96875 46.296875 41.140625 47.34375 
Q 37.3125 48.390625 33.40625 48.390625 
Q 24.65625 48.390625 19.8125 42.84375 
Q 14.984375 37.3125 14.984375 27.296875 
Q 14.984375 17.28125 19.8125 11.734375 
Q 24.65625 6.203125 33.40625 6.203125 
Q 37.3125 6.203125 41.140625 7.25 
Q 44.96875 8.296875 48.78125 10.40625 
L 48.78125 2.09375 
Q 45.015625 0.34375 40.984375 -0.53125 
Q 36.96875 -1.421875 32.421875 -1.421875 
Q 20.0625 -1.421875 12.78125 6.34375 
Q 5.515625 14.109375 5.515625 27.296875 
Q 5.515625 40.671875 12.859375 48.328125 
Q 20.21875 56 33.015625 56 
Q 37.15625 56 41.109375 55.140625 
Q 45.0625 54.296875 48.78125 52.59375 
z
M 36.109375 0 
Q 38.78125 -3.03125 40.09375 -5.59375 
Q 41.421875 -8.15625 41.421875 -10.5 
Q 41.421875 -14.84375 38.484375 -17.0625 
Q 35.5625 -19.28125 29.796875 -19.28125 
Q 27.5625 -19.28125 25.4375 -18.984375 
Q 23.3125 -18.703125 21.203125 -18.109375 
L 21.203125 -11.71875 
Q 22.875 -12.546875 24.671875 -12.90625 
Q 26.484375 -13.28125 28.78125 -13.28125 
Q 31.65625 -13.28125 33.125 -12.109375 
Q 34.59375 -10.9375 34.59375 -8.6875 
Q 34.59375 -7.234375 33.53125 -5.109375 
Q 32.484375 -2.984375 30.296875 0 
z
" id="DejaVuSans-231"/>
    <path d="M 44.390625 34.1875 
Q 47.5625 33.109375 50.5625 29.59375 
Q 53.5625 26.078125 56.59375 19.921875 
L 66.609375 0 
L 56 0 
L 46.6875 18.703125 
Q 43.0625 26.03125 39.671875 28.421875 
Q 36.28125 30.8125 30.421875 30.8125 
L 19.671875 30.8125 
L 19.671875 0 
L 9.8125 0 
L 9.8125 72.90625 
L 32.078125 72.90625 
Q 44.578125 72.90625 50.734375 67.671875 
Q 56.890625 62.453125 56.890625 51.90625 
Q 56.890625 45.015625 53.6875 40.46875 
Q 50.484375 35.9375 44.390625 34.1875 
z
M 19.671875 64.796875 
L 19.671875 38.921875 
L 32.078125 38.921875 
Q 39.203125 38.921875 42.84375 42.21875 
Q 46.484375 45.515625 46.484375 51.90625 
Q 46.484375 58.296875 42.84375 61.546875 
Q 39.203125 64.796875 32.078125 64.796875 
z
" id="DejaVuSans-82"/>
   </defs>
   <g transform="translate(534.07875 35.307937)scale(0.26 -0.26)">
    <use xlink:href="#DejaVuSans-67"/>
    <use x="69.824219" xlink:href="#DejaVuSans-111"/>
    <use x="131.005859" xlink:href="#DejaVuSans-110"/>
    <use x="194.384766" xlink:href="#DejaVuSans-116"/>
    <use x="233.59375" xlink:href="#DejaVuSans-114"/>
    <use x="274.675781" xlink:href="#DejaVuSans-111"/>
    <use x="335.857422" xlink:href="#DejaVuSans-108"/>
    <use x="363.640625" xlink:href="#DejaVuSans-97"/>
    <use x="424.919922" xlink:href="#DejaVuSans-100"/>
    <use x="488.396484" xlink:href="#DejaVuSans-111"/>
    <use x="549.578125" xlink:href="#DejaVuSans-114"/>
    <use x="590.691406" xlink:href="#DejaVuSans-32"/>
    <use x="622.478516" xlink:href="#DejaVuSans-97"/>
    <use x="683.757812" xlink:href="#DejaVuSans-118"/>
    <use x="742.9375" xlink:href="#DejaVuSans-97"/>
    <use x="804.216797" xlink:href="#DejaVuSans-110"/>
    <use x="867.595703" xlink:href="#DejaVuSans-231"/>
    <use x="922.576172" xlink:href="#DejaVuSans-111"/>
    <use x="983.757812" xlink:href="#DejaVuSans-32"/>
    <use x="1015.544922" xlink:href="#DejaVuSans-45"/>
    <use x="1051.628906" xlink:href="#DejaVuSans-32"/>
    <use x="1083.416016" xlink:href="#DejaVuSans-76"/>
    <use x="1139.128906" xlink:href="#DejaVuSans-82"/>
   </g>
  </g>
 </g>
 <defs>
  <clipPath id="p7431fc7052">
   <rect height="166.32" width="1071.36" x="172.8" y="93.312"/>
  </clipPath>
  <clipPath id="p7935abe00d">
   <rect height="166.32" width="1071.36" x="172.8" y="309.528"/>
  </clipPath>
  <clipPath id="p526fdc008f">
   <rect height="166.32" width="1071.36" x="172.8" y="525.744"/>
  </clipPath>
 </defs>
</svg>
