<?xml version="1.0" encoding="utf-8" standalone="no"?>
<!DOCTYPE svg PUBLIC "-//W3C//DTD SVG 1.1//EN"
  "http://www.w3.org/Graphics/SVG/1.1/DTD/svg11.dtd">
<!-- Created with matplotlib (https://matplotlib.org/) -->
<svg height="777.6pt" version="1.1" viewBox="0 0 1382.4 777.6" width="1382.4pt" xmlns="http://www.w3.org/2000/svg" xmlns:xlink="http://www.w3.org/1999/xlink">
 <defs>
  <style type="text/css">
*{stroke-linecap:butt;stroke-linejoin:round;white-space:pre;}
  </style>
 </defs>
 <g id="figure_1">
  <g id="patch_1">
   <path d="M 0 777.6 
L 1382.4 777.6 
L 1382.4 0 
L 0 0 
z
" style="fill:#ffffff;"/>
  </g>
  <g id="axes_1">
   <g id="patch_2">
    <path d="M 172.8 215.506286 
L 1244.16 215.506286 
L 1244.16 93.312 
L 172.8 93.312 
z
" style="fill:#ffffff;"/>
   </g>
   <g id="matplotlib.axis_1">
    <g id="xtick_1">
     <g id="line2d_1">
      <path clip-path="url(#p8925e65d41)" d="M 221.498182 215.506286 
L 221.498182 93.312 
" style="fill:none;stroke:#808080;stroke-linecap:square;stroke-width:0.8;"/>
     </g>
     <g id="line2d_2">
      <defs>
       <path d="M 0 0 
L 0 3.5 
" id="m03c2bd3349" style="stroke:#000000;stroke-width:0.8;"/>
      </defs>
      <g>
       <use style="stroke:#000000;stroke-width:0.8;" x="221.498182" xlink:href="#m03c2bd3349" y="215.506286"/>
      </g>
     </g>
    </g>
    <g id="xtick_2">
     <g id="line2d_3">
      <path clip-path="url(#p8925e65d41)" d="M 343.548763 215.506286 
L 343.548763 93.312 
" style="fill:none;stroke:#808080;stroke-linecap:square;stroke-width:0.8;"/>
     </g>
     <g id="line2d_4">
      <g>
       <use style="stroke:#000000;stroke-width:0.8;" x="343.548763" xlink:href="#m03c2bd3349" y="215.506286"/>
      </g>
     </g>
    </g>
    <g id="xtick_3">
     <g id="line2d_5">
      <path clip-path="url(#p8925e65d41)" d="M 465.599344 215.506286 
L 465.599344 93.312 
" style="fill:none;stroke:#808080;stroke-linecap:square;stroke-width:0.8;"/>
     </g>
     <g id="line2d_6">
      <g>
       <use style="stroke:#000000;stroke-width:0.8;" x="465.599344" xlink:href="#m03c2bd3349" y="215.506286"/>
      </g>
     </g>
    </g>
    <g id="xtick_4">
     <g id="line2d_7">
      <path clip-path="url(#p8925e65d41)" d="M 587.649925 215.506286 
L 587.649925 93.312 
" style="fill:none;stroke:#808080;stroke-linecap:square;stroke-width:0.8;"/>
     </g>
     <g id="line2d_8">
      <g>
       <use style="stroke:#000000;stroke-width:0.8;" x="587.649925" xlink:href="#m03c2bd3349" y="215.506286"/>
      </g>
     </g>
    </g>
    <g id="xtick_5">
     <g id="line2d_9">
      <path clip-path="url(#p8925e65d41)" d="M 709.700506 215.506286 
L 709.700506 93.312 
" style="fill:none;stroke:#808080;stroke-linecap:square;stroke-width:0.8;"/>
     </g>
     <g id="line2d_10">
      <g>
       <use style="stroke:#000000;stroke-width:0.8;" x="709.700506" xlink:href="#m03c2bd3349" y="215.506286"/>
      </g>
     </g>
    </g>
    <g id="xtick_6">
     <g id="line2d_11">
      <path clip-path="url(#p8925e65d41)" d="M 831.751087 215.506286 
L 831.751087 93.312 
" style="fill:none;stroke:#808080;stroke-linecap:square;stroke-width:0.8;"/>
     </g>
     <g id="line2d_12">
      <g>
       <use style="stroke:#000000;stroke-width:0.8;" x="831.751087" xlink:href="#m03c2bd3349" y="215.506286"/>
      </g>
     </g>
    </g>
    <g id="xtick_7">
     <g id="line2d_13">
      <path clip-path="url(#p8925e65d41)" d="M 953.801668 215.506286 
L 953.801668 93.312 
" style="fill:none;stroke:#808080;stroke-linecap:square;stroke-width:0.8;"/>
     </g>
     <g id="line2d_14">
      <g>
       <use style="stroke:#000000;stroke-width:0.8;" x="953.801668" xlink:href="#m03c2bd3349" y="215.506286"/>
      </g>
     </g>
    </g>
    <g id="xtick_8">
     <g id="line2d_15">
      <path clip-path="url(#p8925e65d41)" d="M 1075.852249 215.506286 
L 1075.852249 93.312 
" style="fill:none;stroke:#808080;stroke-linecap:square;stroke-width:0.8;"/>
     </g>
     <g id="line2d_16">
      <g>
       <use style="stroke:#000000;stroke-width:0.8;" x="1075.852249" xlink:href="#m03c2bd3349" y="215.506286"/>
      </g>
     </g>
    </g>
    <g id="xtick_9">
     <g id="line2d_17">
      <path clip-path="url(#p8925e65d41)" d="M 1197.90283 215.506286 
L 1197.90283 93.312 
" style="fill:none;stroke:#808080;stroke-linecap:square;stroke-width:0.8;"/>
     </g>
     <g id="line2d_18">
      <g>
       <use style="stroke:#000000;stroke-width:0.8;" x="1197.90283" xlink:href="#m03c2bd3349" y="215.506286"/>
      </g>
     </g>
    </g>
   </g>
   <g id="matplotlib.axis_2">
    <g id="ytick_1">
     <g id="line2d_19">
      <path clip-path="url(#p8925e65d41)" d="M 172.8 205.323429 
L 1244.16 205.323429 
" style="fill:none;stroke:#808080;stroke-linecap:square;stroke-width:0.8;"/>
     </g>
     <g id="line2d_20">
      <defs>
       <path d="M 0 0 
L -3.5 0 
" id="m9b8d455c4a" style="stroke:#000000;stroke-width:0.8;"/>
      </defs>
      <g>
       <use style="stroke:#000000;stroke-width:0.8;" x="172.8" xlink:href="#m9b8d455c4a" y="205.323429"/>
      </g>
     </g>
     <g id="text_1">
      <!-- 0 -->
      <defs>
       <path d="M 31.78125 66.40625 
Q 24.171875 66.40625 20.328125 58.90625 
Q 16.5 51.421875 16.5 36.375 
Q 16.5 21.390625 20.328125 13.890625 
Q 24.171875 6.390625 31.78125 6.390625 
Q 39.453125 6.390625 43.28125 13.890625 
Q 47.125 21.390625 47.125 36.375 
Q 47.125 51.421875 43.28125 58.90625 
Q 39.453125 66.40625 31.78125 66.40625 
z
M 31.78125 74.21875 
Q 44.046875 74.21875 50.515625 64.515625 
Q 56.984375 54.828125 56.984375 36.375 
Q 56.984375 17.96875 50.515625 8.265625 
Q 44.046875 -1.421875 31.78125 -1.421875 
Q 19.53125 -1.421875 13.0625 8.265625 
Q 6.59375 17.96875 6.59375 36.375 
Q 6.59375 54.828125 13.0625 64.515625 
Q 19.53125 74.21875 31.78125 74.21875 
z
" id="DejaVuSans-48"/>
      </defs>
      <g transform="translate(159.4375 209.122647)scale(0.1 -0.1)">
       <use xlink:href="#DejaVuSans-48"/>
      </g>
     </g>
    </g>
    <g id="ytick_2">
     <g id="line2d_21">
      <path clip-path="url(#p8925e65d41)" d="M 172.8 184.957714 
L 1244.16 184.957714 
" style="fill:none;stroke:#808080;stroke-linecap:square;stroke-width:0.8;"/>
     </g>
     <g id="line2d_22">
      <g>
       <use style="stroke:#000000;stroke-width:0.8;" x="172.8" xlink:href="#m9b8d455c4a" y="184.957714"/>
      </g>
     </g>
     <g id="text_2">
      <!-- 1 -->
      <defs>
       <path d="M 12.40625 8.296875 
L 28.515625 8.296875 
L 28.515625 63.921875 
L 10.984375 60.40625 
L 10.984375 69.390625 
L 28.421875 72.90625 
L 38.28125 72.90625 
L 38.28125 8.296875 
L 54.390625 8.296875 
L 54.390625 0 
L 12.40625 0 
z
" id="DejaVuSans-49"/>
      </defs>
      <g transform="translate(159.4375 188.756933)scale(0.1 -0.1)">
       <use xlink:href="#DejaVuSans-49"/>
      </g>
     </g>
    </g>
    <g id="ytick_3">
     <g id="line2d_23">
      <path clip-path="url(#p8925e65d41)" d="M 172.8 164.592 
L 1244.16 164.592 
" style="fill:none;stroke:#808080;stroke-linecap:square;stroke-width:0.8;"/>
     </g>
     <g id="line2d_24">
      <g>
       <use style="stroke:#000000;stroke-width:0.8;" x="172.8" xlink:href="#m9b8d455c4a" y="164.592"/>
      </g>
     </g>
     <g id="text_3">
      <!-- 2 -->
      <defs>
       <path d="M 19.1875 8.296875 
L 53.609375 8.296875 
L 53.609375 0 
L 7.328125 0 
L 7.328125 8.296875 
Q 12.9375 14.109375 22.625 23.890625 
Q 32.328125 33.6875 34.8125 36.53125 
Q 39.546875 41.84375 41.421875 45.53125 
Q 43.3125 49.21875 43.3125 52.78125 
Q 43.3125 58.59375 39.234375 62.25 
Q 35.15625 65.921875 28.609375 65.921875 
Q 23.96875 65.921875 18.8125 64.3125 
Q 13.671875 62.703125 7.8125 59.421875 
L 7.8125 69.390625 
Q 13.765625 71.78125 18.9375 73 
Q 24.125 74.21875 28.421875 74.21875 
Q 39.75 74.21875 46.484375 68.546875 
Q 53.21875 62.890625 53.21875 53.421875 
Q 53.21875 48.921875 51.53125 44.890625 
Q 49.859375 40.875 45.40625 35.40625 
Q 44.1875 33.984375 37.640625 27.21875 
Q 31.109375 20.453125 19.1875 8.296875 
z
" id="DejaVuSans-50"/>
      </defs>
      <g transform="translate(159.4375 168.391219)scale(0.1 -0.1)">
       <use xlink:href="#DejaVuSans-50"/>
      </g>
     </g>
    </g>
    <g id="ytick_4">
     <g id="line2d_25">
      <path clip-path="url(#p8925e65d41)" d="M 172.8 144.226286 
L 1244.16 144.226286 
" style="fill:none;stroke:#808080;stroke-linecap:square;stroke-width:0.8;"/>
     </g>
     <g id="line2d_26">
      <g>
       <use style="stroke:#000000;stroke-width:0.8;" x="172.8" xlink:href="#m9b8d455c4a" y="144.226286"/>
      </g>
     </g>
     <g id="text_4">
      <!-- 3 -->
      <defs>
       <path d="M 40.578125 39.3125 
Q 47.65625 37.796875 51.625 33 
Q 55.609375 28.21875 55.609375 21.1875 
Q 55.609375 10.40625 48.1875 4.484375 
Q 40.765625 -1.421875 27.09375 -1.421875 
Q 22.515625 -1.421875 17.65625 -0.515625 
Q 12.796875 0.390625 7.625 2.203125 
L 7.625 11.71875 
Q 11.71875 9.328125 16.59375 8.109375 
Q 21.484375 6.890625 26.8125 6.890625 
Q 36.078125 6.890625 40.9375 10.546875 
Q 45.796875 14.203125 45.796875 21.1875 
Q 45.796875 27.640625 41.28125 31.265625 
Q 36.765625 34.90625 28.71875 34.90625 
L 20.21875 34.90625 
L 20.21875 43.015625 
L 29.109375 43.015625 
Q 36.375 43.015625 40.234375 45.921875 
Q 44.09375 48.828125 44.09375 54.296875 
Q 44.09375 59.90625 40.109375 62.90625 
Q 36.140625 65.921875 28.71875 65.921875 
Q 24.65625 65.921875 20.015625 65.03125 
Q 15.375 64.15625 9.8125 62.3125 
L 9.8125 71.09375 
Q 15.4375 72.65625 20.34375 73.4375 
Q 25.25 74.21875 29.59375 74.21875 
Q 40.828125 74.21875 47.359375 69.109375 
Q 53.90625 64.015625 53.90625 55.328125 
Q 53.90625 49.265625 50.4375 45.09375 
Q 46.96875 40.921875 40.578125 39.3125 
z
" id="DejaVuSans-51"/>
      </defs>
      <g transform="translate(159.4375 148.025504)scale(0.1 -0.1)">
       <use xlink:href="#DejaVuSans-51"/>
      </g>
     </g>
    </g>
    <g id="ytick_5">
     <g id="line2d_27">
      <path clip-path="url(#p8925e65d41)" d="M 172.8 123.860571 
L 1244.16 123.860571 
" style="fill:none;stroke:#808080;stroke-linecap:square;stroke-width:0.8;"/>
     </g>
     <g id="line2d_28">
      <g>
       <use style="stroke:#000000;stroke-width:0.8;" x="172.8" xlink:href="#m9b8d455c4a" y="123.860571"/>
      </g>
     </g>
     <g id="text_5">
      <!-- 4 -->
      <defs>
       <path d="M 37.796875 64.3125 
L 12.890625 25.390625 
L 37.796875 25.390625 
z
M 35.203125 72.90625 
L 47.609375 72.90625 
L 47.609375 25.390625 
L 58.015625 25.390625 
L 58.015625 17.1875 
L 47.609375 17.1875 
L 47.609375 0 
L 37.796875 0 
L 37.796875 17.1875 
L 4.890625 17.1875 
L 4.890625 26.703125 
z
" id="DejaVuSans-52"/>
      </defs>
      <g transform="translate(159.4375 127.65979)scale(0.1 -0.1)">
       <use xlink:href="#DejaVuSans-52"/>
      </g>
     </g>
    </g>
    <g id="ytick_6">
     <g id="line2d_29">
      <path clip-path="url(#p8925e65d41)" d="M 172.8 103.494857 
L 1244.16 103.494857 
" style="fill:none;stroke:#808080;stroke-linecap:square;stroke-width:0.8;"/>
     </g>
     <g id="line2d_30">
      <g>
       <use style="stroke:#000000;stroke-width:0.8;" x="172.8" xlink:href="#m9b8d455c4a" y="103.494857"/>
      </g>
     </g>
     <g id="text_6">
      <!-- 5 -->
      <defs>
       <path d="M 10.796875 72.90625 
L 49.515625 72.90625 
L 49.515625 64.59375 
L 19.828125 64.59375 
L 19.828125 46.734375 
Q 21.96875 47.46875 24.109375 47.828125 
Q 26.265625 48.1875 28.421875 48.1875 
Q 40.625 48.1875 47.75 41.5 
Q 54.890625 34.8125 54.890625 23.390625 
Q 54.890625 11.625 47.5625 5.09375 
Q 40.234375 -1.421875 26.90625 -1.421875 
Q 22.3125 -1.421875 17.546875 -0.640625 
Q 12.796875 0.140625 7.71875 1.703125 
L 7.71875 11.625 
Q 12.109375 9.234375 16.796875 8.0625 
Q 21.484375 6.890625 26.703125 6.890625 
Q 35.15625 6.890625 40.078125 11.328125 
Q 45.015625 15.765625 45.015625 23.390625 
Q 45.015625 31 40.078125 35.4375 
Q 35.15625 39.890625 26.703125 39.890625 
Q 22.75 39.890625 18.8125 39.015625 
Q 14.890625 38.140625 10.796875 36.28125 
z
" id="DejaVuSans-53"/>
      </defs>
      <g transform="translate(159.4375 107.294076)scale(0.1 -0.1)">
       <use xlink:href="#DejaVuSans-53"/>
      </g>
     </g>
    </g>
    <g id="text_7">
     <!-- Voltagem (V) -->
     <defs>
      <path d="M 28.609375 0 
L 0.78125 72.90625 
L 11.078125 72.90625 
L 34.1875 11.53125 
L 57.328125 72.90625 
L 67.578125 72.90625 
L 39.796875 0 
z
" id="DejaVuSans-86"/>
      <path d="M 30.609375 48.390625 
Q 23.390625 48.390625 19.1875 42.75 
Q 14.984375 37.109375 14.984375 27.296875 
Q 14.984375 17.484375 19.15625 11.84375 
Q 23.34375 6.203125 30.609375 6.203125 
Q 37.796875 6.203125 41.984375 11.859375 
Q 46.1875 17.53125 46.1875 27.296875 
Q 46.1875 37.015625 41.984375 42.703125 
Q 37.796875 48.390625 30.609375 48.390625 
z
M 30.609375 56 
Q 42.328125 56 49.015625 48.375 
Q 55.71875 40.765625 55.71875 27.296875 
Q 55.71875 13.875 49.015625 6.21875 
Q 42.328125 -1.421875 30.609375 -1.421875 
Q 18.84375 -1.421875 12.171875 6.21875 
Q 5.515625 13.875 5.515625 27.296875 
Q 5.515625 40.765625 12.171875 48.375 
Q 18.84375 56 30.609375 56 
z
" id="DejaVuSans-111"/>
      <path d="M 9.421875 75.984375 
L 18.40625 75.984375 
L 18.40625 0 
L 9.421875 0 
z
" id="DejaVuSans-108"/>
      <path d="M 18.3125 70.21875 
L 18.3125 54.6875 
L 36.8125 54.6875 
L 36.8125 47.703125 
L 18.3125 47.703125 
L 18.3125 18.015625 
Q 18.3125 11.328125 20.140625 9.421875 
Q 21.96875 7.515625 27.59375 7.515625 
L 36.8125 7.515625 
L 36.8125 0 
L 27.59375 0 
Q 17.1875 0 13.234375 3.875 
Q 9.28125 7.765625 9.28125 18.015625 
L 9.28125 47.703125 
L 2.6875 47.703125 
L 2.6875 54.6875 
L 9.28125 54.6875 
L 9.28125 70.21875 
z
" id="DejaVuSans-116"/>
      <path d="M 34.28125 27.484375 
Q 23.390625 27.484375 19.1875 25 
Q 14.984375 22.515625 14.984375 16.5 
Q 14.984375 11.71875 18.140625 8.90625 
Q 21.296875 6.109375 26.703125 6.109375 
Q 34.1875 6.109375 38.703125 11.40625 
Q 43.21875 16.703125 43.21875 25.484375 
L 43.21875 27.484375 
z
M 52.203125 31.203125 
L 52.203125 0 
L 43.21875 0 
L 43.21875 8.296875 
Q 40.140625 3.328125 35.546875 0.953125 
Q 30.953125 -1.421875 24.3125 -1.421875 
Q 15.921875 -1.421875 10.953125 3.296875 
Q 6 8.015625 6 15.921875 
Q 6 25.140625 12.171875 29.828125 
Q 18.359375 34.515625 30.609375 34.515625 
L 43.21875 34.515625 
L 43.21875 35.40625 
Q 43.21875 41.609375 39.140625 45 
Q 35.0625 48.390625 27.6875 48.390625 
Q 23 48.390625 18.546875 47.265625 
Q 14.109375 46.140625 10.015625 43.890625 
L 10.015625 52.203125 
Q 14.9375 54.109375 19.578125 55.046875 
Q 24.21875 56 28.609375 56 
Q 40.484375 56 46.34375 49.84375 
Q 52.203125 43.703125 52.203125 31.203125 
z
" id="DejaVuSans-97"/>
      <path d="M 45.40625 27.984375 
Q 45.40625 37.75 41.375 43.109375 
Q 37.359375 48.484375 30.078125 48.484375 
Q 22.859375 48.484375 18.828125 43.109375 
Q 14.796875 37.75 14.796875 27.984375 
Q 14.796875 18.265625 18.828125 12.890625 
Q 22.859375 7.515625 30.078125 7.515625 
Q 37.359375 7.515625 41.375 12.890625 
Q 45.40625 18.265625 45.40625 27.984375 
z
M 54.390625 6.78125 
Q 54.390625 -7.171875 48.1875 -13.984375 
Q 42 -20.796875 29.203125 -20.796875 
Q 24.46875 -20.796875 20.265625 -20.09375 
Q 16.0625 -19.390625 12.109375 -17.921875 
L 12.109375 -9.1875 
Q 16.0625 -11.328125 19.921875 -12.34375 
Q 23.78125 -13.375 27.78125 -13.375 
Q 36.625 -13.375 41.015625 -8.765625 
Q 45.40625 -4.15625 45.40625 5.171875 
L 45.40625 9.625 
Q 42.625 4.78125 38.28125 2.390625 
Q 33.9375 0 27.875 0 
Q 17.828125 0 11.671875 7.65625 
Q 5.515625 15.328125 5.515625 27.984375 
Q 5.515625 40.671875 11.671875 48.328125 
Q 17.828125 56 27.875 56 
Q 33.9375 56 38.28125 53.609375 
Q 42.625 51.21875 45.40625 46.390625 
L 45.40625 54.6875 
L 54.390625 54.6875 
z
" id="DejaVuSans-103"/>
      <path d="M 56.203125 29.59375 
L 56.203125 25.203125 
L 14.890625 25.203125 
Q 15.484375 15.921875 20.484375 11.0625 
Q 25.484375 6.203125 34.421875 6.203125 
Q 39.59375 6.203125 44.453125 7.46875 
Q 49.3125 8.734375 54.109375 11.28125 
L 54.109375 2.78125 
Q 49.265625 0.734375 44.1875 -0.34375 
Q 39.109375 -1.421875 33.890625 -1.421875 
Q 20.796875 -1.421875 13.15625 6.1875 
Q 5.515625 13.8125 5.515625 26.8125 
Q 5.515625 40.234375 12.765625 48.109375 
Q 20.015625 56 32.328125 56 
Q 43.359375 56 49.78125 48.890625 
Q 56.203125 41.796875 56.203125 29.59375 
z
M 47.21875 32.234375 
Q 47.125 39.59375 43.09375 43.984375 
Q 39.0625 48.390625 32.421875 48.390625 
Q 24.90625 48.390625 20.390625 44.140625 
Q 15.875 39.890625 15.1875 32.171875 
z
" id="DejaVuSans-101"/>
      <path d="M 52 44.1875 
Q 55.375 50.25 60.0625 53.125 
Q 64.75 56 71.09375 56 
Q 79.640625 56 84.28125 50.015625 
Q 88.921875 44.046875 88.921875 33.015625 
L 88.921875 0 
L 79.890625 0 
L 79.890625 32.71875 
Q 79.890625 40.578125 77.09375 44.375 
Q 74.3125 48.1875 68.609375 48.1875 
Q 61.625 48.1875 57.5625 43.546875 
Q 53.515625 38.921875 53.515625 30.90625 
L 53.515625 0 
L 44.484375 0 
L 44.484375 32.71875 
Q 44.484375 40.625 41.703125 44.40625 
Q 38.921875 48.1875 33.109375 48.1875 
Q 26.21875 48.1875 22.15625 43.53125 
Q 18.109375 38.875 18.109375 30.90625 
L 18.109375 0 
L 9.078125 0 
L 9.078125 54.6875 
L 18.109375 54.6875 
L 18.109375 46.1875 
Q 21.1875 51.21875 25.484375 53.609375 
Q 29.78125 56 35.6875 56 
Q 41.65625 56 45.828125 52.96875 
Q 50 49.953125 52 44.1875 
z
" id="DejaVuSans-109"/>
      <path id="DejaVuSans-32"/>
      <path d="M 31 75.875 
Q 24.46875 64.65625 21.28125 53.65625 
Q 18.109375 42.671875 18.109375 31.390625 
Q 18.109375 20.125 21.3125 9.0625 
Q 24.515625 -2 31 -13.1875 
L 23.1875 -13.1875 
Q 15.875 -1.703125 12.234375 9.375 
Q 8.59375 20.453125 8.59375 31.390625 
Q 8.59375 42.28125 12.203125 53.3125 
Q 15.828125 64.359375 23.1875 75.875 
z
" id="DejaVuSans-40"/>
      <path d="M 8.015625 75.875 
L 15.828125 75.875 
Q 23.140625 64.359375 26.78125 53.3125 
Q 30.421875 42.28125 30.421875 31.390625 
Q 30.421875 20.453125 26.78125 9.375 
Q 23.140625 -1.703125 15.828125 -13.1875 
L 8.015625 -13.1875 
Q 14.5 -2 17.703125 9.0625 
Q 20.90625 20.125 20.90625 31.390625 
Q 20.90625 42.671875 17.703125 53.65625 
Q 14.5 64.65625 8.015625 75.875 
z
" id="DejaVuSans-41"/>
     </defs>
     <g transform="translate(152.11 207.080393)rotate(-90)scale(0.16 -0.16)">
      <use xlink:href="#DejaVuSans-86"/>
      <use x="68.298828" xlink:href="#DejaVuSans-111"/>
      <use x="129.480469" xlink:href="#DejaVuSans-108"/>
      <use x="157.263672" xlink:href="#DejaVuSans-116"/>
      <use x="196.472656" xlink:href="#DejaVuSans-97"/>
      <use x="257.751953" xlink:href="#DejaVuSans-103"/>
      <use x="321.228516" xlink:href="#DejaVuSans-101"/>
      <use x="382.751953" xlink:href="#DejaVuSans-109"/>
      <use x="480.164062" xlink:href="#DejaVuSans-32"/>
      <use x="511.951172" xlink:href="#DejaVuSans-40"/>
      <use x="550.964844" xlink:href="#DejaVuSans-86"/>
      <use x="619.373047" xlink:href="#DejaVuSans-41"/>
     </g>
    </g>
   </g>
   <g id="line2d_31">
    <path clip-path="url(#p8925e65d41)" d="M 221.498182 205.323429 
L 341.107751 205.323429 
L 343.548763 123.860571 
L 463.158332 123.860571 
L 465.599344 205.323429 
L 585.208913 205.323429 
L 587.649925 103.494857 
L 707.259494 103.494857 
L 709.700506 184.957714 
L 829.310075 184.957714 
L 831.751087 164.592 
L 951.360656 164.592 
L 953.801668 205.323429 
L 1073.411237 205.323429 
L 1075.852249 144.226286 
L 1195.461818 144.226286 
L 1195.461818 144.226286 
" style="fill:none;stroke:#0000ff;stroke-linecap:square;stroke-width:4;"/>
   </g>
   <g id="patch_3">
    <path d="M 172.8 215.506286 
L 172.8 93.312 
" style="fill:none;stroke:#000000;stroke-linecap:square;stroke-linejoin:miter;stroke-width:0.8;"/>
   </g>
   <g id="patch_4">
    <path d="M 1244.16 215.506286 
L 1244.16 93.312 
" style="fill:none;stroke:#000000;stroke-linecap:square;stroke-linejoin:miter;stroke-width:0.8;"/>
   </g>
   <g id="patch_5">
    <path d="M 172.8 215.506286 
L 1244.16 215.506286 
" style="fill:none;stroke:#000000;stroke-linecap:square;stroke-linejoin:miter;stroke-width:0.8;"/>
   </g>
   <g id="patch_6">
    <path d="M 172.8 93.312 
L 1244.16 93.312 
" style="fill:none;stroke:#000000;stroke-linecap:square;stroke-linejoin:miter;stroke-width:0.8;"/>
   </g>
   <g id="text_8">
    <!-- Referencia - yr(k) -->
    <defs>
     <path d="M 44.390625 34.1875 
Q 47.5625 33.109375 50.5625 29.59375 
Q 53.5625 26.078125 56.59375 19.921875 
L 66.609375 0 
L 56 0 
L 46.6875 18.703125 
Q 43.0625 26.03125 39.671875 28.421875 
Q 36.28125 30.8125 30.421875 30.8125 
L 19.671875 30.8125 
L 19.671875 0 
L 9.8125 0 
L 9.8125 72.90625 
L 32.078125 72.90625 
Q 44.578125 72.90625 50.734375 67.671875 
Q 56.890625 62.453125 56.890625 51.90625 
Q 56.890625 45.015625 53.6875 40.46875 
Q 50.484375 35.9375 44.390625 34.1875 
z
M 19.671875 64.796875 
L 19.671875 38.921875 
L 32.078125 38.921875 
Q 39.203125 38.921875 42.84375 42.21875 
Q 46.484375 45.515625 46.484375 51.90625 
Q 46.484375 58.296875 42.84375 61.546875 
Q 39.203125 64.796875 32.078125 64.796875 
z
" id="DejaVuSans-82"/>
     <path d="M 37.109375 75.984375 
L 37.109375 68.5 
L 28.515625 68.5 
Q 23.6875 68.5 21.796875 66.546875 
Q 19.921875 64.59375 19.921875 59.515625 
L 19.921875 54.6875 
L 34.71875 54.6875 
L 34.71875 47.703125 
L 19.921875 47.703125 
L 19.921875 0 
L 10.890625 0 
L 10.890625 47.703125 
L 2.296875 47.703125 
L 2.296875 54.6875 
L 10.890625 54.6875 
L 10.890625 58.5 
Q 10.890625 67.625 15.140625 71.796875 
Q 19.390625 75.984375 28.609375 75.984375 
z
" id="DejaVuSans-102"/>
     <path d="M 41.109375 46.296875 
Q 39.59375 47.171875 37.8125 47.578125 
Q 36.03125 48 33.890625 48 
Q 26.265625 48 22.1875 43.046875 
Q 18.109375 38.09375 18.109375 28.8125 
L 18.109375 0 
L 9.078125 0 
L 9.078125 54.6875 
L 18.109375 54.6875 
L 18.109375 46.1875 
Q 20.953125 51.171875 25.484375 53.578125 
Q 30.03125 56 36.53125 56 
Q 37.453125 56 38.578125 55.875 
Q 39.703125 55.765625 41.0625 55.515625 
z
" id="DejaVuSans-114"/>
     <path d="M 54.890625 33.015625 
L 54.890625 0 
L 45.90625 0 
L 45.90625 32.71875 
Q 45.90625 40.484375 42.875 44.328125 
Q 39.84375 48.1875 33.796875 48.1875 
Q 26.515625 48.1875 22.3125 43.546875 
Q 18.109375 38.921875 18.109375 30.90625 
L 18.109375 0 
L 9.078125 0 
L 9.078125 54.6875 
L 18.109375 54.6875 
L 18.109375 46.1875 
Q 21.34375 51.125 25.703125 53.5625 
Q 30.078125 56 35.796875 56 
Q 45.21875 56 50.046875 50.171875 
Q 54.890625 44.34375 54.890625 33.015625 
z
" id="DejaVuSans-110"/>
     <path d="M 48.78125 52.59375 
L 48.78125 44.1875 
Q 44.96875 46.296875 41.140625 47.34375 
Q 37.3125 48.390625 33.40625 48.390625 
Q 24.65625 48.390625 19.8125 42.84375 
Q 14.984375 37.3125 14.984375 27.296875 
Q 14.984375 17.28125 19.8125 11.734375 
Q 24.65625 6.203125 33.40625 6.203125 
Q 37.3125 6.203125 41.140625 7.25 
Q 44.96875 8.296875 48.78125 10.40625 
L 48.78125 2.09375 
Q 45.015625 0.34375 40.984375 -0.53125 
Q 36.96875 -1.421875 32.421875 -1.421875 
Q 20.0625 -1.421875 12.78125 6.34375 
Q 5.515625 14.109375 5.515625 27.296875 
Q 5.515625 40.671875 12.859375 48.328125 
Q 20.21875 56 33.015625 56 
Q 37.15625 56 41.109375 55.140625 
Q 45.0625 54.296875 48.78125 52.59375 
z
" id="DejaVuSans-99"/>
     <path d="M 9.421875 54.6875 
L 18.40625 54.6875 
L 18.40625 0 
L 9.421875 0 
z
M 9.421875 75.984375 
L 18.40625 75.984375 
L 18.40625 64.59375 
L 9.421875 64.59375 
z
" id="DejaVuSans-105"/>
     <path d="M 4.890625 31.390625 
L 31.203125 31.390625 
L 31.203125 23.390625 
L 4.890625 23.390625 
z
" id="DejaVuSans-45"/>
     <path d="M 32.171875 -5.078125 
Q 28.375 -14.84375 24.75 -17.8125 
Q 21.140625 -20.796875 15.09375 -20.796875 
L 7.90625 -20.796875 
L 7.90625 -13.28125 
L 13.1875 -13.28125 
Q 16.890625 -13.28125 18.9375 -11.515625 
Q 21 -9.765625 23.484375 -3.21875 
L 25.09375 0.875 
L 2.984375 54.6875 
L 12.5 54.6875 
L 29.59375 11.921875 
L 46.6875 54.6875 
L 56.203125 54.6875 
z
" id="DejaVuSans-121"/>
     <path d="M 9.078125 75.984375 
L 18.109375 75.984375 
L 18.109375 31.109375 
L 44.921875 54.6875 
L 56.390625 54.6875 
L 27.390625 29.109375 
L 57.625 0 
L 45.90625 0 
L 18.109375 26.703125 
L 18.109375 0 
L 9.078125 0 
z
" id="DejaVuSans-107"/>
    </defs>
    <g transform="translate(616.752656 87.312)scale(0.21 -0.21)">
     <use xlink:href="#DejaVuSans-82"/>
     <use x="69.419922" xlink:href="#DejaVuSans-101"/>
     <use x="130.943359" xlink:href="#DejaVuSans-102"/>
     <use x="166.148438" xlink:href="#DejaVuSans-101"/>
     <use x="227.671875" xlink:href="#DejaVuSans-114"/>
     <use x="268.753906" xlink:href="#DejaVuSans-101"/>
     <use x="330.277344" xlink:href="#DejaVuSans-110"/>
     <use x="393.65625" xlink:href="#DejaVuSans-99"/>
     <use x="448.636719" xlink:href="#DejaVuSans-105"/>
     <use x="476.419922" xlink:href="#DejaVuSans-97"/>
     <use x="537.699219" xlink:href="#DejaVuSans-32"/>
     <use x="569.486328" xlink:href="#DejaVuSans-45"/>
     <use x="605.570312" xlink:href="#DejaVuSans-32"/>
     <use x="637.357422" xlink:href="#DejaVuSans-121"/>
     <use x="696.537109" xlink:href="#DejaVuSans-114"/>
     <use x="737.650391" xlink:href="#DejaVuSans-40"/>
     <use x="776.664062" xlink:href="#DejaVuSans-107"/>
     <use x="834.574219" xlink:href="#DejaVuSans-41"/>
    </g>
   </g>
  </g>
  <g id="axes_2">
   <g id="patch_7">
    <path d="M 172.8 374.358857 
L 1244.16 374.358857 
L 1244.16 252.164571 
L 172.8 252.164571 
z
" style="fill:#ffffff;"/>
   </g>
   <g id="matplotlib.axis_3">
    <g id="xtick_10">
     <g id="line2d_32">
      <path clip-path="url(#pdd0a4c00f6)" d="M 221.498182 374.358857 
L 221.498182 252.164571 
" style="fill:none;stroke:#808080;stroke-linecap:square;stroke-width:0.8;"/>
     </g>
     <g id="line2d_33">
      <g>
       <use style="stroke:#000000;stroke-width:0.8;" x="221.498182" xlink:href="#m03c2bd3349" y="374.358857"/>
      </g>
     </g>
    </g>
    <g id="xtick_11">
     <g id="line2d_34">
      <path clip-path="url(#pdd0a4c00f6)" d="M 343.548763 374.358857 
L 343.548763 252.164571 
" style="fill:none;stroke:#808080;stroke-linecap:square;stroke-width:0.8;"/>
     </g>
     <g id="line2d_35">
      <g>
       <use style="stroke:#000000;stroke-width:0.8;" x="343.548763" xlink:href="#m03c2bd3349" y="374.358857"/>
      </g>
     </g>
    </g>
    <g id="xtick_12">
     <g id="line2d_36">
      <path clip-path="url(#pdd0a4c00f6)" d="M 465.599344 374.358857 
L 465.599344 252.164571 
" style="fill:none;stroke:#808080;stroke-linecap:square;stroke-width:0.8;"/>
     </g>
     <g id="line2d_37">
      <g>
       <use style="stroke:#000000;stroke-width:0.8;" x="465.599344" xlink:href="#m03c2bd3349" y="374.358857"/>
      </g>
     </g>
    </g>
    <g id="xtick_13">
     <g id="line2d_38">
      <path clip-path="url(#pdd0a4c00f6)" d="M 587.649925 374.358857 
L 587.649925 252.164571 
" style="fill:none;stroke:#808080;stroke-linecap:square;stroke-width:0.8;"/>
     </g>
     <g id="line2d_39">
      <g>
       <use style="stroke:#000000;stroke-width:0.8;" x="587.649925" xlink:href="#m03c2bd3349" y="374.358857"/>
      </g>
     </g>
    </g>
    <g id="xtick_14">
     <g id="line2d_40">
      <path clip-path="url(#pdd0a4c00f6)" d="M 709.700506 374.358857 
L 709.700506 252.164571 
" style="fill:none;stroke:#808080;stroke-linecap:square;stroke-width:0.8;"/>
     </g>
     <g id="line2d_41">
      <g>
       <use style="stroke:#000000;stroke-width:0.8;" x="709.700506" xlink:href="#m03c2bd3349" y="374.358857"/>
      </g>
     </g>
    </g>
    <g id="xtick_15">
     <g id="line2d_42">
      <path clip-path="url(#pdd0a4c00f6)" d="M 831.751087 374.358857 
L 831.751087 252.164571 
" style="fill:none;stroke:#808080;stroke-linecap:square;stroke-width:0.8;"/>
     </g>
     <g id="line2d_43">
      <g>
       <use style="stroke:#000000;stroke-width:0.8;" x="831.751087" xlink:href="#m03c2bd3349" y="374.358857"/>
      </g>
     </g>
    </g>
    <g id="xtick_16">
     <g id="line2d_44">
      <path clip-path="url(#pdd0a4c00f6)" d="M 953.801668 374.358857 
L 953.801668 252.164571 
" style="fill:none;stroke:#808080;stroke-linecap:square;stroke-width:0.8;"/>
     </g>
     <g id="line2d_45">
      <g>
       <use style="stroke:#000000;stroke-width:0.8;" x="953.801668" xlink:href="#m03c2bd3349" y="374.358857"/>
      </g>
     </g>
    </g>
    <g id="xtick_17">
     <g id="line2d_46">
      <path clip-path="url(#pdd0a4c00f6)" d="M 1075.852249 374.358857 
L 1075.852249 252.164571 
" style="fill:none;stroke:#808080;stroke-linecap:square;stroke-width:0.8;"/>
     </g>
     <g id="line2d_47">
      <g>
       <use style="stroke:#000000;stroke-width:0.8;" x="1075.852249" xlink:href="#m03c2bd3349" y="374.358857"/>
      </g>
     </g>
    </g>
    <g id="xtick_18">
     <g id="line2d_48">
      <path clip-path="url(#pdd0a4c00f6)" d="M 1197.90283 374.358857 
L 1197.90283 252.164571 
" style="fill:none;stroke:#808080;stroke-linecap:square;stroke-width:0.8;"/>
     </g>
     <g id="line2d_49">
      <g>
       <use style="stroke:#000000;stroke-width:0.8;" x="1197.90283" xlink:href="#m03c2bd3349" y="374.358857"/>
      </g>
     </g>
    </g>
   </g>
   <g id="matplotlib.axis_4">
    <g id="ytick_7">
     <g id="line2d_50">
      <path clip-path="url(#pdd0a4c00f6)" d="M 172.8 364.176 
L 1244.16 364.176 
" style="fill:none;stroke:#808080;stroke-linecap:square;stroke-width:0.8;"/>
     </g>
     <g id="line2d_51">
      <g>
       <use style="stroke:#000000;stroke-width:0.8;" x="172.8" xlink:href="#m9b8d455c4a" y="364.176"/>
      </g>
     </g>
     <g id="text_9">
      <!-- 0 -->
      <g transform="translate(159.4375 367.975219)scale(0.1 -0.1)">
       <use xlink:href="#DejaVuSans-48"/>
      </g>
     </g>
    </g>
    <g id="ytick_8">
     <g id="line2d_52">
      <path clip-path="url(#pdd0a4c00f6)" d="M 172.8 343.810286 
L 1244.16 343.810286 
" style="fill:none;stroke:#808080;stroke-linecap:square;stroke-width:0.8;"/>
     </g>
     <g id="line2d_53">
      <g>
       <use style="stroke:#000000;stroke-width:0.8;" x="172.8" xlink:href="#m9b8d455c4a" y="343.810286"/>
      </g>
     </g>
     <g id="text_10">
      <!-- 1 -->
      <g transform="translate(159.4375 347.609504)scale(0.1 -0.1)">
       <use xlink:href="#DejaVuSans-49"/>
      </g>
     </g>
    </g>
    <g id="ytick_9">
     <g id="line2d_54">
      <path clip-path="url(#pdd0a4c00f6)" d="M 172.8 323.444571 
L 1244.16 323.444571 
" style="fill:none;stroke:#808080;stroke-linecap:square;stroke-width:0.8;"/>
     </g>
     <g id="line2d_55">
      <g>
       <use style="stroke:#000000;stroke-width:0.8;" x="172.8" xlink:href="#m9b8d455c4a" y="323.444571"/>
      </g>
     </g>
     <g id="text_11">
      <!-- 2 -->
      <g transform="translate(159.4375 327.24379)scale(0.1 -0.1)">
       <use xlink:href="#DejaVuSans-50"/>
      </g>
     </g>
    </g>
    <g id="ytick_10">
     <g id="line2d_56">
      <path clip-path="url(#pdd0a4c00f6)" d="M 172.8 303.078857 
L 1244.16 303.078857 
" style="fill:none;stroke:#808080;stroke-linecap:square;stroke-width:0.8;"/>
     </g>
     <g id="line2d_57">
      <g>
       <use style="stroke:#000000;stroke-width:0.8;" x="172.8" xlink:href="#m9b8d455c4a" y="303.078857"/>
      </g>
     </g>
     <g id="text_12">
      <!-- 3 -->
      <g transform="translate(159.4375 306.878076)scale(0.1 -0.1)">
       <use xlink:href="#DejaVuSans-51"/>
      </g>
     </g>
    </g>
    <g id="ytick_11">
     <g id="line2d_58">
      <path clip-path="url(#pdd0a4c00f6)" d="M 172.8 282.713143 
L 1244.16 282.713143 
" style="fill:none;stroke:#808080;stroke-linecap:square;stroke-width:0.8;"/>
     </g>
     <g id="line2d_59">
      <g>
       <use style="stroke:#000000;stroke-width:0.8;" x="172.8" xlink:href="#m9b8d455c4a" y="282.713143"/>
      </g>
     </g>
     <g id="text_13">
      <!-- 4 -->
      <g transform="translate(159.4375 286.512362)scale(0.1 -0.1)">
       <use xlink:href="#DejaVuSans-52"/>
      </g>
     </g>
    </g>
    <g id="ytick_12">
     <g id="line2d_60">
      <path clip-path="url(#pdd0a4c00f6)" d="M 172.8 262.347429 
L 1244.16 262.347429 
" style="fill:none;stroke:#808080;stroke-linecap:square;stroke-width:0.8;"/>
     </g>
     <g id="line2d_61">
      <g>
       <use style="stroke:#000000;stroke-width:0.8;" x="172.8" xlink:href="#m9b8d455c4a" y="262.347429"/>
      </g>
     </g>
     <g id="text_14">
      <!-- 5 -->
      <g transform="translate(159.4375 266.146647)scale(0.1 -0.1)">
       <use xlink:href="#DejaVuSans-53"/>
      </g>
     </g>
    </g>
    <g id="text_15">
     <!-- Voltagem (V) -->
     <g transform="translate(152.11 365.932964)rotate(-90)scale(0.16 -0.16)">
      <use xlink:href="#DejaVuSans-86"/>
      <use x="68.298828" xlink:href="#DejaVuSans-111"/>
      <use x="129.480469" xlink:href="#DejaVuSans-108"/>
      <use x="157.263672" xlink:href="#DejaVuSans-116"/>
      <use x="196.472656" xlink:href="#DejaVuSans-97"/>
      <use x="257.751953" xlink:href="#DejaVuSans-103"/>
      <use x="321.228516" xlink:href="#DejaVuSans-101"/>
      <use x="382.751953" xlink:href="#DejaVuSans-109"/>
      <use x="480.164062" xlink:href="#DejaVuSans-32"/>
      <use x="511.951172" xlink:href="#DejaVuSans-40"/>
      <use x="550.964844" xlink:href="#DejaVuSans-86"/>
      <use x="619.373047" xlink:href="#DejaVuSans-41"/>
     </g>
    </g>
   </g>
   <g id="line2d_62">
    <path clip-path="url(#pdd0a4c00f6)" d="M 221.498182 364.176 
L 341.107751 364.176 
L 343.548763 275.707337 
L 345.989774 278.372297 
L 348.430786 302.845156 
L 350.871798 302.095816 
L 353.312809 300.756433 
L 355.753821 300.295645 
L 358.194833 300.205689 
L 360.635844 299.206189 
L 363.076856 299.249708 
L 367.958879 298.939732 
L 370.399891 299.103059 
L 372.840902 298.760569 
L 375.281914 298.832803 
L 380.163937 298.747194 
L 387.486972 298.949068 
L 389.927984 299.207024 
L 392.368995 299.758557 
L 394.810007 298.952346 
L 397.251018 298.57243 
L 399.69203 299.433002 
L 402.133042 299.413252 
L 404.574053 298.759079 
L 409.456077 298.796932 
L 411.897088 299.408024 
L 414.3381 298.749593 
L 416.779111 298.612908 
L 419.220123 298.701208 
L 421.661135 299.433301 
L 424.102146 298.714413 
L 428.98417 298.861463 
L 431.425181 299.186657 
L 436.307204 299.266827 
L 438.748216 299.548861 
L 441.189228 298.822227 
L 443.630239 299.266158 
L 446.071251 299.227565 
L 448.512262 299.565806 
L 450.953274 299.158028 
L 453.394286 299.077377 
L 455.835297 299.326199 
L 458.276309 299.170488 
L 460.717321 298.710076 
L 463.158332 299.066681 
L 465.599344 364.176 
L 472.922379 364.176 
L 475.36339 361.847044 
L 477.804402 356.002772 
L 485.127437 358.299125 
L 490.00946 359.508365 
L 494.891483 360.46879 
L 499.773506 361.231595 
L 507.096541 362.091878 
L 514.419576 362.700808 
L 524.183623 363.245429 
L 536.388681 363.652851 
L 553.475762 363.942411 
L 577.885878 364.102175 
L 585.208913 364.123745 
L 587.649925 262.347429 
L 590.090936 262.347429 
L 592.531948 287.256076 
L 594.97296 281.321447 
L 597.413971 276.488096 
L 599.854983 272.576898 
L 602.295995 271.374133 
L 604.737006 270.575626 
L 607.178018 269.451827 
L 609.619029 269.687389 
L 612.060041 269.385624 
L 614.501053 268.669521 
L 616.942064 269.177604 
L 619.383076 269.233178 
L 621.824087 268.904301 
L 624.265099 269.419952 
L 626.706111 269.113518 
L 629.147122 268.954894 
L 631.588134 269.092405 
L 636.470157 269.21649 
L 638.911169 269.373593 
L 641.35218 268.80344 
L 643.793192 269.719528 
L 646.234204 269.096796 
L 648.675215 268.997697 
L 651.116227 269.241138 
L 653.557239 269.174387 
L 655.99825 269.283191 
L 658.439262 269.753736 
L 660.880273 268.974875 
L 663.321285 269.330441 
L 668.203308 269.243533 
L 670.64432 269.344814 
L 673.085332 268.724913 
L 675.526343 269.596665 
L 677.967355 269.376764 
L 680.408366 268.863973 
L 682.849378 269.441717 
L 685.29039 269.243502 
L 687.731401 268.913501 
L 690.172413 269.428151 
L 692.613424 268.910713 
L 695.054436 269.215553 
L 702.377471 268.931736 
L 704.818483 269.182353 
L 707.259494 269.553283 
L 709.700506 357.212015 
L 712.141517 364.176 
L 714.582529 364.176 
L 717.023541 363.954902 
L 719.464552 357.841438 
L 721.905564 347.144385 
L 724.346576 345.76867 
L 726.787587 347.440336 
L 729.228599 347.871075 
L 731.66961 347.052858 
L 734.110622 345.953023 
L 736.551634 348.401075 
L 738.992645 347.486602 
L 741.433657 346.378458 
L 743.874668 346.719444 
L 746.31568 347.919011 
L 748.756692 345.714136 
L 751.197703 347.925186 
L 753.638715 347.229838 
L 756.079727 347.122785 
L 758.520738 346.333103 
L 760.96175 347.42618 
L 763.402761 346.58372 
L 765.843773 346.940311 
L 768.284785 346.54406 
L 770.725796 347.70983 
L 773.166808 346.890332 
L 775.60782 345.804297 
L 778.048831 347.832419 
L 780.489843 347.799621 
L 782.930854 346.206368 
L 785.371866 346.833896 
L 787.812878 347.911369 
L 790.253889 345.607798 
L 792.694901 346.909198 
L 795.135913 347.152903 
L 797.576924 347.860028 
L 800.017936 345.940448 
L 802.458947 347.359007 
L 804.899959 347.286897 
L 807.340971 346.737525 
L 809.781982 346.698977 
L 812.222994 347.358901 
L 814.664005 347.233924 
L 817.105017 346.095565 
L 819.546029 346.898614 
L 821.98704 347.422349 
L 824.428052 346.46972 
L 826.869064 346.89642 
L 829.310075 347.909385 
L 831.751087 323.588391 
L 834.192098 333.732103 
L 836.63311 336.791262 
L 839.074122 335.108728 
L 841.515133 335.170638 
L 843.956145 336.142204 
L 846.397157 334.927517 
L 848.838168 335.929418 
L 851.27918 335.715864 
L 853.720191 334.777444 
L 856.161203 335.753852 
L 858.602215 335.180051 
L 861.043226 335.829895 
L 863.484238 335.579577 
L 865.925249 335.791662 
L 868.366261 335.439745 
L 870.807273 334.919887 
L 873.248284 335.864912 
L 875.689296 334.906393 
L 878.130308 335.753358 
L 880.571319 336.04218 
L 885.453342 334.859131 
L 887.894354 335.437188 
L 890.335366 335.612829 
L 892.776377 335.169783 
L 895.217389 335.920271 
L 897.658401 335.276428 
L 900.099412 334.94263 
L 902.540424 335.506776 
L 904.981435 334.75457 
L 907.422447 335.186769 
L 909.863459 336.204634 
L 912.30447 335.630784 
L 914.745482 334.864142 
L 917.186494 335.662825 
L 919.627505 334.946521 
L 922.068517 336.162699 
L 924.509528 334.77749 
L 926.95054 335.322608 
L 929.391552 335.562651 
L 931.832563 335.235651 
L 934.273575 335.390454 
L 936.714586 335.302417 
L 939.155598 335.060492 
L 941.59661 335.822871 
L 944.037621 335.842081 
L 946.478633 335.106274 
L 948.919645 335.442502 
L 951.360656 334.917516 
L 953.801668 364.176 
L 956.242679 364.176 
L 958.683691 362.622388 
L 961.124703 357.411686 
L 963.565714 357.922589 
L 968.447738 359.209307 
L 973.329761 360.231267 
L 978.211784 361.042945 
L 985.534819 361.958347 
L 992.857854 362.606291 
L 1002.6219 363.185807 
L 1014.826958 363.619333 
L 1029.473028 363.897101 
L 1051.442133 364.077094 
L 1073.411237 364.140925 
L 1075.852249 297.793244 
L 1078.29326 310.256784 
L 1080.734272 321.635724 
L 1083.175284 322.97284 
L 1085.616295 321.496356 
L 1088.057307 321.83177 
L 1090.498319 320.933426 
L 1092.93933 320.582931 
L 1095.380342 321.022553 
L 1097.821353 320.811828 
L 1100.262365 321.485656 
L 1102.703377 320.621086 
L 1105.144388 321.162316 
L 1107.5854 320.599801 
L 1110.026411 321.201997 
L 1112.467423 320.688045 
L 1114.908435 321.112347 
L 1117.349446 320.887027 
L 1119.790458 321.284854 
L 1122.23147 320.220016 
L 1124.672481 321.088587 
L 1127.113493 320.808145 
L 1129.554504 321.103968 
L 1131.995516 320.879559 
L 1134.436528 321.167613 
L 1136.877539 320.825693 
L 1139.318551 320.746029 
L 1141.759563 320.785618 
L 1144.200574 320.652608 
L 1146.641586 321.675516 
L 1149.082597 320.506585 
L 1151.523609 321.117979 
L 1153.964621 320.560288 
L 1156.405632 321.277369 
L 1158.846644 320.376811 
L 1161.287656 321.223495 
L 1163.728667 320.870669 
L 1166.169679 321.049104 
L 1168.61069 320.987898 
L 1171.051702 321.212229 
L 1173.492714 320.754869 
L 1175.933725 321.4926 
L 1178.374737 320.837388 
L 1180.815748 321.245442 
L 1183.25676 320.673883 
L 1185.697772 321.157433 
L 1188.138783 321.13732 
L 1190.579795 320.635231 
L 1193.020807 321.012401 
L 1195.461818 320.85566 
L 1195.461818 320.85566 
" style="fill:none;stroke:#008000;stroke-dasharray:14.8,6.4;stroke-dashoffset:0;stroke-width:4;"/>
   </g>
   <g id="patch_8">
    <path d="M 172.8 374.358857 
L 172.8 252.164571 
" style="fill:none;stroke:#000000;stroke-linecap:square;stroke-linejoin:miter;stroke-width:0.8;"/>
   </g>
   <g id="patch_9">
    <path d="M 1244.16 374.358857 
L 1244.16 252.164571 
" style="fill:none;stroke:#000000;stroke-linecap:square;stroke-linejoin:miter;stroke-width:0.8;"/>
   </g>
   <g id="patch_10">
    <path d="M 172.8 374.358857 
L 1244.16 374.358857 
" style="fill:none;stroke:#000000;stroke-linecap:square;stroke-linejoin:miter;stroke-width:0.8;"/>
   </g>
   <g id="patch_11">
    <path d="M 172.8 252.164571 
L 1244.16 252.164571 
" style="fill:none;stroke:#000000;stroke-linecap:square;stroke-linejoin:miter;stroke-width:0.8;"/>
   </g>
   <g id="text_16">
    <!-- Saída controlador - u(k) -->
    <defs>
     <path d="M 53.515625 70.515625 
L 53.515625 60.890625 
Q 47.90625 63.578125 42.921875 64.890625 
Q 37.9375 66.21875 33.296875 66.21875 
Q 25.25 66.21875 20.875 63.09375 
Q 16.5 59.96875 16.5 54.203125 
Q 16.5 49.359375 19.40625 46.890625 
Q 22.3125 44.4375 30.421875 42.921875 
L 36.375 41.703125 
Q 47.40625 39.59375 52.65625 34.296875 
Q 57.90625 29 57.90625 20.125 
Q 57.90625 9.515625 50.796875 4.046875 
Q 43.703125 -1.421875 29.984375 -1.421875 
Q 24.8125 -1.421875 18.96875 -0.25 
Q 13.140625 0.921875 6.890625 3.21875 
L 6.890625 13.375 
Q 12.890625 10.015625 18.65625 8.296875 
Q 24.421875 6.59375 29.984375 6.59375 
Q 38.421875 6.59375 43.015625 9.90625 
Q 47.609375 13.234375 47.609375 19.390625 
Q 47.609375 24.75 44.3125 27.78125 
Q 41.015625 30.8125 33.5 32.328125 
L 27.484375 33.5 
Q 16.453125 35.6875 11.515625 40.375 
Q 6.59375 45.0625 6.59375 53.421875 
Q 6.59375 63.09375 13.40625 68.65625 
Q 20.21875 74.21875 32.171875 74.21875 
Q 37.3125 74.21875 42.625 73.28125 
Q 47.953125 72.359375 53.515625 70.515625 
z
" id="DejaVuSans-83"/>
     <path d="M 20.65625 79.984375 
L 30.375 79.984375 
L 14.46875 61.625 
L 6.984375 61.625 
z
M 9.421875 54.6875 
L 18.40625 54.6875 
L 18.40625 0 
L 9.421875 0 
z
M 13.921875 56 
z
" id="DejaVuSans-237"/>
     <path d="M 45.40625 46.390625 
L 45.40625 75.984375 
L 54.390625 75.984375 
L 54.390625 0 
L 45.40625 0 
L 45.40625 8.203125 
Q 42.578125 3.328125 38.25 0.953125 
Q 33.9375 -1.421875 27.875 -1.421875 
Q 17.96875 -1.421875 11.734375 6.484375 
Q 5.515625 14.40625 5.515625 27.296875 
Q 5.515625 40.1875 11.734375 48.09375 
Q 17.96875 56 27.875 56 
Q 33.9375 56 38.25 53.625 
Q 42.578125 51.265625 45.40625 46.390625 
z
M 14.796875 27.296875 
Q 14.796875 17.390625 18.875 11.75 
Q 22.953125 6.109375 30.078125 6.109375 
Q 37.203125 6.109375 41.296875 11.75 
Q 45.40625 17.390625 45.40625 27.296875 
Q 45.40625 37.203125 41.296875 42.84375 
Q 37.203125 48.484375 30.078125 48.484375 
Q 22.953125 48.484375 18.875 42.84375 
Q 14.796875 37.203125 14.796875 27.296875 
z
" id="DejaVuSans-100"/>
     <path d="M 8.5 21.578125 
L 8.5 54.6875 
L 17.484375 54.6875 
L 17.484375 21.921875 
Q 17.484375 14.15625 20.5 10.265625 
Q 23.53125 6.390625 29.59375 6.390625 
Q 36.859375 6.390625 41.078125 11.03125 
Q 45.3125 15.671875 45.3125 23.6875 
L 45.3125 54.6875 
L 54.296875 54.6875 
L 54.296875 0 
L 45.3125 0 
L 45.3125 8.40625 
Q 42.046875 3.421875 37.71875 1 
Q 33.40625 -1.421875 27.6875 -1.421875 
Q 18.265625 -1.421875 13.375 4.4375 
Q 8.5 10.296875 8.5 21.578125 
z
M 31.109375 56 
z
" id="DejaVuSans-117"/>
    </defs>
    <g transform="translate(584.169844 246.164571)scale(0.21 -0.21)">
     <use xlink:href="#DejaVuSans-83"/>
     <use x="63.476562" xlink:href="#DejaVuSans-97"/>
     <use x="124.755859" xlink:href="#DejaVuSans-237"/>
     <use x="152.539062" xlink:href="#DejaVuSans-100"/>
     <use x="216.015625" xlink:href="#DejaVuSans-97"/>
     <use x="277.294922" xlink:href="#DejaVuSans-32"/>
     <use x="309.082031" xlink:href="#DejaVuSans-99"/>
     <use x="364.0625" xlink:href="#DejaVuSans-111"/>
     <use x="425.244141" xlink:href="#DejaVuSans-110"/>
     <use x="488.623047" xlink:href="#DejaVuSans-116"/>
     <use x="527.832031" xlink:href="#DejaVuSans-114"/>
     <use x="568.914062" xlink:href="#DejaVuSans-111"/>
     <use x="630.095703" xlink:href="#DejaVuSans-108"/>
     <use x="657.878906" xlink:href="#DejaVuSans-97"/>
     <use x="719.158203" xlink:href="#DejaVuSans-100"/>
     <use x="782.634766" xlink:href="#DejaVuSans-111"/>
     <use x="843.816406" xlink:href="#DejaVuSans-114"/>
     <use x="884.929688" xlink:href="#DejaVuSans-32"/>
     <use x="916.716797" xlink:href="#DejaVuSans-45"/>
     <use x="952.800781" xlink:href="#DejaVuSans-32"/>
     <use x="984.587891" xlink:href="#DejaVuSans-117"/>
     <use x="1047.966797" xlink:href="#DejaVuSans-40"/>
     <use x="1086.980469" xlink:href="#DejaVuSans-107"/>
     <use x="1144.890625" xlink:href="#DejaVuSans-41"/>
    </g>
   </g>
  </g>
  <g id="axes_3">
   <g id="patch_12">
    <path d="M 172.8 533.211429 
L 1244.16 533.211429 
L 1244.16 411.017143 
L 172.8 411.017143 
z
" style="fill:#ffffff;"/>
   </g>
   <g id="matplotlib.axis_5">
    <g id="xtick_19">
     <g id="line2d_63">
      <path clip-path="url(#p7da5cbc0ac)" d="M 221.498182 533.211429 
L 221.498182 411.017143 
" style="fill:none;stroke:#808080;stroke-linecap:square;stroke-width:0.8;"/>
     </g>
     <g id="line2d_64">
      <g>
       <use style="stroke:#000000;stroke-width:0.8;" x="221.498182" xlink:href="#m03c2bd3349" y="533.211429"/>
      </g>
     </g>
    </g>
    <g id="xtick_20">
     <g id="line2d_65">
      <path clip-path="url(#p7da5cbc0ac)" d="M 343.548763 533.211429 
L 343.548763 411.017143 
" style="fill:none;stroke:#808080;stroke-linecap:square;stroke-width:0.8;"/>
     </g>
     <g id="line2d_66">
      <g>
       <use style="stroke:#000000;stroke-width:0.8;" x="343.548763" xlink:href="#m03c2bd3349" y="533.211429"/>
      </g>
     </g>
    </g>
    <g id="xtick_21">
     <g id="line2d_67">
      <path clip-path="url(#p7da5cbc0ac)" d="M 465.599344 533.211429 
L 465.599344 411.017143 
" style="fill:none;stroke:#808080;stroke-linecap:square;stroke-width:0.8;"/>
     </g>
     <g id="line2d_68">
      <g>
       <use style="stroke:#000000;stroke-width:0.8;" x="465.599344" xlink:href="#m03c2bd3349" y="533.211429"/>
      </g>
     </g>
    </g>
    <g id="xtick_22">
     <g id="line2d_69">
      <path clip-path="url(#p7da5cbc0ac)" d="M 587.649925 533.211429 
L 587.649925 411.017143 
" style="fill:none;stroke:#808080;stroke-linecap:square;stroke-width:0.8;"/>
     </g>
     <g id="line2d_70">
      <g>
       <use style="stroke:#000000;stroke-width:0.8;" x="587.649925" xlink:href="#m03c2bd3349" y="533.211429"/>
      </g>
     </g>
    </g>
    <g id="xtick_23">
     <g id="line2d_71">
      <path clip-path="url(#p7da5cbc0ac)" d="M 709.700506 533.211429 
L 709.700506 411.017143 
" style="fill:none;stroke:#808080;stroke-linecap:square;stroke-width:0.8;"/>
     </g>
     <g id="line2d_72">
      <g>
       <use style="stroke:#000000;stroke-width:0.8;" x="709.700506" xlink:href="#m03c2bd3349" y="533.211429"/>
      </g>
     </g>
    </g>
    <g id="xtick_24">
     <g id="line2d_73">
      <path clip-path="url(#p7da5cbc0ac)" d="M 831.751087 533.211429 
L 831.751087 411.017143 
" style="fill:none;stroke:#808080;stroke-linecap:square;stroke-width:0.8;"/>
     </g>
     <g id="line2d_74">
      <g>
       <use style="stroke:#000000;stroke-width:0.8;" x="831.751087" xlink:href="#m03c2bd3349" y="533.211429"/>
      </g>
     </g>
    </g>
    <g id="xtick_25">
     <g id="line2d_75">
      <path clip-path="url(#p7da5cbc0ac)" d="M 953.801668 533.211429 
L 953.801668 411.017143 
" style="fill:none;stroke:#808080;stroke-linecap:square;stroke-width:0.8;"/>
     </g>
     <g id="line2d_76">
      <g>
       <use style="stroke:#000000;stroke-width:0.8;" x="953.801668" xlink:href="#m03c2bd3349" y="533.211429"/>
      </g>
     </g>
    </g>
    <g id="xtick_26">
     <g id="line2d_77">
      <path clip-path="url(#p7da5cbc0ac)" d="M 1075.852249 533.211429 
L 1075.852249 411.017143 
" style="fill:none;stroke:#808080;stroke-linecap:square;stroke-width:0.8;"/>
     </g>
     <g id="line2d_78">
      <g>
       <use style="stroke:#000000;stroke-width:0.8;" x="1075.852249" xlink:href="#m03c2bd3349" y="533.211429"/>
      </g>
     </g>
    </g>
    <g id="xtick_27">
     <g id="line2d_79">
      <path clip-path="url(#p7da5cbc0ac)" d="M 1197.90283 533.211429 
L 1197.90283 411.017143 
" style="fill:none;stroke:#808080;stroke-linecap:square;stroke-width:0.8;"/>
     </g>
     <g id="line2d_80">
      <g>
       <use style="stroke:#000000;stroke-width:0.8;" x="1197.90283" xlink:href="#m03c2bd3349" y="533.211429"/>
      </g>
     </g>
    </g>
   </g>
   <g id="matplotlib.axis_6">
    <g id="ytick_13">
     <g id="line2d_81">
      <path clip-path="url(#p7da5cbc0ac)" d="M 172.8 523.028571 
L 1244.16 523.028571 
" style="fill:none;stroke:#808080;stroke-linecap:square;stroke-width:0.8;"/>
     </g>
     <g id="line2d_82">
      <g>
       <use style="stroke:#000000;stroke-width:0.8;" x="172.8" xlink:href="#m9b8d455c4a" y="523.028571"/>
      </g>
     </g>
     <g id="text_17">
      <!-- 0 -->
      <g transform="translate(159.4375 526.82779)scale(0.1 -0.1)">
       <use xlink:href="#DejaVuSans-48"/>
      </g>
     </g>
    </g>
    <g id="ytick_14">
     <g id="line2d_83">
      <path clip-path="url(#p7da5cbc0ac)" d="M 172.8 502.662857 
L 1244.16 502.662857 
" style="fill:none;stroke:#808080;stroke-linecap:square;stroke-width:0.8;"/>
     </g>
     <g id="line2d_84">
      <g>
       <use style="stroke:#000000;stroke-width:0.8;" x="172.8" xlink:href="#m9b8d455c4a" y="502.662857"/>
      </g>
     </g>
     <g id="text_18">
      <!-- 1 -->
      <g transform="translate(159.4375 506.462076)scale(0.1 -0.1)">
       <use xlink:href="#DejaVuSans-49"/>
      </g>
     </g>
    </g>
    <g id="ytick_15">
     <g id="line2d_85">
      <path clip-path="url(#p7da5cbc0ac)" d="M 172.8 482.297143 
L 1244.16 482.297143 
" style="fill:none;stroke:#808080;stroke-linecap:square;stroke-width:0.8;"/>
     </g>
     <g id="line2d_86">
      <g>
       <use style="stroke:#000000;stroke-width:0.8;" x="172.8" xlink:href="#m9b8d455c4a" y="482.297143"/>
      </g>
     </g>
     <g id="text_19">
      <!-- 2 -->
      <g transform="translate(159.4375 486.096362)scale(0.1 -0.1)">
       <use xlink:href="#DejaVuSans-50"/>
      </g>
     </g>
    </g>
    <g id="ytick_16">
     <g id="line2d_87">
      <path clip-path="url(#p7da5cbc0ac)" d="M 172.8 461.931429 
L 1244.16 461.931429 
" style="fill:none;stroke:#808080;stroke-linecap:square;stroke-width:0.8;"/>
     </g>
     <g id="line2d_88">
      <g>
       <use style="stroke:#000000;stroke-width:0.8;" x="172.8" xlink:href="#m9b8d455c4a" y="461.931429"/>
      </g>
     </g>
     <g id="text_20">
      <!-- 3 -->
      <g transform="translate(159.4375 465.730647)scale(0.1 -0.1)">
       <use xlink:href="#DejaVuSans-51"/>
      </g>
     </g>
    </g>
    <g id="ytick_17">
     <g id="line2d_89">
      <path clip-path="url(#p7da5cbc0ac)" d="M 172.8 441.565714 
L 1244.16 441.565714 
" style="fill:none;stroke:#808080;stroke-linecap:square;stroke-width:0.8;"/>
     </g>
     <g id="line2d_90">
      <g>
       <use style="stroke:#000000;stroke-width:0.8;" x="172.8" xlink:href="#m9b8d455c4a" y="441.565714"/>
      </g>
     </g>
     <g id="text_21">
      <!-- 4 -->
      <g transform="translate(159.4375 445.364933)scale(0.1 -0.1)">
       <use xlink:href="#DejaVuSans-52"/>
      </g>
     </g>
    </g>
    <g id="ytick_18">
     <g id="line2d_91">
      <path clip-path="url(#p7da5cbc0ac)" d="M 172.8 421.2 
L 1244.16 421.2 
" style="fill:none;stroke:#808080;stroke-linecap:square;stroke-width:0.8;"/>
     </g>
     <g id="line2d_92">
      <g>
       <use style="stroke:#000000;stroke-width:0.8;" x="172.8" xlink:href="#m9b8d455c4a" y="421.2"/>
      </g>
     </g>
     <g id="text_22">
      <!-- 5 -->
      <g transform="translate(159.4375 424.999219)scale(0.1 -0.1)">
       <use xlink:href="#DejaVuSans-53"/>
      </g>
     </g>
    </g>
    <g id="text_23">
     <!-- Voltagem (V) -->
     <g transform="translate(152.11 524.785536)rotate(-90)scale(0.16 -0.16)">
      <use xlink:href="#DejaVuSans-86"/>
      <use x="68.298828" xlink:href="#DejaVuSans-111"/>
      <use x="129.480469" xlink:href="#DejaVuSans-108"/>
      <use x="157.263672" xlink:href="#DejaVuSans-116"/>
      <use x="196.472656" xlink:href="#DejaVuSans-97"/>
      <use x="257.751953" xlink:href="#DejaVuSans-103"/>
      <use x="321.228516" xlink:href="#DejaVuSans-101"/>
      <use x="382.751953" xlink:href="#DejaVuSans-109"/>
      <use x="480.164062" xlink:href="#DejaVuSans-32"/>
      <use x="511.951172" xlink:href="#DejaVuSans-40"/>
      <use x="550.964844" xlink:href="#DejaVuSans-86"/>
      <use x="619.373047" xlink:href="#DejaVuSans-41"/>
     </g>
    </g>
   </g>
   <g id="line2d_93">
    <path clip-path="url(#p7da5cbc0ac)" d="M 221.498182 523.028571 
L 343.548763 523.028571 
L 345.989774 490.48416 
L 348.430786 453.153806 
L 353.312809 455.740251 
L 355.753821 455.740251 
L 358.194833 455.444949 
L 360.635844 456.137383 
L 363.076856 455.638423 
L 370.399891 455.241291 
L 372.840902 455.536594 
L 375.281914 455.34312 
L 385.04596 455.241291 
L 389.927984 454.945989 
L 392.368995 454.548857 
L 394.810007 455.536594 
L 397.251018 455.740251 
L 399.69203 454.742331 
L 402.133042 454.945989 
L 404.574053 455.638423 
L 409.456077 455.34312 
L 411.897088 454.742331 
L 414.3381 455.536594 
L 416.779111 455.536594 
L 419.220123 455.34312 
L 421.661135 454.640503 
L 424.102146 455.536594 
L 431.425181 454.945989 
L 436.307204 455.047817 
L 438.748216 454.84416 
L 441.189228 455.638423 
L 443.630239 455.047817 
L 446.071251 455.139463 
L 448.512262 454.84416 
L 450.953274 455.34312 
L 453.394286 455.34312 
L 455.835297 455.047817 
L 458.276309 455.241291 
L 460.717321 455.638423 
L 463.158332 455.139463 
L 465.599344 455.047817 
L 468.040355 469.273269 
L 470.481367 484.404994 
L 472.922379 497.551063 
L 475.36339 511.878343 
L 477.804402 522.824914 
L 480.245414 523.028571 
L 587.649925 523.028571 
L 590.090936 486.797966 
L 592.531948 442.696011 
L 594.97296 445.587943 
L 597.413971 446.677509 
L 599.854983 446.881166 
L 602.295995 444.885326 
L 604.737006 443.592103 
L 607.178018 443.2968 
L 609.619029 442.003577 
L 612.060041 441.79992 
L 614.501053 442.105406 
L 616.942064 441.209314 
L 619.383076 441.107486 
L 621.824087 441.402789 
L 624.265099 440.812183 
L 626.706111 441.209314 
L 629.147122 441.311143 
L 631.588134 441.107486 
L 636.470157 441.005657 
L 638.911169 440.903829 
L 641.35218 441.504617 
L 643.793192 440.506697 
L 646.234204 441.311143 
L 648.675215 441.311143 
L 651.116227 441.005657 
L 653.557239 441.107486 
L 655.99825 441.005657 
L 658.439262 440.608526 
L 660.880273 441.504617 
L 663.321285 441.005657 
L 668.203308 441.107486 
L 670.64432 441.005657 
L 673.085332 441.606446 
L 675.526343 440.608526 
L 680.408366 441.504617 
L 682.849378 440.812183 
L 687.731401 441.402789 
L 690.172413 440.812183 
L 692.613424 441.402789 
L 695.054436 441.005657 
L 702.377471 441.311143 
L 707.259494 440.710354 
L 709.700506 441.606446 
L 712.141517 455.536594 
L 714.582529 471.869897 
L 717.023541 486.797966 
L 719.464552 500.03568 
L 721.905564 511.776514 
L 724.346576 510.391646 
L 726.787587 507.000754 
L 729.228599 506.206491 
L 734.110622 507.601543 
L 736.551634 504.81144 
L 738.992645 506.206491 
L 741.433657 507.204411 
L 743.874668 506.501794 
L 746.31568 505.3104 
L 748.756692 507.703371 
L 751.197703 505.106743 
L 753.638715 506.206491 
L 756.079727 506.30832 
L 758.520738 507.000754 
L 760.96175 505.707531 
L 763.402761 506.705451 
L 765.843773 506.206491 
L 768.284785 506.603623 
L 770.725796 505.412229 
L 773.166808 506.501794 
L 775.60782 507.397886 
L 778.048831 505.106743 
L 780.489843 505.605703 
L 782.930854 507.30624 
L 787.812878 505.3104 
L 790.253889 507.795017 
L 792.694901 506.002834 
L 795.135913 505.911189 
L 797.576924 505.412229 
L 800.017936 507.499714 
L 802.458947 505.707531 
L 804.899959 506.002834 
L 807.340971 506.603623 
L 809.781982 506.501794 
L 812.222994 505.80936 
L 814.664005 506.104663 
L 817.105017 507.204411 
L 819.546029 506.104663 
L 821.98704 505.707531 
L 824.428052 506.80728 
L 826.869064 506.206491 
L 829.310075 505.3104 
L 831.751087 507.703371 
L 834.192098 490.280503 
L 836.63311 486.696137 
L 839.074122 488.885451 
L 841.515133 488.590149 
L 843.956145 487.592229 
L 846.397157 488.98728 
L 848.838168 487.795886 
L 851.27918 488.193017 
L 853.720191 489.089109 
L 856.161203 487.887531 
L 858.602215 488.590149 
L 861.043226 487.887531 
L 863.484238 488.284663 
L 865.925249 488.091189 
L 870.807273 488.885451 
L 873.248284 487.795886 
L 875.689296 488.885451 
L 878.130308 487.887531 
L 880.571319 487.795886 
L 883.012331 488.48832 
L 885.453342 488.98728 
L 887.894354 488.193017 
L 890.335366 488.091189 
L 892.776377 488.590149 
L 895.217389 487.795886 
L 897.658401 488.590149 
L 900.099412 488.783623 
L 902.540424 488.091189 
L 904.981435 488.885451 
L 907.422447 488.284663 
L 909.863459 487.388571 
L 912.30447 488.284663 
L 914.745482 488.98728 
L 917.186494 487.98936 
L 919.627505 488.783623 
L 922.068517 487.4904 
L 924.509528 489.089109 
L 926.95054 488.284663 
L 929.391552 488.091189 
L 931.832563 488.48832 
L 934.273575 488.284663 
L 939.155598 488.590149 
L 941.59661 487.795886 
L 944.037621 487.98936 
L 946.478633 488.783623 
L 948.919645 488.284663 
L 951.360656 488.783623 
L 953.801668 487.795886 
L 956.242679 500.636469 
L 958.683691 512.774434 
L 961.124703 522.63144 
L 963.565714 523.028571 
L 1075.852249 523.028571 
L 1078.29326 488.98728 
L 1080.734272 470.973806 
L 1083.175284 469.680583 
L 1085.616295 471.462583 
L 1088.057307 470.871977 
L 1090.498319 471.66624 
L 1092.93933 471.66624 
L 1095.380342 470.973806 
L 1097.821353 471.16728 
L 1100.262365 470.474846 
L 1102.703377 471.462583 
L 1105.144388 470.770149 
L 1107.5854 471.370937 
L 1110.026411 470.66832 
L 1112.467423 471.269109 
L 1114.908435 470.770149 
L 1117.349446 471.065451 
L 1119.790458 470.66832 
L 1122.23147 471.768069 
L 1124.672481 470.66832 
L 1127.113493 471.065451 
L 1129.554504 470.770149 
L 1131.995516 471.065451 
L 1134.436528 470.770149 
L 1136.877539 471.16728 
L 1144.200574 471.16728 
L 1146.641586 470.16936 
L 1149.082597 471.564411 
L 1151.523609 470.770149 
L 1153.964621 471.370937 
L 1156.405632 470.566491 
L 1158.846644 471.564411 
L 1161.287656 470.566491 
L 1163.728667 471.065451 
L 1166.169679 470.871977 
L 1168.61069 470.973806 
L 1171.051702 470.770149 
L 1173.492714 471.269109 
L 1175.933725 470.474846 
L 1178.374737 471.269109 
L 1180.815748 470.770149 
L 1183.25676 471.370937 
L 1185.697772 470.770149 
L 1188.138783 470.871977 
L 1190.579795 471.370937 
L 1193.020807 470.871977 
L 1195.461818 471.065451 
L 1195.461818 471.065451 
" style="fill:none;stroke:#ff0000;stroke-linecap:square;stroke-width:4;"/>
   </g>
   <g id="line2d_94">
    <path clip-path="url(#p7da5cbc0ac)" d="M 221.498182 523.028571 
L 341.107751 523.028571 
L 343.548763 441.565714 
L 463.158332 441.565714 
L 465.599344 523.028571 
L 585.208913 523.028571 
L 587.649925 421.2 
L 707.259494 421.2 
L 709.700506 502.662857 
L 829.310075 502.662857 
L 831.751087 482.297143 
L 951.360656 482.297143 
L 953.801668 523.028571 
L 1073.411237 523.028571 
L 1075.852249 461.931429 
L 1195.461818 461.931429 
L 1195.461818 461.931429 
" style="fill:none;stroke:#0000ff;stroke-dasharray:7.4,3.2;stroke-dashoffset:0;stroke-width:2;"/>
   </g>
   <g id="patch_13">
    <path d="M 172.8 533.211429 
L 172.8 411.017143 
" style="fill:none;stroke:#000000;stroke-linecap:square;stroke-linejoin:miter;stroke-width:0.8;"/>
   </g>
   <g id="patch_14">
    <path d="M 1244.16 533.211429 
L 1244.16 411.017143 
" style="fill:none;stroke:#000000;stroke-linecap:square;stroke-linejoin:miter;stroke-width:0.8;"/>
   </g>
   <g id="patch_15">
    <path d="M 172.8 533.211429 
L 1244.16 533.211429 
" style="fill:none;stroke:#000000;stroke-linecap:square;stroke-linejoin:miter;stroke-width:0.8;"/>
   </g>
   <g id="patch_16">
    <path d="M 172.8 411.017143 
L 1244.16 411.017143 
" style="fill:none;stroke:#000000;stroke-linecap:square;stroke-linejoin:miter;stroke-width:0.8;"/>
   </g>
   <g id="text_24">
    <!-- Dados Lidos - y(k) -->
    <defs>
     <path d="M 19.671875 64.796875 
L 19.671875 8.109375 
L 31.59375 8.109375 
Q 46.6875 8.109375 53.6875 14.9375 
Q 60.6875 21.78125 60.6875 36.53125 
Q 60.6875 51.171875 53.6875 57.984375 
Q 46.6875 64.796875 31.59375 64.796875 
z
M 9.8125 72.90625 
L 30.078125 72.90625 
Q 51.265625 72.90625 61.171875 64.09375 
Q 71.09375 55.28125 71.09375 36.53125 
Q 71.09375 17.671875 61.125 8.828125 
Q 51.171875 0 30.078125 0 
L 9.8125 0 
z
" id="DejaVuSans-68"/>
     <path d="M 44.28125 53.078125 
L 44.28125 44.578125 
Q 40.484375 46.53125 36.375 47.5 
Q 32.28125 48.484375 27.875 48.484375 
Q 21.1875 48.484375 17.84375 46.4375 
Q 14.5 44.390625 14.5 40.28125 
Q 14.5 37.15625 16.890625 35.375 
Q 19.28125 33.59375 26.515625 31.984375 
L 29.59375 31.296875 
Q 39.15625 29.25 43.1875 25.515625 
Q 47.21875 21.78125 47.21875 15.09375 
Q 47.21875 7.46875 41.1875 3.015625 
Q 35.15625 -1.421875 24.609375 -1.421875 
Q 20.21875 -1.421875 15.453125 -0.5625 
Q 10.6875 0.296875 5.421875 2 
L 5.421875 11.28125 
Q 10.40625 8.6875 15.234375 7.390625 
Q 20.0625 6.109375 24.8125 6.109375 
Q 31.15625 6.109375 34.5625 8.28125 
Q 37.984375 10.453125 37.984375 14.40625 
Q 37.984375 18.0625 35.515625 20.015625 
Q 33.0625 21.96875 24.703125 23.78125 
L 21.578125 24.515625 
Q 13.234375 26.265625 9.515625 29.90625 
Q 5.8125 33.546875 5.8125 39.890625 
Q 5.8125 47.609375 11.28125 51.796875 
Q 16.75 56 26.8125 56 
Q 31.78125 56 36.171875 55.265625 
Q 40.578125 54.546875 44.28125 53.078125 
z
" id="DejaVuSans-115"/>
     <path d="M 9.8125 72.90625 
L 19.671875 72.90625 
L 19.671875 8.296875 
L 55.171875 8.296875 
L 55.171875 0 
L 9.8125 0 
z
" id="DejaVuSans-76"/>
    </defs>
    <g transform="translate(613.784766 405.017143)scale(0.21 -0.21)">
     <use xlink:href="#DejaVuSans-68"/>
     <use x="77.001953" xlink:href="#DejaVuSans-97"/>
     <use x="138.28125" xlink:href="#DejaVuSans-100"/>
     <use x="201.757812" xlink:href="#DejaVuSans-111"/>
     <use x="262.939453" xlink:href="#DejaVuSans-115"/>
     <use x="315.039062" xlink:href="#DejaVuSans-32"/>
     <use x="346.826172" xlink:href="#DejaVuSans-76"/>
     <use x="402.539062" xlink:href="#DejaVuSans-105"/>
     <use x="430.322266" xlink:href="#DejaVuSans-100"/>
     <use x="493.798828" xlink:href="#DejaVuSans-111"/>
     <use x="554.980469" xlink:href="#DejaVuSans-115"/>
     <use x="607.080078" xlink:href="#DejaVuSans-32"/>
     <use x="638.867188" xlink:href="#DejaVuSans-45"/>
     <use x="674.951172" xlink:href="#DejaVuSans-32"/>
     <use x="706.738281" xlink:href="#DejaVuSans-121"/>
     <use x="765.917969" xlink:href="#DejaVuSans-40"/>
     <use x="804.931641" xlink:href="#DejaVuSans-107"/>
     <use x="862.841797" xlink:href="#DejaVuSans-41"/>
    </g>
   </g>
   <g id="legend_1">
    <g id="patch_17">
     <path d="M 1195.130312 448.373393 
L 1237.16 448.373393 
Q 1239.16 448.373393 1239.16 446.373393 
L 1239.16 418.017143 
Q 1239.16 416.017143 1237.16 416.017143 
L 1195.130312 416.017143 
Q 1193.130312 416.017143 1193.130312 418.017143 
L 1193.130312 446.373393 
Q 1193.130312 448.373393 1195.130312 448.373393 
z
" style="fill:#ffffff;opacity:0.8;stroke:#cccccc;stroke-linejoin:miter;"/>
    </g>
    <g id="line2d_95">
     <path d="M 1197.130312 424.11558 
L 1217.130312 424.11558 
" style="fill:none;stroke:#ff0000;stroke-linecap:square;stroke-width:4;"/>
    </g>
    <g id="line2d_96"/>
    <g id="text_25">
     <!-- y -->
     <g transform="translate(1225.130312 427.61558)scale(0.1 -0.1)">
      <use xlink:href="#DejaVuSans-121"/>
     </g>
    </g>
    <g id="line2d_97">
     <path d="M 1197.130312 438.793705 
L 1217.130312 438.793705 
" style="fill:none;stroke:#0000ff;stroke-dasharray:7.4,3.2;stroke-dashoffset:0;stroke-width:2;"/>
    </g>
    <g id="line2d_98"/>
    <g id="text_26">
     <!-- yr -->
     <g transform="translate(1225.130312 442.293705)scale(0.1 -0.1)">
      <use xlink:href="#DejaVuSans-121"/>
      <use x="59.179688" xlink:href="#DejaVuSans-114"/>
     </g>
    </g>
   </g>
  </g>
  <g id="axes_4">
   <g id="patch_18">
    <path d="M 172.8 692.064 
L 1244.16 692.064 
L 1244.16 569.869714 
L 172.8 569.869714 
z
" style="fill:#ffffff;"/>
   </g>
   <g id="matplotlib.axis_7">
    <g id="xtick_28">
     <g id="line2d_99">
      <path clip-path="url(#pb529d5e751)" d="M 221.498182 692.064 
L 221.498182 569.869714 
" style="fill:none;stroke:#808080;stroke-linecap:square;stroke-width:0.8;"/>
     </g>
     <g id="line2d_100">
      <g>
       <use style="stroke:#000000;stroke-width:0.8;" x="221.498182" xlink:href="#m03c2bd3349" y="692.064"/>
      </g>
     </g>
     <g id="text_27">
      <!-- 0 -->
      <g transform="translate(218.316932 706.662438)scale(0.1 -0.1)">
       <use xlink:href="#DejaVuSans-48"/>
      </g>
     </g>
    </g>
    <g id="xtick_29">
     <g id="line2d_101">
      <path clip-path="url(#pb529d5e751)" d="M 343.548763 692.064 
L 343.548763 569.869714 
" style="fill:none;stroke:#808080;stroke-linecap:square;stroke-width:0.8;"/>
     </g>
     <g id="line2d_102">
      <g>
       <use style="stroke:#000000;stroke-width:0.8;" x="343.548763" xlink:href="#m03c2bd3349" y="692.064"/>
      </g>
     </g>
     <g id="text_28">
      <!-- 50 -->
      <g transform="translate(337.186263 706.662438)scale(0.1 -0.1)">
       <use xlink:href="#DejaVuSans-53"/>
       <use x="63.623047" xlink:href="#DejaVuSans-48"/>
      </g>
     </g>
    </g>
    <g id="xtick_30">
     <g id="line2d_103">
      <path clip-path="url(#pb529d5e751)" d="M 465.599344 692.064 
L 465.599344 569.869714 
" style="fill:none;stroke:#808080;stroke-linecap:square;stroke-width:0.8;"/>
     </g>
     <g id="line2d_104">
      <g>
       <use style="stroke:#000000;stroke-width:0.8;" x="465.599344" xlink:href="#m03c2bd3349" y="692.064"/>
      </g>
     </g>
     <g id="text_29">
      <!-- 100 -->
      <g transform="translate(456.055594 706.662438)scale(0.1 -0.1)">
       <use xlink:href="#DejaVuSans-49"/>
       <use x="63.623047" xlink:href="#DejaVuSans-48"/>
       <use x="127.246094" xlink:href="#DejaVuSans-48"/>
      </g>
     </g>
    </g>
    <g id="xtick_31">
     <g id="line2d_105">
      <path clip-path="url(#pb529d5e751)" d="M 587.649925 692.064 
L 587.649925 569.869714 
" style="fill:none;stroke:#808080;stroke-linecap:square;stroke-width:0.8;"/>
     </g>
     <g id="line2d_106">
      <g>
       <use style="stroke:#000000;stroke-width:0.8;" x="587.649925" xlink:href="#m03c2bd3349" y="692.064"/>
      </g>
     </g>
     <g id="text_30">
      <!-- 150 -->
      <g transform="translate(578.106175 706.662438)scale(0.1 -0.1)">
       <use xlink:href="#DejaVuSans-49"/>
       <use x="63.623047" xlink:href="#DejaVuSans-53"/>
       <use x="127.246094" xlink:href="#DejaVuSans-48"/>
      </g>
     </g>
    </g>
    <g id="xtick_32">
     <g id="line2d_107">
      <path clip-path="url(#pb529d5e751)" d="M 709.700506 692.064 
L 709.700506 569.869714 
" style="fill:none;stroke:#808080;stroke-linecap:square;stroke-width:0.8;"/>
     </g>
     <g id="line2d_108">
      <g>
       <use style="stroke:#000000;stroke-width:0.8;" x="709.700506" xlink:href="#m03c2bd3349" y="692.064"/>
      </g>
     </g>
     <g id="text_31">
      <!-- 200 -->
      <g transform="translate(700.156756 706.662438)scale(0.1 -0.1)">
       <use xlink:href="#DejaVuSans-50"/>
       <use x="63.623047" xlink:href="#DejaVuSans-48"/>
       <use x="127.246094" xlink:href="#DejaVuSans-48"/>
      </g>
     </g>
    </g>
    <g id="xtick_33">
     <g id="line2d_109">
      <path clip-path="url(#pb529d5e751)" d="M 831.751087 692.064 
L 831.751087 569.869714 
" style="fill:none;stroke:#808080;stroke-linecap:square;stroke-width:0.8;"/>
     </g>
     <g id="line2d_110">
      <g>
       <use style="stroke:#000000;stroke-width:0.8;" x="831.751087" xlink:href="#m03c2bd3349" y="692.064"/>
      </g>
     </g>
     <g id="text_32">
      <!-- 250 -->
      <g transform="translate(822.207337 706.662438)scale(0.1 -0.1)">
       <use xlink:href="#DejaVuSans-50"/>
       <use x="63.623047" xlink:href="#DejaVuSans-53"/>
       <use x="127.246094" xlink:href="#DejaVuSans-48"/>
      </g>
     </g>
    </g>
    <g id="xtick_34">
     <g id="line2d_111">
      <path clip-path="url(#pb529d5e751)" d="M 953.801668 692.064 
L 953.801668 569.869714 
" style="fill:none;stroke:#808080;stroke-linecap:square;stroke-width:0.8;"/>
     </g>
     <g id="line2d_112">
      <g>
       <use style="stroke:#000000;stroke-width:0.8;" x="953.801668" xlink:href="#m03c2bd3349" y="692.064"/>
      </g>
     </g>
     <g id="text_33">
      <!-- 300 -->
      <g transform="translate(944.257918 706.662438)scale(0.1 -0.1)">
       <use xlink:href="#DejaVuSans-51"/>
       <use x="63.623047" xlink:href="#DejaVuSans-48"/>
       <use x="127.246094" xlink:href="#DejaVuSans-48"/>
      </g>
     </g>
    </g>
    <g id="xtick_35">
     <g id="line2d_113">
      <path clip-path="url(#pb529d5e751)" d="M 1075.852249 692.064 
L 1075.852249 569.869714 
" style="fill:none;stroke:#808080;stroke-linecap:square;stroke-width:0.8;"/>
     </g>
     <g id="line2d_114">
      <g>
       <use style="stroke:#000000;stroke-width:0.8;" x="1075.852249" xlink:href="#m03c2bd3349" y="692.064"/>
      </g>
     </g>
     <g id="text_34">
      <!-- 350 -->
      <g transform="translate(1066.308499 706.662438)scale(0.1 -0.1)">
       <use xlink:href="#DejaVuSans-51"/>
       <use x="63.623047" xlink:href="#DejaVuSans-53"/>
       <use x="127.246094" xlink:href="#DejaVuSans-48"/>
      </g>
     </g>
    </g>
    <g id="xtick_36">
     <g id="line2d_115">
      <path clip-path="url(#pb529d5e751)" d="M 1197.90283 692.064 
L 1197.90283 569.869714 
" style="fill:none;stroke:#808080;stroke-linecap:square;stroke-width:0.8;"/>
     </g>
     <g id="line2d_116">
      <g>
       <use style="stroke:#000000;stroke-width:0.8;" x="1197.90283" xlink:href="#m03c2bd3349" y="692.064"/>
      </g>
     </g>
     <g id="text_35">
      <!-- 400 -->
      <g transform="translate(1188.35908 706.662438)scale(0.1 -0.1)">
       <use xlink:href="#DejaVuSans-52"/>
       <use x="63.623047" xlink:href="#DejaVuSans-48"/>
       <use x="127.246094" xlink:href="#DejaVuSans-48"/>
      </g>
     </g>
    </g>
    <g id="text_36">
     <!-- Amostras (k) -->
     <defs>
      <path d="M 34.1875 63.1875 
L 20.796875 26.90625 
L 47.609375 26.90625 
z
M 28.609375 72.90625 
L 39.796875 72.90625 
L 67.578125 0 
L 57.328125 0 
L 50.6875 18.703125 
L 17.828125 18.703125 
L 11.1875 0 
L 0.78125 0 
z
" id="DejaVuSans-65"/>
     </defs>
     <g transform="translate(650.835 726.419313)scale(0.18 -0.18)">
      <use xlink:href="#DejaVuSans-65"/>
      <use x="68.408203" xlink:href="#DejaVuSans-109"/>
      <use x="165.820312" xlink:href="#DejaVuSans-111"/>
      <use x="227.001953" xlink:href="#DejaVuSans-115"/>
      <use x="279.101562" xlink:href="#DejaVuSans-116"/>
      <use x="318.310547" xlink:href="#DejaVuSans-114"/>
      <use x="359.423828" xlink:href="#DejaVuSans-97"/>
      <use x="420.703125" xlink:href="#DejaVuSans-115"/>
      <use x="472.802734" xlink:href="#DejaVuSans-32"/>
      <use x="504.589844" xlink:href="#DejaVuSans-40"/>
      <use x="543.603516" xlink:href="#DejaVuSans-107"/>
      <use x="601.513672" xlink:href="#DejaVuSans-41"/>
     </g>
    </g>
   </g>
   <g id="matplotlib.axis_8">
    <g id="ytick_19">
     <g id="line2d_117">
      <path clip-path="url(#pb529d5e751)" d="M 172.8 675.401143 
L 1244.16 675.401143 
" style="fill:none;stroke:#808080;stroke-linecap:square;stroke-width:0.8;"/>
     </g>
     <g id="line2d_118">
      <g>
       <use style="stroke:#000000;stroke-width:0.8;" x="172.8" xlink:href="#m9b8d455c4a" y="675.401143"/>
      </g>
     </g>
     <g id="text_37">
      <!-- −4 -->
      <defs>
       <path d="M 10.59375 35.5 
L 73.1875 35.5 
L 73.1875 27.203125 
L 10.59375 27.203125 
z
" id="DejaVuSans-8722"/>
      </defs>
      <g transform="translate(151.057812 679.200362)scale(0.1 -0.1)">
       <use xlink:href="#DejaVuSans-8722"/>
       <use x="83.789062" xlink:href="#DejaVuSans-52"/>
      </g>
     </g>
    </g>
    <g id="ytick_20">
     <g id="line2d_119">
      <path clip-path="url(#pb529d5e751)" d="M 172.8 653.184 
L 1244.16 653.184 
" style="fill:none;stroke:#808080;stroke-linecap:square;stroke-width:0.8;"/>
     </g>
     <g id="line2d_120">
      <g>
       <use style="stroke:#000000;stroke-width:0.8;" x="172.8" xlink:href="#m9b8d455c4a" y="653.184"/>
      </g>
     </g>
     <g id="text_38">
      <!-- −2 -->
      <g transform="translate(151.057812 656.983219)scale(0.1 -0.1)">
       <use xlink:href="#DejaVuSans-8722"/>
       <use x="83.789062" xlink:href="#DejaVuSans-50"/>
      </g>
     </g>
    </g>
    <g id="ytick_21">
     <g id="line2d_121">
      <path clip-path="url(#pb529d5e751)" d="M 172.8 630.966857 
L 1244.16 630.966857 
" style="fill:none;stroke:#808080;stroke-linecap:square;stroke-width:0.8;"/>
     </g>
     <g id="line2d_122">
      <g>
       <use style="stroke:#000000;stroke-width:0.8;" x="172.8" xlink:href="#m9b8d455c4a" y="630.966857"/>
      </g>
     </g>
     <g id="text_39">
      <!-- 0 -->
      <g transform="translate(159.4375 634.766076)scale(0.1 -0.1)">
       <use xlink:href="#DejaVuSans-48"/>
      </g>
     </g>
    </g>
    <g id="ytick_22">
     <g id="line2d_123">
      <path clip-path="url(#pb529d5e751)" d="M 172.8 608.749714 
L 1244.16 608.749714 
" style="fill:none;stroke:#808080;stroke-linecap:square;stroke-width:0.8;"/>
     </g>
     <g id="line2d_124">
      <g>
       <use style="stroke:#000000;stroke-width:0.8;" x="172.8" xlink:href="#m9b8d455c4a" y="608.749714"/>
      </g>
     </g>
     <g id="text_40">
      <!-- 2 -->
      <g transform="translate(159.4375 612.548933)scale(0.1 -0.1)">
       <use xlink:href="#DejaVuSans-50"/>
      </g>
     </g>
    </g>
    <g id="ytick_23">
     <g id="line2d_125">
      <path clip-path="url(#pb529d5e751)" d="M 172.8 586.532571 
L 1244.16 586.532571 
" style="fill:none;stroke:#808080;stroke-linecap:square;stroke-width:0.8;"/>
     </g>
     <g id="line2d_126">
      <g>
       <use style="stroke:#000000;stroke-width:0.8;" x="172.8" xlink:href="#m9b8d455c4a" y="586.532571"/>
      </g>
     </g>
     <g id="text_41">
      <!-- 4 -->
      <g transform="translate(159.4375 590.33179)scale(0.1 -0.1)">
       <use xlink:href="#DejaVuSans-52"/>
      </g>
     </g>
    </g>
    <g id="text_42">
     <!-- Voltagem (V) -->
     <g transform="translate(143.730312 683.638107)rotate(-90)scale(0.16 -0.16)">
      <use xlink:href="#DejaVuSans-86"/>
      <use x="68.298828" xlink:href="#DejaVuSans-111"/>
      <use x="129.480469" xlink:href="#DejaVuSans-108"/>
      <use x="157.263672" xlink:href="#DejaVuSans-116"/>
      <use x="196.472656" xlink:href="#DejaVuSans-97"/>
      <use x="257.751953" xlink:href="#DejaVuSans-103"/>
      <use x="321.228516" xlink:href="#DejaVuSans-101"/>
      <use x="382.751953" xlink:href="#DejaVuSans-109"/>
      <use x="480.164062" xlink:href="#DejaVuSans-32"/>
      <use x="511.951172" xlink:href="#DejaVuSans-40"/>
      <use x="550.964844" xlink:href="#DejaVuSans-86"/>
      <use x="619.373047" xlink:href="#DejaVuSans-41"/>
     </g>
    </g>
   </g>
   <g id="line2d_127">
    <path clip-path="url(#pb529d5e751)" d="M 221.498182 630.966857 
L 341.107751 630.966857 
L 343.548763 586.532571 
L 345.989774 604.284069 
L 348.430786 624.64608 
L 353.312809 623.235291 
L 355.753821 623.235291 
L 358.194833 623.396366 
L 360.635844 623.018674 
L 363.076856 623.290834 
L 370.399891 623.507451 
L 372.840902 623.346377 
L 377.722925 623.451909 
L 387.486972 623.562994 
L 392.368995 623.885143 
L 394.810007 623.346377 
L 397.251018 623.235291 
L 399.69203 623.779611 
L 402.133042 623.668526 
L 404.574053 623.290834 
L 409.456077 623.451909 
L 411.897088 623.779611 
L 414.3381 623.346377 
L 419.220123 623.451909 
L 421.661135 623.835154 
L 424.102146 623.346377 
L 431.425181 623.668526 
L 436.307204 623.612983 
L 438.748216 623.724069 
L 441.189228 623.290834 
L 443.630239 623.612983 
L 446.071251 623.562994 
L 448.512262 623.724069 
L 450.953274 623.451909 
L 453.394286 623.451909 
L 455.835297 623.612983 
L 460.717321 623.290834 
L 463.158332 623.562994 
L 465.599344 668.047269 
L 468.040355 660.287931 
L 470.481367 652.034263 
L 472.922379 644.86368 
L 475.36339 637.0488 
L 477.804402 631.077943 
L 482.686425 630.966857 
L 585.208913 630.966857 
L 587.649925 575.424 
L 590.090936 595.186149 
L 592.531948 619.24176 
L 594.97296 617.664343 
L 597.413971 617.070034 
L 599.854983 616.958949 
L 602.295995 618.047589 
L 604.737006 618.752983 
L 607.178018 618.914057 
L 609.619029 619.619451 
L 612.060041 619.730537 
L 614.501053 619.563909 
L 616.942064 620.052686 
L 619.383076 620.108229 
L 621.824087 619.947154 
L 624.265099 620.269303 
L 626.706111 620.052686 
L 629.147122 619.997143 
L 634.029146 620.108229 
L 638.911169 620.219314 
L 641.35218 619.891611 
L 643.793192 620.435931 
L 646.234204 619.997143 
L 648.675215 619.997143 
L 651.116227 620.163771 
L 655.99825 620.163771 
L 658.439262 620.380389 
L 660.880273 619.891611 
L 663.321285 620.163771 
L 668.203308 620.108229 
L 670.64432 620.163771 
L 673.085332 619.836069 
L 675.526343 620.380389 
L 680.408366 619.891611 
L 682.849378 620.269303 
L 687.731401 619.947154 
L 690.172413 620.269303 
L 692.613424 619.947154 
L 695.054436 620.163771 
L 702.377471 619.997143 
L 707.259494 620.324846 
L 709.700506 664.270354 
L 712.141517 656.672091 
L 714.582529 647.763017 
L 717.023541 639.620434 
L 719.464552 632.399863 
L 721.905564 625.995771 
L 724.346576 626.751154 
L 726.787587 628.600731 
L 729.228599 629.033966 
L 734.110622 628.273029 
L 736.551634 629.794903 
L 738.992645 629.033966 
L 741.433657 628.489646 
L 743.874668 628.872891 
L 746.31568 629.522743 
L 748.756692 628.217486 
L 751.197703 629.633829 
L 753.638715 629.033966 
L 756.079727 628.978423 
L 758.520738 628.600731 
L 760.96175 629.306126 
L 763.402761 628.761806 
L 765.843773 629.033966 
L 768.284785 628.817349 
L 770.725796 629.4672 
L 775.60782 628.384114 
L 778.048831 629.633829 
L 780.489843 629.361669 
L 782.930854 628.434103 
L 787.812878 629.522743 
L 790.253889 628.167497 
L 792.694901 629.145051 
L 795.135913 629.19504 
L 797.576924 629.4672 
L 800.017936 628.328571 
L 802.458947 629.306126 
L 804.899959 629.145051 
L 807.340971 628.817349 
L 809.781982 628.872891 
L 812.222994 629.250583 
L 814.664005 629.089509 
L 817.105017 628.489646 
L 819.546029 629.089509 
L 821.98704 629.306126 
L 824.428052 628.706263 
L 826.869064 629.033966 
L 829.310075 629.522743 
L 831.751087 617.108914 
L 834.192098 626.612297 
L 836.63311 628.567406 
L 839.074122 627.373234 
L 841.515133 627.534309 
L 843.956145 628.078629 
L 846.397157 627.317691 
L 848.838168 627.967543 
L 851.27918 627.750926 
L 853.720191 627.262149 
L 856.161203 627.917554 
L 858.602215 627.534309 
L 861.043226 627.917554 
L 863.484238 627.700937 
L 865.925249 627.806469 
L 870.807273 627.373234 
L 873.248284 627.967543 
L 875.689296 627.373234 
L 878.130308 627.917554 
L 880.571319 627.967543 
L 885.453342 627.317691 
L 887.894354 627.750926 
L 890.335366 627.806469 
L 892.776377 627.534309 
L 895.217389 627.967543 
L 897.658401 627.534309 
L 900.099412 627.428777 
L 902.540424 627.806469 
L 904.981435 627.373234 
L 907.422447 627.700937 
L 909.863459 628.189714 
L 914.745482 627.317691 
L 917.186494 627.862011 
L 919.627505 627.428777 
L 922.068517 628.134171 
L 924.509528 627.262149 
L 926.95054 627.700937 
L 929.391552 627.806469 
L 931.832563 627.589851 
L 934.273575 627.700937 
L 939.155598 627.534309 
L 941.59661 627.967543 
L 944.037621 627.862011 
L 946.478633 627.428777 
L 948.919645 627.700937 
L 951.360656 627.428777 
L 953.801668 650.184686 
L 956.242679 643.180731 
L 958.683691 636.560023 
L 961.124703 631.183474 
L 963.565714 630.966857 
L 1073.411237 630.966857 
L 1075.852249 597.641143 
L 1078.29326 616.20912 
L 1080.734272 626.034651 
L 1083.175284 626.740046 
L 1085.616295 625.768046 
L 1088.057307 626.090194 
L 1090.498319 625.65696 
L 1092.93933 625.65696 
L 1095.380342 626.034651 
L 1097.821353 625.92912 
L 1100.262365 626.306811 
L 1102.703377 625.768046 
L 1105.144388 626.145737 
L 1107.5854 625.818034 
L 1110.026411 626.20128 
L 1112.467423 625.873577 
L 1114.908435 626.145737 
L 1117.349446 625.984663 
L 1119.790458 626.20128 
L 1122.23147 625.601417 
L 1124.672481 626.20128 
L 1127.113493 625.984663 
L 1129.554504 626.145737 
L 1131.995516 625.984663 
L 1134.436528 626.145737 
L 1136.877539 625.92912 
L 1144.200574 625.92912 
L 1146.641586 626.47344 
L 1149.082597 625.712503 
L 1151.523609 626.145737 
L 1153.964621 625.818034 
L 1156.405632 626.256823 
L 1158.846644 625.712503 
L 1161.287656 626.256823 
L 1163.728667 625.984663 
L 1166.169679 626.090194 
L 1168.61069 626.034651 
L 1171.051702 626.145737 
L 1173.492714 625.873577 
L 1175.933725 626.306811 
L 1178.374737 625.873577 
L 1180.815748 626.145737 
L 1183.25676 625.818034 
L 1185.697772 626.145737 
L 1188.138783 626.090194 
L 1190.579795 625.818034 
L 1193.020807 626.090194 
L 1195.461818 625.984663 
L 1195.461818 625.984663 
" style="fill:none;stroke:#000000;stroke-linecap:square;stroke-width:4;"/>
   </g>
   <g id="patch_19">
    <path d="M 172.8 692.064 
L 172.8 569.869714 
" style="fill:none;stroke:#000000;stroke-linecap:square;stroke-linejoin:miter;stroke-width:0.8;"/>
   </g>
   <g id="patch_20">
    <path d="M 1244.16 692.064 
L 1244.16 569.869714 
" style="fill:none;stroke:#000000;stroke-linecap:square;stroke-linejoin:miter;stroke-width:0.8;"/>
   </g>
   <g id="patch_21">
    <path d="M 172.8 692.064 
L 1244.16 692.064 
" style="fill:none;stroke:#000000;stroke-linecap:square;stroke-linejoin:miter;stroke-width:0.8;"/>
   </g>
   <g id="patch_22">
    <path d="M 172.8 569.869714 
L 1244.16 569.869714 
" style="fill:none;stroke:#000000;stroke-linecap:square;stroke-linejoin:miter;stroke-width:0.8;"/>
   </g>
   <g id="text_43">
    <!-- Erro - e(k) -->
    <defs>
     <path d="M 9.8125 72.90625 
L 55.90625 72.90625 
L 55.90625 64.59375 
L 19.671875 64.59375 
L 19.671875 43.015625 
L 54.390625 43.015625 
L 54.390625 34.71875 
L 19.671875 34.71875 
L 19.671875 8.296875 
L 56.78125 8.296875 
L 56.78125 0 
L 9.8125 0 
z
" id="DejaVuSans-69"/>
    </defs>
    <g transform="translate(655.596094 563.869714)scale(0.21 -0.21)">
     <use xlink:href="#DejaVuSans-69"/>
     <use x="63.183594" xlink:href="#DejaVuSans-114"/>
     <use x="104.28125" xlink:href="#DejaVuSans-114"/>
     <use x="145.363281" xlink:href="#DejaVuSans-111"/>
     <use x="206.544922" xlink:href="#DejaVuSans-32"/>
     <use x="238.332031" xlink:href="#DejaVuSans-45"/>
     <use x="274.416016" xlink:href="#DejaVuSans-32"/>
     <use x="306.203125" xlink:href="#DejaVuSans-101"/>
     <use x="367.726562" xlink:href="#DejaVuSans-40"/>
     <use x="406.740234" xlink:href="#DejaVuSans-107"/>
     <use x="464.650391" xlink:href="#DejaVuSans-41"/>
    </g>
   </g>
  </g>
  <g id="text_44">
   <!-- Controlador atraso - RF -->
   <defs>
    <path d="M 64.40625 67.28125 
L 64.40625 56.890625 
Q 59.421875 61.53125 53.78125 63.8125 
Q 48.140625 66.109375 41.796875 66.109375 
Q 29.296875 66.109375 22.65625 58.46875 
Q 16.015625 50.828125 16.015625 36.375 
Q 16.015625 21.96875 22.65625 14.328125 
Q 29.296875 6.6875 41.796875 6.6875 
Q 48.140625 6.6875 53.78125 8.984375 
Q 59.421875 11.28125 64.40625 15.921875 
L 64.40625 5.609375 
Q 59.234375 2.09375 53.4375 0.328125 
Q 47.65625 -1.421875 41.21875 -1.421875 
Q 24.65625 -1.421875 15.125 8.703125 
Q 5.609375 18.84375 5.609375 36.375 
Q 5.609375 53.953125 15.125 64.078125 
Q 24.65625 74.21875 41.21875 74.21875 
Q 47.75 74.21875 53.53125 72.484375 
Q 59.328125 70.75 64.40625 67.28125 
z
" id="DejaVuSans-67"/>
    <path d="M 9.8125 72.90625 
L 51.703125 72.90625 
L 51.703125 64.59375 
L 19.671875 64.59375 
L 19.671875 43.109375 
L 48.578125 43.109375 
L 48.578125 34.8125 
L 19.671875 34.8125 
L 19.671875 0 
L 9.8125 0 
z
" id="DejaVuSans-70"/>
   </defs>
   <g transform="translate(539.713437 35.307937)scale(0.26 -0.26)">
    <use xlink:href="#DejaVuSans-67"/>
    <use x="69.824219" xlink:href="#DejaVuSans-111"/>
    <use x="131.005859" xlink:href="#DejaVuSans-110"/>
    <use x="194.384766" xlink:href="#DejaVuSans-116"/>
    <use x="233.59375" xlink:href="#DejaVuSans-114"/>
    <use x="274.675781" xlink:href="#DejaVuSans-111"/>
    <use x="335.857422" xlink:href="#DejaVuSans-108"/>
    <use x="363.640625" xlink:href="#DejaVuSans-97"/>
    <use x="424.919922" xlink:href="#DejaVuSans-100"/>
    <use x="488.396484" xlink:href="#DejaVuSans-111"/>
    <use x="549.578125" xlink:href="#DejaVuSans-114"/>
    <use x="590.691406" xlink:href="#DejaVuSans-32"/>
    <use x="622.478516" xlink:href="#DejaVuSans-97"/>
    <use x="683.757812" xlink:href="#DejaVuSans-116"/>
    <use x="722.966797" xlink:href="#DejaVuSans-114"/>
    <use x="764.080078" xlink:href="#DejaVuSans-97"/>
    <use x="825.359375" xlink:href="#DejaVuSans-115"/>
    <use x="877.458984" xlink:href="#DejaVuSans-111"/>
    <use x="938.640625" xlink:href="#DejaVuSans-32"/>
    <use x="970.427734" xlink:href="#DejaVuSans-45"/>
    <use x="1006.511719" xlink:href="#DejaVuSans-32"/>
    <use x="1038.298828" xlink:href="#DejaVuSans-82"/>
    <use x="1107.78125" xlink:href="#DejaVuSans-70"/>
   </g>
  </g>
 </g>
 <defs>
  <clipPath id="p8925e65d41">
   <rect height="122.194286" width="1071.36" x="172.8" y="93.312"/>
  </clipPath>
  <clipPath id="pdd0a4c00f6">
   <rect height="122.194286" width="1071.36" x="172.8" y="252.164571"/>
  </clipPath>
  <clipPath id="p7da5cbc0ac">
   <rect height="122.194286" width="1071.36" x="172.8" y="411.017143"/>
  </clipPath>
  <clipPath id="pb529d5e751">
   <rect height="122.194286" width="1071.36" x="172.8" y="569.869714"/>
  </clipPath>
 </defs>
</svg>
