<?xml version="1.0" encoding="utf-8" standalone="no"?>
<!DOCTYPE svg PUBLIC "-//W3C//DTD SVG 1.1//EN"
  "http://www.w3.org/Graphics/SVG/1.1/DTD/svg11.dtd">
<!-- Created with matplotlib (https://matplotlib.org/) -->
<svg height="777.6pt" version="1.1" viewBox="0 0 1382.4 777.6" width="1382.4pt" xmlns="http://www.w3.org/2000/svg" xmlns:xlink="http://www.w3.org/1999/xlink">
 <defs>
  <style type="text/css">
*{stroke-linecap:butt;stroke-linejoin:round;white-space:pre;}
  </style>
 </defs>
 <g id="figure_1">
  <g id="patch_1">
   <path d="M 0 777.6 
L 1382.4 777.6 
L 1382.4 0 
L 0 0 
z
" style="fill:#ffffff;"/>
  </g>
  <g id="axes_1">
   <g id="patch_2">
    <path d="M 172.8 215.506286 
L 1244.16 215.506286 
L 1244.16 93.312 
L 172.8 93.312 
z
" style="fill:#ffffff;"/>
   </g>
   <g id="matplotlib.axis_1">
    <g id="xtick_1">
     <g id="line2d_1">
      <path clip-path="url(#p6b8b6267f6)" d="M 221.498182 215.506286 
L 221.498182 93.312 
" style="fill:none;stroke:#808080;stroke-linecap:square;stroke-width:0.8;"/>
     </g>
     <g id="line2d_2">
      <defs>
       <path d="M 0 0 
L 0 3.5 
" id="me370426d2a" style="stroke:#000000;stroke-width:0.8;"/>
      </defs>
      <g>
       <use style="stroke:#000000;stroke-width:0.8;" x="221.498182" xlink:href="#me370426d2a" y="215.506286"/>
      </g>
     </g>
    </g>
    <g id="xtick_2">
     <g id="line2d_3">
      <path clip-path="url(#p6b8b6267f6)" d="M 343.548763 215.506286 
L 343.548763 93.312 
" style="fill:none;stroke:#808080;stroke-linecap:square;stroke-width:0.8;"/>
     </g>
     <g id="line2d_4">
      <g>
       <use style="stroke:#000000;stroke-width:0.8;" x="343.548763" xlink:href="#me370426d2a" y="215.506286"/>
      </g>
     </g>
    </g>
    <g id="xtick_3">
     <g id="line2d_5">
      <path clip-path="url(#p6b8b6267f6)" d="M 465.599344 215.506286 
L 465.599344 93.312 
" style="fill:none;stroke:#808080;stroke-linecap:square;stroke-width:0.8;"/>
     </g>
     <g id="line2d_6">
      <g>
       <use style="stroke:#000000;stroke-width:0.8;" x="465.599344" xlink:href="#me370426d2a" y="215.506286"/>
      </g>
     </g>
    </g>
    <g id="xtick_4">
     <g id="line2d_7">
      <path clip-path="url(#p6b8b6267f6)" d="M 587.649925 215.506286 
L 587.649925 93.312 
" style="fill:none;stroke:#808080;stroke-linecap:square;stroke-width:0.8;"/>
     </g>
     <g id="line2d_8">
      <g>
       <use style="stroke:#000000;stroke-width:0.8;" x="587.649925" xlink:href="#me370426d2a" y="215.506286"/>
      </g>
     </g>
    </g>
    <g id="xtick_5">
     <g id="line2d_9">
      <path clip-path="url(#p6b8b6267f6)" d="M 709.700506 215.506286 
L 709.700506 93.312 
" style="fill:none;stroke:#808080;stroke-linecap:square;stroke-width:0.8;"/>
     </g>
     <g id="line2d_10">
      <g>
       <use style="stroke:#000000;stroke-width:0.8;" x="709.700506" xlink:href="#me370426d2a" y="215.506286"/>
      </g>
     </g>
    </g>
    <g id="xtick_6">
     <g id="line2d_11">
      <path clip-path="url(#p6b8b6267f6)" d="M 831.751087 215.506286 
L 831.751087 93.312 
" style="fill:none;stroke:#808080;stroke-linecap:square;stroke-width:0.8;"/>
     </g>
     <g id="line2d_12">
      <g>
       <use style="stroke:#000000;stroke-width:0.8;" x="831.751087" xlink:href="#me370426d2a" y="215.506286"/>
      </g>
     </g>
    </g>
    <g id="xtick_7">
     <g id="line2d_13">
      <path clip-path="url(#p6b8b6267f6)" d="M 953.801668 215.506286 
L 953.801668 93.312 
" style="fill:none;stroke:#808080;stroke-linecap:square;stroke-width:0.8;"/>
     </g>
     <g id="line2d_14">
      <g>
       <use style="stroke:#000000;stroke-width:0.8;" x="953.801668" xlink:href="#me370426d2a" y="215.506286"/>
      </g>
     </g>
    </g>
    <g id="xtick_8">
     <g id="line2d_15">
      <path clip-path="url(#p6b8b6267f6)" d="M 1075.852249 215.506286 
L 1075.852249 93.312 
" style="fill:none;stroke:#808080;stroke-linecap:square;stroke-width:0.8;"/>
     </g>
     <g id="line2d_16">
      <g>
       <use style="stroke:#000000;stroke-width:0.8;" x="1075.852249" xlink:href="#me370426d2a" y="215.506286"/>
      </g>
     </g>
    </g>
    <g id="xtick_9">
     <g id="line2d_17">
      <path clip-path="url(#p6b8b6267f6)" d="M 1197.90283 215.506286 
L 1197.90283 93.312 
" style="fill:none;stroke:#808080;stroke-linecap:square;stroke-width:0.8;"/>
     </g>
     <g id="line2d_18">
      <g>
       <use style="stroke:#000000;stroke-width:0.8;" x="1197.90283" xlink:href="#me370426d2a" y="215.506286"/>
      </g>
     </g>
    </g>
   </g>
   <g id="matplotlib.axis_2">
    <g id="ytick_1">
     <g id="line2d_19">
      <path clip-path="url(#p6b8b6267f6)" d="M 172.8 205.323429 
L 1244.16 205.323429 
" style="fill:none;stroke:#808080;stroke-linecap:square;stroke-width:0.8;"/>
     </g>
     <g id="line2d_20">
      <defs>
       <path d="M 0 0 
L -3.5 0 
" id="m7bca510f17" style="stroke:#000000;stroke-width:0.8;"/>
      </defs>
      <g>
       <use style="stroke:#000000;stroke-width:0.8;" x="172.8" xlink:href="#m7bca510f17" y="205.323429"/>
      </g>
     </g>
     <g id="text_1">
      <!-- 0 -->
      <defs>
       <path d="M 31.78125 66.40625 
Q 24.171875 66.40625 20.328125 58.90625 
Q 16.5 51.421875 16.5 36.375 
Q 16.5 21.390625 20.328125 13.890625 
Q 24.171875 6.390625 31.78125 6.390625 
Q 39.453125 6.390625 43.28125 13.890625 
Q 47.125 21.390625 47.125 36.375 
Q 47.125 51.421875 43.28125 58.90625 
Q 39.453125 66.40625 31.78125 66.40625 
z
M 31.78125 74.21875 
Q 44.046875 74.21875 50.515625 64.515625 
Q 56.984375 54.828125 56.984375 36.375 
Q 56.984375 17.96875 50.515625 8.265625 
Q 44.046875 -1.421875 31.78125 -1.421875 
Q 19.53125 -1.421875 13.0625 8.265625 
Q 6.59375 17.96875 6.59375 36.375 
Q 6.59375 54.828125 13.0625 64.515625 
Q 19.53125 74.21875 31.78125 74.21875 
z
" id="DejaVuSans-48"/>
      </defs>
      <g transform="translate(159.4375 209.122647)scale(0.1 -0.1)">
       <use xlink:href="#DejaVuSans-48"/>
      </g>
     </g>
    </g>
    <g id="ytick_2">
     <g id="line2d_21">
      <path clip-path="url(#p6b8b6267f6)" d="M 172.8 184.957714 
L 1244.16 184.957714 
" style="fill:none;stroke:#808080;stroke-linecap:square;stroke-width:0.8;"/>
     </g>
     <g id="line2d_22">
      <g>
       <use style="stroke:#000000;stroke-width:0.8;" x="172.8" xlink:href="#m7bca510f17" y="184.957714"/>
      </g>
     </g>
     <g id="text_2">
      <!-- 1 -->
      <defs>
       <path d="M 12.40625 8.296875 
L 28.515625 8.296875 
L 28.515625 63.921875 
L 10.984375 60.40625 
L 10.984375 69.390625 
L 28.421875 72.90625 
L 38.28125 72.90625 
L 38.28125 8.296875 
L 54.390625 8.296875 
L 54.390625 0 
L 12.40625 0 
z
" id="DejaVuSans-49"/>
      </defs>
      <g transform="translate(159.4375 188.756933)scale(0.1 -0.1)">
       <use xlink:href="#DejaVuSans-49"/>
      </g>
     </g>
    </g>
    <g id="ytick_3">
     <g id="line2d_23">
      <path clip-path="url(#p6b8b6267f6)" d="M 172.8 164.592 
L 1244.16 164.592 
" style="fill:none;stroke:#808080;stroke-linecap:square;stroke-width:0.8;"/>
     </g>
     <g id="line2d_24">
      <g>
       <use style="stroke:#000000;stroke-width:0.8;" x="172.8" xlink:href="#m7bca510f17" y="164.592"/>
      </g>
     </g>
     <g id="text_3">
      <!-- 2 -->
      <defs>
       <path d="M 19.1875 8.296875 
L 53.609375 8.296875 
L 53.609375 0 
L 7.328125 0 
L 7.328125 8.296875 
Q 12.9375 14.109375 22.625 23.890625 
Q 32.328125 33.6875 34.8125 36.53125 
Q 39.546875 41.84375 41.421875 45.53125 
Q 43.3125 49.21875 43.3125 52.78125 
Q 43.3125 58.59375 39.234375 62.25 
Q 35.15625 65.921875 28.609375 65.921875 
Q 23.96875 65.921875 18.8125 64.3125 
Q 13.671875 62.703125 7.8125 59.421875 
L 7.8125 69.390625 
Q 13.765625 71.78125 18.9375 73 
Q 24.125 74.21875 28.421875 74.21875 
Q 39.75 74.21875 46.484375 68.546875 
Q 53.21875 62.890625 53.21875 53.421875 
Q 53.21875 48.921875 51.53125 44.890625 
Q 49.859375 40.875 45.40625 35.40625 
Q 44.1875 33.984375 37.640625 27.21875 
Q 31.109375 20.453125 19.1875 8.296875 
z
" id="DejaVuSans-50"/>
      </defs>
      <g transform="translate(159.4375 168.391219)scale(0.1 -0.1)">
       <use xlink:href="#DejaVuSans-50"/>
      </g>
     </g>
    </g>
    <g id="ytick_4">
     <g id="line2d_25">
      <path clip-path="url(#p6b8b6267f6)" d="M 172.8 144.226286 
L 1244.16 144.226286 
" style="fill:none;stroke:#808080;stroke-linecap:square;stroke-width:0.8;"/>
     </g>
     <g id="line2d_26">
      <g>
       <use style="stroke:#000000;stroke-width:0.8;" x="172.8" xlink:href="#m7bca510f17" y="144.226286"/>
      </g>
     </g>
     <g id="text_4">
      <!-- 3 -->
      <defs>
       <path d="M 40.578125 39.3125 
Q 47.65625 37.796875 51.625 33 
Q 55.609375 28.21875 55.609375 21.1875 
Q 55.609375 10.40625 48.1875 4.484375 
Q 40.765625 -1.421875 27.09375 -1.421875 
Q 22.515625 -1.421875 17.65625 -0.515625 
Q 12.796875 0.390625 7.625 2.203125 
L 7.625 11.71875 
Q 11.71875 9.328125 16.59375 8.109375 
Q 21.484375 6.890625 26.8125 6.890625 
Q 36.078125 6.890625 40.9375 10.546875 
Q 45.796875 14.203125 45.796875 21.1875 
Q 45.796875 27.640625 41.28125 31.265625 
Q 36.765625 34.90625 28.71875 34.90625 
L 20.21875 34.90625 
L 20.21875 43.015625 
L 29.109375 43.015625 
Q 36.375 43.015625 40.234375 45.921875 
Q 44.09375 48.828125 44.09375 54.296875 
Q 44.09375 59.90625 40.109375 62.90625 
Q 36.140625 65.921875 28.71875 65.921875 
Q 24.65625 65.921875 20.015625 65.03125 
Q 15.375 64.15625 9.8125 62.3125 
L 9.8125 71.09375 
Q 15.4375 72.65625 20.34375 73.4375 
Q 25.25 74.21875 29.59375 74.21875 
Q 40.828125 74.21875 47.359375 69.109375 
Q 53.90625 64.015625 53.90625 55.328125 
Q 53.90625 49.265625 50.4375 45.09375 
Q 46.96875 40.921875 40.578125 39.3125 
z
" id="DejaVuSans-51"/>
      </defs>
      <g transform="translate(159.4375 148.025504)scale(0.1 -0.1)">
       <use xlink:href="#DejaVuSans-51"/>
      </g>
     </g>
    </g>
    <g id="ytick_5">
     <g id="line2d_27">
      <path clip-path="url(#p6b8b6267f6)" d="M 172.8 123.860571 
L 1244.16 123.860571 
" style="fill:none;stroke:#808080;stroke-linecap:square;stroke-width:0.8;"/>
     </g>
     <g id="line2d_28">
      <g>
       <use style="stroke:#000000;stroke-width:0.8;" x="172.8" xlink:href="#m7bca510f17" y="123.860571"/>
      </g>
     </g>
     <g id="text_5">
      <!-- 4 -->
      <defs>
       <path d="M 37.796875 64.3125 
L 12.890625 25.390625 
L 37.796875 25.390625 
z
M 35.203125 72.90625 
L 47.609375 72.90625 
L 47.609375 25.390625 
L 58.015625 25.390625 
L 58.015625 17.1875 
L 47.609375 17.1875 
L 47.609375 0 
L 37.796875 0 
L 37.796875 17.1875 
L 4.890625 17.1875 
L 4.890625 26.703125 
z
" id="DejaVuSans-52"/>
      </defs>
      <g transform="translate(159.4375 127.65979)scale(0.1 -0.1)">
       <use xlink:href="#DejaVuSans-52"/>
      </g>
     </g>
    </g>
    <g id="ytick_6">
     <g id="line2d_29">
      <path clip-path="url(#p6b8b6267f6)" d="M 172.8 103.494857 
L 1244.16 103.494857 
" style="fill:none;stroke:#808080;stroke-linecap:square;stroke-width:0.8;"/>
     </g>
     <g id="line2d_30">
      <g>
       <use style="stroke:#000000;stroke-width:0.8;" x="172.8" xlink:href="#m7bca510f17" y="103.494857"/>
      </g>
     </g>
     <g id="text_6">
      <!-- 5 -->
      <defs>
       <path d="M 10.796875 72.90625 
L 49.515625 72.90625 
L 49.515625 64.59375 
L 19.828125 64.59375 
L 19.828125 46.734375 
Q 21.96875 47.46875 24.109375 47.828125 
Q 26.265625 48.1875 28.421875 48.1875 
Q 40.625 48.1875 47.75 41.5 
Q 54.890625 34.8125 54.890625 23.390625 
Q 54.890625 11.625 47.5625 5.09375 
Q 40.234375 -1.421875 26.90625 -1.421875 
Q 22.3125 -1.421875 17.546875 -0.640625 
Q 12.796875 0.140625 7.71875 1.703125 
L 7.71875 11.625 
Q 12.109375 9.234375 16.796875 8.0625 
Q 21.484375 6.890625 26.703125 6.890625 
Q 35.15625 6.890625 40.078125 11.328125 
Q 45.015625 15.765625 45.015625 23.390625 
Q 45.015625 31 40.078125 35.4375 
Q 35.15625 39.890625 26.703125 39.890625 
Q 22.75 39.890625 18.8125 39.015625 
Q 14.890625 38.140625 10.796875 36.28125 
z
" id="DejaVuSans-53"/>
      </defs>
      <g transform="translate(159.4375 107.294076)scale(0.1 -0.1)">
       <use xlink:href="#DejaVuSans-53"/>
      </g>
     </g>
    </g>
    <g id="text_7">
     <!-- Voltagem (V) -->
     <defs>
      <path d="M 28.609375 0 
L 0.78125 72.90625 
L 11.078125 72.90625 
L 34.1875 11.53125 
L 57.328125 72.90625 
L 67.578125 72.90625 
L 39.796875 0 
z
" id="DejaVuSans-86"/>
      <path d="M 30.609375 48.390625 
Q 23.390625 48.390625 19.1875 42.75 
Q 14.984375 37.109375 14.984375 27.296875 
Q 14.984375 17.484375 19.15625 11.84375 
Q 23.34375 6.203125 30.609375 6.203125 
Q 37.796875 6.203125 41.984375 11.859375 
Q 46.1875 17.53125 46.1875 27.296875 
Q 46.1875 37.015625 41.984375 42.703125 
Q 37.796875 48.390625 30.609375 48.390625 
z
M 30.609375 56 
Q 42.328125 56 49.015625 48.375 
Q 55.71875 40.765625 55.71875 27.296875 
Q 55.71875 13.875 49.015625 6.21875 
Q 42.328125 -1.421875 30.609375 -1.421875 
Q 18.84375 -1.421875 12.171875 6.21875 
Q 5.515625 13.875 5.515625 27.296875 
Q 5.515625 40.765625 12.171875 48.375 
Q 18.84375 56 30.609375 56 
z
" id="DejaVuSans-111"/>
      <path d="M 9.421875 75.984375 
L 18.40625 75.984375 
L 18.40625 0 
L 9.421875 0 
z
" id="DejaVuSans-108"/>
      <path d="M 18.3125 70.21875 
L 18.3125 54.6875 
L 36.8125 54.6875 
L 36.8125 47.703125 
L 18.3125 47.703125 
L 18.3125 18.015625 
Q 18.3125 11.328125 20.140625 9.421875 
Q 21.96875 7.515625 27.59375 7.515625 
L 36.8125 7.515625 
L 36.8125 0 
L 27.59375 0 
Q 17.1875 0 13.234375 3.875 
Q 9.28125 7.765625 9.28125 18.015625 
L 9.28125 47.703125 
L 2.6875 47.703125 
L 2.6875 54.6875 
L 9.28125 54.6875 
L 9.28125 70.21875 
z
" id="DejaVuSans-116"/>
      <path d="M 34.28125 27.484375 
Q 23.390625 27.484375 19.1875 25 
Q 14.984375 22.515625 14.984375 16.5 
Q 14.984375 11.71875 18.140625 8.90625 
Q 21.296875 6.109375 26.703125 6.109375 
Q 34.1875 6.109375 38.703125 11.40625 
Q 43.21875 16.703125 43.21875 25.484375 
L 43.21875 27.484375 
z
M 52.203125 31.203125 
L 52.203125 0 
L 43.21875 0 
L 43.21875 8.296875 
Q 40.140625 3.328125 35.546875 0.953125 
Q 30.953125 -1.421875 24.3125 -1.421875 
Q 15.921875 -1.421875 10.953125 3.296875 
Q 6 8.015625 6 15.921875 
Q 6 25.140625 12.171875 29.828125 
Q 18.359375 34.515625 30.609375 34.515625 
L 43.21875 34.515625 
L 43.21875 35.40625 
Q 43.21875 41.609375 39.140625 45 
Q 35.0625 48.390625 27.6875 48.390625 
Q 23 48.390625 18.546875 47.265625 
Q 14.109375 46.140625 10.015625 43.890625 
L 10.015625 52.203125 
Q 14.9375 54.109375 19.578125 55.046875 
Q 24.21875 56 28.609375 56 
Q 40.484375 56 46.34375 49.84375 
Q 52.203125 43.703125 52.203125 31.203125 
z
" id="DejaVuSans-97"/>
      <path d="M 45.40625 27.984375 
Q 45.40625 37.75 41.375 43.109375 
Q 37.359375 48.484375 30.078125 48.484375 
Q 22.859375 48.484375 18.828125 43.109375 
Q 14.796875 37.75 14.796875 27.984375 
Q 14.796875 18.265625 18.828125 12.890625 
Q 22.859375 7.515625 30.078125 7.515625 
Q 37.359375 7.515625 41.375 12.890625 
Q 45.40625 18.265625 45.40625 27.984375 
z
M 54.390625 6.78125 
Q 54.390625 -7.171875 48.1875 -13.984375 
Q 42 -20.796875 29.203125 -20.796875 
Q 24.46875 -20.796875 20.265625 -20.09375 
Q 16.0625 -19.390625 12.109375 -17.921875 
L 12.109375 -9.1875 
Q 16.0625 -11.328125 19.921875 -12.34375 
Q 23.78125 -13.375 27.78125 -13.375 
Q 36.625 -13.375 41.015625 -8.765625 
Q 45.40625 -4.15625 45.40625 5.171875 
L 45.40625 9.625 
Q 42.625 4.78125 38.28125 2.390625 
Q 33.9375 0 27.875 0 
Q 17.828125 0 11.671875 7.65625 
Q 5.515625 15.328125 5.515625 27.984375 
Q 5.515625 40.671875 11.671875 48.328125 
Q 17.828125 56 27.875 56 
Q 33.9375 56 38.28125 53.609375 
Q 42.625 51.21875 45.40625 46.390625 
L 45.40625 54.6875 
L 54.390625 54.6875 
z
" id="DejaVuSans-103"/>
      <path d="M 56.203125 29.59375 
L 56.203125 25.203125 
L 14.890625 25.203125 
Q 15.484375 15.921875 20.484375 11.0625 
Q 25.484375 6.203125 34.421875 6.203125 
Q 39.59375 6.203125 44.453125 7.46875 
Q 49.3125 8.734375 54.109375 11.28125 
L 54.109375 2.78125 
Q 49.265625 0.734375 44.1875 -0.34375 
Q 39.109375 -1.421875 33.890625 -1.421875 
Q 20.796875 -1.421875 13.15625 6.1875 
Q 5.515625 13.8125 5.515625 26.8125 
Q 5.515625 40.234375 12.765625 48.109375 
Q 20.015625 56 32.328125 56 
Q 43.359375 56 49.78125 48.890625 
Q 56.203125 41.796875 56.203125 29.59375 
z
M 47.21875 32.234375 
Q 47.125 39.59375 43.09375 43.984375 
Q 39.0625 48.390625 32.421875 48.390625 
Q 24.90625 48.390625 20.390625 44.140625 
Q 15.875 39.890625 15.1875 32.171875 
z
" id="DejaVuSans-101"/>
      <path d="M 52 44.1875 
Q 55.375 50.25 60.0625 53.125 
Q 64.75 56 71.09375 56 
Q 79.640625 56 84.28125 50.015625 
Q 88.921875 44.046875 88.921875 33.015625 
L 88.921875 0 
L 79.890625 0 
L 79.890625 32.71875 
Q 79.890625 40.578125 77.09375 44.375 
Q 74.3125 48.1875 68.609375 48.1875 
Q 61.625 48.1875 57.5625 43.546875 
Q 53.515625 38.921875 53.515625 30.90625 
L 53.515625 0 
L 44.484375 0 
L 44.484375 32.71875 
Q 44.484375 40.625 41.703125 44.40625 
Q 38.921875 48.1875 33.109375 48.1875 
Q 26.21875 48.1875 22.15625 43.53125 
Q 18.109375 38.875 18.109375 30.90625 
L 18.109375 0 
L 9.078125 0 
L 9.078125 54.6875 
L 18.109375 54.6875 
L 18.109375 46.1875 
Q 21.1875 51.21875 25.484375 53.609375 
Q 29.78125 56 35.6875 56 
Q 41.65625 56 45.828125 52.96875 
Q 50 49.953125 52 44.1875 
z
" id="DejaVuSans-109"/>
      <path id="DejaVuSans-32"/>
      <path d="M 31 75.875 
Q 24.46875 64.65625 21.28125 53.65625 
Q 18.109375 42.671875 18.109375 31.390625 
Q 18.109375 20.125 21.3125 9.0625 
Q 24.515625 -2 31 -13.1875 
L 23.1875 -13.1875 
Q 15.875 -1.703125 12.234375 9.375 
Q 8.59375 20.453125 8.59375 31.390625 
Q 8.59375 42.28125 12.203125 53.3125 
Q 15.828125 64.359375 23.1875 75.875 
z
" id="DejaVuSans-40"/>
      <path d="M 8.015625 75.875 
L 15.828125 75.875 
Q 23.140625 64.359375 26.78125 53.3125 
Q 30.421875 42.28125 30.421875 31.390625 
Q 30.421875 20.453125 26.78125 9.375 
Q 23.140625 -1.703125 15.828125 -13.1875 
L 8.015625 -13.1875 
Q 14.5 -2 17.703125 9.0625 
Q 20.90625 20.125 20.90625 31.390625 
Q 20.90625 42.671875 17.703125 53.65625 
Q 14.5 64.65625 8.015625 75.875 
z
" id="DejaVuSans-41"/>
     </defs>
     <g transform="translate(152.11 207.080393)rotate(-90)scale(0.16 -0.16)">
      <use xlink:href="#DejaVuSans-86"/>
      <use x="68.298828" xlink:href="#DejaVuSans-111"/>
      <use x="129.480469" xlink:href="#DejaVuSans-108"/>
      <use x="157.263672" xlink:href="#DejaVuSans-116"/>
      <use x="196.472656" xlink:href="#DejaVuSans-97"/>
      <use x="257.751953" xlink:href="#DejaVuSans-103"/>
      <use x="321.228516" xlink:href="#DejaVuSans-101"/>
      <use x="382.751953" xlink:href="#DejaVuSans-109"/>
      <use x="480.164062" xlink:href="#DejaVuSans-32"/>
      <use x="511.951172" xlink:href="#DejaVuSans-40"/>
      <use x="550.964844" xlink:href="#DejaVuSans-86"/>
      <use x="619.373047" xlink:href="#DejaVuSans-41"/>
     </g>
    </g>
   </g>
   <g id="line2d_31">
    <path clip-path="url(#p6b8b6267f6)" d="M 221.498182 205.323429 
L 341.107751 205.323429 
L 343.548763 123.860571 
L 463.158332 123.860571 
L 465.599344 205.323429 
L 585.208913 205.323429 
L 587.649925 103.494857 
L 707.259494 103.494857 
L 709.700506 184.957714 
L 829.310075 184.957714 
L 831.751087 164.592 
L 951.360656 164.592 
L 953.801668 205.323429 
L 1073.411237 205.323429 
L 1075.852249 144.226286 
L 1195.461818 144.226286 
L 1195.461818 144.226286 
" style="fill:none;stroke:#0000ff;stroke-linecap:square;stroke-width:4;"/>
   </g>
   <g id="patch_3">
    <path d="M 172.8 215.506286 
L 172.8 93.312 
" style="fill:none;stroke:#000000;stroke-linecap:square;stroke-linejoin:miter;stroke-width:0.8;"/>
   </g>
   <g id="patch_4">
    <path d="M 1244.16 215.506286 
L 1244.16 93.312 
" style="fill:none;stroke:#000000;stroke-linecap:square;stroke-linejoin:miter;stroke-width:0.8;"/>
   </g>
   <g id="patch_5">
    <path d="M 172.8 215.506286 
L 1244.16 215.506286 
" style="fill:none;stroke:#000000;stroke-linecap:square;stroke-linejoin:miter;stroke-width:0.8;"/>
   </g>
   <g id="patch_6">
    <path d="M 172.8 93.312 
L 1244.16 93.312 
" style="fill:none;stroke:#000000;stroke-linecap:square;stroke-linejoin:miter;stroke-width:0.8;"/>
   </g>
   <g id="text_8">
    <!-- Referencia - yr(k) -->
    <defs>
     <path d="M 44.390625 34.1875 
Q 47.5625 33.109375 50.5625 29.59375 
Q 53.5625 26.078125 56.59375 19.921875 
L 66.609375 0 
L 56 0 
L 46.6875 18.703125 
Q 43.0625 26.03125 39.671875 28.421875 
Q 36.28125 30.8125 30.421875 30.8125 
L 19.671875 30.8125 
L 19.671875 0 
L 9.8125 0 
L 9.8125 72.90625 
L 32.078125 72.90625 
Q 44.578125 72.90625 50.734375 67.671875 
Q 56.890625 62.453125 56.890625 51.90625 
Q 56.890625 45.015625 53.6875 40.46875 
Q 50.484375 35.9375 44.390625 34.1875 
z
M 19.671875 64.796875 
L 19.671875 38.921875 
L 32.078125 38.921875 
Q 39.203125 38.921875 42.84375 42.21875 
Q 46.484375 45.515625 46.484375 51.90625 
Q 46.484375 58.296875 42.84375 61.546875 
Q 39.203125 64.796875 32.078125 64.796875 
z
" id="DejaVuSans-82"/>
     <path d="M 37.109375 75.984375 
L 37.109375 68.5 
L 28.515625 68.5 
Q 23.6875 68.5 21.796875 66.546875 
Q 19.921875 64.59375 19.921875 59.515625 
L 19.921875 54.6875 
L 34.71875 54.6875 
L 34.71875 47.703125 
L 19.921875 47.703125 
L 19.921875 0 
L 10.890625 0 
L 10.890625 47.703125 
L 2.296875 47.703125 
L 2.296875 54.6875 
L 10.890625 54.6875 
L 10.890625 58.5 
Q 10.890625 67.625 15.140625 71.796875 
Q 19.390625 75.984375 28.609375 75.984375 
z
" id="DejaVuSans-102"/>
     <path d="M 41.109375 46.296875 
Q 39.59375 47.171875 37.8125 47.578125 
Q 36.03125 48 33.890625 48 
Q 26.265625 48 22.1875 43.046875 
Q 18.109375 38.09375 18.109375 28.8125 
L 18.109375 0 
L 9.078125 0 
L 9.078125 54.6875 
L 18.109375 54.6875 
L 18.109375 46.1875 
Q 20.953125 51.171875 25.484375 53.578125 
Q 30.03125 56 36.53125 56 
Q 37.453125 56 38.578125 55.875 
Q 39.703125 55.765625 41.0625 55.515625 
z
" id="DejaVuSans-114"/>
     <path d="M 54.890625 33.015625 
L 54.890625 0 
L 45.90625 0 
L 45.90625 32.71875 
Q 45.90625 40.484375 42.875 44.328125 
Q 39.84375 48.1875 33.796875 48.1875 
Q 26.515625 48.1875 22.3125 43.546875 
Q 18.109375 38.921875 18.109375 30.90625 
L 18.109375 0 
L 9.078125 0 
L 9.078125 54.6875 
L 18.109375 54.6875 
L 18.109375 46.1875 
Q 21.34375 51.125 25.703125 53.5625 
Q 30.078125 56 35.796875 56 
Q 45.21875 56 50.046875 50.171875 
Q 54.890625 44.34375 54.890625 33.015625 
z
" id="DejaVuSans-110"/>
     <path d="M 48.78125 52.59375 
L 48.78125 44.1875 
Q 44.96875 46.296875 41.140625 47.34375 
Q 37.3125 48.390625 33.40625 48.390625 
Q 24.65625 48.390625 19.8125 42.84375 
Q 14.984375 37.3125 14.984375 27.296875 
Q 14.984375 17.28125 19.8125 11.734375 
Q 24.65625 6.203125 33.40625 6.203125 
Q 37.3125 6.203125 41.140625 7.25 
Q 44.96875 8.296875 48.78125 10.40625 
L 48.78125 2.09375 
Q 45.015625 0.34375 40.984375 -0.53125 
Q 36.96875 -1.421875 32.421875 -1.421875 
Q 20.0625 -1.421875 12.78125 6.34375 
Q 5.515625 14.109375 5.515625 27.296875 
Q 5.515625 40.671875 12.859375 48.328125 
Q 20.21875 56 33.015625 56 
Q 37.15625 56 41.109375 55.140625 
Q 45.0625 54.296875 48.78125 52.59375 
z
" id="DejaVuSans-99"/>
     <path d="M 9.421875 54.6875 
L 18.40625 54.6875 
L 18.40625 0 
L 9.421875 0 
z
M 9.421875 75.984375 
L 18.40625 75.984375 
L 18.40625 64.59375 
L 9.421875 64.59375 
z
" id="DejaVuSans-105"/>
     <path d="M 4.890625 31.390625 
L 31.203125 31.390625 
L 31.203125 23.390625 
L 4.890625 23.390625 
z
" id="DejaVuSans-45"/>
     <path d="M 32.171875 -5.078125 
Q 28.375 -14.84375 24.75 -17.8125 
Q 21.140625 -20.796875 15.09375 -20.796875 
L 7.90625 -20.796875 
L 7.90625 -13.28125 
L 13.1875 -13.28125 
Q 16.890625 -13.28125 18.9375 -11.515625 
Q 21 -9.765625 23.484375 -3.21875 
L 25.09375 0.875 
L 2.984375 54.6875 
L 12.5 54.6875 
L 29.59375 11.921875 
L 46.6875 54.6875 
L 56.203125 54.6875 
z
" id="DejaVuSans-121"/>
     <path d="M 9.078125 75.984375 
L 18.109375 75.984375 
L 18.109375 31.109375 
L 44.921875 54.6875 
L 56.390625 54.6875 
L 27.390625 29.109375 
L 57.625 0 
L 45.90625 0 
L 18.109375 26.703125 
L 18.109375 0 
L 9.078125 0 
z
" id="DejaVuSans-107"/>
    </defs>
    <g transform="translate(616.752656 87.312)scale(0.21 -0.21)">
     <use xlink:href="#DejaVuSans-82"/>
     <use x="69.419922" xlink:href="#DejaVuSans-101"/>
     <use x="130.943359" xlink:href="#DejaVuSans-102"/>
     <use x="166.148438" xlink:href="#DejaVuSans-101"/>
     <use x="227.671875" xlink:href="#DejaVuSans-114"/>
     <use x="268.753906" xlink:href="#DejaVuSans-101"/>
     <use x="330.277344" xlink:href="#DejaVuSans-110"/>
     <use x="393.65625" xlink:href="#DejaVuSans-99"/>
     <use x="448.636719" xlink:href="#DejaVuSans-105"/>
     <use x="476.419922" xlink:href="#DejaVuSans-97"/>
     <use x="537.699219" xlink:href="#DejaVuSans-32"/>
     <use x="569.486328" xlink:href="#DejaVuSans-45"/>
     <use x="605.570312" xlink:href="#DejaVuSans-32"/>
     <use x="637.357422" xlink:href="#DejaVuSans-121"/>
     <use x="696.537109" xlink:href="#DejaVuSans-114"/>
     <use x="737.650391" xlink:href="#DejaVuSans-40"/>
     <use x="776.664062" xlink:href="#DejaVuSans-107"/>
     <use x="834.574219" xlink:href="#DejaVuSans-41"/>
    </g>
   </g>
  </g>
  <g id="axes_2">
   <g id="patch_7">
    <path d="M 172.8 374.358857 
L 1244.16 374.358857 
L 1244.16 252.164571 
L 172.8 252.164571 
z
" style="fill:#ffffff;"/>
   </g>
   <g id="matplotlib.axis_3">
    <g id="xtick_10">
     <g id="line2d_32">
      <path clip-path="url(#p7f2e85f65f)" d="M 221.498182 374.358857 
L 221.498182 252.164571 
" style="fill:none;stroke:#808080;stroke-linecap:square;stroke-width:0.8;"/>
     </g>
     <g id="line2d_33">
      <g>
       <use style="stroke:#000000;stroke-width:0.8;" x="221.498182" xlink:href="#me370426d2a" y="374.358857"/>
      </g>
     </g>
    </g>
    <g id="xtick_11">
     <g id="line2d_34">
      <path clip-path="url(#p7f2e85f65f)" d="M 343.548763 374.358857 
L 343.548763 252.164571 
" style="fill:none;stroke:#808080;stroke-linecap:square;stroke-width:0.8;"/>
     </g>
     <g id="line2d_35">
      <g>
       <use style="stroke:#000000;stroke-width:0.8;" x="343.548763" xlink:href="#me370426d2a" y="374.358857"/>
      </g>
     </g>
    </g>
    <g id="xtick_12">
     <g id="line2d_36">
      <path clip-path="url(#p7f2e85f65f)" d="M 465.599344 374.358857 
L 465.599344 252.164571 
" style="fill:none;stroke:#808080;stroke-linecap:square;stroke-width:0.8;"/>
     </g>
     <g id="line2d_37">
      <g>
       <use style="stroke:#000000;stroke-width:0.8;" x="465.599344" xlink:href="#me370426d2a" y="374.358857"/>
      </g>
     </g>
    </g>
    <g id="xtick_13">
     <g id="line2d_38">
      <path clip-path="url(#p7f2e85f65f)" d="M 587.649925 374.358857 
L 587.649925 252.164571 
" style="fill:none;stroke:#808080;stroke-linecap:square;stroke-width:0.8;"/>
     </g>
     <g id="line2d_39">
      <g>
       <use style="stroke:#000000;stroke-width:0.8;" x="587.649925" xlink:href="#me370426d2a" y="374.358857"/>
      </g>
     </g>
    </g>
    <g id="xtick_14">
     <g id="line2d_40">
      <path clip-path="url(#p7f2e85f65f)" d="M 709.700506 374.358857 
L 709.700506 252.164571 
" style="fill:none;stroke:#808080;stroke-linecap:square;stroke-width:0.8;"/>
     </g>
     <g id="line2d_41">
      <g>
       <use style="stroke:#000000;stroke-width:0.8;" x="709.700506" xlink:href="#me370426d2a" y="374.358857"/>
      </g>
     </g>
    </g>
    <g id="xtick_15">
     <g id="line2d_42">
      <path clip-path="url(#p7f2e85f65f)" d="M 831.751087 374.358857 
L 831.751087 252.164571 
" style="fill:none;stroke:#808080;stroke-linecap:square;stroke-width:0.8;"/>
     </g>
     <g id="line2d_43">
      <g>
       <use style="stroke:#000000;stroke-width:0.8;" x="831.751087" xlink:href="#me370426d2a" y="374.358857"/>
      </g>
     </g>
    </g>
    <g id="xtick_16">
     <g id="line2d_44">
      <path clip-path="url(#p7f2e85f65f)" d="M 953.801668 374.358857 
L 953.801668 252.164571 
" style="fill:none;stroke:#808080;stroke-linecap:square;stroke-width:0.8;"/>
     </g>
     <g id="line2d_45">
      <g>
       <use style="stroke:#000000;stroke-width:0.8;" x="953.801668" xlink:href="#me370426d2a" y="374.358857"/>
      </g>
     </g>
    </g>
    <g id="xtick_17">
     <g id="line2d_46">
      <path clip-path="url(#p7f2e85f65f)" d="M 1075.852249 374.358857 
L 1075.852249 252.164571 
" style="fill:none;stroke:#808080;stroke-linecap:square;stroke-width:0.8;"/>
     </g>
     <g id="line2d_47">
      <g>
       <use style="stroke:#000000;stroke-width:0.8;" x="1075.852249" xlink:href="#me370426d2a" y="374.358857"/>
      </g>
     </g>
    </g>
    <g id="xtick_18">
     <g id="line2d_48">
      <path clip-path="url(#p7f2e85f65f)" d="M 1197.90283 374.358857 
L 1197.90283 252.164571 
" style="fill:none;stroke:#808080;stroke-linecap:square;stroke-width:0.8;"/>
     </g>
     <g id="line2d_49">
      <g>
       <use style="stroke:#000000;stroke-width:0.8;" x="1197.90283" xlink:href="#me370426d2a" y="374.358857"/>
      </g>
     </g>
    </g>
   </g>
   <g id="matplotlib.axis_4">
    <g id="ytick_7">
     <g id="line2d_50">
      <path clip-path="url(#p7f2e85f65f)" d="M 172.8 364.176 
L 1244.16 364.176 
" style="fill:none;stroke:#808080;stroke-linecap:square;stroke-width:0.8;"/>
     </g>
     <g id="line2d_51">
      <g>
       <use style="stroke:#000000;stroke-width:0.8;" x="172.8" xlink:href="#m7bca510f17" y="364.176"/>
      </g>
     </g>
     <g id="text_9">
      <!-- 0 -->
      <g transform="translate(159.4375 367.975219)scale(0.1 -0.1)">
       <use xlink:href="#DejaVuSans-48"/>
      </g>
     </g>
    </g>
    <g id="ytick_8">
     <g id="line2d_52">
      <path clip-path="url(#p7f2e85f65f)" d="M 172.8 343.810286 
L 1244.16 343.810286 
" style="fill:none;stroke:#808080;stroke-linecap:square;stroke-width:0.8;"/>
     </g>
     <g id="line2d_53">
      <g>
       <use style="stroke:#000000;stroke-width:0.8;" x="172.8" xlink:href="#m7bca510f17" y="343.810286"/>
      </g>
     </g>
     <g id="text_10">
      <!-- 1 -->
      <g transform="translate(159.4375 347.609504)scale(0.1 -0.1)">
       <use xlink:href="#DejaVuSans-49"/>
      </g>
     </g>
    </g>
    <g id="ytick_9">
     <g id="line2d_54">
      <path clip-path="url(#p7f2e85f65f)" d="M 172.8 323.444571 
L 1244.16 323.444571 
" style="fill:none;stroke:#808080;stroke-linecap:square;stroke-width:0.8;"/>
     </g>
     <g id="line2d_55">
      <g>
       <use style="stroke:#000000;stroke-width:0.8;" x="172.8" xlink:href="#m7bca510f17" y="323.444571"/>
      </g>
     </g>
     <g id="text_11">
      <!-- 2 -->
      <g transform="translate(159.4375 327.24379)scale(0.1 -0.1)">
       <use xlink:href="#DejaVuSans-50"/>
      </g>
     </g>
    </g>
    <g id="ytick_10">
     <g id="line2d_56">
      <path clip-path="url(#p7f2e85f65f)" d="M 172.8 303.078857 
L 1244.16 303.078857 
" style="fill:none;stroke:#808080;stroke-linecap:square;stroke-width:0.8;"/>
     </g>
     <g id="line2d_57">
      <g>
       <use style="stroke:#000000;stroke-width:0.8;" x="172.8" xlink:href="#m7bca510f17" y="303.078857"/>
      </g>
     </g>
     <g id="text_12">
      <!-- 3 -->
      <g transform="translate(159.4375 306.878076)scale(0.1 -0.1)">
       <use xlink:href="#DejaVuSans-51"/>
      </g>
     </g>
    </g>
    <g id="ytick_11">
     <g id="line2d_58">
      <path clip-path="url(#p7f2e85f65f)" d="M 172.8 282.713143 
L 1244.16 282.713143 
" style="fill:none;stroke:#808080;stroke-linecap:square;stroke-width:0.8;"/>
     </g>
     <g id="line2d_59">
      <g>
       <use style="stroke:#000000;stroke-width:0.8;" x="172.8" xlink:href="#m7bca510f17" y="282.713143"/>
      </g>
     </g>
     <g id="text_13">
      <!-- 4 -->
      <g transform="translate(159.4375 286.512362)scale(0.1 -0.1)">
       <use xlink:href="#DejaVuSans-52"/>
      </g>
     </g>
    </g>
    <g id="ytick_12">
     <g id="line2d_60">
      <path clip-path="url(#p7f2e85f65f)" d="M 172.8 262.347429 
L 1244.16 262.347429 
" style="fill:none;stroke:#808080;stroke-linecap:square;stroke-width:0.8;"/>
     </g>
     <g id="line2d_61">
      <g>
       <use style="stroke:#000000;stroke-width:0.8;" x="172.8" xlink:href="#m7bca510f17" y="262.347429"/>
      </g>
     </g>
     <g id="text_14">
      <!-- 5 -->
      <g transform="translate(159.4375 266.146647)scale(0.1 -0.1)">
       <use xlink:href="#DejaVuSans-53"/>
      </g>
     </g>
    </g>
    <g id="text_15">
     <!-- Voltagem (V) -->
     <g transform="translate(152.11 365.932964)rotate(-90)scale(0.16 -0.16)">
      <use xlink:href="#DejaVuSans-86"/>
      <use x="68.298828" xlink:href="#DejaVuSans-111"/>
      <use x="129.480469" xlink:href="#DejaVuSans-108"/>
      <use x="157.263672" xlink:href="#DejaVuSans-116"/>
      <use x="196.472656" xlink:href="#DejaVuSans-97"/>
      <use x="257.751953" xlink:href="#DejaVuSans-103"/>
      <use x="321.228516" xlink:href="#DejaVuSans-101"/>
      <use x="382.751953" xlink:href="#DejaVuSans-109"/>
      <use x="480.164062" xlink:href="#DejaVuSans-32"/>
      <use x="511.951172" xlink:href="#DejaVuSans-40"/>
      <use x="550.964844" xlink:href="#DejaVuSans-86"/>
      <use x="619.373047" xlink:href="#DejaVuSans-41"/>
     </g>
    </g>
   </g>
   <g id="line2d_62">
    <path clip-path="url(#p7f2e85f65f)" d="M 221.498182 364.176 
L 341.107751 364.176 
L 343.548763 262.347429 
L 345.989774 364.176 
L 348.430786 364.176 
L 350.871798 262.347429 
L 353.312809 364.176 
L 355.753821 324.142708 
L 358.194833 262.347429 
L 360.635844 364.176 
L 363.076856 262.347429 
L 365.517867 364.176 
L 367.958879 262.347429 
L 370.399891 364.176 
L 372.840902 262.347429 
L 375.281914 364.176 
L 377.722925 262.347429 
L 380.163937 364.176 
L 382.604949 262.347429 
L 385.04596 364.176 
L 387.486972 262.347429 
L 389.927984 364.176 
L 392.368995 262.347429 
L 394.810007 364.176 
L 397.251018 262.347429 
L 399.69203 364.176 
L 402.133042 262.347429 
L 404.574053 364.176 
L 407.015065 262.347429 
L 409.456077 364.176 
L 411.897088 262.347429 
L 414.3381 364.176 
L 416.779111 262.347429 
L 419.220123 364.176 
L 421.661135 262.347429 
L 424.102146 364.176 
L 426.543158 262.347429 
L 428.98417 364.176 
L 431.425181 262.347429 
L 433.866193 364.176 
L 436.307204 262.347429 
L 438.748216 364.176 
L 441.189228 262.347429 
L 443.630239 364.176 
L 446.071251 262.347429 
L 448.512262 364.176 
L 450.953274 262.347429 
L 453.394286 364.176 
L 455.835297 262.347429 
L 458.276309 364.176 
L 460.717321 262.347429 
L 463.158332 364.176 
L 465.599344 364.176 
L 468.040355 262.347429 
L 470.481367 364.176 
L 472.922379 317.870272 
L 475.36339 341.16746 
L 477.804402 313.416036 
L 480.245414 364.176 
L 482.686425 309.732743 
L 485.127437 364.176 
L 487.568448 291.285276 
L 490.00946 364.176 
L 492.450472 308.18556 
L 494.891483 364.176 
L 497.332495 288.440389 
L 499.773506 364.176 
L 502.214518 307.030213 
L 504.65553 364.176 
L 507.096541 299.539092 
L 509.537553 364.176 
L 511.978565 289.874135 
L 514.419576 364.176 
L 516.860588 314.964695 
L 519.301599 364.176 
L 521.742611 271.572486 
L 524.183623 364.176 
L 526.624634 364.176 
L 529.065646 262.347429 
L 531.506658 364.176 
L 533.947669 363.126758 
L 536.388681 262.347429 
L 538.829692 364.176 
L 541.270704 326.421632 
L 543.711716 309.107258 
L 546.152727 364.176 
L 548.593739 278.488072 
L 551.034751 364.176 
L 553.475762 326.545659 
L 555.916774 327.30384 
L 558.357785 364.176 
L 560.798797 272.330091 
L 563.239809 364.176 
L 565.68082 304.677769 
L 568.121832 364.176 
L 570.562843 298.017977 
L 573.003855 364.176 
L 575.444867 301.579533 
L 577.885878 364.176 
L 580.32689 307.290691 
L 582.767902 364.176 
L 585.208913 283.204975 
L 587.649925 262.347429 
L 590.090936 364.176 
L 592.531948 262.347429 
L 594.97296 364.176 
L 597.413971 262.347429 
L 599.854983 364.176 
L 602.295995 262.347429 
L 604.737006 364.176 
L 607.178018 262.347429 
L 609.619029 364.176 
L 612.060041 262.347429 
L 614.501053 364.176 
L 616.942064 262.347429 
L 619.383076 364.176 
L 621.824087 262.347429 
L 624.265099 364.176 
L 626.706111 262.347429 
L 629.147122 364.176 
L 631.588134 262.347429 
L 634.029146 364.176 
L 636.470157 262.347429 
L 638.911169 364.176 
L 641.35218 262.347429 
L 643.793192 364.176 
L 646.234204 262.347429 
L 648.675215 364.176 
L 651.116227 262.347429 
L 653.557239 364.176 
L 655.99825 262.347429 
L 658.439262 364.176 
L 660.880273 262.347429 
L 663.321285 364.176 
L 665.762297 262.347429 
L 668.203308 364.176 
L 670.64432 262.347429 
L 673.085332 364.176 
L 675.526343 262.347429 
L 677.967355 364.176 
L 680.408366 262.347429 
L 682.849378 364.176 
L 685.29039 262.347429 
L 687.731401 364.176 
L 690.172413 262.347429 
L 692.613424 364.176 
L 695.054436 262.347429 
L 697.495448 364.176 
L 699.936459 262.347429 
L 702.377471 364.176 
L 704.818483 262.347429 
L 707.259494 364.176 
L 709.700506 364.176 
L 712.141517 262.347429 
L 714.582529 364.176 
L 717.023541 323.993631 
L 719.464552 278.635845 
L 721.905564 364.176 
L 724.346576 285.372091 
L 726.787587 364.176 
L 729.228599 263.623544 
L 731.66961 364.176 
L 734.110622 306.289308 
L 736.551634 330.027998 
L 738.992645 308.680889 
L 741.433657 364.176 
L 743.874668 269.662997 
L 746.31568 364.176 
L 748.756692 333.343938 
L 751.197703 276.045857 
L 753.638715 364.176 
L 756.079727 269.498035 
L 758.520738 364.176 
L 760.96175 294.117943 
L 763.402761 364.176 
L 765.843773 264.230239 
L 768.284785 364.176 
L 770.725796 308.046666 
L 775.60782 336.914979 
L 778.048831 293.683016 
L 780.489843 364.176 
L 782.930854 265.531404 
L 785.371866 364.176 
L 787.812878 294.43687 
L 790.253889 364.176 
L 792.694901 262.347429 
L 795.135913 364.176 
L 797.576924 301.288915 
L 800.017936 341.389687 
L 802.458947 280.895921 
L 804.899959 364.176 
L 807.340971 289.686567 
L 809.781982 364.176 
L 812.222994 262.347429 
L 814.664005 364.176 
L 817.105017 312.319393 
L 819.546029 307.171964 
L 821.98704 364.176 
L 824.428052 268.7276 
L 826.869064 364.176 
L 829.310075 300.984447 
L 831.751087 262.347429 
L 834.192098 364.176 
L 836.63311 294.410395 
L 839.074122 315.271381 
L 841.515133 318.678268 
L 843.956145 313.716479 
L 846.397157 333.232066 
L 848.838168 280.945699 
L 851.27918 364.176 
L 853.720191 265.175412 
L 856.161203 364.176 
L 858.602215 262.347429 
L 861.043226 364.176 
L 863.484238 286.794839 
L 865.925249 333.042751 
L 868.366261 284.383373 
L 870.807273 364.176 
L 873.248284 262.347429 
L 875.689296 364.176 
L 878.130308 264.827565 
L 880.571319 364.176 
L 883.012331 291.465309 
L 885.453342 326.875781 
L 887.894354 289.98377 
L 890.335366 364.176 
L 892.776377 262.347429 
L 895.217389 364.176 
L 897.658401 289.100849 
L 900.099412 347.611767 
L 902.540424 262.347429 
L 904.981435 364.176 
L 907.422447 280.481672 
L 909.863459 361.277695 
L 912.30447 262.347429 
L 914.745482 364.176 
L 917.186494 291.648193 
L 919.627505 320.506486 
L 922.068517 310.062445 
L 924.509528 336.191885 
L 926.95054 288.808506 
L 929.391552 364.176 
L 931.832563 262.347429 
L 934.273575 364.176 
L 936.714586 310.75388 
L 939.155598 288.720655 
L 941.59661 364.176 
L 944.037621 264.244699 
L 946.478633 364.176 
L 948.919645 282.897656 
L 951.360656 364.176 
L 953.801668 364.176 
L 956.242679 262.347429 
L 958.683691 364.176 
L 961.124703 355.653152 
L 963.565714 262.347429 
L 966.006726 364.176 
L 968.447738 311.662395 
L 970.888749 348.895011 
L 973.329761 283.541149 
L 975.770772 364.176 
L 978.211784 309.598941 
L 980.652796 364.176 
L 983.093807 279.962346 
L 985.534819 364.176 
L 987.97583 316.424917 
L 990.416842 361.91199 
L 992.857854 281.776924 
L 995.298865 364.176 
L 997.739877 322.601635 
L 1000.180889 346.521219 
L 1002.6219 309.107319 
L 1005.062912 364.176 
L 1007.503923 305.793811 
L 1009.944935 364.176 
L 1012.385947 290.490605 
L 1014.826958 364.176 
L 1017.26797 323.473898 
L 1019.708982 364.176 
L 1022.149993 275.959872 
L 1024.591005 364.176 
L 1027.032016 341.963523 
L 1029.473028 293.333653 
L 1031.91404 364.176 
L 1034.355051 322.43321 
L 1036.796063 357.936366 
L 1039.237075 285.280821 
L 1041.678086 364.176 
L 1044.119098 320.744078 
L 1046.560109 364.176 
L 1049.001121 274.982318 
L 1051.442133 364.176 
L 1053.883144 359.046284 
L 1056.324156 262.347429 
L 1058.765167 364.176 
L 1061.206179 364.176 
L 1063.647191 262.347429 
L 1066.088202 364.176 
L 1068.529214 333.524378 
L 1070.970226 296.110991 
L 1073.411237 364.176 
L 1075.852249 262.347429 
L 1078.29326 364.176 
L 1080.734272 296.447373 
L 1083.175284 307.010108 
L 1085.616295 312.610439 
L 1088.057307 309.237151 
L 1090.498319 327.29661 
L 1092.93933 271.234114 
L 1095.380342 364.176 
L 1097.821353 262.347429 
L 1100.262365 364.176 
L 1102.703377 262.347429 
L 1105.144388 364.176 
L 1107.5854 264.408032 
L 1110.026411 364.176 
L 1112.467423 262.347429 
L 1114.908435 364.176 
L 1117.349446 267.64007 
L 1119.790458 364.176 
L 1122.23147 262.347429 
L 1124.672481 364.176 
L 1127.113493 270.328141 
L 1129.554504 364.176 
L 1131.995516 262.347429 
L 1134.436528 364.176 
L 1136.877539 262.347429 
L 1139.318551 364.176 
L 1141.759563 262.347429 
L 1144.200574 364.176 
L 1146.641586 262.347429 
L 1149.082597 364.176 
L 1151.523609 262.347429 
L 1153.964621 364.176 
L 1156.405632 262.347429 
L 1158.846644 364.176 
L 1161.287656 263.257369 
L 1163.728667 364.176 
L 1166.169679 262.347429 
L 1168.61069 364.176 
L 1171.051702 262.347429 
L 1173.492714 364.176 
L 1175.933725 262.347429 
L 1178.374737 364.176 
L 1180.815748 264.726959 
L 1183.25676 364.176 
L 1185.697772 262.347429 
L 1188.138783 364.176 
L 1190.579795 267.744954 
L 1193.020807 364.176 
L 1195.461818 262.347429 
L 1195.461818 262.347429 
" style="fill:none;stroke:#008000;stroke-dasharray:14.8,6.4;stroke-dashoffset:0;stroke-width:4;"/>
   </g>
   <g id="patch_8">
    <path d="M 172.8 374.358857 
L 172.8 252.164571 
" style="fill:none;stroke:#000000;stroke-linecap:square;stroke-linejoin:miter;stroke-width:0.8;"/>
   </g>
   <g id="patch_9">
    <path d="M 1244.16 374.358857 
L 1244.16 252.164571 
" style="fill:none;stroke:#000000;stroke-linecap:square;stroke-linejoin:miter;stroke-width:0.8;"/>
   </g>
   <g id="patch_10">
    <path d="M 172.8 374.358857 
L 1244.16 374.358857 
" style="fill:none;stroke:#000000;stroke-linecap:square;stroke-linejoin:miter;stroke-width:0.8;"/>
   </g>
   <g id="patch_11">
    <path d="M 172.8 252.164571 
L 1244.16 252.164571 
" style="fill:none;stroke:#000000;stroke-linecap:square;stroke-linejoin:miter;stroke-width:0.8;"/>
   </g>
   <g id="text_16">
    <!-- Saída controlador - u(k) -->
    <defs>
     <path d="M 53.515625 70.515625 
L 53.515625 60.890625 
Q 47.90625 63.578125 42.921875 64.890625 
Q 37.9375 66.21875 33.296875 66.21875 
Q 25.25 66.21875 20.875 63.09375 
Q 16.5 59.96875 16.5 54.203125 
Q 16.5 49.359375 19.40625 46.890625 
Q 22.3125 44.4375 30.421875 42.921875 
L 36.375 41.703125 
Q 47.40625 39.59375 52.65625 34.296875 
Q 57.90625 29 57.90625 20.125 
Q 57.90625 9.515625 50.796875 4.046875 
Q 43.703125 -1.421875 29.984375 -1.421875 
Q 24.8125 -1.421875 18.96875 -0.25 
Q 13.140625 0.921875 6.890625 3.21875 
L 6.890625 13.375 
Q 12.890625 10.015625 18.65625 8.296875 
Q 24.421875 6.59375 29.984375 6.59375 
Q 38.421875 6.59375 43.015625 9.90625 
Q 47.609375 13.234375 47.609375 19.390625 
Q 47.609375 24.75 44.3125 27.78125 
Q 41.015625 30.8125 33.5 32.328125 
L 27.484375 33.5 
Q 16.453125 35.6875 11.515625 40.375 
Q 6.59375 45.0625 6.59375 53.421875 
Q 6.59375 63.09375 13.40625 68.65625 
Q 20.21875 74.21875 32.171875 74.21875 
Q 37.3125 74.21875 42.625 73.28125 
Q 47.953125 72.359375 53.515625 70.515625 
z
" id="DejaVuSans-83"/>
     <path d="M 20.65625 79.984375 
L 30.375 79.984375 
L 14.46875 61.625 
L 6.984375 61.625 
z
M 9.421875 54.6875 
L 18.40625 54.6875 
L 18.40625 0 
L 9.421875 0 
z
M 13.921875 56 
z
" id="DejaVuSans-237"/>
     <path d="M 45.40625 46.390625 
L 45.40625 75.984375 
L 54.390625 75.984375 
L 54.390625 0 
L 45.40625 0 
L 45.40625 8.203125 
Q 42.578125 3.328125 38.25 0.953125 
Q 33.9375 -1.421875 27.875 -1.421875 
Q 17.96875 -1.421875 11.734375 6.484375 
Q 5.515625 14.40625 5.515625 27.296875 
Q 5.515625 40.1875 11.734375 48.09375 
Q 17.96875 56 27.875 56 
Q 33.9375 56 38.25 53.625 
Q 42.578125 51.265625 45.40625 46.390625 
z
M 14.796875 27.296875 
Q 14.796875 17.390625 18.875 11.75 
Q 22.953125 6.109375 30.078125 6.109375 
Q 37.203125 6.109375 41.296875 11.75 
Q 45.40625 17.390625 45.40625 27.296875 
Q 45.40625 37.203125 41.296875 42.84375 
Q 37.203125 48.484375 30.078125 48.484375 
Q 22.953125 48.484375 18.875 42.84375 
Q 14.796875 37.203125 14.796875 27.296875 
z
" id="DejaVuSans-100"/>
     <path d="M 8.5 21.578125 
L 8.5 54.6875 
L 17.484375 54.6875 
L 17.484375 21.921875 
Q 17.484375 14.15625 20.5 10.265625 
Q 23.53125 6.390625 29.59375 6.390625 
Q 36.859375 6.390625 41.078125 11.03125 
Q 45.3125 15.671875 45.3125 23.6875 
L 45.3125 54.6875 
L 54.296875 54.6875 
L 54.296875 0 
L 45.3125 0 
L 45.3125 8.40625 
Q 42.046875 3.421875 37.71875 1 
Q 33.40625 -1.421875 27.6875 -1.421875 
Q 18.265625 -1.421875 13.375 4.4375 
Q 8.5 10.296875 8.5 21.578125 
z
M 31.109375 56 
z
" id="DejaVuSans-117"/>
    </defs>
    <g transform="translate(584.169844 246.164571)scale(0.21 -0.21)">
     <use xlink:href="#DejaVuSans-83"/>
     <use x="63.476562" xlink:href="#DejaVuSans-97"/>
     <use x="124.755859" xlink:href="#DejaVuSans-237"/>
     <use x="152.539062" xlink:href="#DejaVuSans-100"/>
     <use x="216.015625" xlink:href="#DejaVuSans-97"/>
     <use x="277.294922" xlink:href="#DejaVuSans-32"/>
     <use x="309.082031" xlink:href="#DejaVuSans-99"/>
     <use x="364.0625" xlink:href="#DejaVuSans-111"/>
     <use x="425.244141" xlink:href="#DejaVuSans-110"/>
     <use x="488.623047" xlink:href="#DejaVuSans-116"/>
     <use x="527.832031" xlink:href="#DejaVuSans-114"/>
     <use x="568.914062" xlink:href="#DejaVuSans-111"/>
     <use x="630.095703" xlink:href="#DejaVuSans-108"/>
     <use x="657.878906" xlink:href="#DejaVuSans-97"/>
     <use x="719.158203" xlink:href="#DejaVuSans-100"/>
     <use x="782.634766" xlink:href="#DejaVuSans-111"/>
     <use x="843.816406" xlink:href="#DejaVuSans-114"/>
     <use x="884.929688" xlink:href="#DejaVuSans-32"/>
     <use x="916.716797" xlink:href="#DejaVuSans-45"/>
     <use x="952.800781" xlink:href="#DejaVuSans-32"/>
     <use x="984.587891" xlink:href="#DejaVuSans-117"/>
     <use x="1047.966797" xlink:href="#DejaVuSans-40"/>
     <use x="1086.980469" xlink:href="#DejaVuSans-107"/>
     <use x="1144.890625" xlink:href="#DejaVuSans-41"/>
    </g>
   </g>
  </g>
  <g id="axes_3">
   <g id="patch_12">
    <path d="M 172.8 533.211429 
L 1244.16 533.211429 
L 1244.16 411.017143 
L 172.8 411.017143 
z
" style="fill:#ffffff;"/>
   </g>
   <g id="matplotlib.axis_5">
    <g id="xtick_19">
     <g id="line2d_63">
      <path clip-path="url(#pff525e7f1d)" d="M 221.498182 533.211429 
L 221.498182 411.017143 
" style="fill:none;stroke:#808080;stroke-linecap:square;stroke-width:0.8;"/>
     </g>
     <g id="line2d_64">
      <g>
       <use style="stroke:#000000;stroke-width:0.8;" x="221.498182" xlink:href="#me370426d2a" y="533.211429"/>
      </g>
     </g>
    </g>
    <g id="xtick_20">
     <g id="line2d_65">
      <path clip-path="url(#pff525e7f1d)" d="M 343.548763 533.211429 
L 343.548763 411.017143 
" style="fill:none;stroke:#808080;stroke-linecap:square;stroke-width:0.8;"/>
     </g>
     <g id="line2d_66">
      <g>
       <use style="stroke:#000000;stroke-width:0.8;" x="343.548763" xlink:href="#me370426d2a" y="533.211429"/>
      </g>
     </g>
    </g>
    <g id="xtick_21">
     <g id="line2d_67">
      <path clip-path="url(#pff525e7f1d)" d="M 465.599344 533.211429 
L 465.599344 411.017143 
" style="fill:none;stroke:#808080;stroke-linecap:square;stroke-width:0.8;"/>
     </g>
     <g id="line2d_68">
      <g>
       <use style="stroke:#000000;stroke-width:0.8;" x="465.599344" xlink:href="#me370426d2a" y="533.211429"/>
      </g>
     </g>
    </g>
    <g id="xtick_22">
     <g id="line2d_69">
      <path clip-path="url(#pff525e7f1d)" d="M 587.649925 533.211429 
L 587.649925 411.017143 
" style="fill:none;stroke:#808080;stroke-linecap:square;stroke-width:0.8;"/>
     </g>
     <g id="line2d_70">
      <g>
       <use style="stroke:#000000;stroke-width:0.8;" x="587.649925" xlink:href="#me370426d2a" y="533.211429"/>
      </g>
     </g>
    </g>
    <g id="xtick_23">
     <g id="line2d_71">
      <path clip-path="url(#pff525e7f1d)" d="M 709.700506 533.211429 
L 709.700506 411.017143 
" style="fill:none;stroke:#808080;stroke-linecap:square;stroke-width:0.8;"/>
     </g>
     <g id="line2d_72">
      <g>
       <use style="stroke:#000000;stroke-width:0.8;" x="709.700506" xlink:href="#me370426d2a" y="533.211429"/>
      </g>
     </g>
    </g>
    <g id="xtick_24">
     <g id="line2d_73">
      <path clip-path="url(#pff525e7f1d)" d="M 831.751087 533.211429 
L 831.751087 411.017143 
" style="fill:none;stroke:#808080;stroke-linecap:square;stroke-width:0.8;"/>
     </g>
     <g id="line2d_74">
      <g>
       <use style="stroke:#000000;stroke-width:0.8;" x="831.751087" xlink:href="#me370426d2a" y="533.211429"/>
      </g>
     </g>
    </g>
    <g id="xtick_25">
     <g id="line2d_75">
      <path clip-path="url(#pff525e7f1d)" d="M 953.801668 533.211429 
L 953.801668 411.017143 
" style="fill:none;stroke:#808080;stroke-linecap:square;stroke-width:0.8;"/>
     </g>
     <g id="line2d_76">
      <g>
       <use style="stroke:#000000;stroke-width:0.8;" x="953.801668" xlink:href="#me370426d2a" y="533.211429"/>
      </g>
     </g>
    </g>
    <g id="xtick_26">
     <g id="line2d_77">
      <path clip-path="url(#pff525e7f1d)" d="M 1075.852249 533.211429 
L 1075.852249 411.017143 
" style="fill:none;stroke:#808080;stroke-linecap:square;stroke-width:0.8;"/>
     </g>
     <g id="line2d_78">
      <g>
       <use style="stroke:#000000;stroke-width:0.8;" x="1075.852249" xlink:href="#me370426d2a" y="533.211429"/>
      </g>
     </g>
    </g>
    <g id="xtick_27">
     <g id="line2d_79">
      <path clip-path="url(#pff525e7f1d)" d="M 1197.90283 533.211429 
L 1197.90283 411.017143 
" style="fill:none;stroke:#808080;stroke-linecap:square;stroke-width:0.8;"/>
     </g>
     <g id="line2d_80">
      <g>
       <use style="stroke:#000000;stroke-width:0.8;" x="1197.90283" xlink:href="#me370426d2a" y="533.211429"/>
      </g>
     </g>
    </g>
   </g>
   <g id="matplotlib.axis_6">
    <g id="ytick_13">
     <g id="line2d_81">
      <path clip-path="url(#pff525e7f1d)" d="M 172.8 523.028571 
L 1244.16 523.028571 
" style="fill:none;stroke:#808080;stroke-linecap:square;stroke-width:0.8;"/>
     </g>
     <g id="line2d_82">
      <g>
       <use style="stroke:#000000;stroke-width:0.8;" x="172.8" xlink:href="#m7bca510f17" y="523.028571"/>
      </g>
     </g>
     <g id="text_17">
      <!-- 0 -->
      <g transform="translate(159.4375 526.82779)scale(0.1 -0.1)">
       <use xlink:href="#DejaVuSans-48"/>
      </g>
     </g>
    </g>
    <g id="ytick_14">
     <g id="line2d_83">
      <path clip-path="url(#pff525e7f1d)" d="M 172.8 502.662857 
L 1244.16 502.662857 
" style="fill:none;stroke:#808080;stroke-linecap:square;stroke-width:0.8;"/>
     </g>
     <g id="line2d_84">
      <g>
       <use style="stroke:#000000;stroke-width:0.8;" x="172.8" xlink:href="#m7bca510f17" y="502.662857"/>
      </g>
     </g>
     <g id="text_18">
      <!-- 1 -->
      <g transform="translate(159.4375 506.462076)scale(0.1 -0.1)">
       <use xlink:href="#DejaVuSans-49"/>
      </g>
     </g>
    </g>
    <g id="ytick_15">
     <g id="line2d_85">
      <path clip-path="url(#pff525e7f1d)" d="M 172.8 482.297143 
L 1244.16 482.297143 
" style="fill:none;stroke:#808080;stroke-linecap:square;stroke-width:0.8;"/>
     </g>
     <g id="line2d_86">
      <g>
       <use style="stroke:#000000;stroke-width:0.8;" x="172.8" xlink:href="#m7bca510f17" y="482.297143"/>
      </g>
     </g>
     <g id="text_19">
      <!-- 2 -->
      <g transform="translate(159.4375 486.096362)scale(0.1 -0.1)">
       <use xlink:href="#DejaVuSans-50"/>
      </g>
     </g>
    </g>
    <g id="ytick_16">
     <g id="line2d_87">
      <path clip-path="url(#pff525e7f1d)" d="M 172.8 461.931429 
L 1244.16 461.931429 
" style="fill:none;stroke:#808080;stroke-linecap:square;stroke-width:0.8;"/>
     </g>
     <g id="line2d_88">
      <g>
       <use style="stroke:#000000;stroke-width:0.8;" x="172.8" xlink:href="#m7bca510f17" y="461.931429"/>
      </g>
     </g>
     <g id="text_20">
      <!-- 3 -->
      <g transform="translate(159.4375 465.730647)scale(0.1 -0.1)">
       <use xlink:href="#DejaVuSans-51"/>
      </g>
     </g>
    </g>
    <g id="ytick_17">
     <g id="line2d_89">
      <path clip-path="url(#pff525e7f1d)" d="M 172.8 441.565714 
L 1244.16 441.565714 
" style="fill:none;stroke:#808080;stroke-linecap:square;stroke-width:0.8;"/>
     </g>
     <g id="line2d_90">
      <g>
       <use style="stroke:#000000;stroke-width:0.8;" x="172.8" xlink:href="#m7bca510f17" y="441.565714"/>
      </g>
     </g>
     <g id="text_21">
      <!-- 4 -->
      <g transform="translate(159.4375 445.364933)scale(0.1 -0.1)">
       <use xlink:href="#DejaVuSans-52"/>
      </g>
     </g>
    </g>
    <g id="ytick_18">
     <g id="line2d_91">
      <path clip-path="url(#pff525e7f1d)" d="M 172.8 421.2 
L 1244.16 421.2 
" style="fill:none;stroke:#808080;stroke-linecap:square;stroke-width:0.8;"/>
     </g>
     <g id="line2d_92">
      <g>
       <use style="stroke:#000000;stroke-width:0.8;" x="172.8" xlink:href="#m7bca510f17" y="421.2"/>
      </g>
     </g>
     <g id="text_22">
      <!-- 5 -->
      <g transform="translate(159.4375 424.999219)scale(0.1 -0.1)">
       <use xlink:href="#DejaVuSans-53"/>
      </g>
     </g>
    </g>
    <g id="text_23">
     <!-- Voltagem (V) -->
     <g transform="translate(152.11 524.785536)rotate(-90)scale(0.16 -0.16)">
      <use xlink:href="#DejaVuSans-86"/>
      <use x="68.298828" xlink:href="#DejaVuSans-111"/>
      <use x="129.480469" xlink:href="#DejaVuSans-108"/>
      <use x="157.263672" xlink:href="#DejaVuSans-116"/>
      <use x="196.472656" xlink:href="#DejaVuSans-97"/>
      <use x="257.751953" xlink:href="#DejaVuSans-103"/>
      <use x="321.228516" xlink:href="#DejaVuSans-101"/>
      <use x="382.751953" xlink:href="#DejaVuSans-109"/>
      <use x="480.164062" xlink:href="#DejaVuSans-32"/>
      <use x="511.951172" xlink:href="#DejaVuSans-40"/>
      <use x="550.964844" xlink:href="#DejaVuSans-86"/>
      <use x="619.373047" xlink:href="#DejaVuSans-41"/>
     </g>
    </g>
   </g>
   <g id="line2d_93">
    <path clip-path="url(#pff525e7f1d)" d="M 221.498182 523.028571 
L 343.548763 523.028571 
L 345.989774 489.9852 
L 348.430786 472.857634 
L 350.871798 487.093269 
L 353.312809 462.012891 
L 355.753821 463.601417 
L 358.194833 469.375097 
L 360.635844 445.486114 
L 363.076856 455.047817 
L 365.517867 441.402789 
L 367.958879 455.139463 
L 370.399891 442.29888 
L 372.840902 452.858503 
L 375.281914 441.209314 
L 377.722925 454.447029 
L 380.163937 442.29888 
L 382.604949 456.432686 
L 385.04596 441.311143 
L 387.486972 454.049897 
L 389.927984 442.207234 
L 392.368995 455.241291 
L 394.810007 441.504617 
L 397.251018 454.243371 
L 399.69203 442.105406 
L 402.133042 455.139463 
L 404.574053 441.209314 
L 407.015065 454.049897 
L 409.456077 442.899669 
L 411.897088 454.945989 
L 414.3381 441.708274 
L 416.779111 453.051977 
L 419.220123 440.506697 
L 421.661135 454.742331 
L 424.102146 441.901749 
L 426.543158 453.255634 
L 428.98417 440.608526 
L 431.425181 454.447029 
L 433.866193 442.105406 
L 436.307204 452.950149 
L 438.748216 441.504617 
L 441.189228 454.447029 
L 443.630239 441.79992 
L 446.071251 455.84208 
L 448.512262 441.504617 
L 450.953274 454.447029 
L 453.394286 442.003577 
L 455.835297 455.536594 
L 458.276309 441.107486 
L 460.717321 454.049897 
L 463.158332 442.207234 
L 465.599344 455.34312 
L 468.040355 472.267029 
L 470.481367 448.174389 
L 472.922379 459.426446 
L 475.36339 464.701166 
L 477.804402 473.356594 
L 480.245414 471.370937 
L 482.686425 481.126114 
L 485.127437 473.855554 
L 487.568448 485.005783 
L 490.00946 467.582914 
L 492.450472 477.837051 
L 494.891483 471.269109 
L 497.332495 482.918297 
L 499.773506 464.497509 
L 502.214518 475.148777 
L 504.65553 470.474846 
L 507.096541 481.21776 
L 509.537553 468.876137 
L 511.978565 480.627154 
L 514.419576 464.39568 
L 516.860588 474.354514 
L 519.301599 473.356594 
L 521.742611 486.299006 
L 524.183623 459.029314 
L 526.624634 464.89464 
L 529.065646 483.009943 
L 531.506658 453.255634 
L 533.947669 460.017051 
L 536.388681 479.527406 
L 538.829692 448.673349 
L 541.270704 459.12096 
L 543.711716 467.786571 
L 546.152727 465.994389 
L 548.593739 479.028446 
L 551.034751 457.827737 
L 553.475762 467.38944 
L 555.916774 473.66208 
L 558.357785 475.851394 
L 560.798797 488.48832 
L 563.239809 456.34104 
L 565.68082 467.980046 
L 568.121832 465.597257 
L 570.562843 476.94096 
L 573.003855 468.479006 
L 575.444867 479.232103 
L 577.885878 469.476926 
L 580.32689 479.629234 
L 582.767902 471.961543 
L 585.208913 484.007863 
L 587.649925 461.1168 
L 590.090936 442.400709 
L 592.531948 456.035554 
L 594.97296 441.606446 
L 597.413971 453.84624 
L 599.854983 442.29888 
L 602.295995 455.536594 
L 604.737006 441.402789 
L 607.178018 453.84624 
L 609.619029 442.400709 
L 612.060041 454.640503 
L 614.501053 441.606446 
L 616.942064 453.34728 
L 619.383076 440.506697 
L 621.824087 454.3452 
L 624.265099 441.79992 
L 626.706111 453.153806 
L 629.147122 440.710354 
L 631.588134 454.3452 
L 634.029146 442.207234 
L 636.470157 452.451189 
L 638.911169 440.710354 
L 641.35218 454.049897 
L 643.793192 442.29888 
L 646.234204 455.84208 
L 648.675215 440.903829 
L 651.116227 453.449109 
L 653.557239 442.105406 
L 655.99825 455.638423 
L 658.439262 441.209314 
L 660.880273 453.652766 
L 663.321285 442.502537 
L 665.762297 455.139463 
L 668.203308 441.606446 
L 670.64432 452.950149 
L 673.085332 440.710354 
L 675.526343 455.047817 
L 677.967355 441.606446 
L 680.408366 453.255634 
L 682.849378 440.608526 
L 685.29039 454.640503 
L 687.731401 441.402789 
L 690.172413 453.153806 
L 692.613424 440.812183 
L 695.054436 454.447029 
L 697.495448 442.003577 
L 699.936459 452.756674 
L 702.377471 441.107486 
L 704.818483 453.948069 
L 707.259494 441.901749 
L 709.700506 456.137383 
L 712.141517 472.857634 
L 714.582529 447.176469 
L 717.023541 456.035554 
L 719.464552 465.597257 
L 721.905564 453.744411 
L 724.346576 465.3936 
L 726.787587 458.326697 
L 729.228599 471.462583 
L 731.66961 445.883246 
L 734.110622 456.432686 
L 736.551634 460.322537 
L 738.992645 467.185783 
L 741.433657 465.200126 
L 743.874668 477.144617 
L 746.31568 455.139463 
L 748.756692 462.410023 
L 751.197703 472.1652 
L 753.638715 453.84624 
L 756.079727 466.89048 
L 758.520738 447.777257 
L 760.96175 459.222789 
L 763.402761 458.723829 
L 765.843773 471.768069 
L 768.284785 446.280377 
L 770.725796 456.636343 
L 773.166808 461.310274 
L 775.60782 465.098297 
L 778.048831 473.254766 
L 780.489843 463.805074 
L 782.930854 476.248526 
L 785.371866 447.481954 
L 787.812878 458.927486 
L 790.253889 458.031394 
L 792.694901 472.1652 
L 795.135913 445.29264 
L 797.576924 456.34104 
L 800.017936 458.927486 
L 802.458947 469.079794 
L 804.899959 456.035554 
L 807.340971 467.083954 
L 809.781982 459.222789 
L 812.222994 472.562331 
L 814.664005 446.585863 
L 817.105017 456.534514 
L 819.546029 462.807154 
L 821.98704 461.911063 
L 824.428052 474.252686 
L 826.869064 451.860583 
L 829.310075 462.308194 
L 831.751087 460.821497 
L 834.192098 442.696011 
L 836.63311 452.654846 
L 839.074122 455.536594 
L 841.515133 459.12096 
L 843.956145 463.010811 
L 846.397157 464.497509 
L 848.838168 471.66624 
L 851.27918 456.34104 
L 853.720191 467.582914 
L 856.161203 444.79368 
L 858.602215 457.430606 
L 861.043226 442.502537 
L 863.484238 453.153806 
L 865.925249 453.948069 
L 868.366261 461.809234 
L 870.807273 455.536594 
L 873.248284 469.273269 
L 875.689296 444.091063 
L 878.130308 456.534514 
L 880.571319 443.398629 
L 883.012331 453.550937 
L 885.453342 455.139463 
L 887.894354 462.012891 
L 890.335366 457.237131 
L 892.776377 470.973806 
L 895.217389 445.587943 
L 897.658401 455.740251 
L 900.099412 455.139463 
L 902.540424 467.185783 
L 904.981435 444.192891 
L 907.422447 455.241291 
L 909.863459 452.950149 
L 912.30447 465.994389 
L 914.745482 444.29472 
L 917.186494 454.3452 
L 919.627505 456.432686 
L 922.068517 461.014971 
L 924.509528 462.206366 
L 926.95054 469.079794 
L 929.391552 459.61992 
L 931.832563 472.1652 
L 934.273575 447.380126 
L 936.714586 455.444949 
L 939.155598 461.412103 
L 941.59661 456.137383 
L 944.037621 467.481086 
L 946.478633 447.176469 
L 948.919645 457.725909 
L 951.360656 453.84624 
L 953.801668 465.790731 
L 956.242679 483.814389 
L 958.683691 451.758754 
L 961.124703 459.324617 
L 963.565714 475.046949 
L 966.006726 446.677509 
L 968.447738 458.622 
L 970.888749 462.908983 
L 973.329761 474.853474 
L 975.770772 459.029314 
L 978.211784 469.975886 
L 980.652796 468.784491 
L 983.093807 481.421417 
L 985.534819 457.929566 
L 987.97583 468.377177 
L 990.416842 470.871977 
L 992.857854 483.009943 
L 995.298865 460.414183 
L 997.739877 470.077714 
L 1000.180889 474.150857 
L 1002.6219 482.612811 
L 1005.062912 474.059211 
L 1007.503923 483.906034 
L 1009.944935 472.460503 
L 1012.385947 483.814389 
L 1014.826958 465.89256 
L 1017.26797 474.955303 
L 1019.708982 476.645657 
L 1022.149993 488.885451 
L 1024.591005 462.410023 
L 1027.032016 470.16936 
L 1029.473028 480.128194 
L 1031.91404 465.790731 
L 1034.355051 474.955303 
L 1036.796063 477.541749 
L 1039.237075 488.48832 
L 1041.678086 463.306114 
L 1044.119098 472.857634 
L 1046.560109 474.354514 
L 1049.001121 486.899794 
L 1051.442133 460.017051 
L 1053.883144 466.493349 
L 1056.324156 484.007863 
L 1058.765167 453.051977 
L 1061.206179 459.426446 
L 1063.647191 475.250606 
L 1066.088202 448.276217 
L 1068.529214 458.133223 
L 1070.970226 468.479006 
L 1073.411237 462.012891 
L 1075.852249 474.751646 
L 1078.29326 448.57152 
L 1080.734272 455.84208 
L 1085.616295 458.825657 
L 1088.057307 460.821497 
L 1090.498319 460.821497 
L 1092.93933 466.89048 
L 1095.380342 448.673349 
L 1097.821353 460.11888 
L 1100.262365 444.396549 
L 1102.703377 455.638423 
L 1105.144388 441.79992 
L 1107.5854 452.553017 
L 1110.026411 440.812183 
L 1112.467423 454.640503 
L 1114.908435 442.003577 
L 1117.349446 452.451189 
L 1119.790458 443.500457 
L 1122.23147 457.135303 
L 1124.672481 442.604366 
L 1127.113493 452.756674 
L 1129.554504 445.689771 
L 1131.995516 458.326697 
L 1134.436528 443.398629 
L 1136.877539 456.239211 
L 1139.318551 441.107486 
L 1141.759563 453.449109 
L 1144.200574 442.105406 
L 1146.641586 455.139463 
L 1149.082597 441.107486 
L 1151.523609 453.34728 
L 1153.964621 441.708274 
L 1156.405632 454.945989 
L 1158.846644 441.79992 
L 1161.287656 452.654846 
L 1163.728667 440.710354 
L 1166.169679 454.548857 
L 1168.61069 441.209314 
L 1171.051702 452.553017 
L 1173.492714 440.812183 
L 1175.933725 454.151726 
L 1178.374737 441.504617 
L 1180.815748 452.257714 
L 1183.25676 441.606446 
L 1185.697772 454.84416 
L 1188.138783 441.79992 
L 1190.579795 452.257714 
L 1193.020807 443.79576 
L 1195.461818 456.34104 
L 1195.461818 456.34104 
" style="fill:none;stroke:#ff0000;stroke-linecap:square;stroke-width:4;"/>
   </g>
   <g id="line2d_94">
    <path clip-path="url(#pff525e7f1d)" d="M 221.498182 523.028571 
L 341.107751 523.028571 
L 343.548763 441.565714 
L 463.158332 441.565714 
L 465.599344 523.028571 
L 585.208913 523.028571 
L 587.649925 421.2 
L 707.259494 421.2 
L 709.700506 502.662857 
L 829.310075 502.662857 
L 831.751087 482.297143 
L 951.360656 482.297143 
L 953.801668 523.028571 
L 1073.411237 523.028571 
L 1075.852249 461.931429 
L 1195.461818 461.931429 
L 1195.461818 461.931429 
" style="fill:none;stroke:#0000ff;stroke-dasharray:7.4,3.2;stroke-dashoffset:0;stroke-width:2;"/>
   </g>
   <g id="patch_13">
    <path d="M 172.8 533.211429 
L 172.8 411.017143 
" style="fill:none;stroke:#000000;stroke-linecap:square;stroke-linejoin:miter;stroke-width:0.8;"/>
   </g>
   <g id="patch_14">
    <path d="M 1244.16 533.211429 
L 1244.16 411.017143 
" style="fill:none;stroke:#000000;stroke-linecap:square;stroke-linejoin:miter;stroke-width:0.8;"/>
   </g>
   <g id="patch_15">
    <path d="M 172.8 533.211429 
L 1244.16 533.211429 
" style="fill:none;stroke:#000000;stroke-linecap:square;stroke-linejoin:miter;stroke-width:0.8;"/>
   </g>
   <g id="patch_16">
    <path d="M 172.8 411.017143 
L 1244.16 411.017143 
" style="fill:none;stroke:#000000;stroke-linecap:square;stroke-linejoin:miter;stroke-width:0.8;"/>
   </g>
   <g id="text_24">
    <!-- Dados Lidos - y(k) -->
    <defs>
     <path d="M 19.671875 64.796875 
L 19.671875 8.109375 
L 31.59375 8.109375 
Q 46.6875 8.109375 53.6875 14.9375 
Q 60.6875 21.78125 60.6875 36.53125 
Q 60.6875 51.171875 53.6875 57.984375 
Q 46.6875 64.796875 31.59375 64.796875 
z
M 9.8125 72.90625 
L 30.078125 72.90625 
Q 51.265625 72.90625 61.171875 64.09375 
Q 71.09375 55.28125 71.09375 36.53125 
Q 71.09375 17.671875 61.125 8.828125 
Q 51.171875 0 30.078125 0 
L 9.8125 0 
z
" id="DejaVuSans-68"/>
     <path d="M 44.28125 53.078125 
L 44.28125 44.578125 
Q 40.484375 46.53125 36.375 47.5 
Q 32.28125 48.484375 27.875 48.484375 
Q 21.1875 48.484375 17.84375 46.4375 
Q 14.5 44.390625 14.5 40.28125 
Q 14.5 37.15625 16.890625 35.375 
Q 19.28125 33.59375 26.515625 31.984375 
L 29.59375 31.296875 
Q 39.15625 29.25 43.1875 25.515625 
Q 47.21875 21.78125 47.21875 15.09375 
Q 47.21875 7.46875 41.1875 3.015625 
Q 35.15625 -1.421875 24.609375 -1.421875 
Q 20.21875 -1.421875 15.453125 -0.5625 
Q 10.6875 0.296875 5.421875 2 
L 5.421875 11.28125 
Q 10.40625 8.6875 15.234375 7.390625 
Q 20.0625 6.109375 24.8125 6.109375 
Q 31.15625 6.109375 34.5625 8.28125 
Q 37.984375 10.453125 37.984375 14.40625 
Q 37.984375 18.0625 35.515625 20.015625 
Q 33.0625 21.96875 24.703125 23.78125 
L 21.578125 24.515625 
Q 13.234375 26.265625 9.515625 29.90625 
Q 5.8125 33.546875 5.8125 39.890625 
Q 5.8125 47.609375 11.28125 51.796875 
Q 16.75 56 26.8125 56 
Q 31.78125 56 36.171875 55.265625 
Q 40.578125 54.546875 44.28125 53.078125 
z
" id="DejaVuSans-115"/>
     <path d="M 9.8125 72.90625 
L 19.671875 72.90625 
L 19.671875 8.296875 
L 55.171875 8.296875 
L 55.171875 0 
L 9.8125 0 
z
" id="DejaVuSans-76"/>
    </defs>
    <g transform="translate(613.784766 405.017143)scale(0.21 -0.21)">
     <use xlink:href="#DejaVuSans-68"/>
     <use x="77.001953" xlink:href="#DejaVuSans-97"/>
     <use x="138.28125" xlink:href="#DejaVuSans-100"/>
     <use x="201.757812" xlink:href="#DejaVuSans-111"/>
     <use x="262.939453" xlink:href="#DejaVuSans-115"/>
     <use x="315.039062" xlink:href="#DejaVuSans-32"/>
     <use x="346.826172" xlink:href="#DejaVuSans-76"/>
     <use x="402.539062" xlink:href="#DejaVuSans-105"/>
     <use x="430.322266" xlink:href="#DejaVuSans-100"/>
     <use x="493.798828" xlink:href="#DejaVuSans-111"/>
     <use x="554.980469" xlink:href="#DejaVuSans-115"/>
     <use x="607.080078" xlink:href="#DejaVuSans-32"/>
     <use x="638.867188" xlink:href="#DejaVuSans-45"/>
     <use x="674.951172" xlink:href="#DejaVuSans-32"/>
     <use x="706.738281" xlink:href="#DejaVuSans-121"/>
     <use x="765.917969" xlink:href="#DejaVuSans-40"/>
     <use x="804.931641" xlink:href="#DejaVuSans-107"/>
     <use x="862.841797" xlink:href="#DejaVuSans-41"/>
    </g>
   </g>
   <g id="legend_1">
    <g id="patch_17">
     <path d="M 1195.130312 448.373393 
L 1237.16 448.373393 
Q 1239.16 448.373393 1239.16 446.373393 
L 1239.16 418.017143 
Q 1239.16 416.017143 1237.16 416.017143 
L 1195.130312 416.017143 
Q 1193.130312 416.017143 1193.130312 418.017143 
L 1193.130312 446.373393 
Q 1193.130312 448.373393 1195.130312 448.373393 
z
" style="fill:#ffffff;opacity:0.8;stroke:#cccccc;stroke-linejoin:miter;"/>
    </g>
    <g id="line2d_95">
     <path d="M 1197.130312 424.11558 
L 1217.130312 424.11558 
" style="fill:none;stroke:#ff0000;stroke-linecap:square;stroke-width:4;"/>
    </g>
    <g id="line2d_96"/>
    <g id="text_25">
     <!-- y -->
     <g transform="translate(1225.130312 427.61558)scale(0.1 -0.1)">
      <use xlink:href="#DejaVuSans-121"/>
     </g>
    </g>
    <g id="line2d_97">
     <path d="M 1197.130312 438.793705 
L 1217.130312 438.793705 
" style="fill:none;stroke:#0000ff;stroke-dasharray:7.4,3.2;stroke-dashoffset:0;stroke-width:2;"/>
    </g>
    <g id="line2d_98"/>
    <g id="text_26">
     <!-- yr -->
     <g transform="translate(1225.130312 442.293705)scale(0.1 -0.1)">
      <use xlink:href="#DejaVuSans-121"/>
      <use x="59.179688" xlink:href="#DejaVuSans-114"/>
     </g>
    </g>
   </g>
  </g>
  <g id="axes_4">
   <g id="patch_18">
    <path d="M 172.8 692.064 
L 1244.16 692.064 
L 1244.16 569.869714 
L 172.8 569.869714 
z
" style="fill:#ffffff;"/>
   </g>
   <g id="matplotlib.axis_7">
    <g id="xtick_28">
     <g id="line2d_99">
      <path clip-path="url(#pf528cbe6cd)" d="M 221.498182 692.064 
L 221.498182 569.869714 
" style="fill:none;stroke:#808080;stroke-linecap:square;stroke-width:0.8;"/>
     </g>
     <g id="line2d_100">
      <g>
       <use style="stroke:#000000;stroke-width:0.8;" x="221.498182" xlink:href="#me370426d2a" y="692.064"/>
      </g>
     </g>
     <g id="text_27">
      <!-- 0 -->
      <g transform="translate(218.316932 706.662438)scale(0.1 -0.1)">
       <use xlink:href="#DejaVuSans-48"/>
      </g>
     </g>
    </g>
    <g id="xtick_29">
     <g id="line2d_101">
      <path clip-path="url(#pf528cbe6cd)" d="M 343.548763 692.064 
L 343.548763 569.869714 
" style="fill:none;stroke:#808080;stroke-linecap:square;stroke-width:0.8;"/>
     </g>
     <g id="line2d_102">
      <g>
       <use style="stroke:#000000;stroke-width:0.8;" x="343.548763" xlink:href="#me370426d2a" y="692.064"/>
      </g>
     </g>
     <g id="text_28">
      <!-- 50 -->
      <g transform="translate(337.186263 706.662438)scale(0.1 -0.1)">
       <use xlink:href="#DejaVuSans-53"/>
       <use x="63.623047" xlink:href="#DejaVuSans-48"/>
      </g>
     </g>
    </g>
    <g id="xtick_30">
     <g id="line2d_103">
      <path clip-path="url(#pf528cbe6cd)" d="M 465.599344 692.064 
L 465.599344 569.869714 
" style="fill:none;stroke:#808080;stroke-linecap:square;stroke-width:0.8;"/>
     </g>
     <g id="line2d_104">
      <g>
       <use style="stroke:#000000;stroke-width:0.8;" x="465.599344" xlink:href="#me370426d2a" y="692.064"/>
      </g>
     </g>
     <g id="text_29">
      <!-- 100 -->
      <g transform="translate(456.055594 706.662438)scale(0.1 -0.1)">
       <use xlink:href="#DejaVuSans-49"/>
       <use x="63.623047" xlink:href="#DejaVuSans-48"/>
       <use x="127.246094" xlink:href="#DejaVuSans-48"/>
      </g>
     </g>
    </g>
    <g id="xtick_31">
     <g id="line2d_105">
      <path clip-path="url(#pf528cbe6cd)" d="M 587.649925 692.064 
L 587.649925 569.869714 
" style="fill:none;stroke:#808080;stroke-linecap:square;stroke-width:0.8;"/>
     </g>
     <g id="line2d_106">
      <g>
       <use style="stroke:#000000;stroke-width:0.8;" x="587.649925" xlink:href="#me370426d2a" y="692.064"/>
      </g>
     </g>
     <g id="text_30">
      <!-- 150 -->
      <g transform="translate(578.106175 706.662438)scale(0.1 -0.1)">
       <use xlink:href="#DejaVuSans-49"/>
       <use x="63.623047" xlink:href="#DejaVuSans-53"/>
       <use x="127.246094" xlink:href="#DejaVuSans-48"/>
      </g>
     </g>
    </g>
    <g id="xtick_32">
     <g id="line2d_107">
      <path clip-path="url(#pf528cbe6cd)" d="M 709.700506 692.064 
L 709.700506 569.869714 
" style="fill:none;stroke:#808080;stroke-linecap:square;stroke-width:0.8;"/>
     </g>
     <g id="line2d_108">
      <g>
       <use style="stroke:#000000;stroke-width:0.8;" x="709.700506" xlink:href="#me370426d2a" y="692.064"/>
      </g>
     </g>
     <g id="text_31">
      <!-- 200 -->
      <g transform="translate(700.156756 706.662438)scale(0.1 -0.1)">
       <use xlink:href="#DejaVuSans-50"/>
       <use x="63.623047" xlink:href="#DejaVuSans-48"/>
       <use x="127.246094" xlink:href="#DejaVuSans-48"/>
      </g>
     </g>
    </g>
    <g id="xtick_33">
     <g id="line2d_109">
      <path clip-path="url(#pf528cbe6cd)" d="M 831.751087 692.064 
L 831.751087 569.869714 
" style="fill:none;stroke:#808080;stroke-linecap:square;stroke-width:0.8;"/>
     </g>
     <g id="line2d_110">
      <g>
       <use style="stroke:#000000;stroke-width:0.8;" x="831.751087" xlink:href="#me370426d2a" y="692.064"/>
      </g>
     </g>
     <g id="text_32">
      <!-- 250 -->
      <g transform="translate(822.207337 706.662438)scale(0.1 -0.1)">
       <use xlink:href="#DejaVuSans-50"/>
       <use x="63.623047" xlink:href="#DejaVuSans-53"/>
       <use x="127.246094" xlink:href="#DejaVuSans-48"/>
      </g>
     </g>
    </g>
    <g id="xtick_34">
     <g id="line2d_111">
      <path clip-path="url(#pf528cbe6cd)" d="M 953.801668 692.064 
L 953.801668 569.869714 
" style="fill:none;stroke:#808080;stroke-linecap:square;stroke-width:0.8;"/>
     </g>
     <g id="line2d_112">
      <g>
       <use style="stroke:#000000;stroke-width:0.8;" x="953.801668" xlink:href="#me370426d2a" y="692.064"/>
      </g>
     </g>
     <g id="text_33">
      <!-- 300 -->
      <g transform="translate(944.257918 706.662438)scale(0.1 -0.1)">
       <use xlink:href="#DejaVuSans-51"/>
       <use x="63.623047" xlink:href="#DejaVuSans-48"/>
       <use x="127.246094" xlink:href="#DejaVuSans-48"/>
      </g>
     </g>
    </g>
    <g id="xtick_35">
     <g id="line2d_113">
      <path clip-path="url(#pf528cbe6cd)" d="M 1075.852249 692.064 
L 1075.852249 569.869714 
" style="fill:none;stroke:#808080;stroke-linecap:square;stroke-width:0.8;"/>
     </g>
     <g id="line2d_114">
      <g>
       <use style="stroke:#000000;stroke-width:0.8;" x="1075.852249" xlink:href="#me370426d2a" y="692.064"/>
      </g>
     </g>
     <g id="text_34">
      <!-- 350 -->
      <g transform="translate(1066.308499 706.662438)scale(0.1 -0.1)">
       <use xlink:href="#DejaVuSans-51"/>
       <use x="63.623047" xlink:href="#DejaVuSans-53"/>
       <use x="127.246094" xlink:href="#DejaVuSans-48"/>
      </g>
     </g>
    </g>
    <g id="xtick_36">
     <g id="line2d_115">
      <path clip-path="url(#pf528cbe6cd)" d="M 1197.90283 692.064 
L 1197.90283 569.869714 
" style="fill:none;stroke:#808080;stroke-linecap:square;stroke-width:0.8;"/>
     </g>
     <g id="line2d_116">
      <g>
       <use style="stroke:#000000;stroke-width:0.8;" x="1197.90283" xlink:href="#me370426d2a" y="692.064"/>
      </g>
     </g>
     <g id="text_35">
      <!-- 400 -->
      <g transform="translate(1188.35908 706.662438)scale(0.1 -0.1)">
       <use xlink:href="#DejaVuSans-52"/>
       <use x="63.623047" xlink:href="#DejaVuSans-48"/>
       <use x="127.246094" xlink:href="#DejaVuSans-48"/>
      </g>
     </g>
    </g>
    <g id="text_36">
     <!-- Amostras (k) -->
     <defs>
      <path d="M 34.1875 63.1875 
L 20.796875 26.90625 
L 47.609375 26.90625 
z
M 28.609375 72.90625 
L 39.796875 72.90625 
L 67.578125 0 
L 57.328125 0 
L 50.6875 18.703125 
L 17.828125 18.703125 
L 11.1875 0 
L 0.78125 0 
z
" id="DejaVuSans-65"/>
     </defs>
     <g transform="translate(650.835 726.419313)scale(0.18 -0.18)">
      <use xlink:href="#DejaVuSans-65"/>
      <use x="68.408203" xlink:href="#DejaVuSans-109"/>
      <use x="165.820312" xlink:href="#DejaVuSans-111"/>
      <use x="227.001953" xlink:href="#DejaVuSans-115"/>
      <use x="279.101562" xlink:href="#DejaVuSans-116"/>
      <use x="318.310547" xlink:href="#DejaVuSans-114"/>
      <use x="359.423828" xlink:href="#DejaVuSans-97"/>
      <use x="420.703125" xlink:href="#DejaVuSans-115"/>
      <use x="472.802734" xlink:href="#DejaVuSans-32"/>
      <use x="504.589844" xlink:href="#DejaVuSans-40"/>
      <use x="543.603516" xlink:href="#DejaVuSans-107"/>
      <use x="601.513672" xlink:href="#DejaVuSans-41"/>
     </g>
    </g>
   </g>
   <g id="matplotlib.axis_8">
    <g id="ytick_19">
     <g id="line2d_117">
      <path clip-path="url(#pf528cbe6cd)" d="M 172.8 675.401143 
L 1244.16 675.401143 
" style="fill:none;stroke:#808080;stroke-linecap:square;stroke-width:0.8;"/>
     </g>
     <g id="line2d_118">
      <g>
       <use style="stroke:#000000;stroke-width:0.8;" x="172.8" xlink:href="#m7bca510f17" y="675.401143"/>
      </g>
     </g>
     <g id="text_37">
      <!-- −4 -->
      <defs>
       <path d="M 10.59375 35.5 
L 73.1875 35.5 
L 73.1875 27.203125 
L 10.59375 27.203125 
z
" id="DejaVuSans-8722"/>
      </defs>
      <g transform="translate(151.057812 679.200362)scale(0.1 -0.1)">
       <use xlink:href="#DejaVuSans-8722"/>
       <use x="83.789062" xlink:href="#DejaVuSans-52"/>
      </g>
     </g>
    </g>
    <g id="ytick_20">
     <g id="line2d_119">
      <path clip-path="url(#pf528cbe6cd)" d="M 172.8 653.184 
L 1244.16 653.184 
" style="fill:none;stroke:#808080;stroke-linecap:square;stroke-width:0.8;"/>
     </g>
     <g id="line2d_120">
      <g>
       <use style="stroke:#000000;stroke-width:0.8;" x="172.8" xlink:href="#m7bca510f17" y="653.184"/>
      </g>
     </g>
     <g id="text_38">
      <!-- −2 -->
      <g transform="translate(151.057812 656.983219)scale(0.1 -0.1)">
       <use xlink:href="#DejaVuSans-8722"/>
       <use x="83.789062" xlink:href="#DejaVuSans-50"/>
      </g>
     </g>
    </g>
    <g id="ytick_21">
     <g id="line2d_121">
      <path clip-path="url(#pf528cbe6cd)" d="M 172.8 630.966857 
L 1244.16 630.966857 
" style="fill:none;stroke:#808080;stroke-linecap:square;stroke-width:0.8;"/>
     </g>
     <g id="line2d_122">
      <g>
       <use style="stroke:#000000;stroke-width:0.8;" x="172.8" xlink:href="#m7bca510f17" y="630.966857"/>
      </g>
     </g>
     <g id="text_39">
      <!-- 0 -->
      <g transform="translate(159.4375 634.766076)scale(0.1 -0.1)">
       <use xlink:href="#DejaVuSans-48"/>
      </g>
     </g>
    </g>
    <g id="ytick_22">
     <g id="line2d_123">
      <path clip-path="url(#pf528cbe6cd)" d="M 172.8 608.749714 
L 1244.16 608.749714 
" style="fill:none;stroke:#808080;stroke-linecap:square;stroke-width:0.8;"/>
     </g>
     <g id="line2d_124">
      <g>
       <use style="stroke:#000000;stroke-width:0.8;" x="172.8" xlink:href="#m7bca510f17" y="608.749714"/>
      </g>
     </g>
     <g id="text_40">
      <!-- 2 -->
      <g transform="translate(159.4375 612.548933)scale(0.1 -0.1)">
       <use xlink:href="#DejaVuSans-50"/>
      </g>
     </g>
    </g>
    <g id="ytick_23">
     <g id="line2d_125">
      <path clip-path="url(#pf528cbe6cd)" d="M 172.8 586.532571 
L 1244.16 586.532571 
" style="fill:none;stroke:#808080;stroke-linecap:square;stroke-width:0.8;"/>
     </g>
     <g id="line2d_126">
      <g>
       <use style="stroke:#000000;stroke-width:0.8;" x="172.8" xlink:href="#m7bca510f17" y="586.532571"/>
      </g>
     </g>
     <g id="text_41">
      <!-- 4 -->
      <g transform="translate(159.4375 590.33179)scale(0.1 -0.1)">
       <use xlink:href="#DejaVuSans-52"/>
      </g>
     </g>
    </g>
    <g id="text_42">
     <!-- Voltagem (V) -->
     <g transform="translate(143.730312 683.638107)rotate(-90)scale(0.16 -0.16)">
      <use xlink:href="#DejaVuSans-86"/>
      <use x="68.298828" xlink:href="#DejaVuSans-111"/>
      <use x="129.480469" xlink:href="#DejaVuSans-108"/>
      <use x="157.263672" xlink:href="#DejaVuSans-116"/>
      <use x="196.472656" xlink:href="#DejaVuSans-97"/>
      <use x="257.751953" xlink:href="#DejaVuSans-103"/>
      <use x="321.228516" xlink:href="#DejaVuSans-101"/>
      <use x="382.751953" xlink:href="#DejaVuSans-109"/>
      <use x="480.164062" xlink:href="#DejaVuSans-32"/>
      <use x="511.951172" xlink:href="#DejaVuSans-40"/>
      <use x="550.964844" xlink:href="#DejaVuSans-86"/>
      <use x="619.373047" xlink:href="#DejaVuSans-41"/>
     </g>
    </g>
   </g>
   <g id="line2d_127">
    <path clip-path="url(#pf528cbe6cd)" d="M 221.498182 630.966857 
L 341.107751 630.966857 
L 343.548763 586.532571 
L 345.989774 604.556229 
L 348.430786 613.898537 
L 350.871798 606.133646 
L 353.312809 619.813851 
L 355.753821 618.947383 
L 358.194833 615.798103 
L 360.635844 628.828457 
L 363.076856 623.612983 
L 365.517867 631.055726 
L 367.958879 623.562994 
L 370.399891 630.566949 
L 372.840902 624.807154 
L 375.281914 631.161257 
L 377.722925 623.940686 
L 380.163937 630.566949 
L 382.604949 622.8576 
L 385.04596 631.105714 
L 387.486972 624.157303 
L 389.927984 630.616937 
L 392.368995 623.507451 
L 394.810007 631.000183 
L 397.251018 624.051771 
L 399.69203 630.67248 
L 402.133042 623.562994 
L 404.574053 631.161257 
L 407.015065 624.157303 
L 409.456077 630.239246 
L 411.897088 623.668526 
L 414.3381 630.889097 
L 416.779111 624.701623 
L 419.220123 631.544503 
L 421.661135 623.779611 
L 424.102146 630.783566 
L 426.543158 624.590537 
L 428.98417 631.48896 
L 431.425181 623.940686 
L 433.866193 630.67248 
L 436.307204 624.757166 
L 438.748216 631.000183 
L 441.189228 623.940686 
L 443.630239 630.839109 
L 446.071251 623.179749 
L 448.512262 631.000183 
L 450.953274 623.940686 
L 453.394286 630.728023 
L 455.835297 623.346377 
L 458.276309 631.2168 
L 460.717321 624.157303 
L 463.158332 630.616937 
L 465.599344 667.886194 
L 468.040355 658.654971 
L 470.481367 671.796411 
L 472.922379 665.658926 
L 475.36339 662.781806 
L 477.804402 658.060663 
L 480.245414 659.143749 
L 482.686425 653.822743 
L 485.127437 657.788503 
L 487.568448 651.70656 
L 490.00946 661.209943 
L 492.450472 655.616777 
L 494.891483 659.199291 
L 497.332495 652.845189 
L 499.773506 662.892891 
L 502.214518 657.083109 
L 504.65553 659.632526 
L 507.096541 653.772754 
L 509.537553 660.504549 
L 511.978565 654.094903 
L 514.419576 662.948434 
L 516.860588 657.516343 
L 519.301599 658.060663 
L 521.742611 651.001166 
L 524.183623 665.875543 
L 526.624634 662.676274 
L 529.065646 652.7952 
L 531.506658 669.024823 
L 533.947669 665.336777 
L 536.388681 654.694766 
L 538.829692 671.524251 
L 541.270704 665.825554 
L 543.711716 661.098857 
L 546.152727 662.076411 
L 548.593739 654.966926 
L 551.034751 666.530949 
L 553.475762 661.315474 
L 555.916774 657.894034 
L 558.357785 656.699863 
L 560.798797 649.806994 
L 563.239809 667.341874 
L 565.68082 660.993326 
L 568.121832 662.293029 
L 570.562843 656.105554 
L 573.003855 660.721166 
L 575.444867 654.85584 
L 577.885878 660.176846 
L 580.32689 654.639223 
L 582.767902 658.8216 
L 585.208913 652.25088 
L 587.649925 609.194057 
L 590.090936 619.402834 
L 592.531948 611.965646 
L 594.97296 619.836069 
L 597.413971 613.159817 
L 599.854983 619.458377 
L 602.295995 612.237806 
L 604.737006 619.947154 
L 607.178018 613.159817 
L 609.619029 619.402834 
L 612.060041 612.726583 
L 614.501053 619.836069 
L 616.942064 613.431977 
L 619.383076 620.435931 
L 621.824087 612.887657 
L 624.265099 619.730537 
L 626.706111 613.537509 
L 629.147122 620.324846 
L 631.588134 612.887657 
L 634.029146 619.508366 
L 636.470157 613.920754 
L 638.911169 620.324846 
L 641.35218 613.048731 
L 643.793192 619.458377 
L 646.234204 612.071177 
L 648.675215 620.219314 
L 651.116227 613.376434 
L 653.557239 619.563909 
L 655.99825 612.182263 
L 658.439262 620.052686 
L 660.880273 613.265349 
L 663.321285 619.347291 
L 665.762297 612.454423 
L 668.203308 619.836069 
L 670.64432 613.648594 
L 673.085332 620.324846 
L 675.526343 612.504411 
L 677.967355 619.836069 
L 680.408366 613.481966 
L 682.849378 620.380389 
L 685.29039 612.726583 
L 687.731401 619.947154 
L 690.172413 613.537509 
L 692.613424 620.269303 
L 695.054436 612.832114 
L 697.495448 619.619451 
L 699.936459 613.754126 
L 702.377471 620.108229 
L 704.818483 613.104274 
L 707.259494 619.674994 
L 709.700506 656.344389 
L 712.141517 647.224251 
L 714.582529 661.23216 
L 717.023541 656.399931 
L 719.464552 651.184457 
L 721.905564 657.649646 
L 724.346576 651.295543 
L 726.787587 655.150217 
L 729.228599 647.985189 
L 731.66961 661.937554 
L 734.110622 656.183314 
L 736.551634 654.061577 
L 738.992645 650.317989 
L 741.433657 651.401074 
L 743.874668 644.885897 
L 746.31568 656.888709 
L 748.756692 652.922949 
L 751.197703 647.601943 
L 753.638715 657.594103 
L 756.079727 650.479063 
L 758.520738 660.904457 
L 760.96175 654.66144 
L 763.402761 654.9336 
L 765.843773 647.81856 
L 768.284785 661.720937 
L 770.725796 656.072229 
L 773.166808 653.522811 
L 775.60782 651.456617 
L 778.048831 647.007634 
L 780.489843 652.162011 
L 782.930854 645.374674 
L 785.371866 661.065531 
L 787.812878 654.822514 
L 790.253889 655.311291 
L 792.694901 647.601943 
L 795.135913 662.259703 
L 797.576924 656.233303 
L 800.017936 654.822514 
L 802.458947 649.284891 
L 804.899959 656.399931 
L 807.340971 650.373531 
L 809.781982 654.66144 
L 812.222994 647.385326 
L 814.664005 661.554309 
L 817.105017 656.127771 
L 819.546029 652.706331 
L 821.98704 653.195109 
L 824.428052 646.463314 
L 826.869064 658.677189 
L 829.310075 652.978491 
L 831.751087 642.680846 
L 834.192098 652.567474 
L 836.63311 647.135383 
L 839.074122 645.56352 
L 841.515133 643.608411 
L 843.956145 641.486674 
L 846.397157 640.675749 
L 848.838168 636.765531 
L 851.27918 645.124731 
L 853.720191 638.9928 
L 856.161203 651.423291 
L 858.602215 644.530423 
L 861.043226 652.673006 
L 863.484238 646.863223 
L 865.925249 646.429989 
L 868.366261 642.14208 
L 870.807273 645.56352 
L 873.248284 638.070789 
L 875.689296 651.806537 
L 878.130308 645.0192 
L 880.571319 652.184229 
L 883.012331 646.646606 
L 885.453342 645.780137 
L 887.894354 642.030994 
L 890.335366 644.635954 
L 892.776377 637.143223 
L 895.217389 650.990057 
L 897.658401 645.452434 
L 900.099412 645.780137 
L 902.540424 639.209417 
L 904.981435 651.750994 
L 907.422447 645.724594 
L 909.863459 646.974309 
L 912.30447 639.859269 
L 914.745482 651.695451 
L 917.186494 646.213371 
L 919.627505 645.074743 
L 922.068517 642.575314 
L 924.509528 641.925463 
L 926.95054 638.17632 
L 929.391552 643.336251 
L 931.832563 636.493371 
L 934.273575 650.012503 
L 936.714586 645.613509 
L 939.155598 642.358697 
L 941.59661 645.235817 
L 944.037621 639.048343 
L 946.478633 650.123589 
L 948.919645 644.369349 
L 951.360656 646.485531 
L 953.801668 662.187497 
L 956.242679 652.356411 
L 958.683691 669.841303 
L 961.124703 665.714469 
L 963.565714 657.138651 
L 966.006726 672.612891 
L 968.447738 666.097714 
L 970.888749 663.75936 
L 973.329761 657.244183 
L 975.770772 665.875543 
L 978.211784 659.904686 
L 980.652796 660.554537 
L 983.093807 653.661669 
L 985.534819 666.475406 
L 987.97583 660.776709 
L 990.416842 659.415909 
L 992.857854 652.7952 
L 995.298865 665.12016 
L 997.739877 659.849143 
L 1000.180889 657.627429 
L 1002.6219 653.011817 
L 1005.062912 657.677417 
L 1007.503923 652.306423 
L 1009.944935 658.54944 
L 1012.385947 652.356411 
L 1014.826958 662.131954 
L 1017.26797 657.18864 
L 1019.708982 656.266629 
L 1022.149993 649.590377 
L 1024.591005 664.03152 
L 1027.032016 659.799154 
L 1029.473028 654.367063 
L 1031.91404 662.187497 
L 1034.355051 657.18864 
L 1036.796063 655.777851 
L 1039.237075 649.806994 
L 1041.678086 663.542743 
L 1044.119098 658.332823 
L 1046.560109 657.516343 
L 1049.001121 650.673463 
L 1051.442133 665.336777 
L 1053.883144 661.804251 
L 1056.324156 652.25088 
L 1058.765167 669.135909 
L 1061.206179 665.658926 
L 1063.647191 657.027566 
L 1066.088202 671.740869 
L 1070.970226 660.721166 
L 1073.411237 664.248137 
L 1075.852249 623.974011 
L 1078.29326 638.25408 
L 1080.734272 634.28832 
L 1085.616295 632.660914 
L 1088.057307 631.572274 
L 1090.498319 631.572274 
L 1092.93933 628.26192 
L 1095.380342 638.198537 
L 1097.821353 631.95552 
L 1100.262365 640.531337 
L 1102.703377 634.399406 
L 1105.144388 641.94768 
L 1107.5854 636.082354 
L 1110.026411 642.486446 
L 1112.467423 634.943726 
L 1114.908435 641.836594 
L 1117.349446 636.137897 
L 1119.790458 641.020114 
L 1122.23147 633.582926 
L 1124.672481 641.508891 
L 1127.113493 635.971269 
L 1129.554504 639.825943 
L 1131.995516 632.933074 
L 1134.436528 641.075657 
L 1136.877539 634.071703 
L 1139.318551 642.325371 
L 1141.759563 635.593577 
L 1144.200574 641.781051 
L 1146.641586 634.671566 
L 1149.082597 642.325371 
L 1151.523609 635.64912 
L 1153.964621 641.997669 
L 1156.405632 634.777097 
L 1158.846644 641.94768 
L 1161.287656 636.026811 
L 1163.728667 642.541989 
L 1166.169679 634.993714 
L 1168.61069 642.269829 
L 1171.051702 636.082354 
L 1173.492714 642.486446 
L 1175.933725 635.210331 
L 1178.374737 642.108754 
L 1180.815748 636.243429 
L 1183.25676 642.053211 
L 1185.697772 634.83264 
L 1188.138783 641.94768 
L 1190.579795 636.243429 
L 1193.020807 640.85904 
L 1195.461818 634.01616 
L 1195.461818 634.01616 
" style="fill:none;stroke:#000000;stroke-linecap:square;stroke-width:4;"/>
   </g>
   <g id="patch_19">
    <path d="M 172.8 692.064 
L 172.8 569.869714 
" style="fill:none;stroke:#000000;stroke-linecap:square;stroke-linejoin:miter;stroke-width:0.8;"/>
   </g>
   <g id="patch_20">
    <path d="M 1244.16 692.064 
L 1244.16 569.869714 
" style="fill:none;stroke:#000000;stroke-linecap:square;stroke-linejoin:miter;stroke-width:0.8;"/>
   </g>
   <g id="patch_21">
    <path d="M 172.8 692.064 
L 1244.16 692.064 
" style="fill:none;stroke:#000000;stroke-linecap:square;stroke-linejoin:miter;stroke-width:0.8;"/>
   </g>
   <g id="patch_22">
    <path d="M 172.8 569.869714 
L 1244.16 569.869714 
" style="fill:none;stroke:#000000;stroke-linecap:square;stroke-linejoin:miter;stroke-width:0.8;"/>
   </g>
   <g id="text_43">
    <!-- Erro - e(k) -->
    <defs>
     <path d="M 9.8125 72.90625 
L 55.90625 72.90625 
L 55.90625 64.59375 
L 19.671875 64.59375 
L 19.671875 43.015625 
L 54.390625 43.015625 
L 54.390625 34.71875 
L 19.671875 34.71875 
L 19.671875 8.296875 
L 56.78125 8.296875 
L 56.78125 0 
L 9.8125 0 
z
" id="DejaVuSans-69"/>
    </defs>
    <g transform="translate(655.596094 563.869714)scale(0.21 -0.21)">
     <use xlink:href="#DejaVuSans-69"/>
     <use x="63.183594" xlink:href="#DejaVuSans-114"/>
     <use x="104.28125" xlink:href="#DejaVuSans-114"/>
     <use x="145.363281" xlink:href="#DejaVuSans-111"/>
     <use x="206.544922" xlink:href="#DejaVuSans-32"/>
     <use x="238.332031" xlink:href="#DejaVuSans-45"/>
     <use x="274.416016" xlink:href="#DejaVuSans-32"/>
     <use x="306.203125" xlink:href="#DejaVuSans-101"/>
     <use x="367.726562" xlink:href="#DejaVuSans-40"/>
     <use x="406.740234" xlink:href="#DejaVuSans-107"/>
     <use x="464.650391" xlink:href="#DejaVuSans-41"/>
    </g>
   </g>
  </g>
  <g id="text_44">
   <!-- Controlador avanço - LR -->
   <defs>
    <path d="M 64.40625 67.28125 
L 64.40625 56.890625 
Q 59.421875 61.53125 53.78125 63.8125 
Q 48.140625 66.109375 41.796875 66.109375 
Q 29.296875 66.109375 22.65625 58.46875 
Q 16.015625 50.828125 16.015625 36.375 
Q 16.015625 21.96875 22.65625 14.328125 
Q 29.296875 6.6875 41.796875 6.6875 
Q 48.140625 6.6875 53.78125 8.984375 
Q 59.421875 11.28125 64.40625 15.921875 
L 64.40625 5.609375 
Q 59.234375 2.09375 53.4375 0.328125 
Q 47.65625 -1.421875 41.21875 -1.421875 
Q 24.65625 -1.421875 15.125 8.703125 
Q 5.609375 18.84375 5.609375 36.375 
Q 5.609375 53.953125 15.125 64.078125 
Q 24.65625 74.21875 41.21875 74.21875 
Q 47.75 74.21875 53.53125 72.484375 
Q 59.328125 70.75 64.40625 67.28125 
z
" id="DejaVuSans-67"/>
    <path d="M 2.984375 54.6875 
L 12.5 54.6875 
L 29.59375 8.796875 
L 46.6875 54.6875 
L 56.203125 54.6875 
L 35.6875 0 
L 23.484375 0 
z
" id="DejaVuSans-118"/>
    <path d="M 48.78125 52.59375 
L 48.78125 44.1875 
Q 44.96875 46.296875 41.140625 47.34375 
Q 37.3125 48.390625 33.40625 48.390625 
Q 24.65625 48.390625 19.8125 42.84375 
Q 14.984375 37.3125 14.984375 27.296875 
Q 14.984375 17.28125 19.8125 11.734375 
Q 24.65625 6.203125 33.40625 6.203125 
Q 37.3125 6.203125 41.140625 7.25 
Q 44.96875 8.296875 48.78125 10.40625 
L 48.78125 2.09375 
Q 45.015625 0.34375 40.984375 -0.53125 
Q 36.96875 -1.421875 32.421875 -1.421875 
Q 20.0625 -1.421875 12.78125 6.34375 
Q 5.515625 14.109375 5.515625 27.296875 
Q 5.515625 40.671875 12.859375 48.328125 
Q 20.21875 56 33.015625 56 
Q 37.15625 56 41.109375 55.140625 
Q 45.0625 54.296875 48.78125 52.59375 
z
M 36.109375 0 
Q 38.78125 -3.03125 40.09375 -5.59375 
Q 41.421875 -8.15625 41.421875 -10.5 
Q 41.421875 -14.84375 38.484375 -17.0625 
Q 35.5625 -19.28125 29.796875 -19.28125 
Q 27.5625 -19.28125 25.4375 -18.984375 
Q 23.3125 -18.703125 21.203125 -18.109375 
L 21.203125 -11.71875 
Q 22.875 -12.546875 24.671875 -12.90625 
Q 26.484375 -13.28125 28.78125 -13.28125 
Q 31.65625 -13.28125 33.125 -12.109375 
Q 34.59375 -10.9375 34.59375 -8.6875 
Q 34.59375 -7.234375 33.53125 -5.109375 
Q 32.484375 -2.984375 30.296875 0 
z
" id="DejaVuSans-231"/>
   </defs>
   <g transform="translate(534.07875 35.307937)scale(0.26 -0.26)">
    <use xlink:href="#DejaVuSans-67"/>
    <use x="69.824219" xlink:href="#DejaVuSans-111"/>
    <use x="131.005859" xlink:href="#DejaVuSans-110"/>
    <use x="194.384766" xlink:href="#DejaVuSans-116"/>
    <use x="233.59375" xlink:href="#DejaVuSans-114"/>
    <use x="274.675781" xlink:href="#DejaVuSans-111"/>
    <use x="335.857422" xlink:href="#DejaVuSans-108"/>
    <use x="363.640625" xlink:href="#DejaVuSans-97"/>
    <use x="424.919922" xlink:href="#DejaVuSans-100"/>
    <use x="488.396484" xlink:href="#DejaVuSans-111"/>
    <use x="549.578125" xlink:href="#DejaVuSans-114"/>
    <use x="590.691406" xlink:href="#DejaVuSans-32"/>
    <use x="622.478516" xlink:href="#DejaVuSans-97"/>
    <use x="683.757812" xlink:href="#DejaVuSans-118"/>
    <use x="742.9375" xlink:href="#DejaVuSans-97"/>
    <use x="804.216797" xlink:href="#DejaVuSans-110"/>
    <use x="867.595703" xlink:href="#DejaVuSans-231"/>
    <use x="922.576172" xlink:href="#DejaVuSans-111"/>
    <use x="983.757812" xlink:href="#DejaVuSans-32"/>
    <use x="1015.544922" xlink:href="#DejaVuSans-45"/>
    <use x="1051.628906" xlink:href="#DejaVuSans-32"/>
    <use x="1083.416016" xlink:href="#DejaVuSans-76"/>
    <use x="1139.128906" xlink:href="#DejaVuSans-82"/>
   </g>
  </g>
 </g>
 <defs>
  <clipPath id="p6b8b6267f6">
   <rect height="122.194286" width="1071.36" x="172.8" y="93.312"/>
  </clipPath>
  <clipPath id="p7f2e85f65f">
   <rect height="122.194286" width="1071.36" x="172.8" y="252.164571"/>
  </clipPath>
  <clipPath id="pff525e7f1d">
   <rect height="122.194286" width="1071.36" x="172.8" y="411.017143"/>
  </clipPath>
  <clipPath id="pf528cbe6cd">
   <rect height="122.194286" width="1071.36" x="172.8" y="569.869714"/>
  </clipPath>
 </defs>
</svg>
