<svg xmlns="http://www.w3.org/2000/svg" xmlns:xlink="http://www.w3.org/1999/xlink" width="1843.2" height="1036.8" version="1.1" viewBox="0 0 1382.4 777.6"><defs><style type="text/css">*{stroke-linecap:butt;stroke-linejoin:round;white-space:pre}</style></defs><g id="figure_1"><g id="patch_1"><path fill="#fff" d="M 0 777.6 L 1382.4 777.6 L 1382.4 0 L 0 0 z"/></g><g id="axes_1"><g id="patch_2"><path fill="#fff" d="M 172.8 215.506286 L 1244.16 215.506286 L 1244.16 93.312 L 172.8 93.312 z"/></g><g id="matplotlib.axis_1"><g id="xtick_1"><g id="line2d_1"><path fill="none" stroke="gray" stroke-linecap="square" stroke-width=".8" d="M 221.498182 215.506286 L 221.498182 93.312" clip-path="url(#p3321f5083d)"/></g><g id="line2d_2"><defs><path id="mad5bd77574" stroke="#000" stroke-width=".8" d="M 0 0 L 0 3.5"/></defs><g><use x="221.498" y="215.506" stroke="#000" stroke-width=".8" xlink:href="#mad5bd77574"/></g></g></g><g id="xtick_2"><g id="line2d_3"><path fill="none" stroke="gray" stroke-linecap="square" stroke-width=".8" d="M 343.548763 215.506286 L 343.548763 93.312" clip-path="url(#p3321f5083d)"/></g><g id="line2d_4"><g><use x="343.549" y="215.506" stroke="#000" stroke-width=".8" xlink:href="#mad5bd77574"/></g></g></g><g id="xtick_3"><g id="line2d_5"><path fill="none" stroke="gray" stroke-linecap="square" stroke-width=".8" d="M 465.599344 215.506286 L 465.599344 93.312" clip-path="url(#p3321f5083d)"/></g><g id="line2d_6"><g><use x="465.599" y="215.506" stroke="#000" stroke-width=".8" xlink:href="#mad5bd77574"/></g></g></g><g id="xtick_4"><g id="line2d_7"><path fill="none" stroke="gray" stroke-linecap="square" stroke-width=".8" d="M 587.649925 215.506286 L 587.649925 93.312" clip-path="url(#p3321f5083d)"/></g><g id="line2d_8"><g><use x="587.65" y="215.506" stroke="#000" stroke-width=".8" xlink:href="#mad5bd77574"/></g></g></g><g id="xtick_5"><g id="line2d_9"><path fill="none" stroke="gray" stroke-linecap="square" stroke-width=".8" d="M 709.700506 215.506286 L 709.700506 93.312" clip-path="url(#p3321f5083d)"/></g><g id="line2d_10"><g><use x="709.701" y="215.506" stroke="#000" stroke-width=".8" xlink:href="#mad5bd77574"/></g></g></g><g id="xtick_6"><g id="line2d_11"><path fill="none" stroke="gray" stroke-linecap="square" stroke-width=".8" d="M 831.751087 215.506286 L 831.751087 93.312" clip-path="url(#p3321f5083d)"/></g><g id="line2d_12"><g><use x="831.751" y="215.506" stroke="#000" stroke-width=".8" xlink:href="#mad5bd77574"/></g></g></g><g id="xtick_7"><g id="line2d_13"><path fill="none" stroke="gray" stroke-linecap="square" stroke-width=".8" d="M 953.801668 215.506286 L 953.801668 93.312" clip-path="url(#p3321f5083d)"/></g><g id="line2d_14"><g><use x="953.802" y="215.506" stroke="#000" stroke-width=".8" xlink:href="#mad5bd77574"/></g></g></g><g id="xtick_8"><g id="line2d_15"><path fill="none" stroke="gray" stroke-linecap="square" stroke-width=".8" d="M 1075.852249 215.506286 L 1075.852249 93.312" clip-path="url(#p3321f5083d)"/></g><g id="line2d_16"><g><use x="1075.852" y="215.506" stroke="#000" stroke-width=".8" xlink:href="#mad5bd77574"/></g></g></g><g id="xtick_9"><g id="line2d_17"><path fill="none" stroke="gray" stroke-linecap="square" stroke-width=".8" d="M 1197.90283 215.506286 L 1197.90283 93.312" clip-path="url(#p3321f5083d)"/></g><g id="line2d_18"><g><use x="1197.903" y="215.506" stroke="#000" stroke-width=".8" xlink:href="#mad5bd77574"/></g></g></g></g><g id="matplotlib.axis_2"><g id="ytick_1"><g id="line2d_19"><path fill="none" stroke="gray" stroke-linecap="square" stroke-width=".8" d="M 172.8 205.323429 L 1244.16 205.323429" clip-path="url(#p3321f5083d)"/></g><g id="line2d_20"><defs><path id="m9423a7c417" stroke="#000" stroke-width=".8" d="M 0 0 L -3.5 0"/></defs><g><use x="172.8" y="205.323" stroke="#000" stroke-width=".8" xlink:href="#m9423a7c417"/></g></g><g id="text_1"><defs><path id="DejaVuSans-48" d="M 31.78125 66.40625 Q 24.171875 66.40625 20.328125 58.90625 Q 16.5 51.421875 16.5 36.375 Q 16.5 21.390625 20.328125 13.890625 Q 24.171875 6.390625 31.78125 6.390625 Q 39.453125 6.390625 43.28125 13.890625 Q 47.125 21.390625 47.125 36.375 Q 47.125 51.421875 43.28125 58.90625 Q 39.453125 66.40625 31.78125 66.40625 z M 31.78125 74.21875 Q 44.046875 74.21875 50.515625 64.515625 Q 56.984375 54.828125 56.984375 36.375 Q 56.984375 17.96875 50.515625 8.265625 Q 44.046875 -1.421875 31.78125 -1.421875 Q 19.53125 -1.421875 13.0625 8.265625 Q 6.59375 17.96875 6.59375 36.375 Q 6.59375 54.828125 13.0625 64.515625 Q 19.53125 74.21875 31.78125 74.21875 z"/></defs><g transform="translate(159.4375 209.122647)scale(0.1 -0.1)"><use xlink:href="#DejaVuSans-48"/></g></g></g><g id="ytick_2"><g id="line2d_21"><path fill="none" stroke="gray" stroke-linecap="square" stroke-width=".8" d="M 172.8 184.957714 L 1244.16 184.957714" clip-path="url(#p3321f5083d)"/></g><g id="line2d_22"><g><use x="172.8" y="184.958" stroke="#000" stroke-width=".8" xlink:href="#m9423a7c417"/></g></g><g id="text_2"><defs><path id="DejaVuSans-49" d="M 12.40625 8.296875 L 28.515625 8.296875 L 28.515625 63.921875 L 10.984375 60.40625 L 10.984375 69.390625 L 28.421875 72.90625 L 38.28125 72.90625 L 38.28125 8.296875 L 54.390625 8.296875 L 54.390625 0 L 12.40625 0 z"/></defs><g transform="translate(159.4375 188.756933)scale(0.1 -0.1)"><use xlink:href="#DejaVuSans-49"/></g></g></g><g id="ytick_3"><g id="line2d_23"><path fill="none" stroke="gray" stroke-linecap="square" stroke-width=".8" d="M 172.8 164.592 L 1244.16 164.592" clip-path="url(#p3321f5083d)"/></g><g id="line2d_24"><g><use x="172.8" y="164.592" stroke="#000" stroke-width=".8" xlink:href="#m9423a7c417"/></g></g><g id="text_3"><defs><path id="DejaVuSans-50" d="M 19.1875 8.296875 L 53.609375 8.296875 L 53.609375 0 L 7.328125 0 L 7.328125 8.296875 Q 12.9375 14.109375 22.625 23.890625 Q 32.328125 33.6875 34.8125 36.53125 Q 39.546875 41.84375 41.421875 45.53125 Q 43.3125 49.21875 43.3125 52.78125 Q 43.3125 58.59375 39.234375 62.25 Q 35.15625 65.921875 28.609375 65.921875 Q 23.96875 65.921875 18.8125 64.3125 Q 13.671875 62.703125 7.8125 59.421875 L 7.8125 69.390625 Q 13.765625 71.78125 18.9375 73 Q 24.125 74.21875 28.421875 74.21875 Q 39.75 74.21875 46.484375 68.546875 Q 53.21875 62.890625 53.21875 53.421875 Q 53.21875 48.921875 51.53125 44.890625 Q 49.859375 40.875 45.40625 35.40625 Q 44.1875 33.984375 37.640625 27.21875 Q 31.109375 20.453125 19.1875 8.296875 z"/></defs><g transform="translate(159.4375 168.391219)scale(0.1 -0.1)"><use xlink:href="#DejaVuSans-50"/></g></g></g><g id="ytick_4"><g id="line2d_25"><path fill="none" stroke="gray" stroke-linecap="square" stroke-width=".8" d="M 172.8 144.226286 L 1244.16 144.226286" clip-path="url(#p3321f5083d)"/></g><g id="line2d_26"><g><use x="172.8" y="144.226" stroke="#000" stroke-width=".8" xlink:href="#m9423a7c417"/></g></g><g id="text_4"><defs><path id="DejaVuSans-51" d="M 40.578125 39.3125 Q 47.65625 37.796875 51.625 33 Q 55.609375 28.21875 55.609375 21.1875 Q 55.609375 10.40625 48.1875 4.484375 Q 40.765625 -1.421875 27.09375 -1.421875 Q 22.515625 -1.421875 17.65625 -0.515625 Q 12.796875 0.390625 7.625 2.203125 L 7.625 11.71875 Q 11.71875 9.328125 16.59375 8.109375 Q 21.484375 6.890625 26.8125 6.890625 Q 36.078125 6.890625 40.9375 10.546875 Q 45.796875 14.203125 45.796875 21.1875 Q 45.796875 27.640625 41.28125 31.265625 Q 36.765625 34.90625 28.71875 34.90625 L 20.21875 34.90625 L 20.21875 43.015625 L 29.109375 43.015625 Q 36.375 43.015625 40.234375 45.921875 Q 44.09375 48.828125 44.09375 54.296875 Q 44.09375 59.90625 40.109375 62.90625 Q 36.140625 65.921875 28.71875 65.921875 Q 24.65625 65.921875 20.015625 65.03125 Q 15.375 64.15625 9.8125 62.3125 L 9.8125 71.09375 Q 15.4375 72.65625 20.34375 73.4375 Q 25.25 74.21875 29.59375 74.21875 Q 40.828125 74.21875 47.359375 69.109375 Q 53.90625 64.015625 53.90625 55.328125 Q 53.90625 49.265625 50.4375 45.09375 Q 46.96875 40.921875 40.578125 39.3125 z"/></defs><g transform="translate(159.4375 148.025504)scale(0.1 -0.1)"><use xlink:href="#DejaVuSans-51"/></g></g></g><g id="ytick_5"><g id="line2d_27"><path fill="none" stroke="gray" stroke-linecap="square" stroke-width=".8" d="M 172.8 123.860571 L 1244.16 123.860571" clip-path="url(#p3321f5083d)"/></g><g id="line2d_28"><g><use x="172.8" y="123.861" stroke="#000" stroke-width=".8" xlink:href="#m9423a7c417"/></g></g><g id="text_5"><defs><path id="DejaVuSans-52" d="M 37.796875 64.3125 L 12.890625 25.390625 L 37.796875 25.390625 z M 35.203125 72.90625 L 47.609375 72.90625 L 47.609375 25.390625 L 58.015625 25.390625 L 58.015625 17.1875 L 47.609375 17.1875 L 47.609375 0 L 37.796875 0 L 37.796875 17.1875 L 4.890625 17.1875 L 4.890625 26.703125 z"/></defs><g transform="translate(159.4375 127.65979)scale(0.1 -0.1)"><use xlink:href="#DejaVuSans-52"/></g></g></g><g id="ytick_6"><g id="line2d_29"><path fill="none" stroke="gray" stroke-linecap="square" stroke-width=".8" d="M 172.8 103.494857 L 1244.16 103.494857" clip-path="url(#p3321f5083d)"/></g><g id="line2d_30"><g><use x="172.8" y="103.495" stroke="#000" stroke-width=".8" xlink:href="#m9423a7c417"/></g></g><g id="text_6"><defs><path id="DejaVuSans-53" d="M 10.796875 72.90625 L 49.515625 72.90625 L 49.515625 64.59375 L 19.828125 64.59375 L 19.828125 46.734375 Q 21.96875 47.46875 24.109375 47.828125 Q 26.265625 48.1875 28.421875 48.1875 Q 40.625 48.1875 47.75 41.5 Q 54.890625 34.8125 54.890625 23.390625 Q 54.890625 11.625 47.5625 5.09375 Q 40.234375 -1.421875 26.90625 -1.421875 Q 22.3125 -1.421875 17.546875 -0.640625 Q 12.796875 0.140625 7.71875 1.703125 L 7.71875 11.625 Q 12.109375 9.234375 16.796875 8.0625 Q 21.484375 6.890625 26.703125 6.890625 Q 35.15625 6.890625 40.078125 11.328125 Q 45.015625 15.765625 45.015625 23.390625 Q 45.015625 31 40.078125 35.4375 Q 35.15625 39.890625 26.703125 39.890625 Q 22.75 39.890625 18.8125 39.015625 Q 14.890625 38.140625 10.796875 36.28125 z"/></defs><g transform="translate(159.4375 107.294076)scale(0.1 -0.1)"><use xlink:href="#DejaVuSans-53"/></g></g></g><g id="text_7"><defs><path id="DejaVuSans-86" d="M 28.609375 0 L 0.78125 72.90625 L 11.078125 72.90625 L 34.1875 11.53125 L 57.328125 72.90625 L 67.578125 72.90625 L 39.796875 0 z"/><path id="DejaVuSans-111" d="M 30.609375 48.390625 Q 23.390625 48.390625 19.1875 42.75 Q 14.984375 37.109375 14.984375 27.296875 Q 14.984375 17.484375 19.15625 11.84375 Q 23.34375 6.203125 30.609375 6.203125 Q 37.796875 6.203125 41.984375 11.859375 Q 46.1875 17.53125 46.1875 27.296875 Q 46.1875 37.015625 41.984375 42.703125 Q 37.796875 48.390625 30.609375 48.390625 z M 30.609375 56 Q 42.328125 56 49.015625 48.375 Q 55.71875 40.765625 55.71875 27.296875 Q 55.71875 13.875 49.015625 6.21875 Q 42.328125 -1.421875 30.609375 -1.421875 Q 18.84375 -1.421875 12.171875 6.21875 Q 5.515625 13.875 5.515625 27.296875 Q 5.515625 40.765625 12.171875 48.375 Q 18.84375 56 30.609375 56 z"/><path id="DejaVuSans-108" d="M 9.421875 75.984375 L 18.40625 75.984375 L 18.40625 0 L 9.421875 0 z"/><path id="DejaVuSans-116" d="M 18.3125 70.21875 L 18.3125 54.6875 L 36.8125 54.6875 L 36.8125 47.703125 L 18.3125 47.703125 L 18.3125 18.015625 Q 18.3125 11.328125 20.140625 9.421875 Q 21.96875 7.515625 27.59375 7.515625 L 36.8125 7.515625 L 36.8125 0 L 27.59375 0 Q 17.1875 0 13.234375 3.875 Q 9.28125 7.765625 9.28125 18.015625 L 9.28125 47.703125 L 2.6875 47.703125 L 2.6875 54.6875 L 9.28125 54.6875 L 9.28125 70.21875 z"/><path id="DejaVuSans-97" d="M 34.28125 27.484375 Q 23.390625 27.484375 19.1875 25 Q 14.984375 22.515625 14.984375 16.5 Q 14.984375 11.71875 18.140625 8.90625 Q 21.296875 6.109375 26.703125 6.109375 Q 34.1875 6.109375 38.703125 11.40625 Q 43.21875 16.703125 43.21875 25.484375 L 43.21875 27.484375 z M 52.203125 31.203125 L 52.203125 0 L 43.21875 0 L 43.21875 8.296875 Q 40.140625 3.328125 35.546875 0.953125 Q 30.953125 -1.421875 24.3125 -1.421875 Q 15.921875 -1.421875 10.953125 3.296875 Q 6 8.015625 6 15.921875 Q 6 25.140625 12.171875 29.828125 Q 18.359375 34.515625 30.609375 34.515625 L 43.21875 34.515625 L 43.21875 35.40625 Q 43.21875 41.609375 39.140625 45 Q 35.0625 48.390625 27.6875 48.390625 Q 23 48.390625 18.546875 47.265625 Q 14.109375 46.140625 10.015625 43.890625 L 10.015625 52.203125 Q 14.9375 54.109375 19.578125 55.046875 Q 24.21875 56 28.609375 56 Q 40.484375 56 46.34375 49.84375 Q 52.203125 43.703125 52.203125 31.203125 z"/><path id="DejaVuSans-103" d="M 45.40625 27.984375 Q 45.40625 37.75 41.375 43.109375 Q 37.359375 48.484375 30.078125 48.484375 Q 22.859375 48.484375 18.828125 43.109375 Q 14.796875 37.75 14.796875 27.984375 Q 14.796875 18.265625 18.828125 12.890625 Q 22.859375 7.515625 30.078125 7.515625 Q 37.359375 7.515625 41.375 12.890625 Q 45.40625 18.265625 45.40625 27.984375 z M 54.390625 6.78125 Q 54.390625 -7.171875 48.1875 -13.984375 Q 42 -20.796875 29.203125 -20.796875 Q 24.46875 -20.796875 20.265625 -20.09375 Q 16.0625 -19.390625 12.109375 -17.921875 L 12.109375 -9.1875 Q 16.0625 -11.328125 19.921875 -12.34375 Q 23.78125 -13.375 27.78125 -13.375 Q 36.625 -13.375 41.015625 -8.765625 Q 45.40625 -4.15625 45.40625 5.171875 L 45.40625 9.625 Q 42.625 4.78125 38.28125 2.390625 Q 33.9375 0 27.875 0 Q 17.828125 0 11.671875 7.65625 Q 5.515625 15.328125 5.515625 27.984375 Q 5.515625 40.671875 11.671875 48.328125 Q 17.828125 56 27.875 56 Q 33.9375 56 38.28125 53.609375 Q 42.625 51.21875 45.40625 46.390625 L 45.40625 54.6875 L 54.390625 54.6875 z"/><path id="DejaVuSans-101" d="M 56.203125 29.59375 L 56.203125 25.203125 L 14.890625 25.203125 Q 15.484375 15.921875 20.484375 11.0625 Q 25.484375 6.203125 34.421875 6.203125 Q 39.59375 6.203125 44.453125 7.46875 Q 49.3125 8.734375 54.109375 11.28125 L 54.109375 2.78125 Q 49.265625 0.734375 44.1875 -0.34375 Q 39.109375 -1.421875 33.890625 -1.421875 Q 20.796875 -1.421875 13.15625 6.1875 Q 5.515625 13.8125 5.515625 26.8125 Q 5.515625 40.234375 12.765625 48.109375 Q 20.015625 56 32.328125 56 Q 43.359375 56 49.78125 48.890625 Q 56.203125 41.796875 56.203125 29.59375 z M 47.21875 32.234375 Q 47.125 39.59375 43.09375 43.984375 Q 39.0625 48.390625 32.421875 48.390625 Q 24.90625 48.390625 20.390625 44.140625 Q 15.875 39.890625 15.1875 32.171875 z"/><path id="DejaVuSans-109" d="M 52 44.1875 Q 55.375 50.25 60.0625 53.125 Q 64.75 56 71.09375 56 Q 79.640625 56 84.28125 50.015625 Q 88.921875 44.046875 88.921875 33.015625 L 88.921875 0 L 79.890625 0 L 79.890625 32.71875 Q 79.890625 40.578125 77.09375 44.375 Q 74.3125 48.1875 68.609375 48.1875 Q 61.625 48.1875 57.5625 43.546875 Q 53.515625 38.921875 53.515625 30.90625 L 53.515625 0 L 44.484375 0 L 44.484375 32.71875 Q 44.484375 40.625 41.703125 44.40625 Q 38.921875 48.1875 33.109375 48.1875 Q 26.21875 48.1875 22.15625 43.53125 Q 18.109375 38.875 18.109375 30.90625 L 18.109375 0 L 9.078125 0 L 9.078125 54.6875 L 18.109375 54.6875 L 18.109375 46.1875 Q 21.1875 51.21875 25.484375 53.609375 Q 29.78125 56 35.6875 56 Q 41.65625 56 45.828125 52.96875 Q 50 49.953125 52 44.1875 z"/><path id="DejaVuSans-32"/><path id="DejaVuSans-40" d="M 31 75.875 Q 24.46875 64.65625 21.28125 53.65625 Q 18.109375 42.671875 18.109375 31.390625 Q 18.109375 20.125 21.3125 9.0625 Q 24.515625 -2 31 -13.1875 L 23.1875 -13.1875 Q 15.875 -1.703125 12.234375 9.375 Q 8.59375 20.453125 8.59375 31.390625 Q 8.59375 42.28125 12.203125 53.3125 Q 15.828125 64.359375 23.1875 75.875 z"/><path id="DejaVuSans-41" d="M 8.015625 75.875 L 15.828125 75.875 Q 23.140625 64.359375 26.78125 53.3125 Q 30.421875 42.28125 30.421875 31.390625 Q 30.421875 20.453125 26.78125 9.375 Q 23.140625 -1.703125 15.828125 -13.1875 L 8.015625 -13.1875 Q 14.5 -2 17.703125 9.0625 Q 20.90625 20.125 20.90625 31.390625 Q 20.90625 42.671875 17.703125 53.65625 Q 14.5 64.65625 8.015625 75.875 z"/></defs><g transform="translate(152.11 207.080393)rotate(-90)scale(0.16 -0.16)"><use xlink:href="#DejaVuSans-86"/><use x="68.299" xlink:href="#DejaVuSans-111"/><use x="129.48" xlink:href="#DejaVuSans-108"/><use x="157.264" xlink:href="#DejaVuSans-116"/><use x="196.473" xlink:href="#DejaVuSans-97"/><use x="257.752" xlink:href="#DejaVuSans-103"/><use x="321.229" xlink:href="#DejaVuSans-101"/><use x="382.752" xlink:href="#DejaVuSans-109"/><use x="480.164" xlink:href="#DejaVuSans-32"/><use x="511.951" xlink:href="#DejaVuSans-40"/><use x="550.965" xlink:href="#DejaVuSans-86"/><use x="619.373" xlink:href="#DejaVuSans-41"/></g></g></g><g id="line2d_31"><path fill="none" stroke="#00f" stroke-linecap="square" stroke-width="4" d="M 221.498182 205.323429 L 341.107751 205.323429 L 343.548763 123.860571 L 463.158332 123.860571 L 465.599344 205.323429 L 585.208913 205.323429 L 587.649925 103.494857 L 707.259494 103.494857 L 709.700506 184.957714 L 829.310075 184.957714 L 831.751087 164.592 L 951.360656 164.592 L 953.801668 205.323429 L 1073.411237 205.323429 L 1075.852249 144.226286 L 1195.461818 144.226286 L 1195.461818 144.226286" clip-path="url(#p3321f5083d)"/></g><g id="patch_3"><path fill="none" stroke="#000" stroke-linecap="square" stroke-linejoin="miter" stroke-width=".8" d="M 172.8 215.506286 L 172.8 93.312"/></g><g id="patch_4"><path fill="none" stroke="#000" stroke-linecap="square" stroke-linejoin="miter" stroke-width=".8" d="M 1244.16 215.506286 L 1244.16 93.312"/></g><g id="patch_5"><path fill="none" stroke="#000" stroke-linecap="square" stroke-linejoin="miter" stroke-width=".8" d="M 172.8 215.506286 L 1244.16 215.506286"/></g><g id="patch_6"><path fill="none" stroke="#000" stroke-linecap="square" stroke-linejoin="miter" stroke-width=".8" d="M 172.8 93.312 L 1244.16 93.312"/></g><g id="text_8"><defs><path id="DejaVuSans-82" d="M 44.390625 34.1875 Q 47.5625 33.109375 50.5625 29.59375 Q 53.5625 26.078125 56.59375 19.921875 L 66.609375 0 L 56 0 L 46.6875 18.703125 Q 43.0625 26.03125 39.671875 28.421875 Q 36.28125 30.8125 30.421875 30.8125 L 19.671875 30.8125 L 19.671875 0 L 9.8125 0 L 9.8125 72.90625 L 32.078125 72.90625 Q 44.578125 72.90625 50.734375 67.671875 Q 56.890625 62.453125 56.890625 51.90625 Q 56.890625 45.015625 53.6875 40.46875 Q 50.484375 35.9375 44.390625 34.1875 z M 19.671875 64.796875 L 19.671875 38.921875 L 32.078125 38.921875 Q 39.203125 38.921875 42.84375 42.21875 Q 46.484375 45.515625 46.484375 51.90625 Q 46.484375 58.296875 42.84375 61.546875 Q 39.203125 64.796875 32.078125 64.796875 z"/><path id="DejaVuSans-102" d="M 37.109375 75.984375 L 37.109375 68.5 L 28.515625 68.5 Q 23.6875 68.5 21.796875 66.546875 Q 19.921875 64.59375 19.921875 59.515625 L 19.921875 54.6875 L 34.71875 54.6875 L 34.71875 47.703125 L 19.921875 47.703125 L 19.921875 0 L 10.890625 0 L 10.890625 47.703125 L 2.296875 47.703125 L 2.296875 54.6875 L 10.890625 54.6875 L 10.890625 58.5 Q 10.890625 67.625 15.140625 71.796875 Q 19.390625 75.984375 28.609375 75.984375 z"/><path id="DejaVuSans-114" d="M 41.109375 46.296875 Q 39.59375 47.171875 37.8125 47.578125 Q 36.03125 48 33.890625 48 Q 26.265625 48 22.1875 43.046875 Q 18.109375 38.09375 18.109375 28.8125 L 18.109375 0 L 9.078125 0 L 9.078125 54.6875 L 18.109375 54.6875 L 18.109375 46.1875 Q 20.953125 51.171875 25.484375 53.578125 Q 30.03125 56 36.53125 56 Q 37.453125 56 38.578125 55.875 Q 39.703125 55.765625 41.0625 55.515625 z"/><path id="DejaVuSans-110" d="M 54.890625 33.015625 L 54.890625 0 L 45.90625 0 L 45.90625 32.71875 Q 45.90625 40.484375 42.875 44.328125 Q 39.84375 48.1875 33.796875 48.1875 Q 26.515625 48.1875 22.3125 43.546875 Q 18.109375 38.921875 18.109375 30.90625 L 18.109375 0 L 9.078125 0 L 9.078125 54.6875 L 18.109375 54.6875 L 18.109375 46.1875 Q 21.34375 51.125 25.703125 53.5625 Q 30.078125 56 35.796875 56 Q 45.21875 56 50.046875 50.171875 Q 54.890625 44.34375 54.890625 33.015625 z"/><path id="DejaVuSans-99" d="M 48.78125 52.59375 L 48.78125 44.1875 Q 44.96875 46.296875 41.140625 47.34375 Q 37.3125 48.390625 33.40625 48.390625 Q 24.65625 48.390625 19.8125 42.84375 Q 14.984375 37.3125 14.984375 27.296875 Q 14.984375 17.28125 19.8125 11.734375 Q 24.65625 6.203125 33.40625 6.203125 Q 37.3125 6.203125 41.140625 7.25 Q 44.96875 8.296875 48.78125 10.40625 L 48.78125 2.09375 Q 45.015625 0.34375 40.984375 -0.53125 Q 36.96875 -1.421875 32.421875 -1.421875 Q 20.0625 -1.421875 12.78125 6.34375 Q 5.515625 14.109375 5.515625 27.296875 Q 5.515625 40.671875 12.859375 48.328125 Q 20.21875 56 33.015625 56 Q 37.15625 56 41.109375 55.140625 Q 45.0625 54.296875 48.78125 52.59375 z"/><path id="DejaVuSans-105" d="M 9.421875 54.6875 L 18.40625 54.6875 L 18.40625 0 L 9.421875 0 z M 9.421875 75.984375 L 18.40625 75.984375 L 18.40625 64.59375 L 9.421875 64.59375 z"/><path id="DejaVuSans-45" d="M 4.890625 31.390625 L 31.203125 31.390625 L 31.203125 23.390625 L 4.890625 23.390625 z"/><path id="DejaVuSans-121" d="M 32.171875 -5.078125 Q 28.375 -14.84375 24.75 -17.8125 Q 21.140625 -20.796875 15.09375 -20.796875 L 7.90625 -20.796875 L 7.90625 -13.28125 L 13.1875 -13.28125 Q 16.890625 -13.28125 18.9375 -11.515625 Q 21 -9.765625 23.484375 -3.21875 L 25.09375 0.875 L 2.984375 54.6875 L 12.5 54.6875 L 29.59375 11.921875 L 46.6875 54.6875 L 56.203125 54.6875 z"/><path id="DejaVuSans-107" d="M 9.078125 75.984375 L 18.109375 75.984375 L 18.109375 31.109375 L 44.921875 54.6875 L 56.390625 54.6875 L 27.390625 29.109375 L 57.625 0 L 45.90625 0 L 18.109375 26.703125 L 18.109375 0 L 9.078125 0 z"/></defs><g transform="translate(616.752656 87.312)scale(0.21 -0.21)"><use xlink:href="#DejaVuSans-82"/><use x="69.42" xlink:href="#DejaVuSans-101"/><use x="130.943" xlink:href="#DejaVuSans-102"/><use x="166.148" xlink:href="#DejaVuSans-101"/><use x="227.672" xlink:href="#DejaVuSans-114"/><use x="268.754" xlink:href="#DejaVuSans-101"/><use x="330.277" xlink:href="#DejaVuSans-110"/><use x="393.656" xlink:href="#DejaVuSans-99"/><use x="448.637" xlink:href="#DejaVuSans-105"/><use x="476.42" xlink:href="#DejaVuSans-97"/><use x="537.699" xlink:href="#DejaVuSans-32"/><use x="569.486" xlink:href="#DejaVuSans-45"/><use x="605.57" xlink:href="#DejaVuSans-32"/><use x="637.357" xlink:href="#DejaVuSans-121"/><use x="696.537" xlink:href="#DejaVuSans-114"/><use x="737.65" xlink:href="#DejaVuSans-40"/><use x="776.664" xlink:href="#DejaVuSans-107"/><use x="834.574" xlink:href="#DejaVuSans-41"/></g></g></g><g id="axes_2"><g id="patch_7"><path fill="#fff" d="M 172.8 374.358857 L 1244.16 374.358857 L 1244.16 252.164571 L 172.8 252.164571 z"/></g><g id="matplotlib.axis_3"><g id="xtick_10"><g id="line2d_32"><path fill="none" stroke="gray" stroke-linecap="square" stroke-width=".8" d="M 221.498182 374.358857 L 221.498182 252.164571" clip-path="url(#p1008a16406)"/></g><g id="line2d_33"><g><use x="221.498" y="374.359" stroke="#000" stroke-width=".8" xlink:href="#mad5bd77574"/></g></g></g><g id="xtick_11"><g id="line2d_34"><path fill="none" stroke="gray" stroke-linecap="square" stroke-width=".8" d="M 343.548763 374.358857 L 343.548763 252.164571" clip-path="url(#p1008a16406)"/></g><g id="line2d_35"><g><use x="343.549" y="374.359" stroke="#000" stroke-width=".8" xlink:href="#mad5bd77574"/></g></g></g><g id="xtick_12"><g id="line2d_36"><path fill="none" stroke="gray" stroke-linecap="square" stroke-width=".8" d="M 465.599344 374.358857 L 465.599344 252.164571" clip-path="url(#p1008a16406)"/></g><g id="line2d_37"><g><use x="465.599" y="374.359" stroke="#000" stroke-width=".8" xlink:href="#mad5bd77574"/></g></g></g><g id="xtick_13"><g id="line2d_38"><path fill="none" stroke="gray" stroke-linecap="square" stroke-width=".8" d="M 587.649925 374.358857 L 587.649925 252.164571" clip-path="url(#p1008a16406)"/></g><g id="line2d_39"><g><use x="587.65" y="374.359" stroke="#000" stroke-width=".8" xlink:href="#mad5bd77574"/></g></g></g><g id="xtick_14"><g id="line2d_40"><path fill="none" stroke="gray" stroke-linecap="square" stroke-width=".8" d="M 709.700506 374.358857 L 709.700506 252.164571" clip-path="url(#p1008a16406)"/></g><g id="line2d_41"><g><use x="709.701" y="374.359" stroke="#000" stroke-width=".8" xlink:href="#mad5bd77574"/></g></g></g><g id="xtick_15"><g id="line2d_42"><path fill="none" stroke="gray" stroke-linecap="square" stroke-width=".8" d="M 831.751087 374.358857 L 831.751087 252.164571" clip-path="url(#p1008a16406)"/></g><g id="line2d_43"><g><use x="831.751" y="374.359" stroke="#000" stroke-width=".8" xlink:href="#mad5bd77574"/></g></g></g><g id="xtick_16"><g id="line2d_44"><path fill="none" stroke="gray" stroke-linecap="square" stroke-width=".8" d="M 953.801668 374.358857 L 953.801668 252.164571" clip-path="url(#p1008a16406)"/></g><g id="line2d_45"><g><use x="953.802" y="374.359" stroke="#000" stroke-width=".8" xlink:href="#mad5bd77574"/></g></g></g><g id="xtick_17"><g id="line2d_46"><path fill="none" stroke="gray" stroke-linecap="square" stroke-width=".8" d="M 1075.852249 374.358857 L 1075.852249 252.164571" clip-path="url(#p1008a16406)"/></g><g id="line2d_47"><g><use x="1075.852" y="374.359" stroke="#000" stroke-width=".8" xlink:href="#mad5bd77574"/></g></g></g><g id="xtick_18"><g id="line2d_48"><path fill="none" stroke="gray" stroke-linecap="square" stroke-width=".8" d="M 1197.90283 374.358857 L 1197.90283 252.164571" clip-path="url(#p1008a16406)"/></g><g id="line2d_49"><g><use x="1197.903" y="374.359" stroke="#000" stroke-width=".8" xlink:href="#mad5bd77574"/></g></g></g></g><g id="matplotlib.axis_4"><g id="ytick_7"><g id="line2d_50"><path fill="none" stroke="gray" stroke-linecap="square" stroke-width=".8" d="M 172.8 364.176 L 1244.16 364.176" clip-path="url(#p1008a16406)"/></g><g id="line2d_51"><g><use x="172.8" y="364.176" stroke="#000" stroke-width=".8" xlink:href="#m9423a7c417"/></g></g><g id="text_9"><g transform="translate(159.4375 367.975219)scale(0.1 -0.1)"><use xlink:href="#DejaVuSans-48"/></g></g></g><g id="ytick_8"><g id="line2d_52"><path fill="none" stroke="gray" stroke-linecap="square" stroke-width=".8" d="M 172.8 343.810286 L 1244.16 343.810286" clip-path="url(#p1008a16406)"/></g><g id="line2d_53"><g><use x="172.8" y="343.81" stroke="#000" stroke-width=".8" xlink:href="#m9423a7c417"/></g></g><g id="text_10"><g transform="translate(159.4375 347.609504)scale(0.1 -0.1)"><use xlink:href="#DejaVuSans-49"/></g></g></g><g id="ytick_9"><g id="line2d_54"><path fill="none" stroke="gray" stroke-linecap="square" stroke-width=".8" d="M 172.8 323.444571 L 1244.16 323.444571" clip-path="url(#p1008a16406)"/></g><g id="line2d_55"><g><use x="172.8" y="323.445" stroke="#000" stroke-width=".8" xlink:href="#m9423a7c417"/></g></g><g id="text_11"><g transform="translate(159.4375 327.24379)scale(0.1 -0.1)"><use xlink:href="#DejaVuSans-50"/></g></g></g><g id="ytick_10"><g id="line2d_56"><path fill="none" stroke="gray" stroke-linecap="square" stroke-width=".8" d="M 172.8 303.078857 L 1244.16 303.078857" clip-path="url(#p1008a16406)"/></g><g id="line2d_57"><g><use x="172.8" y="303.079" stroke="#000" stroke-width=".8" xlink:href="#m9423a7c417"/></g></g><g id="text_12"><g transform="translate(159.4375 306.878076)scale(0.1 -0.1)"><use xlink:href="#DejaVuSans-51"/></g></g></g><g id="ytick_11"><g id="line2d_58"><path fill="none" stroke="gray" stroke-linecap="square" stroke-width=".8" d="M 172.8 282.713143 L 1244.16 282.713143" clip-path="url(#p1008a16406)"/></g><g id="line2d_59"><g><use x="172.8" y="282.713" stroke="#000" stroke-width=".8" xlink:href="#m9423a7c417"/></g></g><g id="text_13"><g transform="translate(159.4375 286.512362)scale(0.1 -0.1)"><use xlink:href="#DejaVuSans-52"/></g></g></g><g id="ytick_12"><g id="line2d_60"><path fill="none" stroke="gray" stroke-linecap="square" stroke-width=".8" d="M 172.8 262.347429 L 1244.16 262.347429" clip-path="url(#p1008a16406)"/></g><g id="line2d_61"><g><use x="172.8" y="262.347" stroke="#000" stroke-width=".8" xlink:href="#m9423a7c417"/></g></g><g id="text_14"><g transform="translate(159.4375 266.146647)scale(0.1 -0.1)"><use xlink:href="#DejaVuSans-53"/></g></g></g><g id="text_15"><g transform="translate(152.11 365.932964)rotate(-90)scale(0.16 -0.16)"><use xlink:href="#DejaVuSans-86"/><use x="68.299" xlink:href="#DejaVuSans-111"/><use x="129.48" xlink:href="#DejaVuSans-108"/><use x="157.264" xlink:href="#DejaVuSans-116"/><use x="196.473" xlink:href="#DejaVuSans-97"/><use x="257.752" xlink:href="#DejaVuSans-103"/><use x="321.229" xlink:href="#DejaVuSans-101"/><use x="382.752" xlink:href="#DejaVuSans-109"/><use x="480.164" xlink:href="#DejaVuSans-32"/><use x="511.951" xlink:href="#DejaVuSans-40"/><use x="550.965" xlink:href="#DejaVuSans-86"/><use x="619.373" xlink:href="#DejaVuSans-41"/></g></g></g><g id="line2d_62"><path fill="none" stroke="green" stroke-dasharray="14.8 6.4" stroke-dashoffset="0" stroke-width="4" d="M 221.498182 364.176 L 258.113356 364.176 L 260.554368 363.75555 L 267.877403 363.664624 L 314.256623 363.689458 L 341.107751 363.709839 L 343.548763 262.347429 L 345.989774 364.176 L 348.430786 364.176 L 350.871798 291.050917 L 353.312809 325.558911 L 355.753821 311.085056 L 358.194833 305.999565 L 360.635844 304.312184 L 363.076856 305.206419 L 365.517867 299.630624 L 367.958879 300.249105 L 370.399891 295.262152 L 372.840902 296.089549 L 377.722925 291.594305 L 380.163937 291.531239 L 382.604949 290.62098 L 385.04596 287.193683 L 387.486972 286.808752 L 389.927984 285.742264 L 392.368995 284.836465 L 394.810007 284.427312 L 397.251018 282.215312 L 399.69203 282.686827 L 402.133042 280.17865 L 404.574053 280.620528 L 407.015065 279.198639 L 409.456077 279.30824 L 411.897088 278.658171 L 414.3381 276.461881 L 416.779111 276.004883 L 419.220123 276.436819 L 421.661135 274.41173 L 424.102146 275.25034 L 428.98417 273.20164 L 431.425181 275.627866 L 433.866193 271.699797 L 436.307204 275.136128 L 438.748216 272.73469 L 441.189228 272.949347 L 443.630239 271.229182 L 446.071251 274.584704 L 448.512262 270.110039 L 450.953274 275.541097 L 453.394286 271.737609 L 455.835297 271.719199 L 458.276309 273.333407 L 460.717321 269.94589 L 463.158332 275.259058 L 465.599344 364.176 L 468.040355 262.347429 L 470.481367 290.128595 L 472.922379 281.831706 L 475.36339 290.555509 L 477.804402 302.706599 L 480.245414 311.633549 L 482.686425 317.504494 L 485.127437 326.991426 L 487.568448 328.355438 L 490.00946 333.419803 L 492.450472 337.727691 L 494.891483 337.061949 L 497.332495 342.690855 L 499.773506 341.921844 L 502.214518 342.555743 L 504.65553 346.770377 L 507.096541 347.675957 L 509.537553 343.242879 L 511.978565 355.312689 L 514.419576 340.22701 L 516.860588 362.685463 L 519.301599 336.994012 L 521.742611 364.176 L 524.183623 341.40874 L 526.624634 358.094329 L 529.065646 339.68444 L 531.506658 364.176 L 533.947669 343.315581 L 536.388681 361.091031 L 538.829692 341.614023 L 541.270704 364.176 L 543.711716 340.794995 L 546.152727 361.466541 L 548.593739 348.244157 L 551.034751 356.272061 L 553.475762 346.986794 L 555.916774 364.176 L 558.357785 340.934441 L 560.798797 364.176 L 563.239809 334.765648 L 565.68082 364.176 L 568.121832 330.476631 L 570.562843 364.176 L 573.003855 343.947935 L 575.444867 347.19089 L 577.885878 347.277108 L 580.32689 353.729961 L 582.767902 342.306635 L 585.208913 362.147948 L 587.649925 262.347429 L 590.090936 364.176 L 592.531948 364.176 L 594.97296 297.395896 L 597.413971 325.709699 L 599.854983 309.430723 L 602.295995 303.546939 L 604.737006 301.114301 L 607.178018 297.036192 L 609.619029 292.102387 L 612.060041 288.450431 L 614.501053 283.427341 L 616.942064 278.894374 L 619.383076 277.805096 L 621.824087 270.655108 L 624.265099 273.611582 L 626.706111 264.481541 L 629.147122 273.888095 L 631.588134 262.347429 L 634.029146 271.447008 L 636.470157 262.347429 L 638.911169 271.620913 L 641.35218 262.347429 L 643.793192 270.15881 L 646.234204 262.347429 L 648.675215 270.560243 L 651.116227 262.347429 L 653.557239 270.14413 L 655.99825 262.347429 L 658.439262 270.723518 L 660.880273 262.347429 L 663.321285 269.069894 L 665.762297 262.347429 L 668.203308 268.921243 L 670.64432 262.347429 L 673.085332 267.369863 L 675.526343 262.347429 L 677.967355 267.474157 L 680.408366 262.347429 L 682.849378 266.418562 L 685.29039 262.347429 L 687.731401 264.75081 L 690.172413 262.347429 L 707.259494 262.347429 L 709.700506 364.176 L 712.141517 262.347429 L 714.582529 272.567087 L 717.023541 268.538568 L 719.464552 280.179027 L 721.905564 281.559788 L 724.346576 293.208923 L 726.787587 302.043182 L 729.228599 305.779261 L 734.110622 318.559379 L 736.551634 321.598347 L 738.992645 323.431515 L 741.433657 328.240314 L 743.874668 328.422804 L 746.31568 332.181023 L 748.756692 331.35311 L 751.197703 333.661336 L 753.638715 337.089269 L 756.079727 334.78274 L 758.520738 336.073685 L 760.96175 338.92157 L 763.402761 340.398023 L 765.843773 337.813189 L 768.284785 342.347181 L 770.725796 338.602442 L 773.166808 343.235488 L 775.60782 340.197042 L 778.048831 339.69847 L 780.489843 345.300792 L 782.930854 340.308467 L 785.371866 343.318901 L 787.812878 340.169358 L 790.253889 349.483413 L 792.694901 334.237467 L 795.135913 352.890939 L 797.576924 337.858366 L 800.017936 345.978666 L 802.458947 343.953922 L 804.899959 339.155738 L 807.340971 350.183503 L 809.781982 342.019575 L 812.222994 340.423431 L 814.664005 349.008189 L 817.105017 341.507853 L 819.546029 349.274373 L 821.98704 340.124846 L 824.428052 345.309504 L 826.869064 343.822915 L 829.310075 344.914524 L 831.751087 285.380908 L 834.192098 364.176 L 836.63311 346.181535 L 839.074122 310.228992 L 841.515133 342.711857 L 843.956145 329.993555 L 846.397157 325.96331 L 848.838168 334.473888 L 851.27918 328.638949 L 853.720191 328.564595 L 856.161203 331.422389 L 858.602215 329.726321 L 861.043226 332.019849 L 863.484238 330.905893 L 865.925249 328.986554 L 868.366261 331.191816 L 870.807273 329.963955 L 873.248284 332.388176 L 875.689296 329.779121 L 878.130308 330.809487 L 880.571319 332.063236 L 883.012331 330.256654 L 885.453342 330.669956 L 887.894354 329.649714 L 890.335366 331.695424 L 892.776377 331.165232 L 895.217389 330.131939 L 897.658401 330.489222 L 900.099412 331.928918 L 904.981435 329.812513 L 909.863459 332.09585 L 912.30447 328.775099 L 914.745482 332.4606 L 917.186494 329.636001 L 919.627505 332.20051 L 922.068517 328.563119 L 924.509528 332.229096 L 926.95054 331.910329 L 929.391552 328.315009 L 931.832563 332.274397 L 934.273575 332.236864 L 936.714586 329.477379 L 939.155598 330.937686 L 941.59661 331.211509 L 944.037621 331.215752 L 946.478633 329.82907 L 948.919645 331.242114 L 951.360656 330.357519 L 953.801668 364.176 L 956.242679 290.456773 L 958.683691 351.588202 L 961.124703 330.779388 L 963.565714 327.887578 L 966.006726 336.652534 L 968.447738 341.130528 L 970.888749 338.081979 L 973.329761 340.003456 L 975.770772 349.270014 L 978.211784 340.388446 L 980.652796 346.196907 L 983.093807 352.425965 L 985.534819 340.025084 L 987.97583 357.50428 L 990.416842 347.495236 L 992.857854 353.478262 L 995.298865 347.277828 L 997.739877 358.246658 L 1000.180889 342.927011 L 1002.6219 364.176 L 1005.062912 335.587975 L 1007.503923 364.176 L 1009.944935 347.481166 L 1012.385947 348.661253 L 1014.826958 353.559023 L 1017.26797 349.380666 L 1019.708982 353.780702 L 1022.149993 349.33103 L 1024.591005 359.881364 L 1027.032016 344.657218 L 1029.473028 364.176 L 1031.91404 340.571941 L 1034.355051 364.176 L 1036.796063 342.124873 L 1039.237075 359.588081 L 1041.678086 342.684074 L 1044.119098 364.176 L 1046.560109 338.933198 L 1049.001121 364.176 L 1051.442133 334.281119 L 1053.883144 364.176 L 1056.324156 337.357864 L 1058.765167 364.176 L 1061.206179 337.723295 L 1063.647191 358.622879 L 1066.088202 346.07117 L 1068.529214 354.398863 L 1070.970226 348.441493 L 1073.411237 354.6641 L 1075.852249 262.347429 L 1078.29326 364.176 L 1080.734272 364.176 L 1083.175284 294.021369 L 1085.616295 342.874045 L 1088.057307 318.753426 L 1090.498319 313.269878 L 1092.93933 321.756914 L 1095.380342 316.784566 L 1097.821353 315.784939 L 1100.262365 317.348195 L 1102.703377 315.531052 L 1105.144388 314.264899 L 1107.5854 315.362743 L 1110.026411 314.967393 L 1112.467423 314.150193 L 1114.908435 312.0898 L 1117.349446 316.538804 L 1119.790458 312.132086 L 1122.23147 311.805486 L 1124.672481 314.026067 L 1127.113493 312.637634 L 1129.554504 313.355123 L 1131.995516 313.019883 L 1134.436528 311.072322 L 1136.877539 311.96653 L 1139.318551 313.976494 L 1141.759563 311.016211 L 1146.641586 312.529663 L 1149.082597 309.958987 L 1151.523609 313.585751 L 1153.964621 309.921882 L 1156.405632 311.356126 L 1158.846644 312.489939 L 1161.287656 310.318989 L 1163.728667 311.548294 L 1166.169679 310.489457 L 1168.61069 312.296895 L 1171.051702 310.44443 L 1173.492714 312.02482 L 1175.933725 310.498552 L 1178.374737 312.103399 L 1180.815748 310.86237 L 1183.25676 311.090872 L 1185.697772 309.895729 L 1188.138783 311.498993 L 1190.579795 311.939567 L 1193.020807 309.102789 L 1195.461818 312.698782 L 1195.461818 312.698782" clip-path="url(#p1008a16406)"/></g><g id="patch_8"><path fill="none" stroke="#000" stroke-linecap="square" stroke-linejoin="miter" stroke-width=".8" d="M 172.8 374.358857 L 172.8 252.164571"/></g><g id="patch_9"><path fill="none" stroke="#000" stroke-linecap="square" stroke-linejoin="miter" stroke-width=".8" d="M 1244.16 374.358857 L 1244.16 252.164571"/></g><g id="patch_10"><path fill="none" stroke="#000" stroke-linecap="square" stroke-linejoin="miter" stroke-width=".8" d="M 172.8 374.358857 L 1244.16 374.358857"/></g><g id="patch_11"><path fill="none" stroke="#000" stroke-linecap="square" stroke-linejoin="miter" stroke-width=".8" d="M 172.8 252.164571 L 1244.16 252.164571"/></g><g id="text_16"><defs><path id="DejaVuSans-83" d="M 53.515625 70.515625 L 53.515625 60.890625 Q 47.90625 63.578125 42.921875 64.890625 Q 37.9375 66.21875 33.296875 66.21875 Q 25.25 66.21875 20.875 63.09375 Q 16.5 59.96875 16.5 54.203125 Q 16.5 49.359375 19.40625 46.890625 Q 22.3125 44.4375 30.421875 42.921875 L 36.375 41.703125 Q 47.40625 39.59375 52.65625 34.296875 Q 57.90625 29 57.90625 20.125 Q 57.90625 9.515625 50.796875 4.046875 Q 43.703125 -1.421875 29.984375 -1.421875 Q 24.8125 -1.421875 18.96875 -0.25 Q 13.140625 0.921875 6.890625 3.21875 L 6.890625 13.375 Q 12.890625 10.015625 18.65625 8.296875 Q 24.421875 6.59375 29.984375 6.59375 Q 38.421875 6.59375 43.015625 9.90625 Q 47.609375 13.234375 47.609375 19.390625 Q 47.609375 24.75 44.3125 27.78125 Q 41.015625 30.8125 33.5 32.328125 L 27.484375 33.5 Q 16.453125 35.6875 11.515625 40.375 Q 6.59375 45.0625 6.59375 53.421875 Q 6.59375 63.09375 13.40625 68.65625 Q 20.21875 74.21875 32.171875 74.21875 Q 37.3125 74.21875 42.625 73.28125 Q 47.953125 72.359375 53.515625 70.515625 z"/><path id="DejaVuSans-237" d="M 20.65625 79.984375 L 30.375 79.984375 L 14.46875 61.625 L 6.984375 61.625 z M 9.421875 54.6875 L 18.40625 54.6875 L 18.40625 0 L 9.421875 0 z M 13.921875 56 z"/><path id="DejaVuSans-100" d="M 45.40625 46.390625 L 45.40625 75.984375 L 54.390625 75.984375 L 54.390625 0 L 45.40625 0 L 45.40625 8.203125 Q 42.578125 3.328125 38.25 0.953125 Q 33.9375 -1.421875 27.875 -1.421875 Q 17.96875 -1.421875 11.734375 6.484375 Q 5.515625 14.40625 5.515625 27.296875 Q 5.515625 40.1875 11.734375 48.09375 Q 17.96875 56 27.875 56 Q 33.9375 56 38.25 53.625 Q 42.578125 51.265625 45.40625 46.390625 z M 14.796875 27.296875 Q 14.796875 17.390625 18.875 11.75 Q 22.953125 6.109375 30.078125 6.109375 Q 37.203125 6.109375 41.296875 11.75 Q 45.40625 17.390625 45.40625 27.296875 Q 45.40625 37.203125 41.296875 42.84375 Q 37.203125 48.484375 30.078125 48.484375 Q 22.953125 48.484375 18.875 42.84375 Q 14.796875 37.203125 14.796875 27.296875 z"/><path id="DejaVuSans-117" d="M 8.5 21.578125 L 8.5 54.6875 L 17.484375 54.6875 L 17.484375 21.921875 Q 17.484375 14.15625 20.5 10.265625 Q 23.53125 6.390625 29.59375 6.390625 Q 36.859375 6.390625 41.078125 11.03125 Q 45.3125 15.671875 45.3125 23.6875 L 45.3125 54.6875 L 54.296875 54.6875 L 54.296875 0 L 45.3125 0 L 45.3125 8.40625 Q 42.046875 3.421875 37.71875 1 Q 33.40625 -1.421875 27.6875 -1.421875 Q 18.265625 -1.421875 13.375 4.4375 Q 8.5 10.296875 8.5 21.578125 z M 31.109375 56 z"/></defs><g transform="translate(584.169844 246.164571)scale(0.21 -0.21)"><use xlink:href="#DejaVuSans-83"/><use x="63.477" xlink:href="#DejaVuSans-97"/><use x="124.756" xlink:href="#DejaVuSans-237"/><use x="152.539" xlink:href="#DejaVuSans-100"/><use x="216.016" xlink:href="#DejaVuSans-97"/><use x="277.295" xlink:href="#DejaVuSans-32"/><use x="309.082" xlink:href="#DejaVuSans-99"/><use x="364.063" xlink:href="#DejaVuSans-111"/><use x="425.244" xlink:href="#DejaVuSans-110"/><use x="488.623" xlink:href="#DejaVuSans-116"/><use x="527.832" xlink:href="#DejaVuSans-114"/><use x="568.914" xlink:href="#DejaVuSans-111"/><use x="630.096" xlink:href="#DejaVuSans-108"/><use x="657.879" xlink:href="#DejaVuSans-97"/><use x="719.158" xlink:href="#DejaVuSans-100"/><use x="782.635" xlink:href="#DejaVuSans-111"/><use x="843.816" xlink:href="#DejaVuSans-114"/><use x="884.93" xlink:href="#DejaVuSans-32"/><use x="916.717" xlink:href="#DejaVuSans-45"/><use x="952.801" xlink:href="#DejaVuSans-32"/><use x="984.588" xlink:href="#DejaVuSans-117"/><use x="1047.967" xlink:href="#DejaVuSans-40"/><use x="1086.98" xlink:href="#DejaVuSans-107"/><use x="1144.891" xlink:href="#DejaVuSans-41"/></g></g></g><g id="axes_3"><g id="patch_12"><path fill="#fff" d="M 172.8 533.211429 L 1244.16 533.211429 L 1244.16 411.017143 L 172.8 411.017143 z"/></g><g id="matplotlib.axis_5"><g id="xtick_19"><g id="line2d_63"><path fill="none" stroke="gray" stroke-linecap="square" stroke-width=".8" d="M 221.498182 533.211429 L 221.498182 411.017143" clip-path="url(#p3801b1a6c2)"/></g><g id="line2d_64"><g><use x="221.498" y="533.211" stroke="#000" stroke-width=".8" xlink:href="#mad5bd77574"/></g></g></g><g id="xtick_20"><g id="line2d_65"><path fill="none" stroke="gray" stroke-linecap="square" stroke-width=".8" d="M 343.548763 533.211429 L 343.548763 411.017143" clip-path="url(#p3801b1a6c2)"/></g><g id="line2d_66"><g><use x="343.549" y="533.211" stroke="#000" stroke-width=".8" xlink:href="#mad5bd77574"/></g></g></g><g id="xtick_21"><g id="line2d_67"><path fill="none" stroke="gray" stroke-linecap="square" stroke-width=".8" d="M 465.599344 533.211429 L 465.599344 411.017143" clip-path="url(#p3801b1a6c2)"/></g><g id="line2d_68"><g><use x="465.599" y="533.211" stroke="#000" stroke-width=".8" xlink:href="#mad5bd77574"/></g></g></g><g id="xtick_22"><g id="line2d_69"><path fill="none" stroke="gray" stroke-linecap="square" stroke-width=".8" d="M 587.649925 533.211429 L 587.649925 411.017143" clip-path="url(#p3801b1a6c2)"/></g><g id="line2d_70"><g><use x="587.65" y="533.211" stroke="#000" stroke-width=".8" xlink:href="#mad5bd77574"/></g></g></g><g id="xtick_23"><g id="line2d_71"><path fill="none" stroke="gray" stroke-linecap="square" stroke-width=".8" d="M 709.700506 533.211429 L 709.700506 411.017143" clip-path="url(#p3801b1a6c2)"/></g><g id="line2d_72"><g><use x="709.701" y="533.211" stroke="#000" stroke-width=".8" xlink:href="#mad5bd77574"/></g></g></g><g id="xtick_24"><g id="line2d_73"><path fill="none" stroke="gray" stroke-linecap="square" stroke-width=".8" d="M 831.751087 533.211429 L 831.751087 411.017143" clip-path="url(#p3801b1a6c2)"/></g><g id="line2d_74"><g><use x="831.751" y="533.211" stroke="#000" stroke-width=".8" xlink:href="#mad5bd77574"/></g></g></g><g id="xtick_25"><g id="line2d_75"><path fill="none" stroke="gray" stroke-linecap="square" stroke-width=".8" d="M 953.801668 533.211429 L 953.801668 411.017143" clip-path="url(#p3801b1a6c2)"/></g><g id="line2d_76"><g><use x="953.802" y="533.211" stroke="#000" stroke-width=".8" xlink:href="#mad5bd77574"/></g></g></g><g id="xtick_26"><g id="line2d_77"><path fill="none" stroke="gray" stroke-linecap="square" stroke-width=".8" d="M 1075.852249 533.211429 L 1075.852249 411.017143" clip-path="url(#p3801b1a6c2)"/></g><g id="line2d_78"><g><use x="1075.852" y="533.211" stroke="#000" stroke-width=".8" xlink:href="#mad5bd77574"/></g></g></g><g id="xtick_27"><g id="line2d_79"><path fill="none" stroke="gray" stroke-linecap="square" stroke-width=".8" d="M 1197.90283 533.211429 L 1197.90283 411.017143" clip-path="url(#p3801b1a6c2)"/></g><g id="line2d_80"><g><use x="1197.903" y="533.211" stroke="#000" stroke-width=".8" xlink:href="#mad5bd77574"/></g></g></g></g><g id="matplotlib.axis_6"><g id="ytick_13"><g id="line2d_81"><path fill="none" stroke="gray" stroke-linecap="square" stroke-width=".8" d="M 172.8 523.028571 L 1244.16 523.028571" clip-path="url(#p3801b1a6c2)"/></g><g id="line2d_82"><g><use x="172.8" y="523.029" stroke="#000" stroke-width=".8" xlink:href="#m9423a7c417"/></g></g><g id="text_17"><g transform="translate(159.4375 526.82779)scale(0.1 -0.1)"><use xlink:href="#DejaVuSans-48"/></g></g></g><g id="ytick_14"><g id="line2d_83"><path fill="none" stroke="gray" stroke-linecap="square" stroke-width=".8" d="M 172.8 502.662857 L 1244.16 502.662857" clip-path="url(#p3801b1a6c2)"/></g><g id="line2d_84"><g><use x="172.8" y="502.663" stroke="#000" stroke-width=".8" xlink:href="#m9423a7c417"/></g></g><g id="text_18"><g transform="translate(159.4375 506.462076)scale(0.1 -0.1)"><use xlink:href="#DejaVuSans-49"/></g></g></g><g id="ytick_15"><g id="line2d_85"><path fill="none" stroke="gray" stroke-linecap="square" stroke-width=".8" d="M 172.8 482.297143 L 1244.16 482.297143" clip-path="url(#p3801b1a6c2)"/></g><g id="line2d_86"><g><use x="172.8" y="482.297" stroke="#000" stroke-width=".8" xlink:href="#m9423a7c417"/></g></g><g id="text_19"><g transform="translate(159.4375 486.096362)scale(0.1 -0.1)"><use xlink:href="#DejaVuSans-50"/></g></g></g><g id="ytick_16"><g id="line2d_87"><path fill="none" stroke="gray" stroke-linecap="square" stroke-width=".8" d="M 172.8 461.931429 L 1244.16 461.931429" clip-path="url(#p3801b1a6c2)"/></g><g id="line2d_88"><g><use x="172.8" y="461.931" stroke="#000" stroke-width=".8" xlink:href="#m9423a7c417"/></g></g><g id="text_20"><g transform="translate(159.4375 465.730647)scale(0.1 -0.1)"><use xlink:href="#DejaVuSans-51"/></g></g></g><g id="ytick_17"><g id="line2d_89"><path fill="none" stroke="gray" stroke-linecap="square" stroke-width=".8" d="M 172.8 441.565714 L 1244.16 441.565714" clip-path="url(#p3801b1a6c2)"/></g><g id="line2d_90"><g><use x="172.8" y="441.566" stroke="#000" stroke-width=".8" xlink:href="#m9423a7c417"/></g></g><g id="text_21"><g transform="translate(159.4375 445.364933)scale(0.1 -0.1)"><use xlink:href="#DejaVuSans-52"/></g></g></g><g id="ytick_18"><g id="line2d_91"><path fill="none" stroke="gray" stroke-linecap="square" stroke-width=".8" d="M 172.8 421.2 L 1244.16 421.2" clip-path="url(#p3801b1a6c2)"/></g><g id="line2d_92"><g><use x="172.8" y="421.2" stroke="#000" stroke-width=".8" xlink:href="#m9423a7c417"/></g></g><g id="text_22"><g transform="translate(159.4375 424.999219)scale(0.1 -0.1)"><use xlink:href="#DejaVuSans-53"/></g></g></g><g id="text_23"><g transform="translate(152.11 524.785536)rotate(-90)scale(0.16 -0.16)"><use xlink:href="#DejaVuSans-86"/><use x="68.299" xlink:href="#DejaVuSans-111"/><use x="129.48" xlink:href="#DejaVuSans-108"/><use x="157.264" xlink:href="#DejaVuSans-116"/><use x="196.473" xlink:href="#DejaVuSans-97"/><use x="257.752" xlink:href="#DejaVuSans-103"/><use x="321.229" xlink:href="#DejaVuSans-101"/><use x="382.752" xlink:href="#DejaVuSans-109"/><use x="480.164" xlink:href="#DejaVuSans-32"/><use x="511.951" xlink:href="#DejaVuSans-40"/><use x="550.965" xlink:href="#DejaVuSans-86"/><use x="619.373" xlink:href="#DejaVuSans-41"/></g></g></g><g id="line2d_93"><path fill="none" stroke="red" stroke-linecap="square" stroke-width="4" d="M 221.498182 523.028571 L 343.548763 523.028571 L 345.989774 493.365909 L 348.430786 474.354514 L 350.871798 488.783623 L 353.312809 469.079794 L 355.753821 468.580834 L 358.194833 466.289691 L 360.635844 463.601417 L 363.076856 460.516011 L 365.517867 460.11888 L 367.958879 457.827737 L 370.399891 457.725909 L 372.840902 455.740251 L 375.281914 454.945989 L 377.722925 454.3452 L 380.163937 453.051977 L 382.604949 452.155886 L 385.04596 452.257714 L 387.486972 451.361623 L 394.810007 449.467611 L 397.251018 449.467611 L 399.69203 448.57152 L 402.133042 448.775177 L 404.574053 447.980914 L 407.015065 447.879086 L 409.456077 447.278297 L 411.897088 446.982994 L 414.3381 447.278297 L 416.779111 446.982994 L 419.220123 446.382206 L 421.661135 446.677509 L 424.102146 445.985074 L 428.98417 445.985074 L 431.425181 444.79368 L 433.866193 445.883246 L 436.307204 444.396549 L 438.748216 444.987154 L 441.189228 444.691851 L 443.630239 445.088983 L 446.071251 443.693931 L 448.512262 445.088983 L 450.953274 443.001497 L 453.394286 444.192891 L 455.835297 444.091063 L 458.276309 443.398629 L 460.717321 444.488194 L 463.158332 442.502537 L 465.599344 444.691851 L 468.040355 459.426446 L 470.481367 443.103326 L 472.922379 446.585863 L 475.36339 447.879086 L 477.804402 449.671269 L 480.245414 453.34728 L 482.686425 458.326697 L 485.127437 461.911063 L 487.568448 468.081874 L 492.450472 476.839131 L 494.891483 482.419337 L 497.332495 485.301086 L 499.773506 489.9852 L 502.214518 493.76304 L 504.65553 495.850526 L 507.096541 498.742457 L 509.537553 503.222914 L 511.978565 501.53256 L 514.419576 509.190069 L 516.860588 503.324743 L 519.301599 514.271314 L 521.742611 503.019257 L 524.183623 510.982251 L 526.624634 505.911189 L 529.065646 513.568697 L 531.506658 504.913269 L 533.947669 512.978091 L 536.388681 507.795017 L 538.829692 515.85984 L 541.270704 507.102583 L 543.711716 515.564537 L 546.152727 508.996594 L 548.593739 514.566617 L 551.034751 512.774434 L 553.475762 517.051234 L 555.916774 511.379383 L 558.357785 520.238469 L 560.798797 508.599463 L 563.239809 517.753851 L 565.68082 502.428651 L 568.121832 512.58096 L 570.562843 498.5388 L 573.003855 505.514057 L 575.444867 505.412229 L 577.885878 506.80728 L 580.32689 506.104663 L 582.767902 511.776514 L 585.208913 506.30832 L 587.649925 513.670526 L 590.090936 481.625074 L 592.531948 471.869897 L 594.97296 487.887531 L 597.413971 471.269109 L 599.854983 470.770149 L 602.295995 467.287611 L 604.737006 463.010811 L 607.178018 459.721749 L 612.060041 454.447029 L 616.942064 450.760834 L 619.383076 447.980914 L 621.824087 447.5736 L 624.265099 443.79576 L 626.706111 444.488194 L 629.147122 438.816343 L 631.588134 442.400709 L 634.029146 438.02208 L 636.470157 441.606446 L 638.911169 437.624949 L 641.35218 441.606446 L 643.793192 438.317383 L 646.234204 441.504617 L 648.675215 437.920251 L 651.116227 441.311143 L 653.557239 437.920251 L 655.99825 441.402789 L 658.439262 437.920251 L 660.880273 441.209314 L 663.321285 438.123909 L 665.762297 440.710354 L 668.203308 437.624949 L 670.64432 440.211394 L 673.085332 437.726777 L 675.526343 439.610606 L 677.967355 437.02416 L 680.408366 438.918171 L 682.849378 436.728857 L 685.29039 438.419211 L 687.731401 436.922331 L 690.172413 437.227817 L 692.613424 436.627029 L 695.054436 436.5252 L 697.495448 436.627029 L 699.936459 437.02416 L 702.377471 436.922331 L 704.818483 436.331726 L 709.700506 436.5252 L 712.141517 451.656926 L 714.582529 441.107486 L 717.023541 442.105406 L 719.464552 441.005657 L 721.905564 445.190811 L 724.346576 446.484034 L 726.787587 448.968651 L 729.228599 453.255634 L 731.66961 456.432686 L 734.110622 459.324617 L 738.992645 466.992309 L 741.433657 469.476926 L 743.874668 473.254766 L 746.31568 475.44408 L 748.756692 478.9368 L 751.197703 481.024286 L 753.638715 482.419337 L 756.079727 485.606571 L 758.520738 487.296926 L 760.96175 488.193017 L 763.402761 489.384411 L 765.843773 491.869029 L 768.284785 491.675554 L 770.725796 494.262 L 773.166808 493.76304 L 775.60782 495.850526 L 778.048831 496.950274 L 780.489843 495.75888 L 782.930854 498.243497 L 785.371866 497.846366 L 787.812878 499.53672 L 790.253889 496.746617 L 792.694901 502.622126 L 795.135913 496.451314 L 797.576924 502.123166 L 800.017936 499.638549 L 802.458947 500.636469 L 804.899959 502.622126 L 807.340971 498.935931 L 809.781982 502.021337 L 812.222994 502.825783 L 814.664005 499.933851 L 817.105017 502.723954 L 819.546029 500.137509 L 821.98704 503.518217 L 824.428052 501.827863 L 826.869064 502.428651 L 829.310075 502.123166 L 831.751087 502.917429 L 834.192098 471.768069 L 836.63311 476.146697 L 839.074122 488.386491 L 841.515133 476.747486 L 843.956145 481.126114 L 846.397157 482.71464 L 848.838168 479.832891 L 851.27918 482.022206 L 853.720191 482.21568 L 856.161203 481.319589 L 858.602215 482.022206 L 861.043226 481.319589 L 863.484238 481.818549 L 865.925249 482.612811 L 868.366261 481.920377 L 870.807273 482.419337 L 873.248284 481.625074 L 875.689296 482.612811 L 880.571319 481.920377 L 883.012331 482.612811 L 885.453342 482.521166 L 887.894354 482.918297 L 890.335366 482.21568 L 892.776377 482.419337 L 895.217389 482.816469 L 897.658401 482.71464 L 900.099412 482.21568 L 904.981435 483.009943 L 909.863459 482.21568 L 912.30447 483.407074 L 914.745482 482.113851 L 917.186494 483.111771 L 919.627505 482.21568 L 922.068517 483.508903 L 924.509528 482.21568 L 926.95054 482.317509 L 929.391552 483.610731 L 931.832563 482.21568 L 934.273575 482.21568 L 936.714586 483.2136 L 939.155598 482.71464 L 944.037621 482.612811 L 946.478633 483.111771 L 948.919645 482.612811 L 951.360656 482.918297 L 953.801668 482.521166 L 956.242679 495.361749 L 958.683691 469.181623 L 961.124703 476.340171 L 963.565714 479.924537 L 966.006726 480.423497 L 968.447738 482.816469 L 970.888749 487.98936 L 973.329761 491.278423 L 975.770772 491.675554 L 978.211784 498.243497 L 980.652796 499.343246 L 983.093807 499.933851 L 985.534819 506.898926 L 987.97583 503.019257 L 990.416842 508.599463 L 992.857854 508.395806 L 995.298865 512.275474 L 997.739877 509.892686 L 1000.180889 516.654103 L 1002.6219 507.499714 L 1005.062912 517.35672 L 1007.503923 505.208571 L 1009.944935 510.686949 L 1012.385947 510.880423 L 1014.826958 510.08616 L 1017.26797 512.672606 L 1019.708982 512.275474 L 1022.149993 514.963749 L 1024.591005 512.275474 L 1027.032016 518.649943 L 1029.473028 511.379383 L 1031.91404 519.943166 L 1034.355051 508.599463 L 1036.796063 515.36088 L 1039.237075 509.291897 L 1041.678086 515.85984 L 1044.119098 509.08824 L 1046.560109 518.945246 L 1049.001121 505.412229 L 1051.442133 514.271314 L 1053.883144 501.929691 L 1056.324156 511.287737 L 1058.765167 501.328903 L 1061.206179 511.287737 L 1063.647191 505.106743 L 1066.088202 510.880423 L 1068.529214 509.393726 L 1070.970226 512.876263 L 1073.411237 511.980171 L 1075.852249 515.758011 L 1078.29326 479.232103 L 1080.734272 469.181623 L 1083.175284 488.48832 L 1085.616295 467.786571 L 1088.057307 473.753726 L 1090.498319 474.059211 L 1092.93933 469.680583 L 1095.380342 470.271189 L 1097.821353 469.680583 L 1100.262365 468.285531 L 1105.144388 467.980046 L 1107.5854 466.992309 L 1110.026411 466.584994 L 1112.467423 466.39152 L 1114.908435 466.686823 L 1117.349446 464.701166 L 1119.790458 465.89256 L 1122.23147 465.699086 L 1124.672481 464.599337 L 1127.113493 464.802994 L 1129.554504 464.304034 L 1131.995516 464.202206 L 1134.436528 464.701166 L 1136.877539 464.202206 L 1139.318551 463.306114 L 1141.759563 464.202206 L 1146.641586 463.407943 L 1149.082597 464.202206 L 1151.523609 462.807154 L 1153.964621 463.998549 L 1158.846644 462.908983 L 1161.287656 463.601417 L 1163.728667 463.102457 L 1166.169679 463.407943 L 1168.61069 462.705326 L 1171.051702 463.306114 L 1173.492714 462.705326 L 1175.933725 463.204286 L 1178.374737 462.603497 L 1180.815748 463.010811 L 1183.25676 462.908983 L 1185.697772 463.306114 L 1188.138783 462.705326 L 1190.579795 462.511851 L 1193.020807 463.499589 L 1195.461818 462.206366 L 1195.461818 462.206366" clip-path="url(#p3801b1a6c2)"/></g><g id="line2d_94"><path fill="none" stroke="#00f" stroke-dasharray="7.4 3.2" stroke-dashoffset="0" stroke-width="2" d="M 221.498182 523.028571 L 341.107751 523.028571 L 343.548763 441.565714 L 463.158332 441.565714 L 465.599344 523.028571 L 585.208913 523.028571 L 587.649925 421.2 L 707.259494 421.2 L 709.700506 502.662857 L 829.310075 502.662857 L 831.751087 482.297143 L 951.360656 482.297143 L 953.801668 523.028571 L 1073.411237 523.028571 L 1075.852249 461.931429 L 1195.461818 461.931429 L 1195.461818 461.931429" clip-path="url(#p3801b1a6c2)"/></g><g id="patch_13"><path fill="none" stroke="#000" stroke-linecap="square" stroke-linejoin="miter" stroke-width=".8" d="M 172.8 533.211429 L 172.8 411.017143"/></g><g id="patch_14"><path fill="none" stroke="#000" stroke-linecap="square" stroke-linejoin="miter" stroke-width=".8" d="M 1244.16 533.211429 L 1244.16 411.017143"/></g><g id="patch_15"><path fill="none" stroke="#000" stroke-linecap="square" stroke-linejoin="miter" stroke-width=".8" d="M 172.8 533.211429 L 1244.16 533.211429"/></g><g id="patch_16"><path fill="none" stroke="#000" stroke-linecap="square" stroke-linejoin="miter" stroke-width=".8" d="M 172.8 411.017143 L 1244.16 411.017143"/></g><g id="text_24"><defs><path id="DejaVuSans-68" d="M 19.671875 64.796875 L 19.671875 8.109375 L 31.59375 8.109375 Q 46.6875 8.109375 53.6875 14.9375 Q 60.6875 21.78125 60.6875 36.53125 Q 60.6875 51.171875 53.6875 57.984375 Q 46.6875 64.796875 31.59375 64.796875 z M 9.8125 72.90625 L 30.078125 72.90625 Q 51.265625 72.90625 61.171875 64.09375 Q 71.09375 55.28125 71.09375 36.53125 Q 71.09375 17.671875 61.125 8.828125 Q 51.171875 0 30.078125 0 L 9.8125 0 z"/><path id="DejaVuSans-115" d="M 44.28125 53.078125 L 44.28125 44.578125 Q 40.484375 46.53125 36.375 47.5 Q 32.28125 48.484375 27.875 48.484375 Q 21.1875 48.484375 17.84375 46.4375 Q 14.5 44.390625 14.5 40.28125 Q 14.5 37.15625 16.890625 35.375 Q 19.28125 33.59375 26.515625 31.984375 L 29.59375 31.296875 Q 39.15625 29.25 43.1875 25.515625 Q 47.21875 21.78125 47.21875 15.09375 Q 47.21875 7.46875 41.1875 3.015625 Q 35.15625 -1.421875 24.609375 -1.421875 Q 20.21875 -1.421875 15.453125 -0.5625 Q 10.6875 0.296875 5.421875 2 L 5.421875 11.28125 Q 10.40625 8.6875 15.234375 7.390625 Q 20.0625 6.109375 24.8125 6.109375 Q 31.15625 6.109375 34.5625 8.28125 Q 37.984375 10.453125 37.984375 14.40625 Q 37.984375 18.0625 35.515625 20.015625 Q 33.0625 21.96875 24.703125 23.78125 L 21.578125 24.515625 Q 13.234375 26.265625 9.515625 29.90625 Q 5.8125 33.546875 5.8125 39.890625 Q 5.8125 47.609375 11.28125 51.796875 Q 16.75 56 26.8125 56 Q 31.78125 56 36.171875 55.265625 Q 40.578125 54.546875 44.28125 53.078125 z"/><path id="DejaVuSans-76" d="M 9.8125 72.90625 L 19.671875 72.90625 L 19.671875 8.296875 L 55.171875 8.296875 L 55.171875 0 L 9.8125 0 z"/></defs><g transform="translate(613.784766 405.017143)scale(0.21 -0.21)"><use xlink:href="#DejaVuSans-68"/><use x="77.002" xlink:href="#DejaVuSans-97"/><use x="138.281" xlink:href="#DejaVuSans-100"/><use x="201.758" xlink:href="#DejaVuSans-111"/><use x="262.939" xlink:href="#DejaVuSans-115"/><use x="315.039" xlink:href="#DejaVuSans-32"/><use x="346.826" xlink:href="#DejaVuSans-76"/><use x="402.539" xlink:href="#DejaVuSans-105"/><use x="430.322" xlink:href="#DejaVuSans-100"/><use x="493.799" xlink:href="#DejaVuSans-111"/><use x="554.98" xlink:href="#DejaVuSans-115"/><use x="607.08" xlink:href="#DejaVuSans-32"/><use x="638.867" xlink:href="#DejaVuSans-45"/><use x="674.951" xlink:href="#DejaVuSans-32"/><use x="706.738" xlink:href="#DejaVuSans-121"/><use x="765.918" xlink:href="#DejaVuSans-40"/><use x="804.932" xlink:href="#DejaVuSans-107"/><use x="862.842" xlink:href="#DejaVuSans-41"/></g></g><g id="legend_1"><g id="patch_17"><path fill="#fff" stroke="#ccc" stroke-linejoin="miter" d="M 1195.130312 448.373393 L 1237.16 448.373393 Q 1239.16 448.373393 1239.16 446.373393 L 1239.16 418.017143 Q 1239.16 416.017143 1237.16 416.017143 L 1195.130312 416.017143 Q 1193.130312 416.017143 1193.130312 418.017143 L 1193.130312 446.373393 Q 1193.130312 448.373393 1195.130312 448.373393 z" opacity=".8"/></g><g id="line2d_95"><path fill="none" stroke="red" stroke-linecap="square" stroke-width="4" d="M 1197.130312 424.11558 L 1217.130312 424.11558"/></g><g id="text_25"><g transform="translate(1225.130312 427.61558)scale(0.1 -0.1)"><use xlink:href="#DejaVuSans-121"/></g></g><g id="line2d_97"><path fill="none" stroke="#00f" stroke-dasharray="7.4 3.2" stroke-dashoffset="0" stroke-width="2" d="M 1197.130312 438.793705 L 1217.130312 438.793705"/></g><g id="text_26"><g transform="translate(1225.130312 442.293705)scale(0.1 -0.1)"><use xlink:href="#DejaVuSans-121"/><use x="59.18" xlink:href="#DejaVuSans-114"/></g></g></g></g><g id="axes_4"><g id="patch_18"><path fill="#fff" d="M 172.8 692.064 L 1244.16 692.064 L 1244.16 569.869714 L 172.8 569.869714 z"/></g><g id="matplotlib.axis_7"><g id="xtick_28"><g id="line2d_99"><path fill="none" stroke="gray" stroke-linecap="square" stroke-width=".8" d="M 221.498182 692.064 L 221.498182 569.869714" clip-path="url(#p30184b5c55)"/></g><g id="line2d_100"><g><use x="221.498" y="692.064" stroke="#000" stroke-width=".8" xlink:href="#mad5bd77574"/></g></g><g id="text_27"><g transform="translate(218.316932 706.662438)scale(0.1 -0.1)"><use xlink:href="#DejaVuSans-48"/></g></g></g><g id="xtick_29"><g id="line2d_101"><path fill="none" stroke="gray" stroke-linecap="square" stroke-width=".8" d="M 343.548763 692.064 L 343.548763 569.869714" clip-path="url(#p30184b5c55)"/></g><g id="line2d_102"><g><use x="343.549" y="692.064" stroke="#000" stroke-width=".8" xlink:href="#mad5bd77574"/></g></g><g id="text_28"><g transform="translate(337.186263 706.662438)scale(0.1 -0.1)"><use xlink:href="#DejaVuSans-53"/><use x="63.623" xlink:href="#DejaVuSans-48"/></g></g></g><g id="xtick_30"><g id="line2d_103"><path fill="none" stroke="gray" stroke-linecap="square" stroke-width=".8" d="M 465.599344 692.064 L 465.599344 569.869714" clip-path="url(#p30184b5c55)"/></g><g id="line2d_104"><g><use x="465.599" y="692.064" stroke="#000" stroke-width=".8" xlink:href="#mad5bd77574"/></g></g><g id="text_29"><g transform="translate(456.055594 706.662438)scale(0.1 -0.1)"><use xlink:href="#DejaVuSans-49"/><use x="63.623" xlink:href="#DejaVuSans-48"/><use x="127.246" xlink:href="#DejaVuSans-48"/></g></g></g><g id="xtick_31"><g id="line2d_105"><path fill="none" stroke="gray" stroke-linecap="square" stroke-width=".8" d="M 587.649925 692.064 L 587.649925 569.869714" clip-path="url(#p30184b5c55)"/></g><g id="line2d_106"><g><use x="587.65" y="692.064" stroke="#000" stroke-width=".8" xlink:href="#mad5bd77574"/></g></g><g id="text_30"><g transform="translate(578.106175 706.662438)scale(0.1 -0.1)"><use xlink:href="#DejaVuSans-49"/><use x="63.623" xlink:href="#DejaVuSans-53"/><use x="127.246" xlink:href="#DejaVuSans-48"/></g></g></g><g id="xtick_32"><g id="line2d_107"><path fill="none" stroke="gray" stroke-linecap="square" stroke-width=".8" d="M 709.700506 692.064 L 709.700506 569.869714" clip-path="url(#p30184b5c55)"/></g><g id="line2d_108"><g><use x="709.701" y="692.064" stroke="#000" stroke-width=".8" xlink:href="#mad5bd77574"/></g></g><g id="text_31"><g transform="translate(700.156756 706.662438)scale(0.1 -0.1)"><use xlink:href="#DejaVuSans-50"/><use x="63.623" xlink:href="#DejaVuSans-48"/><use x="127.246" xlink:href="#DejaVuSans-48"/></g></g></g><g id="xtick_33"><g id="line2d_109"><path fill="none" stroke="gray" stroke-linecap="square" stroke-width=".8" d="M 831.751087 692.064 L 831.751087 569.869714" clip-path="url(#p30184b5c55)"/></g><g id="line2d_110"><g><use x="831.751" y="692.064" stroke="#000" stroke-width=".8" xlink:href="#mad5bd77574"/></g></g><g id="text_32"><g transform="translate(822.207337 706.662438)scale(0.1 -0.1)"><use xlink:href="#DejaVuSans-50"/><use x="63.623" xlink:href="#DejaVuSans-53"/><use x="127.246" xlink:href="#DejaVuSans-48"/></g></g></g><g id="xtick_34"><g id="line2d_111"><path fill="none" stroke="gray" stroke-linecap="square" stroke-width=".8" d="M 953.801668 692.064 L 953.801668 569.869714" clip-path="url(#p30184b5c55)"/></g><g id="line2d_112"><g><use x="953.802" y="692.064" stroke="#000" stroke-width=".8" xlink:href="#mad5bd77574"/></g></g><g id="text_33"><g transform="translate(944.257918 706.662438)scale(0.1 -0.1)"><use xlink:href="#DejaVuSans-51"/><use x="63.623" xlink:href="#DejaVuSans-48"/><use x="127.246" xlink:href="#DejaVuSans-48"/></g></g></g><g id="xtick_35"><g id="line2d_113"><path fill="none" stroke="gray" stroke-linecap="square" stroke-width=".8" d="M 1075.852249 692.064 L 1075.852249 569.869714" clip-path="url(#p30184b5c55)"/></g><g id="line2d_114"><g><use x="1075.852" y="692.064" stroke="#000" stroke-width=".8" xlink:href="#mad5bd77574"/></g></g><g id="text_34"><g transform="translate(1066.308499 706.662438)scale(0.1 -0.1)"><use xlink:href="#DejaVuSans-51"/><use x="63.623" xlink:href="#DejaVuSans-53"/><use x="127.246" xlink:href="#DejaVuSans-48"/></g></g></g><g id="xtick_36"><g id="line2d_115"><path fill="none" stroke="gray" stroke-linecap="square" stroke-width=".8" d="M 1197.90283 692.064 L 1197.90283 569.869714" clip-path="url(#p30184b5c55)"/></g><g id="line2d_116"><g><use x="1197.903" y="692.064" stroke="#000" stroke-width=".8" xlink:href="#mad5bd77574"/></g></g><g id="text_35"><g transform="translate(1188.35908 706.662438)scale(0.1 -0.1)"><use xlink:href="#DejaVuSans-52"/><use x="63.623" xlink:href="#DejaVuSans-48"/><use x="127.246" xlink:href="#DejaVuSans-48"/></g></g></g><g id="text_36"><defs><path id="DejaVuSans-65" d="M 34.1875 63.1875 L 20.796875 26.90625 L 47.609375 26.90625 z M 28.609375 72.90625 L 39.796875 72.90625 L 67.578125 0 L 57.328125 0 L 50.6875 18.703125 L 17.828125 18.703125 L 11.1875 0 L 0.78125 0 z"/></defs><g transform="translate(650.835 726.419313)scale(0.18 -0.18)"><use xlink:href="#DejaVuSans-65"/><use x="68.408" xlink:href="#DejaVuSans-109"/><use x="165.82" xlink:href="#DejaVuSans-111"/><use x="227.002" xlink:href="#DejaVuSans-115"/><use x="279.102" xlink:href="#DejaVuSans-116"/><use x="318.311" xlink:href="#DejaVuSans-114"/><use x="359.424" xlink:href="#DejaVuSans-97"/><use x="420.703" xlink:href="#DejaVuSans-115"/><use x="472.803" xlink:href="#DejaVuSans-32"/><use x="504.59" xlink:href="#DejaVuSans-40"/><use x="543.604" xlink:href="#DejaVuSans-107"/><use x="601.514" xlink:href="#DejaVuSans-41"/></g></g></g><g id="matplotlib.axis_8"><g id="ytick_19"><g id="line2d_117"><path fill="none" stroke="gray" stroke-linecap="square" stroke-width=".8" d="M 172.8 675.401143 L 1244.16 675.401143" clip-path="url(#p30184b5c55)"/></g><g id="line2d_118"><g><use x="172.8" y="675.401" stroke="#000" stroke-width=".8" xlink:href="#m9423a7c417"/></g></g><g id="text_37"><defs><path id="DejaVuSans-8722" d="M 10.59375 35.5 L 73.1875 35.5 L 73.1875 27.203125 L 10.59375 27.203125 z"/></defs><g transform="translate(151.057812 679.200362)scale(0.1 -0.1)"><use xlink:href="#DejaVuSans-8722"/><use x="83.789" xlink:href="#DejaVuSans-52"/></g></g></g><g id="ytick_20"><g id="line2d_119"><path fill="none" stroke="gray" stroke-linecap="square" stroke-width=".8" d="M 172.8 653.184 L 1244.16 653.184" clip-path="url(#p30184b5c55)"/></g><g id="line2d_120"><g><use x="172.8" y="653.184" stroke="#000" stroke-width=".8" xlink:href="#m9423a7c417"/></g></g><g id="text_38"><g transform="translate(151.057812 656.983219)scale(0.1 -0.1)"><use xlink:href="#DejaVuSans-8722"/><use x="83.789" xlink:href="#DejaVuSans-50"/></g></g></g><g id="ytick_21"><g id="line2d_121"><path fill="none" stroke="gray" stroke-linecap="square" stroke-width=".8" d="M 172.8 630.966857 L 1244.16 630.966857" clip-path="url(#p30184b5c55)"/></g><g id="line2d_122"><g><use x="172.8" y="630.967" stroke="#000" stroke-width=".8" xlink:href="#m9423a7c417"/></g></g><g id="text_39"><g transform="translate(159.4375 634.766076)scale(0.1 -0.1)"><use xlink:href="#DejaVuSans-48"/></g></g></g><g id="ytick_22"><g id="line2d_123"><path fill="none" stroke="gray" stroke-linecap="square" stroke-width=".8" d="M 172.8 608.749714 L 1244.16 608.749714" clip-path="url(#p30184b5c55)"/></g><g id="line2d_124"><g><use x="172.8" y="608.75" stroke="#000" stroke-width=".8" xlink:href="#m9423a7c417"/></g></g><g id="text_40"><g transform="translate(159.4375 612.548933)scale(0.1 -0.1)"><use xlink:href="#DejaVuSans-50"/></g></g></g><g id="ytick_23"><g id="line2d_125"><path fill="none" stroke="gray" stroke-linecap="square" stroke-width=".8" d="M 172.8 586.532571 L 1244.16 586.532571" clip-path="url(#p30184b5c55)"/></g><g id="line2d_126"><g><use x="172.8" y="586.533" stroke="#000" stroke-width=".8" xlink:href="#m9423a7c417"/></g></g><g id="text_41"><g transform="translate(159.4375 590.33179)scale(0.1 -0.1)"><use xlink:href="#DejaVuSans-52"/></g></g></g><g id="text_42"><g transform="translate(143.730312 683.638107)rotate(-90)scale(0.16 -0.16)"><use xlink:href="#DejaVuSans-86"/><use x="68.299" xlink:href="#DejaVuSans-111"/><use x="129.48" xlink:href="#DejaVuSans-108"/><use x="157.264" xlink:href="#DejaVuSans-116"/><use x="196.473" xlink:href="#DejaVuSans-97"/><use x="257.752" xlink:href="#DejaVuSans-103"/><use x="321.229" xlink:href="#DejaVuSans-101"/><use x="382.752" xlink:href="#DejaVuSans-109"/><use x="480.164" xlink:href="#DejaVuSans-32"/><use x="511.951" xlink:href="#DejaVuSans-40"/><use x="550.965" xlink:href="#DejaVuSans-86"/><use x="619.373" xlink:href="#DejaVuSans-41"/></g></g></g><g id="line2d_127"><path fill="none" stroke="#000" stroke-linecap="square" stroke-width="4" d="M 221.498182 630.966857 L 341.107751 630.966857 L 343.548763 586.532571 L 345.989774 602.712206 L 348.430786 613.082057 L 350.871798 605.211634 L 353.312809 615.959177 L 355.753821 616.231337 L 358.194833 617.481051 L 360.635844 618.947383 L 363.076856 620.630331 L 365.517867 620.846949 L 367.958879 622.096663 L 370.399891 622.152206 L 372.840902 623.235291 L 377.722925 623.996229 L 380.163937 624.701623 L 382.604949 625.1904 L 385.04596 625.134857 L 387.486972 625.623634 L 394.810007 626.656731 L 397.251018 626.656731 L 399.69203 627.145509 L 402.133042 627.034423 L 404.574053 627.467657 L 407.015065 627.5232 L 409.456077 627.850903 L 411.897088 628.011977 L 414.3381 627.850903 L 416.779111 628.011977 L 419.220123 628.33968 L 421.661135 628.178606 L 424.102146 628.556297 L 428.98417 628.556297 L 431.425181 629.206149 L 433.866193 628.61184 L 436.307204 629.422766 L 438.748216 629.100617 L 441.189228 629.261691 L 443.630239 629.045074 L 446.071251 629.806011 L 448.512262 629.045074 L 450.953274 630.183703 L 453.394286 629.533851 L 455.835297 629.589394 L 458.276309 629.967086 L 460.717321 629.372777 L 463.158332 630.455863 L 465.599344 673.695977 L 468.040355 665.658926 L 470.481367 674.562446 L 472.922379 672.66288 L 475.36339 671.957486 L 477.804402 670.979931 L 480.245414 668.974834 L 482.686425 666.258789 L 485.127437 664.30368 L 487.568448 660.937783 L 492.450472 656.161097 L 494.891483 653.117349 L 497.332495 651.545486 L 499.773506 648.990514 L 502.214518 646.929874 L 504.65553 645.791246 L 507.096541 644.213829 L 509.537553 641.769943 L 511.978565 642.691954 L 514.419576 638.515131 L 516.860588 641.7144 L 519.301599 635.743543 L 521.742611 641.881029 L 524.183623 637.537577 L 526.624634 640.303611 L 529.065646 636.126789 L 531.506658 640.847931 L 533.947669 636.448937 L 536.388681 639.276069 L 538.829692 634.877074 L 541.270704 639.65376 L 543.711716 635.038149 L 546.152727 638.620663 L 548.593739 635.582469 L 551.034751 636.560023 L 553.475762 634.227223 L 555.916774 637.32096 L 558.357785 632.488731 L 560.798797 638.83728 L 563.239809 633.843977 L 565.68082 642.203177 L 568.121832 636.665554 L 570.562843 644.324914 L 573.003855 640.520229 L 575.444867 640.575771 L 577.885878 639.814834 L 580.32689 640.19808 L 582.767902 637.104343 L 585.208913 640.086994 L 587.649925 580.528389 L 590.090936 598.007726 L 592.531948 603.328731 L 594.97296 594.59184 L 597.413971 603.656434 L 599.854983 603.928594 L 602.295995 605.82816 L 604.737006 608.16096 L 607.178018 609.954994 L 612.060041 612.832114 L 616.942064 614.842766 L 619.383076 616.359086 L 621.824087 616.581257 L 624.265099 618.641897 L 626.706111 618.264206 L 629.147122 621.357943 L 631.588134 619.402834 L 634.029146 621.791177 L 636.470157 619.836069 L 638.911169 622.007794 L 641.35218 619.836069 L 643.793192 621.630103 L 646.234204 619.891611 L 648.675215 621.84672 L 651.116227 619.997143 L 653.557239 621.84672 L 655.99825 619.947154 L 658.439262 621.84672 L 660.880273 620.052686 L 663.321285 621.735634 L 665.762297 620.324846 L 668.203308 622.007794 L 670.64432 620.597006 L 673.085332 621.952251 L 675.526343 620.924709 L 677.967355 622.335497 L 680.408366 621.3024 L 682.849378 622.496571 L 685.29039 621.57456 L 687.731401 622.39104 L 690.172413 622.224411 L 692.613424 622.552114 L 697.495448 622.552114 L 699.936459 622.335497 L 702.377471 622.39104 L 704.818483 622.713189 L 707.259494 622.657646 L 709.700506 667.041943 L 712.141517 658.788274 L 714.582529 664.542514 L 717.023541 663.998194 L 719.464552 664.598057 L 721.905564 662.315246 L 724.346576 661.609851 L 726.787587 660.254606 L 729.228599 657.916251 L 731.66961 656.183314 L 734.110622 654.605897 L 738.992645 650.42352 L 741.433657 649.068274 L 743.874668 647.007634 L 746.31568 645.813463 L 748.756692 643.908343 L 751.197703 642.769714 L 753.638715 642.008777 L 756.079727 640.270286 L 758.520738 639.348274 L 760.96175 638.859497 L 763.402761 638.209646 L 765.843773 636.8544 L 768.284785 636.959931 L 770.725796 635.549143 L 773.166808 635.821303 L 775.60782 634.682674 L 778.048831 634.082811 L 780.489843 634.732663 L 782.930854 633.377417 L 785.371866 633.594034 L 787.812878 632.672023 L 790.253889 634.193897 L 792.694901 630.989074 L 795.135913 634.354971 L 797.576924 631.261234 L 800.017936 632.61648 L 802.458947 632.07216 L 804.899959 630.989074 L 807.340971 632.999726 L 809.781982 631.316777 L 812.222994 630.877989 L 814.664005 632.455406 L 817.105017 630.933531 L 819.546029 632.34432 L 821.98704 630.500297 L 824.428052 631.422309 L 826.869064 631.094606 L 829.310075 631.261234 L 831.751087 619.719429 L 834.192098 636.709989 L 836.63311 634.321646 L 839.074122 627.645394 L 841.515133 633.993943 L 843.956145 631.6056 L 846.397157 630.739131 L 848.838168 632.310994 L 851.27918 631.116823 L 853.720191 631.011291 L 856.161203 631.500069 L 858.602215 631.116823 L 861.043226 631.500069 L 863.484238 631.227909 L 865.925249 630.794674 L 868.366261 631.172366 L 870.807273 630.900206 L 873.248284 631.33344 L 875.689296 630.794674 L 880.571319 631.172366 L 883.012331 630.794674 L 885.453342 630.844663 L 887.894354 630.628046 L 890.335366 631.011291 L 897.658401 630.739131 L 900.099412 631.011291 L 904.981435 630.578057 L 909.863459 631.011291 L 912.30447 630.36144 L 914.745482 631.066834 L 917.186494 630.522514 L 919.627505 631.011291 L 922.068517 630.305897 L 924.509528 631.011291 L 926.95054 630.955749 L 929.391552 630.250354 L 931.832563 631.011291 L 934.273575 631.011291 L 936.714586 630.466971 L 939.155598 630.739131 L 944.037621 630.794674 L 946.478633 630.522514 L 948.919645 630.794674 L 951.360656 630.628046 L 953.801668 653.061806 L 956.242679 646.057851 L 958.683691 660.33792 L 961.124703 656.433257 L 963.565714 654.478149 L 966.006726 654.205989 L 968.447738 652.900731 L 970.888749 650.079154 L 973.329761 648.28512 L 975.770772 648.068503 L 978.211784 644.485989 L 980.652796 643.886126 L 983.093807 643.563977 L 985.534819 639.764846 L 987.97583 641.881029 L 990.416842 638.83728 L 992.857854 638.948366 L 995.298865 636.832183 L 997.739877 638.131886 L 1000.180889 634.44384 L 1002.6219 639.437143 L 1005.062912 634.060594 L 1007.503923 640.686857 L 1009.944935 637.698651 L 1012.385947 637.59312 L 1014.826958 638.026354 L 1017.26797 636.615566 L 1019.708982 636.832183 L 1022.149993 635.365851 L 1024.591005 636.832183 L 1027.032016 633.3552 L 1029.473028 637.32096 L 1031.91404 632.649806 L 1034.355051 638.83728 L 1036.796063 635.149234 L 1039.237075 638.459589 L 1041.678086 634.877074 L 1044.119098 638.570674 L 1046.560109 633.194126 L 1049.001121 640.575771 L 1051.442133 635.743543 L 1053.883144 642.475337 L 1056.324156 637.370949 L 1058.765167 642.80304 L 1061.206179 637.370949 L 1063.647191 640.7424 L 1066.088202 637.59312 L 1068.529214 638.404046 L 1070.970226 636.50448 L 1073.411237 636.993257 L 1075.852249 601.606903 L 1078.29326 621.530126 L 1080.734272 627.012206 L 1083.175284 616.48128 L 1085.616295 627.773143 L 1088.057307 624.518331 L 1090.498319 624.351703 L 1092.93933 626.740046 L 1095.380342 626.417897 L 1097.821353 626.740046 L 1100.262365 627.500983 L 1105.144388 627.667611 L 1107.5854 628.206377 L 1110.026411 628.428549 L 1112.467423 628.53408 L 1114.908435 628.373006 L 1117.349446 629.456091 L 1119.790458 628.80624 L 1122.23147 628.911771 L 1124.672481 629.511634 L 1127.113493 629.400549 L 1129.554504 629.672709 L 1131.995516 629.728251 L 1134.436528 629.456091 L 1136.877539 629.728251 L 1139.318551 630.217029 L 1141.759563 629.728251 L 1146.641586 630.161486 L 1149.082597 629.728251 L 1151.523609 630.489189 L 1153.964621 629.839337 L 1158.846644 630.433646 L 1161.287656 630.055954 L 1163.728667 630.328114 L 1166.169679 630.161486 L 1168.61069 630.544731 L 1171.051702 630.217029 L 1173.492714 630.544731 L 1175.933725 630.272571 L 1178.374737 630.600274 L 1180.815748 630.378103 L 1183.25676 630.433646 L 1185.697772 630.217029 L 1188.138783 630.544731 L 1190.579795 630.650263 L 1193.020807 630.111497 L 1195.461818 630.816891 L 1195.461818 630.816891" clip-path="url(#p30184b5c55)"/></g><g id="patch_19"><path fill="none" stroke="#000" stroke-linecap="square" stroke-linejoin="miter" stroke-width=".8" d="M 172.8 692.064 L 172.8 569.869714"/></g><g id="patch_20"><path fill="none" stroke="#000" stroke-linecap="square" stroke-linejoin="miter" stroke-width=".8" d="M 1244.16 692.064 L 1244.16 569.869714"/></g><g id="patch_21"><path fill="none" stroke="#000" stroke-linecap="square" stroke-linejoin="miter" stroke-width=".8" d="M 172.8 692.064 L 1244.16 692.064"/></g><g id="patch_22"><path fill="none" stroke="#000" stroke-linecap="square" stroke-linejoin="miter" stroke-width=".8" d="M 172.8 569.869714 L 1244.16 569.869714"/></g><g id="text_43"><defs><path id="DejaVuSans-69" d="M 9.8125 72.90625 L 55.90625 72.90625 L 55.90625 64.59375 L 19.671875 64.59375 L 19.671875 43.015625 L 54.390625 43.015625 L 54.390625 34.71875 L 19.671875 34.71875 L 19.671875 8.296875 L 56.78125 8.296875 L 56.78125 0 L 9.8125 0 z"/></defs><g transform="translate(655.596094 563.869714)scale(0.21 -0.21)"><use xlink:href="#DejaVuSans-69"/><use x="63.184" xlink:href="#DejaVuSans-114"/><use x="104.281" xlink:href="#DejaVuSans-114"/><use x="145.363" xlink:href="#DejaVuSans-111"/><use x="206.545" xlink:href="#DejaVuSans-32"/><use x="238.332" xlink:href="#DejaVuSans-45"/><use x="274.416" xlink:href="#DejaVuSans-32"/><use x="306.203" xlink:href="#DejaVuSans-101"/><use x="367.727" xlink:href="#DejaVuSans-40"/><use x="406.74" xlink:href="#DejaVuSans-107"/><use x="464.65" xlink:href="#DejaVuSans-41"/></g></g></g><g id="text_44"><defs><path id="DejaVuSans-67" d="M 64.40625 67.28125 L 64.40625 56.890625 Q 59.421875 61.53125 53.78125 63.8125 Q 48.140625 66.109375 41.796875 66.109375 Q 29.296875 66.109375 22.65625 58.46875 Q 16.015625 50.828125 16.015625 36.375 Q 16.015625 21.96875 22.65625 14.328125 Q 29.296875 6.6875 41.796875 6.6875 Q 48.140625 6.6875 53.78125 8.984375 Q 59.421875 11.28125 64.40625 15.921875 L 64.40625 5.609375 Q 59.234375 2.09375 53.4375 0.328125 Q 47.65625 -1.421875 41.21875 -1.421875 Q 24.65625 -1.421875 15.125 8.703125 Q 5.609375 18.84375 5.609375 36.375 Q 5.609375 53.953125 15.125 64.078125 Q 24.65625 74.21875 41.21875 74.21875 Q 47.75 74.21875 53.53125 72.484375 Q 59.328125 70.75 64.40625 67.28125 z"/><path id="DejaVuSans-118" d="M 2.984375 54.6875 L 12.5 54.6875 L 29.59375 8.796875 L 46.6875 54.6875 L 56.203125 54.6875 L 35.6875 0 L 23.484375 0 z"/><path id="DejaVuSans-231" d="M 48.78125 52.59375 L 48.78125 44.1875 Q 44.96875 46.296875 41.140625 47.34375 Q 37.3125 48.390625 33.40625 48.390625 Q 24.65625 48.390625 19.8125 42.84375 Q 14.984375 37.3125 14.984375 27.296875 Q 14.984375 17.28125 19.8125 11.734375 Q 24.65625 6.203125 33.40625 6.203125 Q 37.3125 6.203125 41.140625 7.25 Q 44.96875 8.296875 48.78125 10.40625 L 48.78125 2.09375 Q 45.015625 0.34375 40.984375 -0.53125 Q 36.96875 -1.421875 32.421875 -1.421875 Q 20.0625 -1.421875 12.78125 6.34375 Q 5.515625 14.109375 5.515625 27.296875 Q 5.515625 40.671875 12.859375 48.328125 Q 20.21875 56 33.015625 56 Q 37.15625 56 41.109375 55.140625 Q 45.0625 54.296875 48.78125 52.59375 z M 36.109375 0 Q 38.78125 -3.03125 40.09375 -5.59375 Q 41.421875 -8.15625 41.421875 -10.5 Q 41.421875 -14.84375 38.484375 -17.0625 Q 35.5625 -19.28125 29.796875 -19.28125 Q 27.5625 -19.28125 25.4375 -18.984375 Q 23.3125 -18.703125 21.203125 -18.109375 L 21.203125 -11.71875 Q 22.875 -12.546875 24.671875 -12.90625 Q 26.484375 -13.28125 28.78125 -13.28125 Q 31.65625 -13.28125 33.125 -12.109375 Q 34.59375 -10.9375 34.59375 -8.6875 Q 34.59375 -7.234375 33.53125 -5.109375 Q 32.484375 -2.984375 30.296875 0 z"/></defs><g transform="translate(488.28625 35.307937)scale(0.26 -0.26)"><use xlink:href="#DejaVuSans-67"/><use x="69.824" xlink:href="#DejaVuSans-111"/><use x="131.006" xlink:href="#DejaVuSans-110"/><use x="194.385" xlink:href="#DejaVuSans-116"/><use x="233.594" xlink:href="#DejaVuSans-114"/><use x="274.676" xlink:href="#DejaVuSans-111"/><use x="335.857" xlink:href="#DejaVuSans-108"/><use x="363.641" xlink:href="#DejaVuSans-97"/><use x="424.92" xlink:href="#DejaVuSans-100"/><use x="488.396" xlink:href="#DejaVuSans-111"/><use x="549.578" xlink:href="#DejaVuSans-114"/><use x="590.691" xlink:href="#DejaVuSans-32"/><use x="622.479" xlink:href="#DejaVuSans-97"/><use x="683.758" xlink:href="#DejaVuSans-118"/><use x="742.938" xlink:href="#DejaVuSans-97"/><use x="804.217" xlink:href="#DejaVuSans-110"/><use x="867.596" xlink:href="#DejaVuSans-231"/><use x="922.576" xlink:href="#DejaVuSans-111"/><use x="983.773" xlink:href="#DejaVuSans-45"/><use x="1019.857" xlink:href="#DejaVuSans-97"/><use x="1081.137" xlink:href="#DejaVuSans-116"/><use x="1120.346" xlink:href="#DejaVuSans-114"/><use x="1161.459" xlink:href="#DejaVuSans-97"/><use x="1222.738" xlink:href="#DejaVuSans-115"/><use x="1274.838" xlink:href="#DejaVuSans-111"/><use x="1336.02" xlink:href="#DejaVuSans-32"/><use x="1367.807" xlink:href="#DejaVuSans-45"/><use x="1403.891" xlink:href="#DejaVuSans-32"/><use x="1435.678" xlink:href="#DejaVuSans-76"/><use x="1491.391" xlink:href="#DejaVuSans-82"/></g></g></g><defs><clipPath id="p3321f5083d"><rect width="1071.36" height="122.194" x="172.8" y="93.312"/></clipPath><clipPath id="p1008a16406"><rect width="1071.36" height="122.194" x="172.8" y="252.165"/></clipPath><clipPath id="p3801b1a6c2"><rect width="1071.36" height="122.194" x="172.8" y="411.017"/></clipPath><clipPath id="p30184b5c55"><rect width="1071.36" height="122.194" x="172.8" y="569.87"/></clipPath></defs></svg>