<svg xmlns="http://www.w3.org/2000/svg" xmlns:xlink="http://www.w3.org/1999/xlink" width="1843.2" height="1036.8" version="1.1" viewBox="0 0 1382.4 777.6"><defs><style type="text/css">*{stroke-linecap:butt;stroke-linejoin:round;white-space:pre}</style></defs><g id="figure_1"><g id="patch_1"><path fill="#fff" d="M 0 777.6 L 1382.4 777.6 L 1382.4 0 L 0 0 z"/></g><g id="axes_1"><g id="patch_2"><path fill="#fff" d="M 172.8 365.472 L 1244.16 365.472 L 1244.16 93.312 L 172.8 93.312 z"/></g><g id="matplotlib.axis_1"><g id="xtick_1"><g id="line2d_1"><path fill="none" stroke="red" stroke-linecap="square" stroke-width=".8" d="M 221.498182 365.472 L 221.498182 93.312" clip-path="url(#p6549c2bbff)"/></g><g id="line2d_2"><defs><path id="m7e8f510aa9" stroke="#000" stroke-width=".8" d="M 0 0 L 0 3.5"/></defs><g><use x="221.498" y="365.472" stroke="#000" stroke-width=".8" xlink:href="#m7e8f510aa9"/></g></g></g><g id="xtick_2"><g id="line2d_3"><path fill="none" stroke="red" stroke-linecap="square" stroke-width=".8" d="M 416.681275 365.472 L 416.681275 93.312" clip-path="url(#p6549c2bbff)"/></g><g id="line2d_4"><g><use x="416.681" y="365.472" stroke="#000" stroke-width=".8" xlink:href="#m7e8f510aa9"/></g></g></g><g id="xtick_3"><g id="line2d_5"><path fill="none" stroke="red" stroke-linecap="square" stroke-width=".8" d="M 611.864369 365.472 L 611.864369 93.312" clip-path="url(#p6549c2bbff)"/></g><g id="line2d_6"><g><use x="611.864" y="365.472" stroke="#000" stroke-width=".8" xlink:href="#m7e8f510aa9"/></g></g></g><g id="xtick_4"><g id="line2d_7"><path fill="none" stroke="red" stroke-linecap="square" stroke-width=".8" d="M 807.047462 365.472 L 807.047462 93.312" clip-path="url(#p6549c2bbff)"/></g><g id="line2d_8"><g><use x="807.047" y="365.472" stroke="#000" stroke-width=".8" xlink:href="#m7e8f510aa9"/></g></g></g><g id="xtick_5"><g id="line2d_9"><path fill="none" stroke="red" stroke-linecap="square" stroke-width=".8" d="M 1002.230556 365.472 L 1002.230556 93.312" clip-path="url(#p6549c2bbff)"/></g><g id="line2d_10"><g><use x="1002.231" y="365.472" stroke="#000" stroke-width=".8" xlink:href="#m7e8f510aa9"/></g></g></g><g id="xtick_6"><g id="line2d_11"><path fill="none" stroke="red" stroke-linecap="square" stroke-width=".8" d="M 1197.413649 365.472 L 1197.413649 93.312" clip-path="url(#p6549c2bbff)"/></g><g id="line2d_12"><g><use x="1197.414" y="365.472" stroke="#000" stroke-width=".8" xlink:href="#m7e8f510aa9"/></g></g></g></g><g id="matplotlib.axis_2"><g id="ytick_1"><g id="line2d_13"><path fill="none" stroke="red" stroke-linecap="square" stroke-width=".8" d="M 172.8 353.101091 L 1244.16 353.101091" clip-path="url(#p6549c2bbff)"/></g><g id="line2d_14"><defs><path id="mc3d8ab57a4" stroke="#000" stroke-width=".8" d="M 0 0 L -3.5 0"/></defs><g><use x="172.8" y="353.101" stroke="#000" stroke-width=".8" xlink:href="#mc3d8ab57a4"/></g></g><g id="text_1"><defs><path id="DejaVuSans-48" d="M 31.78125 66.40625 Q 24.171875 66.40625 20.328125 58.90625 Q 16.5 51.421875 16.5 36.375 Q 16.5 21.390625 20.328125 13.890625 Q 24.171875 6.390625 31.78125 6.390625 Q 39.453125 6.390625 43.28125 13.890625 Q 47.125 21.390625 47.125 36.375 Q 47.125 51.421875 43.28125 58.90625 Q 39.453125 66.40625 31.78125 66.40625 z M 31.78125 74.21875 Q 44.046875 74.21875 50.515625 64.515625 Q 56.984375 54.828125 56.984375 36.375 Q 56.984375 17.96875 50.515625 8.265625 Q 44.046875 -1.421875 31.78125 -1.421875 Q 19.53125 -1.421875 13.0625 8.265625 Q 6.59375 17.96875 6.59375 36.375 Q 6.59375 54.828125 13.0625 64.515625 Q 19.53125 74.21875 31.78125 74.21875 z"/></defs><g transform="translate(159.4375 356.90031)scale(0.1 -0.1)"><use xlink:href="#DejaVuSans-48"/></g></g></g><g id="ytick_2"><g id="line2d_15"><path fill="none" stroke="red" stroke-linecap="square" stroke-width=".8" d="M 172.8 303.617455 L 1244.16 303.617455" clip-path="url(#p6549c2bbff)"/></g><g id="line2d_16"><g><use x="172.8" y="303.617" stroke="#000" stroke-width=".8" xlink:href="#mc3d8ab57a4"/></g></g><g id="text_2"><defs><path id="DejaVuSans-49" d="M 12.40625 8.296875 L 28.515625 8.296875 L 28.515625 63.921875 L 10.984375 60.40625 L 10.984375 69.390625 L 28.421875 72.90625 L 38.28125 72.90625 L 38.28125 8.296875 L 54.390625 8.296875 L 54.390625 0 L 12.40625 0 z"/></defs><g transform="translate(159.4375 307.416673)scale(0.1 -0.1)"><use xlink:href="#DejaVuSans-49"/></g></g></g><g id="ytick_3"><g id="line2d_17"><path fill="none" stroke="red" stroke-linecap="square" stroke-width=".8" d="M 172.8 254.133818 L 1244.16 254.133818" clip-path="url(#p6549c2bbff)"/></g><g id="line2d_18"><g><use x="172.8" y="254.134" stroke="#000" stroke-width=".8" xlink:href="#mc3d8ab57a4"/></g></g><g id="text_3"><defs><path id="DejaVuSans-50" d="M 19.1875 8.296875 L 53.609375 8.296875 L 53.609375 0 L 7.328125 0 L 7.328125 8.296875 Q 12.9375 14.109375 22.625 23.890625 Q 32.328125 33.6875 34.8125 36.53125 Q 39.546875 41.84375 41.421875 45.53125 Q 43.3125 49.21875 43.3125 52.78125 Q 43.3125 58.59375 39.234375 62.25 Q 35.15625 65.921875 28.609375 65.921875 Q 23.96875 65.921875 18.8125 64.3125 Q 13.671875 62.703125 7.8125 59.421875 L 7.8125 69.390625 Q 13.765625 71.78125 18.9375 73 Q 24.125 74.21875 28.421875 74.21875 Q 39.75 74.21875 46.484375 68.546875 Q 53.21875 62.890625 53.21875 53.421875 Q 53.21875 48.921875 51.53125 44.890625 Q 49.859375 40.875 45.40625 35.40625 Q 44.1875 33.984375 37.640625 27.21875 Q 31.109375 20.453125 19.1875 8.296875 z"/></defs><g transform="translate(159.4375 257.933037)scale(0.1 -0.1)"><use xlink:href="#DejaVuSans-50"/></g></g></g><g id="ytick_4"><g id="line2d_19"><path fill="none" stroke="red" stroke-linecap="square" stroke-width=".8" d="M 172.8 204.650182 L 1244.16 204.650182" clip-path="url(#p6549c2bbff)"/></g><g id="line2d_20"><g><use x="172.8" y="204.65" stroke="#000" stroke-width=".8" xlink:href="#mc3d8ab57a4"/></g></g><g id="text_4"><defs><path id="DejaVuSans-51" d="M 40.578125 39.3125 Q 47.65625 37.796875 51.625 33 Q 55.609375 28.21875 55.609375 21.1875 Q 55.609375 10.40625 48.1875 4.484375 Q 40.765625 -1.421875 27.09375 -1.421875 Q 22.515625 -1.421875 17.65625 -0.515625 Q 12.796875 0.390625 7.625 2.203125 L 7.625 11.71875 Q 11.71875 9.328125 16.59375 8.109375 Q 21.484375 6.890625 26.8125 6.890625 Q 36.078125 6.890625 40.9375 10.546875 Q 45.796875 14.203125 45.796875 21.1875 Q 45.796875 27.640625 41.28125 31.265625 Q 36.765625 34.90625 28.71875 34.90625 L 20.21875 34.90625 L 20.21875 43.015625 L 29.109375 43.015625 Q 36.375 43.015625 40.234375 45.921875 Q 44.09375 48.828125 44.09375 54.296875 Q 44.09375 59.90625 40.109375 62.90625 Q 36.140625 65.921875 28.71875 65.921875 Q 24.65625 65.921875 20.015625 65.03125 Q 15.375 64.15625 9.8125 62.3125 L 9.8125 71.09375 Q 15.4375 72.65625 20.34375 73.4375 Q 25.25 74.21875 29.59375 74.21875 Q 40.828125 74.21875 47.359375 69.109375 Q 53.90625 64.015625 53.90625 55.328125 Q 53.90625 49.265625 50.4375 45.09375 Q 46.96875 40.921875 40.578125 39.3125 z"/></defs><g transform="translate(159.4375 208.449401)scale(0.1 -0.1)"><use xlink:href="#DejaVuSans-51"/></g></g></g><g id="ytick_5"><g id="line2d_21"><path fill="none" stroke="red" stroke-linecap="square" stroke-width=".8" d="M 172.8 155.166545 L 1244.16 155.166545" clip-path="url(#p6549c2bbff)"/></g><g id="line2d_22"><g><use x="172.8" y="155.167" stroke="#000" stroke-width=".8" xlink:href="#mc3d8ab57a4"/></g></g><g id="text_5"><defs><path id="DejaVuSans-52" d="M 37.796875 64.3125 L 12.890625 25.390625 L 37.796875 25.390625 z M 35.203125 72.90625 L 47.609375 72.90625 L 47.609375 25.390625 L 58.015625 25.390625 L 58.015625 17.1875 L 47.609375 17.1875 L 47.609375 0 L 37.796875 0 L 37.796875 17.1875 L 4.890625 17.1875 L 4.890625 26.703125 z"/></defs><g transform="translate(159.4375 158.965764)scale(0.1 -0.1)"><use xlink:href="#DejaVuSans-52"/></g></g></g><g id="ytick_6"><g id="line2d_23"><path fill="none" stroke="red" stroke-linecap="square" stroke-width=".8" d="M 172.8 105.682909 L 1244.16 105.682909" clip-path="url(#p6549c2bbff)"/></g><g id="line2d_24"><g><use x="172.8" y="105.683" stroke="#000" stroke-width=".8" xlink:href="#mc3d8ab57a4"/></g></g><g id="text_6"><defs><path id="DejaVuSans-53" d="M 10.796875 72.90625 L 49.515625 72.90625 L 49.515625 64.59375 L 19.828125 64.59375 L 19.828125 46.734375 Q 21.96875 47.46875 24.109375 47.828125 Q 26.265625 48.1875 28.421875 48.1875 Q 40.625 48.1875 47.75 41.5 Q 54.890625 34.8125 54.890625 23.390625 Q 54.890625 11.625 47.5625 5.09375 Q 40.234375 -1.421875 26.90625 -1.421875 Q 22.3125 -1.421875 17.546875 -0.640625 Q 12.796875 0.140625 7.71875 1.703125 L 7.71875 11.625 Q 12.109375 9.234375 16.796875 8.0625 Q 21.484375 6.890625 26.703125 6.890625 Q 35.15625 6.890625 40.078125 11.328125 Q 45.015625 15.765625 45.015625 23.390625 Q 45.015625 31 40.078125 35.4375 Q 35.15625 39.890625 26.703125 39.890625 Q 22.75 39.890625 18.8125 39.015625 Q 14.890625 38.140625 10.796875 36.28125 z"/></defs><g transform="translate(159.4375 109.482128)scale(0.1 -0.1)"><use xlink:href="#DejaVuSans-53"/></g></g></g><g id="text_7"><defs><path id="DejaVuSans-86" d="M 28.609375 0 L 0.78125 72.90625 L 11.078125 72.90625 L 34.1875 11.53125 L 57.328125 72.90625 L 67.578125 72.90625 L 39.796875 0 z"/><path id="DejaVuSans-111" d="M 30.609375 48.390625 Q 23.390625 48.390625 19.1875 42.75 Q 14.984375 37.109375 14.984375 27.296875 Q 14.984375 17.484375 19.15625 11.84375 Q 23.34375 6.203125 30.609375 6.203125 Q 37.796875 6.203125 41.984375 11.859375 Q 46.1875 17.53125 46.1875 27.296875 Q 46.1875 37.015625 41.984375 42.703125 Q 37.796875 48.390625 30.609375 48.390625 z M 30.609375 56 Q 42.328125 56 49.015625 48.375 Q 55.71875 40.765625 55.71875 27.296875 Q 55.71875 13.875 49.015625 6.21875 Q 42.328125 -1.421875 30.609375 -1.421875 Q 18.84375 -1.421875 12.171875 6.21875 Q 5.515625 13.875 5.515625 27.296875 Q 5.515625 40.765625 12.171875 48.375 Q 18.84375 56 30.609375 56 z"/><path id="DejaVuSans-108" d="M 9.421875 75.984375 L 18.40625 75.984375 L 18.40625 0 L 9.421875 0 z"/><path id="DejaVuSans-116" d="M 18.3125 70.21875 L 18.3125 54.6875 L 36.8125 54.6875 L 36.8125 47.703125 L 18.3125 47.703125 L 18.3125 18.015625 Q 18.3125 11.328125 20.140625 9.421875 Q 21.96875 7.515625 27.59375 7.515625 L 36.8125 7.515625 L 36.8125 0 L 27.59375 0 Q 17.1875 0 13.234375 3.875 Q 9.28125 7.765625 9.28125 18.015625 L 9.28125 47.703125 L 2.6875 47.703125 L 2.6875 54.6875 L 9.28125 54.6875 L 9.28125 70.21875 z"/><path id="DejaVuSans-97" d="M 34.28125 27.484375 Q 23.390625 27.484375 19.1875 25 Q 14.984375 22.515625 14.984375 16.5 Q 14.984375 11.71875 18.140625 8.90625 Q 21.296875 6.109375 26.703125 6.109375 Q 34.1875 6.109375 38.703125 11.40625 Q 43.21875 16.703125 43.21875 25.484375 L 43.21875 27.484375 z M 52.203125 31.203125 L 52.203125 0 L 43.21875 0 L 43.21875 8.296875 Q 40.140625 3.328125 35.546875 0.953125 Q 30.953125 -1.421875 24.3125 -1.421875 Q 15.921875 -1.421875 10.953125 3.296875 Q 6 8.015625 6 15.921875 Q 6 25.140625 12.171875 29.828125 Q 18.359375 34.515625 30.609375 34.515625 L 43.21875 34.515625 L 43.21875 35.40625 Q 43.21875 41.609375 39.140625 45 Q 35.0625 48.390625 27.6875 48.390625 Q 23 48.390625 18.546875 47.265625 Q 14.109375 46.140625 10.015625 43.890625 L 10.015625 52.203125 Q 14.9375 54.109375 19.578125 55.046875 Q 24.21875 56 28.609375 56 Q 40.484375 56 46.34375 49.84375 Q 52.203125 43.703125 52.203125 31.203125 z"/><path id="DejaVuSans-103" d="M 45.40625 27.984375 Q 45.40625 37.75 41.375 43.109375 Q 37.359375 48.484375 30.078125 48.484375 Q 22.859375 48.484375 18.828125 43.109375 Q 14.796875 37.75 14.796875 27.984375 Q 14.796875 18.265625 18.828125 12.890625 Q 22.859375 7.515625 30.078125 7.515625 Q 37.359375 7.515625 41.375 12.890625 Q 45.40625 18.265625 45.40625 27.984375 z M 54.390625 6.78125 Q 54.390625 -7.171875 48.1875 -13.984375 Q 42 -20.796875 29.203125 -20.796875 Q 24.46875 -20.796875 20.265625 -20.09375 Q 16.0625 -19.390625 12.109375 -17.921875 L 12.109375 -9.1875 Q 16.0625 -11.328125 19.921875 -12.34375 Q 23.78125 -13.375 27.78125 -13.375 Q 36.625 -13.375 41.015625 -8.765625 Q 45.40625 -4.15625 45.40625 5.171875 L 45.40625 9.625 Q 42.625 4.78125 38.28125 2.390625 Q 33.9375 0 27.875 0 Q 17.828125 0 11.671875 7.65625 Q 5.515625 15.328125 5.515625 27.984375 Q 5.515625 40.671875 11.671875 48.328125 Q 17.828125 56 27.875 56 Q 33.9375 56 38.28125 53.609375 Q 42.625 51.21875 45.40625 46.390625 L 45.40625 54.6875 L 54.390625 54.6875 z"/><path id="DejaVuSans-101" d="M 56.203125 29.59375 L 56.203125 25.203125 L 14.890625 25.203125 Q 15.484375 15.921875 20.484375 11.0625 Q 25.484375 6.203125 34.421875 6.203125 Q 39.59375 6.203125 44.453125 7.46875 Q 49.3125 8.734375 54.109375 11.28125 L 54.109375 2.78125 Q 49.265625 0.734375 44.1875 -0.34375 Q 39.109375 -1.421875 33.890625 -1.421875 Q 20.796875 -1.421875 13.15625 6.1875 Q 5.515625 13.8125 5.515625 26.8125 Q 5.515625 40.234375 12.765625 48.109375 Q 20.015625 56 32.328125 56 Q 43.359375 56 49.78125 48.890625 Q 56.203125 41.796875 56.203125 29.59375 z M 47.21875 32.234375 Q 47.125 39.59375 43.09375 43.984375 Q 39.0625 48.390625 32.421875 48.390625 Q 24.90625 48.390625 20.390625 44.140625 Q 15.875 39.890625 15.1875 32.171875 z"/><path id="DejaVuSans-109" d="M 52 44.1875 Q 55.375 50.25 60.0625 53.125 Q 64.75 56 71.09375 56 Q 79.640625 56 84.28125 50.015625 Q 88.921875 44.046875 88.921875 33.015625 L 88.921875 0 L 79.890625 0 L 79.890625 32.71875 Q 79.890625 40.578125 77.09375 44.375 Q 74.3125 48.1875 68.609375 48.1875 Q 61.625 48.1875 57.5625 43.546875 Q 53.515625 38.921875 53.515625 30.90625 L 53.515625 0 L 44.484375 0 L 44.484375 32.71875 Q 44.484375 40.625 41.703125 44.40625 Q 38.921875 48.1875 33.109375 48.1875 Q 26.21875 48.1875 22.15625 43.53125 Q 18.109375 38.875 18.109375 30.90625 L 18.109375 0 L 9.078125 0 L 9.078125 54.6875 L 18.109375 54.6875 L 18.109375 46.1875 Q 21.1875 51.21875 25.484375 53.609375 Q 29.78125 56 35.6875 56 Q 41.65625 56 45.828125 52.96875 Q 50 49.953125 52 44.1875 z"/><path id="DejaVuSans-32"/><path id="DejaVuSans-40" d="M 31 75.875 Q 24.46875 64.65625 21.28125 53.65625 Q 18.109375 42.671875 18.109375 31.390625 Q 18.109375 20.125 21.3125 9.0625 Q 24.515625 -2 31 -13.1875 L 23.1875 -13.1875 Q 15.875 -1.703125 12.234375 9.375 Q 8.59375 20.453125 8.59375 31.390625 Q 8.59375 42.28125 12.203125 53.3125 Q 15.828125 64.359375 23.1875 75.875 z"/><path id="DejaVuSans-41" d="M 8.015625 75.875 L 15.828125 75.875 Q 23.140625 64.359375 26.78125 53.3125 Q 30.421875 42.28125 30.421875 31.390625 Q 30.421875 20.453125 26.78125 9.375 Q 23.140625 -1.703125 15.828125 -13.1875 L 8.015625 -13.1875 Q 14.5 -2 17.703125 9.0625 Q 20.90625 20.125 20.90625 31.390625 Q 20.90625 42.671875 17.703125 53.65625 Q 14.5 64.65625 8.015625 75.875 z"/></defs><g transform="translate(153.357812 262.311531)rotate(-90)scale(0.1 -0.1)"><use xlink:href="#DejaVuSans-86"/><use x="68.299" xlink:href="#DejaVuSans-111"/><use x="129.48" xlink:href="#DejaVuSans-108"/><use x="157.264" xlink:href="#DejaVuSans-116"/><use x="196.473" xlink:href="#DejaVuSans-97"/><use x="257.752" xlink:href="#DejaVuSans-103"/><use x="321.229" xlink:href="#DejaVuSans-101"/><use x="382.752" xlink:href="#DejaVuSans-109"/><use x="480.164" xlink:href="#DejaVuSans-32"/><use x="511.951" xlink:href="#DejaVuSans-40"/><use x="550.965" xlink:href="#DejaVuSans-86"/><use x="619.373" xlink:href="#DejaVuSans-41"/></g></g></g><g id="line2d_25"><path fill="none" stroke="#1f77b4" stroke-linecap="square" stroke-width="4" d="M 221.498182 155.166545 L 414.729444 155.166545 L 416.681275 353.101091 L 609.912538 353.101091 L 611.864369 105.682909 L 805.095631 105.682909 L 807.047462 303.617455 L 1000.278725 303.617455 L 1002.230556 254.133818 L 1195.461818 254.133818 L 1195.461818 254.133818" clip-path="url(#p6549c2bbff)"/></g><g id="patch_3"><path fill="none" stroke="#000" stroke-linecap="square" stroke-linejoin="miter" stroke-width=".8" d="M 172.8 365.472 L 172.8 93.312"/></g><g id="patch_4"><path fill="none" stroke="#000" stroke-linecap="square" stroke-linejoin="miter" stroke-width=".8" d="M 1244.16 365.472 L 1244.16 93.312"/></g><g id="patch_5"><path fill="none" stroke="#000" stroke-linecap="square" stroke-linejoin="miter" stroke-width=".8" d="M 172.8 365.472 L 1244.16 365.472"/></g><g id="patch_6"><path fill="none" stroke="#000" stroke-linecap="square" stroke-linejoin="miter" stroke-width=".8" d="M 172.8 93.312 L 1244.16 93.312"/></g><g id="text_8"><defs><path id="DejaVuSans-68" d="M 19.671875 64.796875 L 19.671875 8.109375 L 31.59375 8.109375 Q 46.6875 8.109375 53.6875 14.9375 Q 60.6875 21.78125 60.6875 36.53125 Q 60.6875 51.171875 53.6875 57.984375 Q 46.6875 64.796875 31.59375 64.796875 z M 9.8125 72.90625 L 30.078125 72.90625 Q 51.265625 72.90625 61.171875 64.09375 Q 71.09375 55.28125 71.09375 36.53125 Q 71.09375 17.671875 61.125 8.828125 Q 51.171875 0 30.078125 0 L 9.8125 0 z"/><path id="DejaVuSans-100" d="M 45.40625 46.390625 L 45.40625 75.984375 L 54.390625 75.984375 L 54.390625 0 L 45.40625 0 L 45.40625 8.203125 Q 42.578125 3.328125 38.25 0.953125 Q 33.9375 -1.421875 27.875 -1.421875 Q 17.96875 -1.421875 11.734375 6.484375 Q 5.515625 14.40625 5.515625 27.296875 Q 5.515625 40.1875 11.734375 48.09375 Q 17.96875 56 27.875 56 Q 33.9375 56 38.25 53.625 Q 42.578125 51.265625 45.40625 46.390625 z M 14.796875 27.296875 Q 14.796875 17.390625 18.875 11.75 Q 22.953125 6.109375 30.078125 6.109375 Q 37.203125 6.109375 41.296875 11.75 Q 45.40625 17.390625 45.40625 27.296875 Q 45.40625 37.203125 41.296875 42.84375 Q 37.203125 48.484375 30.078125 48.484375 Q 22.953125 48.484375 18.875 42.84375 Q 14.796875 37.203125 14.796875 27.296875 z"/><path id="DejaVuSans-115" d="M 44.28125 53.078125 L 44.28125 44.578125 Q 40.484375 46.53125 36.375 47.5 Q 32.28125 48.484375 27.875 48.484375 Q 21.1875 48.484375 17.84375 46.4375 Q 14.5 44.390625 14.5 40.28125 Q 14.5 37.15625 16.890625 35.375 Q 19.28125 33.59375 26.515625 31.984375 L 29.59375 31.296875 Q 39.15625 29.25 43.1875 25.515625 Q 47.21875 21.78125 47.21875 15.09375 Q 47.21875 7.46875 41.1875 3.015625 Q 35.15625 -1.421875 24.609375 -1.421875 Q 20.21875 -1.421875 15.453125 -0.5625 Q 10.6875 0.296875 5.421875 2 L 5.421875 11.28125 Q 10.40625 8.6875 15.234375 7.390625 Q 20.0625 6.109375 24.8125 6.109375 Q 31.15625 6.109375 34.5625 8.28125 Q 37.984375 10.453125 37.984375 14.40625 Q 37.984375 18.0625 35.515625 20.015625 Q 33.0625 21.96875 24.703125 23.78125 L 21.578125 24.515625 Q 13.234375 26.265625 9.515625 29.90625 Q 5.8125 33.546875 5.8125 39.890625 Q 5.8125 47.609375 11.28125 51.796875 Q 16.75 56 26.8125 56 Q 31.78125 56 36.171875 55.265625 Q 40.578125 54.546875 44.28125 53.078125 z"/><path id="DejaVuSans-99" d="M 48.78125 52.59375 L 48.78125 44.1875 Q 44.96875 46.296875 41.140625 47.34375 Q 37.3125 48.390625 33.40625 48.390625 Q 24.65625 48.390625 19.8125 42.84375 Q 14.984375 37.3125 14.984375 27.296875 Q 14.984375 17.28125 19.8125 11.734375 Q 24.65625 6.203125 33.40625 6.203125 Q 37.3125 6.203125 41.140625 7.25 Q 44.96875 8.296875 48.78125 10.40625 L 48.78125 2.09375 Q 45.015625 0.34375 40.984375 -0.53125 Q 36.96875 -1.421875 32.421875 -1.421875 Q 20.0625 -1.421875 12.78125 6.34375 Q 5.515625 14.109375 5.515625 27.296875 Q 5.515625 40.671875 12.859375 48.328125 Q 20.21875 56 33.015625 56 Q 37.15625 56 41.109375 55.140625 Q 45.0625 54.296875 48.78125 52.59375 z"/><path id="DejaVuSans-114" d="M 41.109375 46.296875 Q 39.59375 47.171875 37.8125 47.578125 Q 36.03125 48 33.890625 48 Q 26.265625 48 22.1875 43.046875 Q 18.109375 38.09375 18.109375 28.8125 L 18.109375 0 L 9.078125 0 L 9.078125 54.6875 L 18.109375 54.6875 L 18.109375 46.1875 Q 20.953125 51.171875 25.484375 53.578125 Q 30.03125 56 36.53125 56 Q 37.453125 56 38.578125 55.875 Q 39.703125 55.765625 41.0625 55.515625 z"/><path id="DejaVuSans-105" d="M 9.421875 54.6875 L 18.40625 54.6875 L 18.40625 0 L 9.421875 0 z M 9.421875 75.984375 L 18.40625 75.984375 L 18.40625 64.59375 L 9.421875 64.59375 z"/><path id="DejaVuSans-80" d="M 19.671875 64.796875 L 19.671875 37.40625 L 32.078125 37.40625 Q 38.96875 37.40625 42.71875 40.96875 Q 46.484375 44.53125 46.484375 51.125 Q 46.484375 57.671875 42.71875 61.234375 Q 38.96875 64.796875 32.078125 64.796875 z M 9.8125 72.90625 L 32.078125 72.90625 Q 44.34375 72.90625 50.609375 67.359375 Q 56.890625 61.8125 56.890625 51.125 Q 56.890625 40.328125 50.609375 34.8125 Q 44.34375 29.296875 32.078125 29.296875 L 19.671875 29.296875 L 19.671875 0 L 9.8125 0 z"/><path id="DejaVuSans-87" d="M 3.328125 72.90625 L 13.28125 72.90625 L 28.609375 11.28125 L 43.890625 72.90625 L 54.984375 72.90625 L 70.3125 11.28125 L 85.59375 72.90625 L 95.609375 72.90625 L 77.296875 0 L 64.890625 0 L 49.515625 63.28125 L 33.984375 0 L 21.578125 0 z"/><path id="DejaVuSans-77" d="M 9.8125 72.90625 L 24.515625 72.90625 L 43.109375 23.296875 L 61.8125 72.90625 L 76.515625 72.90625 L 76.515625 0 L 66.890625 0 L 66.890625 64.015625 L 48.09375 14.015625 L 38.1875 14.015625 L 19.390625 64.015625 L 19.390625 0 L 9.8125 0 z"/></defs><g transform="translate(642.955312 87.312)scale(0.12 -0.12)"><use xlink:href="#DejaVuSans-68"/><use x="77.002" xlink:href="#DejaVuSans-97"/><use x="138.281" xlink:href="#DejaVuSans-100"/><use x="201.758" xlink:href="#DejaVuSans-111"/><use x="262.939" xlink:href="#DejaVuSans-115"/><use x="315.039" xlink:href="#DejaVuSans-32"/><use x="346.826" xlink:href="#DejaVuSans-101"/><use x="408.35" xlink:href="#DejaVuSans-115"/><use x="460.449" xlink:href="#DejaVuSans-99"/><use x="515.43" xlink:href="#DejaVuSans-114"/><use x="556.543" xlink:href="#DejaVuSans-105"/><use x="584.326" xlink:href="#DejaVuSans-116"/><use x="623.535" xlink:href="#DejaVuSans-111"/><use x="684.717" xlink:href="#DejaVuSans-115"/><use x="736.816" xlink:href="#DejaVuSans-32"/><use x="768.604" xlink:href="#DejaVuSans-40"/><use x="807.617" xlink:href="#DejaVuSans-80"/><use x="867.92" xlink:href="#DejaVuSans-87"/><use x="966.797" xlink:href="#DejaVuSans-77"/><use x="1053.076" xlink:href="#DejaVuSans-41"/></g></g></g><g id="axes_2"><g id="patch_7"><path fill="#fff" d="M 172.8 692.064 L 1244.16 692.064 L 1244.16 419.904 L 172.8 419.904 z"/></g><g id="matplotlib.axis_3"><g id="xtick_7"><g id="line2d_26"><path fill="none" stroke="red" stroke-linecap="square" stroke-width=".8" d="M 221.498182 692.064 L 221.498182 419.904" clip-path="url(#pb9ca628f64)"/></g><g id="line2d_27"><g><use x="221.498" y="692.064" stroke="#000" stroke-width=".8" xlink:href="#m7e8f510aa9"/></g></g><g id="text_9"><g transform="translate(218.316932 706.662438)scale(0.1 -0.1)"><use xlink:href="#DejaVuSans-48"/></g></g></g><g id="xtick_8"><g id="line2d_28"><path fill="none" stroke="red" stroke-linecap="square" stroke-width=".8" d="M 416.681275 692.064 L 416.681275 419.904" clip-path="url(#pb9ca628f64)"/></g><g id="line2d_29"><g><use x="416.681" y="692.064" stroke="#000" stroke-width=".8" xlink:href="#m7e8f510aa9"/></g></g><g id="text_10"><g transform="translate(407.137525 706.662438)scale(0.1 -0.1)"><use xlink:href="#DejaVuSans-49"/><use x="63.623" xlink:href="#DejaVuSans-48"/><use x="127.246" xlink:href="#DejaVuSans-48"/></g></g></g><g id="xtick_9"><g id="line2d_30"><path fill="none" stroke="red" stroke-linecap="square" stroke-width=".8" d="M 611.864369 692.064 L 611.864369 419.904" clip-path="url(#pb9ca628f64)"/></g><g id="line2d_31"><g><use x="611.864" y="692.064" stroke="#000" stroke-width=".8" xlink:href="#m7e8f510aa9"/></g></g><g id="text_11"><g transform="translate(602.320619 706.662438)scale(0.1 -0.1)"><use xlink:href="#DejaVuSans-50"/><use x="63.623" xlink:href="#DejaVuSans-48"/><use x="127.246" xlink:href="#DejaVuSans-48"/></g></g></g><g id="xtick_10"><g id="line2d_32"><path fill="none" stroke="red" stroke-linecap="square" stroke-width=".8" d="M 807.047462 692.064 L 807.047462 419.904" clip-path="url(#pb9ca628f64)"/></g><g id="line2d_33"><g><use x="807.047" y="692.064" stroke="#000" stroke-width=".8" xlink:href="#m7e8f510aa9"/></g></g><g id="text_12"><g transform="translate(797.503712 706.662438)scale(0.1 -0.1)"><use xlink:href="#DejaVuSans-51"/><use x="63.623" xlink:href="#DejaVuSans-48"/><use x="127.246" xlink:href="#DejaVuSans-48"/></g></g></g><g id="xtick_11"><g id="line2d_34"><path fill="none" stroke="red" stroke-linecap="square" stroke-width=".8" d="M 1002.230556 692.064 L 1002.230556 419.904" clip-path="url(#pb9ca628f64)"/></g><g id="line2d_35"><g><use x="1002.231" y="692.064" stroke="#000" stroke-width=".8" xlink:href="#m7e8f510aa9"/></g></g><g id="text_13"><g transform="translate(992.686806 706.662438)scale(0.1 -0.1)"><use xlink:href="#DejaVuSans-52"/><use x="63.623" xlink:href="#DejaVuSans-48"/><use x="127.246" xlink:href="#DejaVuSans-48"/></g></g></g><g id="xtick_12"><g id="line2d_36"><path fill="none" stroke="red" stroke-linecap="square" stroke-width=".8" d="M 1197.413649 692.064 L 1197.413649 419.904" clip-path="url(#pb9ca628f64)"/></g><g id="line2d_37"><g><use x="1197.414" y="692.064" stroke="#000" stroke-width=".8" xlink:href="#m7e8f510aa9"/></g></g><g id="text_14"><g transform="translate(1187.869899 706.662438)scale(0.1 -0.1)"><use xlink:href="#DejaVuSans-53"/><use x="63.623" xlink:href="#DejaVuSans-48"/><use x="127.246" xlink:href="#DejaVuSans-48"/></g></g></g><g id="text_15"><defs><path id="DejaVuSans-65" d="M 34.1875 63.1875 L 20.796875 26.90625 L 47.609375 26.90625 z M 28.609375 72.90625 L 39.796875 72.90625 L 67.578125 0 L 57.328125 0 L 50.6875 18.703125 L 17.828125 18.703125 L 11.1875 0 L 0.78125 0 z"/></defs><g transform="translate(684.840937 720.340563)scale(0.1 -0.1)"><use xlink:href="#DejaVuSans-65"/><use x="68.408" xlink:href="#DejaVuSans-109"/><use x="165.82" xlink:href="#DejaVuSans-111"/><use x="227.002" xlink:href="#DejaVuSans-115"/><use x="279.102" xlink:href="#DejaVuSans-116"/><use x="318.311" xlink:href="#DejaVuSans-114"/><use x="359.424" xlink:href="#DejaVuSans-97"/><use x="420.703" xlink:href="#DejaVuSans-115"/></g></g></g><g id="matplotlib.axis_4"><g id="ytick_7"><g id="line2d_38"><path fill="none" stroke="red" stroke-linecap="square" stroke-width=".8" d="M 172.8 669.384 L 1244.16 669.384" clip-path="url(#pb9ca628f64)"/></g><g id="line2d_39"><g><use x="172.8" y="669.384" stroke="#000" stroke-width=".8" xlink:href="#mc3d8ab57a4"/></g></g><g id="text_16"><g transform="translate(159.4375 673.183219)scale(0.1 -0.1)"><use xlink:href="#DejaVuSans-48"/></g></g></g><g id="ytick_8"><g id="line2d_40"><path fill="none" stroke="red" stroke-linecap="square" stroke-width=".8" d="M 172.8 624.024 L 1244.16 624.024" clip-path="url(#pb9ca628f64)"/></g><g id="line2d_41"><g><use x="172.8" y="624.024" stroke="#000" stroke-width=".8" xlink:href="#mc3d8ab57a4"/></g></g><g id="text_17"><g transform="translate(159.4375 627.823219)scale(0.1 -0.1)"><use xlink:href="#DejaVuSans-49"/></g></g></g><g id="ytick_9"><g id="line2d_42"><path fill="none" stroke="red" stroke-linecap="square" stroke-width=".8" d="M 172.8 578.664 L 1244.16 578.664" clip-path="url(#pb9ca628f64)"/></g><g id="line2d_43"><g><use x="172.8" y="578.664" stroke="#000" stroke-width=".8" xlink:href="#mc3d8ab57a4"/></g></g><g id="text_18"><g transform="translate(159.4375 582.463219)scale(0.1 -0.1)"><use xlink:href="#DejaVuSans-50"/></g></g></g><g id="ytick_10"><g id="line2d_44"><path fill="none" stroke="red" stroke-linecap="square" stroke-width=".8" d="M 172.8 533.304 L 1244.16 533.304" clip-path="url(#pb9ca628f64)"/></g><g id="line2d_45"><g><use x="172.8" y="533.304" stroke="#000" stroke-width=".8" xlink:href="#mc3d8ab57a4"/></g></g><g id="text_19"><g transform="translate(159.4375 537.103219)scale(0.1 -0.1)"><use xlink:href="#DejaVuSans-51"/></g></g></g><g id="ytick_11"><g id="line2d_46"><path fill="none" stroke="red" stroke-linecap="square" stroke-width=".8" d="M 172.8 487.944 L 1244.16 487.944" clip-path="url(#pb9ca628f64)"/></g><g id="line2d_47"><g><use x="172.8" y="487.944" stroke="#000" stroke-width=".8" xlink:href="#mc3d8ab57a4"/></g></g><g id="text_20"><g transform="translate(159.4375 491.743219)scale(0.1 -0.1)"><use xlink:href="#DejaVuSans-52"/></g></g></g><g id="ytick_12"><g id="line2d_48"><path fill="none" stroke="red" stroke-linecap="square" stroke-width=".8" d="M 172.8 442.584 L 1244.16 442.584" clip-path="url(#pb9ca628f64)"/></g><g id="line2d_49"><g><use x="172.8" y="442.584" stroke="#000" stroke-width=".8" xlink:href="#mc3d8ab57a4"/></g></g><g id="text_21"><g transform="translate(159.4375 446.383219)scale(0.1 -0.1)"><use xlink:href="#DejaVuSans-53"/></g></g></g><g id="text_22"><g transform="translate(153.357812 588.903531)rotate(-90)scale(0.1 -0.1)"><use xlink:href="#DejaVuSans-86"/><use x="68.299" xlink:href="#DejaVuSans-111"/><use x="129.48" xlink:href="#DejaVuSans-108"/><use x="157.264" xlink:href="#DejaVuSans-116"/><use x="196.473" xlink:href="#DejaVuSans-97"/><use x="257.752" xlink:href="#DejaVuSans-103"/><use x="321.229" xlink:href="#DejaVuSans-101"/><use x="382.752" xlink:href="#DejaVuSans-109"/><use x="480.164" xlink:href="#DejaVuSans-32"/><use x="511.951" xlink:href="#DejaVuSans-40"/><use x="550.965" xlink:href="#DejaVuSans-86"/><use x="619.373" xlink:href="#DejaVuSans-41"/></g></g></g><g id="line2d_50"><path fill="none" stroke="#1f77b4" stroke-dasharray="14.8 6.4" stroke-dashoffset="0" stroke-width="4" d="M 221.498182 669.384 L 223.450013 611.07372 L 225.401844 527.49792 L 227.353675 511.5312 L 229.305506 504.88596 L 231.257336 503.77464 L 233.209167 503.54784 L 235.160998 502.66332 L 237.112829 503.77464 L 239.06466 503.77464 L 241.016491 502.89012 L 242.968322 502.43652 L 244.920153 503.54784 L 246.871984 501.7788 L 248.823815 502.66332 L 250.775646 503.32104 L 252.727477 501.7788 L 254.679308 503.11692 L 256.631139 503.11692 L 258.58297 502.0056 L 260.534801 502.43652 L 262.486631 502.2324 L 264.438462 503.11692 L 266.390293 502.66332 L 268.342124 502.89012 L 270.293955 502.43652 L 272.245786 502.2324 L 274.197617 503.11692 L 276.149448 502.2324 L 278.101279 503.32104 L 280.05311 501.552 L 282.004941 502.89012 L 283.956772 502.43652 L 285.908603 502.43652 L 287.860434 501.552 L 289.812265 502.43652 L 291.764095 502.2324 L 293.715926 502.66332 L 295.667757 502.2324 L 297.619588 502.66332 L 299.571419 501.7788 L 301.52325 502.66332 L 303.475081 501.552 L 305.426912 503.11692 L 307.378743 502.0056 L 309.330574 502.43652 L 311.282405 500.66748 L 313.234236 502.2324 L 315.186067 501.552 L 317.137898 502.66332 L 319.089729 501.12108 L 321.041559 502.43652 L 322.99339 503.11692 L 324.945221 502.43652 L 326.897052 502.2324 L 328.848883 501.552 L 330.800714 502.0056 L 332.752545 501.552 L 334.704376 501.7788 L 336.656207 501.552 L 338.608038 502.66332 L 340.559869 502.0056 L 342.5117 502.2324 L 344.463531 502.2324 L 346.415362 501.12108 L 348.367193 502.43652 L 350.319024 501.552 L 352.270854 502.66332 L 354.222685 501.7788 L 356.174516 502.66332 L 358.126347 501.552 L 360.078178 502.89012 L 362.030009 501.3252 L 367.885502 502.0056 L 369.837333 502.43652 L 371.789164 501.552 L 373.740995 502.66332 L 375.692826 501.7788 L 377.644657 502.43652 L 379.596488 500.89428 L 381.548318 502.43652 L 383.500149 501.3252 L 385.45198 502.0056 L 387.403811 502.2324 L 389.355642 502.0056 L 391.307473 502.43652 L 393.259304 501.552 L 395.211135 502.0056 L 397.162966 501.3252 L 399.114797 502.66332 L 401.066628 502.0056 L 403.018459 501.7788 L 404.97029 502.0056 L 406.922121 501.552 L 408.873952 502.2324 L 410.825782 502.43652 L 412.777613 502.43652 L 416.681275 501.12108 L 418.633106 529.72056 L 420.584937 570.9528 L 422.536768 603.09036 L 424.488599 631.68984 L 426.44043 655.41312 L 428.392261 669.384 L 611.864369 669.384 L 613.8162 595.7874 L 615.768031 501.12108 L 617.719862 480.05136 L 619.671692 477.171 L 621.623523 477.171 L 623.575354 476.9442 L 625.527185 475.83288 L 627.479016 476.51328 L 629.430847 476.7174 L 631.382678 476.7174 L 633.334509 476.9442 L 639.190002 476.9442 L 641.141833 476.51328 L 643.093664 476.9442 L 645.045495 476.51328 L 646.997326 476.51328 L 648.949156 476.28648 L 650.900987 475.83288 L 652.852818 475.83288 L 654.804649 476.28648 L 658.708311 476.7174 L 660.660142 476.28648 L 662.611973 476.51328 L 664.563804 476.05968 L 666.515635 476.9442 L 668.467466 476.28648 L 670.419297 476.51328 L 672.371128 475.83288 L 674.322959 474.94836 L 676.27479 476.05968 L 678.226621 476.05968 L 680.178451 476.7174 L 682.130282 476.51328 L 684.082113 476.9442 L 686.033944 476.51328 L 689.937606 476.51328 L 691.889437 475.83288 L 693.841268 476.51328 L 695.793099 475.40196 L 697.74493 475.62876 L 699.696761 476.28648 L 703.600423 476.7174 L 705.552254 476.51328 L 707.504085 476.51328 L 709.455915 475.83288 L 711.407746 476.05968 L 713.359577 475.62876 L 715.311408 475.62876 L 717.263239 475.17516 L 721.166901 476.51328 L 723.118732 476.05968 L 725.070563 476.28648 L 727.022394 475.62876 L 728.974225 475.83288 L 730.926056 475.62876 L 732.877887 476.05968 L 734.829718 476.05968 L 736.781549 476.28648 L 742.637041 476.28648 L 744.588872 475.83288 L 746.540703 475.83288 L 748.492534 475.40196 L 750.444365 476.05968 L 752.396196 474.94836 L 754.348027 476.51328 L 756.299858 476.51328 L 758.251689 476.7174 L 762.155351 474.94836 L 764.107182 475.62876 L 766.059013 475.83288 L 768.010844 476.51328 L 769.962674 476.28648 L 771.914505 476.51328 L 773.866336 475.83288 L 775.818167 476.51328 L 777.769998 475.62876 L 781.67366 475.17516 L 785.577322 476.51328 L 787.529153 475.62876 L 789.480984 475.83288 L 791.432815 475.62876 L 795.336477 475.62876 L 797.288308 476.28648 L 799.240138 476.05968 L 801.191969 476.51328 L 803.1438 475.83288 L 805.095631 476.28648 L 807.047462 476.05968 L 808.999293 502.43652 L 810.951124 538.58844 L 812.902955 563.85396 L 814.854786 581.81652 L 816.806617 594.90288 L 818.758448 602.65944 L 820.710279 612.18504 L 822.66211 615.94992 L 824.613941 616.17672 L 830.469433 617.51484 L 832.421264 618.17256 L 834.373095 620.1684 L 836.324926 620.3952 L 838.276757 618.17256 L 840.228588 621.71064 L 842.180419 621.93744 L 844.13225 619.51068 L 846.084081 621.05292 L 848.035912 621.05292 L 849.987743 619.05708 L 851.939574 619.7148 L 853.891405 620.1684 L 855.843236 620.82612 L 857.795066 618.17256 L 859.746897 619.7148 L 861.698728 620.3952 L 863.650559 619.51068 L 865.60239 618.17256 L 867.554221 621.50652 L 869.506052 620.59932 L 871.457883 619.51068 L 873.409714 620.3952 L 875.361545 621.93744 L 877.313376 620.59932 L 879.265207 619.51068 L 881.217038 619.28388 L 883.168869 622.82196 L 885.1207 619.51068 L 887.072531 618.60348 L 889.024361 619.7148 L 890.976192 619.9416 L 892.928023 616.83444 L 896.831685 620.82612 L 898.783516 617.06124 L 900.735347 619.05708 L 902.687178 621.71064 L 904.639009 621.93744 L 906.59084 617.94576 L 908.542671 621.27972 L 910.494502 622.59516 L 912.446333 621.05292 L 914.398164 621.05292 L 916.349995 622.16424 L 918.301825 621.50652 L 920.253656 617.94576 L 922.205487 621.71064 L 924.157318 621.50652 L 926.109149 617.51484 L 928.06098 618.17256 L 930.012811 620.3952 L 931.964642 618.17256 L 933.916473 618.17256 L 935.868304 620.1684 L 937.820135 619.05708 L 939.771966 619.05708 L 941.723797 620.1684 L 943.675628 622.39104 L 945.627459 619.7148 L 947.579289 619.7148 L 949.53112 622.16424 L 951.482951 620.82612 L 953.434782 620.1684 L 955.386613 621.93744 L 957.338444 620.59932 L 959.290275 618.83028 L 961.242106 619.05708 L 963.193937 620.3952 L 965.145768 619.9416 L 967.097599 618.60348 L 969.04943 619.9416 L 971.001261 620.82612 L 972.953092 619.05708 L 974.904923 619.28388 L 976.856754 621.27972 L 980.760415 619.51068 L 982.712246 622.59516 L 984.664077 621.27972 L 986.615908 619.51068 L 988.567739 619.05708 L 990.51957 621.93744 L 992.471401 619.9416 L 994.423232 618.60348 L 996.375063 619.51068 L 998.326894 620.1684 L 1000.278725 617.94576 L 1002.230556 618.60348 L 1004.182387 593.79156 L 1006.134218 575.829 L 1008.086048 567.61884 L 1010.037879 562.74264 L 1013.941541 559.20456 L 1015.893372 559.63548 L 1017.845203 558.52416 L 1019.797034 558.75096 L 1021.748865 557.63964 L 1023.700696 557.86644 L 1025.652527 558.75096 L 1027.604358 558.32004 L 1029.556189 557.63964 L 1031.50802 558.32004 L 1033.459851 558.32004 L 1035.411682 557.86644 L 1037.363512 557.20872 L 1039.315343 558.09324 L 1041.267174 557.86644 L 1043.219005 556.98192 L 1045.170836 557.86644 L 1047.122667 558.97776 L 1049.074498 556.98192 L 1051.026329 556.75512 L 1052.97816 557.20872 L 1054.929991 557.86644 L 1056.881822 557.43552 L 1058.833653 557.43552 L 1060.785484 558.32004 L 1062.737315 558.52416 L 1064.689146 556.0974 L 1066.640976 556.52832 L 1068.592807 558.52416 L 1070.544638 557.86644 L 1072.496469 557.43552 L 1074.4483 557.63964 L 1076.400131 558.75096 L 1078.351962 558.32004 L 1080.303793 557.63964 L 1082.255624 557.63964 L 1084.207455 558.52416 L 1086.159286 557.43552 L 1088.111117 557.43552 L 1092.014779 558.32004 L 1093.96661 556.98192 L 1095.918441 556.98192 L 1097.870271 557.20872 L 1101.773933 558.52416 L 1103.725764 557.43552 L 1105.677595 558.52416 L 1107.629426 558.75096 L 1109.581257 556.52832 L 1111.533088 557.43552 L 1115.43675 558.32004 L 1117.388581 557.20872 L 1119.340412 556.98192 L 1121.292243 558.09324 L 1123.244074 558.09324 L 1125.195905 556.98192 L 1127.147735 556.3242 L 1129.099566 558.75096 L 1131.051397 558.97776 L 1133.003228 557.43552 L 1134.955059 557.86644 L 1136.90689 558.52416 L 1138.858721 558.09324 L 1140.810552 556.75512 L 1144.714214 558.52416 L 1146.666045 558.09324 L 1148.617876 557.43552 L 1150.569707 558.97776 L 1152.521538 558.32004 L 1154.473369 557.43552 L 1156.425199 557.43552 L 1158.37703 558.32004 L 1160.328861 558.52416 L 1162.280692 557.86644 L 1164.232523 557.43552 L 1166.184354 557.63964 L 1168.136185 558.32004 L 1170.088016 556.3242 L 1172.039847 556.52832 L 1173.991678 558.75096 L 1175.943509 557.86644 L 1177.89534 557.43552 L 1179.847171 557.63964 L 1181.799002 557.63964 L 1183.750833 558.52416 L 1185.702664 556.75512 L 1187.654494 556.75512 L 1189.606325 558.09324 L 1191.558156 557.86644 L 1195.461818 556.98192 L 1195.461818 556.98192" clip-path="url(#pb9ca628f64)"/></g><g id="patch_8"><path fill="none" stroke="#000" stroke-linecap="square" stroke-linejoin="miter" stroke-width=".8" d="M 172.8 692.064 L 172.8 419.904"/></g><g id="patch_9"><path fill="none" stroke="#000" stroke-linecap="square" stroke-linejoin="miter" stroke-width=".8" d="M 1244.16 692.064 L 1244.16 419.904"/></g><g id="patch_10"><path fill="none" stroke="#000" stroke-linecap="square" stroke-linejoin="miter" stroke-width=".8" d="M 172.8 692.064 L 1244.16 692.064"/></g><g id="patch_11"><path fill="none" stroke="#000" stroke-linecap="square" stroke-linejoin="miter" stroke-width=".8" d="M 172.8 419.904 L 1244.16 419.904"/></g><g id="text_23"><defs><path id="DejaVuSans-76" d="M 9.8125 72.90625 L 19.671875 72.90625 L 19.671875 8.296875 L 55.171875 8.296875 L 55.171875 0 L 9.8125 0 z"/></defs><g transform="translate(672.054375 413.904)scale(0.12 -0.12)"><use xlink:href="#DejaVuSans-68"/><use x="77.002" xlink:href="#DejaVuSans-97"/><use x="138.281" xlink:href="#DejaVuSans-100"/><use x="201.758" xlink:href="#DejaVuSans-111"/><use x="262.939" xlink:href="#DejaVuSans-115"/><use x="315.039" xlink:href="#DejaVuSans-32"/><use x="346.826" xlink:href="#DejaVuSans-76"/><use x="402.539" xlink:href="#DejaVuSans-105"/><use x="430.322" xlink:href="#DejaVuSans-100"/><use x="493.799" xlink:href="#DejaVuSans-111"/><use x="554.98" xlink:href="#DejaVuSans-115"/></g></g></g></g><defs><clipPath id="p6549c2bbff"><rect width="1071.36" height="272.16" x="172.8" y="93.312"/></clipPath><clipPath id="pb9ca628f64"><rect width="1071.36" height="272.16" x="172.8" y="419.904"/></clipPath></defs></svg>