<svg xmlns="http://www.w3.org/2000/svg" xmlns:xlink="http://www.w3.org/1999/xlink" width="600" height="371" fill="none" stroke="none" stroke-linecap="square" stroke-miterlimit="10" version="1.1" viewBox="0 0 600 371"><path fill="#fff" fill-rule="nonzero" d="M0 0L600.0 0L600.0 371.0L0 371.0L0 0Z"/><path fill-rule="nonzero" stroke="#333" stroke-linecap="butt" stroke-width="1" d="M45.5 344.5L581.5 344.5"/><path fill-rule="nonzero" stroke="#ccc" stroke-linecap="butt" stroke-width="1" d="M45.5 286.5L581.5 286.5"/><path fill-rule="nonzero" stroke="#ccc" stroke-linecap="butt" stroke-width="1" d="M45.5 228.5L581.5 228.5"/><path fill-rule="nonzero" stroke="#ccc" stroke-linecap="butt" stroke-width="1" d="M45.5 170.5L581.5 170.5"/><path fill-rule="nonzero" stroke="#ccc" stroke-linecap="butt" stroke-width="1" d="M45.5 111.5L581.5 111.5"/><path fill-rule="nonzero" stroke="#ccc" stroke-linecap="butt" stroke-width="1" d="M45.5 53.5L581.5 53.5"/><clipPath id="id_0"><path d="M45.55 53.416668L581.45 53.416668L581.45 344.95L45.55 344.95L45.55 53.416668Z" clip-rule="nonzero"/></clipPath><path fill-rule="nonzero" stroke="#4285f4" stroke-linecap="butt" stroke-width="2" d="M48.256565 344.95L53.669697 344.95L59.08283 344.95L64.49596 344.95L69.90909 344.95L75.32222 344.95L80.73535 344.95L86.14848 344.95L91.561615 344.95L96.97475 344.95L102.38788 344.95L107.80101 56.332L113.21414 56.332L118.62727 56.332L124.040405 56.332L129.45354 56.332L134.86667 56.332L140.2798 56.332L145.69293 56.332L151.10606 56.332L156.5192 344.95L161.93233 344.95L167.34546 56.332L172.75859 56.332L178.17172 56.332L183.58485 56.332L188.99799 56.332L194.41112 56.332L199.82425 56.332L205.23738 344.95L210.6505 344.95L216.06363 344.95L221.47676 344.95L226.8899 56.332L232.30302 56.332L237.71616 56.332L243.12929 56.332L248.54242 56.332L253.95555 344.95L259.36868 344.95L264.78183 56.332L270.19495 56.332L275.6081 344.95L281.0212 344.95L286.43436 56.332L291.84747 56.332L297.26062 56.332L302.67374 344.95L308.08688 344.95L313.5 344.95L318.91312 344.95L324.32626 344.95L329.73938 344.95L335.15253 344.95L340.56564 344.95L345.9788 56.332L351.3919 344.95L356.80505 344.95L362.21817 56.332L367.63132 56.332L373.04443 56.332L378.45758 56.332L383.8707 56.332L389.28384 56.332L394.69696 344.95L400.1101 56.332L405.52322 344.95L410.93637 344.95L416.3495 344.95L421.76263 56.332L427.17575 56.332L432.5889 56.332L438.002 56.332L443.41516 344.95L448.82828 56.332L454.24142 56.332L459.65454 344.95L465.0677 56.332L470.4808 344.95L475.89395 344.95L481.30707 56.332L486.7202 56.332L492.13333 344.95L497.54648 56.332L502.9596 344.95L508.37274 344.95L513.7859 56.332L519.199 56.332L524.6121 344.95L530.02527 344.95L535.43835 344.95L540.8515 344.95L546.26465 56.332L551.6778 56.332L557.0909 344.95L562.504 344.95L567.9172 344.95L573.3303 344.95L578.7434 344.95" clip-path="url(#id_0)"/><path fill-rule="nonzero" stroke="#db4437" stroke-linecap="butt" stroke-width="2" d="M48.256565 344.95L53.669697 344.95L59.08283 344.95L64.49596 344.95L69.90909 344.95L75.32222 344.95L80.73535 344.95L86.14848 344.95L91.561615 344.95L96.97475 344.95L102.38788 344.95L107.80101 344.95L113.21414 298.49844L118.62727 234.94818L124.040405 163.13351L129.45354 116.39699L134.86667 107.277664L140.2798 105.85277L145.69293 106.99268L151.10606 108.41758L156.5192 107.277664L161.93233 120.95665L167.34546 160.28372L172.75859 153.44423L178.17172 116.96694L183.58485 111.267365L188.99799 110.69741L194.41112 112.97724L199.82425 112.12231L205.23738 110.41243L210.6505 125.51631L216.06363 157.71892L221.47676 189.35156L226.8899 220.69923L232.30302 209.30008L237.71616 135.77554L243.12929 114.11716L248.54242 106.42273L253.95555 104.1429L259.36868 120.10171L264.78183 153.15926L270.19495 147.1747L275.6081 112.97724L281.0212 120.67167L286.43436 150.30946L291.84747 143.46997L297.26062 113.83218L302.67374 106.13775L308.08688 116.68196L313.5 150.87943L318.91312 181.37216L324.32626 214.14471L329.73938 240.07779L335.15253 271.14047L340.56564 292.5139L345.9788 319.3019L351.3919 302.2032L356.80505 213.28978L362.21817 228.67863L367.63132 211.29494L373.04443 132.3558L378.45758 110.98239L383.8707 103.57294L389.28384 102.43302L394.69696 101.00813L400.1101 123.806435L405.52322 120.67167L410.93637 133.21074L416.3495 170.54297L421.76263 204.74042L427.17575 179.09233L432.5889 119.53175L438.002 105.56779L443.41516 102.718L448.82828 126.37125L454.24142 123.521454L459.65454 109.272514L465.0677 132.92575L470.4808 129.22104L475.89395 138.34036L481.30707 172.8228L486.7202 147.74466L492.13333 114.11716L497.54648 130.93091L502.9596 128.65108L508.37274 136.3455L513.7859 174.24768L519.199 149.7395L524.6121 114.40214L530.02527 130.07597L535.43835 169.11807L540.8515 200.46574L546.26465 226.3988L551.6778 206.16531L557.0909 142.61504L562.504 137.48541L567.9172 175.95757L573.3303 211.29494L578.7434 242.07265" clip-path="url(#id_0)"/><path fill="#000" fill-opacity="0" fill-rule="nonzero" d="M51.256565 344.95C51.256565 346.60684 49.91342 347.95 48.256565 347.95C46.599712 347.95 45.256565 346.60684 45.256565 344.95C45.256565 343.29315 46.599712 341.95 48.256565 341.95C49.91342 341.95 51.256565 343.29315 51.256565 344.95Z" clip-path="url(#id_0)"/><path fill="#000" fill-opacity="0" fill-rule="nonzero" d="M56.669697 344.95C56.669697 346.60684 55.32655 347.95 53.669697 347.95C52.012844 347.95 50.669697 346.60684 50.669697 344.95C50.669697 343.29315 52.012844 341.95 53.669697 341.95C55.32655 341.95 56.669697 343.29315 56.669697 344.95Z" clip-path="url(#id_0)"/><path fill="#000" fill-opacity="0" fill-rule="nonzero" d="M62.08283 344.95C62.08283 346.60684 60.73968 347.95 59.08283 347.95C57.425976 347.95 56.08283 346.60684 56.08283 344.95C56.08283 343.29315 57.425976 341.95 59.08283 341.95C60.73968 341.95 62.08283 343.29315 62.08283 344.95Z" clip-path="url(#id_0)"/><path fill="#000" fill-opacity="0" fill-rule="nonzero" d="M67.49596 344.95C67.49596 346.60684 66.15282 347.95 64.49596 347.95C62.839104 347.95 61.49596 346.60684 61.49596 344.95C61.49596 343.29315 62.839104 341.95 64.49596 341.95C66.15282 341.95 67.49596 343.29315 67.49596 344.95Z" clip-path="url(#id_0)"/><path fill="#000" fill-opacity="0" fill-rule="nonzero" d="M72.90909 344.95C72.90909 346.60684 71.56595 347.95 69.90909 347.95C68.252235 347.95 66.90909 346.60684 66.90909 344.95C66.90909 343.29315 68.252235 341.95 69.90909 341.95C71.56595 341.95 72.90909 343.29315 72.90909 344.95Z" clip-path="url(#id_0)"/><path fill="#000" fill-opacity="0" fill-rule="nonzero" d="M78.32222 344.95C78.32222 346.60684 76.97908 347.95 75.32222 347.95C73.66537 347.95 72.32222 346.60684 72.32222 344.95C72.32222 343.29315 73.66537 341.95 75.32222 341.95C76.97908 341.95 78.32222 343.29315 78.32222 344.95Z" clip-path="url(#id_0)"/><path fill="#000" fill-opacity="0" fill-rule="nonzero" d="M83.73535 344.95C83.73535 346.60684 82.392204 347.95 80.73535 347.95C79.0785 347.95 77.73535 346.60684 77.73535 344.95C77.73535 343.29315 79.0785 341.95 80.73535 341.95C82.392204 341.95 83.73535 343.29315 83.73535 344.95Z" clip-path="url(#id_0)"/><path fill="#000" fill-opacity="0" fill-rule="nonzero" d="M89.14848 344.95C89.14848 346.60684 87.805336 347.95 86.14848 347.95C84.49163 347.95 83.14848 346.60684 83.14848 344.95C83.14848 343.29315 84.49163 341.95 86.14848 341.95C87.805336 341.95 89.14848 343.29315 89.14848 344.95Z" clip-path="url(#id_0)"/><path fill="#000" fill-opacity="0" fill-rule="nonzero" d="M94.561615 344.95C94.561615 346.60684 93.21847 347.95 91.561615 347.95C89.90476 347.95 88.561615 346.60684 88.561615 344.95C88.561615 343.29315 89.90476 341.95 91.561615 341.95C93.21847 341.95 94.561615 343.29315 94.561615 344.95Z" clip-path="url(#id_0)"/><path fill="#000" fill-opacity="0" fill-rule="nonzero" d="M99.97475 344.95C99.97475 346.60684 98.6316 347.95 96.97475 347.95C95.317894 347.95 93.97475 346.60684 93.97475 344.95C93.97475 343.29315 95.317894 341.95 96.97475 341.95C98.6316 341.95 99.97475 343.29315 99.97475 344.95Z" clip-path="url(#id_0)"/><path fill="#000" fill-opacity="0" fill-rule="nonzero" d="M105.38788 344.95C105.38788 346.60684 104.04473 347.95 102.38788 347.95C100.731026 347.95 99.38788 346.60684 99.38788 344.95C99.38788 343.29315 100.731026 341.95 102.38788 341.95C104.04473 341.95 105.38788 343.29315 105.38788 344.95Z" clip-path="url(#id_0)"/><path fill="#000" fill-opacity="0" fill-rule="nonzero" d="M110.80101 56.332C110.80101 57.988853 109.45786 59.332 107.80101 59.332C106.14416 59.332 104.80101 57.988853 104.80101 56.332C104.80101 54.675144 106.14416 53.332 107.80101 53.332C109.45786 53.332 110.80101 54.675144 110.80101 56.332Z" clip-path="url(#id_0)"/><path fill="#000" fill-opacity="0" fill-rule="nonzero" d="M116.21414 56.332C116.21414 57.988853 114.870995 59.332 113.21414 59.332C111.55729 59.332 110.21414 57.988853 110.21414 56.332C110.21414 54.675144 111.55729 53.332 113.21414 53.332C114.870995 53.332 116.21414 54.675144 116.21414 56.332Z" clip-path="url(#id_0)"/><path fill="#000" fill-opacity="0" fill-rule="nonzero" d="M121.62727 56.332C121.62727 57.988853 120.28413 59.332 118.62727 59.332C116.97042 59.332 115.62727 57.988853 115.62727 56.332C115.62727 54.675144 116.97042 53.332 118.62727 53.332C120.28413 53.332 121.62727 54.675144 121.62727 56.332Z" clip-path="url(#id_0)"/><path fill="#000" fill-opacity="0" fill-rule="nonzero" d="M127.040405 56.332C127.040405 57.988853 125.69726 59.332 124.040405 59.332C122.38355 59.332 121.040405 57.988853 121.040405 56.332C121.040405 54.675144 122.38355 53.332 124.040405 53.332C125.69726 53.332 127.040405 54.675144 127.040405 56.332Z" clip-path="url(#id_0)"/><path fill="#000" fill-opacity="0" fill-rule="nonzero" d="M132.45354 56.332C132.45354 57.988853 131.11038 59.332 129.45354 59.332C127.796684 59.332 126.45354 57.988853 126.45354 56.332C126.45354 54.675144 127.796684 53.332 129.45354 53.332C131.11038 53.332 132.45354 54.675144 132.45354 56.332Z" clip-path="url(#id_0)"/><path fill="#000" fill-opacity="0" fill-rule="nonzero" d="M137.86667 56.332C137.86667 57.988853 136.52351 59.332 134.86667 59.332C133.20981 59.332 131.86667 57.988853 131.86667 56.332C131.86667 54.675144 133.20981 53.332 134.86667 53.332C136.52351 53.332 137.86667 54.675144 137.86667 56.332Z" clip-path="url(#id_0)"/><path fill="#000" fill-opacity="0" fill-rule="nonzero" d="M143.2798 56.332C143.2798 57.988853 141.93665 59.332 140.2798 59.332C138.62294 59.332 137.2798 57.988853 137.2798 56.332C137.2798 54.675144 138.62294 53.332 140.2798 53.332C141.93665 53.332 143.2798 54.675144 143.2798 56.332Z" clip-path="url(#id_0)"/><path fill="#000" fill-opacity="0" fill-rule="nonzero" d="M148.69293 56.332C148.69293 57.988853 147.34978 59.332 145.69293 59.332C144.03607 59.332 142.69293 57.988853 142.69293 56.332C142.69293 54.675144 144.03607 53.332 145.69293 53.332C147.34978 53.332 148.69293 54.675144 148.69293 56.332Z" clip-path="url(#id_0)"/><path fill="#000" fill-opacity="0" fill-rule="nonzero" d="M154.10606 56.332C154.10606 57.988853 152.76291 59.332 151.10606 59.332C149.4492 59.332 148.10606 57.988853 148.10606 56.332C148.10606 54.675144 149.4492 53.332 151.10606 53.332C152.76291 53.332 154.10606 54.675144 154.10606 56.332Z" clip-path="url(#id_0)"/><path fill="#000" fill-opacity="0" fill-rule="nonzero" d="M159.5192 344.95C159.5192 346.60684 158.17604 347.95 156.5192 347.95C154.86234 347.95 153.5192 346.60684 153.5192 344.95C153.5192 343.29315 154.86234 341.95 156.5192 341.95C158.17604 341.95 159.5192 343.29315 159.5192 344.95Z" clip-path="url(#id_0)"/><path fill="#000" fill-opacity="0" fill-rule="nonzero" d="M164.93233 344.95C164.93233 346.60684 163.58917 347.95 161.93233 347.95C160.27547 347.95 158.93233 346.60684 158.93233 344.95C158.93233 343.29315 160.27547 341.95 161.93233 341.95C163.58917 341.95 164.93233 343.29315 164.93233 344.95Z" clip-path="url(#id_0)"/><path fill="#000" fill-opacity="0" fill-rule="nonzero" d="M170.34546 56.332C170.34546 57.988853 169.0023 59.332 167.34546 59.332C165.6886 59.332 164.34546 57.988853 164.34546 56.332C164.34546 54.675144 165.6886 53.332 167.34546 53.332C169.0023 53.332 170.34546 54.675144 170.34546 56.332Z" clip-path="url(#id_0)"/><path fill="#000" fill-opacity="0" fill-rule="nonzero" d="M175.75859 56.332C175.75859 57.988853 174.41544 59.332 172.75859 59.332C171.10173 59.332 169.75859 57.988853 169.75859 56.332C169.75859 54.675144 171.10173 53.332 172.75859 53.332C174.41544 53.332 175.75859 54.675144 175.75859 56.332Z" clip-path="url(#id_0)"/><path fill="#000" fill-opacity="0" fill-rule="nonzero" d="M181.17172 56.332C181.17172 57.988853 179.82857 59.332 178.17172 59.332C176.51486 59.332 175.17172 57.988853 175.17172 56.332C175.17172 54.675144 176.51486 53.332 178.17172 53.332C179.82857 53.332 181.17172 54.675144 181.17172 56.332Z" clip-path="url(#id_0)"/><path fill="#000" fill-opacity="0" fill-rule="nonzero" d="M186.58485 56.332C186.58485 57.988853 185.2417 59.332 183.58485 59.332C181.928 59.332 180.58485 57.988853 180.58485 56.332C180.58485 54.675144 181.928 53.332 183.58485 53.332C185.2417 53.332 186.58485 54.675144 186.58485 56.332Z" clip-path="url(#id_0)"/><path fill="#000" fill-opacity="0" fill-rule="nonzero" d="M191.99799 56.332C191.99799 57.988853 190.65483 59.332 188.99799 59.332C187.34113 59.332 185.99799 57.988853 185.99799 56.332C185.99799 54.675144 187.34113 53.332 188.99799 53.332C190.65483 53.332 191.99799 54.675144 191.99799 56.332Z" clip-path="url(#id_0)"/><path fill="#000" fill-opacity="0" fill-rule="nonzero" d="M197.41112 56.332C197.41112 57.988853 196.06796 59.332 194.41112 59.332C192.75426 59.332 191.41112 57.988853 191.41112 56.332C191.41112 54.675144 192.75426 53.332 194.41112 53.332C196.06796 53.332 197.41112 54.675144 197.41112 56.332Z" clip-path="url(#id_0)"/><path fill="#000" fill-opacity="0" fill-rule="nonzero" d="M202.82425 56.332C202.82425 57.988853 201.4811 59.332 199.82425 59.332C198.16739 59.332 196.82425 57.988853 196.82425 56.332C196.82425 54.675144 198.16739 53.332 199.82425 53.332C201.4811 53.332 202.82425 54.675144 202.82425 56.332Z" clip-path="url(#id_0)"/><path fill="#000" fill-opacity="0" fill-rule="nonzero" d="M208.23738 344.95C208.23738 346.60684 206.89423 347.95 205.23738 347.95C203.58052 347.95 202.23738 346.60684 202.23738 344.95C202.23738 343.29315 203.58052 341.95 205.23738 341.95C206.89423 341.95 208.23738 343.29315 208.23738 344.95Z" clip-path="url(#id_0)"/><path fill="#000" fill-opacity="0" fill-rule="nonzero" d="M213.6505 344.95C213.6505 346.60684 212.30736 347.95 210.6505 347.95C208.99365 347.95 207.6505 346.60684 207.6505 344.95C207.6505 343.29315 208.99365 341.95 210.6505 341.95C212.30736 341.95 213.6505 343.29315 213.6505 344.95Z" clip-path="url(#id_0)"/><path fill="#000" fill-opacity="0" fill-rule="nonzero" d="M219.06363 344.95C219.06363 346.60684 217.72049 347.95 216.06363 347.95C214.40678 347.95 213.06363 346.60684 213.06363 344.95C213.06363 343.29315 214.40678 341.95 216.06363 341.95C217.72049 341.95 219.06363 343.29315 219.06363 344.95Z" clip-path="url(#id_0)"/><path fill="#000" fill-opacity="0" fill-rule="nonzero" d="M224.47676 344.95C224.47676 346.60684 223.13362 347.95 221.47676 347.95C219.81992 347.95 218.47676 346.60684 218.47676 344.95C218.47676 343.29315 219.81992 341.95 221.47676 341.95C223.13362 341.95 224.47676 343.29315 224.47676 344.95Z" clip-path="url(#id_0)"/><path fill="#000" fill-opacity="0" fill-rule="nonzero" d="M229.8899 56.332C229.8899 57.988853 228.54675 59.332 226.8899 59.332C225.23305 59.332 223.8899 57.988853 223.8899 56.332C223.8899 54.675144 225.23305 53.332 226.8899 53.332C228.54675 53.332 229.8899 54.675144 229.8899 56.332Z" clip-path="url(#id_0)"/><path fill="#000" fill-opacity="0" fill-rule="nonzero" d="M235.30302 56.332C235.30302 57.988853 233.95988 59.332 232.30302 59.332C230.64618 59.332 229.30302 57.988853 229.30302 56.332C229.30302 54.675144 230.64618 53.332 232.30302 53.332C233.95988 53.332 235.30302 54.675144 235.30302 56.332Z" clip-path="url(#id_0)"/><path fill="#000" fill-opacity="0" fill-rule="nonzero" d="M240.71616 56.332C240.71616 57.988853 239.37302 59.332 237.71616 59.332C236.05931 59.332 234.71616 57.988853 234.71616 56.332C234.71616 54.675144 236.05931 53.332 237.71616 53.332C239.37302 53.332 240.71616 54.675144 240.71616 56.332Z" clip-path="url(#id_0)"/><path fill="#000" fill-opacity="0" fill-rule="nonzero" d="M246.12929 56.332C246.12929 57.988853 244.78615 59.332 243.12929 59.332C241.47244 59.332 240.12929 57.988853 240.12929 56.332C240.12929 54.675144 241.47244 53.332 243.12929 53.332C244.78615 53.332 246.12929 54.675144 246.12929 56.332Z" clip-path="url(#id_0)"/><path fill="#000" fill-opacity="0" fill-rule="nonzero" d="M251.54242 56.332C251.54242 57.988853 250.19928 59.332 248.54242 59.332C246.88557 59.332 245.54242 57.988853 245.54242 56.332C245.54242 54.675144 246.88557 53.332 248.54242 53.332C250.19928 53.332 251.54242 54.675144 251.54242 56.332Z" clip-path="url(#id_0)"/><path fill="#000" fill-opacity="0" fill-rule="nonzero" d="M256.95557 344.95C256.95557 346.60684 255.61241 347.95 253.95555 347.95C252.2987 347.95 250.95555 346.60684 250.95555 344.95C250.95555 343.29315 252.2987 341.95 253.95555 341.95C255.61241 341.95 256.95557 343.29315 256.95557 344.95Z" clip-path="url(#id_0)"/><path fill="#000" fill-opacity="0" fill-rule="nonzero" d="M262.36868 344.95C262.36868 346.60684 261.02554 347.95 259.36868 347.95C257.71182 347.95 256.36868 346.60684 256.36868 344.95C256.36868 343.29315 257.71182 341.95 259.36868 341.95C261.02554 341.95 262.36868 343.29315 262.36868 344.95Z" clip-path="url(#id_0)"/><path fill="#000" fill-opacity="0" fill-rule="nonzero" d="M267.78183 56.332C267.78183 57.988853 266.43866 59.332 264.78183 59.332C263.12497 59.332 261.78183 57.988853 261.78183 56.332C261.78183 54.675144 263.12497 53.332 264.78183 53.332C266.43866 53.332 267.78183 54.675144 267.78183 56.332Z" clip-path="url(#id_0)"/><path fill="#000" fill-opacity="0" fill-rule="nonzero" d="M273.19495 56.332C273.19495 57.988853 271.8518 59.332 270.19495 59.332C268.5381 59.332 267.19495 57.988853 267.19495 56.332C267.19495 54.675144 268.5381 53.332 270.19495 53.332C271.8518 53.332 273.19495 54.675144 273.19495 56.332Z" clip-path="url(#id_0)"/><path fill="#000" fill-opacity="0" fill-rule="nonzero" d="M278.6081 344.95C278.6081 346.60684 277.26492 347.95 275.6081 347.95C273.95123 347.95 272.6081 346.60684 272.6081 344.95C272.6081 343.29315 273.95123 341.95 275.6081 341.95C277.26492 341.95 278.6081 343.29315 278.6081 344.95Z" clip-path="url(#id_0)"/><path fill="#000" fill-opacity="0" fill-rule="nonzero" d="M284.0212 344.95C284.0212 346.60684 282.67807 347.95 281.0212 347.95C279.36435 347.95 278.0212 346.60684 278.0212 344.95C278.0212 343.29315 279.36435 341.95 281.0212 341.95C282.67807 341.95 284.0212 343.29315 284.0212 344.95Z" clip-path="url(#id_0)"/><path fill="#000" fill-opacity="0" fill-rule="nonzero" d="M289.43436 56.332C289.43436 57.988853 288.0912 59.332 286.43436 59.332C284.7775 59.332 283.43436 57.988853 283.43436 56.332C283.43436 54.675144 284.7775 53.332 286.43436 53.332C288.0912 53.332 289.43436 54.675144 289.43436 56.332Z" clip-path="url(#id_0)"/><path fill="#000" fill-opacity="0" fill-rule="nonzero" d="M294.84747 56.332C294.84747 57.988853 293.50433 59.332 291.84747 59.332C290.1906 59.332 288.84747 57.988853 288.84747 56.332C288.84747 54.675144 290.1906 53.332 291.84747 53.332C293.50433 53.332 294.84747 54.675144 294.84747 56.332Z" clip-path="url(#id_0)"/><path fill="#000" fill-opacity="0" fill-rule="nonzero" d="M300.26062 56.332C300.26062 57.988853 298.91745 59.332 297.26062 59.332C295.60376 59.332 294.26062 57.988853 294.26062 56.332C294.26062 54.675144 295.60376 53.332 297.26062 53.332C298.91745 53.332 300.26062 54.675144 300.26062 56.332Z" clip-path="url(#id_0)"/><path fill="#000" fill-opacity="0" fill-rule="nonzero" d="M305.67374 344.95C305.67374 346.60684 304.3306 347.95 302.67374 347.95C301.01688 347.95 299.67374 346.60684 299.67374 344.95C299.67374 343.29315 301.01688 341.95 302.67374 341.95C304.3306 341.95 305.67374 343.29315 305.67374 344.95Z" clip-path="url(#id_0)"/><path fill="#000" fill-opacity="0" fill-rule="nonzero" d="M311.08688 344.95C311.08688 346.60684 309.7437 347.95 308.08688 347.95C306.43002 347.95 305.08688 346.60684 305.08688 344.95C305.08688 343.29315 306.43002 341.95 308.08688 341.95C309.7437 341.95 311.08688 343.29315 311.08688 344.95Z" clip-path="url(#id_0)"/><path fill="#000" fill-opacity="0" fill-rule="nonzero" d="M316.5 344.95C316.5 346.60684 315.15686 347.95 313.5 347.95C311.84314 347.95 310.5 346.60684 310.5 344.95C310.5 343.29315 311.84314 341.95 313.5 341.95C315.15686 341.95 316.5 343.29315 316.5 344.95Z" clip-path="url(#id_0)"/><path fill="#000" fill-opacity="0" fill-rule="nonzero" d="M321.91312 344.95C321.91312 346.60684 320.56998 347.95 318.91312 347.95C317.2563 347.95 315.91312 346.60684 315.91312 344.95C315.91312 343.29315 317.2563 341.95 318.91312 341.95C320.56998 341.95 321.91312 343.29315 321.91312 344.95Z" clip-path="url(#id_0)"/><path fill="#000" fill-opacity="0" fill-rule="nonzero" d="M327.32626 344.95C327.32626 346.60684 325.98312 347.95 324.32626 347.95C322.6694 347.95 321.32626 346.60684 321.32626 344.95C321.32626 343.29315 322.6694 341.95 324.32626 341.95C325.98312 341.95 327.32626 343.29315 327.32626 344.95Z" clip-path="url(#id_0)"/><path fill="#000" fill-opacity="0" fill-rule="nonzero" d="M332.73938 344.95C332.73938 346.60684 331.39624 347.95 329.73938 347.95C328.08255 347.95 326.73938 346.60684 326.73938 344.95C326.73938 343.29315 328.08255 341.95 329.73938 341.95C331.39624 341.95 332.73938 343.29315 332.73938 344.95Z" clip-path="url(#id_0)"/><path fill="#000" fill-opacity="0" fill-rule="nonzero" d="M338.15253 344.95C338.15253 346.60684 336.8094 347.95 335.15253 347.95C333.49567 347.95 332.15253 346.60684 332.15253 344.95C332.15253 343.29315 333.49567 341.95 335.15253 341.95C336.8094 341.95 338.15253 343.29315 338.15253 344.95Z" clip-path="url(#id_0)"/><path fill="#000" fill-opacity="0" fill-rule="nonzero" d="M343.56564 344.95C343.56564 346.60684 342.2225 347.95 340.56564 347.95C338.9088 347.95 337.56564 346.60684 337.56564 344.95C337.56564 343.29315 338.9088 341.95 340.56564 341.95C342.2225 341.95 343.56564 343.29315 343.56564 344.95Z" clip-path="url(#id_0)"/><path fill="#000" fill-opacity="0" fill-rule="nonzero" d="M348.9788 56.332C348.9788 57.988853 347.63565 59.332 345.9788 59.332C344.32193 59.332 342.9788 57.988853 342.9788 56.332C342.9788 54.675144 344.32193 53.332 345.9788 53.332C347.63565 53.332 348.9788 54.675144 348.9788 56.332Z" clip-path="url(#id_0)"/><path fill="#000" fill-opacity="0" fill-rule="nonzero" d="M354.3919 344.95C354.3919 346.60684 353.04877 347.95 351.3919 347.95C349.73508 347.95 348.3919 346.60684 348.3919 344.95C348.3919 343.29315 349.73508 341.95 351.3919 341.95C353.04877 341.95 354.3919 343.29315 354.3919 344.95Z" clip-path="url(#id_0)"/><path fill="#000" fill-opacity="0" fill-rule="nonzero" d="M359.80505 344.95C359.80505 346.60684 358.4619 347.95 356.80505 347.95C355.1482 347.95 353.80505 346.60684 353.80505 344.95C353.80505 343.29315 355.1482 341.95 356.80505 341.95C358.4619 341.95 359.80505 343.29315 359.80505 344.95Z" clip-path="url(#id_0)"/><path fill="#000" fill-opacity="0" fill-rule="nonzero" d="M365.21817 56.332C365.21817 57.988853 363.87503 59.332 362.21817 59.332C360.56134 59.332 359.21817 57.988853 359.21817 56.332C359.21817 54.675144 360.56134 53.332 362.21817 53.332C363.87503 53.332 365.21817 54.675144 365.21817 56.332Z" clip-path="url(#id_0)"/><path fill="#000" fill-opacity="0" fill-rule="nonzero" d="M370.63132 56.332C370.63132 57.988853 369.28818 59.332 367.63132 59.332C365.97446 59.332 364.63132 57.988853 364.63132 56.332C364.63132 54.675144 365.97446 53.332 367.63132 53.332C369.28818 53.332 370.63132 54.675144 370.63132 56.332Z" clip-path="url(#id_0)"/><path fill="#000" fill-opacity="0" fill-rule="nonzero" d="M376.04443 56.332C376.04443 57.988853 374.7013 59.332 373.04443 59.332C371.3876 59.332 370.04443 57.988853 370.04443 56.332C370.04443 54.675144 371.3876 53.332 373.04443 53.332C374.7013 53.332 376.04443 54.675144 376.04443 56.332Z" clip-path="url(#id_0)"/><path fill="#000" fill-opacity="0" fill-rule="nonzero" d="M381.45758 56.332C381.45758 57.988853 380.11444 59.332 378.45758 59.332C376.80072 59.332 375.45758 57.988853 375.45758 56.332C375.45758 54.675144 376.80072 53.332 378.45758 53.332C380.11444 53.332 381.45758 54.675144 381.45758 56.332Z" clip-path="url(#id_0)"/><path fill="#000" fill-opacity="0" fill-rule="nonzero" d="M386.8707 56.332C386.8707 57.988853 385.52756 59.332 383.8707 59.332C382.21387 59.332 380.8707 57.988853 380.8707 56.332C380.8707 54.675144 382.21387 53.332 383.8707 53.332C385.52756 53.332 386.8707 54.675144 386.8707 56.332Z" clip-path="url(#id_0)"/><path fill="#000" fill-opacity="0" fill-rule="nonzero" d="M392.28384 56.332C392.28384 57.988853 390.9407 59.332 389.28384 59.332C387.62698 59.332 386.28384 57.988853 386.28384 56.332C386.28384 54.675144 387.62698 53.332 389.28384 53.332C390.9407 53.332 392.28384 54.675144 392.28384 56.332Z" clip-path="url(#id_0)"/><path fill="#000" fill-opacity="0" fill-rule="nonzero" d="M397.69696 344.95C397.69696 346.60684 396.35382 347.95 394.69696 347.95C393.04013 347.95 391.69696 346.60684 391.69696 344.95C391.69696 343.29315 393.04013 341.95 394.69696 341.95C396.35382 341.95 397.69696 343.29315 397.69696 344.95Z" clip-path="url(#id_0)"/><path fill="#000" fill-opacity="0" fill-rule="nonzero" d="M403.1101 56.332C403.1101 57.988853 401.76697 59.332 400.1101 59.332C398.45325 59.332 397.1101 57.988853 397.1101 56.332C397.1101 54.675144 398.45325 53.332 400.1101 53.332C401.76697 53.332 403.1101 54.675144 403.1101 56.332Z" clip-path="url(#id_0)"/><path fill="#000" fill-opacity="0" fill-rule="nonzero" d="M408.52322 344.95C408.52322 346.60684 407.18008 347.95 405.52322 347.95C403.86636 347.95 402.52322 346.60684 402.52322 344.95C402.52322 343.29315 403.86636 341.95 405.52322 341.95C407.18008 341.95 408.52322 343.29315 408.52322 344.95Z" clip-path="url(#id_0)"/><path fill="#000" fill-opacity="0" fill-rule="nonzero" d="M413.93637 344.95C413.93637 346.60684 412.59323 347.95 410.93637 347.95C409.2795 347.95 407.93637 346.60684 407.93637 344.95C407.93637 343.29315 409.2795 341.95 410.93637 341.95C412.59323 341.95 413.93637 343.29315 413.93637 344.95Z" clip-path="url(#id_0)"/><path fill="#000" fill-opacity="0" fill-rule="nonzero" d="M419.3495 344.95C419.3495 346.60684 418.00635 347.95 416.3495 347.95C414.69263 347.95 413.3495 346.60684 413.3495 344.95C413.3495 343.29315 414.69263 341.95 416.3495 341.95C418.00635 341.95 419.3495 343.29315 419.3495 344.95Z" clip-path="url(#id_0)"/><path fill="#000" fill-opacity="0" fill-rule="nonzero" d="M424.76263 56.332C424.76263 57.988853 423.4195 59.332 421.76263 59.332C420.10577 59.332 418.76263 57.988853 418.76263 56.332C418.76263 54.675144 420.10577 53.332 421.76263 53.332C423.4195 53.332 424.76263 54.675144 424.76263 56.332Z" clip-path="url(#id_0)"/><path fill="#000" fill-opacity="0" fill-rule="nonzero" d="M430.17575 56.332C430.17575 57.988853 428.8326 59.332 427.17575 59.332C425.5189 59.332 424.17575 57.988853 424.17575 56.332C424.17575 54.675144 425.5189 53.332 427.17575 53.332C428.8326 53.332 430.17575 54.675144 430.17575 56.332Z" clip-path="url(#id_0)"/><path fill="#000" fill-opacity="0" fill-rule="nonzero" d="M435.5889 56.332C435.5889 57.988853 434.24576 59.332 432.5889 59.332C430.93204 59.332 429.5889 57.988853 429.5889 56.332C429.5889 54.675144 430.93204 53.332 432.5889 53.332C434.24576 53.332 435.5889 54.675144 435.5889 56.332Z" clip-path="url(#id_0)"/><path fill="#000" fill-opacity="0" fill-rule="nonzero" d="M441.002 56.332C441.002 57.988853 439.65887 59.332 438.002 59.332C436.34515 59.332 435.002 57.988853 435.002 56.332C435.002 54.675144 436.34515 53.332 438.002 53.332C439.65887 53.332 441.002 54.675144 441.002 56.332Z" clip-path="url(#id_0)"/><path fill="#000" fill-opacity="0" fill-rule="nonzero" d="M446.41516 344.95C446.41516 346.60684 445.072 347.95 443.41516 347.95C441.7583 347.95 440.41516 346.60684 440.41516 344.95C440.41516 343.29315 441.7583 341.95 443.41516 341.95C445.072 341.95 446.41516 343.29315 446.41516 344.95Z" clip-path="url(#id_0)"/><path fill="#000" fill-opacity="0" fill-rule="nonzero" d="M451.82828 56.332C451.82828 57.988853 450.48514 59.332 448.82828 59.332C447.17142 59.332 445.82828 57.988853 445.82828 56.332C445.82828 54.675144 447.17142 53.332 448.82828 53.332C450.48514 53.332 451.82828 54.675144 451.82828 56.332Z" clip-path="url(#id_0)"/><path fill="#000" fill-opacity="0" fill-rule="nonzero" d="M457.24142 56.332C457.24142 57.988853 455.89825 59.332 454.24142 59.332C452.58456 59.332 451.24142 57.988853 451.24142 56.332C451.24142 54.675144 452.58456 53.332 454.24142 53.332C455.89825 53.332 457.24142 54.675144 457.24142 56.332Z" clip-path="url(#id_0)"/><path fill="#000" fill-opacity="0" fill-rule="nonzero" d="M462.65454 344.95C462.65454 346.60684 461.3114 347.95 459.65454 347.95C457.99768 347.95 456.65454 346.60684 456.65454 344.95C456.65454 343.29315 457.99768 341.95 459.65454 341.95C461.3114 341.95 462.65454 343.29315 462.65454 344.95Z" clip-path="url(#id_0)"/><path fill="#000" fill-opacity="0" fill-rule="nonzero" d="M468.0677 56.332C468.0677 57.988853 466.72452 59.332 465.0677 59.332C463.41083 59.332 462.0677 57.988853 462.0677 56.332C462.0677 54.675144 463.41083 53.332 465.0677 53.332C466.72452 53.332 468.0677 54.675144 468.0677 56.332Z" clip-path="url(#id_0)"/><path fill="#000" fill-opacity="0" fill-rule="nonzero" d="M473.4808 344.95C473.4808 346.60684 472.13766 347.95 470.4808 347.95C468.82394 347.95 467.4808 346.60684 467.4808 344.95C467.4808 343.29315 468.82394 341.95 470.4808 341.95C472.13766 341.95 473.4808 343.29315 473.4808 344.95Z" clip-path="url(#id_0)"/><path fill="#000" fill-opacity="0" fill-rule="nonzero" d="M478.89395 344.95C478.89395 346.60684 477.55078 347.95 475.89395 347.95C474.2371 347.95 472.89395 346.60684 472.89395 344.95C472.89395 343.29315 474.2371 341.95 475.89395 341.95C477.55078 341.95 478.89395 343.29315 478.89395 344.95Z" clip-path="url(#id_0)"/><path fill="#000" fill-opacity="0" fill-rule="nonzero" d="M484.30707 56.332C484.30707 57.988853 482.96393 59.332 481.30707 59.332C479.6502 59.332 478.30707 57.988853 478.30707 56.332C478.30707 54.675144 479.6502 53.332 481.30707 53.332C482.96393 53.332 484.30707 54.675144 484.30707 56.332Z" clip-path="url(#id_0)"/><path fill="#000" fill-opacity="0" fill-rule="nonzero" d="M489.7202 56.332C489.7202 57.988853 488.37704 59.332 486.7202 59.332C485.06335 59.332 483.7202 57.988853 483.7202 56.332C483.7202 54.675144 485.06335 53.332 486.7202 53.332C488.37704 53.332 489.7202 54.675144 489.7202 56.332Z" clip-path="url(#id_0)"/><path fill="#000" fill-opacity="0" fill-rule="nonzero" d="M495.13333 344.95C495.13333 346.60684 493.7902 347.95 492.13333 347.95C490.47647 347.95 489.13333 346.60684 489.13333 344.95C489.13333 343.29315 490.47647 341.95 492.13333 341.95C493.7902 341.95 495.13333 343.29315 495.13333 344.95Z" clip-path="url(#id_0)"/><path fill="#000" fill-opacity="0" fill-rule="nonzero" d="M500.54648 56.332C500.54648 57.988853 499.2033 59.332 497.54648 59.332C495.88962 59.332 494.54648 57.988853 494.54648 56.332C494.54648 54.675144 495.88962 53.332 497.54648 53.332C499.2033 53.332 500.54648 54.675144 500.54648 56.332Z" clip-path="url(#id_0)"/><path fill="#000" fill-opacity="0" fill-rule="nonzero" d="M505.9596 344.95C505.9596 346.60684 504.61646 347.95 502.9596 347.95C501.30273 347.95 499.9596 346.60684 499.9596 344.95C499.9596 343.29315 501.30273 341.95 502.9596 341.95C504.61646 341.95 505.9596 343.29315 505.9596 344.95Z" clip-path="url(#id_0)"/><path fill="#000" fill-opacity="0" fill-rule="nonzero" d="M511.37274 344.95C511.37274 346.60684 510.02957 347.95 508.37274 347.95C506.71588 347.95 505.37274 346.60684 505.37274 344.95C505.37274 343.29315 506.71588 341.95 508.37274 341.95C510.02957 341.95 511.37274 343.29315 511.37274 344.95Z" clip-path="url(#id_0)"/><path fill="#000" fill-opacity="0" fill-rule="nonzero" d="M516.7859 56.332C516.7859 57.988853 515.4427 59.332 513.7859 59.332C512.129 59.332 510.78586 57.988853 510.78586 56.332C510.78586 54.675144 512.129 53.332 513.7859 53.332C515.4427 53.332 516.7859 54.675144 516.7859 56.332Z" clip-path="url(#id_0)"/><path fill="#000" fill-opacity="0" fill-rule="nonzero" d="M522.199 56.332C522.199 57.988853 520.85583 59.332 519.199 59.332C517.5421 59.332 516.199 57.988853 516.199 56.332C516.199 54.675144 517.5421 53.332 519.199 53.332C520.85583 53.332 522.199 54.675144 522.199 56.332Z" clip-path="url(#id_0)"/><path fill="#000" fill-opacity="0" fill-rule="nonzero" d="M527.6121 344.95C527.6121 346.60684 526.269 347.95 524.6121 347.95C522.95526 347.95 521.6121 346.60684 521.6121 344.95C521.6121 343.29315 522.95526 341.95 524.6121 341.95C526.269 341.95 527.6121 343.29315 527.6121 344.95Z" clip-path="url(#id_0)"/><path fill="#000" fill-opacity="0" fill-rule="nonzero" d="M533.02527 344.95C533.02527 346.60684 531.6821 347.95 530.02527 347.95C528.3684 347.95 527.02527 346.60684 527.02527 344.95C527.02527 343.29315 528.3684 341.95 530.02527 341.95C531.6821 341.95 533.02527 343.29315 533.02527 344.95Z" clip-path="url(#id_0)"/><path fill="#000" fill-opacity="0" fill-rule="nonzero" d="M538.43835 344.95C538.43835 346.60684 537.0952 347.95 535.43835 347.95C533.78156 347.95 532.43835 346.60684 532.43835 344.95C532.43835 343.29315 533.78156 341.95 535.43835 341.95C537.0952 341.95 538.43835 343.29315 538.43835 344.95Z" clip-path="url(#id_0)"/><path fill="#000" fill-opacity="0" fill-rule="nonzero" d="M543.8515 344.95C543.8515 346.60684 542.50836 347.95 540.8515 347.95C539.19464 347.95 537.8515 346.60684 537.8515 344.95C537.8515 343.29315 539.19464 341.95 540.8515 341.95C542.50836 341.95 543.8515 343.29315 543.8515 344.95Z" clip-path="url(#id_0)"/><path fill="#000" fill-opacity="0" fill-rule="nonzero" d="M549.26465 56.332C549.26465 57.988853 547.9215 59.332 546.26465 59.332C544.6078 59.332 543.26465 57.988853 543.26465 56.332C543.26465 54.675144 544.6078 53.332 546.26465 53.332C547.9215 53.332 549.26465 54.675144 549.26465 56.332Z" clip-path="url(#id_0)"/><path fill="#000" fill-opacity="0" fill-rule="nonzero" d="M554.6778 56.332C554.6778 57.988853 553.33466 59.332 551.6778 59.332C550.02094 59.332 548.6778 57.988853 548.6778 56.332C548.6778 54.675144 550.02094 53.332 551.6778 53.332C553.33466 53.332 554.6778 54.675144 554.6778 56.332Z" clip-path="url(#id_0)"/><path fill="#000" fill-opacity="0" fill-rule="nonzero" d="M560.0909 344.95C560.0909 346.60684 558.74774 347.95 557.0909 347.95C555.4341 347.95 554.0909 346.60684 554.0909 344.95C554.0909 343.29315 555.4341 341.95 557.0909 341.95C558.74774 341.95 560.0909 343.29315 560.0909 344.95Z" clip-path="url(#id_0)"/><path fill="#000" fill-opacity="0" fill-rule="nonzero" d="M565.504 344.95C565.504 346.60684 564.1609 347.95 562.504 347.95C560.84717 347.95 559.504 346.60684 559.504 344.95C559.504 343.29315 560.84717 341.95 562.504 341.95C564.1609 341.95 565.504 343.29315 565.504 344.95Z" clip-path="url(#id_0)"/><path fill="#000" fill-opacity="0" fill-rule="nonzero" d="M570.9172 344.95C570.9172 346.60684 569.57404 347.95 567.9172 347.95C566.2603 347.95 564.9172 346.60684 564.9172 344.95C564.9172 343.29315 566.2603 341.95 567.9172 341.95C569.57404 341.95 570.9172 343.29315 570.9172 344.95Z" clip-path="url(#id_0)"/><path fill="#000" fill-opacity="0" fill-rule="nonzero" d="M576.3303 344.95C576.3303 346.60684 574.9872 347.95 573.3303 347.95C571.67346 347.95 570.3303 346.60684 570.3303 344.95C570.3303 343.29315 571.67346 341.95 573.3303 341.95C574.9872 341.95 576.3303 343.29315 576.3303 344.95Z" clip-path="url(#id_0)"/><path fill="#000" fill-opacity="0" fill-rule="nonzero" d="M581.7434 344.95C581.7434 346.60684 580.40027 347.95 578.7434 347.95C577.0866 347.95 575.7434 346.60684 575.7434 344.95C575.7434 343.29315 577.0866 341.95 578.7434 341.95C580.40027 341.95 581.7434 343.29315 581.7434 344.95Z" clip-path="url(#id_0)"/><path fill="#000" fill-opacity="0" fill-rule="nonzero" d="M51.256565 344.95C51.256565 346.60684 49.91342 347.95 48.256565 347.95C46.599712 347.95 45.256565 346.60684 45.256565 344.95C45.256565 343.29315 46.599712 341.95 48.256565 341.95C49.91342 341.95 51.256565 343.29315 51.256565 344.95Z" clip-path="url(#id_0)"/><path fill="#000" fill-opacity="0" fill-rule="nonzero" d="M56.669697 344.95C56.669697 346.60684 55.32655 347.95 53.669697 347.95C52.012844 347.95 50.669697 346.60684 50.669697 344.95C50.669697 343.29315 52.012844 341.95 53.669697 341.95C55.32655 341.95 56.669697 343.29315 56.669697 344.95Z" clip-path="url(#id_0)"/><path fill="#000" fill-opacity="0" fill-rule="nonzero" d="M62.08283 344.95C62.08283 346.60684 60.73968 347.95 59.08283 347.95C57.425976 347.95 56.08283 346.60684 56.08283 344.95C56.08283 343.29315 57.425976 341.95 59.08283 341.95C60.73968 341.95 62.08283 343.29315 62.08283 344.95Z" clip-path="url(#id_0)"/><path fill="#000" fill-opacity="0" fill-rule="nonzero" d="M67.49596 344.95C67.49596 346.60684 66.15282 347.95 64.49596 347.95C62.839104 347.95 61.49596 346.60684 61.49596 344.95C61.49596 343.29315 62.839104 341.95 64.49596 341.95C66.15282 341.95 67.49596 343.29315 67.49596 344.95Z" clip-path="url(#id_0)"/><path fill="#000" fill-opacity="0" fill-rule="nonzero" d="M72.90909 344.95C72.90909 346.60684 71.56595 347.95 69.90909 347.95C68.252235 347.95 66.90909 346.60684 66.90909 344.95C66.90909 343.29315 68.252235 341.95 69.90909 341.95C71.56595 341.95 72.90909 343.29315 72.90909 344.95Z" clip-path="url(#id_0)"/><path fill="#000" fill-opacity="0" fill-rule="nonzero" d="M78.32222 344.95C78.32222 346.60684 76.97908 347.95 75.32222 347.95C73.66537 347.95 72.32222 346.60684 72.32222 344.95C72.32222 343.29315 73.66537 341.95 75.32222 341.95C76.97908 341.95 78.32222 343.29315 78.32222 344.95Z" clip-path="url(#id_0)"/><path fill="#000" fill-opacity="0" fill-rule="nonzero" d="M83.73535 344.95C83.73535 346.60684 82.392204 347.95 80.73535 347.95C79.0785 347.95 77.73535 346.60684 77.73535 344.95C77.73535 343.29315 79.0785 341.95 80.73535 341.95C82.392204 341.95 83.73535 343.29315 83.73535 344.95Z" clip-path="url(#id_0)"/><path fill="#000" fill-opacity="0" fill-rule="nonzero" d="M89.14848 344.95C89.14848 346.60684 87.805336 347.95 86.14848 347.95C84.49163 347.95 83.14848 346.60684 83.14848 344.95C83.14848 343.29315 84.49163 341.95 86.14848 341.95C87.805336 341.95 89.14848 343.29315 89.14848 344.95Z" clip-path="url(#id_0)"/><path fill="#000" fill-opacity="0" fill-rule="nonzero" d="M94.561615 344.95C94.561615 346.60684 93.21847 347.95 91.561615 347.95C89.90476 347.95 88.561615 346.60684 88.561615 344.95C88.561615 343.29315 89.90476 341.95 91.561615 341.95C93.21847 341.95 94.561615 343.29315 94.561615 344.95Z" clip-path="url(#id_0)"/><path fill="#000" fill-opacity="0" fill-rule="nonzero" d="M99.97475 344.95C99.97475 346.60684 98.6316 347.95 96.97475 347.95C95.317894 347.95 93.97475 346.60684 93.97475 344.95C93.97475 343.29315 95.317894 341.95 96.97475 341.95C98.6316 341.95 99.97475 343.29315 99.97475 344.95Z" clip-path="url(#id_0)"/><path fill="#000" fill-opacity="0" fill-rule="nonzero" d="M105.38788 344.95C105.38788 346.60684 104.04473 347.95 102.38788 347.95C100.731026 347.95 99.38788 346.60684 99.38788 344.95C99.38788 343.29315 100.731026 341.95 102.38788 341.95C104.04473 341.95 105.38788 343.29315 105.38788 344.95Z" clip-path="url(#id_0)"/><path fill="#000" fill-opacity="0" fill-rule="nonzero" d="M110.80101 344.95C110.80101 346.60684 109.45786 347.95 107.80101 347.95C106.14416 347.95 104.80101 346.60684 104.80101 344.95C104.80101 343.29315 106.14416 341.95 107.80101 341.95C109.45786 341.95 110.80101 343.29315 110.80101 344.95Z" clip-path="url(#id_0)"/><path fill="#000" fill-opacity="0" fill-rule="nonzero" d="M116.21414 298.49844C116.21414 300.1553 114.870995 301.49844 113.21414 301.49844C111.55729 301.49844 110.21414 300.1553 110.21414 298.49844C110.21414 296.84158 111.55729 295.49844 113.21414 295.49844C114.870995 295.49844 116.21414 296.84158 116.21414 298.49844Z" clip-path="url(#id_0)"/><path fill="#000" fill-opacity="0" fill-rule="nonzero" d="M121.62727 234.94818C121.62727 236.60503 120.28413 237.94818 118.62727 237.94818C116.97042 237.94818 115.62727 236.60503 115.62727 234.94818C115.62727 233.29132 116.97042 231.94818 118.62727 231.94818C120.28413 231.94818 121.62727 233.29132 121.62727 234.94818Z" clip-path="url(#id_0)"/><path fill="#000" fill-opacity="0" fill-rule="nonzero" d="M127.040405 163.13351C127.040405 164.79036 125.69726 166.13351 124.040405 166.13351C122.38355 166.13351 121.040405 164.79036 121.040405 163.13351C121.040405 161.47665 122.38355 160.13351 124.040405 160.13351C125.69726 160.13351 127.040405 161.47665 127.040405 163.13351Z" clip-path="url(#id_0)"/><path fill="#000" fill-opacity="0" fill-rule="nonzero" d="M132.45354 116.39699C132.45354 118.05384 131.11038 119.39699 129.45354 119.39699C127.796684 119.39699 126.45354 118.05384 126.45354 116.39699C126.45354 114.740135 127.796684 113.39699 129.45354 113.39699C131.11038 113.39699 132.45354 114.740135 132.45354 116.39699Z" clip-path="url(#id_0)"/><path fill="#000" fill-opacity="0" fill-rule="nonzero" d="M137.86667 107.277664C137.86667 108.93452 136.52351 110.277664 134.86667 110.277664C133.20981 110.277664 131.86667 108.93452 131.86667 107.277664C131.86667 105.62081 133.20981 104.277664 134.86667 104.277664C136.52351 104.277664 137.86667 105.62081 137.86667 107.277664Z" clip-path="url(#id_0)"/><path fill="#000" fill-opacity="0" fill-rule="nonzero" d="M143.2798 105.85277C143.2798 107.50962 141.93665 108.85277 140.2798 108.85277C138.62294 108.85277 137.2798 107.50962 137.2798 105.85277C137.2798 104.195915 138.62294 102.85277 140.2798 102.85277C141.93665 102.85277 143.2798 104.195915 143.2798 105.85277Z" clip-path="url(#id_0)"/><path fill="#000" fill-opacity="0" fill-rule="nonzero" d="M148.69293 106.99268C148.69293 108.649536 147.34978 109.99268 145.69293 109.99268C144.03607 109.99268 142.69293 108.649536 142.69293 106.99268C142.69293 105.33583 144.03607 103.99268 145.69293 103.99268C147.34978 103.99268 148.69293 105.33583 148.69293 106.99268Z" clip-path="url(#id_0)"/><path fill="#000" fill-opacity="0" fill-rule="nonzero" d="M154.10606 108.41758C154.10606 110.07443 152.76291 111.41758 151.10606 111.41758C149.4492 111.41758 148.10606 110.07443 148.10606 108.41758C148.10606 106.76073 149.4492 105.41758 151.10606 105.41758C152.76291 105.41758 154.10606 106.76073 154.10606 108.41758Z" clip-path="url(#id_0)"/><path fill="#000" fill-opacity="0" fill-rule="nonzero" d="M159.5192 107.277664C159.5192 108.93452 158.17604 110.277664 156.5192 110.277664C154.86234 110.277664 153.5192 108.93452 153.5192 107.277664C153.5192 105.62081 154.86234 104.277664 156.5192 104.277664C158.17604 104.277664 159.5192 105.62081 159.5192 107.277664Z" clip-path="url(#id_0)"/><path fill="#000" fill-opacity="0" fill-rule="nonzero" d="M164.93233 120.95665C164.93233 122.6135 163.58917 123.95665 161.93233 123.95665C160.27547 123.95665 158.93233 122.6135 158.93233 120.95665C158.93233 119.29979 160.27547 117.95665 161.93233 117.95665C163.58917 117.95665 164.93233 119.29979 164.93233 120.95665Z" clip-path="url(#id_0)"/><path fill="#000" fill-opacity="0" fill-rule="nonzero" d="M170.34546 160.28372C170.34546 161.94058 169.0023 163.28372 167.34546 163.28372C165.6886 163.28372 164.34546 161.94058 164.34546 160.28372C164.34546 158.62688 165.6886 157.28372 167.34546 157.28372C169.0023 157.28372 170.34546 158.62688 170.34546 160.28372Z" clip-path="url(#id_0)"/><path fill="#000" fill-opacity="0" fill-rule="nonzero" d="M175.75859 153.44423C175.75859 155.10109 174.41544 156.44423 172.75859 156.44423C171.10173 156.44423 169.75859 155.10109 169.75859 153.44423C169.75859 151.78738 171.10173 150.44423 172.75859 150.44423C174.41544 150.44423 175.75859 151.78738 175.75859 153.44423Z" clip-path="url(#id_0)"/><path fill="#000" fill-opacity="0" fill-rule="nonzero" d="M181.17172 116.96694C181.17172 118.623795 179.82857 119.96694 178.17172 119.96694C176.51486 119.96694 175.17172 118.623795 175.17172 116.96694C175.17172 115.31009 176.51486 113.96694 178.17172 113.96694C179.82857 113.96694 181.17172 115.31009 181.17172 116.96694Z" clip-path="url(#id_0)"/><path fill="#000" fill-opacity="0" fill-rule="nonzero" d="M186.58485 111.267365C186.58485 112.924225 185.2417 114.267365 183.58485 114.267365C181.928 114.267365 180.58485 112.924225 180.58485 111.267365C180.58485 109.61051 181.928 108.267365 183.58485 108.267365C185.2417 108.267365 186.58485 109.61051 186.58485 111.267365Z" clip-path="url(#id_0)"/><path fill="#000" fill-opacity="0" fill-rule="nonzero" d="M191.99799 110.69741C191.99799 112.35426 190.65483 113.69741 188.99799 113.69741C187.34113 113.69741 185.99799 112.35426 185.99799 110.69741C185.99799 109.04056 187.34113 107.69741 188.99799 107.69741C190.65483 107.69741 191.99799 109.04056 191.99799 110.69741Z" clip-path="url(#id_0)"/><path fill="#000" fill-opacity="0" fill-rule="nonzero" d="M197.41112 112.97724C197.41112 114.634094 196.06796 115.97724 194.41112 115.97724C192.75426 115.97724 191.41112 114.634094 191.41112 112.97724C191.41112 111.32039 192.75426 109.97724 194.41112 109.97724C196.06796 109.97724 197.41112 111.32039 197.41112 112.97724Z" clip-path="url(#id_0)"/><path fill="#000" fill-opacity="0" fill-rule="nonzero" d="M202.82425 112.12231C202.82425 113.77916 201.4811 115.12231 199.82425 115.12231C198.16739 115.12231 196.82425 113.77916 196.82425 112.12231C196.82425 110.46545 198.16739 109.12231 199.82425 109.12231C201.4811 109.12231 202.82425 110.46545 202.82425 112.12231Z" clip-path="url(#id_0)"/><path fill="#000" fill-opacity="0" fill-rule="nonzero" d="M208.23738 110.41243C208.23738 112.06928 206.89423 113.41243 205.23738 113.41243C203.58052 113.41243 202.23738 112.06928 202.23738 110.41243C202.23738 108.75558 203.58052 107.41243 205.23738 107.41243C206.89423 107.41243 208.23738 108.75558 208.23738 110.41243Z" clip-path="url(#id_0)"/><path fill="#000" fill-opacity="0" fill-rule="nonzero" d="M213.6505 125.51631C213.6505 127.173164 212.30736 128.51631 210.6505 128.51631C208.99365 128.51631 207.6505 127.173164 207.6505 125.51631C207.6505 123.85945 208.99365 122.51631 210.6505 122.51631C212.30736 122.51631 213.6505 123.85945 213.6505 125.51631Z" clip-path="url(#id_0)"/><path fill="#000" fill-opacity="0" fill-rule="nonzero" d="M219.06363 157.71892C219.06363 159.37576 217.72049 160.71892 216.06363 160.71892C214.40678 160.71892 213.06363 159.37576 213.06363 157.71892C213.06363 156.06206 214.40678 154.71892 216.06363 154.71892C217.72049 154.71892 219.06363 156.06206 219.06363 157.71892Z" clip-path="url(#id_0)"/><path fill="#000" fill-opacity="0" fill-rule="nonzero" d="M224.47676 189.35156C224.47676 191.00842 223.13362 192.35156 221.47676 192.35156C219.81992 192.35156 218.47676 191.00842 218.47676 189.35156C218.47676 187.69472 219.81992 186.35156 221.47676 186.35156C223.13362 186.35156 224.47676 187.69472 224.47676 189.35156Z" clip-path="url(#id_0)"/><path fill="#000" fill-opacity="0" fill-rule="nonzero" d="M229.8899 220.69923C229.8899 222.3561 228.54675 223.69923 226.8899 223.69923C225.23305 223.69923 223.8899 222.3561 223.8899 220.69923C223.8899 219.04237 225.23305 217.69923 226.8899 217.69923C228.54675 217.69923 229.8899 219.04237 229.8899 220.69923Z" clip-path="url(#id_0)"/><path fill="#000" fill-opacity="0" fill-rule="nonzero" d="M235.30302 209.30008C235.30302 210.95694 233.95988 212.30008 232.30302 212.30008C230.64618 212.30008 229.30302 210.95694 229.30302 209.30008C229.30302 207.64323 230.64618 206.30008 232.30302 206.30008C233.95988 206.30008 235.30302 207.64323 235.30302 209.30008Z" clip-path="url(#id_0)"/><path fill="#000" fill-opacity="0" fill-rule="nonzero" d="M240.71616 135.77554C240.71616 137.4324 239.37302 138.77554 237.71616 138.77554C236.05931 138.77554 234.71616 137.4324 234.71616 135.77554C234.71616 134.1187 236.05931 132.77554 237.71616 132.77554C239.37302 132.77554 240.71616 134.1187 240.71616 135.77554Z" clip-path="url(#id_0)"/><path fill="#000" fill-opacity="0" fill-rule="nonzero" d="M246.12929 114.11716C246.12929 115.77401 244.78615 117.11716 243.12929 117.11716C241.47244 117.11716 240.12929 115.77401 240.12929 114.11716C240.12929 112.460304 241.47244 111.11716 243.12929 111.11716C244.78615 111.11716 246.12929 112.460304 246.12929 114.11716Z" clip-path="url(#id_0)"/><path fill="#000" fill-opacity="0" fill-rule="nonzero" d="M251.54242 106.42273C251.54242 108.07958 250.19928 109.42273 248.54242 109.42273C246.88557 109.42273 245.54242 108.07958 245.54242 106.42273C245.54242 104.76588 246.88557 103.42273 248.54242 103.42273C250.19928 103.42273 251.54242 104.76588 251.54242 106.42273Z" clip-path="url(#id_0)"/><path fill="#000" fill-opacity="0" fill-rule="nonzero" d="M256.95557 104.1429C256.95557 105.79975 255.61241 107.1429 253.95555 107.1429C252.2987 107.1429 250.95555 105.79975 250.95555 104.1429C250.95555 102.486046 252.2987 101.1429 253.95555 101.1429C255.61241 101.1429 256.95557 102.486046 256.95557 104.1429Z" clip-path="url(#id_0)"/><path fill="#000" fill-opacity="0" fill-rule="nonzero" d="M262.36868 120.10171C262.36868 121.75857 261.02554 123.10171 259.36868 123.10171C257.71182 123.10171 256.36868 121.75857 256.36868 120.10171C256.36868 118.444855 257.71182 117.10171 259.36868 117.10171C261.02554 117.10171 262.36868 118.444855 262.36868 120.10171Z" clip-path="url(#id_0)"/><path fill="#000" fill-opacity="0" fill-rule="nonzero" d="M267.78183 153.15926C267.78183 154.8161 266.43866 156.15926 264.78183 156.15926C263.12497 156.15926 261.78183 154.8161 261.78183 153.15926C261.78183 151.5024 263.12497 150.15926 264.78183 150.15926C266.43866 150.15926 267.78183 151.5024 267.78183 153.15926Z" clip-path="url(#id_0)"/><path fill="#000" fill-opacity="0" fill-rule="nonzero" d="M273.19495 147.1747C273.19495 148.83156 271.8518 150.1747 270.19495 150.1747C268.5381 150.1747 267.19495 148.83156 267.19495 147.1747C267.19495 145.51784 268.5381 144.1747 270.19495 144.1747C271.8518 144.1747 273.19495 145.51784 273.19495 147.1747Z" clip-path="url(#id_0)"/><path fill="#000" fill-opacity="0" fill-rule="nonzero" d="M278.6081 112.97724C278.6081 114.634094 277.26492 115.97724 275.6081 115.97724C273.95123 115.97724 272.6081 114.634094 272.6081 112.97724C272.6081 111.32039 273.95123 109.97724 275.6081 109.97724C277.26492 109.97724 278.6081 111.32039 278.6081 112.97724Z" clip-path="url(#id_0)"/><path fill="#000" fill-opacity="0" fill-rule="nonzero" d="M284.0212 120.67167C284.0212 122.32852 282.67807 123.67167 281.0212 123.67167C279.36435 123.67167 278.0212 122.32852 278.0212 120.67167C278.0212 119.01482 279.36435 117.67167 281.0212 117.67167C282.67807 117.67167 284.0212 119.01482 284.0212 120.67167Z" clip-path="url(#id_0)"/><path fill="#000" fill-opacity="0" fill-rule="nonzero" d="M289.43436 150.30946C289.43436 151.96632 288.0912 153.30946 286.43436 153.30946C284.7775 153.30946 283.43436 151.96632 283.43436 150.30946C283.43436 148.65262 284.7775 147.30946 286.43436 147.30946C288.0912 147.30946 289.43436 148.65262 289.43436 150.30946Z" clip-path="url(#id_0)"/><path fill="#000" fill-opacity="0" fill-rule="nonzero" d="M294.84747 143.46997C294.84747 145.12683 293.50433 146.46997 291.84747 146.46997C290.1906 146.46997 288.84747 145.12683 288.84747 143.46997C288.84747 141.81313 290.1906 140.46997 291.84747 140.46997C293.50433 140.46997 294.84747 141.81313 294.84747 143.46997Z" clip-path="url(#id_0)"/><path fill="#000" fill-opacity="0" fill-rule="nonzero" d="M300.26062 113.83218C300.26062 115.48903 298.91745 116.83218 297.26062 116.83218C295.60376 116.83218 294.26062 115.48903 294.26062 113.83218C294.26062 112.17532 295.60376 110.83218 297.26062 110.83218C298.91745 110.83218 300.26062 112.17532 300.26062 113.83218Z" clip-path="url(#id_0)"/><path fill="#000" fill-opacity="0" fill-rule="nonzero" d="M305.67374 106.13775C305.67374 107.7946 304.3306 109.13775 302.67374 109.13775C301.01688 109.13775 299.67374 107.7946 299.67374 106.13775C299.67374 104.480896 301.01688 103.13775 302.67374 103.13775C304.3306 103.13775 305.67374 104.480896 305.67374 106.13775Z" clip-path="url(#id_0)"/><path fill="#000" fill-opacity="0" fill-rule="nonzero" d="M311.08688 116.68196C311.08688 118.33882 309.7437 119.68196 308.08688 119.68196C306.43002 119.68196 305.08688 118.33882 305.08688 116.68196C305.08688 115.02511 306.43002 113.68196 308.08688 113.68196C309.7437 113.68196 311.08688 115.02511 311.08688 116.68196Z" clip-path="url(#id_0)"/><path fill="#000" fill-opacity="0" fill-rule="nonzero" d="M316.5 150.87943C316.5 152.53627 315.15686 153.87943 313.5 153.87943C311.84314 153.87943 310.5 152.53627 310.5 150.87943C310.5 149.22256 311.84314 147.87943 313.5 147.87943C315.15686 147.87943 316.5 149.22256 316.5 150.87943Z" clip-path="url(#id_0)"/><path fill="#000" fill-opacity="0" fill-rule="nonzero" d="M321.91312 181.37216C321.91312 183.029 320.56998 184.37216 318.91312 184.37216C317.2563 184.37216 315.91312 183.029 315.91312 181.37216C315.91312 179.7153 317.2563 178.37216 318.91312 178.37216C320.56998 178.37216 321.91312 179.7153 321.91312 181.37216Z" clip-path="url(#id_0)"/><path fill="#000" fill-opacity="0" fill-rule="nonzero" d="M327.32626 214.14471C327.32626 215.80157 325.98312 217.14471 324.32626 217.14471C322.6694 217.14471 321.32626 215.80157 321.32626 214.14471C321.32626 212.48787 322.6694 211.14471 324.32626 211.14471C325.98312 211.14471 327.32626 212.48787 327.32626 214.14471Z" clip-path="url(#id_0)"/><path fill="#000" fill-opacity="0" fill-rule="nonzero" d="M332.73938 240.07779C332.73938 241.73465 331.39624 243.07779 329.73938 243.07779C328.08255 243.07779 326.73938 241.73465 326.73938 240.07779C326.73938 238.42094 328.08255 237.07779 329.73938 237.07779C331.39624 237.07779 332.73938 238.42094 332.73938 240.07779Z" clip-path="url(#id_0)"/><path fill="#000" fill-opacity="0" fill-rule="nonzero" d="M338.15253 271.14047C338.15253 272.79733 336.8094 274.14047 335.15253 274.14047C333.49567 274.14047 332.15253 272.79733 332.15253 271.14047C332.15253 269.48364 333.49567 268.14047 335.15253 268.14047C336.8094 268.14047 338.15253 269.48364 338.15253 271.14047Z" clip-path="url(#id_0)"/><path fill="#000" fill-opacity="0" fill-rule="nonzero" d="M343.56564 292.5139C343.56564 294.17075 342.2225 295.5139 340.56564 295.5139C338.9088 295.5139 337.56564 294.17075 337.56564 292.5139C337.56564 290.85706 338.9088 289.5139 340.56564 289.5139C342.2225 289.5139 343.56564 290.85706 343.56564 292.5139Z" clip-path="url(#id_0)"/><path fill="#000" fill-opacity="0" fill-rule="nonzero" d="M348.9788 319.3019C348.9788 320.95877 347.63565 322.3019 345.9788 322.3019C344.32193 322.3019 342.9788 320.95877 342.9788 319.3019C342.9788 317.64505 344.32193 316.3019 345.9788 316.3019C347.63565 316.3019 348.9788 317.64505 348.9788 319.3019Z" clip-path="url(#id_0)"/><path fill="#000" fill-opacity="0" fill-rule="nonzero" d="M354.3919 302.2032C354.3919 303.86005 353.04877 305.2032 351.3919 305.2032C349.73508 305.2032 348.3919 303.86005 348.3919 302.2032C348.3919 300.54633 349.73508 299.2032 351.3919 299.2032C353.04877 299.2032 354.3919 300.54633 354.3919 302.2032Z" clip-path="url(#id_0)"/><path fill="#000" fill-opacity="0" fill-rule="nonzero" d="M359.80505 213.28978C359.80505 214.94664 358.4619 216.28978 356.80505 216.28978C355.1482 216.28978 353.80505 214.94664 353.80505 213.28978C353.80505 211.63293 355.1482 210.28978 356.80505 210.28978C358.4619 210.28978 359.80505 211.63293 359.80505 213.28978Z" clip-path="url(#id_0)"/><path fill="#000" fill-opacity="0" fill-rule="nonzero" d="M365.21817 228.67863C365.21817 230.3355 363.87503 231.67863 362.21817 231.67863C360.56134 231.67863 359.21817 230.3355 359.21817 228.67863C359.21817 227.02179 360.56134 225.67863 362.21817 225.67863C363.87503 225.67863 365.21817 227.02179 365.21817 228.67863Z" clip-path="url(#id_0)"/><path fill="#000" fill-opacity="0" fill-rule="nonzero" d="M370.63132 211.29494C370.63132 212.95178 369.28818 214.29494 367.63132 214.29494C365.97446 214.29494 364.63132 212.95178 364.63132 211.29494C364.63132 209.63808 365.97446 208.29494 367.63132 208.29494C369.28818 208.29494 370.63132 209.63808 370.63132 211.29494Z" clip-path="url(#id_0)"/><path fill="#000" fill-opacity="0" fill-rule="nonzero" d="M376.04443 132.3558C376.04443 134.01265 374.7013 135.3558 373.04443 135.3558C371.3876 135.3558 370.04443 134.01265 370.04443 132.3558C370.04443 130.69894 371.3876 129.3558 373.04443 129.3558C374.7013 129.3558 376.04443 130.69894 376.04443 132.3558Z" clip-path="url(#id_0)"/><path fill="#000" fill-opacity="0" fill-rule="nonzero" d="M381.45758 110.98239C381.45758 112.639244 380.11444 113.98239 378.45758 113.98239C376.80072 113.98239 375.45758 112.639244 375.45758 110.98239C375.45758 109.32553 376.80072 107.98239 378.45758 107.98239C380.11444 107.98239 381.45758 109.32553 381.45758 110.98239Z" clip-path="url(#id_0)"/><path fill="#000" fill-opacity="0" fill-rule="nonzero" d="M386.8707 103.57294C386.8707 105.22979 385.52756 106.57294 383.8707 106.57294C382.21387 106.57294 380.8707 105.22979 380.8707 103.57294C380.8707 101.916084 382.21387 100.57294 383.8707 100.57294C385.52756 100.57294 386.8707 101.916084 386.8707 103.57294Z" clip-path="url(#id_0)"/><path fill="#000" fill-opacity="0" fill-rule="nonzero" d="M392.28384 102.43302C392.28384 104.089874 390.9407 105.43302 389.28384 105.43302C387.62698 105.43302 386.28384 104.089874 386.28384 102.43302C386.28384 100.77617 387.62698 99.43302 389.28384 99.43302C390.9407 99.43302 392.28384 100.77617 392.28384 102.43302Z" clip-path="url(#id_0)"/><path fill="#000" fill-opacity="0" fill-rule="nonzero" d="M397.69696 101.00813C397.69696 102.664986 396.35382 104.00813 394.69696 104.00813C393.04013 104.00813 391.69696 102.664986 391.69696 101.00813C391.69696 99.35127 393.04013 98.00813 394.69696 98.00813C396.35382 98.00813 397.69696 99.35127 397.69696 101.00813Z" clip-path="url(#id_0)"/><path fill="#000" fill-opacity="0" fill-rule="nonzero" d="M403.1101 123.806435C403.1101 125.46329 401.76697 126.806435 400.1101 126.806435C398.45325 126.806435 397.1101 125.46329 397.1101 123.806435C397.1101 122.14958 398.45325 120.806435 400.1101 120.806435C401.76697 120.806435 403.1101 122.14958 403.1101 123.806435Z" clip-path="url(#id_0)"/><path fill="#000" fill-opacity="0" fill-rule="nonzero" d="M408.52322 120.67167C408.52322 122.32852 407.18008 123.67167 405.52322 123.67167C403.86636 123.67167 402.52322 122.32852 402.52322 120.67167C402.52322 119.01482 403.86636 117.67167 405.52322 117.67167C407.18008 117.67167 408.52322 119.01482 408.52322 120.67167Z" clip-path="url(#id_0)"/><path fill="#000" fill-opacity="0" fill-rule="nonzero" d="M413.93637 133.21074C413.93637 134.86758 412.59323 136.21074 410.93637 136.21074C409.2795 136.21074 407.93637 134.86758 407.93637 133.21074C407.93637 131.55388 409.2795 130.21074 410.93637 130.21074C412.59323 130.21074 413.93637 131.55388 413.93637 133.21074Z" clip-path="url(#id_0)"/><path fill="#000" fill-opacity="0" fill-rule="nonzero" d="M419.3495 170.54297C419.3495 172.19981 418.00635 173.54297 416.3495 173.54297C414.69263 173.54297 413.3495 172.19981 413.3495 170.54297C413.3495 168.88611 414.69263 167.54297 416.3495 167.54297C418.00635 167.54297 419.3495 168.88611 419.3495 170.54297Z" clip-path="url(#id_0)"/><path fill="#000" fill-opacity="0" fill-rule="nonzero" d="M424.76263 204.74042C424.76263 206.39728 423.4195 207.74042 421.76263 207.74042C420.10577 207.74042 418.76263 206.39728 418.76263 204.74042C418.76263 203.08357 420.10577 201.74042 421.76263 201.74042C423.4195 201.74042 424.76263 203.08357 424.76263 204.74042Z" clip-path="url(#id_0)"/><path fill="#000" fill-opacity="0" fill-rule="nonzero" d="M430.17575 179.09233C430.17575 180.74918 428.8326 182.09233 427.17575 182.09233C425.5189 182.09233 424.17575 180.74918 424.17575 179.09233C424.17575 177.43547 425.5189 176.09233 427.17575 176.09233C428.8326 176.09233 430.17575 177.43547 430.17575 179.09233Z" clip-path="url(#id_0)"/><path fill="#000" fill-opacity="0" fill-rule="nonzero" d="M435.5889 119.53175C435.5889 121.18861 434.24576 122.53175 432.5889 122.53175C430.93204 122.53175 429.5889 121.18861 429.5889 119.53175C429.5889 117.8749 430.93204 116.53175 432.5889 116.53175C434.24576 116.53175 435.5889 117.8749 435.5889 119.53175Z" clip-path="url(#id_0)"/><path fill="#000" fill-opacity="0" fill-rule="nonzero" d="M441.002 105.56779C441.002 107.22465 439.65887 108.56779 438.002 108.56779C436.34515 108.56779 435.002 107.22465 435.002 105.56779C435.002 103.910934 436.34515 102.56779 438.002 102.56779C439.65887 102.56779 441.002 103.910934 441.002 105.56779Z" clip-path="url(#id_0)"/><path fill="#000" fill-opacity="0" fill-rule="nonzero" d="M446.41516 102.718C446.41516 104.374855 445.072 105.718 443.41516 105.718C441.7583 105.718 440.41516 104.374855 440.41516 102.718C440.41516 101.06115 441.7583 99.718 443.41516 99.718C445.072 99.718 446.41516 101.06115 446.41516 102.718Z" clip-path="url(#id_0)"/><path fill="#000" fill-opacity="0" fill-rule="nonzero" d="M451.82828 126.37125C451.82828 128.02809 450.48514 129.37125 448.82828 129.37125C447.17142 129.37125 445.82828 128.02809 445.82828 126.37125C445.82828 124.71439 447.17142 123.37125 448.82828 123.37125C450.48514 123.37125 451.82828 124.71439 451.82828 126.37125Z" clip-path="url(#id_0)"/><path fill="#000" fill-opacity="0" fill-rule="nonzero" d="M457.24142 123.521454C457.24142 125.178314 455.89825 126.521454 454.24142 126.521454C452.58456 126.521454 451.24142 125.178314 451.24142 123.521454C451.24142 121.8646 452.58456 120.521454 454.24142 120.521454C455.89825 120.521454 457.24142 121.8646 457.24142 123.521454Z" clip-path="url(#id_0)"/><path fill="#000" fill-opacity="0" fill-rule="nonzero" d="M462.65454 109.272514C462.65454 110.92937 461.3114 112.272514 459.65454 112.272514C457.99768 112.272514 456.65454 110.92937 456.65454 109.272514C456.65454 107.61566 457.99768 106.272514 459.65454 106.272514C461.3114 106.272514 462.65454 107.61566 462.65454 109.272514Z" clip-path="url(#id_0)"/><path fill="#000" fill-opacity="0" fill-rule="nonzero" d="M468.0677 132.92575C468.0677 134.58261 466.72452 135.92575 465.0677 135.92575C463.41083 135.92575 462.0677 134.58261 462.0677 132.92575C462.0677 131.2689 463.41083 129.92575 465.0677 129.92575C466.72452 129.92575 468.0677 131.2689 468.0677 132.92575Z" clip-path="url(#id_0)"/><path fill="#000" fill-opacity="0" fill-rule="nonzero" d="M473.4808 129.22104C473.4808 130.87788 472.13766 132.22104 470.4808 132.22104C468.82394 132.22104 467.4808 130.87788 467.4808 129.22104C467.4808 127.56418 468.82394 126.22103 470.4808 126.22103C472.13766 126.22103 473.4808 127.56418 473.4808 129.22104Z" clip-path="url(#id_0)"/><path fill="#000" fill-opacity="0" fill-rule="nonzero" d="M478.89395 138.34036C478.89395 139.99721 477.55078 141.34036 475.89395 141.34036C474.2371 141.34036 472.89395 139.99721 472.89395 138.34036C472.89395 136.6835 474.2371 135.34036 475.89395 135.34036C477.55078 135.34036 478.89395 136.6835 478.89395 138.34036Z" clip-path="url(#id_0)"/><path fill="#000" fill-opacity="0" fill-rule="nonzero" d="M484.30707 172.8228C484.30707 174.47964 482.96393 175.8228 481.30707 175.8228C479.6502 175.8228 478.30707 174.47964 478.30707 172.8228C478.30707 171.16594 479.6502 169.8228 481.30707 169.8228C482.96393 169.8228 484.30707 171.16594 484.30707 172.8228Z" clip-path="url(#id_0)"/><path fill="#000" fill-opacity="0" fill-rule="nonzero" d="M489.7202 147.74466C489.7202 149.4015 488.37704 150.74466 486.7202 150.74466C485.06335 150.74466 483.7202 149.4015 483.7202 147.74466C483.7202 146.0878 485.06335 144.74466 486.7202 144.74466C488.37704 144.74466 489.7202 146.0878 489.7202 147.74466Z" clip-path="url(#id_0)"/><path fill="#000" fill-opacity="0" fill-rule="nonzero" d="M495.13333 114.11716C495.13333 115.77401 493.7902 117.11716 492.13333 117.11716C490.47647 117.11716 489.13333 115.77401 489.13333 114.11716C489.13333 112.460304 490.47647 111.11716 492.13333 111.11716C493.7902 111.11716 495.13333 112.460304 495.13333 114.11716Z" clip-path="url(#id_0)"/><path fill="#000" fill-opacity="0" fill-rule="nonzero" d="M500.54648 130.93091C500.54648 132.58775 499.2033 133.93091 497.54648 133.93091C495.88962 133.93091 494.54648 132.58775 494.54648 130.93091C494.54648 129.27405 495.88962 127.93091 497.54648 127.93091C499.2033 127.93091 500.54648 129.27405 500.54648 130.93091Z" clip-path="url(#id_0)"/><path fill="#000" fill-opacity="0" fill-rule="nonzero" d="M505.9596 128.65108C505.9596 130.30792 504.61646 131.65108 502.9596 131.65108C501.30273 131.65108 499.9596 130.30792 499.9596 128.65108C499.9596 126.994225 501.30273 125.65108 502.9596 125.65108C504.61646 125.65108 505.9596 126.994225 505.9596 128.65108Z" clip-path="url(#id_0)"/><path fill="#000" fill-opacity="0" fill-rule="nonzero" d="M511.37274 136.3455C511.37274 138.00237 510.02957 139.3455 508.37274 139.3455C506.71588 139.3455 505.37274 138.00237 505.37274 136.3455C505.37274 134.68864 506.71588 133.3455 508.37274 133.3455C510.02957 133.3455 511.37274 134.68864 511.37274 136.3455Z" clip-path="url(#id_0)"/><path fill="#000" fill-opacity="0" fill-rule="nonzero" d="M516.7859 174.24768C516.7859 175.90454 515.4427 177.24768 513.7859 177.24768C512.129 177.24768 510.78586 175.90454 510.78586 174.24768C510.78586 172.59084 512.129 171.24768 513.7859 171.24768C515.4427 171.24768 516.7859 172.59084 516.7859 174.24768Z" clip-path="url(#id_0)"/><path fill="#000" fill-opacity="0" fill-rule="nonzero" d="M522.199 149.7395C522.199 151.39636 520.85583 152.7395 519.199 152.7395C517.5421 152.7395 516.199 151.39636 516.199 149.7395C516.199 148.08266 517.5421 146.7395 519.199 146.7395C520.85583 146.7395 522.199 148.08266 522.199 149.7395Z" clip-path="url(#id_0)"/><path fill="#000" fill-opacity="0" fill-rule="nonzero" d="M527.6121 114.40214C527.6121 116.05899 526.269 117.40214 524.6121 117.40214C522.95526 117.40214 521.6121 116.05899 521.6121 114.40214C521.6121 112.74528 522.95526 111.40214 524.6121 111.40214C526.269 111.40214 527.6121 112.74528 527.6121 114.40214Z" clip-path="url(#id_0)"/><path fill="#000" fill-opacity="0" fill-rule="nonzero" d="M533.02527 130.07597C533.02527 131.73282 531.6821 133.07597 530.02527 133.07597C528.3684 133.07597 527.02527 131.73282 527.02527 130.07597C527.02527 128.41911 528.3684 127.075966 530.02527 127.075966C531.6821 127.075966 533.02527 128.41911 533.02527 130.07597Z" clip-path="url(#id_0)"/><path fill="#000" fill-opacity="0" fill-rule="nonzero" d="M538.43835 169.11807C538.43835 170.77492 537.0952 172.11807 535.43835 172.11807C533.78156 172.11807 532.43835 170.77492 532.43835 169.11807C532.43835 167.46121 533.78156 166.11807 535.43835 166.11807C537.0952 166.11807 538.43835 167.46121 538.43835 169.11807Z" clip-path="url(#id_0)"/><path fill="#000" fill-opacity="0" fill-rule="nonzero" d="M543.8515 200.46574C543.8515 202.12259 542.50836 203.46574 540.8515 203.46574C539.19464 203.46574 537.8515 202.12259 537.8515 200.46574C537.8515 198.80888 539.19464 197.46574 540.8515 197.46574C542.50836 197.46574 543.8515 198.80888 543.8515 200.46574Z" clip-path="url(#id_0)"/><path fill="#000" fill-opacity="0" fill-rule="nonzero" d="M549.26465 226.3988C549.26465 228.05566 547.9215 229.3988 546.26465 229.3988C544.6078 229.3988 543.26465 228.05566 543.26465 226.3988C543.26465 224.74196 544.6078 223.3988 546.26465 223.3988C547.9215 223.3988 549.26465 224.74196 549.26465 226.3988Z" clip-path="url(#id_0)"/><path fill="#000" fill-opacity="0" fill-rule="nonzero" d="M554.6778 206.16531C554.6778 207.82217 553.33466 209.16531 551.6778 209.16531C550.02094 209.16531 548.6778 207.82217 548.6778 206.16531C548.6778 204.50845 550.02094 203.16531 551.6778 203.16531C553.33466 203.16531 554.6778 204.50845 554.6778 206.16531Z" clip-path="url(#id_0)"/><path fill="#000" fill-opacity="0" fill-rule="nonzero" d="M560.0909 142.61504C560.0909 144.2719 558.74774 145.61504 557.0909 145.61504C555.4341 145.61504 554.0909 144.2719 554.0909 142.61504C554.0909 140.95818 555.4341 139.61504 557.0909 139.61504C558.74774 139.61504 560.0909 140.95818 560.0909 142.61504Z" clip-path="url(#id_0)"/><path fill="#000" fill-opacity="0" fill-rule="nonzero" d="M565.504 137.48541C565.504 139.14227 564.1609 140.48541 562.504 140.48541C560.84717 140.48541 559.504 139.14227 559.504 137.48541C559.504 135.82857 560.84717 134.48541 562.504 134.48541C564.1609 134.48541 565.504 135.82857 565.504 137.48541Z" clip-path="url(#id_0)"/><path fill="#000" fill-opacity="0" fill-rule="nonzero" d="M570.9172 175.95757C570.9172 177.61441 569.57404 178.95757 567.9172 178.95757C566.2603 178.95757 564.9172 177.61441 564.9172 175.95757C564.9172 174.3007 566.2603 172.95757 567.9172 172.95757C569.57404 172.95757 570.9172 174.3007 570.9172 175.95757Z" clip-path="url(#id_0)"/><path fill="#000" fill-opacity="0" fill-rule="nonzero" d="M576.3303 211.29494C576.3303 212.95178 574.9872 214.29494 573.3303 214.29494C571.67346 214.29494 570.3303 212.95178 570.3303 211.29494C570.3303 209.63808 571.67346 208.29494 573.3303 208.29494C574.9872 208.29494 576.3303 209.63808 576.3303 211.29494Z" clip-path="url(#id_0)"/><path fill="#000" fill-opacity="0" fill-rule="nonzero" d="M581.7434 242.07265C581.7434 243.7295 580.40027 245.07265 578.7434 245.07265C577.0866 245.07265 575.7434 243.7295 575.7434 242.07265C575.7434 240.41579 577.0866 239.07265 578.7434 239.07265C580.40027 239.07265 581.7434 240.41579 581.7434 242.07265Z" clip-path="url(#id_0)"/><path fill="#757575" fill-rule="nonzero" d="M38.6125 345.8094Q38.6125 347.71564 37.95625 348.65314Q37.315624 349.575 35.925 349.575Q34.565624 349.575 33.909374 348.66876Q33.253124 347.7625 33.221874 345.95L33.221874 344.5125Q33.221874 342.6219 33.8625 341.71564Q34.51875 340.79376 35.909374 340.79376Q37.284374 340.79376 37.940624 341.6844Q38.596874 342.5594 38.6125 344.40314L38.6125 345.8094ZM37.51875 344.325Q37.51875 342.95 37.128124 342.325Q36.753124 341.6844 35.909374 341.6844Q35.08125 341.6844 34.690624 342.325Q34.315624 342.95 34.315624 344.2469L34.315624 345.98126Q34.315624 347.35626 34.70625 348.02814Q35.1125 348.6844 35.925 348.6844Q36.721874 348.6844 37.1125 348.0594Q37.503124 347.4344 37.51875 346.10626L37.51875 344.325Z"/><path fill="#757575" fill-rule="nonzero" d="M36.815624 291.14334L35.7375 291.14334L35.7375 283.9246L33.55 284.72147L33.55 283.7371L36.659374 282.56522L36.815624 282.56522L36.815624 291.14334Z"/><path fill="#757575" fill-rule="nonzero" d="M38.846874 232.83667L33.253124 232.83667L33.253124 232.05542L36.20625 228.77417Q36.8625 228.02417 37.1125 227.57104Q37.3625 227.1023 37.3625 226.6023Q37.3625 225.93042 36.95625 225.50854Q36.565624 225.07104 35.878124 225.07104Q35.08125 225.07104 34.628124 225.5398Q34.175 225.99292 34.175 226.82104L33.096874 226.82104Q33.096874 225.63354 33.846874 224.9148Q34.6125 224.18042 35.878124 224.18042Q37.08125 224.18042 37.76875 224.80542Q38.45625 225.43042 38.45625 226.4773Q38.45625 227.7273 36.846874 229.4773L34.565624 231.94604L38.846874 231.94604L38.846874 232.83667Z"/><path fill="#757575" fill-rule="nonzero" d="M34.83125 169.73312L35.64375 169.73312Q36.425 169.7175 36.8625 169.32687Q37.3 168.93625 37.3 168.26437Q37.3 166.76437 35.8 166.76437Q35.096874 166.76437 34.675 167.17062Q34.26875 167.57687 34.26875 168.23312L33.175 168.23312Q33.175 167.2175 33.909374 166.54562Q34.659374 165.87375 35.8 165.87375Q37.003124 165.87375 37.690624 166.51437Q38.378124 167.155 38.378124 168.29562Q38.378124 168.85812 38.01875 169.37375Q37.659374 169.88937 37.034374 170.155Q37.7375 170.37375 38.1125 170.88937Q38.503124 171.405 38.503124 172.155Q38.503124 173.29562 37.753124 173.98312Q37.003124 174.655 35.8 174.655Q34.6125 174.655 33.846874 173.99875Q33.096874 173.3425 33.096874 172.28L34.190624 172.28Q34.190624 172.95187 34.628124 173.35812Q35.065624 173.76437 35.815624 173.76437Q36.596874 173.76437 37.003124 173.35812Q37.425 172.93625 37.425 172.17062Q37.425 171.43625 36.971874 171.04562Q36.51875 170.63937 35.64375 170.62375L34.83125 170.62375L34.83125 169.73312Z"/><path fill="#757575" fill-rule="nonzero" d="M37.83125 113.36396L39.01875 113.36396L39.01875 114.23896L37.83125 114.23896L37.83125 116.223335L36.753124 116.223335L36.753124 114.23896L32.8625 114.23896L32.8625 113.598335L36.675 107.692085L37.83125 107.692085L37.83125 113.36396ZM34.096874 113.36396L36.753124 113.36396L36.753124 109.17646L36.6125 109.410835L34.096874 113.36396Z"/><path fill="#757575" fill-rule="nonzero" d="M33.753124 53.635418L34.190624 49.385418L38.565624 49.385418L38.565624 50.385418L35.1125 50.385418L34.846874 52.713543Q35.4875 52.338543 36.284374 52.338543Q37.440624 52.338543 38.128124 53.119793Q38.815624 53.885418 38.815624 55.197918Q38.815624 56.510418 38.096874 57.276043Q37.39375 58.041668 36.1125 58.041668Q34.9875 58.041668 34.26875 57.416668Q33.55 56.776043 33.45625 55.666668L34.471874 55.666668Q34.58125 56.401043 35.003124 56.776043Q35.425 57.151043 36.1125 57.151043Q36.8625 57.151043 37.3 56.635418Q37.7375 56.119793 37.7375 55.213543Q37.7375 54.354168 37.26875 53.838543Q36.8 53.322918 36.01875 53.322918Q35.315624 53.322918 34.909374 53.619793L34.628124 53.854168L33.753124 53.635418Z"/><path fill-rule="nonzero" stroke="#4285f4" stroke-linecap="butt" stroke-width="4" d="M265.5 26.05L277.5 26.05"/><path fill="#757575" fill-rule="nonzero" d="M290.23438 29.925Q289.60938 30.675 288.375 30.675Q287.35938 30.675 286.82812 30.08125Q286.29688 29.4875 286.29688 28.33125L286.29688 24.20625L287.375 24.20625L287.375 28.3Q287.375 29.753124 288.54688 29.753124Q289.79688 29.753124 290.20312 28.815624L290.20312 24.20625L291.29688 24.20625L291.29688 30.55L290.26562 30.55L290.23438 29.925Z"/><path fill-rule="nonzero" stroke="#db4437" stroke-linecap="butt" stroke-width="4" d="M308.5 26.05L320.5 26.05"/><path fill="#757575" fill-rule="nonzero" d="M331.39062 28.95625L332.875 24.20625L334.03125 24.20625L331.48438 31.534374Q330.89062 33.1125 329.60938 33.1125L329.39062 33.096874L329.0 33.01875L329.0 32.14375L329.28125 32.159374Q329.84375 32.159374 330.14062 31.940624Q330.45312 31.721874 330.65625 31.128124L330.89062 30.471874L328.625 24.20625L329.8125 24.20625L331.39062 28.95625Z"/></svg>