<svg xmlns="http://www.w3.org/2000/svg" xmlns:xlink="http://www.w3.org/1999/xlink" width="1843.2" height="1036.8" version="1.1" viewBox="0 0 1382.4 777.6"><defs><style type="text/css">*{stroke-linecap:butt;stroke-linejoin:round;white-space:pre}</style></defs><g id="figure_1"><g id="patch_1"><path fill="#fff" d="M 0 777.6 L 1382.4 777.6 L 1382.4 0 L 0 0 z"/></g><g id="axes_1"><g id="patch_2"><path fill="#fff" d="M 172.8 215.506286 L 1244.16 215.506286 L 1244.16 93.312 L 172.8 93.312 z"/></g><g id="matplotlib.axis_1"><g id="xtick_1"><g id="line2d_1"><path fill="none" stroke="gray" stroke-linecap="square" stroke-width=".8" d="M 221.498182 215.506286 L 221.498182 93.312" clip-path="url(#p39c5bc5010)"/></g><g id="line2d_2"><defs><path id="meff5bd4baf" stroke="#000" stroke-width=".8" d="M 0 0 L 0 3.5"/></defs><g><use x="221.498" y="215.506" stroke="#000" stroke-width=".8" xlink:href="#meff5bd4baf"/></g></g></g><g id="xtick_2"><g id="line2d_3"><path fill="none" stroke="gray" stroke-linecap="square" stroke-width=".8" d="M 343.548763 215.506286 L 343.548763 93.312" clip-path="url(#p39c5bc5010)"/></g><g id="line2d_4"><g><use x="343.549" y="215.506" stroke="#000" stroke-width=".8" xlink:href="#meff5bd4baf"/></g></g></g><g id="xtick_3"><g id="line2d_5"><path fill="none" stroke="gray" stroke-linecap="square" stroke-width=".8" d="M 465.599344 215.506286 L 465.599344 93.312" clip-path="url(#p39c5bc5010)"/></g><g id="line2d_6"><g><use x="465.599" y="215.506" stroke="#000" stroke-width=".8" xlink:href="#meff5bd4baf"/></g></g></g><g id="xtick_4"><g id="line2d_7"><path fill="none" stroke="gray" stroke-linecap="square" stroke-width=".8" d="M 587.649925 215.506286 L 587.649925 93.312" clip-path="url(#p39c5bc5010)"/></g><g id="line2d_8"><g><use x="587.65" y="215.506" stroke="#000" stroke-width=".8" xlink:href="#meff5bd4baf"/></g></g></g><g id="xtick_5"><g id="line2d_9"><path fill="none" stroke="gray" stroke-linecap="square" stroke-width=".8" d="M 709.700506 215.506286 L 709.700506 93.312" clip-path="url(#p39c5bc5010)"/></g><g id="line2d_10"><g><use x="709.701" y="215.506" stroke="#000" stroke-width=".8" xlink:href="#meff5bd4baf"/></g></g></g><g id="xtick_6"><g id="line2d_11"><path fill="none" stroke="gray" stroke-linecap="square" stroke-width=".8" d="M 831.751087 215.506286 L 831.751087 93.312" clip-path="url(#p39c5bc5010)"/></g><g id="line2d_12"><g><use x="831.751" y="215.506" stroke="#000" stroke-width=".8" xlink:href="#meff5bd4baf"/></g></g></g><g id="xtick_7"><g id="line2d_13"><path fill="none" stroke="gray" stroke-linecap="square" stroke-width=".8" d="M 953.801668 215.506286 L 953.801668 93.312" clip-path="url(#p39c5bc5010)"/></g><g id="line2d_14"><g><use x="953.802" y="215.506" stroke="#000" stroke-width=".8" xlink:href="#meff5bd4baf"/></g></g></g><g id="xtick_8"><g id="line2d_15"><path fill="none" stroke="gray" stroke-linecap="square" stroke-width=".8" d="M 1075.852249 215.506286 L 1075.852249 93.312" clip-path="url(#p39c5bc5010)"/></g><g id="line2d_16"><g><use x="1075.852" y="215.506" stroke="#000" stroke-width=".8" xlink:href="#meff5bd4baf"/></g></g></g><g id="xtick_9"><g id="line2d_17"><path fill="none" stroke="gray" stroke-linecap="square" stroke-width=".8" d="M 1197.90283 215.506286 L 1197.90283 93.312" clip-path="url(#p39c5bc5010)"/></g><g id="line2d_18"><g><use x="1197.903" y="215.506" stroke="#000" stroke-width=".8" xlink:href="#meff5bd4baf"/></g></g></g></g><g id="matplotlib.axis_2"><g id="ytick_1"><g id="line2d_19"><path fill="none" stroke="gray" stroke-linecap="square" stroke-width=".8" d="M 172.8 205.323429 L 1244.16 205.323429" clip-path="url(#p39c5bc5010)"/></g><g id="line2d_20"><defs><path id="m572c5169aa" stroke="#000" stroke-width=".8" d="M 0 0 L -3.5 0"/></defs><g><use x="172.8" y="205.323" stroke="#000" stroke-width=".8" xlink:href="#m572c5169aa"/></g></g><g id="text_1"><defs><path id="DejaVuSans-48" d="M 31.78125 66.40625 Q 24.171875 66.40625 20.328125 58.90625 Q 16.5 51.421875 16.5 36.375 Q 16.5 21.390625 20.328125 13.890625 Q 24.171875 6.390625 31.78125 6.390625 Q 39.453125 6.390625 43.28125 13.890625 Q 47.125 21.390625 47.125 36.375 Q 47.125 51.421875 43.28125 58.90625 Q 39.453125 66.40625 31.78125 66.40625 z M 31.78125 74.21875 Q 44.046875 74.21875 50.515625 64.515625 Q 56.984375 54.828125 56.984375 36.375 Q 56.984375 17.96875 50.515625 8.265625 Q 44.046875 -1.421875 31.78125 -1.421875 Q 19.53125 -1.421875 13.0625 8.265625 Q 6.59375 17.96875 6.59375 36.375 Q 6.59375 54.828125 13.0625 64.515625 Q 19.53125 74.21875 31.78125 74.21875 z"/></defs><g transform="translate(159.4375 209.122647)scale(0.1 -0.1)"><use xlink:href="#DejaVuSans-48"/></g></g></g><g id="ytick_2"><g id="line2d_21"><path fill="none" stroke="gray" stroke-linecap="square" stroke-width=".8" d="M 172.8 184.957714 L 1244.16 184.957714" clip-path="url(#p39c5bc5010)"/></g><g id="line2d_22"><g><use x="172.8" y="184.958" stroke="#000" stroke-width=".8" xlink:href="#m572c5169aa"/></g></g><g id="text_2"><defs><path id="DejaVuSans-49" d="M 12.40625 8.296875 L 28.515625 8.296875 L 28.515625 63.921875 L 10.984375 60.40625 L 10.984375 69.390625 L 28.421875 72.90625 L 38.28125 72.90625 L 38.28125 8.296875 L 54.390625 8.296875 L 54.390625 0 L 12.40625 0 z"/></defs><g transform="translate(159.4375 188.756933)scale(0.1 -0.1)"><use xlink:href="#DejaVuSans-49"/></g></g></g><g id="ytick_3"><g id="line2d_23"><path fill="none" stroke="gray" stroke-linecap="square" stroke-width=".8" d="M 172.8 164.592 L 1244.16 164.592" clip-path="url(#p39c5bc5010)"/></g><g id="line2d_24"><g><use x="172.8" y="164.592" stroke="#000" stroke-width=".8" xlink:href="#m572c5169aa"/></g></g><g id="text_3"><defs><path id="DejaVuSans-50" d="M 19.1875 8.296875 L 53.609375 8.296875 L 53.609375 0 L 7.328125 0 L 7.328125 8.296875 Q 12.9375 14.109375 22.625 23.890625 Q 32.328125 33.6875 34.8125 36.53125 Q 39.546875 41.84375 41.421875 45.53125 Q 43.3125 49.21875 43.3125 52.78125 Q 43.3125 58.59375 39.234375 62.25 Q 35.15625 65.921875 28.609375 65.921875 Q 23.96875 65.921875 18.8125 64.3125 Q 13.671875 62.703125 7.8125 59.421875 L 7.8125 69.390625 Q 13.765625 71.78125 18.9375 73 Q 24.125 74.21875 28.421875 74.21875 Q 39.75 74.21875 46.484375 68.546875 Q 53.21875 62.890625 53.21875 53.421875 Q 53.21875 48.921875 51.53125 44.890625 Q 49.859375 40.875 45.40625 35.40625 Q 44.1875 33.984375 37.640625 27.21875 Q 31.109375 20.453125 19.1875 8.296875 z"/></defs><g transform="translate(159.4375 168.391219)scale(0.1 -0.1)"><use xlink:href="#DejaVuSans-50"/></g></g></g><g id="ytick_4"><g id="line2d_25"><path fill="none" stroke="gray" stroke-linecap="square" stroke-width=".8" d="M 172.8 144.226286 L 1244.16 144.226286" clip-path="url(#p39c5bc5010)"/></g><g id="line2d_26"><g><use x="172.8" y="144.226" stroke="#000" stroke-width=".8" xlink:href="#m572c5169aa"/></g></g><g id="text_4"><defs><path id="DejaVuSans-51" d="M 40.578125 39.3125 Q 47.65625 37.796875 51.625 33 Q 55.609375 28.21875 55.609375 21.1875 Q 55.609375 10.40625 48.1875 4.484375 Q 40.765625 -1.421875 27.09375 -1.421875 Q 22.515625 -1.421875 17.65625 -0.515625 Q 12.796875 0.390625 7.625 2.203125 L 7.625 11.71875 Q 11.71875 9.328125 16.59375 8.109375 Q 21.484375 6.890625 26.8125 6.890625 Q 36.078125 6.890625 40.9375 10.546875 Q 45.796875 14.203125 45.796875 21.1875 Q 45.796875 27.640625 41.28125 31.265625 Q 36.765625 34.90625 28.71875 34.90625 L 20.21875 34.90625 L 20.21875 43.015625 L 29.109375 43.015625 Q 36.375 43.015625 40.234375 45.921875 Q 44.09375 48.828125 44.09375 54.296875 Q 44.09375 59.90625 40.109375 62.90625 Q 36.140625 65.921875 28.71875 65.921875 Q 24.65625 65.921875 20.015625 65.03125 Q 15.375 64.15625 9.8125 62.3125 L 9.8125 71.09375 Q 15.4375 72.65625 20.34375 73.4375 Q 25.25 74.21875 29.59375 74.21875 Q 40.828125 74.21875 47.359375 69.109375 Q 53.90625 64.015625 53.90625 55.328125 Q 53.90625 49.265625 50.4375 45.09375 Q 46.96875 40.921875 40.578125 39.3125 z"/></defs><g transform="translate(159.4375 148.025504)scale(0.1 -0.1)"><use xlink:href="#DejaVuSans-51"/></g></g></g><g id="ytick_5"><g id="line2d_27"><path fill="none" stroke="gray" stroke-linecap="square" stroke-width=".8" d="M 172.8 123.860571 L 1244.16 123.860571" clip-path="url(#p39c5bc5010)"/></g><g id="line2d_28"><g><use x="172.8" y="123.861" stroke="#000" stroke-width=".8" xlink:href="#m572c5169aa"/></g></g><g id="text_5"><defs><path id="DejaVuSans-52" d="M 37.796875 64.3125 L 12.890625 25.390625 L 37.796875 25.390625 z M 35.203125 72.90625 L 47.609375 72.90625 L 47.609375 25.390625 L 58.015625 25.390625 L 58.015625 17.1875 L 47.609375 17.1875 L 47.609375 0 L 37.796875 0 L 37.796875 17.1875 L 4.890625 17.1875 L 4.890625 26.703125 z"/></defs><g transform="translate(159.4375 127.65979)scale(0.1 -0.1)"><use xlink:href="#DejaVuSans-52"/></g></g></g><g id="ytick_6"><g id="line2d_29"><path fill="none" stroke="gray" stroke-linecap="square" stroke-width=".8" d="M 172.8 103.494857 L 1244.16 103.494857" clip-path="url(#p39c5bc5010)"/></g><g id="line2d_30"><g><use x="172.8" y="103.495" stroke="#000" stroke-width=".8" xlink:href="#m572c5169aa"/></g></g><g id="text_6"><defs><path id="DejaVuSans-53" d="M 10.796875 72.90625 L 49.515625 72.90625 L 49.515625 64.59375 L 19.828125 64.59375 L 19.828125 46.734375 Q 21.96875 47.46875 24.109375 47.828125 Q 26.265625 48.1875 28.421875 48.1875 Q 40.625 48.1875 47.75 41.5 Q 54.890625 34.8125 54.890625 23.390625 Q 54.890625 11.625 47.5625 5.09375 Q 40.234375 -1.421875 26.90625 -1.421875 Q 22.3125 -1.421875 17.546875 -0.640625 Q 12.796875 0.140625 7.71875 1.703125 L 7.71875 11.625 Q 12.109375 9.234375 16.796875 8.0625 Q 21.484375 6.890625 26.703125 6.890625 Q 35.15625 6.890625 40.078125 11.328125 Q 45.015625 15.765625 45.015625 23.390625 Q 45.015625 31 40.078125 35.4375 Q 35.15625 39.890625 26.703125 39.890625 Q 22.75 39.890625 18.8125 39.015625 Q 14.890625 38.140625 10.796875 36.28125 z"/></defs><g transform="translate(159.4375 107.294076)scale(0.1 -0.1)"><use xlink:href="#DejaVuSans-53"/></g></g></g><g id="text_7"><defs><path id="DejaVuSans-86" d="M 28.609375 0 L 0.78125 72.90625 L 11.078125 72.90625 L 34.1875 11.53125 L 57.328125 72.90625 L 67.578125 72.90625 L 39.796875 0 z"/><path id="DejaVuSans-111" d="M 30.609375 48.390625 Q 23.390625 48.390625 19.1875 42.75 Q 14.984375 37.109375 14.984375 27.296875 Q 14.984375 17.484375 19.15625 11.84375 Q 23.34375 6.203125 30.609375 6.203125 Q 37.796875 6.203125 41.984375 11.859375 Q 46.1875 17.53125 46.1875 27.296875 Q 46.1875 37.015625 41.984375 42.703125 Q 37.796875 48.390625 30.609375 48.390625 z M 30.609375 56 Q 42.328125 56 49.015625 48.375 Q 55.71875 40.765625 55.71875 27.296875 Q 55.71875 13.875 49.015625 6.21875 Q 42.328125 -1.421875 30.609375 -1.421875 Q 18.84375 -1.421875 12.171875 6.21875 Q 5.515625 13.875 5.515625 27.296875 Q 5.515625 40.765625 12.171875 48.375 Q 18.84375 56 30.609375 56 z"/><path id="DejaVuSans-108" d="M 9.421875 75.984375 L 18.40625 75.984375 L 18.40625 0 L 9.421875 0 z"/><path id="DejaVuSans-116" d="M 18.3125 70.21875 L 18.3125 54.6875 L 36.8125 54.6875 L 36.8125 47.703125 L 18.3125 47.703125 L 18.3125 18.015625 Q 18.3125 11.328125 20.140625 9.421875 Q 21.96875 7.515625 27.59375 7.515625 L 36.8125 7.515625 L 36.8125 0 L 27.59375 0 Q 17.1875 0 13.234375 3.875 Q 9.28125 7.765625 9.28125 18.015625 L 9.28125 47.703125 L 2.6875 47.703125 L 2.6875 54.6875 L 9.28125 54.6875 L 9.28125 70.21875 z"/><path id="DejaVuSans-97" d="M 34.28125 27.484375 Q 23.390625 27.484375 19.1875 25 Q 14.984375 22.515625 14.984375 16.5 Q 14.984375 11.71875 18.140625 8.90625 Q 21.296875 6.109375 26.703125 6.109375 Q 34.1875 6.109375 38.703125 11.40625 Q 43.21875 16.703125 43.21875 25.484375 L 43.21875 27.484375 z M 52.203125 31.203125 L 52.203125 0 L 43.21875 0 L 43.21875 8.296875 Q 40.140625 3.328125 35.546875 0.953125 Q 30.953125 -1.421875 24.3125 -1.421875 Q 15.921875 -1.421875 10.953125 3.296875 Q 6 8.015625 6 15.921875 Q 6 25.140625 12.171875 29.828125 Q 18.359375 34.515625 30.609375 34.515625 L 43.21875 34.515625 L 43.21875 35.40625 Q 43.21875 41.609375 39.140625 45 Q 35.0625 48.390625 27.6875 48.390625 Q 23 48.390625 18.546875 47.265625 Q 14.109375 46.140625 10.015625 43.890625 L 10.015625 52.203125 Q 14.9375 54.109375 19.578125 55.046875 Q 24.21875 56 28.609375 56 Q 40.484375 56 46.34375 49.84375 Q 52.203125 43.703125 52.203125 31.203125 z"/><path id="DejaVuSans-103" d="M 45.40625 27.984375 Q 45.40625 37.75 41.375 43.109375 Q 37.359375 48.484375 30.078125 48.484375 Q 22.859375 48.484375 18.828125 43.109375 Q 14.796875 37.75 14.796875 27.984375 Q 14.796875 18.265625 18.828125 12.890625 Q 22.859375 7.515625 30.078125 7.515625 Q 37.359375 7.515625 41.375 12.890625 Q 45.40625 18.265625 45.40625 27.984375 z M 54.390625 6.78125 Q 54.390625 -7.171875 48.1875 -13.984375 Q 42 -20.796875 29.203125 -20.796875 Q 24.46875 -20.796875 20.265625 -20.09375 Q 16.0625 -19.390625 12.109375 -17.921875 L 12.109375 -9.1875 Q 16.0625 -11.328125 19.921875 -12.34375 Q 23.78125 -13.375 27.78125 -13.375 Q 36.625 -13.375 41.015625 -8.765625 Q 45.40625 -4.15625 45.40625 5.171875 L 45.40625 9.625 Q 42.625 4.78125 38.28125 2.390625 Q 33.9375 0 27.875 0 Q 17.828125 0 11.671875 7.65625 Q 5.515625 15.328125 5.515625 27.984375 Q 5.515625 40.671875 11.671875 48.328125 Q 17.828125 56 27.875 56 Q 33.9375 56 38.28125 53.609375 Q 42.625 51.21875 45.40625 46.390625 L 45.40625 54.6875 L 54.390625 54.6875 z"/><path id="DejaVuSans-101" d="M 56.203125 29.59375 L 56.203125 25.203125 L 14.890625 25.203125 Q 15.484375 15.921875 20.484375 11.0625 Q 25.484375 6.203125 34.421875 6.203125 Q 39.59375 6.203125 44.453125 7.46875 Q 49.3125 8.734375 54.109375 11.28125 L 54.109375 2.78125 Q 49.265625 0.734375 44.1875 -0.34375 Q 39.109375 -1.421875 33.890625 -1.421875 Q 20.796875 -1.421875 13.15625 6.1875 Q 5.515625 13.8125 5.515625 26.8125 Q 5.515625 40.234375 12.765625 48.109375 Q 20.015625 56 32.328125 56 Q 43.359375 56 49.78125 48.890625 Q 56.203125 41.796875 56.203125 29.59375 z M 47.21875 32.234375 Q 47.125 39.59375 43.09375 43.984375 Q 39.0625 48.390625 32.421875 48.390625 Q 24.90625 48.390625 20.390625 44.140625 Q 15.875 39.890625 15.1875 32.171875 z"/><path id="DejaVuSans-109" d="M 52 44.1875 Q 55.375 50.25 60.0625 53.125 Q 64.75 56 71.09375 56 Q 79.640625 56 84.28125 50.015625 Q 88.921875 44.046875 88.921875 33.015625 L 88.921875 0 L 79.890625 0 L 79.890625 32.71875 Q 79.890625 40.578125 77.09375 44.375 Q 74.3125 48.1875 68.609375 48.1875 Q 61.625 48.1875 57.5625 43.546875 Q 53.515625 38.921875 53.515625 30.90625 L 53.515625 0 L 44.484375 0 L 44.484375 32.71875 Q 44.484375 40.625 41.703125 44.40625 Q 38.921875 48.1875 33.109375 48.1875 Q 26.21875 48.1875 22.15625 43.53125 Q 18.109375 38.875 18.109375 30.90625 L 18.109375 0 L 9.078125 0 L 9.078125 54.6875 L 18.109375 54.6875 L 18.109375 46.1875 Q 21.1875 51.21875 25.484375 53.609375 Q 29.78125 56 35.6875 56 Q 41.65625 56 45.828125 52.96875 Q 50 49.953125 52 44.1875 z"/><path id="DejaVuSans-32"/><path id="DejaVuSans-40" d="M 31 75.875 Q 24.46875 64.65625 21.28125 53.65625 Q 18.109375 42.671875 18.109375 31.390625 Q 18.109375 20.125 21.3125 9.0625 Q 24.515625 -2 31 -13.1875 L 23.1875 -13.1875 Q 15.875 -1.703125 12.234375 9.375 Q 8.59375 20.453125 8.59375 31.390625 Q 8.59375 42.28125 12.203125 53.3125 Q 15.828125 64.359375 23.1875 75.875 z"/><path id="DejaVuSans-41" d="M 8.015625 75.875 L 15.828125 75.875 Q 23.140625 64.359375 26.78125 53.3125 Q 30.421875 42.28125 30.421875 31.390625 Q 30.421875 20.453125 26.78125 9.375 Q 23.140625 -1.703125 15.828125 -13.1875 L 8.015625 -13.1875 Q 14.5 -2 17.703125 9.0625 Q 20.90625 20.125 20.90625 31.390625 Q 20.90625 42.671875 17.703125 53.65625 Q 14.5 64.65625 8.015625 75.875 z"/></defs><g transform="translate(152.11 207.080393)rotate(-90)scale(0.16 -0.16)"><use xlink:href="#DejaVuSans-86"/><use x="68.299" xlink:href="#DejaVuSans-111"/><use x="129.48" xlink:href="#DejaVuSans-108"/><use x="157.264" xlink:href="#DejaVuSans-116"/><use x="196.473" xlink:href="#DejaVuSans-97"/><use x="257.752" xlink:href="#DejaVuSans-103"/><use x="321.229" xlink:href="#DejaVuSans-101"/><use x="382.752" xlink:href="#DejaVuSans-109"/><use x="480.164" xlink:href="#DejaVuSans-32"/><use x="511.951" xlink:href="#DejaVuSans-40"/><use x="550.965" xlink:href="#DejaVuSans-86"/><use x="619.373" xlink:href="#DejaVuSans-41"/></g></g></g><g id="line2d_31"><path fill="none" stroke="#00f" stroke-linecap="square" stroke-width="4" d="M 221.498182 205.323429 L 341.107751 205.323429 L 343.548763 123.860571 L 463.158332 123.860571 L 465.599344 205.323429 L 585.208913 205.323429 L 587.649925 103.494857 L 707.259494 103.494857 L 709.700506 184.957714 L 829.310075 184.957714 L 831.751087 164.592 L 951.360656 164.592 L 953.801668 205.323429 L 1073.411237 205.323429 L 1075.852249 144.226286 L 1195.461818 144.226286 L 1195.461818 144.226286" clip-path="url(#p39c5bc5010)"/></g><g id="patch_3"><path fill="none" stroke="#000" stroke-linecap="square" stroke-linejoin="miter" stroke-width=".8" d="M 172.8 215.506286 L 172.8 93.312"/></g><g id="patch_4"><path fill="none" stroke="#000" stroke-linecap="square" stroke-linejoin="miter" stroke-width=".8" d="M 1244.16 215.506286 L 1244.16 93.312"/></g><g id="patch_5"><path fill="none" stroke="#000" stroke-linecap="square" stroke-linejoin="miter" stroke-width=".8" d="M 172.8 215.506286 L 1244.16 215.506286"/></g><g id="patch_6"><path fill="none" stroke="#000" stroke-linecap="square" stroke-linejoin="miter" stroke-width=".8" d="M 172.8 93.312 L 1244.16 93.312"/></g><g id="text_8"><defs><path id="DejaVuSans-82" d="M 44.390625 34.1875 Q 47.5625 33.109375 50.5625 29.59375 Q 53.5625 26.078125 56.59375 19.921875 L 66.609375 0 L 56 0 L 46.6875 18.703125 Q 43.0625 26.03125 39.671875 28.421875 Q 36.28125 30.8125 30.421875 30.8125 L 19.671875 30.8125 L 19.671875 0 L 9.8125 0 L 9.8125 72.90625 L 32.078125 72.90625 Q 44.578125 72.90625 50.734375 67.671875 Q 56.890625 62.453125 56.890625 51.90625 Q 56.890625 45.015625 53.6875 40.46875 Q 50.484375 35.9375 44.390625 34.1875 z M 19.671875 64.796875 L 19.671875 38.921875 L 32.078125 38.921875 Q 39.203125 38.921875 42.84375 42.21875 Q 46.484375 45.515625 46.484375 51.90625 Q 46.484375 58.296875 42.84375 61.546875 Q 39.203125 64.796875 32.078125 64.796875 z"/><path id="DejaVuSans-102" d="M 37.109375 75.984375 L 37.109375 68.5 L 28.515625 68.5 Q 23.6875 68.5 21.796875 66.546875 Q 19.921875 64.59375 19.921875 59.515625 L 19.921875 54.6875 L 34.71875 54.6875 L 34.71875 47.703125 L 19.921875 47.703125 L 19.921875 0 L 10.890625 0 L 10.890625 47.703125 L 2.296875 47.703125 L 2.296875 54.6875 L 10.890625 54.6875 L 10.890625 58.5 Q 10.890625 67.625 15.140625 71.796875 Q 19.390625 75.984375 28.609375 75.984375 z"/><path id="DejaVuSans-114" d="M 41.109375 46.296875 Q 39.59375 47.171875 37.8125 47.578125 Q 36.03125 48 33.890625 48 Q 26.265625 48 22.1875 43.046875 Q 18.109375 38.09375 18.109375 28.8125 L 18.109375 0 L 9.078125 0 L 9.078125 54.6875 L 18.109375 54.6875 L 18.109375 46.1875 Q 20.953125 51.171875 25.484375 53.578125 Q 30.03125 56 36.53125 56 Q 37.453125 56 38.578125 55.875 Q 39.703125 55.765625 41.0625 55.515625 z"/><path id="DejaVuSans-110" d="M 54.890625 33.015625 L 54.890625 0 L 45.90625 0 L 45.90625 32.71875 Q 45.90625 40.484375 42.875 44.328125 Q 39.84375 48.1875 33.796875 48.1875 Q 26.515625 48.1875 22.3125 43.546875 Q 18.109375 38.921875 18.109375 30.90625 L 18.109375 0 L 9.078125 0 L 9.078125 54.6875 L 18.109375 54.6875 L 18.109375 46.1875 Q 21.34375 51.125 25.703125 53.5625 Q 30.078125 56 35.796875 56 Q 45.21875 56 50.046875 50.171875 Q 54.890625 44.34375 54.890625 33.015625 z"/><path id="DejaVuSans-99" d="M 48.78125 52.59375 L 48.78125 44.1875 Q 44.96875 46.296875 41.140625 47.34375 Q 37.3125 48.390625 33.40625 48.390625 Q 24.65625 48.390625 19.8125 42.84375 Q 14.984375 37.3125 14.984375 27.296875 Q 14.984375 17.28125 19.8125 11.734375 Q 24.65625 6.203125 33.40625 6.203125 Q 37.3125 6.203125 41.140625 7.25 Q 44.96875 8.296875 48.78125 10.40625 L 48.78125 2.09375 Q 45.015625 0.34375 40.984375 -0.53125 Q 36.96875 -1.421875 32.421875 -1.421875 Q 20.0625 -1.421875 12.78125 6.34375 Q 5.515625 14.109375 5.515625 27.296875 Q 5.515625 40.671875 12.859375 48.328125 Q 20.21875 56 33.015625 56 Q 37.15625 56 41.109375 55.140625 Q 45.0625 54.296875 48.78125 52.59375 z"/><path id="DejaVuSans-105" d="M 9.421875 54.6875 L 18.40625 54.6875 L 18.40625 0 L 9.421875 0 z M 9.421875 75.984375 L 18.40625 75.984375 L 18.40625 64.59375 L 9.421875 64.59375 z"/><path id="DejaVuSans-45" d="M 4.890625 31.390625 L 31.203125 31.390625 L 31.203125 23.390625 L 4.890625 23.390625 z"/><path id="DejaVuSans-121" d="M 32.171875 -5.078125 Q 28.375 -14.84375 24.75 -17.8125 Q 21.140625 -20.796875 15.09375 -20.796875 L 7.90625 -20.796875 L 7.90625 -13.28125 L 13.1875 -13.28125 Q 16.890625 -13.28125 18.9375 -11.515625 Q 21 -9.765625 23.484375 -3.21875 L 25.09375 0.875 L 2.984375 54.6875 L 12.5 54.6875 L 29.59375 11.921875 L 46.6875 54.6875 L 56.203125 54.6875 z"/><path id="DejaVuSans-107" d="M 9.078125 75.984375 L 18.109375 75.984375 L 18.109375 31.109375 L 44.921875 54.6875 L 56.390625 54.6875 L 27.390625 29.109375 L 57.625 0 L 45.90625 0 L 18.109375 26.703125 L 18.109375 0 L 9.078125 0 z"/></defs><g transform="translate(616.752656 87.312)scale(0.21 -0.21)"><use xlink:href="#DejaVuSans-82"/><use x="69.42" xlink:href="#DejaVuSans-101"/><use x="130.943" xlink:href="#DejaVuSans-102"/><use x="166.148" xlink:href="#DejaVuSans-101"/><use x="227.672" xlink:href="#DejaVuSans-114"/><use x="268.754" xlink:href="#DejaVuSans-101"/><use x="330.277" xlink:href="#DejaVuSans-110"/><use x="393.656" xlink:href="#DejaVuSans-99"/><use x="448.637" xlink:href="#DejaVuSans-105"/><use x="476.42" xlink:href="#DejaVuSans-97"/><use x="537.699" xlink:href="#DejaVuSans-32"/><use x="569.486" xlink:href="#DejaVuSans-45"/><use x="605.57" xlink:href="#DejaVuSans-32"/><use x="637.357" xlink:href="#DejaVuSans-121"/><use x="696.537" xlink:href="#DejaVuSans-114"/><use x="737.65" xlink:href="#DejaVuSans-40"/><use x="776.664" xlink:href="#DejaVuSans-107"/><use x="834.574" xlink:href="#DejaVuSans-41"/></g></g></g><g id="axes_2"><g id="patch_7"><path fill="#fff" d="M 172.8 374.358857 L 1244.16 374.358857 L 1244.16 252.164571 L 172.8 252.164571 z"/></g><g id="matplotlib.axis_3"><g id="xtick_10"><g id="line2d_32"><path fill="none" stroke="gray" stroke-linecap="square" stroke-width=".8" d="M 221.498182 374.358857 L 221.498182 252.164571" clip-path="url(#pf4c2dc6700)"/></g><g id="line2d_33"><g><use x="221.498" y="374.359" stroke="#000" stroke-width=".8" xlink:href="#meff5bd4baf"/></g></g></g><g id="xtick_11"><g id="line2d_34"><path fill="none" stroke="gray" stroke-linecap="square" stroke-width=".8" d="M 343.548763 374.358857 L 343.548763 252.164571" clip-path="url(#pf4c2dc6700)"/></g><g id="line2d_35"><g><use x="343.549" y="374.359" stroke="#000" stroke-width=".8" xlink:href="#meff5bd4baf"/></g></g></g><g id="xtick_12"><g id="line2d_36"><path fill="none" stroke="gray" stroke-linecap="square" stroke-width=".8" d="M 465.599344 374.358857 L 465.599344 252.164571" clip-path="url(#pf4c2dc6700)"/></g><g id="line2d_37"><g><use x="465.599" y="374.359" stroke="#000" stroke-width=".8" xlink:href="#meff5bd4baf"/></g></g></g><g id="xtick_13"><g id="line2d_38"><path fill="none" stroke="gray" stroke-linecap="square" stroke-width=".8" d="M 587.649925 374.358857 L 587.649925 252.164571" clip-path="url(#pf4c2dc6700)"/></g><g id="line2d_39"><g><use x="587.65" y="374.359" stroke="#000" stroke-width=".8" xlink:href="#meff5bd4baf"/></g></g></g><g id="xtick_14"><g id="line2d_40"><path fill="none" stroke="gray" stroke-linecap="square" stroke-width=".8" d="M 709.700506 374.358857 L 709.700506 252.164571" clip-path="url(#pf4c2dc6700)"/></g><g id="line2d_41"><g><use x="709.701" y="374.359" stroke="#000" stroke-width=".8" xlink:href="#meff5bd4baf"/></g></g></g><g id="xtick_15"><g id="line2d_42"><path fill="none" stroke="gray" stroke-linecap="square" stroke-width=".8" d="M 831.751087 374.358857 L 831.751087 252.164571" clip-path="url(#pf4c2dc6700)"/></g><g id="line2d_43"><g><use x="831.751" y="374.359" stroke="#000" stroke-width=".8" xlink:href="#meff5bd4baf"/></g></g></g><g id="xtick_16"><g id="line2d_44"><path fill="none" stroke="gray" stroke-linecap="square" stroke-width=".8" d="M 953.801668 374.358857 L 953.801668 252.164571" clip-path="url(#pf4c2dc6700)"/></g><g id="line2d_45"><g><use x="953.802" y="374.359" stroke="#000" stroke-width=".8" xlink:href="#meff5bd4baf"/></g></g></g><g id="xtick_17"><g id="line2d_46"><path fill="none" stroke="gray" stroke-linecap="square" stroke-width=".8" d="M 1075.852249 374.358857 L 1075.852249 252.164571" clip-path="url(#pf4c2dc6700)"/></g><g id="line2d_47"><g><use x="1075.852" y="374.359" stroke="#000" stroke-width=".8" xlink:href="#meff5bd4baf"/></g></g></g><g id="xtick_18"><g id="line2d_48"><path fill="none" stroke="gray" stroke-linecap="square" stroke-width=".8" d="M 1197.90283 374.358857 L 1197.90283 252.164571" clip-path="url(#pf4c2dc6700)"/></g><g id="line2d_49"><g><use x="1197.903" y="374.359" stroke="#000" stroke-width=".8" xlink:href="#meff5bd4baf"/></g></g></g></g><g id="matplotlib.axis_4"><g id="ytick_7"><g id="line2d_50"><path fill="none" stroke="gray" stroke-linecap="square" stroke-width=".8" d="M 172.8 364.176 L 1244.16 364.176" clip-path="url(#pf4c2dc6700)"/></g><g id="line2d_51"><g><use x="172.8" y="364.176" stroke="#000" stroke-width=".8" xlink:href="#m572c5169aa"/></g></g><g id="text_9"><g transform="translate(159.4375 367.975219)scale(0.1 -0.1)"><use xlink:href="#DejaVuSans-48"/></g></g></g><g id="ytick_8"><g id="line2d_52"><path fill="none" stroke="gray" stroke-linecap="square" stroke-width=".8" d="M 172.8 343.810286 L 1244.16 343.810286" clip-path="url(#pf4c2dc6700)"/></g><g id="line2d_53"><g><use x="172.8" y="343.81" stroke="#000" stroke-width=".8" xlink:href="#m572c5169aa"/></g></g><g id="text_10"><g transform="translate(159.4375 347.609504)scale(0.1 -0.1)"><use xlink:href="#DejaVuSans-49"/></g></g></g><g id="ytick_9"><g id="line2d_54"><path fill="none" stroke="gray" stroke-linecap="square" stroke-width=".8" d="M 172.8 323.444571 L 1244.16 323.444571" clip-path="url(#pf4c2dc6700)"/></g><g id="line2d_55"><g><use x="172.8" y="323.445" stroke="#000" stroke-width=".8" xlink:href="#m572c5169aa"/></g></g><g id="text_11"><g transform="translate(159.4375 327.24379)scale(0.1 -0.1)"><use xlink:href="#DejaVuSans-50"/></g></g></g><g id="ytick_10"><g id="line2d_56"><path fill="none" stroke="gray" stroke-linecap="square" stroke-width=".8" d="M 172.8 303.078857 L 1244.16 303.078857" clip-path="url(#pf4c2dc6700)"/></g><g id="line2d_57"><g><use x="172.8" y="303.079" stroke="#000" stroke-width=".8" xlink:href="#m572c5169aa"/></g></g><g id="text_12"><g transform="translate(159.4375 306.878076)scale(0.1 -0.1)"><use xlink:href="#DejaVuSans-51"/></g></g></g><g id="ytick_11"><g id="line2d_58"><path fill="none" stroke="gray" stroke-linecap="square" stroke-width=".8" d="M 172.8 282.713143 L 1244.16 282.713143" clip-path="url(#pf4c2dc6700)"/></g><g id="line2d_59"><g><use x="172.8" y="282.713" stroke="#000" stroke-width=".8" xlink:href="#m572c5169aa"/></g></g><g id="text_13"><g transform="translate(159.4375 286.512362)scale(0.1 -0.1)"><use xlink:href="#DejaVuSans-52"/></g></g></g><g id="ytick_12"><g id="line2d_60"><path fill="none" stroke="gray" stroke-linecap="square" stroke-width=".8" d="M 172.8 262.347429 L 1244.16 262.347429" clip-path="url(#pf4c2dc6700)"/></g><g id="line2d_61"><g><use x="172.8" y="262.347" stroke="#000" stroke-width=".8" xlink:href="#m572c5169aa"/></g></g><g id="text_14"><g transform="translate(159.4375 266.146647)scale(0.1 -0.1)"><use xlink:href="#DejaVuSans-53"/></g></g></g><g id="text_15"><g transform="translate(152.11 365.932964)rotate(-90)scale(0.16 -0.16)"><use xlink:href="#DejaVuSans-86"/><use x="68.299" xlink:href="#DejaVuSans-111"/><use x="129.48" xlink:href="#DejaVuSans-108"/><use x="157.264" xlink:href="#DejaVuSans-116"/><use x="196.473" xlink:href="#DejaVuSans-97"/><use x="257.752" xlink:href="#DejaVuSans-103"/><use x="321.229" xlink:href="#DejaVuSans-101"/><use x="382.752" xlink:href="#DejaVuSans-109"/><use x="480.164" xlink:href="#DejaVuSans-32"/><use x="511.951" xlink:href="#DejaVuSans-40"/><use x="550.965" xlink:href="#DejaVuSans-86"/><use x="619.373" xlink:href="#DejaVuSans-41"/></g></g></g><g id="line2d_62"><path fill="none" stroke="green" stroke-dasharray="14.8 6.4" stroke-dashoffset="0" stroke-width="4" d="M 221.498182 364.176 L 341.107751 364.176 L 343.548763 262.347429 L 345.989774 262.347429 L 348.430786 364.176 L 350.871798 311.324548 L 353.312809 302.745113 L 355.753821 311.963924 L 358.194833 306.076887 L 360.635844 307.168137 L 363.076856 307.191261 L 365.517867 305.995774 L 367.958879 307.0941 L 370.399891 308.519655 L 372.840902 305.714771 L 375.281914 307.871716 L 377.722925 306.731954 L 380.163937 308.511981 L 382.604949 306.910585 L 385.04596 307.598209 L 387.486972 305.488941 L 389.927984 307.969981 L 392.368995 307.930013 L 394.810007 306.630139 L 397.251018 306.07663 L 399.69203 308.704195 L 402.133042 305.718682 L 404.574053 307.088228 L 407.015065 308.107124 L 409.456077 306.221486 L 411.897088 306.583426 L 414.3381 309.80786 L 416.779111 304.659651 L 419.220123 310.478348 L 421.661135 302.921185 L 424.102146 309.24533 L 426.543158 307.338531 L 428.98417 305.895844 L 431.425181 307.463147 L 433.866193 307.197512 L 436.307204 308.016695 L 438.748216 305.807164 L 441.189228 307.461268 L 443.630239 308.434689 L 446.071251 306.908948 L 448.512262 305.989792 L 450.953274 310.310738 L 453.394286 305.350827 L 455.835297 306.668028 L 458.276309 307.788865 L 460.717321 306.317793 L 463.158332 307.369038 L 465.599344 364.176 L 475.36339 364.176 L 477.804402 355.416706 L 480.245414 364.176 L 482.686425 362.867258 L 485.127437 364.148268 L 497.332495 364.176 L 585.208913 364.176 L 587.649925 262.347429 L 590.090936 262.347429 L 592.531948 330.955854 L 594.97296 262.347429 L 597.413971 312.00904 L 599.854983 271.640541 L 602.295995 295.39166 L 604.737006 276.730484 L 607.178018 280.890293 L 609.619029 283.164292 L 612.060041 283.02719 L 614.501053 280.116876 L 616.942064 281.951926 L 619.383076 283.300347 L 621.824087 280.906235 L 624.265099 281.360451 L 626.706111 282.194888 L 629.147122 282.006468 L 631.588134 281.177664 L 634.029146 282.60342 L 638.911169 281.175664 L 641.35218 284.21176 L 643.793192 279.935876 L 646.234204 282.360497 L 648.675215 282.793548 L 651.116227 280.998546 L 653.557239 280.950002 L 655.99825 284.681194 L 658.439262 279.853078 L 660.880273 281.946337 L 663.321285 283.712634 L 665.762297 279.203539 L 668.203308 284.943033 L 670.64432 281.054603 L 673.085332 282.497762 L 675.526343 281.49743 L 677.967355 282.09474 L 680.408366 282.004346 L 682.849378 282.414836 L 685.29039 282.691649 L 687.731401 280.996387 L 690.172413 281.774767 L 692.613424 282.884187 L 695.054436 281.412873 L 697.495448 281.680542 L 699.936459 284.119408 L 702.377471 280.71749 L 704.818483 283.37724 L 707.259494 281.732676 L 709.700506 364.176 L 717.023541 364.176 L 719.464552 336.374987 L 721.905564 364.176 L 724.346576 337.39201 L 726.787587 364.176 L 729.228599 329.739695 L 731.66961 364.176 L 734.110622 350.384135 L 736.551634 332.478129 L 738.992645 364.176 L 741.433657 345.847326 L 743.874668 348.990987 L 746.31568 347.561984 L 748.756692 349.840829 L 751.197703 343.012451 L 753.638715 356.981544 L 756.079727 331.18412 L 758.520738 364.176 L 760.96175 340.309929 L 763.402761 364.176 L 765.843773 322.265539 L 768.284785 364.176 L 770.725796 364.176 L 773.166808 312.894663 L 775.60782 364.176 L 778.048831 364.176 L 780.489843 340.394752 L 782.930854 362.391744 L 785.371866 327.67059 L 787.812878 364.176 L 790.253889 353.631631 L 792.694901 335.052659 L 795.135913 364.176 L 797.576924 337.79291 L 800.017936 364.176 L 802.458947 326.523725 L 804.899959 364.176 L 807.340971 356.05511 L 809.781982 321.288869 L 812.222994 364.176 L 814.664005 364.176 L 817.105017 325.514624 L 819.546029 364.176 L 821.98704 352.220633 L 824.428052 341.054392 L 826.869064 364.176 L 829.310075 317.614967 L 831.751087 341.882761 L 834.192098 341.677048 L 836.63311 329.661723 L 839.074122 347.943361 L 841.515133 323.454314 L 843.956145 357.98729 L 846.397157 312.584835 L 848.838168 364.176 L 851.27918 335.401425 L 853.720191 335.467833 L 856.161203 343.9638 L 858.602215 325.163656 L 861.043226 358.13707 L 863.484238 311.288982 L 865.925249 364.176 L 868.366261 334.803936 L 870.807273 335.764528 L 873.248284 342.258654 L 875.689296 330.808214 L 878.130308 348.483315 L 880.571319 325.280442 L 883.012331 358.758255 L 885.453342 314.725214 L 887.894354 364.176 L 890.335366 321.089256 L 892.776377 364.176 L 895.217389 320.285462 L 897.658401 362.590937 L 900.099412 314.580105 L 902.540424 364.176 L 904.981435 326.142519 L 907.422447 353.127562 L 909.863459 317.533533 L 912.30447 364.176 L 914.745482 325.121118 L 917.186494 360.559852 L 919.627505 311.938808 L 922.068517 364.176 L 924.509528 336.205219 L 926.95054 333.092913 L 929.391552 345.29474 L 931.832563 327.016851 L 934.273575 353.671056 L 936.714586 319.823443 L 939.155598 364.176 L 941.59661 321.707763 L 944.037621 363.714002 L 946.478633 312.284268 L 948.919645 364.176 L 951.360656 336.793197 L 953.801668 364.176 L 958.683691 364.176 L 961.124703 354.303761 L 963.565714 364.176 L 966.006726 363.671052 L 968.447738 364.1653 L 995.298865 364.176 L 1073.411237 364.176 L 1075.852249 262.347429 L 1078.29326 330.397426 L 1080.734272 364.176 L 1083.175284 294.385508 L 1085.616295 359.430235 L 1088.057307 318.666941 L 1090.498319 325.985785 L 1092.93933 325.109959 L 1095.380342 323.689119 L 1097.821353 325.298125 L 1102.703377 323.874335 L 1105.144388 324.889644 L 1107.5854 324.705058 L 1110.026411 323.092764 L 1112.467423 325.481284 L 1114.908435 326.635332 L 1117.349446 321.020337 L 1119.790458 329.056031 L 1122.23147 321.865711 L 1124.672481 327.950287 L 1127.113493 320.852405 L 1129.554504 329.423638 L 1131.995516 320.955944 L 1134.436528 326.116322 L 1136.877539 324.947661 L 1139.318551 326.211619 L 1141.759563 321.114409 L 1144.200574 331.078813 L 1146.641586 316.166074 L 1149.082597 331.983853 L 1151.523609 320.597992 L 1153.964621 327.345954 L 1156.405632 322.231371 L 1158.846644 329.566418 L 1161.287656 320.855919 L 1163.728667 324.918226 L 1166.169679 326.00469 L 1168.61069 326.038221 L 1171.051702 320.285923 L 1173.492714 332.463335 L 1175.933725 316.308971 L 1178.374737 334.275783 L 1180.815748 315.636124 L 1183.25676 336.385364 L 1185.697772 312.330279 L 1188.138783 336.613956 L 1190.579795 316.067344 L 1193.020807 331.373559 L 1195.461818 321.512922 L 1195.461818 321.512922" clip-path="url(#pf4c2dc6700)"/></g><g id="patch_8"><path fill="none" stroke="#000" stroke-linecap="square" stroke-linejoin="miter" stroke-width=".8" d="M 172.8 374.358857 L 172.8 252.164571"/></g><g id="patch_9"><path fill="none" stroke="#000" stroke-linecap="square" stroke-linejoin="miter" stroke-width=".8" d="M 1244.16 374.358857 L 1244.16 252.164571"/></g><g id="patch_10"><path fill="none" stroke="#000" stroke-linecap="square" stroke-linejoin="miter" stroke-width=".8" d="M 172.8 374.358857 L 1244.16 374.358857"/></g><g id="patch_11"><path fill="none" stroke="#000" stroke-linecap="square" stroke-linejoin="miter" stroke-width=".8" d="M 172.8 252.164571 L 1244.16 252.164571"/></g><g id="text_16"><defs><path id="DejaVuSans-83" d="M 53.515625 70.515625 L 53.515625 60.890625 Q 47.90625 63.578125 42.921875 64.890625 Q 37.9375 66.21875 33.296875 66.21875 Q 25.25 66.21875 20.875 63.09375 Q 16.5 59.96875 16.5 54.203125 Q 16.5 49.359375 19.40625 46.890625 Q 22.3125 44.4375 30.421875 42.921875 L 36.375 41.703125 Q 47.40625 39.59375 52.65625 34.296875 Q 57.90625 29 57.90625 20.125 Q 57.90625 9.515625 50.796875 4.046875 Q 43.703125 -1.421875 29.984375 -1.421875 Q 24.8125 -1.421875 18.96875 -0.25 Q 13.140625 0.921875 6.890625 3.21875 L 6.890625 13.375 Q 12.890625 10.015625 18.65625 8.296875 Q 24.421875 6.59375 29.984375 6.59375 Q 38.421875 6.59375 43.015625 9.90625 Q 47.609375 13.234375 47.609375 19.390625 Q 47.609375 24.75 44.3125 27.78125 Q 41.015625 30.8125 33.5 32.328125 L 27.484375 33.5 Q 16.453125 35.6875 11.515625 40.375 Q 6.59375 45.0625 6.59375 53.421875 Q 6.59375 63.09375 13.40625 68.65625 Q 20.21875 74.21875 32.171875 74.21875 Q 37.3125 74.21875 42.625 73.28125 Q 47.953125 72.359375 53.515625 70.515625 z"/><path id="DejaVuSans-237" d="M 20.65625 79.984375 L 30.375 79.984375 L 14.46875 61.625 L 6.984375 61.625 z M 9.421875 54.6875 L 18.40625 54.6875 L 18.40625 0 L 9.421875 0 z M 13.921875 56 z"/><path id="DejaVuSans-100" d="M 45.40625 46.390625 L 45.40625 75.984375 L 54.390625 75.984375 L 54.390625 0 L 45.40625 0 L 45.40625 8.203125 Q 42.578125 3.328125 38.25 0.953125 Q 33.9375 -1.421875 27.875 -1.421875 Q 17.96875 -1.421875 11.734375 6.484375 Q 5.515625 14.40625 5.515625 27.296875 Q 5.515625 40.1875 11.734375 48.09375 Q 17.96875 56 27.875 56 Q 33.9375 56 38.25 53.625 Q 42.578125 51.265625 45.40625 46.390625 z M 14.796875 27.296875 Q 14.796875 17.390625 18.875 11.75 Q 22.953125 6.109375 30.078125 6.109375 Q 37.203125 6.109375 41.296875 11.75 Q 45.40625 17.390625 45.40625 27.296875 Q 45.40625 37.203125 41.296875 42.84375 Q 37.203125 48.484375 30.078125 48.484375 Q 22.953125 48.484375 18.875 42.84375 Q 14.796875 37.203125 14.796875 27.296875 z"/><path id="DejaVuSans-117" d="M 8.5 21.578125 L 8.5 54.6875 L 17.484375 54.6875 L 17.484375 21.921875 Q 17.484375 14.15625 20.5 10.265625 Q 23.53125 6.390625 29.59375 6.390625 Q 36.859375 6.390625 41.078125 11.03125 Q 45.3125 15.671875 45.3125 23.6875 L 45.3125 54.6875 L 54.296875 54.6875 L 54.296875 0 L 45.3125 0 L 45.3125 8.40625 Q 42.046875 3.421875 37.71875 1 Q 33.40625 -1.421875 27.6875 -1.421875 Q 18.265625 -1.421875 13.375 4.4375 Q 8.5 10.296875 8.5 21.578125 z M 31.109375 56 z"/></defs><g transform="translate(584.169844 246.164571)scale(0.21 -0.21)"><use xlink:href="#DejaVuSans-83"/><use x="63.477" xlink:href="#DejaVuSans-97"/><use x="124.756" xlink:href="#DejaVuSans-237"/><use x="152.539" xlink:href="#DejaVuSans-100"/><use x="216.016" xlink:href="#DejaVuSans-97"/><use x="277.295" xlink:href="#DejaVuSans-32"/><use x="309.082" xlink:href="#DejaVuSans-99"/><use x="364.063" xlink:href="#DejaVuSans-111"/><use x="425.244" xlink:href="#DejaVuSans-110"/><use x="488.623" xlink:href="#DejaVuSans-116"/><use x="527.832" xlink:href="#DejaVuSans-114"/><use x="568.914" xlink:href="#DejaVuSans-111"/><use x="630.096" xlink:href="#DejaVuSans-108"/><use x="657.879" xlink:href="#DejaVuSans-97"/><use x="719.158" xlink:href="#DejaVuSans-100"/><use x="782.635" xlink:href="#DejaVuSans-111"/><use x="843.816" xlink:href="#DejaVuSans-114"/><use x="884.93" xlink:href="#DejaVuSans-32"/><use x="916.717" xlink:href="#DejaVuSans-45"/><use x="952.801" xlink:href="#DejaVuSans-32"/><use x="984.588" xlink:href="#DejaVuSans-117"/><use x="1047.967" xlink:href="#DejaVuSans-40"/><use x="1086.98" xlink:href="#DejaVuSans-107"/><use x="1144.891" xlink:href="#DejaVuSans-41"/></g></g></g><g id="axes_3"><g id="patch_12"><path fill="#fff" d="M 172.8 533.211429 L 1244.16 533.211429 L 1244.16 411.017143 L 172.8 411.017143 z"/></g><g id="matplotlib.axis_5"><g id="xtick_19"><g id="line2d_63"><path fill="none" stroke="gray" stroke-linecap="square" stroke-width=".8" d="M 221.498182 533.211429 L 221.498182 411.017143" clip-path="url(#p903993743c)"/></g><g id="line2d_64"><g><use x="221.498" y="533.211" stroke="#000" stroke-width=".8" xlink:href="#meff5bd4baf"/></g></g></g><g id="xtick_20"><g id="line2d_65"><path fill="none" stroke="gray" stroke-linecap="square" stroke-width=".8" d="M 343.548763 533.211429 L 343.548763 411.017143" clip-path="url(#p903993743c)"/></g><g id="line2d_66"><g><use x="343.549" y="533.211" stroke="#000" stroke-width=".8" xlink:href="#meff5bd4baf"/></g></g></g><g id="xtick_21"><g id="line2d_67"><path fill="none" stroke="gray" stroke-linecap="square" stroke-width=".8" d="M 465.599344 533.211429 L 465.599344 411.017143" clip-path="url(#p903993743c)"/></g><g id="line2d_68"><g><use x="465.599" y="533.211" stroke="#000" stroke-width=".8" xlink:href="#meff5bd4baf"/></g></g></g><g id="xtick_22"><g id="line2d_69"><path fill="none" stroke="gray" stroke-linecap="square" stroke-width=".8" d="M 587.649925 533.211429 L 587.649925 411.017143" clip-path="url(#p903993743c)"/></g><g id="line2d_70"><g><use x="587.65" y="533.211" stroke="#000" stroke-width=".8" xlink:href="#meff5bd4baf"/></g></g></g><g id="xtick_23"><g id="line2d_71"><path fill="none" stroke="gray" stroke-linecap="square" stroke-width=".8" d="M 709.700506 533.211429 L 709.700506 411.017143" clip-path="url(#p903993743c)"/></g><g id="line2d_72"><g><use x="709.701" y="533.211" stroke="#000" stroke-width=".8" xlink:href="#meff5bd4baf"/></g></g></g><g id="xtick_24"><g id="line2d_73"><path fill="none" stroke="gray" stroke-linecap="square" stroke-width=".8" d="M 831.751087 533.211429 L 831.751087 411.017143" clip-path="url(#p903993743c)"/></g><g id="line2d_74"><g><use x="831.751" y="533.211" stroke="#000" stroke-width=".8" xlink:href="#meff5bd4baf"/></g></g></g><g id="xtick_25"><g id="line2d_75"><path fill="none" stroke="gray" stroke-linecap="square" stroke-width=".8" d="M 953.801668 533.211429 L 953.801668 411.017143" clip-path="url(#p903993743c)"/></g><g id="line2d_76"><g><use x="953.802" y="533.211" stroke="#000" stroke-width=".8" xlink:href="#meff5bd4baf"/></g></g></g><g id="xtick_26"><g id="line2d_77"><path fill="none" stroke="gray" stroke-linecap="square" stroke-width=".8" d="M 1075.852249 533.211429 L 1075.852249 411.017143" clip-path="url(#p903993743c)"/></g><g id="line2d_78"><g><use x="1075.852" y="533.211" stroke="#000" stroke-width=".8" xlink:href="#meff5bd4baf"/></g></g></g><g id="xtick_27"><g id="line2d_79"><path fill="none" stroke="gray" stroke-linecap="square" stroke-width=".8" d="M 1197.90283 533.211429 L 1197.90283 411.017143" clip-path="url(#p903993743c)"/></g><g id="line2d_80"><g><use x="1197.903" y="533.211" stroke="#000" stroke-width=".8" xlink:href="#meff5bd4baf"/></g></g></g></g><g id="matplotlib.axis_6"><g id="ytick_13"><g id="line2d_81"><path fill="none" stroke="gray" stroke-linecap="square" stroke-width=".8" d="M 172.8 523.028571 L 1244.16 523.028571" clip-path="url(#p903993743c)"/></g><g id="line2d_82"><g><use x="172.8" y="523.029" stroke="#000" stroke-width=".8" xlink:href="#m572c5169aa"/></g></g><g id="text_17"><g transform="translate(159.4375 526.82779)scale(0.1 -0.1)"><use xlink:href="#DejaVuSans-48"/></g></g></g><g id="ytick_14"><g id="line2d_83"><path fill="none" stroke="gray" stroke-linecap="square" stroke-width=".8" d="M 172.8 502.662857 L 1244.16 502.662857" clip-path="url(#p903993743c)"/></g><g id="line2d_84"><g><use x="172.8" y="502.663" stroke="#000" stroke-width=".8" xlink:href="#m572c5169aa"/></g></g><g id="text_18"><g transform="translate(159.4375 506.462076)scale(0.1 -0.1)"><use xlink:href="#DejaVuSans-49"/></g></g></g><g id="ytick_15"><g id="line2d_85"><path fill="none" stroke="gray" stroke-linecap="square" stroke-width=".8" d="M 172.8 482.297143 L 1244.16 482.297143" clip-path="url(#p903993743c)"/></g><g id="line2d_86"><g><use x="172.8" y="482.297" stroke="#000" stroke-width=".8" xlink:href="#m572c5169aa"/></g></g><g id="text_19"><g transform="translate(159.4375 486.096362)scale(0.1 -0.1)"><use xlink:href="#DejaVuSans-50"/></g></g></g><g id="ytick_16"><g id="line2d_87"><path fill="none" stroke="gray" stroke-linecap="square" stroke-width=".8" d="M 172.8 461.931429 L 1244.16 461.931429" clip-path="url(#p903993743c)"/></g><g id="line2d_88"><g><use x="172.8" y="461.931" stroke="#000" stroke-width=".8" xlink:href="#m572c5169aa"/></g></g><g id="text_20"><g transform="translate(159.4375 465.730647)scale(0.1 -0.1)"><use xlink:href="#DejaVuSans-51"/></g></g></g><g id="ytick_17"><g id="line2d_89"><path fill="none" stroke="gray" stroke-linecap="square" stroke-width=".8" d="M 172.8 441.565714 L 1244.16 441.565714" clip-path="url(#p903993743c)"/></g><g id="line2d_90"><g><use x="172.8" y="441.566" stroke="#000" stroke-width=".8" xlink:href="#m572c5169aa"/></g></g><g id="text_21"><g transform="translate(159.4375 445.364933)scale(0.1 -0.1)"><use xlink:href="#DejaVuSans-52"/></g></g></g><g id="ytick_18"><g id="line2d_91"><path fill="none" stroke="gray" stroke-linecap="square" stroke-width=".8" d="M 172.8 421.2 L 1244.16 421.2" clip-path="url(#p903993743c)"/></g><g id="line2d_92"><g><use x="172.8" y="421.2" stroke="#000" stroke-width=".8" xlink:href="#m572c5169aa"/></g></g><g id="text_22"><g transform="translate(159.4375 424.999219)scale(0.1 -0.1)"><use xlink:href="#DejaVuSans-53"/></g></g></g><g id="text_23"><g transform="translate(152.11 524.785536)rotate(-90)scale(0.16 -0.16)"><use xlink:href="#DejaVuSans-86"/><use x="68.299" xlink:href="#DejaVuSans-111"/><use x="129.48" xlink:href="#DejaVuSans-108"/><use x="157.264" xlink:href="#DejaVuSans-116"/><use x="196.473" xlink:href="#DejaVuSans-97"/><use x="257.752" xlink:href="#DejaVuSans-103"/><use x="321.229" xlink:href="#DejaVuSans-101"/><use x="382.752" xlink:href="#DejaVuSans-109"/><use x="480.164" xlink:href="#DejaVuSans-32"/><use x="511.951" xlink:href="#DejaVuSans-40"/><use x="550.965" xlink:href="#DejaVuSans-86"/><use x="619.373" xlink:href="#DejaVuSans-41"/></g></g></g><g id="line2d_93"><path fill="none" stroke="red" stroke-linecap="square" stroke-width="4" d="M 221.498182 523.028571 L 343.548763 523.028571 L 345.989774 490.677634 L 348.430786 444.885326 L 350.871798 455.444949 L 353.312809 459.925406 L 355.753821 458.723829 L 358.194833 459.925406 L 363.076856 459.925406 L 365.517867 460.220709 L 367.958879 460.017051 L 370.399891 459.61992 L 372.840902 460.220709 L 375.281914 459.823577 L 377.722925 460.017051 L 380.163937 459.61992 L 382.604949 459.925406 L 385.04596 459.823577 L 387.486972 460.322537 L 389.927984 459.823577 L 392.368995 459.721749 L 397.251018 460.220709 L 399.69203 459.61992 L 402.133042 460.220709 L 407.015065 459.721749 L 409.456077 460.11888 L 411.897088 460.11888 L 414.3381 459.324617 L 416.779111 460.414183 L 419.220123 459.222789 L 421.661135 460.821497 L 424.102146 459.61992 L 426.543158 459.823577 L 428.98417 460.220709 L 431.425181 459.925406 L 433.866193 459.925406 L 436.307204 459.721749 L 438.748216 460.220709 L 443.630239 459.61992 L 448.512262 460.220709 L 450.953274 459.222789 L 453.394286 460.220709 L 455.835297 460.11888 L 458.276309 459.823577 L 460.717321 460.11888 L 463.158332 459.925406 L 465.599344 459.925406 L 468.040355 472.562331 L 470.481367 487.694057 L 472.922379 503.721874 L 475.36339 514.373143 L 477.804402 523.028571 L 480.245414 521.735349 L 482.686425 523.028571 L 587.649925 523.028571 L 590.090936 478.9368 L 592.531948 443.2968 L 594.97296 451.860583 L 597.413971 441.209314 L 599.854983 448.775177 L 602.295995 444.590023 L 604.737006 448.276217 L 607.178018 448.07256 L 609.619029 447.481954 L 612.060041 447.380126 L 614.501053 448.07256 L 619.383076 447.380126 L 621.824087 447.879086 L 624.265099 447.879086 L 626.706111 447.675429 L 629.147122 447.675429 L 631.588134 447.879086 L 634.029146 447.5736 L 638.911169 447.879086 L 641.35218 447.176469 L 643.793192 448.07256 L 646.234204 447.675429 L 648.675215 447.481954 L 651.116227 447.879086 L 653.557239 447.980914 L 655.99825 447.084823 L 658.439262 448.07256 L 660.880273 447.777257 L 663.321285 447.278297 L 665.762297 448.276217 L 668.203308 447.084823 L 670.64432 447.777257 L 673.085332 447.5736 L 675.526343 447.777257 L 682.849378 447.5736 L 685.29039 447.481954 L 687.731401 447.879086 L 690.172413 447.777257 L 692.613424 447.481954 L 695.054436 447.777257 L 697.495448 447.777257 L 699.936459 447.176469 L 702.377471 447.879086 L 704.818483 447.380126 L 709.700506 447.980914 L 712.141517 462.012891 L 714.582529 477.43992 L 717.023541 491.777383 L 719.464552 506.80728 L 721.905564 499.139589 L 724.346576 508.395806 L 726.787587 503.518217 L 729.228599 511.379383 L 731.66961 496.451314 L 734.110622 504.516137 L 736.551634 510.880423 L 738.992645 497.143749 L 741.433657 505.80936 L 743.874668 507.102583 L 746.31568 507.795017 L 748.756692 507.397886 L 751.197703 508.996594 L 753.638715 505.911189 L 756.079727 511.58304 L 758.520738 498.844286 L 760.96175 507.601543 L 763.402761 502.123166 L 765.843773 512.876263 L 768.284785 492.76512 L 770.725796 500.03568 L 773.166808 514.668446 L 775.60782 486.299006 L 778.048831 494.160171 L 780.489843 506.410149 L 782.930854 503.915349 L 785.371866 511.980171 L 787.812878 496.848446 L 790.253889 503.81352 L 792.694901 510.08616 L 795.135913 501.53256 L 797.576924 508.894766 L 800.017936 501.929691 L 802.458947 511.776514 L 804.899959 495.657051 L 807.340971 502.917429 L 809.781982 513.273394 L 812.222994 490.48416 L 814.664005 499.343246 L 817.105017 511.379383 L 819.546029 493.864869 L 821.98704 503.416389 L 824.428052 508.497634 L 826.869064 503.518217 L 829.310075 514.373143 L 831.751087 490.48416 L 834.192098 489.781543 L 836.63311 492.571646 L 839.074122 488.691977 L 841.515133 493.864869 L 843.956145 486.502663 L 846.397157 496.054183 L 848.838168 480.230023 L 851.27918 488.885451 L 853.720191 490.881291 L 856.161203 489.282583 L 858.602215 493.569566 L 861.043226 486.400834 L 863.484238 496.349486 L 865.925249 479.232103 L 868.366261 488.783623 L 870.807273 490.779463 L 873.248284 489.679714 L 875.689296 492.26616 L 878.130308 488.48832 L 880.571319 493.365909 L 883.012331 486.197177 L 885.453342 495.453394 L 887.894354 483.610731 L 890.335366 493.26408 L 892.776377 482.816469 L 895.217389 493.26408 L 897.658401 485.199257 L 900.099412 495.25992 L 902.540424 481.024286 L 904.981435 491.370069 L 907.422447 487.093269 L 909.863459 494.954434 L 912.30447 482.419337 L 914.745482 491.970857 L 917.186494 485.402914 L 919.627505 495.952354 L 922.068517 481.024286 L 924.509528 488.885451 L 926.95054 491.471897 L 929.391552 489.089109 L 931.832563 493.070606 L 934.273575 487.388571 L 936.714586 494.465657 L 939.155598 483.814389 L 941.59661 493.162251 L 944.037621 484.903954 L 946.478633 495.75888 L 948.919645 480.423497 L 951.360656 488.590149 L 953.801668 491.675554 L 956.242679 503.019257 L 958.683691 513.273394 L 961.124703 523.028571 L 963.565714 522.529611 L 966.006726 523.028571 L 1075.852249 523.028571 L 1078.29326 485.005783 L 1080.734272 464.202206 L 1083.175284 479.731063 L 1085.616295 467.185783 L 1088.057307 474.456343 L 1090.498319 474.252686 L 1092.93933 474.456343 L 1095.380342 474.853474 L 1097.821353 474.547989 L 1102.703377 474.853474 L 1105.144388 474.649817 L 1107.5854 474.649817 L 1110.026411 475.046949 L 1114.908435 474.150857 L 1117.349446 475.44408 L 1119.790458 473.753726 L 1122.23147 475.148777 L 1124.672481 473.957383 L 1127.113493 475.44408 L 1129.554504 473.66208 L 1131.995516 475.352434 L 1134.436528 474.456343 L 1136.877539 474.547989 L 1139.318551 474.252686 L 1141.759563 475.44408 L 1144.200574 473.254766 L 1146.641586 476.442 L 1149.082597 473.254766 L 1151.523609 475.352434 L 1153.964621 474.150857 L 1156.405632 475.148777 L 1158.846644 473.560251 L 1161.287656 475.352434 L 1163.728667 474.751646 L 1166.169679 474.354514 L 1168.61069 474.252686 L 1171.051702 475.647737 L 1173.492714 472.959463 L 1175.933725 476.340171 L 1178.374737 472.66416 L 1180.815748 476.442 L 1183.25676 472.1652 L 1185.697772 477.144617 L 1188.138783 472.267029 L 1190.579795 476.248526 L 1193.020807 473.356594 L 1195.461818 475.148777 L 1195.461818 475.148777" clip-path="url(#p903993743c)"/></g><g id="line2d_94"><path fill="none" stroke="#00f" stroke-dasharray="7.4 3.2" stroke-dashoffset="0" stroke-width="2" d="M 221.498182 523.028571 L 341.107751 523.028571 L 343.548763 441.565714 L 463.158332 441.565714 L 465.599344 523.028571 L 585.208913 523.028571 L 587.649925 421.2 L 707.259494 421.2 L 709.700506 502.662857 L 829.310075 502.662857 L 831.751087 482.297143 L 951.360656 482.297143 L 953.801668 523.028571 L 1073.411237 523.028571 L 1075.852249 461.931429 L 1195.461818 461.931429 L 1195.461818 461.931429" clip-path="url(#p903993743c)"/></g><g id="patch_13"><path fill="none" stroke="#000" stroke-linecap="square" stroke-linejoin="miter" stroke-width=".8" d="M 172.8 533.211429 L 172.8 411.017143"/></g><g id="patch_14"><path fill="none" stroke="#000" stroke-linecap="square" stroke-linejoin="miter" stroke-width=".8" d="M 1244.16 533.211429 L 1244.16 411.017143"/></g><g id="patch_15"><path fill="none" stroke="#000" stroke-linecap="square" stroke-linejoin="miter" stroke-width=".8" d="M 172.8 533.211429 L 1244.16 533.211429"/></g><g id="patch_16"><path fill="none" stroke="#000" stroke-linecap="square" stroke-linejoin="miter" stroke-width=".8" d="M 172.8 411.017143 L 1244.16 411.017143"/></g><g id="text_24"><defs><path id="DejaVuSans-68" d="M 19.671875 64.796875 L 19.671875 8.109375 L 31.59375 8.109375 Q 46.6875 8.109375 53.6875 14.9375 Q 60.6875 21.78125 60.6875 36.53125 Q 60.6875 51.171875 53.6875 57.984375 Q 46.6875 64.796875 31.59375 64.796875 z M 9.8125 72.90625 L 30.078125 72.90625 Q 51.265625 72.90625 61.171875 64.09375 Q 71.09375 55.28125 71.09375 36.53125 Q 71.09375 17.671875 61.125 8.828125 Q 51.171875 0 30.078125 0 L 9.8125 0 z"/><path id="DejaVuSans-115" d="M 44.28125 53.078125 L 44.28125 44.578125 Q 40.484375 46.53125 36.375 47.5 Q 32.28125 48.484375 27.875 48.484375 Q 21.1875 48.484375 17.84375 46.4375 Q 14.5 44.390625 14.5 40.28125 Q 14.5 37.15625 16.890625 35.375 Q 19.28125 33.59375 26.515625 31.984375 L 29.59375 31.296875 Q 39.15625 29.25 43.1875 25.515625 Q 47.21875 21.78125 47.21875 15.09375 Q 47.21875 7.46875 41.1875 3.015625 Q 35.15625 -1.421875 24.609375 -1.421875 Q 20.21875 -1.421875 15.453125 -0.5625 Q 10.6875 0.296875 5.421875 2 L 5.421875 11.28125 Q 10.40625 8.6875 15.234375 7.390625 Q 20.0625 6.109375 24.8125 6.109375 Q 31.15625 6.109375 34.5625 8.28125 Q 37.984375 10.453125 37.984375 14.40625 Q 37.984375 18.0625 35.515625 20.015625 Q 33.0625 21.96875 24.703125 23.78125 L 21.578125 24.515625 Q 13.234375 26.265625 9.515625 29.90625 Q 5.8125 33.546875 5.8125 39.890625 Q 5.8125 47.609375 11.28125 51.796875 Q 16.75 56 26.8125 56 Q 31.78125 56 36.171875 55.265625 Q 40.578125 54.546875 44.28125 53.078125 z"/><path id="DejaVuSans-76" d="M 9.8125 72.90625 L 19.671875 72.90625 L 19.671875 8.296875 L 55.171875 8.296875 L 55.171875 0 L 9.8125 0 z"/></defs><g transform="translate(613.784766 405.017143)scale(0.21 -0.21)"><use xlink:href="#DejaVuSans-68"/><use x="77.002" xlink:href="#DejaVuSans-97"/><use x="138.281" xlink:href="#DejaVuSans-100"/><use x="201.758" xlink:href="#DejaVuSans-111"/><use x="262.939" xlink:href="#DejaVuSans-115"/><use x="315.039" xlink:href="#DejaVuSans-32"/><use x="346.826" xlink:href="#DejaVuSans-76"/><use x="402.539" xlink:href="#DejaVuSans-105"/><use x="430.322" xlink:href="#DejaVuSans-100"/><use x="493.799" xlink:href="#DejaVuSans-111"/><use x="554.98" xlink:href="#DejaVuSans-115"/><use x="607.08" xlink:href="#DejaVuSans-32"/><use x="638.867" xlink:href="#DejaVuSans-45"/><use x="674.951" xlink:href="#DejaVuSans-32"/><use x="706.738" xlink:href="#DejaVuSans-121"/><use x="765.918" xlink:href="#DejaVuSans-40"/><use x="804.932" xlink:href="#DejaVuSans-107"/><use x="862.842" xlink:href="#DejaVuSans-41"/></g></g><g id="legend_1"><g id="patch_17"><path fill="#fff" stroke="#ccc" stroke-linejoin="miter" d="M 1195.130312 448.373393 L 1237.16 448.373393 Q 1239.16 448.373393 1239.16 446.373393 L 1239.16 418.017143 Q 1239.16 416.017143 1237.16 416.017143 L 1195.130312 416.017143 Q 1193.130312 416.017143 1193.130312 418.017143 L 1193.130312 446.373393 Q 1193.130312 448.373393 1195.130312 448.373393 z" opacity=".8"/></g><g id="line2d_95"><path fill="none" stroke="red" stroke-linecap="square" stroke-width="4" d="M 1197.130312 424.11558 L 1217.130312 424.11558"/></g><g id="text_25"><g transform="translate(1225.130312 427.61558)scale(0.1 -0.1)"><use xlink:href="#DejaVuSans-121"/></g></g><g id="line2d_97"><path fill="none" stroke="#00f" stroke-dasharray="7.4 3.2" stroke-dashoffset="0" stroke-width="2" d="M 1197.130312 438.793705 L 1217.130312 438.793705"/></g><g id="text_26"><g transform="translate(1225.130312 442.293705)scale(0.1 -0.1)"><use xlink:href="#DejaVuSans-121"/><use x="59.18" xlink:href="#DejaVuSans-114"/></g></g></g></g><g id="axes_4"><g id="patch_18"><path fill="#fff" d="M 172.8 692.064 L 1244.16 692.064 L 1244.16 569.869714 L 172.8 569.869714 z"/></g><g id="matplotlib.axis_7"><g id="xtick_28"><g id="line2d_99"><path fill="none" stroke="gray" stroke-linecap="square" stroke-width=".8" d="M 221.498182 692.064 L 221.498182 569.869714" clip-path="url(#pf131362c1d)"/></g><g id="line2d_100"><g><use x="221.498" y="692.064" stroke="#000" stroke-width=".8" xlink:href="#meff5bd4baf"/></g></g><g id="text_27"><g transform="translate(218.316932 706.662438)scale(0.1 -0.1)"><use xlink:href="#DejaVuSans-48"/></g></g></g><g id="xtick_29"><g id="line2d_101"><path fill="none" stroke="gray" stroke-linecap="square" stroke-width=".8" d="M 343.548763 692.064 L 343.548763 569.869714" clip-path="url(#pf131362c1d)"/></g><g id="line2d_102"><g><use x="343.549" y="692.064" stroke="#000" stroke-width=".8" xlink:href="#meff5bd4baf"/></g></g><g id="text_28"><g transform="translate(337.186263 706.662438)scale(0.1 -0.1)"><use xlink:href="#DejaVuSans-53"/><use x="63.623" xlink:href="#DejaVuSans-48"/></g></g></g><g id="xtick_30"><g id="line2d_103"><path fill="none" stroke="gray" stroke-linecap="square" stroke-width=".8" d="M 465.599344 692.064 L 465.599344 569.869714" clip-path="url(#pf131362c1d)"/></g><g id="line2d_104"><g><use x="465.599" y="692.064" stroke="#000" stroke-width=".8" xlink:href="#meff5bd4baf"/></g></g><g id="text_29"><g transform="translate(456.055594 706.662438)scale(0.1 -0.1)"><use xlink:href="#DejaVuSans-49"/><use x="63.623" xlink:href="#DejaVuSans-48"/><use x="127.246" xlink:href="#DejaVuSans-48"/></g></g></g><g id="xtick_31"><g id="line2d_105"><path fill="none" stroke="gray" stroke-linecap="square" stroke-width=".8" d="M 587.649925 692.064 L 587.649925 569.869714" clip-path="url(#pf131362c1d)"/></g><g id="line2d_106"><g><use x="587.65" y="692.064" stroke="#000" stroke-width=".8" xlink:href="#meff5bd4baf"/></g></g><g id="text_30"><g transform="translate(578.106175 706.662438)scale(0.1 -0.1)"><use xlink:href="#DejaVuSans-49"/><use x="63.623" xlink:href="#DejaVuSans-53"/><use x="127.246" xlink:href="#DejaVuSans-48"/></g></g></g><g id="xtick_32"><g id="line2d_107"><path fill="none" stroke="gray" stroke-linecap="square" stroke-width=".8" d="M 709.700506 692.064 L 709.700506 569.869714" clip-path="url(#pf131362c1d)"/></g><g id="line2d_108"><g><use x="709.701" y="692.064" stroke="#000" stroke-width=".8" xlink:href="#meff5bd4baf"/></g></g><g id="text_31"><g transform="translate(700.156756 706.662438)scale(0.1 -0.1)"><use xlink:href="#DejaVuSans-50"/><use x="63.623" xlink:href="#DejaVuSans-48"/><use x="127.246" xlink:href="#DejaVuSans-48"/></g></g></g><g id="xtick_33"><g id="line2d_109"><path fill="none" stroke="gray" stroke-linecap="square" stroke-width=".8" d="M 831.751087 692.064 L 831.751087 569.869714" clip-path="url(#pf131362c1d)"/></g><g id="line2d_110"><g><use x="831.751" y="692.064" stroke="#000" stroke-width=".8" xlink:href="#meff5bd4baf"/></g></g><g id="text_32"><g transform="translate(822.207337 706.662438)scale(0.1 -0.1)"><use xlink:href="#DejaVuSans-50"/><use x="63.623" xlink:href="#DejaVuSans-53"/><use x="127.246" xlink:href="#DejaVuSans-48"/></g></g></g><g id="xtick_34"><g id="line2d_111"><path fill="none" stroke="gray" stroke-linecap="square" stroke-width=".8" d="M 953.801668 692.064 L 953.801668 569.869714" clip-path="url(#pf131362c1d)"/></g><g id="line2d_112"><g><use x="953.802" y="692.064" stroke="#000" stroke-width=".8" xlink:href="#meff5bd4baf"/></g></g><g id="text_33"><g transform="translate(944.257918 706.662438)scale(0.1 -0.1)"><use xlink:href="#DejaVuSans-51"/><use x="63.623" xlink:href="#DejaVuSans-48"/><use x="127.246" xlink:href="#DejaVuSans-48"/></g></g></g><g id="xtick_35"><g id="line2d_113"><path fill="none" stroke="gray" stroke-linecap="square" stroke-width=".8" d="M 1075.852249 692.064 L 1075.852249 569.869714" clip-path="url(#pf131362c1d)"/></g><g id="line2d_114"><g><use x="1075.852" y="692.064" stroke="#000" stroke-width=".8" xlink:href="#meff5bd4baf"/></g></g><g id="text_34"><g transform="translate(1066.308499 706.662438)scale(0.1 -0.1)"><use xlink:href="#DejaVuSans-51"/><use x="63.623" xlink:href="#DejaVuSans-53"/><use x="127.246" xlink:href="#DejaVuSans-48"/></g></g></g><g id="xtick_36"><g id="line2d_115"><path fill="none" stroke="gray" stroke-linecap="square" stroke-width=".8" d="M 1197.90283 692.064 L 1197.90283 569.869714" clip-path="url(#pf131362c1d)"/></g><g id="line2d_116"><g><use x="1197.903" y="692.064" stroke="#000" stroke-width=".8" xlink:href="#meff5bd4baf"/></g></g><g id="text_35"><g transform="translate(1188.35908 706.662438)scale(0.1 -0.1)"><use xlink:href="#DejaVuSans-52"/><use x="63.623" xlink:href="#DejaVuSans-48"/><use x="127.246" xlink:href="#DejaVuSans-48"/></g></g></g><g id="text_36"><defs><path id="DejaVuSans-65" d="M 34.1875 63.1875 L 20.796875 26.90625 L 47.609375 26.90625 z M 28.609375 72.90625 L 39.796875 72.90625 L 67.578125 0 L 57.328125 0 L 50.6875 18.703125 L 17.828125 18.703125 L 11.1875 0 L 0.78125 0 z"/></defs><g transform="translate(650.835 726.419313)scale(0.18 -0.18)"><use xlink:href="#DejaVuSans-65"/><use x="68.408" xlink:href="#DejaVuSans-109"/><use x="165.82" xlink:href="#DejaVuSans-111"/><use x="227.002" xlink:href="#DejaVuSans-115"/><use x="279.102" xlink:href="#DejaVuSans-116"/><use x="318.311" xlink:href="#DejaVuSans-114"/><use x="359.424" xlink:href="#DejaVuSans-97"/><use x="420.703" xlink:href="#DejaVuSans-115"/><use x="472.803" xlink:href="#DejaVuSans-32"/><use x="504.59" xlink:href="#DejaVuSans-40"/><use x="543.604" xlink:href="#DejaVuSans-107"/><use x="601.514" xlink:href="#DejaVuSans-41"/></g></g></g><g id="matplotlib.axis_8"><g id="ytick_19"><g id="line2d_117"><path fill="none" stroke="gray" stroke-linecap="square" stroke-width=".8" d="M 172.8 675.401143 L 1244.16 675.401143" clip-path="url(#pf131362c1d)"/></g><g id="line2d_118"><g><use x="172.8" y="675.401" stroke="#000" stroke-width=".8" xlink:href="#m572c5169aa"/></g></g><g id="text_37"><defs><path id="DejaVuSans-8722" d="M 10.59375 35.5 L 73.1875 35.5 L 73.1875 27.203125 L 10.59375 27.203125 z"/></defs><g transform="translate(151.057812 679.200362)scale(0.1 -0.1)"><use xlink:href="#DejaVuSans-8722"/><use x="83.789" xlink:href="#DejaVuSans-52"/></g></g></g><g id="ytick_20"><g id="line2d_119"><path fill="none" stroke="gray" stroke-linecap="square" stroke-width=".8" d="M 172.8 653.184 L 1244.16 653.184" clip-path="url(#pf131362c1d)"/></g><g id="line2d_120"><g><use x="172.8" y="653.184" stroke="#000" stroke-width=".8" xlink:href="#m572c5169aa"/></g></g><g id="text_38"><g transform="translate(151.057812 656.983219)scale(0.1 -0.1)"><use xlink:href="#DejaVuSans-8722"/><use x="83.789" xlink:href="#DejaVuSans-50"/></g></g></g><g id="ytick_21"><g id="line2d_121"><path fill="none" stroke="gray" stroke-linecap="square" stroke-width=".8" d="M 172.8 630.966857 L 1244.16 630.966857" clip-path="url(#pf131362c1d)"/></g><g id="line2d_122"><g><use x="172.8" y="630.967" stroke="#000" stroke-width=".8" xlink:href="#m572c5169aa"/></g></g><g id="text_39"><g transform="translate(159.4375 634.766076)scale(0.1 -0.1)"><use xlink:href="#DejaVuSans-48"/></g></g></g><g id="ytick_22"><g id="line2d_123"><path fill="none" stroke="gray" stroke-linecap="square" stroke-width=".8" d="M 172.8 608.749714 L 1244.16 608.749714" clip-path="url(#pf131362c1d)"/></g><g id="line2d_124"><g><use x="172.8" y="608.75" stroke="#000" stroke-width=".8" xlink:href="#m572c5169aa"/></g></g><g id="text_40"><g transform="translate(159.4375 612.548933)scale(0.1 -0.1)"><use xlink:href="#DejaVuSans-50"/></g></g></g><g id="ytick_23"><g id="line2d_125"><path fill="none" stroke="gray" stroke-linecap="square" stroke-width=".8" d="M 172.8 586.532571 L 1244.16 586.532571" clip-path="url(#pf131362c1d)"/></g><g id="line2d_126"><g><use x="172.8" y="586.533" stroke="#000" stroke-width=".8" xlink:href="#m572c5169aa"/></g></g><g id="text_41"><g transform="translate(159.4375 590.33179)scale(0.1 -0.1)"><use xlink:href="#DejaVuSans-52"/></g></g></g><g id="text_42"><g transform="translate(143.730312 683.638107)rotate(-90)scale(0.16 -0.16)"><use xlink:href="#DejaVuSans-86"/><use x="68.299" xlink:href="#DejaVuSans-111"/><use x="129.48" xlink:href="#DejaVuSans-108"/><use x="157.264" xlink:href="#DejaVuSans-116"/><use x="196.473" xlink:href="#DejaVuSans-97"/><use x="257.752" xlink:href="#DejaVuSans-103"/><use x="321.229" xlink:href="#DejaVuSans-101"/><use x="382.752" xlink:href="#DejaVuSans-109"/><use x="480.164" xlink:href="#DejaVuSans-32"/><use x="511.951" xlink:href="#DejaVuSans-40"/><use x="550.965" xlink:href="#DejaVuSans-86"/><use x="619.373" xlink:href="#DejaVuSans-41"/></g></g></g><g id="line2d_127"><path fill="none" stroke="#000" stroke-linecap="square" stroke-width="4" d="M 221.498182 630.966857 L 341.107751 630.966857 L 343.548763 586.532571 L 345.989774 604.178537 L 348.430786 629.15616 L 350.871798 623.396366 L 353.312809 620.95248 L 355.753821 621.607886 L 358.194833 620.95248 L 363.076856 620.95248 L 365.517867 620.791406 L 370.399891 621.119109 L 372.840902 620.791406 L 375.281914 621.008023 L 377.722925 620.902491 L 380.163937 621.119109 L 382.604949 620.95248 L 385.04596 621.008023 L 387.486972 620.735863 L 389.927984 621.008023 L 392.368995 621.063566 L 397.251018 620.791406 L 399.69203 621.119109 L 402.133042 620.791406 L 407.015065 621.063566 L 409.456077 620.846949 L 411.897088 620.846949 L 414.3381 621.280183 L 416.779111 620.685874 L 419.220123 621.335726 L 421.661135 620.463703 L 424.102146 621.119109 L 428.98417 620.791406 L 431.425181 620.95248 L 436.307204 621.063566 L 438.748216 620.791406 L 443.630239 621.119109 L 448.512262 620.791406 L 450.953274 621.335726 L 453.394286 620.791406 L 463.158332 620.95248 L 465.599344 665.386766 L 468.040355 658.493897 L 470.481367 650.240229 L 472.922379 641.497783 L 475.36339 635.688 L 477.804402 630.966857 L 480.245414 631.672251 L 482.686425 630.966857 L 585.208913 630.966857 L 587.649925 575.424 L 590.090936 599.474057 L 592.531948 618.914057 L 594.97296 614.242903 L 597.413971 620.052686 L 599.854983 615.925851 L 602.295995 618.208663 L 604.737006 616.198011 L 607.178018 616.309097 L 609.619029 616.631246 L 612.060041 616.686789 L 614.501053 616.309097 L 619.383076 616.686789 L 621.824087 616.414629 L 631.588134 616.414629 L 634.029146 616.581257 L 638.911169 616.414629 L 641.35218 616.797874 L 643.793192 616.309097 L 648.675215 616.631246 L 651.116227 616.414629 L 653.557239 616.359086 L 655.99825 616.847863 L 658.439262 616.309097 L 663.321285 616.742331 L 665.762297 616.198011 L 668.203308 616.847863 L 670.64432 616.470171 L 673.085332 616.581257 L 675.526343 616.470171 L 685.29039 616.631246 L 687.731401 616.414629 L 695.054436 616.470171 L 697.495448 616.470171 L 699.936459 616.797874 L 702.377471 616.414629 L 704.818483 616.686789 L 707.259494 616.525714 L 709.700506 660.793371 L 712.141517 653.139566 L 714.582529 644.724823 L 717.023541 636.904389 L 719.464552 628.706263 L 721.905564 632.88864 L 724.346576 627.839794 L 726.787587 630.500297 L 729.228599 626.212389 L 731.66961 634.354971 L 734.110622 629.955977 L 736.551634 626.484549 L 738.992645 633.97728 L 741.433657 629.250583 L 743.874668 628.545189 L 746.31568 628.167497 L 748.756692 628.384114 L 751.197703 627.512091 L 753.638715 629.19504 L 756.079727 626.101303 L 758.520738 633.049714 L 760.96175 628.273029 L 763.402761 631.261234 L 765.843773 625.395909 L 768.284785 636.365623 L 770.725796 632.399863 L 773.166808 624.418354 L 775.60782 639.892594 L 778.048831 635.604686 L 780.489843 628.92288 L 782.930854 630.28368 L 785.371866 625.884686 L 787.812878 634.138354 L 790.253889 630.339223 L 792.694901 626.917783 L 795.135913 631.583383 L 797.576924 627.567634 L 800.017936 631.366766 L 802.458947 625.995771 L 804.899959 634.788206 L 807.340971 630.828 L 809.781982 625.179291 L 812.222994 637.609783 L 814.664005 632.777554 L 817.105017 626.212389 L 819.546029 635.76576 L 821.98704 630.55584 L 824.428052 627.784251 L 826.869064 630.500297 L 829.310075 624.579429 L 831.751087 626.501211 L 834.192098 626.884457 L 836.63311 625.362583 L 839.074122 627.478766 L 841.515133 624.657189 L 843.956145 628.672937 L 846.397157 623.463017 L 848.838168 632.094377 L 851.27918 627.373234 L 853.720191 626.284594 L 856.161203 627.156617 L 858.602215 624.818263 L 861.043226 628.72848 L 863.484238 623.301943 L 865.925249 632.638697 L 868.366261 627.428777 L 870.807273 626.340137 L 873.248284 626.94 L 875.689296 625.529211 L 878.130308 627.589851 L 880.571319 624.929349 L 883.012331 628.839566 L 885.453342 623.79072 L 887.894354 630.250354 L 890.335366 624.984891 L 892.776377 630.683589 L 895.217389 624.984891 L 897.658401 629.383886 L 900.099412 623.896251 L 902.540424 631.661143 L 904.981435 626.017989 L 907.422447 628.350789 L 909.863459 624.06288 L 912.30447 630.900206 L 914.745482 625.690286 L 917.186494 629.2728 L 919.627505 623.51856 L 922.068517 631.661143 L 924.509528 627.373234 L 926.95054 625.962446 L 929.391552 627.262149 L 931.832563 625.090423 L 934.273575 628.189714 L 936.714586 624.329486 L 939.155598 630.139269 L 941.59661 625.040434 L 944.037621 629.54496 L 946.478633 623.624091 L 948.919645 631.988846 L 951.360656 627.534309 L 953.801668 648.068503 L 956.242679 641.881029 L 961.124703 630.966857 L 963.565714 631.239017 L 966.006726 630.966857 L 1073.411237 630.966857 L 1075.852249 597.641143 L 1078.29326 618.380846 L 1080.734272 629.728251 L 1083.175284 621.257966 L 1085.616295 628.100846 L 1088.057307 624.135086 L 1090.498319 624.246171 L 1095.380342 623.918469 L 1097.821353 624.085097 L 1105.144388 624.029554 L 1107.5854 624.029554 L 1110.026411 623.812937 L 1114.908435 624.301714 L 1117.349446 623.59632 L 1119.790458 624.518331 L 1122.23147 623.757394 L 1124.672481 624.407246 L 1127.113493 623.59632 L 1129.554504 624.56832 L 1131.995516 623.646309 L 1134.436528 624.135086 L 1136.877539 624.085097 L 1139.318551 624.246171 L 1141.759563 623.59632 L 1144.200574 624.790491 L 1146.641586 623.052 L 1149.082597 624.790491 L 1151.523609 623.646309 L 1153.964621 624.301714 L 1156.405632 623.757394 L 1158.846644 624.623863 L 1161.287656 623.646309 L 1166.169679 624.190629 L 1168.61069 624.246171 L 1171.051702 623.485234 L 1173.492714 624.951566 L 1175.933725 623.107543 L 1178.374737 625.11264 L 1180.815748 623.052 L 1183.25676 625.3848 L 1185.697772 622.668754 L 1188.138783 625.329257 L 1190.579795 623.157531 L 1193.020807 624.734949 L 1195.461818 623.757394 L 1195.461818 623.757394" clip-path="url(#pf131362c1d)"/></g><g id="patch_19"><path fill="none" stroke="#000" stroke-linecap="square" stroke-linejoin="miter" stroke-width=".8" d="M 172.8 692.064 L 172.8 569.869714"/></g><g id="patch_20"><path fill="none" stroke="#000" stroke-linecap="square" stroke-linejoin="miter" stroke-width=".8" d="M 1244.16 692.064 L 1244.16 569.869714"/></g><g id="patch_21"><path fill="none" stroke="#000" stroke-linecap="square" stroke-linejoin="miter" stroke-width=".8" d="M 172.8 692.064 L 1244.16 692.064"/></g><g id="patch_22"><path fill="none" stroke="#000" stroke-linecap="square" stroke-linejoin="miter" stroke-width=".8" d="M 172.8 569.869714 L 1244.16 569.869714"/></g><g id="text_43"><defs><path id="DejaVuSans-69" d="M 9.8125 72.90625 L 55.90625 72.90625 L 55.90625 64.59375 L 19.671875 64.59375 L 19.671875 43.015625 L 54.390625 43.015625 L 54.390625 34.71875 L 19.671875 34.71875 L 19.671875 8.296875 L 56.78125 8.296875 L 56.78125 0 L 9.8125 0 z"/></defs><g transform="translate(655.596094 563.869714)scale(0.21 -0.21)"><use xlink:href="#DejaVuSans-69"/><use x="63.184" xlink:href="#DejaVuSans-114"/><use x="104.281" xlink:href="#DejaVuSans-114"/><use x="145.363" xlink:href="#DejaVuSans-111"/><use x="206.545" xlink:href="#DejaVuSans-32"/><use x="238.332" xlink:href="#DejaVuSans-45"/><use x="274.416" xlink:href="#DejaVuSans-32"/><use x="306.203" xlink:href="#DejaVuSans-101"/><use x="367.727" xlink:href="#DejaVuSans-40"/><use x="406.74" xlink:href="#DejaVuSans-107"/><use x="464.65" xlink:href="#DejaVuSans-41"/></g></g></g><g id="text_44"><defs><path id="DejaVuSans-67" d="M 64.40625 67.28125 L 64.40625 56.890625 Q 59.421875 61.53125 53.78125 63.8125 Q 48.140625 66.109375 41.796875 66.109375 Q 29.296875 66.109375 22.65625 58.46875 Q 16.015625 50.828125 16.015625 36.375 Q 16.015625 21.96875 22.65625 14.328125 Q 29.296875 6.6875 41.796875 6.6875 Q 48.140625 6.6875 53.78125 8.984375 Q 59.421875 11.28125 64.40625 15.921875 L 64.40625 5.609375 Q 59.234375 2.09375 53.4375 0.328125 Q 47.65625 -1.421875 41.21875 -1.421875 Q 24.65625 -1.421875 15.125 8.703125 Q 5.609375 18.84375 5.609375 36.375 Q 5.609375 53.953125 15.125 64.078125 Q 24.65625 74.21875 41.21875 74.21875 Q 47.75 74.21875 53.53125 72.484375 Q 59.328125 70.75 64.40625 67.28125 z"/><path id="DejaVuSans-118" d="M 2.984375 54.6875 L 12.5 54.6875 L 29.59375 8.796875 L 46.6875 54.6875 L 56.203125 54.6875 L 35.6875 0 L 23.484375 0 z"/><path id="DejaVuSans-231" d="M 48.78125 52.59375 L 48.78125 44.1875 Q 44.96875 46.296875 41.140625 47.34375 Q 37.3125 48.390625 33.40625 48.390625 Q 24.65625 48.390625 19.8125 42.84375 Q 14.984375 37.3125 14.984375 27.296875 Q 14.984375 17.28125 19.8125 11.734375 Q 24.65625 6.203125 33.40625 6.203125 Q 37.3125 6.203125 41.140625 7.25 Q 44.96875 8.296875 48.78125 10.40625 L 48.78125 2.09375 Q 45.015625 0.34375 40.984375 -0.53125 Q 36.96875 -1.421875 32.421875 -1.421875 Q 20.0625 -1.421875 12.78125 6.34375 Q 5.515625 14.109375 5.515625 27.296875 Q 5.515625 40.671875 12.859375 48.328125 Q 20.21875 56 33.015625 56 Q 37.15625 56 41.109375 55.140625 Q 45.0625 54.296875 48.78125 52.59375 z M 36.109375 0 Q 38.78125 -3.03125 40.09375 -5.59375 Q 41.421875 -8.15625 41.421875 -10.5 Q 41.421875 -14.84375 38.484375 -17.0625 Q 35.5625 -19.28125 29.796875 -19.28125 Q 27.5625 -19.28125 25.4375 -18.984375 Q 23.3125 -18.703125 21.203125 -18.109375 L 21.203125 -11.71875 Q 22.875 -12.546875 24.671875 -12.90625 Q 26.484375 -13.28125 28.78125 -13.28125 Q 31.65625 -13.28125 33.125 -12.109375 Q 34.59375 -10.9375 34.59375 -8.6875 Q 34.59375 -7.234375 33.53125 -5.109375 Q 32.484375 -2.984375 30.296875 0 z"/></defs><g transform="translate(534.07875 35.307937)scale(0.26 -0.26)"><use xlink:href="#DejaVuSans-67"/><use x="69.824" xlink:href="#DejaVuSans-111"/><use x="131.006" xlink:href="#DejaVuSans-110"/><use x="194.385" xlink:href="#DejaVuSans-116"/><use x="233.594" xlink:href="#DejaVuSans-114"/><use x="274.676" xlink:href="#DejaVuSans-111"/><use x="335.857" xlink:href="#DejaVuSans-108"/><use x="363.641" xlink:href="#DejaVuSans-97"/><use x="424.92" xlink:href="#DejaVuSans-100"/><use x="488.396" xlink:href="#DejaVuSans-111"/><use x="549.578" xlink:href="#DejaVuSans-114"/><use x="590.691" xlink:href="#DejaVuSans-32"/><use x="622.479" xlink:href="#DejaVuSans-97"/><use x="683.758" xlink:href="#DejaVuSans-118"/><use x="742.938" xlink:href="#DejaVuSans-97"/><use x="804.217" xlink:href="#DejaVuSans-110"/><use x="867.596" xlink:href="#DejaVuSans-231"/><use x="922.576" xlink:href="#DejaVuSans-111"/><use x="983.758" xlink:href="#DejaVuSans-32"/><use x="1015.545" xlink:href="#DejaVuSans-45"/><use x="1051.629" xlink:href="#DejaVuSans-32"/><use x="1083.416" xlink:href="#DejaVuSans-76"/><use x="1139.129" xlink:href="#DejaVuSans-82"/></g></g></g><defs><clipPath id="p39c5bc5010"><rect width="1071.36" height="122.194" x="172.8" y="93.312"/></clipPath><clipPath id="pf4c2dc6700"><rect width="1071.36" height="122.194" x="172.8" y="252.165"/></clipPath><clipPath id="p903993743c"><rect width="1071.36" height="122.194" x="172.8" y="411.017"/></clipPath><clipPath id="pf131362c1d"><rect width="1071.36" height="122.194" x="172.8" y="569.87"/></clipPath></defs></svg>