<?xml version="1.0" encoding="utf-8" standalone="no"?>
<!DOCTYPE svg PUBLIC "-//W3C//DTD SVG 1.1//EN"
  "http://www.w3.org/Graphics/SVG/1.1/DTD/svg11.dtd">
<!-- Created with matplotlib (https://matplotlib.org/) -->
<svg height="777.6pt" version="1.1" viewBox="0 0 1382.4 777.6" width="1382.4pt" xmlns="http://www.w3.org/2000/svg" xmlns:xlink="http://www.w3.org/1999/xlink">
 <defs>
  <style type="text/css">
*{stroke-linecap:butt;stroke-linejoin:round;white-space:pre;}
  </style>
 </defs>
 <g id="figure_1">
  <g id="patch_1">
   <path d="M 0 777.6 
L 1382.4 777.6 
L 1382.4 0 
L 0 0 
z
" style="fill:#ffffff;"/>
  </g>
  <g id="axes_1">
   <g id="patch_2">
    <path d="M 172.8 215.506286 
L 1244.16 215.506286 
L 1244.16 93.312 
L 172.8 93.312 
z
" style="fill:#ffffff;"/>
   </g>
   <g id="matplotlib.axis_1">
    <g id="xtick_1">
     <g id="line2d_1">
      <path clip-path="url(#pea92a4ff02)" d="M 221.498182 215.506286 
L 221.498182 93.312 
" style="fill:none;stroke:#808080;stroke-linecap:square;stroke-width:0.8;"/>
     </g>
     <g id="line2d_2">
      <defs>
       <path d="M 0 0 
L 0 3.5 
" id="m682bd8049f" style="stroke:#000000;stroke-width:0.8;"/>
      </defs>
      <g>
       <use style="stroke:#000000;stroke-width:0.8;" x="221.498182" xlink:href="#m682bd8049f" y="215.506286"/>
      </g>
     </g>
    </g>
    <g id="xtick_2">
     <g id="line2d_3">
      <path clip-path="url(#pea92a4ff02)" d="M 343.548763 215.506286 
L 343.548763 93.312 
" style="fill:none;stroke:#808080;stroke-linecap:square;stroke-width:0.8;"/>
     </g>
     <g id="line2d_4">
      <g>
       <use style="stroke:#000000;stroke-width:0.8;" x="343.548763" xlink:href="#m682bd8049f" y="215.506286"/>
      </g>
     </g>
    </g>
    <g id="xtick_3">
     <g id="line2d_5">
      <path clip-path="url(#pea92a4ff02)" d="M 465.599344 215.506286 
L 465.599344 93.312 
" style="fill:none;stroke:#808080;stroke-linecap:square;stroke-width:0.8;"/>
     </g>
     <g id="line2d_6">
      <g>
       <use style="stroke:#000000;stroke-width:0.8;" x="465.599344" xlink:href="#m682bd8049f" y="215.506286"/>
      </g>
     </g>
    </g>
    <g id="xtick_4">
     <g id="line2d_7">
      <path clip-path="url(#pea92a4ff02)" d="M 587.649925 215.506286 
L 587.649925 93.312 
" style="fill:none;stroke:#808080;stroke-linecap:square;stroke-width:0.8;"/>
     </g>
     <g id="line2d_8">
      <g>
       <use style="stroke:#000000;stroke-width:0.8;" x="587.649925" xlink:href="#m682bd8049f" y="215.506286"/>
      </g>
     </g>
    </g>
    <g id="xtick_5">
     <g id="line2d_9">
      <path clip-path="url(#pea92a4ff02)" d="M 709.700506 215.506286 
L 709.700506 93.312 
" style="fill:none;stroke:#808080;stroke-linecap:square;stroke-width:0.8;"/>
     </g>
     <g id="line2d_10">
      <g>
       <use style="stroke:#000000;stroke-width:0.8;" x="709.700506" xlink:href="#m682bd8049f" y="215.506286"/>
      </g>
     </g>
    </g>
    <g id="xtick_6">
     <g id="line2d_11">
      <path clip-path="url(#pea92a4ff02)" d="M 831.751087 215.506286 
L 831.751087 93.312 
" style="fill:none;stroke:#808080;stroke-linecap:square;stroke-width:0.8;"/>
     </g>
     <g id="line2d_12">
      <g>
       <use style="stroke:#000000;stroke-width:0.8;" x="831.751087" xlink:href="#m682bd8049f" y="215.506286"/>
      </g>
     </g>
    </g>
    <g id="xtick_7">
     <g id="line2d_13">
      <path clip-path="url(#pea92a4ff02)" d="M 953.801668 215.506286 
L 953.801668 93.312 
" style="fill:none;stroke:#808080;stroke-linecap:square;stroke-width:0.8;"/>
     </g>
     <g id="line2d_14">
      <g>
       <use style="stroke:#000000;stroke-width:0.8;" x="953.801668" xlink:href="#m682bd8049f" y="215.506286"/>
      </g>
     </g>
    </g>
    <g id="xtick_8">
     <g id="line2d_15">
      <path clip-path="url(#pea92a4ff02)" d="M 1075.852249 215.506286 
L 1075.852249 93.312 
" style="fill:none;stroke:#808080;stroke-linecap:square;stroke-width:0.8;"/>
     </g>
     <g id="line2d_16">
      <g>
       <use style="stroke:#000000;stroke-width:0.8;" x="1075.852249" xlink:href="#m682bd8049f" y="215.506286"/>
      </g>
     </g>
    </g>
    <g id="xtick_9">
     <g id="line2d_17">
      <path clip-path="url(#pea92a4ff02)" d="M 1197.90283 215.506286 
L 1197.90283 93.312 
" style="fill:none;stroke:#808080;stroke-linecap:square;stroke-width:0.8;"/>
     </g>
     <g id="line2d_18">
      <g>
       <use style="stroke:#000000;stroke-width:0.8;" x="1197.90283" xlink:href="#m682bd8049f" y="215.506286"/>
      </g>
     </g>
    </g>
   </g>
   <g id="matplotlib.axis_2">
    <g id="ytick_1">
     <g id="line2d_19">
      <path clip-path="url(#pea92a4ff02)" d="M 172.8 205.323429 
L 1244.16 205.323429 
" style="fill:none;stroke:#808080;stroke-linecap:square;stroke-width:0.8;"/>
     </g>
     <g id="line2d_20">
      <defs>
       <path d="M 0 0 
L -3.5 0 
" id="m06465f11e4" style="stroke:#000000;stroke-width:0.8;"/>
      </defs>
      <g>
       <use style="stroke:#000000;stroke-width:0.8;" x="172.8" xlink:href="#m06465f11e4" y="205.323429"/>
      </g>
     </g>
     <g id="text_1">
      <!-- 0 -->
      <defs>
       <path d="M 31.78125 66.40625 
Q 24.171875 66.40625 20.328125 58.90625 
Q 16.5 51.421875 16.5 36.375 
Q 16.5 21.390625 20.328125 13.890625 
Q 24.171875 6.390625 31.78125 6.390625 
Q 39.453125 6.390625 43.28125 13.890625 
Q 47.125 21.390625 47.125 36.375 
Q 47.125 51.421875 43.28125 58.90625 
Q 39.453125 66.40625 31.78125 66.40625 
z
M 31.78125 74.21875 
Q 44.046875 74.21875 50.515625 64.515625 
Q 56.984375 54.828125 56.984375 36.375 
Q 56.984375 17.96875 50.515625 8.265625 
Q 44.046875 -1.421875 31.78125 -1.421875 
Q 19.53125 -1.421875 13.0625 8.265625 
Q 6.59375 17.96875 6.59375 36.375 
Q 6.59375 54.828125 13.0625 64.515625 
Q 19.53125 74.21875 31.78125 74.21875 
z
" id="DejaVuSans-48"/>
      </defs>
      <g transform="translate(159.4375 209.122647)scale(0.1 -0.1)">
       <use xlink:href="#DejaVuSans-48"/>
      </g>
     </g>
    </g>
    <g id="ytick_2">
     <g id="line2d_21">
      <path clip-path="url(#pea92a4ff02)" d="M 172.8 184.957714 
L 1244.16 184.957714 
" style="fill:none;stroke:#808080;stroke-linecap:square;stroke-width:0.8;"/>
     </g>
     <g id="line2d_22">
      <g>
       <use style="stroke:#000000;stroke-width:0.8;" x="172.8" xlink:href="#m06465f11e4" y="184.957714"/>
      </g>
     </g>
     <g id="text_2">
      <!-- 1 -->
      <defs>
       <path d="M 12.40625 8.296875 
L 28.515625 8.296875 
L 28.515625 63.921875 
L 10.984375 60.40625 
L 10.984375 69.390625 
L 28.421875 72.90625 
L 38.28125 72.90625 
L 38.28125 8.296875 
L 54.390625 8.296875 
L 54.390625 0 
L 12.40625 0 
z
" id="DejaVuSans-49"/>
      </defs>
      <g transform="translate(159.4375 188.756933)scale(0.1 -0.1)">
       <use xlink:href="#DejaVuSans-49"/>
      </g>
     </g>
    </g>
    <g id="ytick_3">
     <g id="line2d_23">
      <path clip-path="url(#pea92a4ff02)" d="M 172.8 164.592 
L 1244.16 164.592 
" style="fill:none;stroke:#808080;stroke-linecap:square;stroke-width:0.8;"/>
     </g>
     <g id="line2d_24">
      <g>
       <use style="stroke:#000000;stroke-width:0.8;" x="172.8" xlink:href="#m06465f11e4" y="164.592"/>
      </g>
     </g>
     <g id="text_3">
      <!-- 2 -->
      <defs>
       <path d="M 19.1875 8.296875 
L 53.609375 8.296875 
L 53.609375 0 
L 7.328125 0 
L 7.328125 8.296875 
Q 12.9375 14.109375 22.625 23.890625 
Q 32.328125 33.6875 34.8125 36.53125 
Q 39.546875 41.84375 41.421875 45.53125 
Q 43.3125 49.21875 43.3125 52.78125 
Q 43.3125 58.59375 39.234375 62.25 
Q 35.15625 65.921875 28.609375 65.921875 
Q 23.96875 65.921875 18.8125 64.3125 
Q 13.671875 62.703125 7.8125 59.421875 
L 7.8125 69.390625 
Q 13.765625 71.78125 18.9375 73 
Q 24.125 74.21875 28.421875 74.21875 
Q 39.75 74.21875 46.484375 68.546875 
Q 53.21875 62.890625 53.21875 53.421875 
Q 53.21875 48.921875 51.53125 44.890625 
Q 49.859375 40.875 45.40625 35.40625 
Q 44.1875 33.984375 37.640625 27.21875 
Q 31.109375 20.453125 19.1875 8.296875 
z
" id="DejaVuSans-50"/>
      </defs>
      <g transform="translate(159.4375 168.391219)scale(0.1 -0.1)">
       <use xlink:href="#DejaVuSans-50"/>
      </g>
     </g>
    </g>
    <g id="ytick_4">
     <g id="line2d_25">
      <path clip-path="url(#pea92a4ff02)" d="M 172.8 144.226286 
L 1244.16 144.226286 
" style="fill:none;stroke:#808080;stroke-linecap:square;stroke-width:0.8;"/>
     </g>
     <g id="line2d_26">
      <g>
       <use style="stroke:#000000;stroke-width:0.8;" x="172.8" xlink:href="#m06465f11e4" y="144.226286"/>
      </g>
     </g>
     <g id="text_4">
      <!-- 3 -->
      <defs>
       <path d="M 40.578125 39.3125 
Q 47.65625 37.796875 51.625 33 
Q 55.609375 28.21875 55.609375 21.1875 
Q 55.609375 10.40625 48.1875 4.484375 
Q 40.765625 -1.421875 27.09375 -1.421875 
Q 22.515625 -1.421875 17.65625 -0.515625 
Q 12.796875 0.390625 7.625 2.203125 
L 7.625 11.71875 
Q 11.71875 9.328125 16.59375 8.109375 
Q 21.484375 6.890625 26.8125 6.890625 
Q 36.078125 6.890625 40.9375 10.546875 
Q 45.796875 14.203125 45.796875 21.1875 
Q 45.796875 27.640625 41.28125 31.265625 
Q 36.765625 34.90625 28.71875 34.90625 
L 20.21875 34.90625 
L 20.21875 43.015625 
L 29.109375 43.015625 
Q 36.375 43.015625 40.234375 45.921875 
Q 44.09375 48.828125 44.09375 54.296875 
Q 44.09375 59.90625 40.109375 62.90625 
Q 36.140625 65.921875 28.71875 65.921875 
Q 24.65625 65.921875 20.015625 65.03125 
Q 15.375 64.15625 9.8125 62.3125 
L 9.8125 71.09375 
Q 15.4375 72.65625 20.34375 73.4375 
Q 25.25 74.21875 29.59375 74.21875 
Q 40.828125 74.21875 47.359375 69.109375 
Q 53.90625 64.015625 53.90625 55.328125 
Q 53.90625 49.265625 50.4375 45.09375 
Q 46.96875 40.921875 40.578125 39.3125 
z
" id="DejaVuSans-51"/>
      </defs>
      <g transform="translate(159.4375 148.025504)scale(0.1 -0.1)">
       <use xlink:href="#DejaVuSans-51"/>
      </g>
     </g>
    </g>
    <g id="ytick_5">
     <g id="line2d_27">
      <path clip-path="url(#pea92a4ff02)" d="M 172.8 123.860571 
L 1244.16 123.860571 
" style="fill:none;stroke:#808080;stroke-linecap:square;stroke-width:0.8;"/>
     </g>
     <g id="line2d_28">
      <g>
       <use style="stroke:#000000;stroke-width:0.8;" x="172.8" xlink:href="#m06465f11e4" y="123.860571"/>
      </g>
     </g>
     <g id="text_5">
      <!-- 4 -->
      <defs>
       <path d="M 37.796875 64.3125 
L 12.890625 25.390625 
L 37.796875 25.390625 
z
M 35.203125 72.90625 
L 47.609375 72.90625 
L 47.609375 25.390625 
L 58.015625 25.390625 
L 58.015625 17.1875 
L 47.609375 17.1875 
L 47.609375 0 
L 37.796875 0 
L 37.796875 17.1875 
L 4.890625 17.1875 
L 4.890625 26.703125 
z
" id="DejaVuSans-52"/>
      </defs>
      <g transform="translate(159.4375 127.65979)scale(0.1 -0.1)">
       <use xlink:href="#DejaVuSans-52"/>
      </g>
     </g>
    </g>
    <g id="ytick_6">
     <g id="line2d_29">
      <path clip-path="url(#pea92a4ff02)" d="M 172.8 103.494857 
L 1244.16 103.494857 
" style="fill:none;stroke:#808080;stroke-linecap:square;stroke-width:0.8;"/>
     </g>
     <g id="line2d_30">
      <g>
       <use style="stroke:#000000;stroke-width:0.8;" x="172.8" xlink:href="#m06465f11e4" y="103.494857"/>
      </g>
     </g>
     <g id="text_6">
      <!-- 5 -->
      <defs>
       <path d="M 10.796875 72.90625 
L 49.515625 72.90625 
L 49.515625 64.59375 
L 19.828125 64.59375 
L 19.828125 46.734375 
Q 21.96875 47.46875 24.109375 47.828125 
Q 26.265625 48.1875 28.421875 48.1875 
Q 40.625 48.1875 47.75 41.5 
Q 54.890625 34.8125 54.890625 23.390625 
Q 54.890625 11.625 47.5625 5.09375 
Q 40.234375 -1.421875 26.90625 -1.421875 
Q 22.3125 -1.421875 17.546875 -0.640625 
Q 12.796875 0.140625 7.71875 1.703125 
L 7.71875 11.625 
Q 12.109375 9.234375 16.796875 8.0625 
Q 21.484375 6.890625 26.703125 6.890625 
Q 35.15625 6.890625 40.078125 11.328125 
Q 45.015625 15.765625 45.015625 23.390625 
Q 45.015625 31 40.078125 35.4375 
Q 35.15625 39.890625 26.703125 39.890625 
Q 22.75 39.890625 18.8125 39.015625 
Q 14.890625 38.140625 10.796875 36.28125 
z
" id="DejaVuSans-53"/>
      </defs>
      <g transform="translate(159.4375 107.294076)scale(0.1 -0.1)">
       <use xlink:href="#DejaVuSans-53"/>
      </g>
     </g>
    </g>
    <g id="text_7">
     <!-- Voltagem (V) -->
     <defs>
      <path d="M 28.609375 0 
L 0.78125 72.90625 
L 11.078125 72.90625 
L 34.1875 11.53125 
L 57.328125 72.90625 
L 67.578125 72.90625 
L 39.796875 0 
z
" id="DejaVuSans-86"/>
      <path d="M 30.609375 48.390625 
Q 23.390625 48.390625 19.1875 42.75 
Q 14.984375 37.109375 14.984375 27.296875 
Q 14.984375 17.484375 19.15625 11.84375 
Q 23.34375 6.203125 30.609375 6.203125 
Q 37.796875 6.203125 41.984375 11.859375 
Q 46.1875 17.53125 46.1875 27.296875 
Q 46.1875 37.015625 41.984375 42.703125 
Q 37.796875 48.390625 30.609375 48.390625 
z
M 30.609375 56 
Q 42.328125 56 49.015625 48.375 
Q 55.71875 40.765625 55.71875 27.296875 
Q 55.71875 13.875 49.015625 6.21875 
Q 42.328125 -1.421875 30.609375 -1.421875 
Q 18.84375 -1.421875 12.171875 6.21875 
Q 5.515625 13.875 5.515625 27.296875 
Q 5.515625 40.765625 12.171875 48.375 
Q 18.84375 56 30.609375 56 
z
" id="DejaVuSans-111"/>
      <path d="M 9.421875 75.984375 
L 18.40625 75.984375 
L 18.40625 0 
L 9.421875 0 
z
" id="DejaVuSans-108"/>
      <path d="M 18.3125 70.21875 
L 18.3125 54.6875 
L 36.8125 54.6875 
L 36.8125 47.703125 
L 18.3125 47.703125 
L 18.3125 18.015625 
Q 18.3125 11.328125 20.140625 9.421875 
Q 21.96875 7.515625 27.59375 7.515625 
L 36.8125 7.515625 
L 36.8125 0 
L 27.59375 0 
Q 17.1875 0 13.234375 3.875 
Q 9.28125 7.765625 9.28125 18.015625 
L 9.28125 47.703125 
L 2.6875 47.703125 
L 2.6875 54.6875 
L 9.28125 54.6875 
L 9.28125 70.21875 
z
" id="DejaVuSans-116"/>
      <path d="M 34.28125 27.484375 
Q 23.390625 27.484375 19.1875 25 
Q 14.984375 22.515625 14.984375 16.5 
Q 14.984375 11.71875 18.140625 8.90625 
Q 21.296875 6.109375 26.703125 6.109375 
Q 34.1875 6.109375 38.703125 11.40625 
Q 43.21875 16.703125 43.21875 25.484375 
L 43.21875 27.484375 
z
M 52.203125 31.203125 
L 52.203125 0 
L 43.21875 0 
L 43.21875 8.296875 
Q 40.140625 3.328125 35.546875 0.953125 
Q 30.953125 -1.421875 24.3125 -1.421875 
Q 15.921875 -1.421875 10.953125 3.296875 
Q 6 8.015625 6 15.921875 
Q 6 25.140625 12.171875 29.828125 
Q 18.359375 34.515625 30.609375 34.515625 
L 43.21875 34.515625 
L 43.21875 35.40625 
Q 43.21875 41.609375 39.140625 45 
Q 35.0625 48.390625 27.6875 48.390625 
Q 23 48.390625 18.546875 47.265625 
Q 14.109375 46.140625 10.015625 43.890625 
L 10.015625 52.203125 
Q 14.9375 54.109375 19.578125 55.046875 
Q 24.21875 56 28.609375 56 
Q 40.484375 56 46.34375 49.84375 
Q 52.203125 43.703125 52.203125 31.203125 
z
" id="DejaVuSans-97"/>
      <path d="M 45.40625 27.984375 
Q 45.40625 37.75 41.375 43.109375 
Q 37.359375 48.484375 30.078125 48.484375 
Q 22.859375 48.484375 18.828125 43.109375 
Q 14.796875 37.75 14.796875 27.984375 
Q 14.796875 18.265625 18.828125 12.890625 
Q 22.859375 7.515625 30.078125 7.515625 
Q 37.359375 7.515625 41.375 12.890625 
Q 45.40625 18.265625 45.40625 27.984375 
z
M 54.390625 6.78125 
Q 54.390625 -7.171875 48.1875 -13.984375 
Q 42 -20.796875 29.203125 -20.796875 
Q 24.46875 -20.796875 20.265625 -20.09375 
Q 16.0625 -19.390625 12.109375 -17.921875 
L 12.109375 -9.1875 
Q 16.0625 -11.328125 19.921875 -12.34375 
Q 23.78125 -13.375 27.78125 -13.375 
Q 36.625 -13.375 41.015625 -8.765625 
Q 45.40625 -4.15625 45.40625 5.171875 
L 45.40625 9.625 
Q 42.625 4.78125 38.28125 2.390625 
Q 33.9375 0 27.875 0 
Q 17.828125 0 11.671875 7.65625 
Q 5.515625 15.328125 5.515625 27.984375 
Q 5.515625 40.671875 11.671875 48.328125 
Q 17.828125 56 27.875 56 
Q 33.9375 56 38.28125 53.609375 
Q 42.625 51.21875 45.40625 46.390625 
L 45.40625 54.6875 
L 54.390625 54.6875 
z
" id="DejaVuSans-103"/>
      <path d="M 56.203125 29.59375 
L 56.203125 25.203125 
L 14.890625 25.203125 
Q 15.484375 15.921875 20.484375 11.0625 
Q 25.484375 6.203125 34.421875 6.203125 
Q 39.59375 6.203125 44.453125 7.46875 
Q 49.3125 8.734375 54.109375 11.28125 
L 54.109375 2.78125 
Q 49.265625 0.734375 44.1875 -0.34375 
Q 39.109375 -1.421875 33.890625 -1.421875 
Q 20.796875 -1.421875 13.15625 6.1875 
Q 5.515625 13.8125 5.515625 26.8125 
Q 5.515625 40.234375 12.765625 48.109375 
Q 20.015625 56 32.328125 56 
Q 43.359375 56 49.78125 48.890625 
Q 56.203125 41.796875 56.203125 29.59375 
z
M 47.21875 32.234375 
Q 47.125 39.59375 43.09375 43.984375 
Q 39.0625 48.390625 32.421875 48.390625 
Q 24.90625 48.390625 20.390625 44.140625 
Q 15.875 39.890625 15.1875 32.171875 
z
" id="DejaVuSans-101"/>
      <path d="M 52 44.1875 
Q 55.375 50.25 60.0625 53.125 
Q 64.75 56 71.09375 56 
Q 79.640625 56 84.28125 50.015625 
Q 88.921875 44.046875 88.921875 33.015625 
L 88.921875 0 
L 79.890625 0 
L 79.890625 32.71875 
Q 79.890625 40.578125 77.09375 44.375 
Q 74.3125 48.1875 68.609375 48.1875 
Q 61.625 48.1875 57.5625 43.546875 
Q 53.515625 38.921875 53.515625 30.90625 
L 53.515625 0 
L 44.484375 0 
L 44.484375 32.71875 
Q 44.484375 40.625 41.703125 44.40625 
Q 38.921875 48.1875 33.109375 48.1875 
Q 26.21875 48.1875 22.15625 43.53125 
Q 18.109375 38.875 18.109375 30.90625 
L 18.109375 0 
L 9.078125 0 
L 9.078125 54.6875 
L 18.109375 54.6875 
L 18.109375 46.1875 
Q 21.1875 51.21875 25.484375 53.609375 
Q 29.78125 56 35.6875 56 
Q 41.65625 56 45.828125 52.96875 
Q 50 49.953125 52 44.1875 
z
" id="DejaVuSans-109"/>
      <path id="DejaVuSans-32"/>
      <path d="M 31 75.875 
Q 24.46875 64.65625 21.28125 53.65625 
Q 18.109375 42.671875 18.109375 31.390625 
Q 18.109375 20.125 21.3125 9.0625 
Q 24.515625 -2 31 -13.1875 
L 23.1875 -13.1875 
Q 15.875 -1.703125 12.234375 9.375 
Q 8.59375 20.453125 8.59375 31.390625 
Q 8.59375 42.28125 12.203125 53.3125 
Q 15.828125 64.359375 23.1875 75.875 
z
" id="DejaVuSans-40"/>
      <path d="M 8.015625 75.875 
L 15.828125 75.875 
Q 23.140625 64.359375 26.78125 53.3125 
Q 30.421875 42.28125 30.421875 31.390625 
Q 30.421875 20.453125 26.78125 9.375 
Q 23.140625 -1.703125 15.828125 -13.1875 
L 8.015625 -13.1875 
Q 14.5 -2 17.703125 9.0625 
Q 20.90625 20.125 20.90625 31.390625 
Q 20.90625 42.671875 17.703125 53.65625 
Q 14.5 64.65625 8.015625 75.875 
z
" id="DejaVuSans-41"/>
     </defs>
     <g transform="translate(152.11 207.080393)rotate(-90)scale(0.16 -0.16)">
      <use xlink:href="#DejaVuSans-86"/>
      <use x="68.298828" xlink:href="#DejaVuSans-111"/>
      <use x="129.480469" xlink:href="#DejaVuSans-108"/>
      <use x="157.263672" xlink:href="#DejaVuSans-116"/>
      <use x="196.472656" xlink:href="#DejaVuSans-97"/>
      <use x="257.751953" xlink:href="#DejaVuSans-103"/>
      <use x="321.228516" xlink:href="#DejaVuSans-101"/>
      <use x="382.751953" xlink:href="#DejaVuSans-109"/>
      <use x="480.164062" xlink:href="#DejaVuSans-32"/>
      <use x="511.951172" xlink:href="#DejaVuSans-40"/>
      <use x="550.964844" xlink:href="#DejaVuSans-86"/>
      <use x="619.373047" xlink:href="#DejaVuSans-41"/>
     </g>
    </g>
   </g>
   <g id="line2d_31">
    <path clip-path="url(#pea92a4ff02)" d="M 221.498182 205.323429 
L 341.107751 205.323429 
L 343.548763 123.860571 
L 463.158332 123.860571 
L 465.599344 205.323429 
L 585.208913 205.323429 
L 587.649925 103.494857 
L 707.259494 103.494857 
L 709.700506 184.957714 
L 829.310075 184.957714 
L 831.751087 164.592 
L 951.360656 164.592 
L 953.801668 205.323429 
L 1073.411237 205.323429 
L 1075.852249 144.226286 
L 1195.461818 144.226286 
L 1195.461818 144.226286 
" style="fill:none;stroke:#0000ff;stroke-linecap:square;stroke-width:4;"/>
   </g>
   <g id="patch_3">
    <path d="M 172.8 215.506286 
L 172.8 93.312 
" style="fill:none;stroke:#000000;stroke-linecap:square;stroke-linejoin:miter;stroke-width:0.8;"/>
   </g>
   <g id="patch_4">
    <path d="M 1244.16 215.506286 
L 1244.16 93.312 
" style="fill:none;stroke:#000000;stroke-linecap:square;stroke-linejoin:miter;stroke-width:0.8;"/>
   </g>
   <g id="patch_5">
    <path d="M 172.8 215.506286 
L 1244.16 215.506286 
" style="fill:none;stroke:#000000;stroke-linecap:square;stroke-linejoin:miter;stroke-width:0.8;"/>
   </g>
   <g id="patch_6">
    <path d="M 172.8 93.312 
L 1244.16 93.312 
" style="fill:none;stroke:#000000;stroke-linecap:square;stroke-linejoin:miter;stroke-width:0.8;"/>
   </g>
   <g id="text_8">
    <!-- Referencia - yr(k) -->
    <defs>
     <path d="M 44.390625 34.1875 
Q 47.5625 33.109375 50.5625 29.59375 
Q 53.5625 26.078125 56.59375 19.921875 
L 66.609375 0 
L 56 0 
L 46.6875 18.703125 
Q 43.0625 26.03125 39.671875 28.421875 
Q 36.28125 30.8125 30.421875 30.8125 
L 19.671875 30.8125 
L 19.671875 0 
L 9.8125 0 
L 9.8125 72.90625 
L 32.078125 72.90625 
Q 44.578125 72.90625 50.734375 67.671875 
Q 56.890625 62.453125 56.890625 51.90625 
Q 56.890625 45.015625 53.6875 40.46875 
Q 50.484375 35.9375 44.390625 34.1875 
z
M 19.671875 64.796875 
L 19.671875 38.921875 
L 32.078125 38.921875 
Q 39.203125 38.921875 42.84375 42.21875 
Q 46.484375 45.515625 46.484375 51.90625 
Q 46.484375 58.296875 42.84375 61.546875 
Q 39.203125 64.796875 32.078125 64.796875 
z
" id="DejaVuSans-82"/>
     <path d="M 37.109375 75.984375 
L 37.109375 68.5 
L 28.515625 68.5 
Q 23.6875 68.5 21.796875 66.546875 
Q 19.921875 64.59375 19.921875 59.515625 
L 19.921875 54.6875 
L 34.71875 54.6875 
L 34.71875 47.703125 
L 19.921875 47.703125 
L 19.921875 0 
L 10.890625 0 
L 10.890625 47.703125 
L 2.296875 47.703125 
L 2.296875 54.6875 
L 10.890625 54.6875 
L 10.890625 58.5 
Q 10.890625 67.625 15.140625 71.796875 
Q 19.390625 75.984375 28.609375 75.984375 
z
" id="DejaVuSans-102"/>
     <path d="M 41.109375 46.296875 
Q 39.59375 47.171875 37.8125 47.578125 
Q 36.03125 48 33.890625 48 
Q 26.265625 48 22.1875 43.046875 
Q 18.109375 38.09375 18.109375 28.8125 
L 18.109375 0 
L 9.078125 0 
L 9.078125 54.6875 
L 18.109375 54.6875 
L 18.109375 46.1875 
Q 20.953125 51.171875 25.484375 53.578125 
Q 30.03125 56 36.53125 56 
Q 37.453125 56 38.578125 55.875 
Q 39.703125 55.765625 41.0625 55.515625 
z
" id="DejaVuSans-114"/>
     <path d="M 54.890625 33.015625 
L 54.890625 0 
L 45.90625 0 
L 45.90625 32.71875 
Q 45.90625 40.484375 42.875 44.328125 
Q 39.84375 48.1875 33.796875 48.1875 
Q 26.515625 48.1875 22.3125 43.546875 
Q 18.109375 38.921875 18.109375 30.90625 
L 18.109375 0 
L 9.078125 0 
L 9.078125 54.6875 
L 18.109375 54.6875 
L 18.109375 46.1875 
Q 21.34375 51.125 25.703125 53.5625 
Q 30.078125 56 35.796875 56 
Q 45.21875 56 50.046875 50.171875 
Q 54.890625 44.34375 54.890625 33.015625 
z
" id="DejaVuSans-110"/>
     <path d="M 48.78125 52.59375 
L 48.78125 44.1875 
Q 44.96875 46.296875 41.140625 47.34375 
Q 37.3125 48.390625 33.40625 48.390625 
Q 24.65625 48.390625 19.8125 42.84375 
Q 14.984375 37.3125 14.984375 27.296875 
Q 14.984375 17.28125 19.8125 11.734375 
Q 24.65625 6.203125 33.40625 6.203125 
Q 37.3125 6.203125 41.140625 7.25 
Q 44.96875 8.296875 48.78125 10.40625 
L 48.78125 2.09375 
Q 45.015625 0.34375 40.984375 -0.53125 
Q 36.96875 -1.421875 32.421875 -1.421875 
Q 20.0625 -1.421875 12.78125 6.34375 
Q 5.515625 14.109375 5.515625 27.296875 
Q 5.515625 40.671875 12.859375 48.328125 
Q 20.21875 56 33.015625 56 
Q 37.15625 56 41.109375 55.140625 
Q 45.0625 54.296875 48.78125 52.59375 
z
" id="DejaVuSans-99"/>
     <path d="M 9.421875 54.6875 
L 18.40625 54.6875 
L 18.40625 0 
L 9.421875 0 
z
M 9.421875 75.984375 
L 18.40625 75.984375 
L 18.40625 64.59375 
L 9.421875 64.59375 
z
" id="DejaVuSans-105"/>
     <path d="M 4.890625 31.390625 
L 31.203125 31.390625 
L 31.203125 23.390625 
L 4.890625 23.390625 
z
" id="DejaVuSans-45"/>
     <path d="M 32.171875 -5.078125 
Q 28.375 -14.84375 24.75 -17.8125 
Q 21.140625 -20.796875 15.09375 -20.796875 
L 7.90625 -20.796875 
L 7.90625 -13.28125 
L 13.1875 -13.28125 
Q 16.890625 -13.28125 18.9375 -11.515625 
Q 21 -9.765625 23.484375 -3.21875 
L 25.09375 0.875 
L 2.984375 54.6875 
L 12.5 54.6875 
L 29.59375 11.921875 
L 46.6875 54.6875 
L 56.203125 54.6875 
z
" id="DejaVuSans-121"/>
     <path d="M 9.078125 75.984375 
L 18.109375 75.984375 
L 18.109375 31.109375 
L 44.921875 54.6875 
L 56.390625 54.6875 
L 27.390625 29.109375 
L 57.625 0 
L 45.90625 0 
L 18.109375 26.703125 
L 18.109375 0 
L 9.078125 0 
z
" id="DejaVuSans-107"/>
    </defs>
    <g transform="translate(616.752656 87.312)scale(0.21 -0.21)">
     <use xlink:href="#DejaVuSans-82"/>
     <use x="69.419922" xlink:href="#DejaVuSans-101"/>
     <use x="130.943359" xlink:href="#DejaVuSans-102"/>
     <use x="166.148438" xlink:href="#DejaVuSans-101"/>
     <use x="227.671875" xlink:href="#DejaVuSans-114"/>
     <use x="268.753906" xlink:href="#DejaVuSans-101"/>
     <use x="330.277344" xlink:href="#DejaVuSans-110"/>
     <use x="393.65625" xlink:href="#DejaVuSans-99"/>
     <use x="448.636719" xlink:href="#DejaVuSans-105"/>
     <use x="476.419922" xlink:href="#DejaVuSans-97"/>
     <use x="537.699219" xlink:href="#DejaVuSans-32"/>
     <use x="569.486328" xlink:href="#DejaVuSans-45"/>
     <use x="605.570312" xlink:href="#DejaVuSans-32"/>
     <use x="637.357422" xlink:href="#DejaVuSans-121"/>
     <use x="696.537109" xlink:href="#DejaVuSans-114"/>
     <use x="737.650391" xlink:href="#DejaVuSans-40"/>
     <use x="776.664062" xlink:href="#DejaVuSans-107"/>
     <use x="834.574219" xlink:href="#DejaVuSans-41"/>
    </g>
   </g>
  </g>
  <g id="axes_2">
   <g id="patch_7">
    <path d="M 172.8 374.358857 
L 1244.16 374.358857 
L 1244.16 252.164571 
L 172.8 252.164571 
z
" style="fill:#ffffff;"/>
   </g>
   <g id="matplotlib.axis_3">
    <g id="xtick_10">
     <g id="line2d_32">
      <path clip-path="url(#pf22b001be1)" d="M 221.498182 374.358857 
L 221.498182 252.164571 
" style="fill:none;stroke:#808080;stroke-linecap:square;stroke-width:0.8;"/>
     </g>
     <g id="line2d_33">
      <g>
       <use style="stroke:#000000;stroke-width:0.8;" x="221.498182" xlink:href="#m682bd8049f" y="374.358857"/>
      </g>
     </g>
    </g>
    <g id="xtick_11">
     <g id="line2d_34">
      <path clip-path="url(#pf22b001be1)" d="M 343.548763 374.358857 
L 343.548763 252.164571 
" style="fill:none;stroke:#808080;stroke-linecap:square;stroke-width:0.8;"/>
     </g>
     <g id="line2d_35">
      <g>
       <use style="stroke:#000000;stroke-width:0.8;" x="343.548763" xlink:href="#m682bd8049f" y="374.358857"/>
      </g>
     </g>
    </g>
    <g id="xtick_12">
     <g id="line2d_36">
      <path clip-path="url(#pf22b001be1)" d="M 465.599344 374.358857 
L 465.599344 252.164571 
" style="fill:none;stroke:#808080;stroke-linecap:square;stroke-width:0.8;"/>
     </g>
     <g id="line2d_37">
      <g>
       <use style="stroke:#000000;stroke-width:0.8;" x="465.599344" xlink:href="#m682bd8049f" y="374.358857"/>
      </g>
     </g>
    </g>
    <g id="xtick_13">
     <g id="line2d_38">
      <path clip-path="url(#pf22b001be1)" d="M 587.649925 374.358857 
L 587.649925 252.164571 
" style="fill:none;stroke:#808080;stroke-linecap:square;stroke-width:0.8;"/>
     </g>
     <g id="line2d_39">
      <g>
       <use style="stroke:#000000;stroke-width:0.8;" x="587.649925" xlink:href="#m682bd8049f" y="374.358857"/>
      </g>
     </g>
    </g>
    <g id="xtick_14">
     <g id="line2d_40">
      <path clip-path="url(#pf22b001be1)" d="M 709.700506 374.358857 
L 709.700506 252.164571 
" style="fill:none;stroke:#808080;stroke-linecap:square;stroke-width:0.8;"/>
     </g>
     <g id="line2d_41">
      <g>
       <use style="stroke:#000000;stroke-width:0.8;" x="709.700506" xlink:href="#m682bd8049f" y="374.358857"/>
      </g>
     </g>
    </g>
    <g id="xtick_15">
     <g id="line2d_42">
      <path clip-path="url(#pf22b001be1)" d="M 831.751087 374.358857 
L 831.751087 252.164571 
" style="fill:none;stroke:#808080;stroke-linecap:square;stroke-width:0.8;"/>
     </g>
     <g id="line2d_43">
      <g>
       <use style="stroke:#000000;stroke-width:0.8;" x="831.751087" xlink:href="#m682bd8049f" y="374.358857"/>
      </g>
     </g>
    </g>
    <g id="xtick_16">
     <g id="line2d_44">
      <path clip-path="url(#pf22b001be1)" d="M 953.801668 374.358857 
L 953.801668 252.164571 
" style="fill:none;stroke:#808080;stroke-linecap:square;stroke-width:0.8;"/>
     </g>
     <g id="line2d_45">
      <g>
       <use style="stroke:#000000;stroke-width:0.8;" x="953.801668" xlink:href="#m682bd8049f" y="374.358857"/>
      </g>
     </g>
    </g>
    <g id="xtick_17">
     <g id="line2d_46">
      <path clip-path="url(#pf22b001be1)" d="M 1075.852249 374.358857 
L 1075.852249 252.164571 
" style="fill:none;stroke:#808080;stroke-linecap:square;stroke-width:0.8;"/>
     </g>
     <g id="line2d_47">
      <g>
       <use style="stroke:#000000;stroke-width:0.8;" x="1075.852249" xlink:href="#m682bd8049f" y="374.358857"/>
      </g>
     </g>
    </g>
    <g id="xtick_18">
     <g id="line2d_48">
      <path clip-path="url(#pf22b001be1)" d="M 1197.90283 374.358857 
L 1197.90283 252.164571 
" style="fill:none;stroke:#808080;stroke-linecap:square;stroke-width:0.8;"/>
     </g>
     <g id="line2d_49">
      <g>
       <use style="stroke:#000000;stroke-width:0.8;" x="1197.90283" xlink:href="#m682bd8049f" y="374.358857"/>
      </g>
     </g>
    </g>
   </g>
   <g id="matplotlib.axis_4">
    <g id="ytick_7">
     <g id="line2d_50">
      <path clip-path="url(#pf22b001be1)" d="M 172.8 364.176 
L 1244.16 364.176 
" style="fill:none;stroke:#808080;stroke-linecap:square;stroke-width:0.8;"/>
     </g>
     <g id="line2d_51">
      <g>
       <use style="stroke:#000000;stroke-width:0.8;" x="172.8" xlink:href="#m06465f11e4" y="364.176"/>
      </g>
     </g>
     <g id="text_9">
      <!-- 0 -->
      <g transform="translate(159.4375 367.975219)scale(0.1 -0.1)">
       <use xlink:href="#DejaVuSans-48"/>
      </g>
     </g>
    </g>
    <g id="ytick_8">
     <g id="line2d_52">
      <path clip-path="url(#pf22b001be1)" d="M 172.8 343.810286 
L 1244.16 343.810286 
" style="fill:none;stroke:#808080;stroke-linecap:square;stroke-width:0.8;"/>
     </g>
     <g id="line2d_53">
      <g>
       <use style="stroke:#000000;stroke-width:0.8;" x="172.8" xlink:href="#m06465f11e4" y="343.810286"/>
      </g>
     </g>
     <g id="text_10">
      <!-- 1 -->
      <g transform="translate(159.4375 347.609504)scale(0.1 -0.1)">
       <use xlink:href="#DejaVuSans-49"/>
      </g>
     </g>
    </g>
    <g id="ytick_9">
     <g id="line2d_54">
      <path clip-path="url(#pf22b001be1)" d="M 172.8 323.444571 
L 1244.16 323.444571 
" style="fill:none;stroke:#808080;stroke-linecap:square;stroke-width:0.8;"/>
     </g>
     <g id="line2d_55">
      <g>
       <use style="stroke:#000000;stroke-width:0.8;" x="172.8" xlink:href="#m06465f11e4" y="323.444571"/>
      </g>
     </g>
     <g id="text_11">
      <!-- 2 -->
      <g transform="translate(159.4375 327.24379)scale(0.1 -0.1)">
       <use xlink:href="#DejaVuSans-50"/>
      </g>
     </g>
    </g>
    <g id="ytick_10">
     <g id="line2d_56">
      <path clip-path="url(#pf22b001be1)" d="M 172.8 303.078857 
L 1244.16 303.078857 
" style="fill:none;stroke:#808080;stroke-linecap:square;stroke-width:0.8;"/>
     </g>
     <g id="line2d_57">
      <g>
       <use style="stroke:#000000;stroke-width:0.8;" x="172.8" xlink:href="#m06465f11e4" y="303.078857"/>
      </g>
     </g>
     <g id="text_12">
      <!-- 3 -->
      <g transform="translate(159.4375 306.878076)scale(0.1 -0.1)">
       <use xlink:href="#DejaVuSans-51"/>
      </g>
     </g>
    </g>
    <g id="ytick_11">
     <g id="line2d_58">
      <path clip-path="url(#pf22b001be1)" d="M 172.8 282.713143 
L 1244.16 282.713143 
" style="fill:none;stroke:#808080;stroke-linecap:square;stroke-width:0.8;"/>
     </g>
     <g id="line2d_59">
      <g>
       <use style="stroke:#000000;stroke-width:0.8;" x="172.8" xlink:href="#m06465f11e4" y="282.713143"/>
      </g>
     </g>
     <g id="text_13">
      <!-- 4 -->
      <g transform="translate(159.4375 286.512362)scale(0.1 -0.1)">
       <use xlink:href="#DejaVuSans-52"/>
      </g>
     </g>
    </g>
    <g id="ytick_12">
     <g id="line2d_60">
      <path clip-path="url(#pf22b001be1)" d="M 172.8 262.347429 
L 1244.16 262.347429 
" style="fill:none;stroke:#808080;stroke-linecap:square;stroke-width:0.8;"/>
     </g>
     <g id="line2d_61">
      <g>
       <use style="stroke:#000000;stroke-width:0.8;" x="172.8" xlink:href="#m06465f11e4" y="262.347429"/>
      </g>
     </g>
     <g id="text_14">
      <!-- 5 -->
      <g transform="translate(159.4375 266.146647)scale(0.1 -0.1)">
       <use xlink:href="#DejaVuSans-53"/>
      </g>
     </g>
    </g>
    <g id="text_15">
     <!-- Voltagem (V) -->
     <g transform="translate(152.11 365.932964)rotate(-90)scale(0.16 -0.16)">
      <use xlink:href="#DejaVuSans-86"/>
      <use x="68.298828" xlink:href="#DejaVuSans-111"/>
      <use x="129.480469" xlink:href="#DejaVuSans-108"/>
      <use x="157.263672" xlink:href="#DejaVuSans-116"/>
      <use x="196.472656" xlink:href="#DejaVuSans-97"/>
      <use x="257.751953" xlink:href="#DejaVuSans-103"/>
      <use x="321.228516" xlink:href="#DejaVuSans-101"/>
      <use x="382.751953" xlink:href="#DejaVuSans-109"/>
      <use x="480.164062" xlink:href="#DejaVuSans-32"/>
      <use x="511.951172" xlink:href="#DejaVuSans-40"/>
      <use x="550.964844" xlink:href="#DejaVuSans-86"/>
      <use x="619.373047" xlink:href="#DejaVuSans-41"/>
     </g>
    </g>
   </g>
   <g id="line2d_62">
    <path clip-path="url(#pf22b001be1)" d="M 221.498182 364.176 
L 341.107751 364.176 
L 343.548763 262.347429 
L 345.989774 262.347429 
L 348.430786 364.176 
L 350.871798 308.267868 
L 353.312809 295.642435 
L 355.753821 308.057391 
L 358.194833 302.393622 
L 360.635844 302.339268 
L 363.076856 305.174035 
L 365.517867 302.161719 
L 367.958879 305.177302 
L 370.399891 302.575184 
L 372.840902 305.561429 
L 375.281914 303.332024 
L 377.722925 303.893349 
L 380.163937 301.834952 
L 382.604949 304.832933 
L 385.04596 304.62741 
L 387.486972 302.191389 
L 389.927984 303.977531 
L 392.368995 303.85968 
L 394.810007 303.861848 
L 397.251018 302.662584 
L 399.69203 304.360596 
L 402.133042 303.83084 
L 404.574053 302.663154 
L 407.015065 304.774111 
L 409.456077 304.214966 
L 411.897088 303.419994 
L 414.3381 306.331532 
L 416.779111 301.247995 
L 419.220123 304.451998 
L 421.661135 304.242684 
L 424.102146 302.633785 
L 426.543158 304.774651 
L 428.98417 302.602205 
L 431.425181 303.948181 
L 433.866193 303.446694 
L 436.307204 303.891239 
L 438.748216 303.861268 
L 441.189228 303.448293 
L 443.630239 305.50396 
L 446.071251 304.160133 
L 448.512262 303.04883 
L 453.394286 303.890172 
L 455.835297 305.060512 
L 458.276309 302.577333 
L 460.717321 303.535113 
L 463.158332 304.303138 
L 465.599344 364.176 
L 475.36339 364.176 
L 477.804402 361.91842 
L 480.245414 364.176 
L 585.208913 364.176 
L 587.649925 262.347429 
L 590.090936 262.347429 
L 592.531948 293.378036 
L 594.97296 266.595054 
L 597.413971 290.992903 
L 599.854983 272.334294 
L 602.295995 276.426564 
L 604.737006 273.761104 
L 607.178018 272.739492 
L 609.619029 276.046986 
L 612.060041 272.962828 
L 614.501053 275.196213 
L 616.942064 274.676168 
L 619.383076 273.464771 
L 621.824087 274.379487 
L 624.265099 273.905547 
L 626.706111 275.54881 
L 629.147122 272.993785 
L 631.588134 275.195643 
L 634.029146 274.676178 
L 636.470157 272.679072 
L 638.911169 276.833797 
L 641.35218 273.733999 
L 643.793192 272.739991 
L 646.234204 275.633451 
L 648.675215 272.992228 
L 651.116227 275.609198 
L 653.557239 273.819726 
L 655.99825 275.136863 
L 658.439262 272.237458 
L 660.880273 277.27724 
L 663.321285 272.504823 
L 665.762297 276.46483 
L 668.203308 274.587451 
L 670.64432 274.293455 
L 673.085332 275.519881 
L 675.526343 272.622145 
L 677.967355 276.049145 
L 680.408366 274.203365 
L 682.849378 274.73584 
L 687.731401 273.109529 
L 690.172413 276.020565 
L 692.613424 273.37684 
L 695.054436 274.79463 
L 697.495448 274.289643 
L 699.936459 274.320726 
L 702.377471 272.707404 
L 704.818483 276.833276 
L 707.259494 273.734008 
L 709.700506 364.176 
L 717.023541 364.176 
L 719.464552 354.465322 
L 721.905564 338.20069 
L 724.346576 364.176 
L 726.787587 327.093527 
L 729.228599 364.176 
L 731.66961 357.398626 
L 734.110622 324.291321 
L 736.551634 364.176 
L 738.992645 364.176 
L 741.433657 318.509521 
L 743.874668 364.176 
L 746.31568 364.176 
L 748.756692 325.14909 
L 751.197703 364.176 
L 753.638715 364.176 
L 756.079727 316.770381 
L 758.520738 364.176 
L 760.96175 364.176 
L 763.402761 324.267051 
L 765.843773 364.176 
L 768.284785 364.176 
L 770.725796 323.464937 
L 773.166808 364.176 
L 775.60782 364.176 
L 778.048831 317.575641 
L 780.489843 364.176 
L 782.930854 364.176 
L 785.371866 331.164725 
L 787.812878 364.176 
L 790.253889 343.694558 
L 792.694901 356.035499 
L 795.135913 335.468831 
L 797.576924 364.176 
L 800.017936 330.912964 
L 802.458947 364.176 
L 804.899959 347.618542 
L 807.340971 345.659713 
L 809.781982 350.747562 
L 812.222994 340.722483 
L 814.664005 364.176 
L 817.105017 323.580889 
L 819.546029 364.176 
L 821.98704 364.176 
L 824.428052 320.324422 
L 826.869064 364.176 
L 829.310075 364.176 
L 831.751087 262.347429 
L 834.192098 364.176 
L 836.63311 364.176 
L 839.074122 352.152215 
L 841.515133 314.276339 
L 843.956145 363.626152 
L 846.397157 328.344578 
L 848.838168 344.405106 
L 851.27918 329.657063 
L 853.720191 348.847035 
L 856.161203 322.061931 
L 858.602215 355.449142 
L 861.043226 325.259147 
L 863.484238 348.292669 
L 865.925249 327.367492 
L 868.366261 347.796716 
L 870.807273 326.982704 
L 873.248284 351.836788 
L 875.689296 317.020486 
L 878.130308 364.176 
L 880.571319 319.358669 
L 883.012331 364.176 
L 885.453342 319.273683 
L 887.894354 357.570356 
L 890.335366 320.277266 
L 892.776377 364.176 
L 895.217389 321.384946 
L 897.658401 348.947452 
L 900.099412 331.799732 
L 902.540424 339.788236 
L 904.981435 336.05401 
L 907.422447 335.465641 
L 909.863459 339.572602 
L 912.30447 333.20465 
L 914.745482 339.720982 
L 917.186494 333.20192 
L 919.627505 339.307506 
L 922.068517 336.45682 
L 924.509528 335.025091 
L 926.95054 338.403275 
L 929.391552 338.168965 
L 931.832563 333.293672 
L 934.273575 342.53132 
L 936.714586 326.964551 
L 939.155598 351.071035 
L 941.59661 323.940508 
L 944.037621 356.507024 
L 946.478633 318.725484 
L 948.919645 358.884216 
L 951.360656 326.63872 
L 953.801668 364.176 
L 961.124703 364.176 
L 963.565714 363.559306 
L 966.006726 364.176 
L 1073.411237 364.176 
L 1075.852249 262.347429 
L 1078.29326 285.833007 
L 1080.734272 364.176 
L 1083.175284 346.688155 
L 1085.616295 299.118182 
L 1088.057307 339.046641 
L 1090.498319 322.210386 
L 1092.93933 319.256414 
L 1095.380342 327.172371 
L 1097.821353 320.586101 
L 1100.262365 322.638192 
L 1102.703377 324.95525 
L 1105.144388 321.14502 
L 1107.5854 311.689035 
L 1110.026411 341.900865 
L 1112.467423 311.876074 
L 1114.908435 328.869079 
L 1117.349446 319.662456 
L 1119.790458 327.537022 
L 1122.23147 320.5576 
L 1124.672481 323.052243 
L 1127.113493 323.271737 
L 1129.554504 321.635335 
L 1131.995516 325.802984 
L 1136.877539 320.439768 
L 1139.318551 324.688953 
L 1141.759563 321.957411 
L 1144.200574 323.335465 
L 1146.641586 323.246914 
L 1149.082597 322.87637 
L 1151.523609 324.515551 
L 1153.964621 320.34785 
L 1156.405632 324.277118 
L 1158.846644 321.573254 
L 1161.287656 325.390601 
L 1163.728667 321.117398 
L 1166.169679 326.245652 
L 1168.61069 322.257307 
L 1171.051702 320.909705 
L 1173.492714 324.244989 
L 1175.933725 323.186596 
L 1178.374737 324.076704 
L 1180.815748 321.204768 
L 1183.25676 323.018543 
L 1185.697772 323.272357 
L 1188.138783 323.248075 
L 1190.579795 306.293963 
L 1193.020807 348.314361 
L 1195.461818 313.052664 
L 1195.461818 313.052664 
" style="fill:none;stroke:#008000;stroke-dasharray:14.8,6.4;stroke-dashoffset:0;stroke-width:4;"/>
   </g>
   <g id="patch_8">
    <path d="M 172.8 374.358857 
L 172.8 252.164571 
" style="fill:none;stroke:#000000;stroke-linecap:square;stroke-linejoin:miter;stroke-width:0.8;"/>
   </g>
   <g id="patch_9">
    <path d="M 1244.16 374.358857 
L 1244.16 252.164571 
" style="fill:none;stroke:#000000;stroke-linecap:square;stroke-linejoin:miter;stroke-width:0.8;"/>
   </g>
   <g id="patch_10">
    <path d="M 172.8 374.358857 
L 1244.16 374.358857 
" style="fill:none;stroke:#000000;stroke-linecap:square;stroke-linejoin:miter;stroke-width:0.8;"/>
   </g>
   <g id="patch_11">
    <path d="M 172.8 252.164571 
L 1244.16 252.164571 
" style="fill:none;stroke:#000000;stroke-linecap:square;stroke-linejoin:miter;stroke-width:0.8;"/>
   </g>
   <g id="text_16">
    <!-- Saída controlador - u(k) -->
    <defs>
     <path d="M 53.515625 70.515625 
L 53.515625 60.890625 
Q 47.90625 63.578125 42.921875 64.890625 
Q 37.9375 66.21875 33.296875 66.21875 
Q 25.25 66.21875 20.875 63.09375 
Q 16.5 59.96875 16.5 54.203125 
Q 16.5 49.359375 19.40625 46.890625 
Q 22.3125 44.4375 30.421875 42.921875 
L 36.375 41.703125 
Q 47.40625 39.59375 52.65625 34.296875 
Q 57.90625 29 57.90625 20.125 
Q 57.90625 9.515625 50.796875 4.046875 
Q 43.703125 -1.421875 29.984375 -1.421875 
Q 24.8125 -1.421875 18.96875 -0.25 
Q 13.140625 0.921875 6.890625 3.21875 
L 6.890625 13.375 
Q 12.890625 10.015625 18.65625 8.296875 
Q 24.421875 6.59375 29.984375 6.59375 
Q 38.421875 6.59375 43.015625 9.90625 
Q 47.609375 13.234375 47.609375 19.390625 
Q 47.609375 24.75 44.3125 27.78125 
Q 41.015625 30.8125 33.5 32.328125 
L 27.484375 33.5 
Q 16.453125 35.6875 11.515625 40.375 
Q 6.59375 45.0625 6.59375 53.421875 
Q 6.59375 63.09375 13.40625 68.65625 
Q 20.21875 74.21875 32.171875 74.21875 
Q 37.3125 74.21875 42.625 73.28125 
Q 47.953125 72.359375 53.515625 70.515625 
z
" id="DejaVuSans-83"/>
     <path d="M 20.65625 79.984375 
L 30.375 79.984375 
L 14.46875 61.625 
L 6.984375 61.625 
z
M 9.421875 54.6875 
L 18.40625 54.6875 
L 18.40625 0 
L 9.421875 0 
z
M 13.921875 56 
z
" id="DejaVuSans-237"/>
     <path d="M 45.40625 46.390625 
L 45.40625 75.984375 
L 54.390625 75.984375 
L 54.390625 0 
L 45.40625 0 
L 45.40625 8.203125 
Q 42.578125 3.328125 38.25 0.953125 
Q 33.9375 -1.421875 27.875 -1.421875 
Q 17.96875 -1.421875 11.734375 6.484375 
Q 5.515625 14.40625 5.515625 27.296875 
Q 5.515625 40.1875 11.734375 48.09375 
Q 17.96875 56 27.875 56 
Q 33.9375 56 38.25 53.625 
Q 42.578125 51.265625 45.40625 46.390625 
z
M 14.796875 27.296875 
Q 14.796875 17.390625 18.875 11.75 
Q 22.953125 6.109375 30.078125 6.109375 
Q 37.203125 6.109375 41.296875 11.75 
Q 45.40625 17.390625 45.40625 27.296875 
Q 45.40625 37.203125 41.296875 42.84375 
Q 37.203125 48.484375 30.078125 48.484375 
Q 22.953125 48.484375 18.875 42.84375 
Q 14.796875 37.203125 14.796875 27.296875 
z
" id="DejaVuSans-100"/>
     <path d="M 8.5 21.578125 
L 8.5 54.6875 
L 17.484375 54.6875 
L 17.484375 21.921875 
Q 17.484375 14.15625 20.5 10.265625 
Q 23.53125 6.390625 29.59375 6.390625 
Q 36.859375 6.390625 41.078125 11.03125 
Q 45.3125 15.671875 45.3125 23.6875 
L 45.3125 54.6875 
L 54.296875 54.6875 
L 54.296875 0 
L 45.3125 0 
L 45.3125 8.40625 
Q 42.046875 3.421875 37.71875 1 
Q 33.40625 -1.421875 27.6875 -1.421875 
Q 18.265625 -1.421875 13.375 4.4375 
Q 8.5 10.296875 8.5 21.578125 
z
M 31.109375 56 
z
" id="DejaVuSans-117"/>
    </defs>
    <g transform="translate(584.169844 246.164571)scale(0.21 -0.21)">
     <use xlink:href="#DejaVuSans-83"/>
     <use x="63.476562" xlink:href="#DejaVuSans-97"/>
     <use x="124.755859" xlink:href="#DejaVuSans-237"/>
     <use x="152.539062" xlink:href="#DejaVuSans-100"/>
     <use x="216.015625" xlink:href="#DejaVuSans-97"/>
     <use x="277.294922" xlink:href="#DejaVuSans-32"/>
     <use x="309.082031" xlink:href="#DejaVuSans-99"/>
     <use x="364.0625" xlink:href="#DejaVuSans-111"/>
     <use x="425.244141" xlink:href="#DejaVuSans-110"/>
     <use x="488.623047" xlink:href="#DejaVuSans-116"/>
     <use x="527.832031" xlink:href="#DejaVuSans-114"/>
     <use x="568.914062" xlink:href="#DejaVuSans-111"/>
     <use x="630.095703" xlink:href="#DejaVuSans-108"/>
     <use x="657.878906" xlink:href="#DejaVuSans-97"/>
     <use x="719.158203" xlink:href="#DejaVuSans-100"/>
     <use x="782.634766" xlink:href="#DejaVuSans-111"/>
     <use x="843.816406" xlink:href="#DejaVuSans-114"/>
     <use x="884.929688" xlink:href="#DejaVuSans-32"/>
     <use x="916.716797" xlink:href="#DejaVuSans-45"/>
     <use x="952.800781" xlink:href="#DejaVuSans-32"/>
     <use x="984.587891" xlink:href="#DejaVuSans-117"/>
     <use x="1047.966797" xlink:href="#DejaVuSans-40"/>
     <use x="1086.980469" xlink:href="#DejaVuSans-107"/>
     <use x="1144.890625" xlink:href="#DejaVuSans-41"/>
    </g>
   </g>
  </g>
  <g id="axes_3">
   <g id="patch_12">
    <path d="M 172.8 533.211429 
L 1244.16 533.211429 
L 1244.16 411.017143 
L 172.8 411.017143 
z
" style="fill:#ffffff;"/>
   </g>
   <g id="matplotlib.axis_5">
    <g id="xtick_19">
     <g id="line2d_63">
      <path clip-path="url(#pca1917e4bf)" d="M 221.498182 533.211429 
L 221.498182 411.017143 
" style="fill:none;stroke:#808080;stroke-linecap:square;stroke-width:0.8;"/>
     </g>
     <g id="line2d_64">
      <g>
       <use style="stroke:#000000;stroke-width:0.8;" x="221.498182" xlink:href="#m682bd8049f" y="533.211429"/>
      </g>
     </g>
    </g>
    <g id="xtick_20">
     <g id="line2d_65">
      <path clip-path="url(#pca1917e4bf)" d="M 343.548763 533.211429 
L 343.548763 411.017143 
" style="fill:none;stroke:#808080;stroke-linecap:square;stroke-width:0.8;"/>
     </g>
     <g id="line2d_66">
      <g>
       <use style="stroke:#000000;stroke-width:0.8;" x="343.548763" xlink:href="#m682bd8049f" y="533.211429"/>
      </g>
     </g>
    </g>
    <g id="xtick_21">
     <g id="line2d_67">
      <path clip-path="url(#pca1917e4bf)" d="M 465.599344 533.211429 
L 465.599344 411.017143 
" style="fill:none;stroke:#808080;stroke-linecap:square;stroke-width:0.8;"/>
     </g>
     <g id="line2d_68">
      <g>
       <use style="stroke:#000000;stroke-width:0.8;" x="465.599344" xlink:href="#m682bd8049f" y="533.211429"/>
      </g>
     </g>
    </g>
    <g id="xtick_22">
     <g id="line2d_69">
      <path clip-path="url(#pca1917e4bf)" d="M 587.649925 533.211429 
L 587.649925 411.017143 
" style="fill:none;stroke:#808080;stroke-linecap:square;stroke-width:0.8;"/>
     </g>
     <g id="line2d_70">
      <g>
       <use style="stroke:#000000;stroke-width:0.8;" x="587.649925" xlink:href="#m682bd8049f" y="533.211429"/>
      </g>
     </g>
    </g>
    <g id="xtick_23">
     <g id="line2d_71">
      <path clip-path="url(#pca1917e4bf)" d="M 709.700506 533.211429 
L 709.700506 411.017143 
" style="fill:none;stroke:#808080;stroke-linecap:square;stroke-width:0.8;"/>
     </g>
     <g id="line2d_72">
      <g>
       <use style="stroke:#000000;stroke-width:0.8;" x="709.700506" xlink:href="#m682bd8049f" y="533.211429"/>
      </g>
     </g>
    </g>
    <g id="xtick_24">
     <g id="line2d_73">
      <path clip-path="url(#pca1917e4bf)" d="M 831.751087 533.211429 
L 831.751087 411.017143 
" style="fill:none;stroke:#808080;stroke-linecap:square;stroke-width:0.8;"/>
     </g>
     <g id="line2d_74">
      <g>
       <use style="stroke:#000000;stroke-width:0.8;" x="831.751087" xlink:href="#m682bd8049f" y="533.211429"/>
      </g>
     </g>
    </g>
    <g id="xtick_25">
     <g id="line2d_75">
      <path clip-path="url(#pca1917e4bf)" d="M 953.801668 533.211429 
L 953.801668 411.017143 
" style="fill:none;stroke:#808080;stroke-linecap:square;stroke-width:0.8;"/>
     </g>
     <g id="line2d_76">
      <g>
       <use style="stroke:#000000;stroke-width:0.8;" x="953.801668" xlink:href="#m682bd8049f" y="533.211429"/>
      </g>
     </g>
    </g>
    <g id="xtick_26">
     <g id="line2d_77">
      <path clip-path="url(#pca1917e4bf)" d="M 1075.852249 533.211429 
L 1075.852249 411.017143 
" style="fill:none;stroke:#808080;stroke-linecap:square;stroke-width:0.8;"/>
     </g>
     <g id="line2d_78">
      <g>
       <use style="stroke:#000000;stroke-width:0.8;" x="1075.852249" xlink:href="#m682bd8049f" y="533.211429"/>
      </g>
     </g>
    </g>
    <g id="xtick_27">
     <g id="line2d_79">
      <path clip-path="url(#pca1917e4bf)" d="M 1197.90283 533.211429 
L 1197.90283 411.017143 
" style="fill:none;stroke:#808080;stroke-linecap:square;stroke-width:0.8;"/>
     </g>
     <g id="line2d_80">
      <g>
       <use style="stroke:#000000;stroke-width:0.8;" x="1197.90283" xlink:href="#m682bd8049f" y="533.211429"/>
      </g>
     </g>
    </g>
   </g>
   <g id="matplotlib.axis_6">
    <g id="ytick_13">
     <g id="line2d_81">
      <path clip-path="url(#pca1917e4bf)" d="M 172.8 523.028571 
L 1244.16 523.028571 
" style="fill:none;stroke:#808080;stroke-linecap:square;stroke-width:0.8;"/>
     </g>
     <g id="line2d_82">
      <g>
       <use style="stroke:#000000;stroke-width:0.8;" x="172.8" xlink:href="#m06465f11e4" y="523.028571"/>
      </g>
     </g>
     <g id="text_17">
      <!-- 0 -->
      <g transform="translate(159.4375 526.82779)scale(0.1 -0.1)">
       <use xlink:href="#DejaVuSans-48"/>
      </g>
     </g>
    </g>
    <g id="ytick_14">
     <g id="line2d_83">
      <path clip-path="url(#pca1917e4bf)" d="M 172.8 502.662857 
L 1244.16 502.662857 
" style="fill:none;stroke:#808080;stroke-linecap:square;stroke-width:0.8;"/>
     </g>
     <g id="line2d_84">
      <g>
       <use style="stroke:#000000;stroke-width:0.8;" x="172.8" xlink:href="#m06465f11e4" y="502.662857"/>
      </g>
     </g>
     <g id="text_18">
      <!-- 1 -->
      <g transform="translate(159.4375 506.462076)scale(0.1 -0.1)">
       <use xlink:href="#DejaVuSans-49"/>
      </g>
     </g>
    </g>
    <g id="ytick_15">
     <g id="line2d_85">
      <path clip-path="url(#pca1917e4bf)" d="M 172.8 482.297143 
L 1244.16 482.297143 
" style="fill:none;stroke:#808080;stroke-linecap:square;stroke-width:0.8;"/>
     </g>
     <g id="line2d_86">
      <g>
       <use style="stroke:#000000;stroke-width:0.8;" x="172.8" xlink:href="#m06465f11e4" y="482.297143"/>
      </g>
     </g>
     <g id="text_19">
      <!-- 2 -->
      <g transform="translate(159.4375 486.096362)scale(0.1 -0.1)">
       <use xlink:href="#DejaVuSans-50"/>
      </g>
     </g>
    </g>
    <g id="ytick_16">
     <g id="line2d_87">
      <path clip-path="url(#pca1917e4bf)" d="M 172.8 461.931429 
L 1244.16 461.931429 
" style="fill:none;stroke:#808080;stroke-linecap:square;stroke-width:0.8;"/>
     </g>
     <g id="line2d_88">
      <g>
       <use style="stroke:#000000;stroke-width:0.8;" x="172.8" xlink:href="#m06465f11e4" y="461.931429"/>
      </g>
     </g>
     <g id="text_20">
      <!-- 3 -->
      <g transform="translate(159.4375 465.730647)scale(0.1 -0.1)">
       <use xlink:href="#DejaVuSans-51"/>
      </g>
     </g>
    </g>
    <g id="ytick_17">
     <g id="line2d_89">
      <path clip-path="url(#pca1917e4bf)" d="M 172.8 441.565714 
L 1244.16 441.565714 
" style="fill:none;stroke:#808080;stroke-linecap:square;stroke-width:0.8;"/>
     </g>
     <g id="line2d_90">
      <g>
       <use style="stroke:#000000;stroke-width:0.8;" x="172.8" xlink:href="#m06465f11e4" y="441.565714"/>
      </g>
     </g>
     <g id="text_21">
      <!-- 4 -->
      <g transform="translate(159.4375 445.364933)scale(0.1 -0.1)">
       <use xlink:href="#DejaVuSans-52"/>
      </g>
     </g>
    </g>
    <g id="ytick_18">
     <g id="line2d_91">
      <path clip-path="url(#pca1917e4bf)" d="M 172.8 421.2 
L 1244.16 421.2 
" style="fill:none;stroke:#808080;stroke-linecap:square;stroke-width:0.8;"/>
     </g>
     <g id="line2d_92">
      <g>
       <use style="stroke:#000000;stroke-width:0.8;" x="172.8" xlink:href="#m06465f11e4" y="421.2"/>
      </g>
     </g>
     <g id="text_22">
      <!-- 5 -->
      <g transform="translate(159.4375 424.999219)scale(0.1 -0.1)">
       <use xlink:href="#DejaVuSans-53"/>
      </g>
     </g>
    </g>
    <g id="text_23">
     <!-- Voltagem (V) -->
     <g transform="translate(152.11 524.785536)rotate(-90)scale(0.16 -0.16)">
      <use xlink:href="#DejaVuSans-86"/>
      <use x="68.298828" xlink:href="#DejaVuSans-111"/>
      <use x="129.480469" xlink:href="#DejaVuSans-108"/>
      <use x="157.263672" xlink:href="#DejaVuSans-116"/>
      <use x="196.472656" xlink:href="#DejaVuSans-97"/>
      <use x="257.751953" xlink:href="#DejaVuSans-103"/>
      <use x="321.228516" xlink:href="#DejaVuSans-101"/>
      <use x="382.751953" xlink:href="#DejaVuSans-109"/>
      <use x="480.164062" xlink:href="#DejaVuSans-32"/>
      <use x="511.951172" xlink:href="#DejaVuSans-40"/>
      <use x="550.964844" xlink:href="#DejaVuSans-86"/>
      <use x="619.373047" xlink:href="#DejaVuSans-41"/>
     </g>
    </g>
   </g>
   <g id="line2d_93">
    <path clip-path="url(#pca1917e4bf)" d="M 221.498182 523.028571 
L 343.548763 523.028571 
L 345.989774 489.781543 
L 348.430786 443.693931 
L 350.871798 455.444949 
L 353.312809 459.426446 
L 355.753821 456.636343 
L 358.194833 457.827737 
L 360.635844 457.929566 
L 363.076856 457.237131 
L 365.517867 457.929566 
L 367.958879 457.237131 
L 370.399891 457.827737 
L 372.840902 457.135303 
L 375.281914 457.634263 
L 377.722925 457.532434 
L 380.163937 458.031394 
L 382.604949 457.328777 
L 385.04596 457.328777 
L 387.486972 457.929566 
L 389.927984 457.532434 
L 394.810007 457.532434 
L 397.251018 457.827737 
L 399.69203 457.430606 
L 402.133042 457.532434 
L 404.574053 457.827737 
L 407.015065 457.328777 
L 411.897088 457.634263 
L 414.3381 456.931646 
L 416.779111 458.133223 
L 419.220123 457.430606 
L 421.661135 457.430606 
L 424.102146 457.827737 
L 426.543158 457.328777 
L 428.98417 457.827737 
L 431.425181 457.532434 
L 433.866193 457.634263 
L 438.748216 457.532434 
L 441.189228 457.634263 
L 443.630239 457.135303 
L 448.512262 457.725909 
L 453.394286 457.532434 
L 455.835297 457.237131 
L 458.276309 457.827737 
L 463.158332 457.430606 
L 465.599344 457.634263 
L 468.040355 470.271189 
L 470.481367 485.504743 
L 472.922379 498.5388 
L 475.36339 512.479131 
L 477.804402 523.028571 
L 587.649925 523.028571 
L 590.090936 487.795886 
L 592.531948 442.604366 
L 594.97296 446.677509 
L 597.413971 441.005657 
L 599.854983 445.190811 
L 602.295995 444.488194 
L 604.737006 445.088983 
L 607.178018 445.384286 
L 609.619029 444.590023 
L 612.060041 445.29264 
L 614.501053 444.79368 
L 616.942064 444.885326 
L 619.383076 445.190811 
L 621.824087 444.987154 
L 624.265099 445.088983 
L 626.706111 444.691851 
L 629.147122 445.29264 
L 631.588134 444.79368 
L 634.029146 444.885326 
L 636.470157 445.384286 
L 638.911169 444.396549 
L 641.35218 445.088983 
L 643.793192 445.384286 
L 646.234204 444.691851 
L 648.675215 445.29264 
L 651.116227 444.691851 
L 653.557239 445.088983 
L 655.99825 444.79368 
L 658.439262 445.486114 
L 660.880273 444.29472 
L 663.321285 445.384286 
L 665.762297 444.488194 
L 668.203308 444.885326 
L 670.64432 444.987154 
L 673.085332 444.691851 
L 675.526343 445.384286 
L 677.967355 444.590023 
L 680.408366 444.987154 
L 682.849378 444.885326 
L 687.731401 445.29264 
L 690.172413 444.590023 
L 692.613424 445.190811 
L 695.054436 444.885326 
L 699.936459 444.987154 
L 702.377471 445.384286 
L 704.818483 444.396549 
L 707.259494 445.088983 
L 709.700506 444.590023 
L 712.141517 458.723829 
L 714.582529 474.059211 
L 717.023541 488.590149 
L 719.464552 504.31248 
L 721.905564 509.190069 
L 724.346576 502.326823 
L 726.787587 511.776514 
L 729.228599 494.76096 
L 731.66961 503.915349 
L 734.110622 512.58096 
L 736.551634 492.76512 
L 738.992645 502.021337 
L 741.433657 513.874183 
L 743.874668 491.278423 
L 746.31568 499.03776 
L 748.756692 512.082 
L 751.197703 494.058343 
L 753.638715 501.430731 
L 756.079727 514.271314 
L 758.520738 488.98728 
L 760.96175 496.848446 
L 763.402761 512.183829 
L 765.843773 491.675554 
L 768.284785 500.636469 
L 770.725796 512.58096 
L 773.166808 492.26616 
L 775.60782 501.328903 
L 778.048831 514.067657 
L 780.489843 490.382331 
L 782.930854 498.742457 
L 785.371866 510.58512 
L 787.812878 498.742457 
L 790.253889 507.499714 
L 792.694901 505.015097 
L 795.135913 509.892686 
L 797.576924 501.430731 
L 800.017936 510.788777 
L 802.458947 498.141669 
L 804.899959 506.501794 
L 807.340971 507.499714 
L 809.781982 506.30832 
L 812.222994 508.691109 
L 814.664005 502.917429 
L 817.105017 512.672606 
L 819.546029 491.970857 
L 821.98704 501.0336 
L 824.428052 513.375223 
L 826.869064 490.382331 
L 829.310075 500.229154 
L 831.751087 511.878343 
L 834.192098 478.132354 
L 836.63311 469.975886 
L 839.074122 484.608651 
L 841.515133 494.76096 
L 843.956145 483.315429 
L 846.397157 491.176594 
L 848.838168 487.795886 
L 851.27918 491.176594 
L 853.720191 486.696137 
L 856.161203 492.968777 
L 858.602215 485.199257 
L 861.043226 492.072686 
L 863.484238 486.899794 
L 865.925249 491.675554 
L 868.366261 486.99144 
L 870.807273 491.777383 
L 873.248284 486.003703 
L 875.689296 494.160171 
L 878.130308 482.918297 
L 880.571319 493.365909 
L 883.012331 482.521166 
L 885.453342 493.365909 
L 887.894354 484.71048 
L 890.335366 493.26408 
L 892.776377 482.918297 
L 895.217389 492.866949 
L 897.658401 486.797966 
L 900.099412 490.575806 
L 902.540424 488.885451 
L 904.981435 489.679714 
L 907.422447 489.883371 
L 909.863459 488.885451 
L 912.30447 490.382331 
L 914.745482 488.885451 
L 917.186494 490.382331 
L 919.627505 488.98728 
L 922.068517 489.588069 
L 924.509528 489.9852 
L 926.95054 489.180754 
L 929.391552 489.180754 
L 931.832563 490.382331 
L 934.273575 488.193017 
L 936.714586 491.869029 
L 939.155598 486.197177 
L 941.59661 492.469817 
L 944.037621 484.903954 
L 946.478633 493.661211 
L 948.919645 484.404994 
L 951.360656 491.675554 
L 953.801668 486.99144 
L 956.242679 497.449234 
L 958.683691 510.08616 
L 961.124703 520.146823 
L 963.565714 523.028571 
L 1075.852249 523.028571 
L 1078.29326 484.903954 
L 1080.734272 453.449109 
L 1085.616295 478.234183 
L 1088.057307 469.273269 
L 1090.498319 472.765989 
L 1092.93933 473.753726 
L 1095.380342 471.869897 
L 1097.821353 473.356594 
L 1100.262365 472.959463 
L 1102.703377 472.358674 
L 1105.144388 473.254766 
L 1107.5854 475.647737 
L 1110.026411 468.377177 
L 1112.467423 475.250606 
L 1114.908435 471.564411 
L 1117.349446 473.560251 
L 1119.790458 471.768069 
L 1122.23147 473.356594 
L 1124.672481 472.857634 
L 1127.113493 472.765989 
L 1129.554504 473.16312 
L 1131.995516 472.1652 
L 1136.877539 473.458423 
L 1139.318551 472.460503 
L 1141.759563 473.061291 
L 1144.200574 472.765989 
L 1149.082597 472.857634 
L 1151.523609 472.460503 
L 1153.964621 473.458423 
L 1156.405632 472.562331 
L 1158.846644 473.16312 
L 1161.287656 472.267029 
L 1163.728667 473.254766 
L 1166.169679 472.063371 
L 1168.61069 472.959463 
L 1171.051702 473.356594 
L 1173.492714 472.562331 
L 1175.933725 472.765989 
L 1178.374737 472.562331 
L 1180.815748 473.254766 
L 1183.25676 472.857634 
L 1188.138783 472.765989 
L 1190.579795 476.94096 
L 1193.020807 466.89048 
L 1195.461818 474.853474 
L 1195.461818 474.853474 
" style="fill:none;stroke:#ff0000;stroke-linecap:square;stroke-width:4;"/>
   </g>
   <g id="line2d_94">
    <path clip-path="url(#pca1917e4bf)" d="M 221.498182 523.028571 
L 341.107751 523.028571 
L 343.548763 441.565714 
L 463.158332 441.565714 
L 465.599344 523.028571 
L 585.208913 523.028571 
L 587.649925 421.2 
L 707.259494 421.2 
L 709.700506 502.662857 
L 829.310075 502.662857 
L 831.751087 482.297143 
L 951.360656 482.297143 
L 953.801668 523.028571 
L 1073.411237 523.028571 
L 1075.852249 461.931429 
L 1195.461818 461.931429 
L 1195.461818 461.931429 
" style="fill:none;stroke:#0000ff;stroke-dasharray:7.4,3.2;stroke-dashoffset:0;stroke-width:2;"/>
   </g>
   <g id="patch_13">
    <path d="M 172.8 533.211429 
L 172.8 411.017143 
" style="fill:none;stroke:#000000;stroke-linecap:square;stroke-linejoin:miter;stroke-width:0.8;"/>
   </g>
   <g id="patch_14">
    <path d="M 1244.16 533.211429 
L 1244.16 411.017143 
" style="fill:none;stroke:#000000;stroke-linecap:square;stroke-linejoin:miter;stroke-width:0.8;"/>
   </g>
   <g id="patch_15">
    <path d="M 172.8 533.211429 
L 1244.16 533.211429 
" style="fill:none;stroke:#000000;stroke-linecap:square;stroke-linejoin:miter;stroke-width:0.8;"/>
   </g>
   <g id="patch_16">
    <path d="M 172.8 411.017143 
L 1244.16 411.017143 
" style="fill:none;stroke:#000000;stroke-linecap:square;stroke-linejoin:miter;stroke-width:0.8;"/>
   </g>
   <g id="text_24">
    <!-- Dados Lidos - y(k) -->
    <defs>
     <path d="M 19.671875 64.796875 
L 19.671875 8.109375 
L 31.59375 8.109375 
Q 46.6875 8.109375 53.6875 14.9375 
Q 60.6875 21.78125 60.6875 36.53125 
Q 60.6875 51.171875 53.6875 57.984375 
Q 46.6875 64.796875 31.59375 64.796875 
z
M 9.8125 72.90625 
L 30.078125 72.90625 
Q 51.265625 72.90625 61.171875 64.09375 
Q 71.09375 55.28125 71.09375 36.53125 
Q 71.09375 17.671875 61.125 8.828125 
Q 51.171875 0 30.078125 0 
L 9.8125 0 
z
" id="DejaVuSans-68"/>
     <path d="M 44.28125 53.078125 
L 44.28125 44.578125 
Q 40.484375 46.53125 36.375 47.5 
Q 32.28125 48.484375 27.875 48.484375 
Q 21.1875 48.484375 17.84375 46.4375 
Q 14.5 44.390625 14.5 40.28125 
Q 14.5 37.15625 16.890625 35.375 
Q 19.28125 33.59375 26.515625 31.984375 
L 29.59375 31.296875 
Q 39.15625 29.25 43.1875 25.515625 
Q 47.21875 21.78125 47.21875 15.09375 
Q 47.21875 7.46875 41.1875 3.015625 
Q 35.15625 -1.421875 24.609375 -1.421875 
Q 20.21875 -1.421875 15.453125 -0.5625 
Q 10.6875 0.296875 5.421875 2 
L 5.421875 11.28125 
Q 10.40625 8.6875 15.234375 7.390625 
Q 20.0625 6.109375 24.8125 6.109375 
Q 31.15625 6.109375 34.5625 8.28125 
Q 37.984375 10.453125 37.984375 14.40625 
Q 37.984375 18.0625 35.515625 20.015625 
Q 33.0625 21.96875 24.703125 23.78125 
L 21.578125 24.515625 
Q 13.234375 26.265625 9.515625 29.90625 
Q 5.8125 33.546875 5.8125 39.890625 
Q 5.8125 47.609375 11.28125 51.796875 
Q 16.75 56 26.8125 56 
Q 31.78125 56 36.171875 55.265625 
Q 40.578125 54.546875 44.28125 53.078125 
z
" id="DejaVuSans-115"/>
     <path d="M 9.8125 72.90625 
L 19.671875 72.90625 
L 19.671875 8.296875 
L 55.171875 8.296875 
L 55.171875 0 
L 9.8125 0 
z
" id="DejaVuSans-76"/>
    </defs>
    <g transform="translate(613.784766 405.017143)scale(0.21 -0.21)">
     <use xlink:href="#DejaVuSans-68"/>
     <use x="77.001953" xlink:href="#DejaVuSans-97"/>
     <use x="138.28125" xlink:href="#DejaVuSans-100"/>
     <use x="201.757812" xlink:href="#DejaVuSans-111"/>
     <use x="262.939453" xlink:href="#DejaVuSans-115"/>
     <use x="315.039062" xlink:href="#DejaVuSans-32"/>
     <use x="346.826172" xlink:href="#DejaVuSans-76"/>
     <use x="402.539062" xlink:href="#DejaVuSans-105"/>
     <use x="430.322266" xlink:href="#DejaVuSans-100"/>
     <use x="493.798828" xlink:href="#DejaVuSans-111"/>
     <use x="554.980469" xlink:href="#DejaVuSans-115"/>
     <use x="607.080078" xlink:href="#DejaVuSans-32"/>
     <use x="638.867188" xlink:href="#DejaVuSans-45"/>
     <use x="674.951172" xlink:href="#DejaVuSans-32"/>
     <use x="706.738281" xlink:href="#DejaVuSans-121"/>
     <use x="765.917969" xlink:href="#DejaVuSans-40"/>
     <use x="804.931641" xlink:href="#DejaVuSans-107"/>
     <use x="862.841797" xlink:href="#DejaVuSans-41"/>
    </g>
   </g>
   <g id="legend_1">
    <g id="patch_17">
     <path d="M 1195.130312 448.373393 
L 1237.16 448.373393 
Q 1239.16 448.373393 1239.16 446.373393 
L 1239.16 418.017143 
Q 1239.16 416.017143 1237.16 416.017143 
L 1195.130312 416.017143 
Q 1193.130312 416.017143 1193.130312 418.017143 
L 1193.130312 446.373393 
Q 1193.130312 448.373393 1195.130312 448.373393 
z
" style="fill:#ffffff;opacity:0.8;stroke:#cccccc;stroke-linejoin:miter;"/>
    </g>
    <g id="line2d_95">
     <path d="M 1197.130312 424.11558 
L 1217.130312 424.11558 
" style="fill:none;stroke:#ff0000;stroke-linecap:square;stroke-width:4;"/>
    </g>
    <g id="line2d_96"/>
    <g id="text_25">
     <!-- y -->
     <g transform="translate(1225.130312 427.61558)scale(0.1 -0.1)">
      <use xlink:href="#DejaVuSans-121"/>
     </g>
    </g>
    <g id="line2d_97">
     <path d="M 1197.130312 438.793705 
L 1217.130312 438.793705 
" style="fill:none;stroke:#0000ff;stroke-dasharray:7.4,3.2;stroke-dashoffset:0;stroke-width:2;"/>
    </g>
    <g id="line2d_98"/>
    <g id="text_26">
     <!-- yr -->
     <g transform="translate(1225.130312 442.293705)scale(0.1 -0.1)">
      <use xlink:href="#DejaVuSans-121"/>
      <use x="59.179688" xlink:href="#DejaVuSans-114"/>
     </g>
    </g>
   </g>
  </g>
  <g id="axes_4">
   <g id="patch_18">
    <path d="M 172.8 692.064 
L 1244.16 692.064 
L 1244.16 569.869714 
L 172.8 569.869714 
z
" style="fill:#ffffff;"/>
   </g>
   <g id="matplotlib.axis_7">
    <g id="xtick_28">
     <g id="line2d_99">
      <path clip-path="url(#peecd2ef8d8)" d="M 221.498182 692.064 
L 221.498182 569.869714 
" style="fill:none;stroke:#808080;stroke-linecap:square;stroke-width:0.8;"/>
     </g>
     <g id="line2d_100">
      <g>
       <use style="stroke:#000000;stroke-width:0.8;" x="221.498182" xlink:href="#m682bd8049f" y="692.064"/>
      </g>
     </g>
     <g id="text_27">
      <!-- 0 -->
      <g transform="translate(218.316932 706.662438)scale(0.1 -0.1)">
       <use xlink:href="#DejaVuSans-48"/>
      </g>
     </g>
    </g>
    <g id="xtick_29">
     <g id="line2d_101">
      <path clip-path="url(#peecd2ef8d8)" d="M 343.548763 692.064 
L 343.548763 569.869714 
" style="fill:none;stroke:#808080;stroke-linecap:square;stroke-width:0.8;"/>
     </g>
     <g id="line2d_102">
      <g>
       <use style="stroke:#000000;stroke-width:0.8;" x="343.548763" xlink:href="#m682bd8049f" y="692.064"/>
      </g>
     </g>
     <g id="text_28">
      <!-- 50 -->
      <g transform="translate(337.186263 706.662438)scale(0.1 -0.1)">
       <use xlink:href="#DejaVuSans-53"/>
       <use x="63.623047" xlink:href="#DejaVuSans-48"/>
      </g>
     </g>
    </g>
    <g id="xtick_30">
     <g id="line2d_103">
      <path clip-path="url(#peecd2ef8d8)" d="M 465.599344 692.064 
L 465.599344 569.869714 
" style="fill:none;stroke:#808080;stroke-linecap:square;stroke-width:0.8;"/>
     </g>
     <g id="line2d_104">
      <g>
       <use style="stroke:#000000;stroke-width:0.8;" x="465.599344" xlink:href="#m682bd8049f" y="692.064"/>
      </g>
     </g>
     <g id="text_29">
      <!-- 100 -->
      <g transform="translate(456.055594 706.662438)scale(0.1 -0.1)">
       <use xlink:href="#DejaVuSans-49"/>
       <use x="63.623047" xlink:href="#DejaVuSans-48"/>
       <use x="127.246094" xlink:href="#DejaVuSans-48"/>
      </g>
     </g>
    </g>
    <g id="xtick_31">
     <g id="line2d_105">
      <path clip-path="url(#peecd2ef8d8)" d="M 587.649925 692.064 
L 587.649925 569.869714 
" style="fill:none;stroke:#808080;stroke-linecap:square;stroke-width:0.8;"/>
     </g>
     <g id="line2d_106">
      <g>
       <use style="stroke:#000000;stroke-width:0.8;" x="587.649925" xlink:href="#m682bd8049f" y="692.064"/>
      </g>
     </g>
     <g id="text_30">
      <!-- 150 -->
      <g transform="translate(578.106175 706.662438)scale(0.1 -0.1)">
       <use xlink:href="#DejaVuSans-49"/>
       <use x="63.623047" xlink:href="#DejaVuSans-53"/>
       <use x="127.246094" xlink:href="#DejaVuSans-48"/>
      </g>
     </g>
    </g>
    <g id="xtick_32">
     <g id="line2d_107">
      <path clip-path="url(#peecd2ef8d8)" d="M 709.700506 692.064 
L 709.700506 569.869714 
" style="fill:none;stroke:#808080;stroke-linecap:square;stroke-width:0.8;"/>
     </g>
     <g id="line2d_108">
      <g>
       <use style="stroke:#000000;stroke-width:0.8;" x="709.700506" xlink:href="#m682bd8049f" y="692.064"/>
      </g>
     </g>
     <g id="text_31">
      <!-- 200 -->
      <g transform="translate(700.156756 706.662438)scale(0.1 -0.1)">
       <use xlink:href="#DejaVuSans-50"/>
       <use x="63.623047" xlink:href="#DejaVuSans-48"/>
       <use x="127.246094" xlink:href="#DejaVuSans-48"/>
      </g>
     </g>
    </g>
    <g id="xtick_33">
     <g id="line2d_109">
      <path clip-path="url(#peecd2ef8d8)" d="M 831.751087 692.064 
L 831.751087 569.869714 
" style="fill:none;stroke:#808080;stroke-linecap:square;stroke-width:0.8;"/>
     </g>
     <g id="line2d_110">
      <g>
       <use style="stroke:#000000;stroke-width:0.8;" x="831.751087" xlink:href="#m682bd8049f" y="692.064"/>
      </g>
     </g>
     <g id="text_32">
      <!-- 250 -->
      <g transform="translate(822.207337 706.662438)scale(0.1 -0.1)">
       <use xlink:href="#DejaVuSans-50"/>
       <use x="63.623047" xlink:href="#DejaVuSans-53"/>
       <use x="127.246094" xlink:href="#DejaVuSans-48"/>
      </g>
     </g>
    </g>
    <g id="xtick_34">
     <g id="line2d_111">
      <path clip-path="url(#peecd2ef8d8)" d="M 953.801668 692.064 
L 953.801668 569.869714 
" style="fill:none;stroke:#808080;stroke-linecap:square;stroke-width:0.8;"/>
     </g>
     <g id="line2d_112">
      <g>
       <use style="stroke:#000000;stroke-width:0.8;" x="953.801668" xlink:href="#m682bd8049f" y="692.064"/>
      </g>
     </g>
     <g id="text_33">
      <!-- 300 -->
      <g transform="translate(944.257918 706.662438)scale(0.1 -0.1)">
       <use xlink:href="#DejaVuSans-51"/>
       <use x="63.623047" xlink:href="#DejaVuSans-48"/>
       <use x="127.246094" xlink:href="#DejaVuSans-48"/>
      </g>
     </g>
    </g>
    <g id="xtick_35">
     <g id="line2d_113">
      <path clip-path="url(#peecd2ef8d8)" d="M 1075.852249 692.064 
L 1075.852249 569.869714 
" style="fill:none;stroke:#808080;stroke-linecap:square;stroke-width:0.8;"/>
     </g>
     <g id="line2d_114">
      <g>
       <use style="stroke:#000000;stroke-width:0.8;" x="1075.852249" xlink:href="#m682bd8049f" y="692.064"/>
      </g>
     </g>
     <g id="text_34">
      <!-- 350 -->
      <g transform="translate(1066.308499 706.662438)scale(0.1 -0.1)">
       <use xlink:href="#DejaVuSans-51"/>
       <use x="63.623047" xlink:href="#DejaVuSans-53"/>
       <use x="127.246094" xlink:href="#DejaVuSans-48"/>
      </g>
     </g>
    </g>
    <g id="xtick_36">
     <g id="line2d_115">
      <path clip-path="url(#peecd2ef8d8)" d="M 1197.90283 692.064 
L 1197.90283 569.869714 
" style="fill:none;stroke:#808080;stroke-linecap:square;stroke-width:0.8;"/>
     </g>
     <g id="line2d_116">
      <g>
       <use style="stroke:#000000;stroke-width:0.8;" x="1197.90283" xlink:href="#m682bd8049f" y="692.064"/>
      </g>
     </g>
     <g id="text_35">
      <!-- 400 -->
      <g transform="translate(1188.35908 706.662438)scale(0.1 -0.1)">
       <use xlink:href="#DejaVuSans-52"/>
       <use x="63.623047" xlink:href="#DejaVuSans-48"/>
       <use x="127.246094" xlink:href="#DejaVuSans-48"/>
      </g>
     </g>
    </g>
    <g id="text_36">
     <!-- Amostras (k) -->
     <defs>
      <path d="M 34.1875 63.1875 
L 20.796875 26.90625 
L 47.609375 26.90625 
z
M 28.609375 72.90625 
L 39.796875 72.90625 
L 67.578125 0 
L 57.328125 0 
L 50.6875 18.703125 
L 17.828125 18.703125 
L 11.1875 0 
L 0.78125 0 
z
" id="DejaVuSans-65"/>
     </defs>
     <g transform="translate(650.835 726.419313)scale(0.18 -0.18)">
      <use xlink:href="#DejaVuSans-65"/>
      <use x="68.408203" xlink:href="#DejaVuSans-109"/>
      <use x="165.820312" xlink:href="#DejaVuSans-111"/>
      <use x="227.001953" xlink:href="#DejaVuSans-115"/>
      <use x="279.101562" xlink:href="#DejaVuSans-116"/>
      <use x="318.310547" xlink:href="#DejaVuSans-114"/>
      <use x="359.423828" xlink:href="#DejaVuSans-97"/>
      <use x="420.703125" xlink:href="#DejaVuSans-115"/>
      <use x="472.802734" xlink:href="#DejaVuSans-32"/>
      <use x="504.589844" xlink:href="#DejaVuSans-40"/>
      <use x="543.603516" xlink:href="#DejaVuSans-107"/>
      <use x="601.513672" xlink:href="#DejaVuSans-41"/>
     </g>
    </g>
   </g>
   <g id="matplotlib.axis_8">
    <g id="ytick_19">
     <g id="line2d_117">
      <path clip-path="url(#peecd2ef8d8)" d="M 172.8 675.401143 
L 1244.16 675.401143 
" style="fill:none;stroke:#808080;stroke-linecap:square;stroke-width:0.8;"/>
     </g>
     <g id="line2d_118">
      <g>
       <use style="stroke:#000000;stroke-width:0.8;" x="172.8" xlink:href="#m06465f11e4" y="675.401143"/>
      </g>
     </g>
     <g id="text_37">
      <!-- −4 -->
      <defs>
       <path d="M 10.59375 35.5 
L 73.1875 35.5 
L 73.1875 27.203125 
L 10.59375 27.203125 
z
" id="DejaVuSans-8722"/>
      </defs>
      <g transform="translate(151.057812 679.200362)scale(0.1 -0.1)">
       <use xlink:href="#DejaVuSans-8722"/>
       <use x="83.789062" xlink:href="#DejaVuSans-52"/>
      </g>
     </g>
    </g>
    <g id="ytick_20">
     <g id="line2d_119">
      <path clip-path="url(#peecd2ef8d8)" d="M 172.8 653.184 
L 1244.16 653.184 
" style="fill:none;stroke:#808080;stroke-linecap:square;stroke-width:0.8;"/>
     </g>
     <g id="line2d_120">
      <g>
       <use style="stroke:#000000;stroke-width:0.8;" x="172.8" xlink:href="#m06465f11e4" y="653.184"/>
      </g>
     </g>
     <g id="text_38">
      <!-- −2 -->
      <g transform="translate(151.057812 656.983219)scale(0.1 -0.1)">
       <use xlink:href="#DejaVuSans-8722"/>
       <use x="83.789062" xlink:href="#DejaVuSans-50"/>
      </g>
     </g>
    </g>
    <g id="ytick_21">
     <g id="line2d_121">
      <path clip-path="url(#peecd2ef8d8)" d="M 172.8 630.966857 
L 1244.16 630.966857 
" style="fill:none;stroke:#808080;stroke-linecap:square;stroke-width:0.8;"/>
     </g>
     <g id="line2d_122">
      <g>
       <use style="stroke:#000000;stroke-width:0.8;" x="172.8" xlink:href="#m06465f11e4" y="630.966857"/>
      </g>
     </g>
     <g id="text_39">
      <!-- 0 -->
      <g transform="translate(159.4375 634.766076)scale(0.1 -0.1)">
       <use xlink:href="#DejaVuSans-48"/>
      </g>
     </g>
    </g>
    <g id="ytick_22">
     <g id="line2d_123">
      <path clip-path="url(#peecd2ef8d8)" d="M 172.8 608.749714 
L 1244.16 608.749714 
" style="fill:none;stroke:#808080;stroke-linecap:square;stroke-width:0.8;"/>
     </g>
     <g id="line2d_124">
      <g>
       <use style="stroke:#000000;stroke-width:0.8;" x="172.8" xlink:href="#m06465f11e4" y="608.749714"/>
      </g>
     </g>
     <g id="text_40">
      <!-- 2 -->
      <g transform="translate(159.4375 612.548933)scale(0.1 -0.1)">
       <use xlink:href="#DejaVuSans-50"/>
      </g>
     </g>
    </g>
    <g id="ytick_23">
     <g id="line2d_125">
      <path clip-path="url(#peecd2ef8d8)" d="M 172.8 586.532571 
L 1244.16 586.532571 
" style="fill:none;stroke:#808080;stroke-linecap:square;stroke-width:0.8;"/>
     </g>
     <g id="line2d_126">
      <g>
       <use style="stroke:#000000;stroke-width:0.8;" x="172.8" xlink:href="#m06465f11e4" y="586.532571"/>
      </g>
     </g>
     <g id="text_41">
      <!-- 4 -->
      <g transform="translate(159.4375 590.33179)scale(0.1 -0.1)">
       <use xlink:href="#DejaVuSans-52"/>
      </g>
     </g>
    </g>
    <g id="text_42">
     <!-- Voltagem (V) -->
     <g transform="translate(143.730312 683.638107)rotate(-90)scale(0.16 -0.16)">
      <use xlink:href="#DejaVuSans-86"/>
      <use x="68.298828" xlink:href="#DejaVuSans-111"/>
      <use x="129.480469" xlink:href="#DejaVuSans-108"/>
      <use x="157.263672" xlink:href="#DejaVuSans-116"/>
      <use x="196.472656" xlink:href="#DejaVuSans-97"/>
      <use x="257.751953" xlink:href="#DejaVuSans-103"/>
      <use x="321.228516" xlink:href="#DejaVuSans-101"/>
      <use x="382.751953" xlink:href="#DejaVuSans-109"/>
      <use x="480.164062" xlink:href="#DejaVuSans-32"/>
      <use x="511.951172" xlink:href="#DejaVuSans-40"/>
      <use x="550.964844" xlink:href="#DejaVuSans-86"/>
      <use x="619.373047" xlink:href="#DejaVuSans-41"/>
     </g>
    </g>
   </g>
   <g id="line2d_127">
    <path clip-path="url(#peecd2ef8d8)" d="M 221.498182 630.966857 
L 341.107751 630.966857 
L 343.548763 586.532571 
L 345.989774 604.667314 
L 348.430786 629.806011 
L 350.871798 623.396366 
L 353.312809 621.22464 
L 355.753821 622.746514 
L 358.194833 622.096663 
L 360.635844 622.04112 
L 363.076856 622.418811 
L 365.517867 622.04112 
L 367.958879 622.418811 
L 370.399891 622.096663 
L 372.840902 622.474354 
L 375.281914 622.202194 
L 377.722925 622.257737 
L 380.163937 621.985577 
L 382.604949 622.368823 
L 385.04596 622.368823 
L 387.486972 622.04112 
L 389.927984 622.257737 
L 394.810007 622.257737 
L 397.251018 622.096663 
L 399.69203 622.31328 
L 404.574053 622.096663 
L 407.015065 622.368823 
L 411.897088 622.202194 
L 414.3381 622.58544 
L 416.779111 621.930034 
L 419.220123 622.31328 
L 421.661135 622.31328 
L 424.102146 622.096663 
L 426.543158 622.368823 
L 428.98417 622.096663 
L 431.425181 622.257737 
L 436.307204 622.257737 
L 441.189228 622.202194 
L 443.630239 622.474354 
L 448.512262 622.152206 
L 453.394286 622.257737 
L 455.835297 622.418811 
L 458.276309 622.096663 
L 463.158332 622.31328 
L 465.599344 666.63648 
L 468.040355 659.743611 
L 470.481367 651.4344 
L 472.922379 644.324914 
L 475.36339 636.721097 
L 477.804402 630.966857 
L 585.208913 630.966857 
L 587.649925 575.424 
L 590.090936 594.641829 
L 592.531948 619.291749 
L 594.97296 617.070034 
L 597.413971 620.163771 
L 599.854983 617.88096 
L 602.295995 618.264206 
L 604.737006 617.936503 
L 607.178018 617.775429 
L 609.619029 618.208663 
L 612.060041 617.825417 
L 614.501053 618.097577 
L 616.942064 618.047589 
L 619.383076 617.88096 
L 621.824087 617.992046 
L 624.265099 617.936503 
L 626.706111 618.15312 
L 629.147122 617.825417 
L 631.588134 618.097577 
L 634.029146 618.047589 
L 636.470157 617.775429 
L 638.911169 618.314194 
L 641.35218 617.936503 
L 643.793192 617.775429 
L 646.234204 618.15312 
L 648.675215 617.825417 
L 651.116227 618.15312 
L 653.557239 617.936503 
L 655.99825 618.097577 
L 658.439262 617.719886 
L 660.880273 618.369737 
L 663.321285 617.775429 
L 665.762297 618.264206 
L 668.203308 618.047589 
L 670.64432 617.992046 
L 673.085332 618.15312 
L 675.526343 617.775429 
L 677.967355 618.208663 
L 680.408366 617.992046 
L 682.849378 618.047589 
L 687.731401 617.825417 
L 690.172413 618.208663 
L 692.613424 617.88096 
L 695.054436 618.047589 
L 702.377471 617.775429 
L 704.818483 618.314194 
L 707.259494 617.936503 
L 709.700506 662.642949 
L 712.141517 654.9336 
L 714.582529 646.568846 
L 717.023541 638.64288 
L 719.464552 630.067063 
L 721.905564 627.40656 
L 724.346576 631.150149 
L 726.787587 625.995771 
L 729.228599 635.276983 
L 731.66961 630.28368 
L 734.110622 625.556983 
L 736.551634 636.365623 
L 738.992645 631.316777 
L 741.433657 624.851589 
L 743.874668 637.176549 
L 746.31568 632.944183 
L 748.756692 625.829143 
L 751.197703 635.660229 
L 753.638715 631.638926 
L 756.079727 624.634971 
L 758.520738 638.426263 
L 760.96175 634.138354 
L 763.402761 625.7736 
L 765.843773 636.959931 
L 768.284785 632.07216 
L 770.725796 625.556983 
L 773.166808 636.637783 
L 775.60782 631.694469 
L 778.048831 624.746057 
L 780.489843 637.665326 
L 782.930854 633.105257 
L 785.371866 626.645623 
L 787.812878 633.105257 
L 790.253889 628.328571 
L 792.694901 629.683817 
L 795.135913 627.023314 
L 797.576924 631.638926 
L 800.017936 626.534537 
L 802.458947 633.43296 
L 804.899959 628.872891 
L 807.340971 628.328571 
L 809.781982 628.978423 
L 812.222994 627.67872 
L 814.664005 630.828 
L 817.105017 625.506994 
L 819.546029 636.798857 
L 821.98704 631.855543 
L 824.428052 625.123749 
L 826.869064 637.665326 
L 829.310075 632.294331 
L 831.751087 614.831657 
L 834.192098 633.23856 
L 836.63311 637.687543 
L 839.074122 629.706034 
L 841.515133 624.168411 
L 843.956145 630.411429 
L 846.397157 626.12352 
L 848.838168 627.967543 
L 851.27918 626.12352 
L 853.720191 628.567406 
L 856.161203 625.145966 
L 858.602215 629.383886 
L 861.043226 625.634743 
L 863.484238 628.45632 
L 865.925249 625.85136 
L 868.366261 628.406331 
L 870.807273 625.795817 
L 873.248284 628.945097 
L 875.689296 624.496114 
L 878.130308 630.628046 
L 880.571319 624.929349 
L 883.012331 630.844663 
L 885.453342 624.929349 
L 887.894354 629.650491 
L 890.335366 624.984891 
L 892.776377 630.628046 
L 895.217389 625.201509 
L 897.658401 628.511863 
L 900.099412 626.451223 
L 902.540424 627.373234 
L 904.981435 626.94 
L 907.422447 626.828914 
L 909.863459 627.373234 
L 912.30447 626.556754 
L 914.745482 627.373234 
L 917.186494 626.556754 
L 919.627505 627.317691 
L 924.509528 626.773371 
L 926.95054 627.21216 
L 929.391552 627.21216 
L 931.832563 626.556754 
L 934.273575 627.750926 
L 936.714586 625.745829 
L 939.155598 628.839566 
L 941.59661 625.418126 
L 944.037621 629.54496 
L 946.478633 624.768274 
L 948.919645 629.81712 
L 951.360656 625.85136 
L 953.801668 650.623474 
L 956.242679 644.919223 
L 958.683691 638.026354 
L 961.124703 632.53872 
L 963.565714 630.966857 
L 1073.411237 630.966857 
L 1075.852249 597.641143 
L 1078.29326 618.436389 
L 1080.734272 635.593577 
L 1085.616295 622.074446 
L 1088.057307 626.962217 
L 1090.498319 625.057097 
L 1092.93933 624.518331 
L 1095.380342 625.545874 
L 1097.821353 624.734949 
L 1102.703377 625.279269 
L 1105.144388 624.790491 
L 1107.5854 623.485234 
L 1110.026411 627.450994 
L 1112.467423 623.701851 
L 1114.908435 625.712503 
L 1117.349446 624.623863 
L 1119.790458 625.601417 
L 1122.23147 624.734949 
L 1124.672481 625.007109 
L 1127.113493 625.057097 
L 1129.554504 624.84048 
L 1131.995516 625.3848 
L 1136.877539 624.679406 
L 1139.318551 625.223726 
L 1141.759563 624.896023 
L 1144.200574 625.057097 
L 1149.082597 625.007109 
L 1151.523609 625.223726 
L 1153.964621 624.679406 
L 1156.405632 625.168183 
L 1158.846644 624.84048 
L 1161.287656 625.329257 
L 1163.728667 624.790491 
L 1166.169679 625.440343 
L 1168.61069 624.951566 
L 1171.051702 624.734949 
L 1173.492714 625.168183 
L 1175.933725 625.057097 
L 1178.374737 625.168183 
L 1180.815748 624.790491 
L 1183.25676 625.007109 
L 1188.138783 625.057097 
L 1190.579795 622.77984 
L 1193.020807 628.26192 
L 1195.461818 623.918469 
L 1195.461818 623.918469 
" style="fill:none;stroke:#000000;stroke-linecap:square;stroke-width:4;"/>
   </g>
   <g id="patch_19">
    <path d="M 172.8 692.064 
L 172.8 569.869714 
" style="fill:none;stroke:#000000;stroke-linecap:square;stroke-linejoin:miter;stroke-width:0.8;"/>
   </g>
   <g id="patch_20">
    <path d="M 1244.16 692.064 
L 1244.16 569.869714 
" style="fill:none;stroke:#000000;stroke-linecap:square;stroke-linejoin:miter;stroke-width:0.8;"/>
   </g>
   <g id="patch_21">
    <path d="M 172.8 692.064 
L 1244.16 692.064 
" style="fill:none;stroke:#000000;stroke-linecap:square;stroke-linejoin:miter;stroke-width:0.8;"/>
   </g>
   <g id="patch_22">
    <path d="M 172.8 569.869714 
L 1244.16 569.869714 
" style="fill:none;stroke:#000000;stroke-linecap:square;stroke-linejoin:miter;stroke-width:0.8;"/>
   </g>
   <g id="text_43">
    <!-- Erro - e(k) -->
    <defs>
     <path d="M 9.8125 72.90625 
L 55.90625 72.90625 
L 55.90625 64.59375 
L 19.671875 64.59375 
L 19.671875 43.015625 
L 54.390625 43.015625 
L 54.390625 34.71875 
L 19.671875 34.71875 
L 19.671875 8.296875 
L 56.78125 8.296875 
L 56.78125 0 
L 9.8125 0 
z
" id="DejaVuSans-69"/>
    </defs>
    <g transform="translate(655.596094 563.869714)scale(0.21 -0.21)">
     <use xlink:href="#DejaVuSans-69"/>
     <use x="63.183594" xlink:href="#DejaVuSans-114"/>
     <use x="104.28125" xlink:href="#DejaVuSans-114"/>
     <use x="145.363281" xlink:href="#DejaVuSans-111"/>
     <use x="206.544922" xlink:href="#DejaVuSans-32"/>
     <use x="238.332031" xlink:href="#DejaVuSans-45"/>
     <use x="274.416016" xlink:href="#DejaVuSans-32"/>
     <use x="306.203125" xlink:href="#DejaVuSans-101"/>
     <use x="367.726562" xlink:href="#DejaVuSans-40"/>
     <use x="406.740234" xlink:href="#DejaVuSans-107"/>
     <use x="464.650391" xlink:href="#DejaVuSans-41"/>
    </g>
   </g>
  </g>
  <g id="text_44">
   <!-- Controlador avanço - LR -->
   <defs>
    <path d="M 64.40625 67.28125 
L 64.40625 56.890625 
Q 59.421875 61.53125 53.78125 63.8125 
Q 48.140625 66.109375 41.796875 66.109375 
Q 29.296875 66.109375 22.65625 58.46875 
Q 16.015625 50.828125 16.015625 36.375 
Q 16.015625 21.96875 22.65625 14.328125 
Q 29.296875 6.6875 41.796875 6.6875 
Q 48.140625 6.6875 53.78125 8.984375 
Q 59.421875 11.28125 64.40625 15.921875 
L 64.40625 5.609375 
Q 59.234375 2.09375 53.4375 0.328125 
Q 47.65625 -1.421875 41.21875 -1.421875 
Q 24.65625 -1.421875 15.125 8.703125 
Q 5.609375 18.84375 5.609375 36.375 
Q 5.609375 53.953125 15.125 64.078125 
Q 24.65625 74.21875 41.21875 74.21875 
Q 47.75 74.21875 53.53125 72.484375 
Q 59.328125 70.75 64.40625 67.28125 
z
" id="DejaVuSans-67"/>
    <path d="M 2.984375 54.6875 
L 12.5 54.6875 
L 29.59375 8.796875 
L 46.6875 54.6875 
L 56.203125 54.6875 
L 35.6875 0 
L 23.484375 0 
z
" id="DejaVuSans-118"/>
    <path d="M 48.78125 52.59375 
L 48.78125 44.1875 
Q 44.96875 46.296875 41.140625 47.34375 
Q 37.3125 48.390625 33.40625 48.390625 
Q 24.65625 48.390625 19.8125 42.84375 
Q 14.984375 37.3125 14.984375 27.296875 
Q 14.984375 17.28125 19.8125 11.734375 
Q 24.65625 6.203125 33.40625 6.203125 
Q 37.3125 6.203125 41.140625 7.25 
Q 44.96875 8.296875 48.78125 10.40625 
L 48.78125 2.09375 
Q 45.015625 0.34375 40.984375 -0.53125 
Q 36.96875 -1.421875 32.421875 -1.421875 
Q 20.0625 -1.421875 12.78125 6.34375 
Q 5.515625 14.109375 5.515625 27.296875 
Q 5.515625 40.671875 12.859375 48.328125 
Q 20.21875 56 33.015625 56 
Q 37.15625 56 41.109375 55.140625 
Q 45.0625 54.296875 48.78125 52.59375 
z
M 36.109375 0 
Q 38.78125 -3.03125 40.09375 -5.59375 
Q 41.421875 -8.15625 41.421875 -10.5 
Q 41.421875 -14.84375 38.484375 -17.0625 
Q 35.5625 -19.28125 29.796875 -19.28125 
Q 27.5625 -19.28125 25.4375 -18.984375 
Q 23.3125 -18.703125 21.203125 -18.109375 
L 21.203125 -11.71875 
Q 22.875 -12.546875 24.671875 -12.90625 
Q 26.484375 -13.28125 28.78125 -13.28125 
Q 31.65625 -13.28125 33.125 -12.109375 
Q 34.59375 -10.9375 34.59375 -8.6875 
Q 34.59375 -7.234375 33.53125 -5.109375 
Q 32.484375 -2.984375 30.296875 0 
z
" id="DejaVuSans-231"/>
   </defs>
   <g transform="translate(534.07875 35.307937)scale(0.26 -0.26)">
    <use xlink:href="#DejaVuSans-67"/>
    <use x="69.824219" xlink:href="#DejaVuSans-111"/>
    <use x="131.005859" xlink:href="#DejaVuSans-110"/>
    <use x="194.384766" xlink:href="#DejaVuSans-116"/>
    <use x="233.59375" xlink:href="#DejaVuSans-114"/>
    <use x="274.675781" xlink:href="#DejaVuSans-111"/>
    <use x="335.857422" xlink:href="#DejaVuSans-108"/>
    <use x="363.640625" xlink:href="#DejaVuSans-97"/>
    <use x="424.919922" xlink:href="#DejaVuSans-100"/>
    <use x="488.396484" xlink:href="#DejaVuSans-111"/>
    <use x="549.578125" xlink:href="#DejaVuSans-114"/>
    <use x="590.691406" xlink:href="#DejaVuSans-32"/>
    <use x="622.478516" xlink:href="#DejaVuSans-97"/>
    <use x="683.757812" xlink:href="#DejaVuSans-118"/>
    <use x="742.9375" xlink:href="#DejaVuSans-97"/>
    <use x="804.216797" xlink:href="#DejaVuSans-110"/>
    <use x="867.595703" xlink:href="#DejaVuSans-231"/>
    <use x="922.576172" xlink:href="#DejaVuSans-111"/>
    <use x="983.757812" xlink:href="#DejaVuSans-32"/>
    <use x="1015.544922" xlink:href="#DejaVuSans-45"/>
    <use x="1051.628906" xlink:href="#DejaVuSans-32"/>
    <use x="1083.416016" xlink:href="#DejaVuSans-76"/>
    <use x="1139.128906" xlink:href="#DejaVuSans-82"/>
   </g>
  </g>
 </g>
 <defs>
  <clipPath id="pea92a4ff02">
   <rect height="122.194286" width="1071.36" x="172.8" y="93.312"/>
  </clipPath>
  <clipPath id="pf22b001be1">
   <rect height="122.194286" width="1071.36" x="172.8" y="252.164571"/>
  </clipPath>
  <clipPath id="pca1917e4bf">
   <rect height="122.194286" width="1071.36" x="172.8" y="411.017143"/>
  </clipPath>
  <clipPath id="peecd2ef8d8">
   <rect height="122.194286" width="1071.36" x="172.8" y="569.869714"/>
  </clipPath>
 </defs>
</svg>
