<svg xmlns="http://www.w3.org/2000/svg" xmlns:xlink="http://www.w3.org/1999/xlink" width="1843.2" height="1036.8" version="1.1" viewBox="0 0 1382.4 777.6"><defs><style type="text/css">*{stroke-linecap:butt;stroke-linejoin:round;white-space:pre}</style></defs><g id="figure_1"><g id="patch_1"><path fill="#fff" d="M 0 777.6 L 1382.4 777.6 L 1382.4 0 L 0 0 z"/></g><g id="axes_1"><g id="patch_2"><path fill="#fff" d="M 172.8 215.506286 L 1244.16 215.506286 L 1244.16 93.312 L 172.8 93.312 z"/></g><g id="matplotlib.axis_1"><g id="xtick_1"><g id="line2d_1"><path fill="none" stroke="gray" stroke-linecap="square" stroke-width=".8" d="M 221.498182 215.506286 L 221.498182 93.312" clip-path="url(#pb7f0ac1a0d)"/></g><g id="line2d_2"><defs><path id="m425f81a4bb" stroke="#000" stroke-width=".8" d="M 0 0 L 0 3.5"/></defs><g><use x="221.498" y="215.506" stroke="#000" stroke-width=".8" xlink:href="#m425f81a4bb"/></g></g></g><g id="xtick_2"><g id="line2d_3"><path fill="none" stroke="gray" stroke-linecap="square" stroke-width=".8" d="M 343.548763 215.506286 L 343.548763 93.312" clip-path="url(#pb7f0ac1a0d)"/></g><g id="line2d_4"><g><use x="343.549" y="215.506" stroke="#000" stroke-width=".8" xlink:href="#m425f81a4bb"/></g></g></g><g id="xtick_3"><g id="line2d_5"><path fill="none" stroke="gray" stroke-linecap="square" stroke-width=".8" d="M 465.599344 215.506286 L 465.599344 93.312" clip-path="url(#pb7f0ac1a0d)"/></g><g id="line2d_6"><g><use x="465.599" y="215.506" stroke="#000" stroke-width=".8" xlink:href="#m425f81a4bb"/></g></g></g><g id="xtick_4"><g id="line2d_7"><path fill="none" stroke="gray" stroke-linecap="square" stroke-width=".8" d="M 587.649925 215.506286 L 587.649925 93.312" clip-path="url(#pb7f0ac1a0d)"/></g><g id="line2d_8"><g><use x="587.65" y="215.506" stroke="#000" stroke-width=".8" xlink:href="#m425f81a4bb"/></g></g></g><g id="xtick_5"><g id="line2d_9"><path fill="none" stroke="gray" stroke-linecap="square" stroke-width=".8" d="M 709.700506 215.506286 L 709.700506 93.312" clip-path="url(#pb7f0ac1a0d)"/></g><g id="line2d_10"><g><use x="709.701" y="215.506" stroke="#000" stroke-width=".8" xlink:href="#m425f81a4bb"/></g></g></g><g id="xtick_6"><g id="line2d_11"><path fill="none" stroke="gray" stroke-linecap="square" stroke-width=".8" d="M 831.751087 215.506286 L 831.751087 93.312" clip-path="url(#pb7f0ac1a0d)"/></g><g id="line2d_12"><g><use x="831.751" y="215.506" stroke="#000" stroke-width=".8" xlink:href="#m425f81a4bb"/></g></g></g><g id="xtick_7"><g id="line2d_13"><path fill="none" stroke="gray" stroke-linecap="square" stroke-width=".8" d="M 953.801668 215.506286 L 953.801668 93.312" clip-path="url(#pb7f0ac1a0d)"/></g><g id="line2d_14"><g><use x="953.802" y="215.506" stroke="#000" stroke-width=".8" xlink:href="#m425f81a4bb"/></g></g></g><g id="xtick_8"><g id="line2d_15"><path fill="none" stroke="gray" stroke-linecap="square" stroke-width=".8" d="M 1075.852249 215.506286 L 1075.852249 93.312" clip-path="url(#pb7f0ac1a0d)"/></g><g id="line2d_16"><g><use x="1075.852" y="215.506" stroke="#000" stroke-width=".8" xlink:href="#m425f81a4bb"/></g></g></g><g id="xtick_9"><g id="line2d_17"><path fill="none" stroke="gray" stroke-linecap="square" stroke-width=".8" d="M 1197.90283 215.506286 L 1197.90283 93.312" clip-path="url(#pb7f0ac1a0d)"/></g><g id="line2d_18"><g><use x="1197.903" y="215.506" stroke="#000" stroke-width=".8" xlink:href="#m425f81a4bb"/></g></g></g></g><g id="matplotlib.axis_2"><g id="ytick_1"><g id="line2d_19"><path fill="none" stroke="gray" stroke-linecap="square" stroke-width=".8" d="M 172.8 205.323429 L 1244.16 205.323429" clip-path="url(#pb7f0ac1a0d)"/></g><g id="line2d_20"><defs><path id="mb638cfdf9c" stroke="#000" stroke-width=".8" d="M 0 0 L -3.5 0"/></defs><g><use x="172.8" y="205.323" stroke="#000" stroke-width=".8" xlink:href="#mb638cfdf9c"/></g></g><g id="text_1"><defs><path id="DejaVuSans-48" d="M 31.78125 66.40625 Q 24.171875 66.40625 20.328125 58.90625 Q 16.5 51.421875 16.5 36.375 Q 16.5 21.390625 20.328125 13.890625 Q 24.171875 6.390625 31.78125 6.390625 Q 39.453125 6.390625 43.28125 13.890625 Q 47.125 21.390625 47.125 36.375 Q 47.125 51.421875 43.28125 58.90625 Q 39.453125 66.40625 31.78125 66.40625 z M 31.78125 74.21875 Q 44.046875 74.21875 50.515625 64.515625 Q 56.984375 54.828125 56.984375 36.375 Q 56.984375 17.96875 50.515625 8.265625 Q 44.046875 -1.421875 31.78125 -1.421875 Q 19.53125 -1.421875 13.0625 8.265625 Q 6.59375 17.96875 6.59375 36.375 Q 6.59375 54.828125 13.0625 64.515625 Q 19.53125 74.21875 31.78125 74.21875 z"/></defs><g transform="translate(159.4375 209.122647)scale(0.1 -0.1)"><use xlink:href="#DejaVuSans-48"/></g></g></g><g id="ytick_2"><g id="line2d_21"><path fill="none" stroke="gray" stroke-linecap="square" stroke-width=".8" d="M 172.8 184.957714 L 1244.16 184.957714" clip-path="url(#pb7f0ac1a0d)"/></g><g id="line2d_22"><g><use x="172.8" y="184.958" stroke="#000" stroke-width=".8" xlink:href="#mb638cfdf9c"/></g></g><g id="text_2"><defs><path id="DejaVuSans-49" d="M 12.40625 8.296875 L 28.515625 8.296875 L 28.515625 63.921875 L 10.984375 60.40625 L 10.984375 69.390625 L 28.421875 72.90625 L 38.28125 72.90625 L 38.28125 8.296875 L 54.390625 8.296875 L 54.390625 0 L 12.40625 0 z"/></defs><g transform="translate(159.4375 188.756933)scale(0.1 -0.1)"><use xlink:href="#DejaVuSans-49"/></g></g></g><g id="ytick_3"><g id="line2d_23"><path fill="none" stroke="gray" stroke-linecap="square" stroke-width=".8" d="M 172.8 164.592 L 1244.16 164.592" clip-path="url(#pb7f0ac1a0d)"/></g><g id="line2d_24"><g><use x="172.8" y="164.592" stroke="#000" stroke-width=".8" xlink:href="#mb638cfdf9c"/></g></g><g id="text_3"><defs><path id="DejaVuSans-50" d="M 19.1875 8.296875 L 53.609375 8.296875 L 53.609375 0 L 7.328125 0 L 7.328125 8.296875 Q 12.9375 14.109375 22.625 23.890625 Q 32.328125 33.6875 34.8125 36.53125 Q 39.546875 41.84375 41.421875 45.53125 Q 43.3125 49.21875 43.3125 52.78125 Q 43.3125 58.59375 39.234375 62.25 Q 35.15625 65.921875 28.609375 65.921875 Q 23.96875 65.921875 18.8125 64.3125 Q 13.671875 62.703125 7.8125 59.421875 L 7.8125 69.390625 Q 13.765625 71.78125 18.9375 73 Q 24.125 74.21875 28.421875 74.21875 Q 39.75 74.21875 46.484375 68.546875 Q 53.21875 62.890625 53.21875 53.421875 Q 53.21875 48.921875 51.53125 44.890625 Q 49.859375 40.875 45.40625 35.40625 Q 44.1875 33.984375 37.640625 27.21875 Q 31.109375 20.453125 19.1875 8.296875 z"/></defs><g transform="translate(159.4375 168.391219)scale(0.1 -0.1)"><use xlink:href="#DejaVuSans-50"/></g></g></g><g id="ytick_4"><g id="line2d_25"><path fill="none" stroke="gray" stroke-linecap="square" stroke-width=".8" d="M 172.8 144.226286 L 1244.16 144.226286" clip-path="url(#pb7f0ac1a0d)"/></g><g id="line2d_26"><g><use x="172.8" y="144.226" stroke="#000" stroke-width=".8" xlink:href="#mb638cfdf9c"/></g></g><g id="text_4"><defs><path id="DejaVuSans-51" d="M 40.578125 39.3125 Q 47.65625 37.796875 51.625 33 Q 55.609375 28.21875 55.609375 21.1875 Q 55.609375 10.40625 48.1875 4.484375 Q 40.765625 -1.421875 27.09375 -1.421875 Q 22.515625 -1.421875 17.65625 -0.515625 Q 12.796875 0.390625 7.625 2.203125 L 7.625 11.71875 Q 11.71875 9.328125 16.59375 8.109375 Q 21.484375 6.890625 26.8125 6.890625 Q 36.078125 6.890625 40.9375 10.546875 Q 45.796875 14.203125 45.796875 21.1875 Q 45.796875 27.640625 41.28125 31.265625 Q 36.765625 34.90625 28.71875 34.90625 L 20.21875 34.90625 L 20.21875 43.015625 L 29.109375 43.015625 Q 36.375 43.015625 40.234375 45.921875 Q 44.09375 48.828125 44.09375 54.296875 Q 44.09375 59.90625 40.109375 62.90625 Q 36.140625 65.921875 28.71875 65.921875 Q 24.65625 65.921875 20.015625 65.03125 Q 15.375 64.15625 9.8125 62.3125 L 9.8125 71.09375 Q 15.4375 72.65625 20.34375 73.4375 Q 25.25 74.21875 29.59375 74.21875 Q 40.828125 74.21875 47.359375 69.109375 Q 53.90625 64.015625 53.90625 55.328125 Q 53.90625 49.265625 50.4375 45.09375 Q 46.96875 40.921875 40.578125 39.3125 z"/></defs><g transform="translate(159.4375 148.025504)scale(0.1 -0.1)"><use xlink:href="#DejaVuSans-51"/></g></g></g><g id="ytick_5"><g id="line2d_27"><path fill="none" stroke="gray" stroke-linecap="square" stroke-width=".8" d="M 172.8 123.860571 L 1244.16 123.860571" clip-path="url(#pb7f0ac1a0d)"/></g><g id="line2d_28"><g><use x="172.8" y="123.861" stroke="#000" stroke-width=".8" xlink:href="#mb638cfdf9c"/></g></g><g id="text_5"><defs><path id="DejaVuSans-52" d="M 37.796875 64.3125 L 12.890625 25.390625 L 37.796875 25.390625 z M 35.203125 72.90625 L 47.609375 72.90625 L 47.609375 25.390625 L 58.015625 25.390625 L 58.015625 17.1875 L 47.609375 17.1875 L 47.609375 0 L 37.796875 0 L 37.796875 17.1875 L 4.890625 17.1875 L 4.890625 26.703125 z"/></defs><g transform="translate(159.4375 127.65979)scale(0.1 -0.1)"><use xlink:href="#DejaVuSans-52"/></g></g></g><g id="ytick_6"><g id="line2d_29"><path fill="none" stroke="gray" stroke-linecap="square" stroke-width=".8" d="M 172.8 103.494857 L 1244.16 103.494857" clip-path="url(#pb7f0ac1a0d)"/></g><g id="line2d_30"><g><use x="172.8" y="103.495" stroke="#000" stroke-width=".8" xlink:href="#mb638cfdf9c"/></g></g><g id="text_6"><defs><path id="DejaVuSans-53" d="M 10.796875 72.90625 L 49.515625 72.90625 L 49.515625 64.59375 L 19.828125 64.59375 L 19.828125 46.734375 Q 21.96875 47.46875 24.109375 47.828125 Q 26.265625 48.1875 28.421875 48.1875 Q 40.625 48.1875 47.75 41.5 Q 54.890625 34.8125 54.890625 23.390625 Q 54.890625 11.625 47.5625 5.09375 Q 40.234375 -1.421875 26.90625 -1.421875 Q 22.3125 -1.421875 17.546875 -0.640625 Q 12.796875 0.140625 7.71875 1.703125 L 7.71875 11.625 Q 12.109375 9.234375 16.796875 8.0625 Q 21.484375 6.890625 26.703125 6.890625 Q 35.15625 6.890625 40.078125 11.328125 Q 45.015625 15.765625 45.015625 23.390625 Q 45.015625 31 40.078125 35.4375 Q 35.15625 39.890625 26.703125 39.890625 Q 22.75 39.890625 18.8125 39.015625 Q 14.890625 38.140625 10.796875 36.28125 z"/></defs><g transform="translate(159.4375 107.294076)scale(0.1 -0.1)"><use xlink:href="#DejaVuSans-53"/></g></g></g><g id="text_7"><defs><path id="DejaVuSans-86" d="M 28.609375 0 L 0.78125 72.90625 L 11.078125 72.90625 L 34.1875 11.53125 L 57.328125 72.90625 L 67.578125 72.90625 L 39.796875 0 z"/><path id="DejaVuSans-111" d="M 30.609375 48.390625 Q 23.390625 48.390625 19.1875 42.75 Q 14.984375 37.109375 14.984375 27.296875 Q 14.984375 17.484375 19.15625 11.84375 Q 23.34375 6.203125 30.609375 6.203125 Q 37.796875 6.203125 41.984375 11.859375 Q 46.1875 17.53125 46.1875 27.296875 Q 46.1875 37.015625 41.984375 42.703125 Q 37.796875 48.390625 30.609375 48.390625 z M 30.609375 56 Q 42.328125 56 49.015625 48.375 Q 55.71875 40.765625 55.71875 27.296875 Q 55.71875 13.875 49.015625 6.21875 Q 42.328125 -1.421875 30.609375 -1.421875 Q 18.84375 -1.421875 12.171875 6.21875 Q 5.515625 13.875 5.515625 27.296875 Q 5.515625 40.765625 12.171875 48.375 Q 18.84375 56 30.609375 56 z"/><path id="DejaVuSans-108" d="M 9.421875 75.984375 L 18.40625 75.984375 L 18.40625 0 L 9.421875 0 z"/><path id="DejaVuSans-116" d="M 18.3125 70.21875 L 18.3125 54.6875 L 36.8125 54.6875 L 36.8125 47.703125 L 18.3125 47.703125 L 18.3125 18.015625 Q 18.3125 11.328125 20.140625 9.421875 Q 21.96875 7.515625 27.59375 7.515625 L 36.8125 7.515625 L 36.8125 0 L 27.59375 0 Q 17.1875 0 13.234375 3.875 Q 9.28125 7.765625 9.28125 18.015625 L 9.28125 47.703125 L 2.6875 47.703125 L 2.6875 54.6875 L 9.28125 54.6875 L 9.28125 70.21875 z"/><path id="DejaVuSans-97" d="M 34.28125 27.484375 Q 23.390625 27.484375 19.1875 25 Q 14.984375 22.515625 14.984375 16.5 Q 14.984375 11.71875 18.140625 8.90625 Q 21.296875 6.109375 26.703125 6.109375 Q 34.1875 6.109375 38.703125 11.40625 Q 43.21875 16.703125 43.21875 25.484375 L 43.21875 27.484375 z M 52.203125 31.203125 L 52.203125 0 L 43.21875 0 L 43.21875 8.296875 Q 40.140625 3.328125 35.546875 0.953125 Q 30.953125 -1.421875 24.3125 -1.421875 Q 15.921875 -1.421875 10.953125 3.296875 Q 6 8.015625 6 15.921875 Q 6 25.140625 12.171875 29.828125 Q 18.359375 34.515625 30.609375 34.515625 L 43.21875 34.515625 L 43.21875 35.40625 Q 43.21875 41.609375 39.140625 45 Q 35.0625 48.390625 27.6875 48.390625 Q 23 48.390625 18.546875 47.265625 Q 14.109375 46.140625 10.015625 43.890625 L 10.015625 52.203125 Q 14.9375 54.109375 19.578125 55.046875 Q 24.21875 56 28.609375 56 Q 40.484375 56 46.34375 49.84375 Q 52.203125 43.703125 52.203125 31.203125 z"/><path id="DejaVuSans-103" d="M 45.40625 27.984375 Q 45.40625 37.75 41.375 43.109375 Q 37.359375 48.484375 30.078125 48.484375 Q 22.859375 48.484375 18.828125 43.109375 Q 14.796875 37.75 14.796875 27.984375 Q 14.796875 18.265625 18.828125 12.890625 Q 22.859375 7.515625 30.078125 7.515625 Q 37.359375 7.515625 41.375 12.890625 Q 45.40625 18.265625 45.40625 27.984375 z M 54.390625 6.78125 Q 54.390625 -7.171875 48.1875 -13.984375 Q 42 -20.796875 29.203125 -20.796875 Q 24.46875 -20.796875 20.265625 -20.09375 Q 16.0625 -19.390625 12.109375 -17.921875 L 12.109375 -9.1875 Q 16.0625 -11.328125 19.921875 -12.34375 Q 23.78125 -13.375 27.78125 -13.375 Q 36.625 -13.375 41.015625 -8.765625 Q 45.40625 -4.15625 45.40625 5.171875 L 45.40625 9.625 Q 42.625 4.78125 38.28125 2.390625 Q 33.9375 0 27.875 0 Q 17.828125 0 11.671875 7.65625 Q 5.515625 15.328125 5.515625 27.984375 Q 5.515625 40.671875 11.671875 48.328125 Q 17.828125 56 27.875 56 Q 33.9375 56 38.28125 53.609375 Q 42.625 51.21875 45.40625 46.390625 L 45.40625 54.6875 L 54.390625 54.6875 z"/><path id="DejaVuSans-101" d="M 56.203125 29.59375 L 56.203125 25.203125 L 14.890625 25.203125 Q 15.484375 15.921875 20.484375 11.0625 Q 25.484375 6.203125 34.421875 6.203125 Q 39.59375 6.203125 44.453125 7.46875 Q 49.3125 8.734375 54.109375 11.28125 L 54.109375 2.78125 Q 49.265625 0.734375 44.1875 -0.34375 Q 39.109375 -1.421875 33.890625 -1.421875 Q 20.796875 -1.421875 13.15625 6.1875 Q 5.515625 13.8125 5.515625 26.8125 Q 5.515625 40.234375 12.765625 48.109375 Q 20.015625 56 32.328125 56 Q 43.359375 56 49.78125 48.890625 Q 56.203125 41.796875 56.203125 29.59375 z M 47.21875 32.234375 Q 47.125 39.59375 43.09375 43.984375 Q 39.0625 48.390625 32.421875 48.390625 Q 24.90625 48.390625 20.390625 44.140625 Q 15.875 39.890625 15.1875 32.171875 z"/><path id="DejaVuSans-109" d="M 52 44.1875 Q 55.375 50.25 60.0625 53.125 Q 64.75 56 71.09375 56 Q 79.640625 56 84.28125 50.015625 Q 88.921875 44.046875 88.921875 33.015625 L 88.921875 0 L 79.890625 0 L 79.890625 32.71875 Q 79.890625 40.578125 77.09375 44.375 Q 74.3125 48.1875 68.609375 48.1875 Q 61.625 48.1875 57.5625 43.546875 Q 53.515625 38.921875 53.515625 30.90625 L 53.515625 0 L 44.484375 0 L 44.484375 32.71875 Q 44.484375 40.625 41.703125 44.40625 Q 38.921875 48.1875 33.109375 48.1875 Q 26.21875 48.1875 22.15625 43.53125 Q 18.109375 38.875 18.109375 30.90625 L 18.109375 0 L 9.078125 0 L 9.078125 54.6875 L 18.109375 54.6875 L 18.109375 46.1875 Q 21.1875 51.21875 25.484375 53.609375 Q 29.78125 56 35.6875 56 Q 41.65625 56 45.828125 52.96875 Q 50 49.953125 52 44.1875 z"/><path id="DejaVuSans-32"/><path id="DejaVuSans-40" d="M 31 75.875 Q 24.46875 64.65625 21.28125 53.65625 Q 18.109375 42.671875 18.109375 31.390625 Q 18.109375 20.125 21.3125 9.0625 Q 24.515625 -2 31 -13.1875 L 23.1875 -13.1875 Q 15.875 -1.703125 12.234375 9.375 Q 8.59375 20.453125 8.59375 31.390625 Q 8.59375 42.28125 12.203125 53.3125 Q 15.828125 64.359375 23.1875 75.875 z"/><path id="DejaVuSans-41" d="M 8.015625 75.875 L 15.828125 75.875 Q 23.140625 64.359375 26.78125 53.3125 Q 30.421875 42.28125 30.421875 31.390625 Q 30.421875 20.453125 26.78125 9.375 Q 23.140625 -1.703125 15.828125 -13.1875 L 8.015625 -13.1875 Q 14.5 -2 17.703125 9.0625 Q 20.90625 20.125 20.90625 31.390625 Q 20.90625 42.671875 17.703125 53.65625 Q 14.5 64.65625 8.015625 75.875 z"/></defs><g transform="translate(152.11 207.080393)rotate(-90)scale(0.16 -0.16)"><use xlink:href="#DejaVuSans-86"/><use x="68.299" xlink:href="#DejaVuSans-111"/><use x="129.48" xlink:href="#DejaVuSans-108"/><use x="157.264" xlink:href="#DejaVuSans-116"/><use x="196.473" xlink:href="#DejaVuSans-97"/><use x="257.752" xlink:href="#DejaVuSans-103"/><use x="321.229" xlink:href="#DejaVuSans-101"/><use x="382.752" xlink:href="#DejaVuSans-109"/><use x="480.164" xlink:href="#DejaVuSans-32"/><use x="511.951" xlink:href="#DejaVuSans-40"/><use x="550.965" xlink:href="#DejaVuSans-86"/><use x="619.373" xlink:href="#DejaVuSans-41"/></g></g></g><g id="line2d_31"><path fill="none" stroke="#00f" stroke-linecap="square" stroke-width="4" d="M 221.498182 205.323429 L 341.107751 205.323429 L 343.548763 123.860571 L 463.158332 123.860571 L 465.599344 205.323429 L 585.208913 205.323429 L 587.649925 103.494857 L 707.259494 103.494857 L 709.700506 184.957714 L 829.310075 184.957714 L 831.751087 164.592 L 951.360656 164.592 L 953.801668 205.323429 L 1073.411237 205.323429 L 1075.852249 144.226286 L 1195.461818 144.226286 L 1195.461818 144.226286" clip-path="url(#pb7f0ac1a0d)"/></g><g id="patch_3"><path fill="none" stroke="#000" stroke-linecap="square" stroke-linejoin="miter" stroke-width=".8" d="M 172.8 215.506286 L 172.8 93.312"/></g><g id="patch_4"><path fill="none" stroke="#000" stroke-linecap="square" stroke-linejoin="miter" stroke-width=".8" d="M 1244.16 215.506286 L 1244.16 93.312"/></g><g id="patch_5"><path fill="none" stroke="#000" stroke-linecap="square" stroke-linejoin="miter" stroke-width=".8" d="M 172.8 215.506286 L 1244.16 215.506286"/></g><g id="patch_6"><path fill="none" stroke="#000" stroke-linecap="square" stroke-linejoin="miter" stroke-width=".8" d="M 172.8 93.312 L 1244.16 93.312"/></g><g id="text_8"><defs><path id="DejaVuSans-82" d="M 44.390625 34.1875 Q 47.5625 33.109375 50.5625 29.59375 Q 53.5625 26.078125 56.59375 19.921875 L 66.609375 0 L 56 0 L 46.6875 18.703125 Q 43.0625 26.03125 39.671875 28.421875 Q 36.28125 30.8125 30.421875 30.8125 L 19.671875 30.8125 L 19.671875 0 L 9.8125 0 L 9.8125 72.90625 L 32.078125 72.90625 Q 44.578125 72.90625 50.734375 67.671875 Q 56.890625 62.453125 56.890625 51.90625 Q 56.890625 45.015625 53.6875 40.46875 Q 50.484375 35.9375 44.390625 34.1875 z M 19.671875 64.796875 L 19.671875 38.921875 L 32.078125 38.921875 Q 39.203125 38.921875 42.84375 42.21875 Q 46.484375 45.515625 46.484375 51.90625 Q 46.484375 58.296875 42.84375 61.546875 Q 39.203125 64.796875 32.078125 64.796875 z"/><path id="DejaVuSans-102" d="M 37.109375 75.984375 L 37.109375 68.5 L 28.515625 68.5 Q 23.6875 68.5 21.796875 66.546875 Q 19.921875 64.59375 19.921875 59.515625 L 19.921875 54.6875 L 34.71875 54.6875 L 34.71875 47.703125 L 19.921875 47.703125 L 19.921875 0 L 10.890625 0 L 10.890625 47.703125 L 2.296875 47.703125 L 2.296875 54.6875 L 10.890625 54.6875 L 10.890625 58.5 Q 10.890625 67.625 15.140625 71.796875 Q 19.390625 75.984375 28.609375 75.984375 z"/><path id="DejaVuSans-114" d="M 41.109375 46.296875 Q 39.59375 47.171875 37.8125 47.578125 Q 36.03125 48 33.890625 48 Q 26.265625 48 22.1875 43.046875 Q 18.109375 38.09375 18.109375 28.8125 L 18.109375 0 L 9.078125 0 L 9.078125 54.6875 L 18.109375 54.6875 L 18.109375 46.1875 Q 20.953125 51.171875 25.484375 53.578125 Q 30.03125 56 36.53125 56 Q 37.453125 56 38.578125 55.875 Q 39.703125 55.765625 41.0625 55.515625 z"/><path id="DejaVuSans-110" d="M 54.890625 33.015625 L 54.890625 0 L 45.90625 0 L 45.90625 32.71875 Q 45.90625 40.484375 42.875 44.328125 Q 39.84375 48.1875 33.796875 48.1875 Q 26.515625 48.1875 22.3125 43.546875 Q 18.109375 38.921875 18.109375 30.90625 L 18.109375 0 L 9.078125 0 L 9.078125 54.6875 L 18.109375 54.6875 L 18.109375 46.1875 Q 21.34375 51.125 25.703125 53.5625 Q 30.078125 56 35.796875 56 Q 45.21875 56 50.046875 50.171875 Q 54.890625 44.34375 54.890625 33.015625 z"/><path id="DejaVuSans-99" d="M 48.78125 52.59375 L 48.78125 44.1875 Q 44.96875 46.296875 41.140625 47.34375 Q 37.3125 48.390625 33.40625 48.390625 Q 24.65625 48.390625 19.8125 42.84375 Q 14.984375 37.3125 14.984375 27.296875 Q 14.984375 17.28125 19.8125 11.734375 Q 24.65625 6.203125 33.40625 6.203125 Q 37.3125 6.203125 41.140625 7.25 Q 44.96875 8.296875 48.78125 10.40625 L 48.78125 2.09375 Q 45.015625 0.34375 40.984375 -0.53125 Q 36.96875 -1.421875 32.421875 -1.421875 Q 20.0625 -1.421875 12.78125 6.34375 Q 5.515625 14.109375 5.515625 27.296875 Q 5.515625 40.671875 12.859375 48.328125 Q 20.21875 56 33.015625 56 Q 37.15625 56 41.109375 55.140625 Q 45.0625 54.296875 48.78125 52.59375 z"/><path id="DejaVuSans-105" d="M 9.421875 54.6875 L 18.40625 54.6875 L 18.40625 0 L 9.421875 0 z M 9.421875 75.984375 L 18.40625 75.984375 L 18.40625 64.59375 L 9.421875 64.59375 z"/><path id="DejaVuSans-45" d="M 4.890625 31.390625 L 31.203125 31.390625 L 31.203125 23.390625 L 4.890625 23.390625 z"/><path id="DejaVuSans-121" d="M 32.171875 -5.078125 Q 28.375 -14.84375 24.75 -17.8125 Q 21.140625 -20.796875 15.09375 -20.796875 L 7.90625 -20.796875 L 7.90625 -13.28125 L 13.1875 -13.28125 Q 16.890625 -13.28125 18.9375 -11.515625 Q 21 -9.765625 23.484375 -3.21875 L 25.09375 0.875 L 2.984375 54.6875 L 12.5 54.6875 L 29.59375 11.921875 L 46.6875 54.6875 L 56.203125 54.6875 z"/><path id="DejaVuSans-107" d="M 9.078125 75.984375 L 18.109375 75.984375 L 18.109375 31.109375 L 44.921875 54.6875 L 56.390625 54.6875 L 27.390625 29.109375 L 57.625 0 L 45.90625 0 L 18.109375 26.703125 L 18.109375 0 L 9.078125 0 z"/></defs><g transform="translate(616.752656 87.312)scale(0.21 -0.21)"><use xlink:href="#DejaVuSans-82"/><use x="69.42" xlink:href="#DejaVuSans-101"/><use x="130.943" xlink:href="#DejaVuSans-102"/><use x="166.148" xlink:href="#DejaVuSans-101"/><use x="227.672" xlink:href="#DejaVuSans-114"/><use x="268.754" xlink:href="#DejaVuSans-101"/><use x="330.277" xlink:href="#DejaVuSans-110"/><use x="393.656" xlink:href="#DejaVuSans-99"/><use x="448.637" xlink:href="#DejaVuSans-105"/><use x="476.42" xlink:href="#DejaVuSans-97"/><use x="537.699" xlink:href="#DejaVuSans-32"/><use x="569.486" xlink:href="#DejaVuSans-45"/><use x="605.57" xlink:href="#DejaVuSans-32"/><use x="637.357" xlink:href="#DejaVuSans-121"/><use x="696.537" xlink:href="#DejaVuSans-114"/><use x="737.65" xlink:href="#DejaVuSans-40"/><use x="776.664" xlink:href="#DejaVuSans-107"/><use x="834.574" xlink:href="#DejaVuSans-41"/></g></g></g><g id="axes_2"><g id="patch_7"><path fill="#fff" d="M 172.8 374.358857 L 1244.16 374.358857 L 1244.16 252.164571 L 172.8 252.164571 z"/></g><g id="matplotlib.axis_3"><g id="xtick_10"><g id="line2d_32"><path fill="none" stroke="gray" stroke-linecap="square" stroke-width=".8" d="M 221.498182 374.358857 L 221.498182 252.164571" clip-path="url(#pa0bc8e6fa9)"/></g><g id="line2d_33"><g><use x="221.498" y="374.359" stroke="#000" stroke-width=".8" xlink:href="#m425f81a4bb"/></g></g></g><g id="xtick_11"><g id="line2d_34"><path fill="none" stroke="gray" stroke-linecap="square" stroke-width=".8" d="M 343.548763 374.358857 L 343.548763 252.164571" clip-path="url(#pa0bc8e6fa9)"/></g><g id="line2d_35"><g><use x="343.549" y="374.359" stroke="#000" stroke-width=".8" xlink:href="#m425f81a4bb"/></g></g></g><g id="xtick_12"><g id="line2d_36"><path fill="none" stroke="gray" stroke-linecap="square" stroke-width=".8" d="M 465.599344 374.358857 L 465.599344 252.164571" clip-path="url(#pa0bc8e6fa9)"/></g><g id="line2d_37"><g><use x="465.599" y="374.359" stroke="#000" stroke-width=".8" xlink:href="#m425f81a4bb"/></g></g></g><g id="xtick_13"><g id="line2d_38"><path fill="none" stroke="gray" stroke-linecap="square" stroke-width=".8" d="M 587.649925 374.358857 L 587.649925 252.164571" clip-path="url(#pa0bc8e6fa9)"/></g><g id="line2d_39"><g><use x="587.65" y="374.359" stroke="#000" stroke-width=".8" xlink:href="#m425f81a4bb"/></g></g></g><g id="xtick_14"><g id="line2d_40"><path fill="none" stroke="gray" stroke-linecap="square" stroke-width=".8" d="M 709.700506 374.358857 L 709.700506 252.164571" clip-path="url(#pa0bc8e6fa9)"/></g><g id="line2d_41"><g><use x="709.701" y="374.359" stroke="#000" stroke-width=".8" xlink:href="#m425f81a4bb"/></g></g></g><g id="xtick_15"><g id="line2d_42"><path fill="none" stroke="gray" stroke-linecap="square" stroke-width=".8" d="M 831.751087 374.358857 L 831.751087 252.164571" clip-path="url(#pa0bc8e6fa9)"/></g><g id="line2d_43"><g><use x="831.751" y="374.359" stroke="#000" stroke-width=".8" xlink:href="#m425f81a4bb"/></g></g></g><g id="xtick_16"><g id="line2d_44"><path fill="none" stroke="gray" stroke-linecap="square" stroke-width=".8" d="M 953.801668 374.358857 L 953.801668 252.164571" clip-path="url(#pa0bc8e6fa9)"/></g><g id="line2d_45"><g><use x="953.802" y="374.359" stroke="#000" stroke-width=".8" xlink:href="#m425f81a4bb"/></g></g></g><g id="xtick_17"><g id="line2d_46"><path fill="none" stroke="gray" stroke-linecap="square" stroke-width=".8" d="M 1075.852249 374.358857 L 1075.852249 252.164571" clip-path="url(#pa0bc8e6fa9)"/></g><g id="line2d_47"><g><use x="1075.852" y="374.359" stroke="#000" stroke-width=".8" xlink:href="#m425f81a4bb"/></g></g></g><g id="xtick_18"><g id="line2d_48"><path fill="none" stroke="gray" stroke-linecap="square" stroke-width=".8" d="M 1197.90283 374.358857 L 1197.90283 252.164571" clip-path="url(#pa0bc8e6fa9)"/></g><g id="line2d_49"><g><use x="1197.903" y="374.359" stroke="#000" stroke-width=".8" xlink:href="#m425f81a4bb"/></g></g></g></g><g id="matplotlib.axis_4"><g id="ytick_7"><g id="line2d_50"><path fill="none" stroke="gray" stroke-linecap="square" stroke-width=".8" d="M 172.8 364.176 L 1244.16 364.176" clip-path="url(#pa0bc8e6fa9)"/></g><g id="line2d_51"><g><use x="172.8" y="364.176" stroke="#000" stroke-width=".8" xlink:href="#mb638cfdf9c"/></g></g><g id="text_9"><g transform="translate(159.4375 367.975219)scale(0.1 -0.1)"><use xlink:href="#DejaVuSans-48"/></g></g></g><g id="ytick_8"><g id="line2d_52"><path fill="none" stroke="gray" stroke-linecap="square" stroke-width=".8" d="M 172.8 343.810286 L 1244.16 343.810286" clip-path="url(#pa0bc8e6fa9)"/></g><g id="line2d_53"><g><use x="172.8" y="343.81" stroke="#000" stroke-width=".8" xlink:href="#mb638cfdf9c"/></g></g><g id="text_10"><g transform="translate(159.4375 347.609504)scale(0.1 -0.1)"><use xlink:href="#DejaVuSans-49"/></g></g></g><g id="ytick_9"><g id="line2d_54"><path fill="none" stroke="gray" stroke-linecap="square" stroke-width=".8" d="M 172.8 323.444571 L 1244.16 323.444571" clip-path="url(#pa0bc8e6fa9)"/></g><g id="line2d_55"><g><use x="172.8" y="323.445" stroke="#000" stroke-width=".8" xlink:href="#mb638cfdf9c"/></g></g><g id="text_11"><g transform="translate(159.4375 327.24379)scale(0.1 -0.1)"><use xlink:href="#DejaVuSans-50"/></g></g></g><g id="ytick_10"><g id="line2d_56"><path fill="none" stroke="gray" stroke-linecap="square" stroke-width=".8" d="M 172.8 303.078857 L 1244.16 303.078857" clip-path="url(#pa0bc8e6fa9)"/></g><g id="line2d_57"><g><use x="172.8" y="303.079" stroke="#000" stroke-width=".8" xlink:href="#mb638cfdf9c"/></g></g><g id="text_12"><g transform="translate(159.4375 306.878076)scale(0.1 -0.1)"><use xlink:href="#DejaVuSans-51"/></g></g></g><g id="ytick_11"><g id="line2d_58"><path fill="none" stroke="gray" stroke-linecap="square" stroke-width=".8" d="M 172.8 282.713143 L 1244.16 282.713143" clip-path="url(#pa0bc8e6fa9)"/></g><g id="line2d_59"><g><use x="172.8" y="282.713" stroke="#000" stroke-width=".8" xlink:href="#mb638cfdf9c"/></g></g><g id="text_13"><g transform="translate(159.4375 286.512362)scale(0.1 -0.1)"><use xlink:href="#DejaVuSans-52"/></g></g></g><g id="ytick_12"><g id="line2d_60"><path fill="none" stroke="gray" stroke-linecap="square" stroke-width=".8" d="M 172.8 262.347429 L 1244.16 262.347429" clip-path="url(#pa0bc8e6fa9)"/></g><g id="line2d_61"><g><use x="172.8" y="262.347" stroke="#000" stroke-width=".8" xlink:href="#mb638cfdf9c"/></g></g><g id="text_14"><g transform="translate(159.4375 266.146647)scale(0.1 -0.1)"><use xlink:href="#DejaVuSans-53"/></g></g></g><g id="text_15"><g transform="translate(152.11 365.932964)rotate(-90)scale(0.16 -0.16)"><use xlink:href="#DejaVuSans-86"/><use x="68.299" xlink:href="#DejaVuSans-111"/><use x="129.48" xlink:href="#DejaVuSans-108"/><use x="157.264" xlink:href="#DejaVuSans-116"/><use x="196.473" xlink:href="#DejaVuSans-97"/><use x="257.752" xlink:href="#DejaVuSans-103"/><use x="321.229" xlink:href="#DejaVuSans-101"/><use x="382.752" xlink:href="#DejaVuSans-109"/><use x="480.164" xlink:href="#DejaVuSans-32"/><use x="511.951" xlink:href="#DejaVuSans-40"/><use x="550.965" xlink:href="#DejaVuSans-86"/><use x="619.373" xlink:href="#DejaVuSans-41"/></g></g></g><g id="line2d_62"><path fill="none" stroke="green" stroke-dasharray="14.8 6.4" stroke-dashoffset="0" stroke-width="4" d="M 221.498182 364.176 L 341.107751 364.176 L 343.548763 262.347429 L 345.989774 364.176 L 348.430786 364.176 L 350.871798 270.407445 L 353.312809 364.176 L 358.194833 302.950492 L 360.635844 356.884946 L 363.076856 300.249467 L 365.517867 362.343203 L 367.958879 291.399879 L 370.399891 364.176 L 372.840902 302.07722 L 375.281914 350.253452 L 377.722925 303.807508 L 380.163937 357.988637 L 382.604949 298.030347 L 385.04596 364.176 L 387.486972 292.163099 L 389.927984 364.176 L 392.368995 293.500241 L 394.810007 364.176 L 397.251018 294.993984 L 399.69203 364.176 L 402.133042 302.173591 L 404.574053 352.979325 L 407.015065 302.262076 L 409.456077 352.935251 L 411.897088 309.228802 L 414.3381 344.914105 L 416.779111 304.972928 L 419.220123 352.005529 L 421.661135 299.410095 L 424.102146 364.176 L 426.543158 296.535913 L 428.98417 363.013495 L 431.425181 295.712588 L 433.866193 364.176 L 436.307204 297.571897 L 438.748216 360.330639 L 441.189228 297.470996 L 443.630239 363.158526 L 446.071251 301.807068 L 448.512262 356.168327 L 450.953274 296.663692 L 453.394286 364.176 L 455.835297 301.474904 L 458.276309 358.6917 L 460.717321 293.726999 L 463.158332 364.176 L 465.599344 364.176 L 468.040355 359.333379 L 470.481367 356.382601 L 472.922379 359.694916 L 475.36339 344.087028 L 477.804402 364.176 L 480.245414 346.997948 L 482.686425 364.176 L 485.127437 345.672852 L 487.568448 364.176 L 490.00946 349.34698 L 492.450472 364.176 L 494.891483 352.876552 L 497.332495 364.176 L 499.773506 354.996704 L 502.214518 364.176 L 504.65553 363.935074 L 507.096541 364.176 L 585.208913 364.176 L 587.649925 262.347429 L 590.090936 364.176 L 592.531948 340.384518 L 594.97296 269.878591 L 597.413971 364.176 L 599.854983 295.752902 L 602.295995 330.402041 L 604.737006 301.142492 L 607.178018 329.424857 L 609.619029 301.579459 L 612.060041 330.469843 L 614.501053 298.534407 L 616.942064 334.164048 L 619.383076 302.226619 L 621.824087 326.038998 L 624.265099 304.485074 L 626.706111 328.787831 L 629.147122 299.15504 L 631.588134 335.409398 L 634.029146 296.200205 L 636.470157 334.59019 L 638.911169 295.587023 L 641.35218 340.535824 L 643.793192 292.801216 L 646.234204 339.400301 L 648.675215 293.360799 L 651.116227 339.675374 L 653.557239 296.660917 L 655.99825 336.331733 L 658.439262 290.371405 L 660.880273 347.231456 L 663.321285 288.093024 L 665.762297 342.255841 L 668.203308 293.032465 L 670.64432 339.343426 L 673.085332 295.401727 L 675.526343 338.552751 L 677.967355 291.003442 L 680.408366 342.814014 L 682.849378 293.102876 L 685.29039 340.866995 L 687.731401 289.494921 L 690.172413 345.322408 L 692.613424 284.373247 L 695.054436 358.731462 L 697.495448 282.110781 L 699.936459 354.248319 L 702.377471 293.920649 L 704.818483 331.397535 L 707.259494 302.450599 L 709.700506 364.176 L 712.141517 364.176 L 714.582529 344.913934 L 717.023541 360.313737 L 719.464552 333.948769 L 721.905564 364.176 L 724.346576 332.891707 L 726.787587 364.176 L 729.228599 343.600885 L 731.66961 364.176 L 734.110622 327.266076 L 736.551634 364.176 L 738.992645 341.504826 L 741.433657 364.176 L 743.874668 330.542675 L 746.31568 364.176 L 748.756692 339.72197 L 751.197703 364.176 L 753.638715 331.144991 L 756.079727 364.176 L 758.520738 344.793471 L 760.96175 361.697819 L 763.402761 333.836705 L 765.843773 364.176 L 768.284785 336.770622 L 770.725796 364.176 L 773.166808 333.614486 L 775.60782 364.176 L 778.048831 332.530317 L 780.489843 364.176 L 782.930854 344.444128 L 785.371866 362.00621 L 787.812878 330.496313 L 790.253889 364.176 L 792.694901 347.877329 L 795.135913 348.363079 L 797.576924 355.402758 L 800.017936 342.881792 L 802.458947 364.176 L 804.899959 325.953027 L 807.340971 364.176 L 809.781982 345.961964 L 812.222994 356.304706 L 814.664005 337.368024 L 817.105017 364.176 L 819.546029 337.505448 L 821.98704 364.176 L 824.428052 336.541742 L 826.869064 364.176 L 829.310075 333.722903 L 831.751087 322.359438 L 834.192098 364.176 L 836.63311 330.482443 L 839.074122 364.176 L 841.515133 313.641688 L 843.956145 364.176 L 846.397157 339.770156 L 848.838168 339.489132 L 851.27918 351.054706 L 853.720191 329.20158 L 856.161203 364.176 L 858.602215 320.339442 L 861.043226 364.176 L 863.484238 328.832097 L 865.925249 364.176 L 868.366261 316.713499 L 870.807273 364.176 L 873.248284 331.988233 L 875.689296 364.176 L 878.130308 316.701453 L 880.571319 364.176 L 883.012331 334.361358 L 885.453342 359.067556 L 887.894354 314.786402 L 890.335366 364.176 L 892.776377 326.362602 L 895.217389 364.176 L 897.658401 322.110251 L 900.099412 364.176 L 902.540424 318.701142 L 904.981435 364.176 L 907.422447 329.073024 L 909.863459 364.176 L 912.30447 317.279676 L 914.745482 364.176 L 917.186494 329.41032 L 919.627505 364.176 L 922.068517 317.869946 L 924.509528 364.176 L 926.95054 333.421745 L 929.391552 356.658223 L 931.832563 324.434715 L 934.273575 364.176 L 936.714586 326.001212 L 939.155598 364.176 L 941.59661 320.941758 L 944.037621 364.176 L 946.478633 331.301593 L 948.919645 362.738988 L 951.360656 316.107531 L 953.801668 364.176 L 956.242679 364.176 L 958.683691 356.297707 L 961.124703 359.810946 L 963.565714 345.847433 L 966.006726 364.176 L 968.447738 338.746218 L 970.888749 364.176 L 973.329761 354.743731 L 975.770772 364.176 L 978.211784 350.7564 L 980.652796 364.176 L 983.093807 354.273925 L 985.534819 364.176 L 987.97583 354.996704 L 990.416842 364.176 L 1073.411237 364.176 L 1075.852249 262.347429 L 1078.29326 364.176 L 1080.734272 364.176 L 1083.175284 302.944555 L 1085.616295 364.176 L 1088.057307 316.255739 L 1090.498319 361.425913 L 1092.93933 309.479335 L 1095.380342 364.176 L 1097.821353 312.2925 L 1100.262365 364.176 L 1102.703377 308.979762 L 1105.144388 364.176 L 1107.5854 313.087557 L 1110.026411 364.176 L 1112.467423 312.376824 L 1114.908435 364.176 L 1117.349446 314.280143 L 1119.790458 364.176 L 1122.23147 304.968337 L 1124.672481 364.176 L 1127.113493 320.038284 L 1129.554504 354.388978 L 1131.995516 314.097669 L 1134.436528 364.176 L 1136.877539 313.087557 L 1139.318551 364.176 L 1141.759563 307.208953 L 1144.200574 364.176 L 1146.641586 312.400917 L 1149.082597 364.176 L 1151.523609 311.786554 L 1153.964621 364.176 L 1156.405632 308.281075 L 1158.846644 364.176 L 1161.287656 310.967405 L 1163.728667 364.176 L 1166.169679 306.486174 L 1168.61069 364.176 L 1171.051702 315.316126 L 1173.492714 361.401751 L 1175.933725 309.204436 L 1178.374737 364.176 L 1180.815748 313.11165 L 1183.25676 364.176 L 1185.697772 305.919996 L 1188.138783 364.176 L 1190.579795 318.725235 L 1193.020807 358.62656 L 1195.461818 308.899157 L 1195.461818 308.899157" clip-path="url(#pa0bc8e6fa9)"/></g><g id="patch_8"><path fill="none" stroke="#000" stroke-linecap="square" stroke-linejoin="miter" stroke-width=".8" d="M 172.8 374.358857 L 172.8 252.164571"/></g><g id="patch_9"><path fill="none" stroke="#000" stroke-linecap="square" stroke-linejoin="miter" stroke-width=".8" d="M 1244.16 374.358857 L 1244.16 252.164571"/></g><g id="patch_10"><path fill="none" stroke="#000" stroke-linecap="square" stroke-linejoin="miter" stroke-width=".8" d="M 172.8 374.358857 L 1244.16 374.358857"/></g><g id="patch_11"><path fill="none" stroke="#000" stroke-linecap="square" stroke-linejoin="miter" stroke-width=".8" d="M 172.8 252.164571 L 1244.16 252.164571"/></g><g id="text_16"><defs><path id="DejaVuSans-83" d="M 53.515625 70.515625 L 53.515625 60.890625 Q 47.90625 63.578125 42.921875 64.890625 Q 37.9375 66.21875 33.296875 66.21875 Q 25.25 66.21875 20.875 63.09375 Q 16.5 59.96875 16.5 54.203125 Q 16.5 49.359375 19.40625 46.890625 Q 22.3125 44.4375 30.421875 42.921875 L 36.375 41.703125 Q 47.40625 39.59375 52.65625 34.296875 Q 57.90625 29 57.90625 20.125 Q 57.90625 9.515625 50.796875 4.046875 Q 43.703125 -1.421875 29.984375 -1.421875 Q 24.8125 -1.421875 18.96875 -0.25 Q 13.140625 0.921875 6.890625 3.21875 L 6.890625 13.375 Q 12.890625 10.015625 18.65625 8.296875 Q 24.421875 6.59375 29.984375 6.59375 Q 38.421875 6.59375 43.015625 9.90625 Q 47.609375 13.234375 47.609375 19.390625 Q 47.609375 24.75 44.3125 27.78125 Q 41.015625 30.8125 33.5 32.328125 L 27.484375 33.5 Q 16.453125 35.6875 11.515625 40.375 Q 6.59375 45.0625 6.59375 53.421875 Q 6.59375 63.09375 13.40625 68.65625 Q 20.21875 74.21875 32.171875 74.21875 Q 37.3125 74.21875 42.625 73.28125 Q 47.953125 72.359375 53.515625 70.515625 z"/><path id="DejaVuSans-237" d="M 20.65625 79.984375 L 30.375 79.984375 L 14.46875 61.625 L 6.984375 61.625 z M 9.421875 54.6875 L 18.40625 54.6875 L 18.40625 0 L 9.421875 0 z M 13.921875 56 z"/><path id="DejaVuSans-100" d="M 45.40625 46.390625 L 45.40625 75.984375 L 54.390625 75.984375 L 54.390625 0 L 45.40625 0 L 45.40625 8.203125 Q 42.578125 3.328125 38.25 0.953125 Q 33.9375 -1.421875 27.875 -1.421875 Q 17.96875 -1.421875 11.734375 6.484375 Q 5.515625 14.40625 5.515625 27.296875 Q 5.515625 40.1875 11.734375 48.09375 Q 17.96875 56 27.875 56 Q 33.9375 56 38.25 53.625 Q 42.578125 51.265625 45.40625 46.390625 z M 14.796875 27.296875 Q 14.796875 17.390625 18.875 11.75 Q 22.953125 6.109375 30.078125 6.109375 Q 37.203125 6.109375 41.296875 11.75 Q 45.40625 17.390625 45.40625 27.296875 Q 45.40625 37.203125 41.296875 42.84375 Q 37.203125 48.484375 30.078125 48.484375 Q 22.953125 48.484375 18.875 42.84375 Q 14.796875 37.203125 14.796875 27.296875 z"/><path id="DejaVuSans-117" d="M 8.5 21.578125 L 8.5 54.6875 L 17.484375 54.6875 L 17.484375 21.921875 Q 17.484375 14.15625 20.5 10.265625 Q 23.53125 6.390625 29.59375 6.390625 Q 36.859375 6.390625 41.078125 11.03125 Q 45.3125 15.671875 45.3125 23.6875 L 45.3125 54.6875 L 54.296875 54.6875 L 54.296875 0 L 45.3125 0 L 45.3125 8.40625 Q 42.046875 3.421875 37.71875 1 Q 33.40625 -1.421875 27.6875 -1.421875 Q 18.265625 -1.421875 13.375 4.4375 Q 8.5 10.296875 8.5 21.578125 z M 31.109375 56 z"/></defs><g transform="translate(584.169844 246.164571)scale(0.21 -0.21)"><use xlink:href="#DejaVuSans-83"/><use x="63.477" xlink:href="#DejaVuSans-97"/><use x="124.756" xlink:href="#DejaVuSans-237"/><use x="152.539" xlink:href="#DejaVuSans-100"/><use x="216.016" xlink:href="#DejaVuSans-97"/><use x="277.295" xlink:href="#DejaVuSans-32"/><use x="309.082" xlink:href="#DejaVuSans-99"/><use x="364.063" xlink:href="#DejaVuSans-111"/><use x="425.244" xlink:href="#DejaVuSans-110"/><use x="488.623" xlink:href="#DejaVuSans-116"/><use x="527.832" xlink:href="#DejaVuSans-114"/><use x="568.914" xlink:href="#DejaVuSans-111"/><use x="630.096" xlink:href="#DejaVuSans-108"/><use x="657.879" xlink:href="#DejaVuSans-97"/><use x="719.158" xlink:href="#DejaVuSans-100"/><use x="782.635" xlink:href="#DejaVuSans-111"/><use x="843.816" xlink:href="#DejaVuSans-114"/><use x="884.93" xlink:href="#DejaVuSans-32"/><use x="916.717" xlink:href="#DejaVuSans-45"/><use x="952.801" xlink:href="#DejaVuSans-32"/><use x="984.588" xlink:href="#DejaVuSans-117"/><use x="1047.967" xlink:href="#DejaVuSans-40"/><use x="1086.98" xlink:href="#DejaVuSans-107"/><use x="1144.891" xlink:href="#DejaVuSans-41"/></g></g></g><g id="axes_3"><g id="patch_12"><path fill="#fff" d="M 172.8 533.211429 L 1244.16 533.211429 L 1244.16 411.017143 L 172.8 411.017143 z"/></g><g id="matplotlib.axis_5"><g id="xtick_19"><g id="line2d_63"><path fill="none" stroke="gray" stroke-linecap="square" stroke-width=".8" d="M 221.498182 533.211429 L 221.498182 411.017143" clip-path="url(#p1df12f2488)"/></g><g id="line2d_64"><g><use x="221.498" y="533.211" stroke="#000" stroke-width=".8" xlink:href="#m425f81a4bb"/></g></g></g><g id="xtick_20"><g id="line2d_65"><path fill="none" stroke="gray" stroke-linecap="square" stroke-width=".8" d="M 343.548763 533.211429 L 343.548763 411.017143" clip-path="url(#p1df12f2488)"/></g><g id="line2d_66"><g><use x="343.549" y="533.211" stroke="#000" stroke-width=".8" xlink:href="#m425f81a4bb"/></g></g></g><g id="xtick_21"><g id="line2d_67"><path fill="none" stroke="gray" stroke-linecap="square" stroke-width=".8" d="M 465.599344 533.211429 L 465.599344 411.017143" clip-path="url(#p1df12f2488)"/></g><g id="line2d_68"><g><use x="465.599" y="533.211" stroke="#000" stroke-width=".8" xlink:href="#m425f81a4bb"/></g></g></g><g id="xtick_22"><g id="line2d_69"><path fill="none" stroke="gray" stroke-linecap="square" stroke-width=".8" d="M 587.649925 533.211429 L 587.649925 411.017143" clip-path="url(#p1df12f2488)"/></g><g id="line2d_70"><g><use x="587.65" y="533.211" stroke="#000" stroke-width=".8" xlink:href="#m425f81a4bb"/></g></g></g><g id="xtick_23"><g id="line2d_71"><path fill="none" stroke="gray" stroke-linecap="square" stroke-width=".8" d="M 709.700506 533.211429 L 709.700506 411.017143" clip-path="url(#p1df12f2488)"/></g><g id="line2d_72"><g><use x="709.701" y="533.211" stroke="#000" stroke-width=".8" xlink:href="#m425f81a4bb"/></g></g></g><g id="xtick_24"><g id="line2d_73"><path fill="none" stroke="gray" stroke-linecap="square" stroke-width=".8" d="M 831.751087 533.211429 L 831.751087 411.017143" clip-path="url(#p1df12f2488)"/></g><g id="line2d_74"><g><use x="831.751" y="533.211" stroke="#000" stroke-width=".8" xlink:href="#m425f81a4bb"/></g></g></g><g id="xtick_25"><g id="line2d_75"><path fill="none" stroke="gray" stroke-linecap="square" stroke-width=".8" d="M 953.801668 533.211429 L 953.801668 411.017143" clip-path="url(#p1df12f2488)"/></g><g id="line2d_76"><g><use x="953.802" y="533.211" stroke="#000" stroke-width=".8" xlink:href="#m425f81a4bb"/></g></g></g><g id="xtick_26"><g id="line2d_77"><path fill="none" stroke="gray" stroke-linecap="square" stroke-width=".8" d="M 1075.852249 533.211429 L 1075.852249 411.017143" clip-path="url(#p1df12f2488)"/></g><g id="line2d_78"><g><use x="1075.852" y="533.211" stroke="#000" stroke-width=".8" xlink:href="#m425f81a4bb"/></g></g></g><g id="xtick_27"><g id="line2d_79"><path fill="none" stroke="gray" stroke-linecap="square" stroke-width=".8" d="M 1197.90283 533.211429 L 1197.90283 411.017143" clip-path="url(#p1df12f2488)"/></g><g id="line2d_80"><g><use x="1197.903" y="533.211" stroke="#000" stroke-width=".8" xlink:href="#m425f81a4bb"/></g></g></g></g><g id="matplotlib.axis_6"><g id="ytick_13"><g id="line2d_81"><path fill="none" stroke="gray" stroke-linecap="square" stroke-width=".8" d="M 172.8 523.028571 L 1244.16 523.028571" clip-path="url(#p1df12f2488)"/></g><g id="line2d_82"><g><use x="172.8" y="523.029" stroke="#000" stroke-width=".8" xlink:href="#mb638cfdf9c"/></g></g><g id="text_17"><g transform="translate(159.4375 526.82779)scale(0.1 -0.1)"><use xlink:href="#DejaVuSans-48"/></g></g></g><g id="ytick_14"><g id="line2d_83"><path fill="none" stroke="gray" stroke-linecap="square" stroke-width=".8" d="M 172.8 502.662857 L 1244.16 502.662857" clip-path="url(#p1df12f2488)"/></g><g id="line2d_84"><g><use x="172.8" y="502.663" stroke="#000" stroke-width=".8" xlink:href="#mb638cfdf9c"/></g></g><g id="text_18"><g transform="translate(159.4375 506.462076)scale(0.1 -0.1)"><use xlink:href="#DejaVuSans-49"/></g></g></g><g id="ytick_15"><g id="line2d_85"><path fill="none" stroke="gray" stroke-linecap="square" stroke-width=".8" d="M 172.8 482.297143 L 1244.16 482.297143" clip-path="url(#p1df12f2488)"/></g><g id="line2d_86"><g><use x="172.8" y="482.297" stroke="#000" stroke-width=".8" xlink:href="#mb638cfdf9c"/></g></g><g id="text_19"><g transform="translate(159.4375 486.096362)scale(0.1 -0.1)"><use xlink:href="#DejaVuSans-50"/></g></g></g><g id="ytick_16"><g id="line2d_87"><path fill="none" stroke="gray" stroke-linecap="square" stroke-width=".8" d="M 172.8 461.931429 L 1244.16 461.931429" clip-path="url(#p1df12f2488)"/></g><g id="line2d_88"><g><use x="172.8" y="461.931" stroke="#000" stroke-width=".8" xlink:href="#mb638cfdf9c"/></g></g><g id="text_20"><g transform="translate(159.4375 465.730647)scale(0.1 -0.1)"><use xlink:href="#DejaVuSans-51"/></g></g></g><g id="ytick_17"><g id="line2d_89"><path fill="none" stroke="gray" stroke-linecap="square" stroke-width=".8" d="M 172.8 441.565714 L 1244.16 441.565714" clip-path="url(#p1df12f2488)"/></g><g id="line2d_90"><g><use x="172.8" y="441.566" stroke="#000" stroke-width=".8" xlink:href="#mb638cfdf9c"/></g></g><g id="text_21"><g transform="translate(159.4375 445.364933)scale(0.1 -0.1)"><use xlink:href="#DejaVuSans-52"/></g></g></g><g id="ytick_18"><g id="line2d_91"><path fill="none" stroke="gray" stroke-linecap="square" stroke-width=".8" d="M 172.8 421.2 L 1244.16 421.2" clip-path="url(#p1df12f2488)"/></g><g id="line2d_92"><g><use x="172.8" y="421.2" stroke="#000" stroke-width=".8" xlink:href="#mb638cfdf9c"/></g></g><g id="text_22"><g transform="translate(159.4375 424.999219)scale(0.1 -0.1)"><use xlink:href="#DejaVuSans-53"/></g></g></g><g id="text_23"><g transform="translate(152.11 524.785536)rotate(-90)scale(0.16 -0.16)"><use xlink:href="#DejaVuSans-86"/><use x="68.299" xlink:href="#DejaVuSans-111"/><use x="129.48" xlink:href="#DejaVuSans-108"/><use x="157.264" xlink:href="#DejaVuSans-116"/><use x="196.473" xlink:href="#DejaVuSans-97"/><use x="257.752" xlink:href="#DejaVuSans-103"/><use x="321.229" xlink:href="#DejaVuSans-101"/><use x="382.752" xlink:href="#DejaVuSans-109"/><use x="480.164" xlink:href="#DejaVuSans-32"/><use x="511.951" xlink:href="#DejaVuSans-40"/><use x="550.965" xlink:href="#DejaVuSans-86"/><use x="619.373" xlink:href="#DejaVuSans-41"/></g></g></g><g id="line2d_93"><path fill="none" stroke="red" stroke-linecap="square" stroke-width="4" d="M 221.498182 523.028571 L 343.548763 523.028571 L 345.989774 489.679714 L 348.430786 470.973806 L 350.871798 487.592229 L 353.312809 461.412103 L 355.753821 463.407943 L 358.194833 474.150857 L 360.635844 466.89048 L 363.076856 476.645657 L 365.517867 467.083954 L 367.958879 479.130274 L 370.399891 465.098297 L 372.840902 474.751646 L 375.281914 469.181623 L 377.722925 477.338091 L 380.163937 468.682663 L 382.604949 478.43784 L 385.04596 467.185783 L 387.486972 478.9368 L 389.927984 465.200126 L 392.368995 477.236263 L 394.810007 463.601417 L 397.251018 475.749566 L 399.69203 465.291771 L 402.133042 474.853474 L 404.574053 468.479006 L 407.015065 477.236263 L 409.456077 470.077714 L 411.897088 476.340171 L 414.3381 471.564411 L 416.779111 478.733143 L 419.220123 471.269109 L 421.661135 479.924537 L 424.102146 468.285531 L 426.543158 478.43784 L 428.98417 468.183703 L 431.425181 478.631314 L 433.866193 466.187863 L 436.307204 476.747486 L 438.748216 467.786571 L 441.189228 477.93888 L 443.630239 467.786571 L 446.071251 476.645657 L 448.512262 468.784491 L 450.953274 478.9368 L 453.394286 467.684743 L 455.835297 476.645657 L 458.276309 468.081874 L 460.717321 479.232103 L 463.158332 466.686823 L 465.599344 474.547989 L 468.040355 492.072686 L 470.481367 504.709611 L 472.922379 512.275474 L 475.36339 521.63352 L 477.804402 510.391646 L 480.245414 519.444206 L 482.686425 512.672606 L 485.127437 521.338217 L 487.568448 513.477051 L 490.00946 520.839257 L 492.450472 518.252811 L 494.891483 523.028571 L 497.332495 519.148903 L 499.773506 523.028571 L 502.214518 522.926743 L 507.096541 523.028571 L 587.649925 523.028571 L 590.090936 486.400834 L 592.531948 471.370937 L 594.97296 481.818549 L 597.413971 453.652766 L 599.854983 462.11472 L 602.295995 459.721749 L 604.737006 465.495429 L 607.178018 462.11472 L 609.619029 466.992309 L 612.060041 462.807154 L 614.501053 468.285531 L 616.942064 462.705326 L 619.383076 467.083954 L 621.824087 464.100377 L 624.265099 467.582914 L 626.706111 463.601417 L 629.147122 468.682663 L 631.588134 462.603497 L 634.029146 468.682663 L 636.470157 462.908983 L 638.911169 469.079794 L 641.35218 461.513931 L 643.793192 468.784491 L 646.234204 461.707406 L 648.675215 468.784491 L 651.116227 461.61576 L 653.557239 467.786571 L 655.99825 461.809234 L 658.439262 469.772229 L 660.880273 460.220709 L 663.321285 469.079794 L 665.762297 461.218629 L 668.203308 468.479006 L 670.64432 461.513931 L 673.085332 468.081874 L 675.526343 461.412103 L 677.967355 469.273269 L 680.408366 461.1168 L 682.849378 468.377177 L 685.29039 461.014971 L 687.731401 469.375097 L 690.172413 460.516011 L 692.613424 470.373017 L 695.054436 457.532434 L 697.495448 468.682663 L 699.936459 457.725909 L 702.377471 465.597257 L 704.818483 461.809234 L 707.259494 466.493349 L 709.700506 463.703246 L 712.141517 476.543829 L 714.582529 490.677634 L 717.023541 496.247657 L 719.464552 507.000754 L 721.905564 498.03984 L 724.346576 508.395806 L 726.787587 499.434891 L 729.228599 506.30832 L 731.66961 505.514057 L 734.110622 514.963749 L 736.551634 498.243497 L 738.992645 506.104663 L 741.433657 503.019257 L 743.874668 512.377303 L 746.31568 500.330983 L 748.756692 507.998674 L 751.197703 503.121086 L 753.638715 512.275474 L 756.079727 500.229154 L 758.520738 506.501794 L 760.96175 506.410149 L 763.402761 513.772354 L 765.843773 502.520297 L 768.284785 510.289817 L 770.725796 502.224994 L 773.166808 510.982251 L 775.60782 499.53672 L 778.048831 509.495554 L 780.489843 498.447154 L 782.930854 505.412229 L 785.371866 505.605703 L 787.812878 514.169486 L 790.253889 498.844286 L 792.694901 504.709611 L 795.135913 508.894766 L 797.576924 509.689029 L 800.017936 513.568697 L 802.458947 506.898926 L 804.899959 516.256971 L 807.340971 496.247657 L 809.781982 503.518217 L 812.222994 505.911189 L 814.664005 512.58096 L 817.105017 503.121086 L 819.546029 510.483291 L 821.98704 503.019257 L 824.428052 510.686949 L 826.869064 503.019257 L 829.310075 511.481211 L 831.751087 500.728114 L 834.192098 487.195097 L 836.63311 495.056263 L 839.074122 490.677634 L 841.515133 502.123166 L 843.956145 484.109691 L 846.397157 490.382331 L 848.838168 495.25992 L 851.27918 495.25992 L 853.720191 501.125246 L 856.161203 493.966697 L 858.602215 502.428651 L 861.043226 488.590149 L 863.484238 496.451314 L 865.925249 489.883371 L 868.366261 500.728114 L 870.807273 486.197177 L 873.248284 493.966697 L 875.689296 490.779463 L 878.130308 501.328903 L 880.571319 486.299006 L 883.012331 493.365909 L 885.453342 491.869029 L 887.894354 502.723954 L 890.335366 485.301086 L 892.776377 494.954434 L 895.217389 487.093269 L 897.658401 497.347406 L 900.099412 487.592229 L 902.540424 498.640629 L 904.981435 484.506823 L 907.422447 493.661211 L 909.863459 489.679714 L 912.30447 500.432811 L 914.745482 484.802126 L 917.186494 493.76304 L 919.627505 489.48624 L 922.068517 500.137509 L 924.509528 485.901874 L 926.95054 493.365909 L 929.391552 492.571646 L 931.832563 500.53464 L 934.273575 490.677634 L 936.714586 498.640629 L 939.155598 489.883371 L 941.59661 499.53672 L 944.037621 487.388571 L 946.478633 494.954434 L 948.919645 491.970857 L 951.360656 502.326823 L 953.801668 486.003703 L 956.242679 495.657051 L 958.683691 507.000754 L 961.124703 513.772354 L 963.565714 522.13248 L 966.006726 511.379383 L 968.447738 522.427783 L 970.888749 506.501794 L 973.329761 514.668446 L 975.770772 517.35672 L 978.211784 523.028571 L 980.652796 518.843417 L 983.093807 523.028571 L 985.534819 519.148903 L 987.97583 523.028571 L 1075.852249 523.028571 L 1078.29326 484.506823 L 1080.734272 471.564411 L 1083.175284 485.606571 L 1085.616295 472.562331 L 1088.057307 482.521166 L 1090.498319 477.643577 L 1092.93933 487.887531 L 1095.380342 476.248526 L 1097.821353 486.095349 L 1100.262365 478.43784 L 1102.703377 488.48832 L 1105.144388 475.545909 L 1107.5854 485.402914 L 1110.026411 478.529486 L 1112.467423 487.592229 L 1114.908435 477.837051 L 1117.349446 486.594309 L 1119.790458 477.338091 L 1122.23147 488.885451 L 1124.672481 475.046949 L 1127.113493 483.111771 L 1129.554504 479.924537 L 1131.995516 488.284663 L 1134.436528 479.425577 L 1136.877539 487.98936 L 1139.318551 478.132354 L 1141.759563 488.783623 L 1144.200574 477.042789 L 1146.641586 486.594309 L 1149.082597 476.340171 L 1151.523609 486.299006 L 1153.964621 477.837051 L 1156.405632 488.284663 L 1158.846644 474.649817 L 1161.287656 485.402914 L 1163.728667 476.94096 L 1166.169679 488.193017 L 1168.61069 474.547989 L 1171.051702 484.109691 L 1173.492714 478.733143 L 1175.933725 488.691977 L 1178.374737 476.747486 L 1180.815748 486.197177 L 1183.25676 477.144617 L 1185.697772 488.48832 L 1188.138783 475.545909 L 1190.579795 483.814389 L 1193.020807 479.232103 L 1195.461818 489.180754 L 1195.461818 489.180754" clip-path="url(#p1df12f2488)"/></g><g id="line2d_94"><path fill="none" stroke="#00f" stroke-dasharray="7.4 3.2" stroke-dashoffset="0" stroke-width="2" d="M 221.498182 523.028571 L 341.107751 523.028571 L 343.548763 441.565714 L 463.158332 441.565714 L 465.599344 523.028571 L 585.208913 523.028571 L 587.649925 421.2 L 707.259494 421.2 L 709.700506 502.662857 L 829.310075 502.662857 L 831.751087 482.297143 L 951.360656 482.297143 L 953.801668 523.028571 L 1073.411237 523.028571 L 1075.852249 461.931429 L 1195.461818 461.931429 L 1195.461818 461.931429" clip-path="url(#p1df12f2488)"/></g><g id="patch_13"><path fill="none" stroke="#000" stroke-linecap="square" stroke-linejoin="miter" stroke-width=".8" d="M 172.8 533.211429 L 172.8 411.017143"/></g><g id="patch_14"><path fill="none" stroke="#000" stroke-linecap="square" stroke-linejoin="miter" stroke-width=".8" d="M 1244.16 533.211429 L 1244.16 411.017143"/></g><g id="patch_15"><path fill="none" stroke="#000" stroke-linecap="square" stroke-linejoin="miter" stroke-width=".8" d="M 172.8 533.211429 L 1244.16 533.211429"/></g><g id="patch_16"><path fill="none" stroke="#000" stroke-linecap="square" stroke-linejoin="miter" stroke-width=".8" d="M 172.8 411.017143 L 1244.16 411.017143"/></g><g id="text_24"><defs><path id="DejaVuSans-68" d="M 19.671875 64.796875 L 19.671875 8.109375 L 31.59375 8.109375 Q 46.6875 8.109375 53.6875 14.9375 Q 60.6875 21.78125 60.6875 36.53125 Q 60.6875 51.171875 53.6875 57.984375 Q 46.6875 64.796875 31.59375 64.796875 z M 9.8125 72.90625 L 30.078125 72.90625 Q 51.265625 72.90625 61.171875 64.09375 Q 71.09375 55.28125 71.09375 36.53125 Q 71.09375 17.671875 61.125 8.828125 Q 51.171875 0 30.078125 0 L 9.8125 0 z"/><path id="DejaVuSans-115" d="M 44.28125 53.078125 L 44.28125 44.578125 Q 40.484375 46.53125 36.375 47.5 Q 32.28125 48.484375 27.875 48.484375 Q 21.1875 48.484375 17.84375 46.4375 Q 14.5 44.390625 14.5 40.28125 Q 14.5 37.15625 16.890625 35.375 Q 19.28125 33.59375 26.515625 31.984375 L 29.59375 31.296875 Q 39.15625 29.25 43.1875 25.515625 Q 47.21875 21.78125 47.21875 15.09375 Q 47.21875 7.46875 41.1875 3.015625 Q 35.15625 -1.421875 24.609375 -1.421875 Q 20.21875 -1.421875 15.453125 -0.5625 Q 10.6875 0.296875 5.421875 2 L 5.421875 11.28125 Q 10.40625 8.6875 15.234375 7.390625 Q 20.0625 6.109375 24.8125 6.109375 Q 31.15625 6.109375 34.5625 8.28125 Q 37.984375 10.453125 37.984375 14.40625 Q 37.984375 18.0625 35.515625 20.015625 Q 33.0625 21.96875 24.703125 23.78125 L 21.578125 24.515625 Q 13.234375 26.265625 9.515625 29.90625 Q 5.8125 33.546875 5.8125 39.890625 Q 5.8125 47.609375 11.28125 51.796875 Q 16.75 56 26.8125 56 Q 31.78125 56 36.171875 55.265625 Q 40.578125 54.546875 44.28125 53.078125 z"/><path id="DejaVuSans-76" d="M 9.8125 72.90625 L 19.671875 72.90625 L 19.671875 8.296875 L 55.171875 8.296875 L 55.171875 0 L 9.8125 0 z"/></defs><g transform="translate(613.784766 405.017143)scale(0.21 -0.21)"><use xlink:href="#DejaVuSans-68"/><use x="77.002" xlink:href="#DejaVuSans-97"/><use x="138.281" xlink:href="#DejaVuSans-100"/><use x="201.758" xlink:href="#DejaVuSans-111"/><use x="262.939" xlink:href="#DejaVuSans-115"/><use x="315.039" xlink:href="#DejaVuSans-32"/><use x="346.826" xlink:href="#DejaVuSans-76"/><use x="402.539" xlink:href="#DejaVuSans-105"/><use x="430.322" xlink:href="#DejaVuSans-100"/><use x="493.799" xlink:href="#DejaVuSans-111"/><use x="554.98" xlink:href="#DejaVuSans-115"/><use x="607.08" xlink:href="#DejaVuSans-32"/><use x="638.867" xlink:href="#DejaVuSans-45"/><use x="674.951" xlink:href="#DejaVuSans-32"/><use x="706.738" xlink:href="#DejaVuSans-121"/><use x="765.918" xlink:href="#DejaVuSans-40"/><use x="804.932" xlink:href="#DejaVuSans-107"/><use x="862.842" xlink:href="#DejaVuSans-41"/></g></g><g id="legend_1"><g id="patch_17"><path fill="#fff" stroke="#ccc" stroke-linejoin="miter" d="M 1195.130312 448.373393 L 1237.16 448.373393 Q 1239.16 448.373393 1239.16 446.373393 L 1239.16 418.017143 Q 1239.16 416.017143 1237.16 416.017143 L 1195.130312 416.017143 Q 1193.130312 416.017143 1193.130312 418.017143 L 1193.130312 446.373393 Q 1193.130312 448.373393 1195.130312 448.373393 z" opacity=".8"/></g><g id="line2d_95"><path fill="none" stroke="red" stroke-linecap="square" stroke-width="4" d="M 1197.130312 424.11558 L 1217.130312 424.11558"/></g><g id="text_25"><g transform="translate(1225.130312 427.61558)scale(0.1 -0.1)"><use xlink:href="#DejaVuSans-121"/></g></g><g id="line2d_97"><path fill="none" stroke="#00f" stroke-dasharray="7.4 3.2" stroke-dashoffset="0" stroke-width="2" d="M 1197.130312 438.793705 L 1217.130312 438.793705"/></g><g id="text_26"><g transform="translate(1225.130312 442.293705)scale(0.1 -0.1)"><use xlink:href="#DejaVuSans-121"/><use x="59.18" xlink:href="#DejaVuSans-114"/></g></g></g></g><g id="axes_4"><g id="patch_18"><path fill="#fff" d="M 172.8 692.064 L 1244.16 692.064 L 1244.16 569.869714 L 172.8 569.869714 z"/></g><g id="matplotlib.axis_7"><g id="xtick_28"><g id="line2d_99"><path fill="none" stroke="gray" stroke-linecap="square" stroke-width=".8" d="M 221.498182 692.064 L 221.498182 569.869714" clip-path="url(#p0189dc2608)"/></g><g id="line2d_100"><g><use x="221.498" y="692.064" stroke="#000" stroke-width=".8" xlink:href="#m425f81a4bb"/></g></g><g id="text_27"><g transform="translate(218.316932 706.662438)scale(0.1 -0.1)"><use xlink:href="#DejaVuSans-48"/></g></g></g><g id="xtick_29"><g id="line2d_101"><path fill="none" stroke="gray" stroke-linecap="square" stroke-width=".8" d="M 343.548763 692.064 L 343.548763 569.869714" clip-path="url(#p0189dc2608)"/></g><g id="line2d_102"><g><use x="343.549" y="692.064" stroke="#000" stroke-width=".8" xlink:href="#m425f81a4bb"/></g></g><g id="text_28"><g transform="translate(337.186263 706.662438)scale(0.1 -0.1)"><use xlink:href="#DejaVuSans-53"/><use x="63.623" xlink:href="#DejaVuSans-48"/></g></g></g><g id="xtick_30"><g id="line2d_103"><path fill="none" stroke="gray" stroke-linecap="square" stroke-width=".8" d="M 465.599344 692.064 L 465.599344 569.869714" clip-path="url(#p0189dc2608)"/></g><g id="line2d_104"><g><use x="465.599" y="692.064" stroke="#000" stroke-width=".8" xlink:href="#m425f81a4bb"/></g></g><g id="text_29"><g transform="translate(456.055594 706.662438)scale(0.1 -0.1)"><use xlink:href="#DejaVuSans-49"/><use x="63.623" xlink:href="#DejaVuSans-48"/><use x="127.246" xlink:href="#DejaVuSans-48"/></g></g></g><g id="xtick_31"><g id="line2d_105"><path fill="none" stroke="gray" stroke-linecap="square" stroke-width=".8" d="M 587.649925 692.064 L 587.649925 569.869714" clip-path="url(#p0189dc2608)"/></g><g id="line2d_106"><g><use x="587.65" y="692.064" stroke="#000" stroke-width=".8" xlink:href="#m425f81a4bb"/></g></g><g id="text_30"><g transform="translate(578.106175 706.662438)scale(0.1 -0.1)"><use xlink:href="#DejaVuSans-49"/><use x="63.623" xlink:href="#DejaVuSans-53"/><use x="127.246" xlink:href="#DejaVuSans-48"/></g></g></g><g id="xtick_32"><g id="line2d_107"><path fill="none" stroke="gray" stroke-linecap="square" stroke-width=".8" d="M 709.700506 692.064 L 709.700506 569.869714" clip-path="url(#p0189dc2608)"/></g><g id="line2d_108"><g><use x="709.701" y="692.064" stroke="#000" stroke-width=".8" xlink:href="#m425f81a4bb"/></g></g><g id="text_31"><g transform="translate(700.156756 706.662438)scale(0.1 -0.1)"><use xlink:href="#DejaVuSans-50"/><use x="63.623" xlink:href="#DejaVuSans-48"/><use x="127.246" xlink:href="#DejaVuSans-48"/></g></g></g><g id="xtick_33"><g id="line2d_109"><path fill="none" stroke="gray" stroke-linecap="square" stroke-width=".8" d="M 831.751087 692.064 L 831.751087 569.869714" clip-path="url(#p0189dc2608)"/></g><g id="line2d_110"><g><use x="831.751" y="692.064" stroke="#000" stroke-width=".8" xlink:href="#m425f81a4bb"/></g></g><g id="text_32"><g transform="translate(822.207337 706.662438)scale(0.1 -0.1)"><use xlink:href="#DejaVuSans-50"/><use x="63.623" xlink:href="#DejaVuSans-53"/><use x="127.246" xlink:href="#DejaVuSans-48"/></g></g></g><g id="xtick_34"><g id="line2d_111"><path fill="none" stroke="gray" stroke-linecap="square" stroke-width=".8" d="M 953.801668 692.064 L 953.801668 569.869714" clip-path="url(#p0189dc2608)"/></g><g id="line2d_112"><g><use x="953.802" y="692.064" stroke="#000" stroke-width=".8" xlink:href="#m425f81a4bb"/></g></g><g id="text_33"><g transform="translate(944.257918 706.662438)scale(0.1 -0.1)"><use xlink:href="#DejaVuSans-51"/><use x="63.623" xlink:href="#DejaVuSans-48"/><use x="127.246" xlink:href="#DejaVuSans-48"/></g></g></g><g id="xtick_35"><g id="line2d_113"><path fill="none" stroke="gray" stroke-linecap="square" stroke-width=".8" d="M 1075.852249 692.064 L 1075.852249 569.869714" clip-path="url(#p0189dc2608)"/></g><g id="line2d_114"><g><use x="1075.852" y="692.064" stroke="#000" stroke-width=".8" xlink:href="#m425f81a4bb"/></g></g><g id="text_34"><g transform="translate(1066.308499 706.662438)scale(0.1 -0.1)"><use xlink:href="#DejaVuSans-51"/><use x="63.623" xlink:href="#DejaVuSans-53"/><use x="127.246" xlink:href="#DejaVuSans-48"/></g></g></g><g id="xtick_36"><g id="line2d_115"><path fill="none" stroke="gray" stroke-linecap="square" stroke-width=".8" d="M 1197.90283 692.064 L 1197.90283 569.869714" clip-path="url(#p0189dc2608)"/></g><g id="line2d_116"><g><use x="1197.903" y="692.064" stroke="#000" stroke-width=".8" xlink:href="#m425f81a4bb"/></g></g><g id="text_35"><g transform="translate(1188.35908 706.662438)scale(0.1 -0.1)"><use xlink:href="#DejaVuSans-52"/><use x="63.623" xlink:href="#DejaVuSans-48"/><use x="127.246" xlink:href="#DejaVuSans-48"/></g></g></g><g id="text_36"><defs><path id="DejaVuSans-65" d="M 34.1875 63.1875 L 20.796875 26.90625 L 47.609375 26.90625 z M 28.609375 72.90625 L 39.796875 72.90625 L 67.578125 0 L 57.328125 0 L 50.6875 18.703125 L 17.828125 18.703125 L 11.1875 0 L 0.78125 0 z"/></defs><g transform="translate(650.835 726.419313)scale(0.18 -0.18)"><use xlink:href="#DejaVuSans-65"/><use x="68.408" xlink:href="#DejaVuSans-109"/><use x="165.82" xlink:href="#DejaVuSans-111"/><use x="227.002" xlink:href="#DejaVuSans-115"/><use x="279.102" xlink:href="#DejaVuSans-116"/><use x="318.311" xlink:href="#DejaVuSans-114"/><use x="359.424" xlink:href="#DejaVuSans-97"/><use x="420.703" xlink:href="#DejaVuSans-115"/><use x="472.803" xlink:href="#DejaVuSans-32"/><use x="504.59" xlink:href="#DejaVuSans-40"/><use x="543.604" xlink:href="#DejaVuSans-107"/><use x="601.514" xlink:href="#DejaVuSans-41"/></g></g></g><g id="matplotlib.axis_8"><g id="ytick_19"><g id="line2d_117"><path fill="none" stroke="gray" stroke-linecap="square" stroke-width=".8" d="M 172.8 675.401143 L 1244.16 675.401143" clip-path="url(#p0189dc2608)"/></g><g id="line2d_118"><g><use x="172.8" y="675.401" stroke="#000" stroke-width=".8" xlink:href="#mb638cfdf9c"/></g></g><g id="text_37"><defs><path id="DejaVuSans-8722" d="M 10.59375 35.5 L 73.1875 35.5 L 73.1875 27.203125 L 10.59375 27.203125 z"/></defs><g transform="translate(151.057812 679.200362)scale(0.1 -0.1)"><use xlink:href="#DejaVuSans-8722"/><use x="83.789" xlink:href="#DejaVuSans-52"/></g></g></g><g id="ytick_20"><g id="line2d_119"><path fill="none" stroke="gray" stroke-linecap="square" stroke-width=".8" d="M 172.8 653.184 L 1244.16 653.184" clip-path="url(#p0189dc2608)"/></g><g id="line2d_120"><g><use x="172.8" y="653.184" stroke="#000" stroke-width=".8" xlink:href="#mb638cfdf9c"/></g></g><g id="text_38"><g transform="translate(151.057812 656.983219)scale(0.1 -0.1)"><use xlink:href="#DejaVuSans-8722"/><use x="83.789" xlink:href="#DejaVuSans-50"/></g></g></g><g id="ytick_21"><g id="line2d_121"><path fill="none" stroke="gray" stroke-linecap="square" stroke-width=".8" d="M 172.8 630.966857 L 1244.16 630.966857" clip-path="url(#p0189dc2608)"/></g><g id="line2d_122"><g><use x="172.8" y="630.967" stroke="#000" stroke-width=".8" xlink:href="#mb638cfdf9c"/></g></g><g id="text_39"><g transform="translate(159.4375 634.766076)scale(0.1 -0.1)"><use xlink:href="#DejaVuSans-48"/></g></g></g><g id="ytick_22"><g id="line2d_123"><path fill="none" stroke="gray" stroke-linecap="square" stroke-width=".8" d="M 172.8 608.749714 L 1244.16 608.749714" clip-path="url(#p0189dc2608)"/></g><g id="line2d_124"><g><use x="172.8" y="608.75" stroke="#000" stroke-width=".8" xlink:href="#mb638cfdf9c"/></g></g><g id="text_40"><g transform="translate(159.4375 612.548933)scale(0.1 -0.1)"><use xlink:href="#DejaVuSans-50"/></g></g></g><g id="ytick_23"><g id="line2d_125"><path fill="none" stroke="gray" stroke-linecap="square" stroke-width=".8" d="M 172.8 586.532571 L 1244.16 586.532571" clip-path="url(#p0189dc2608)"/></g><g id="line2d_126"><g><use x="172.8" y="586.533" stroke="#000" stroke-width=".8" xlink:href="#mb638cfdf9c"/></g></g><g id="text_41"><g transform="translate(159.4375 590.33179)scale(0.1 -0.1)"><use xlink:href="#DejaVuSans-52"/></g></g></g><g id="text_42"><g transform="translate(143.730312 683.638107)rotate(-90)scale(0.16 -0.16)"><use xlink:href="#DejaVuSans-86"/><use x="68.299" xlink:href="#DejaVuSans-111"/><use x="129.48" xlink:href="#DejaVuSans-108"/><use x="157.264" xlink:href="#DejaVuSans-116"/><use x="196.473" xlink:href="#DejaVuSans-97"/><use x="257.752" xlink:href="#DejaVuSans-103"/><use x="321.229" xlink:href="#DejaVuSans-101"/><use x="382.752" xlink:href="#DejaVuSans-109"/><use x="480.164" xlink:href="#DejaVuSans-32"/><use x="511.951" xlink:href="#DejaVuSans-40"/><use x="550.965" xlink:href="#DejaVuSans-86"/><use x="619.373" xlink:href="#DejaVuSans-41"/></g></g></g><g id="line2d_127"><path fill="none" stroke="#000" stroke-linecap="square" stroke-width="4" d="M 221.498182 630.966857 L 341.107751 630.966857 L 343.548763 586.532571 L 345.989774 604.722857 L 348.430786 614.92608 L 350.871798 605.861486 L 353.312809 620.141554 L 355.753821 619.052914 L 358.194833 613.193143 L 360.635844 617.153349 L 363.076856 611.832343 L 365.517867 617.047817 L 367.958879 610.477097 L 370.399891 618.130903 L 372.840902 612.86544 L 375.281914 615.903634 L 377.722925 611.454651 L 380.163937 616.175794 L 382.604949 610.854789 L 385.04596 616.992274 L 387.486972 610.582629 L 389.927984 618.07536 L 392.368995 611.510194 L 394.810007 618.947383 L 397.251018 612.32112 L 399.69203 618.025371 L 402.133042 612.809897 L 404.574053 616.28688 L 407.015065 611.510194 L 409.456077 615.414857 L 411.897088 611.998971 L 414.3381 614.603931 L 416.779111 610.693714 L 419.220123 614.765006 L 421.661135 610.043863 L 424.102146 616.392411 L 426.543158 610.854789 L 428.98417 616.447954 L 431.425181 610.749257 L 433.866193 617.536594 L 436.307204 611.7768 L 438.748216 616.664571 L 441.189228 611.126949 L 443.630239 616.664571 L 446.071251 611.832343 L 448.512262 616.120251 L 450.953274 610.582629 L 453.394286 616.720114 L 455.835297 611.832343 L 458.276309 616.503497 L 460.717321 610.421554 L 463.158332 617.264434 L 465.599344 657.410811 L 468.040355 647.851886 L 470.481367 640.959017 L 472.922379 636.832183 L 475.36339 631.727794 L 477.804402 637.859726 L 480.245414 632.921966 L 482.686425 636.615566 L 485.127437 631.888869 L 487.568448 636.176777 L 490.00946 632.161029 L 492.450472 633.571817 L 494.891483 630.966857 L 497.332495 633.08304 L 499.773506 630.966857 L 504.65553 630.966857 L 585.208913 630.966857 L 587.649925 575.424 L 590.090936 595.402766 L 592.531948 603.600891 L 594.97296 597.902194 L 597.413971 613.265349 L 599.854983 608.649737 L 602.295995 609.954994 L 604.737006 606.805714 L 607.178018 608.649737 L 609.619029 605.989234 L 612.060041 608.272046 L 614.501053 605.28384 L 616.942064 608.327589 L 619.383076 605.939246 L 621.824087 607.566651 L 624.265099 605.667086 L 626.706111 607.838811 L 629.147122 605.067223 L 631.588134 608.383131 L 634.029146 605.067223 L 636.470157 608.216503 L 638.911169 604.850606 L 641.35218 608.97744 L 643.793192 605.01168 L 646.234204 608.871909 L 648.675215 605.01168 L 651.116227 608.921897 L 653.557239 605.556 L 655.99825 608.816366 L 658.439262 604.472914 L 660.880273 609.682834 L 663.321285 604.850606 L 665.762297 609.138514 L 668.203308 605.178309 L 670.64432 608.97744 L 673.085332 605.394926 L 675.526343 609.032983 L 677.967355 604.745074 L 680.408366 609.194057 L 682.849378 605.233851 L 685.29039 609.2496 L 687.731401 604.689531 L 690.172413 609.52176 L 692.613424 604.145211 L 695.054436 611.149166 L 697.495448 605.067223 L 699.936459 611.043634 L 702.377471 606.750171 L 704.818483 608.816366 L 707.259494 606.261394 L 709.700506 652.217554 L 712.141517 645.2136 L 714.582529 637.504251 L 717.023541 634.466057 L 719.464552 628.600731 L 721.905564 633.488503 L 724.346576 627.839794 L 726.787587 632.727566 L 729.228599 628.978423 L 731.66961 629.411657 L 734.110622 624.25728 L 736.551634 633.377417 L 738.992645 629.089509 L 741.433657 630.772457 L 743.874668 625.668069 L 746.31568 632.238789 L 748.756692 628.056411 L 751.197703 630.716914 L 753.638715 625.723611 L 756.079727 632.294331 L 758.520738 628.872891 L 760.96175 628.92288 L 763.402761 624.907131 L 765.843773 631.044617 L 768.284785 626.806697 L 770.725796 631.205691 L 773.166808 626.429006 L 775.60782 632.672023 L 778.048831 627.239931 L 780.489843 633.266331 L 782.930854 629.4672 L 785.371866 629.361669 L 787.812878 624.690514 L 790.253889 633.049714 L 792.694901 629.850446 L 795.135913 627.567634 L 797.576924 627.1344 L 800.017936 625.018217 L 802.458947 628.656274 L 804.899959 623.551886 L 807.340971 634.466057 L 809.781982 630.500297 L 812.222994 629.19504 L 814.664005 625.556983 L 817.105017 630.716914 L 819.546029 626.701166 L 821.98704 630.772457 L 824.428052 626.59008 L 826.869064 630.772457 L 829.310075 626.156846 L 831.751087 620.9136 L 834.192098 628.295246 L 836.63311 624.007337 L 839.074122 626.39568 L 841.515133 620.152663 L 843.956145 629.978194 L 846.397157 626.556754 L 848.838168 623.896251 L 851.27918 623.896251 L 853.720191 620.696983 L 856.161203 624.601646 L 858.602215 619.986034 L 861.043226 627.534309 L 863.484238 623.2464 L 865.925249 626.828914 L 868.366261 620.9136 L 870.807273 628.839566 L 873.248284 624.601646 L 875.689296 626.340137 L 878.130308 620.585897 L 880.571319 628.784023 L 883.012331 624.929349 L 885.453342 625.745829 L 887.894354 619.82496 L 890.335366 629.328343 L 892.776377 624.06288 L 895.217389 628.350789 L 897.658401 622.757623 L 900.099412 628.078629 L 902.540424 622.052229 L 904.981435 629.761577 L 907.422447 624.768274 L 909.863459 626.94 L 912.30447 621.074674 L 914.745482 629.600503 L 917.186494 624.712731 L 919.627505 627.045531 L 922.068517 621.235749 L 924.509528 629.00064 L 926.95054 624.929349 L 929.391552 625.362583 L 931.832563 621.019131 L 934.273575 626.39568 L 936.714586 622.052229 L 939.155598 626.828914 L 941.59661 621.563451 L 944.037621 628.189714 L 946.478633 624.06288 L 948.919645 625.690286 L 951.360656 620.041577 L 953.801668 651.16224 L 956.242679 645.896777 L 958.683691 639.709303 L 961.124703 636.015703 L 963.565714 631.455634 L 966.006726 637.32096 L 968.447738 631.29456 L 970.888749 639.981463 L 973.329761 635.526926 L 975.770772 634.060594 L 978.211784 630.966857 L 980.652796 633.249669 L 983.093807 630.966857 L 985.534819 633.08304 L 987.97583 630.966857 L 1073.411237 630.966857 L 1075.852249 597.641143 L 1078.29326 618.653006 L 1080.734272 625.712503 L 1083.175284 618.053143 L 1085.616295 625.168183 L 1088.057307 619.736091 L 1090.498319 622.396594 L 1092.93933 616.808983 L 1095.380342 623.157531 L 1097.821353 617.786537 L 1100.262365 621.96336 L 1102.703377 616.48128 L 1105.144388 623.540777 L 1107.5854 618.164229 L 1110.026411 621.913371 L 1112.467423 616.970057 L 1114.908435 622.291063 L 1117.349446 617.514377 L 1119.790458 622.563223 L 1122.23147 616.264663 L 1124.672481 623.812937 L 1127.113493 619.413943 L 1129.554504 621.152434 L 1131.995516 616.592366 L 1134.436528 621.424594 L 1136.877539 616.75344 L 1139.318551 622.129989 L 1141.759563 616.320206 L 1144.200574 622.724297 L 1146.641586 617.514377 L 1149.082597 623.107543 L 1151.523609 617.675451 L 1153.964621 622.291063 L 1156.405632 616.592366 L 1158.846644 624.029554 L 1161.287656 618.164229 L 1163.728667 622.77984 L 1166.169679 616.642354 L 1168.61069 624.085097 L 1171.051702 618.869623 L 1173.492714 621.802286 L 1175.933725 616.370194 L 1178.374737 622.885371 L 1180.815748 617.730994 L 1183.25676 622.668754 L 1185.697772 616.48128 L 1188.138783 623.540777 L 1190.579795 619.030697 L 1193.020807 621.530126 L 1195.461818 616.103589 L 1195.461818 616.103589" clip-path="url(#p0189dc2608)"/></g><g id="patch_19"><path fill="none" stroke="#000" stroke-linecap="square" stroke-linejoin="miter" stroke-width=".8" d="M 172.8 692.064 L 172.8 569.869714"/></g><g id="patch_20"><path fill="none" stroke="#000" stroke-linecap="square" stroke-linejoin="miter" stroke-width=".8" d="M 1244.16 692.064 L 1244.16 569.869714"/></g><g id="patch_21"><path fill="none" stroke="#000" stroke-linecap="square" stroke-linejoin="miter" stroke-width=".8" d="M 172.8 692.064 L 1244.16 692.064"/></g><g id="patch_22"><path fill="none" stroke="#000" stroke-linecap="square" stroke-linejoin="miter" stroke-width=".8" d="M 172.8 569.869714 L 1244.16 569.869714"/></g><g id="text_43"><defs><path id="DejaVuSans-69" d="M 9.8125 72.90625 L 55.90625 72.90625 L 55.90625 64.59375 L 19.671875 64.59375 L 19.671875 43.015625 L 54.390625 43.015625 L 54.390625 34.71875 L 19.671875 34.71875 L 19.671875 8.296875 L 56.78125 8.296875 L 56.78125 0 L 9.8125 0 z"/></defs><g transform="translate(655.596094 563.869714)scale(0.21 -0.21)"><use xlink:href="#DejaVuSans-69"/><use x="63.184" xlink:href="#DejaVuSans-114"/><use x="104.281" xlink:href="#DejaVuSans-114"/><use x="145.363" xlink:href="#DejaVuSans-111"/><use x="206.545" xlink:href="#DejaVuSans-32"/><use x="238.332" xlink:href="#DejaVuSans-45"/><use x="274.416" xlink:href="#DejaVuSans-32"/><use x="306.203" xlink:href="#DejaVuSans-101"/><use x="367.727" xlink:href="#DejaVuSans-40"/><use x="406.74" xlink:href="#DejaVuSans-107"/><use x="464.65" xlink:href="#DejaVuSans-41"/></g></g></g><g id="text_44"><defs><path id="DejaVuSans-67" d="M 64.40625 67.28125 L 64.40625 56.890625 Q 59.421875 61.53125 53.78125 63.8125 Q 48.140625 66.109375 41.796875 66.109375 Q 29.296875 66.109375 22.65625 58.46875 Q 16.015625 50.828125 16.015625 36.375 Q 16.015625 21.96875 22.65625 14.328125 Q 29.296875 6.6875 41.796875 6.6875 Q 48.140625 6.6875 53.78125 8.984375 Q 59.421875 11.28125 64.40625 15.921875 L 64.40625 5.609375 Q 59.234375 2.09375 53.4375 0.328125 Q 47.65625 -1.421875 41.21875 -1.421875 Q 24.65625 -1.421875 15.125 8.703125 Q 5.609375 18.84375 5.609375 36.375 Q 5.609375 53.953125 15.125 64.078125 Q 24.65625 74.21875 41.21875 74.21875 Q 47.75 74.21875 53.53125 72.484375 Q 59.328125 70.75 64.40625 67.28125 z"/><path id="DejaVuSans-118" d="M 2.984375 54.6875 L 12.5 54.6875 L 29.59375 8.796875 L 46.6875 54.6875 L 56.203125 54.6875 L 35.6875 0 L 23.484375 0 z"/><path id="DejaVuSans-231" d="M 48.78125 52.59375 L 48.78125 44.1875 Q 44.96875 46.296875 41.140625 47.34375 Q 37.3125 48.390625 33.40625 48.390625 Q 24.65625 48.390625 19.8125 42.84375 Q 14.984375 37.3125 14.984375 27.296875 Q 14.984375 17.28125 19.8125 11.734375 Q 24.65625 6.203125 33.40625 6.203125 Q 37.3125 6.203125 41.140625 7.25 Q 44.96875 8.296875 48.78125 10.40625 L 48.78125 2.09375 Q 45.015625 0.34375 40.984375 -0.53125 Q 36.96875 -1.421875 32.421875 -1.421875 Q 20.0625 -1.421875 12.78125 6.34375 Q 5.515625 14.109375 5.515625 27.296875 Q 5.515625 40.671875 12.859375 48.328125 Q 20.21875 56 33.015625 56 Q 37.15625 56 41.109375 55.140625 Q 45.0625 54.296875 48.78125 52.59375 z M 36.109375 0 Q 38.78125 -3.03125 40.09375 -5.59375 Q 41.421875 -8.15625 41.421875 -10.5 Q 41.421875 -14.84375 38.484375 -17.0625 Q 35.5625 -19.28125 29.796875 -19.28125 Q 27.5625 -19.28125 25.4375 -18.984375 Q 23.3125 -18.703125 21.203125 -18.109375 L 21.203125 -11.71875 Q 22.875 -12.546875 24.671875 -12.90625 Q 26.484375 -13.28125 28.78125 -13.28125 Q 31.65625 -13.28125 33.125 -12.109375 Q 34.59375 -10.9375 34.59375 -8.6875 Q 34.59375 -7.234375 33.53125 -5.109375 Q 32.484375 -2.984375 30.296875 0 z"/></defs><g transform="translate(534.07875 35.307937)scale(0.26 -0.26)"><use xlink:href="#DejaVuSans-67"/><use x="69.824" xlink:href="#DejaVuSans-111"/><use x="131.006" xlink:href="#DejaVuSans-110"/><use x="194.385" xlink:href="#DejaVuSans-116"/><use x="233.594" xlink:href="#DejaVuSans-114"/><use x="274.676" xlink:href="#DejaVuSans-111"/><use x="335.857" xlink:href="#DejaVuSans-108"/><use x="363.641" xlink:href="#DejaVuSans-97"/><use x="424.92" xlink:href="#DejaVuSans-100"/><use x="488.396" xlink:href="#DejaVuSans-111"/><use x="549.578" xlink:href="#DejaVuSans-114"/><use x="590.691" xlink:href="#DejaVuSans-32"/><use x="622.479" xlink:href="#DejaVuSans-97"/><use x="683.758" xlink:href="#DejaVuSans-118"/><use x="742.938" xlink:href="#DejaVuSans-97"/><use x="804.217" xlink:href="#DejaVuSans-110"/><use x="867.596" xlink:href="#DejaVuSans-231"/><use x="922.576" xlink:href="#DejaVuSans-111"/><use x="983.758" xlink:href="#DejaVuSans-32"/><use x="1015.545" xlink:href="#DejaVuSans-45"/><use x="1051.629" xlink:href="#DejaVuSans-32"/><use x="1083.416" xlink:href="#DejaVuSans-76"/><use x="1139.129" xlink:href="#DejaVuSans-82"/></g></g></g><defs><clipPath id="pb7f0ac1a0d"><rect width="1071.36" height="122.194" x="172.8" y="93.312"/></clipPath><clipPath id="pa0bc8e6fa9"><rect width="1071.36" height="122.194" x="172.8" y="252.165"/></clipPath><clipPath id="p1df12f2488"><rect width="1071.36" height="122.194" x="172.8" y="411.017"/></clipPath><clipPath id="p0189dc2608"><rect width="1071.36" height="122.194" x="172.8" y="569.87"/></clipPath></defs></svg>