<svg xmlns="http://www.w3.org/2000/svg" xmlns:xlink="http://www.w3.org/1999/xlink" width="1843.2" height="1036.8" version="1.1" viewBox="0 0 1382.4 777.6"><defs><style type="text/css">*{stroke-linecap:butt;stroke-linejoin:round;white-space:pre}</style></defs><g id="figure_1"><g id="patch_1"><path fill="#fff" d="M 0 777.6 L 1382.4 777.6 L 1382.4 0 L 0 0 z"/></g><g id="axes_1"><g id="patch_2"><path fill="#fff" d="M 172.8 215.506286 L 1244.16 215.506286 L 1244.16 93.312 L 172.8 93.312 z"/></g><g id="matplotlib.axis_1"><g id="xtick_1"><g id="line2d_1"><path fill="none" stroke="gray" stroke-linecap="square" stroke-width=".8" d="M 221.498182 215.506286 L 221.498182 93.312" clip-path="url(#p7d42534781)"/></g><g id="line2d_2"><defs><path id="m8cf613a246" stroke="#000" stroke-width=".8" d="M 0 0 L 0 3.5"/></defs><g><use x="221.498" y="215.506" stroke="#000" stroke-width=".8" xlink:href="#m8cf613a246"/></g></g></g><g id="xtick_2"><g id="line2d_3"><path fill="none" stroke="gray" stroke-linecap="square" stroke-width=".8" d="M 343.548763 215.506286 L 343.548763 93.312" clip-path="url(#p7d42534781)"/></g><g id="line2d_4"><g><use x="343.549" y="215.506" stroke="#000" stroke-width=".8" xlink:href="#m8cf613a246"/></g></g></g><g id="xtick_3"><g id="line2d_5"><path fill="none" stroke="gray" stroke-linecap="square" stroke-width=".8" d="M 465.599344 215.506286 L 465.599344 93.312" clip-path="url(#p7d42534781)"/></g><g id="line2d_6"><g><use x="465.599" y="215.506" stroke="#000" stroke-width=".8" xlink:href="#m8cf613a246"/></g></g></g><g id="xtick_4"><g id="line2d_7"><path fill="none" stroke="gray" stroke-linecap="square" stroke-width=".8" d="M 587.649925 215.506286 L 587.649925 93.312" clip-path="url(#p7d42534781)"/></g><g id="line2d_8"><g><use x="587.65" y="215.506" stroke="#000" stroke-width=".8" xlink:href="#m8cf613a246"/></g></g></g><g id="xtick_5"><g id="line2d_9"><path fill="none" stroke="gray" stroke-linecap="square" stroke-width=".8" d="M 709.700506 215.506286 L 709.700506 93.312" clip-path="url(#p7d42534781)"/></g><g id="line2d_10"><g><use x="709.701" y="215.506" stroke="#000" stroke-width=".8" xlink:href="#m8cf613a246"/></g></g></g><g id="xtick_6"><g id="line2d_11"><path fill="none" stroke="gray" stroke-linecap="square" stroke-width=".8" d="M 831.751087 215.506286 L 831.751087 93.312" clip-path="url(#p7d42534781)"/></g><g id="line2d_12"><g><use x="831.751" y="215.506" stroke="#000" stroke-width=".8" xlink:href="#m8cf613a246"/></g></g></g><g id="xtick_7"><g id="line2d_13"><path fill="none" stroke="gray" stroke-linecap="square" stroke-width=".8" d="M 953.801668 215.506286 L 953.801668 93.312" clip-path="url(#p7d42534781)"/></g><g id="line2d_14"><g><use x="953.802" y="215.506" stroke="#000" stroke-width=".8" xlink:href="#m8cf613a246"/></g></g></g><g id="xtick_8"><g id="line2d_15"><path fill="none" stroke="gray" stroke-linecap="square" stroke-width=".8" d="M 1075.852249 215.506286 L 1075.852249 93.312" clip-path="url(#p7d42534781)"/></g><g id="line2d_16"><g><use x="1075.852" y="215.506" stroke="#000" stroke-width=".8" xlink:href="#m8cf613a246"/></g></g></g><g id="xtick_9"><g id="line2d_17"><path fill="none" stroke="gray" stroke-linecap="square" stroke-width=".8" d="M 1197.90283 215.506286 L 1197.90283 93.312" clip-path="url(#p7d42534781)"/></g><g id="line2d_18"><g><use x="1197.903" y="215.506" stroke="#000" stroke-width=".8" xlink:href="#m8cf613a246"/></g></g></g></g><g id="matplotlib.axis_2"><g id="ytick_1"><g id="line2d_19"><path fill="none" stroke="gray" stroke-linecap="square" stroke-width=".8" d="M 172.8 205.323429 L 1244.16 205.323429" clip-path="url(#p7d42534781)"/></g><g id="line2d_20"><defs><path id="m6c05718cdb" stroke="#000" stroke-width=".8" d="M 0 0 L -3.5 0"/></defs><g><use x="172.8" y="205.323" stroke="#000" stroke-width=".8" xlink:href="#m6c05718cdb"/></g></g><g id="text_1"><defs><path id="DejaVuSans-48" d="M 31.78125 66.40625 Q 24.171875 66.40625 20.328125 58.90625 Q 16.5 51.421875 16.5 36.375 Q 16.5 21.390625 20.328125 13.890625 Q 24.171875 6.390625 31.78125 6.390625 Q 39.453125 6.390625 43.28125 13.890625 Q 47.125 21.390625 47.125 36.375 Q 47.125 51.421875 43.28125 58.90625 Q 39.453125 66.40625 31.78125 66.40625 z M 31.78125 74.21875 Q 44.046875 74.21875 50.515625 64.515625 Q 56.984375 54.828125 56.984375 36.375 Q 56.984375 17.96875 50.515625 8.265625 Q 44.046875 -1.421875 31.78125 -1.421875 Q 19.53125 -1.421875 13.0625 8.265625 Q 6.59375 17.96875 6.59375 36.375 Q 6.59375 54.828125 13.0625 64.515625 Q 19.53125 74.21875 31.78125 74.21875 z"/></defs><g transform="translate(159.4375 209.122647)scale(0.1 -0.1)"><use xlink:href="#DejaVuSans-48"/></g></g></g><g id="ytick_2"><g id="line2d_21"><path fill="none" stroke="gray" stroke-linecap="square" stroke-width=".8" d="M 172.8 184.957714 L 1244.16 184.957714" clip-path="url(#p7d42534781)"/></g><g id="line2d_22"><g><use x="172.8" y="184.958" stroke="#000" stroke-width=".8" xlink:href="#m6c05718cdb"/></g></g><g id="text_2"><defs><path id="DejaVuSans-49" d="M 12.40625 8.296875 L 28.515625 8.296875 L 28.515625 63.921875 L 10.984375 60.40625 L 10.984375 69.390625 L 28.421875 72.90625 L 38.28125 72.90625 L 38.28125 8.296875 L 54.390625 8.296875 L 54.390625 0 L 12.40625 0 z"/></defs><g transform="translate(159.4375 188.756933)scale(0.1 -0.1)"><use xlink:href="#DejaVuSans-49"/></g></g></g><g id="ytick_3"><g id="line2d_23"><path fill="none" stroke="gray" stroke-linecap="square" stroke-width=".8" d="M 172.8 164.592 L 1244.16 164.592" clip-path="url(#p7d42534781)"/></g><g id="line2d_24"><g><use x="172.8" y="164.592" stroke="#000" stroke-width=".8" xlink:href="#m6c05718cdb"/></g></g><g id="text_3"><defs><path id="DejaVuSans-50" d="M 19.1875 8.296875 L 53.609375 8.296875 L 53.609375 0 L 7.328125 0 L 7.328125 8.296875 Q 12.9375 14.109375 22.625 23.890625 Q 32.328125 33.6875 34.8125 36.53125 Q 39.546875 41.84375 41.421875 45.53125 Q 43.3125 49.21875 43.3125 52.78125 Q 43.3125 58.59375 39.234375 62.25 Q 35.15625 65.921875 28.609375 65.921875 Q 23.96875 65.921875 18.8125 64.3125 Q 13.671875 62.703125 7.8125 59.421875 L 7.8125 69.390625 Q 13.765625 71.78125 18.9375 73 Q 24.125 74.21875 28.421875 74.21875 Q 39.75 74.21875 46.484375 68.546875 Q 53.21875 62.890625 53.21875 53.421875 Q 53.21875 48.921875 51.53125 44.890625 Q 49.859375 40.875 45.40625 35.40625 Q 44.1875 33.984375 37.640625 27.21875 Q 31.109375 20.453125 19.1875 8.296875 z"/></defs><g transform="translate(159.4375 168.391219)scale(0.1 -0.1)"><use xlink:href="#DejaVuSans-50"/></g></g></g><g id="ytick_4"><g id="line2d_25"><path fill="none" stroke="gray" stroke-linecap="square" stroke-width=".8" d="M 172.8 144.226286 L 1244.16 144.226286" clip-path="url(#p7d42534781)"/></g><g id="line2d_26"><g><use x="172.8" y="144.226" stroke="#000" stroke-width=".8" xlink:href="#m6c05718cdb"/></g></g><g id="text_4"><defs><path id="DejaVuSans-51" d="M 40.578125 39.3125 Q 47.65625 37.796875 51.625 33 Q 55.609375 28.21875 55.609375 21.1875 Q 55.609375 10.40625 48.1875 4.484375 Q 40.765625 -1.421875 27.09375 -1.421875 Q 22.515625 -1.421875 17.65625 -0.515625 Q 12.796875 0.390625 7.625 2.203125 L 7.625 11.71875 Q 11.71875 9.328125 16.59375 8.109375 Q 21.484375 6.890625 26.8125 6.890625 Q 36.078125 6.890625 40.9375 10.546875 Q 45.796875 14.203125 45.796875 21.1875 Q 45.796875 27.640625 41.28125 31.265625 Q 36.765625 34.90625 28.71875 34.90625 L 20.21875 34.90625 L 20.21875 43.015625 L 29.109375 43.015625 Q 36.375 43.015625 40.234375 45.921875 Q 44.09375 48.828125 44.09375 54.296875 Q 44.09375 59.90625 40.109375 62.90625 Q 36.140625 65.921875 28.71875 65.921875 Q 24.65625 65.921875 20.015625 65.03125 Q 15.375 64.15625 9.8125 62.3125 L 9.8125 71.09375 Q 15.4375 72.65625 20.34375 73.4375 Q 25.25 74.21875 29.59375 74.21875 Q 40.828125 74.21875 47.359375 69.109375 Q 53.90625 64.015625 53.90625 55.328125 Q 53.90625 49.265625 50.4375 45.09375 Q 46.96875 40.921875 40.578125 39.3125 z"/></defs><g transform="translate(159.4375 148.025504)scale(0.1 -0.1)"><use xlink:href="#DejaVuSans-51"/></g></g></g><g id="ytick_5"><g id="line2d_27"><path fill="none" stroke="gray" stroke-linecap="square" stroke-width=".8" d="M 172.8 123.860571 L 1244.16 123.860571" clip-path="url(#p7d42534781)"/></g><g id="line2d_28"><g><use x="172.8" y="123.861" stroke="#000" stroke-width=".8" xlink:href="#m6c05718cdb"/></g></g><g id="text_5"><defs><path id="DejaVuSans-52" d="M 37.796875 64.3125 L 12.890625 25.390625 L 37.796875 25.390625 z M 35.203125 72.90625 L 47.609375 72.90625 L 47.609375 25.390625 L 58.015625 25.390625 L 58.015625 17.1875 L 47.609375 17.1875 L 47.609375 0 L 37.796875 0 L 37.796875 17.1875 L 4.890625 17.1875 L 4.890625 26.703125 z"/></defs><g transform="translate(159.4375 127.65979)scale(0.1 -0.1)"><use xlink:href="#DejaVuSans-52"/></g></g></g><g id="ytick_6"><g id="line2d_29"><path fill="none" stroke="gray" stroke-linecap="square" stroke-width=".8" d="M 172.8 103.494857 L 1244.16 103.494857" clip-path="url(#p7d42534781)"/></g><g id="line2d_30"><g><use x="172.8" y="103.495" stroke="#000" stroke-width=".8" xlink:href="#m6c05718cdb"/></g></g><g id="text_6"><defs><path id="DejaVuSans-53" d="M 10.796875 72.90625 L 49.515625 72.90625 L 49.515625 64.59375 L 19.828125 64.59375 L 19.828125 46.734375 Q 21.96875 47.46875 24.109375 47.828125 Q 26.265625 48.1875 28.421875 48.1875 Q 40.625 48.1875 47.75 41.5 Q 54.890625 34.8125 54.890625 23.390625 Q 54.890625 11.625 47.5625 5.09375 Q 40.234375 -1.421875 26.90625 -1.421875 Q 22.3125 -1.421875 17.546875 -0.640625 Q 12.796875 0.140625 7.71875 1.703125 L 7.71875 11.625 Q 12.109375 9.234375 16.796875 8.0625 Q 21.484375 6.890625 26.703125 6.890625 Q 35.15625 6.890625 40.078125 11.328125 Q 45.015625 15.765625 45.015625 23.390625 Q 45.015625 31 40.078125 35.4375 Q 35.15625 39.890625 26.703125 39.890625 Q 22.75 39.890625 18.8125 39.015625 Q 14.890625 38.140625 10.796875 36.28125 z"/></defs><g transform="translate(159.4375 107.294076)scale(0.1 -0.1)"><use xlink:href="#DejaVuSans-53"/></g></g></g><g id="text_7"><defs><path id="DejaVuSans-86" d="M 28.609375 0 L 0.78125 72.90625 L 11.078125 72.90625 L 34.1875 11.53125 L 57.328125 72.90625 L 67.578125 72.90625 L 39.796875 0 z"/><path id="DejaVuSans-111" d="M 30.609375 48.390625 Q 23.390625 48.390625 19.1875 42.75 Q 14.984375 37.109375 14.984375 27.296875 Q 14.984375 17.484375 19.15625 11.84375 Q 23.34375 6.203125 30.609375 6.203125 Q 37.796875 6.203125 41.984375 11.859375 Q 46.1875 17.53125 46.1875 27.296875 Q 46.1875 37.015625 41.984375 42.703125 Q 37.796875 48.390625 30.609375 48.390625 z M 30.609375 56 Q 42.328125 56 49.015625 48.375 Q 55.71875 40.765625 55.71875 27.296875 Q 55.71875 13.875 49.015625 6.21875 Q 42.328125 -1.421875 30.609375 -1.421875 Q 18.84375 -1.421875 12.171875 6.21875 Q 5.515625 13.875 5.515625 27.296875 Q 5.515625 40.765625 12.171875 48.375 Q 18.84375 56 30.609375 56 z"/><path id="DejaVuSans-108" d="M 9.421875 75.984375 L 18.40625 75.984375 L 18.40625 0 L 9.421875 0 z"/><path id="DejaVuSans-116" d="M 18.3125 70.21875 L 18.3125 54.6875 L 36.8125 54.6875 L 36.8125 47.703125 L 18.3125 47.703125 L 18.3125 18.015625 Q 18.3125 11.328125 20.140625 9.421875 Q 21.96875 7.515625 27.59375 7.515625 L 36.8125 7.515625 L 36.8125 0 L 27.59375 0 Q 17.1875 0 13.234375 3.875 Q 9.28125 7.765625 9.28125 18.015625 L 9.28125 47.703125 L 2.6875 47.703125 L 2.6875 54.6875 L 9.28125 54.6875 L 9.28125 70.21875 z"/><path id="DejaVuSans-97" d="M 34.28125 27.484375 Q 23.390625 27.484375 19.1875 25 Q 14.984375 22.515625 14.984375 16.5 Q 14.984375 11.71875 18.140625 8.90625 Q 21.296875 6.109375 26.703125 6.109375 Q 34.1875 6.109375 38.703125 11.40625 Q 43.21875 16.703125 43.21875 25.484375 L 43.21875 27.484375 z M 52.203125 31.203125 L 52.203125 0 L 43.21875 0 L 43.21875 8.296875 Q 40.140625 3.328125 35.546875 0.953125 Q 30.953125 -1.421875 24.3125 -1.421875 Q 15.921875 -1.421875 10.953125 3.296875 Q 6 8.015625 6 15.921875 Q 6 25.140625 12.171875 29.828125 Q 18.359375 34.515625 30.609375 34.515625 L 43.21875 34.515625 L 43.21875 35.40625 Q 43.21875 41.609375 39.140625 45 Q 35.0625 48.390625 27.6875 48.390625 Q 23 48.390625 18.546875 47.265625 Q 14.109375 46.140625 10.015625 43.890625 L 10.015625 52.203125 Q 14.9375 54.109375 19.578125 55.046875 Q 24.21875 56 28.609375 56 Q 40.484375 56 46.34375 49.84375 Q 52.203125 43.703125 52.203125 31.203125 z"/><path id="DejaVuSans-103" d="M 45.40625 27.984375 Q 45.40625 37.75 41.375 43.109375 Q 37.359375 48.484375 30.078125 48.484375 Q 22.859375 48.484375 18.828125 43.109375 Q 14.796875 37.75 14.796875 27.984375 Q 14.796875 18.265625 18.828125 12.890625 Q 22.859375 7.515625 30.078125 7.515625 Q 37.359375 7.515625 41.375 12.890625 Q 45.40625 18.265625 45.40625 27.984375 z M 54.390625 6.78125 Q 54.390625 -7.171875 48.1875 -13.984375 Q 42 -20.796875 29.203125 -20.796875 Q 24.46875 -20.796875 20.265625 -20.09375 Q 16.0625 -19.390625 12.109375 -17.921875 L 12.109375 -9.1875 Q 16.0625 -11.328125 19.921875 -12.34375 Q 23.78125 -13.375 27.78125 -13.375 Q 36.625 -13.375 41.015625 -8.765625 Q 45.40625 -4.15625 45.40625 5.171875 L 45.40625 9.625 Q 42.625 4.78125 38.28125 2.390625 Q 33.9375 0 27.875 0 Q 17.828125 0 11.671875 7.65625 Q 5.515625 15.328125 5.515625 27.984375 Q 5.515625 40.671875 11.671875 48.328125 Q 17.828125 56 27.875 56 Q 33.9375 56 38.28125 53.609375 Q 42.625 51.21875 45.40625 46.390625 L 45.40625 54.6875 L 54.390625 54.6875 z"/><path id="DejaVuSans-101" d="M 56.203125 29.59375 L 56.203125 25.203125 L 14.890625 25.203125 Q 15.484375 15.921875 20.484375 11.0625 Q 25.484375 6.203125 34.421875 6.203125 Q 39.59375 6.203125 44.453125 7.46875 Q 49.3125 8.734375 54.109375 11.28125 L 54.109375 2.78125 Q 49.265625 0.734375 44.1875 -0.34375 Q 39.109375 -1.421875 33.890625 -1.421875 Q 20.796875 -1.421875 13.15625 6.1875 Q 5.515625 13.8125 5.515625 26.8125 Q 5.515625 40.234375 12.765625 48.109375 Q 20.015625 56 32.328125 56 Q 43.359375 56 49.78125 48.890625 Q 56.203125 41.796875 56.203125 29.59375 z M 47.21875 32.234375 Q 47.125 39.59375 43.09375 43.984375 Q 39.0625 48.390625 32.421875 48.390625 Q 24.90625 48.390625 20.390625 44.140625 Q 15.875 39.890625 15.1875 32.171875 z"/><path id="DejaVuSans-109" d="M 52 44.1875 Q 55.375 50.25 60.0625 53.125 Q 64.75 56 71.09375 56 Q 79.640625 56 84.28125 50.015625 Q 88.921875 44.046875 88.921875 33.015625 L 88.921875 0 L 79.890625 0 L 79.890625 32.71875 Q 79.890625 40.578125 77.09375 44.375 Q 74.3125 48.1875 68.609375 48.1875 Q 61.625 48.1875 57.5625 43.546875 Q 53.515625 38.921875 53.515625 30.90625 L 53.515625 0 L 44.484375 0 L 44.484375 32.71875 Q 44.484375 40.625 41.703125 44.40625 Q 38.921875 48.1875 33.109375 48.1875 Q 26.21875 48.1875 22.15625 43.53125 Q 18.109375 38.875 18.109375 30.90625 L 18.109375 0 L 9.078125 0 L 9.078125 54.6875 L 18.109375 54.6875 L 18.109375 46.1875 Q 21.1875 51.21875 25.484375 53.609375 Q 29.78125 56 35.6875 56 Q 41.65625 56 45.828125 52.96875 Q 50 49.953125 52 44.1875 z"/><path id="DejaVuSans-32"/><path id="DejaVuSans-40" d="M 31 75.875 Q 24.46875 64.65625 21.28125 53.65625 Q 18.109375 42.671875 18.109375 31.390625 Q 18.109375 20.125 21.3125 9.0625 Q 24.515625 -2 31 -13.1875 L 23.1875 -13.1875 Q 15.875 -1.703125 12.234375 9.375 Q 8.59375 20.453125 8.59375 31.390625 Q 8.59375 42.28125 12.203125 53.3125 Q 15.828125 64.359375 23.1875 75.875 z"/><path id="DejaVuSans-41" d="M 8.015625 75.875 L 15.828125 75.875 Q 23.140625 64.359375 26.78125 53.3125 Q 30.421875 42.28125 30.421875 31.390625 Q 30.421875 20.453125 26.78125 9.375 Q 23.140625 -1.703125 15.828125 -13.1875 L 8.015625 -13.1875 Q 14.5 -2 17.703125 9.0625 Q 20.90625 20.125 20.90625 31.390625 Q 20.90625 42.671875 17.703125 53.65625 Q 14.5 64.65625 8.015625 75.875 z"/></defs><g transform="translate(152.11 207.080393)rotate(-90)scale(0.16 -0.16)"><use xlink:href="#DejaVuSans-86"/><use x="68.299" xlink:href="#DejaVuSans-111"/><use x="129.48" xlink:href="#DejaVuSans-108"/><use x="157.264" xlink:href="#DejaVuSans-116"/><use x="196.473" xlink:href="#DejaVuSans-97"/><use x="257.752" xlink:href="#DejaVuSans-103"/><use x="321.229" xlink:href="#DejaVuSans-101"/><use x="382.752" xlink:href="#DejaVuSans-109"/><use x="480.164" xlink:href="#DejaVuSans-32"/><use x="511.951" xlink:href="#DejaVuSans-40"/><use x="550.965" xlink:href="#DejaVuSans-86"/><use x="619.373" xlink:href="#DejaVuSans-41"/></g></g></g><g id="line2d_31"><path fill="none" stroke="#00f" stroke-linecap="square" stroke-width="4" d="M 221.498182 205.323429 L 341.107751 205.323429 L 343.548763 123.860571 L 463.158332 123.860571 L 465.599344 205.323429 L 585.208913 205.323429 L 587.649925 103.494857 L 707.259494 103.494857 L 709.700506 184.957714 L 829.310075 184.957714 L 831.751087 164.592 L 951.360656 164.592 L 953.801668 205.323429 L 1073.411237 205.323429 L 1075.852249 144.226286 L 1195.461818 144.226286 L 1195.461818 144.226286" clip-path="url(#p7d42534781)"/></g><g id="patch_3"><path fill="none" stroke="#000" stroke-linecap="square" stroke-linejoin="miter" stroke-width=".8" d="M 172.8 215.506286 L 172.8 93.312"/></g><g id="patch_4"><path fill="none" stroke="#000" stroke-linecap="square" stroke-linejoin="miter" stroke-width=".8" d="M 1244.16 215.506286 L 1244.16 93.312"/></g><g id="patch_5"><path fill="none" stroke="#000" stroke-linecap="square" stroke-linejoin="miter" stroke-width=".8" d="M 172.8 215.506286 L 1244.16 215.506286"/></g><g id="patch_6"><path fill="none" stroke="#000" stroke-linecap="square" stroke-linejoin="miter" stroke-width=".8" d="M 172.8 93.312 L 1244.16 93.312"/></g><g id="text_8"><defs><path id="DejaVuSans-82" d="M 44.390625 34.1875 Q 47.5625 33.109375 50.5625 29.59375 Q 53.5625 26.078125 56.59375 19.921875 L 66.609375 0 L 56 0 L 46.6875 18.703125 Q 43.0625 26.03125 39.671875 28.421875 Q 36.28125 30.8125 30.421875 30.8125 L 19.671875 30.8125 L 19.671875 0 L 9.8125 0 L 9.8125 72.90625 L 32.078125 72.90625 Q 44.578125 72.90625 50.734375 67.671875 Q 56.890625 62.453125 56.890625 51.90625 Q 56.890625 45.015625 53.6875 40.46875 Q 50.484375 35.9375 44.390625 34.1875 z M 19.671875 64.796875 L 19.671875 38.921875 L 32.078125 38.921875 Q 39.203125 38.921875 42.84375 42.21875 Q 46.484375 45.515625 46.484375 51.90625 Q 46.484375 58.296875 42.84375 61.546875 Q 39.203125 64.796875 32.078125 64.796875 z"/><path id="DejaVuSans-102" d="M 37.109375 75.984375 L 37.109375 68.5 L 28.515625 68.5 Q 23.6875 68.5 21.796875 66.546875 Q 19.921875 64.59375 19.921875 59.515625 L 19.921875 54.6875 L 34.71875 54.6875 L 34.71875 47.703125 L 19.921875 47.703125 L 19.921875 0 L 10.890625 0 L 10.890625 47.703125 L 2.296875 47.703125 L 2.296875 54.6875 L 10.890625 54.6875 L 10.890625 58.5 Q 10.890625 67.625 15.140625 71.796875 Q 19.390625 75.984375 28.609375 75.984375 z"/><path id="DejaVuSans-114" d="M 41.109375 46.296875 Q 39.59375 47.171875 37.8125 47.578125 Q 36.03125 48 33.890625 48 Q 26.265625 48 22.1875 43.046875 Q 18.109375 38.09375 18.109375 28.8125 L 18.109375 0 L 9.078125 0 L 9.078125 54.6875 L 18.109375 54.6875 L 18.109375 46.1875 Q 20.953125 51.171875 25.484375 53.578125 Q 30.03125 56 36.53125 56 Q 37.453125 56 38.578125 55.875 Q 39.703125 55.765625 41.0625 55.515625 z"/><path id="DejaVuSans-110" d="M 54.890625 33.015625 L 54.890625 0 L 45.90625 0 L 45.90625 32.71875 Q 45.90625 40.484375 42.875 44.328125 Q 39.84375 48.1875 33.796875 48.1875 Q 26.515625 48.1875 22.3125 43.546875 Q 18.109375 38.921875 18.109375 30.90625 L 18.109375 0 L 9.078125 0 L 9.078125 54.6875 L 18.109375 54.6875 L 18.109375 46.1875 Q 21.34375 51.125 25.703125 53.5625 Q 30.078125 56 35.796875 56 Q 45.21875 56 50.046875 50.171875 Q 54.890625 44.34375 54.890625 33.015625 z"/><path id="DejaVuSans-99" d="M 48.78125 52.59375 L 48.78125 44.1875 Q 44.96875 46.296875 41.140625 47.34375 Q 37.3125 48.390625 33.40625 48.390625 Q 24.65625 48.390625 19.8125 42.84375 Q 14.984375 37.3125 14.984375 27.296875 Q 14.984375 17.28125 19.8125 11.734375 Q 24.65625 6.203125 33.40625 6.203125 Q 37.3125 6.203125 41.140625 7.25 Q 44.96875 8.296875 48.78125 10.40625 L 48.78125 2.09375 Q 45.015625 0.34375 40.984375 -0.53125 Q 36.96875 -1.421875 32.421875 -1.421875 Q 20.0625 -1.421875 12.78125 6.34375 Q 5.515625 14.109375 5.515625 27.296875 Q 5.515625 40.671875 12.859375 48.328125 Q 20.21875 56 33.015625 56 Q 37.15625 56 41.109375 55.140625 Q 45.0625 54.296875 48.78125 52.59375 z"/><path id="DejaVuSans-105" d="M 9.421875 54.6875 L 18.40625 54.6875 L 18.40625 0 L 9.421875 0 z M 9.421875 75.984375 L 18.40625 75.984375 L 18.40625 64.59375 L 9.421875 64.59375 z"/><path id="DejaVuSans-45" d="M 4.890625 31.390625 L 31.203125 31.390625 L 31.203125 23.390625 L 4.890625 23.390625 z"/><path id="DejaVuSans-121" d="M 32.171875 -5.078125 Q 28.375 -14.84375 24.75 -17.8125 Q 21.140625 -20.796875 15.09375 -20.796875 L 7.90625 -20.796875 L 7.90625 -13.28125 L 13.1875 -13.28125 Q 16.890625 -13.28125 18.9375 -11.515625 Q 21 -9.765625 23.484375 -3.21875 L 25.09375 0.875 L 2.984375 54.6875 L 12.5 54.6875 L 29.59375 11.921875 L 46.6875 54.6875 L 56.203125 54.6875 z"/><path id="DejaVuSans-107" d="M 9.078125 75.984375 L 18.109375 75.984375 L 18.109375 31.109375 L 44.921875 54.6875 L 56.390625 54.6875 L 27.390625 29.109375 L 57.625 0 L 45.90625 0 L 18.109375 26.703125 L 18.109375 0 L 9.078125 0 z"/></defs><g transform="translate(616.752656 87.312)scale(0.21 -0.21)"><use xlink:href="#DejaVuSans-82"/><use x="69.42" xlink:href="#DejaVuSans-101"/><use x="130.943" xlink:href="#DejaVuSans-102"/><use x="166.148" xlink:href="#DejaVuSans-101"/><use x="227.672" xlink:href="#DejaVuSans-114"/><use x="268.754" xlink:href="#DejaVuSans-101"/><use x="330.277" xlink:href="#DejaVuSans-110"/><use x="393.656" xlink:href="#DejaVuSans-99"/><use x="448.637" xlink:href="#DejaVuSans-105"/><use x="476.42" xlink:href="#DejaVuSans-97"/><use x="537.699" xlink:href="#DejaVuSans-32"/><use x="569.486" xlink:href="#DejaVuSans-45"/><use x="605.57" xlink:href="#DejaVuSans-32"/><use x="637.357" xlink:href="#DejaVuSans-121"/><use x="696.537" xlink:href="#DejaVuSans-114"/><use x="737.65" xlink:href="#DejaVuSans-40"/><use x="776.664" xlink:href="#DejaVuSans-107"/><use x="834.574" xlink:href="#DejaVuSans-41"/></g></g></g><g id="axes_2"><g id="patch_7"><path fill="#fff" d="M 172.8 374.358857 L 1244.16 374.358857 L 1244.16 252.164571 L 172.8 252.164571 z"/></g><g id="matplotlib.axis_3"><g id="xtick_10"><g id="line2d_32"><path fill="none" stroke="gray" stroke-linecap="square" stroke-width=".8" d="M 221.498182 374.358857 L 221.498182 252.164571" clip-path="url(#pe68ebc449b)"/></g><g id="line2d_33"><g><use x="221.498" y="374.359" stroke="#000" stroke-width=".8" xlink:href="#m8cf613a246"/></g></g></g><g id="xtick_11"><g id="line2d_34"><path fill="none" stroke="gray" stroke-linecap="square" stroke-width=".8" d="M 343.548763 374.358857 L 343.548763 252.164571" clip-path="url(#pe68ebc449b)"/></g><g id="line2d_35"><g><use x="343.549" y="374.359" stroke="#000" stroke-width=".8" xlink:href="#m8cf613a246"/></g></g></g><g id="xtick_12"><g id="line2d_36"><path fill="none" stroke="gray" stroke-linecap="square" stroke-width=".8" d="M 465.599344 374.358857 L 465.599344 252.164571" clip-path="url(#pe68ebc449b)"/></g><g id="line2d_37"><g><use x="465.599" y="374.359" stroke="#000" stroke-width=".8" xlink:href="#m8cf613a246"/></g></g></g><g id="xtick_13"><g id="line2d_38"><path fill="none" stroke="gray" stroke-linecap="square" stroke-width=".8" d="M 587.649925 374.358857 L 587.649925 252.164571" clip-path="url(#pe68ebc449b)"/></g><g id="line2d_39"><g><use x="587.65" y="374.359" stroke="#000" stroke-width=".8" xlink:href="#m8cf613a246"/></g></g></g><g id="xtick_14"><g id="line2d_40"><path fill="none" stroke="gray" stroke-linecap="square" stroke-width=".8" d="M 709.700506 374.358857 L 709.700506 252.164571" clip-path="url(#pe68ebc449b)"/></g><g id="line2d_41"><g><use x="709.701" y="374.359" stroke="#000" stroke-width=".8" xlink:href="#m8cf613a246"/></g></g></g><g id="xtick_15"><g id="line2d_42"><path fill="none" stroke="gray" stroke-linecap="square" stroke-width=".8" d="M 831.751087 374.358857 L 831.751087 252.164571" clip-path="url(#pe68ebc449b)"/></g><g id="line2d_43"><g><use x="831.751" y="374.359" stroke="#000" stroke-width=".8" xlink:href="#m8cf613a246"/></g></g></g><g id="xtick_16"><g id="line2d_44"><path fill="none" stroke="gray" stroke-linecap="square" stroke-width=".8" d="M 953.801668 374.358857 L 953.801668 252.164571" clip-path="url(#pe68ebc449b)"/></g><g id="line2d_45"><g><use x="953.802" y="374.359" stroke="#000" stroke-width=".8" xlink:href="#m8cf613a246"/></g></g></g><g id="xtick_17"><g id="line2d_46"><path fill="none" stroke="gray" stroke-linecap="square" stroke-width=".8" d="M 1075.852249 374.358857 L 1075.852249 252.164571" clip-path="url(#pe68ebc449b)"/></g><g id="line2d_47"><g><use x="1075.852" y="374.359" stroke="#000" stroke-width=".8" xlink:href="#m8cf613a246"/></g></g></g><g id="xtick_18"><g id="line2d_48"><path fill="none" stroke="gray" stroke-linecap="square" stroke-width=".8" d="M 1197.90283 374.358857 L 1197.90283 252.164571" clip-path="url(#pe68ebc449b)"/></g><g id="line2d_49"><g><use x="1197.903" y="374.359" stroke="#000" stroke-width=".8" xlink:href="#m8cf613a246"/></g></g></g></g><g id="matplotlib.axis_4"><g id="ytick_7"><g id="line2d_50"><path fill="none" stroke="gray" stroke-linecap="square" stroke-width=".8" d="M 172.8 364.176 L 1244.16 364.176" clip-path="url(#pe68ebc449b)"/></g><g id="line2d_51"><g><use x="172.8" y="364.176" stroke="#000" stroke-width=".8" xlink:href="#m6c05718cdb"/></g></g><g id="text_9"><g transform="translate(159.4375 367.975219)scale(0.1 -0.1)"><use xlink:href="#DejaVuSans-48"/></g></g></g><g id="ytick_8"><g id="line2d_52"><path fill="none" stroke="gray" stroke-linecap="square" stroke-width=".8" d="M 172.8 343.810286 L 1244.16 343.810286" clip-path="url(#pe68ebc449b)"/></g><g id="line2d_53"><g><use x="172.8" y="343.81" stroke="#000" stroke-width=".8" xlink:href="#m6c05718cdb"/></g></g><g id="text_10"><g transform="translate(159.4375 347.609504)scale(0.1 -0.1)"><use xlink:href="#DejaVuSans-49"/></g></g></g><g id="ytick_9"><g id="line2d_54"><path fill="none" stroke="gray" stroke-linecap="square" stroke-width=".8" d="M 172.8 323.444571 L 1244.16 323.444571" clip-path="url(#pe68ebc449b)"/></g><g id="line2d_55"><g><use x="172.8" y="323.445" stroke="#000" stroke-width=".8" xlink:href="#m6c05718cdb"/></g></g><g id="text_11"><g transform="translate(159.4375 327.24379)scale(0.1 -0.1)"><use xlink:href="#DejaVuSans-50"/></g></g></g><g id="ytick_10"><g id="line2d_56"><path fill="none" stroke="gray" stroke-linecap="square" stroke-width=".8" d="M 172.8 303.078857 L 1244.16 303.078857" clip-path="url(#pe68ebc449b)"/></g><g id="line2d_57"><g><use x="172.8" y="303.079" stroke="#000" stroke-width=".8" xlink:href="#m6c05718cdb"/></g></g><g id="text_12"><g transform="translate(159.4375 306.878076)scale(0.1 -0.1)"><use xlink:href="#DejaVuSans-51"/></g></g></g><g id="ytick_11"><g id="line2d_58"><path fill="none" stroke="gray" stroke-linecap="square" stroke-width=".8" d="M 172.8 282.713143 L 1244.16 282.713143" clip-path="url(#pe68ebc449b)"/></g><g id="line2d_59"><g><use x="172.8" y="282.713" stroke="#000" stroke-width=".8" xlink:href="#m6c05718cdb"/></g></g><g id="text_13"><g transform="translate(159.4375 286.512362)scale(0.1 -0.1)"><use xlink:href="#DejaVuSans-52"/></g></g></g><g id="ytick_12"><g id="line2d_60"><path fill="none" stroke="gray" stroke-linecap="square" stroke-width=".8" d="M 172.8 262.347429 L 1244.16 262.347429" clip-path="url(#pe68ebc449b)"/></g><g id="line2d_61"><g><use x="172.8" y="262.347" stroke="#000" stroke-width=".8" xlink:href="#m6c05718cdb"/></g></g><g id="text_14"><g transform="translate(159.4375 266.146647)scale(0.1 -0.1)"><use xlink:href="#DejaVuSans-53"/></g></g></g><g id="text_15"><g transform="translate(152.11 365.932964)rotate(-90)scale(0.16 -0.16)"><use xlink:href="#DejaVuSans-86"/><use x="68.299" xlink:href="#DejaVuSans-111"/><use x="129.48" xlink:href="#DejaVuSans-108"/><use x="157.264" xlink:href="#DejaVuSans-116"/><use x="196.473" xlink:href="#DejaVuSans-97"/><use x="257.752" xlink:href="#DejaVuSans-103"/><use x="321.229" xlink:href="#DejaVuSans-101"/><use x="382.752" xlink:href="#DejaVuSans-109"/><use x="480.164" xlink:href="#DejaVuSans-32"/><use x="511.951" xlink:href="#DejaVuSans-40"/><use x="550.965" xlink:href="#DejaVuSans-86"/><use x="619.373" xlink:href="#DejaVuSans-41"/></g></g></g><g id="line2d_62"><path fill="none" stroke="green" stroke-dasharray="14.8 6.4" stroke-dashoffset="0" stroke-width="4" d="M 221.498182 364.176 L 341.107751 364.176 L 343.548763 262.347429 L 345.989774 363.163254 L 348.430786 346.72533 L 350.871798 262.347429 L 353.312809 343.200068 L 355.753821 307.686668 L 358.194833 276.555311 L 360.635844 295.978184 L 363.076856 284.652477 L 365.517867 278.415061 L 367.958879 276.093322 L 370.399891 274.099614 L 372.840902 275.204816 L 375.281914 269.91056 L 377.722925 278.514565 L 380.163937 269.953097 L 382.604949 274.450197 L 385.04596 266.824375 L 387.486972 283.925653 L 389.927984 268.580002 L 392.368995 277.157071 L 394.810007 265.062683 L 397.251018 286.429234 L 399.69203 268.420243 L 402.133042 278.617605 L 404.574053 266.565031 L 407.015065 282.130447 L 409.456077 267.578481 L 411.897088 280.585769 L 414.3381 265.521726 L 416.779111 283.244989 L 419.220123 271.458282 L 421.661135 265.611999 L 424.102146 285.923344 L 426.543158 267.480875 L 428.98417 280.320567 L 431.425181 265.608588 L 433.866193 284.250894 L 436.307204 267.051141 L 438.748216 282.130723 L 441.189228 266.042591 L 443.630239 281.828214 L 446.071251 266.70907 L 448.512262 280.386742 L 450.953274 266.775162 L 453.394286 279.617677 L 455.835297 268.247345 L 458.276309 276.908501 L 460.717321 265.697655 L 463.158332 284.689875 L 465.599344 364.176 L 470.481367 364.176 L 472.922379 361.884949 L 475.36339 332.423876 L 477.804402 364.176 L 480.245414 360.485152 L 482.686425 343.309929 L 485.127437 364.176 L 487.568448 342.077011 L 490.00946 364.176 L 492.450472 343.392951 L 494.891483 364.176 L 497.332495 342.608922 L 499.773506 364.176 L 502.214518 338.134687 L 504.65553 364.176 L 507.096541 348.490286 L 509.537553 364.176 L 511.978565 338.832477 L 514.419576 364.176 L 516.860588 353.280424 L 519.301599 350.090379 L 521.742611 364.176 L 524.183623 333.989735 L 526.624634 364.176 L 529.065646 346.805105 L 531.506658 364.176 L 533.947669 343.294432 L 536.388681 364.176 L 538.829692 348.486437 L 541.270704 364.176 L 543.711716 333.104712 L 546.152727 364.176 L 548.593739 349.994559 L 551.034751 364.176 L 553.475762 343.058445 L 555.916774 364.176 L 558.357785 343.677695 L 560.798797 364.176 L 563.239809 338.701699 L 565.68082 364.176 L 568.121832 352.512525 L 570.562843 349.274688 L 573.003855 364.176 L 575.444867 335.026248 L 577.885878 364.176 L 580.32689 361.783222 L 582.767902 325.346484 L 585.208913 364.176 L 587.649925 262.347429 L 590.090936 337.935296 L 592.531948 284.961078 L 594.97296 266.782091 L 597.413971 284.484 L 599.854983 262.347429 L 602.295995 263.491758 L 604.737006 262.347429 L 707.259494 262.347429 L 709.700506 364.176 L 712.141517 364.176 L 714.582529 356.129323 L 717.023541 327.682421 L 719.464552 356.133357 L 721.905564 336.309476 L 724.346576 350.506888 L 726.787587 338.130373 L 729.228599 349.29656 L 731.66961 336.522012 L 734.110622 354.521321 L 736.551634 332.706928 L 738.992645 364.176 L 741.433657 326.478085 L 743.874668 364.176 L 746.31568 330.587296 L 748.756692 364.176 L 751.197703 333.17363 L 753.638715 363.075623 L 756.079727 328.82194 L 758.520738 364.176 L 760.96175 336.982334 L 763.402761 356.048574 L 765.843773 327.431534 L 768.284785 364.176 L 770.725796 342.926108 L 773.166808 337.203244 L 775.60782 362.963778 L 778.048831 328.641809 L 780.489843 364.176 L 782.930854 334.457678 L 785.371866 364.176 L 787.812878 332.387493 L 790.253889 364.176 L 792.694901 324.873186 L 795.135913 364.176 L 797.576924 343.861628 L 800.017936 335.781834 L 802.458947 364.176 L 804.899959 327.060494 L 807.340971 364.176 L 809.781982 332.222347 L 812.222994 364.176 L 814.664005 338.516391 L 817.105017 341.795379 L 819.546029 356.985274 L 821.98704 324.606646 L 824.428052 364.176 L 826.869064 333.340883 L 829.310075 364.176 L 831.751087 262.347429 L 834.192098 364.176 L 836.63311 364.176 L 839.074122 309.653673 L 841.515133 345.532393 L 843.956145 332.493657 L 846.397157 320.387883 L 848.838168 342.811133 L 851.27918 324.185562 L 853.720191 337.327505 L 856.161203 325.035143 L 858.602215 336.953425 L 861.043226 329.321919 L 863.484238 328.432612 L 865.925249 338.785376 L 868.366261 324.166254 L 870.807273 336.622765 L 873.248284 326.587156 L 875.689296 333.672618 L 878.130308 333.584304 L 880.571319 327.569066 L 883.012331 336.790252 L 885.453342 328.508255 L 887.894354 328.858229 L 890.335366 337.673125 L 892.776377 325.395143 L 895.217389 334.289785 L 897.658401 331.512042 L 900.099412 331.483235 L 902.540424 330.535152 L 904.981435 331.177158 L 907.422447 331.14969 L 909.863459 334.896669 L 912.30447 326.938882 L 914.745482 333.539047 L 917.186494 330.027934 L 919.627505 331.990751 L 922.068517 331.258022 L 924.509528 330.310841 L 926.95054 334.29258 L 929.391552 329.024171 L 931.832563 332.4928 L 934.273575 333.778118 L 936.714586 327.762105 L 939.155598 335.09535 L 941.59661 331.963382 L 944.037621 326.271264 L 946.478633 340.338276 L 948.919645 324.091547 L 951.360656 332.473146 L 953.801668 364.176 L 956.242679 361.06197 L 958.683691 348.51823 L 961.124703 355.271182 L 963.565714 348.635085 L 966.006726 364.176 L 968.447738 342.906954 L 970.888749 364.176 L 973.329761 332.723557 L 975.770772 364.176 L 978.211784 360.43044 L 980.652796 329.909895 L 983.093807 364.176 L 985.534819 364.176 L 987.97583 331.872535 L 990.416842 364.176 L 992.857854 349.845176 L 995.298865 359.312407 L 997.739877 347.482895 L 1000.180889 364.176 L 1002.6219 343.024444 L 1005.062912 364.176 L 1007.503923 336.645169 L 1009.944935 364.176 L 1012.385947 347.855273 L 1014.826958 364.176 L 1017.26797 331.836427 L 1019.708982 364.176 L 1022.149993 362.636352 L 1024.591005 330.538559 L 1027.032016 364.176 L 1029.473028 353.7524 L 1031.91404 350.195442 L 1034.355051 364.176 L 1036.796063 327.110074 L 1039.237075 364.176 L 1041.678086 364.176 L 1044.119098 317.146535 L 1046.560109 364.176 L 1049.001121 364.176 L 1051.442133 337.774611 L 1053.883144 364.176 L 1056.324156 351.613114 L 1058.765167 355.444026 L 1061.206179 353.162242 L 1063.647191 357.702252 L 1066.088202 342.786505 L 1068.529214 364.176 L 1070.970226 335.795888 L 1073.411237 364.176 L 1075.852249 262.347429 L 1078.29326 354.729007 L 1080.734272 364.176 L 1083.175284 284.427457 L 1085.616295 356.716839 L 1090.498319 290.645996 L 1092.93933 334.911546 L 1095.380342 311.82675 L 1097.821353 307.366523 L 1100.262365 317.487466 L 1102.703377 307.313672 L 1105.144388 312.626083 L 1107.5854 311.423689 L 1110.026411 312.161661 L 1112.467423 308.153832 L 1114.908435 311.809961 L 1117.349446 309.773463 L 1119.790458 298.662014 L 1122.23147 323.580983 L 1124.672481 309.360209 L 1127.113493 306.682368 L 1129.554504 313.416714 L 1131.995516 313.813582 L 1134.436528 306.043412 L 1136.877539 312.514541 L 1139.318551 312.213745 L 1141.759563 307.355052 L 1144.200574 312.935912 L 1146.641586 311.314648 L 1149.082597 309.532616 L 1151.523609 311.497682 L 1153.964621 310.767194 L 1156.405632 310.306133 L 1158.846644 311.566099 L 1161.287656 310.835337 L 1163.728667 310.809504 L 1166.169679 312.719332 L 1168.61069 312.73362 L 1171.051702 306.953458 L 1173.492714 312.28344 L 1175.933725 310.412302 L 1178.374737 310.268564 L 1180.815748 311.52868 L 1183.25676 310.362567 L 1185.697772 311.622307 L 1188.138783 309.971931 L 1190.579795 311.100347 L 1193.020807 311.20634 L 1195.461818 311.795799 L 1195.461818 311.795799" clip-path="url(#pe68ebc449b)"/></g><g id="patch_8"><path fill="none" stroke="#000" stroke-linecap="square" stroke-linejoin="miter" stroke-width=".8" d="M 172.8 374.358857 L 172.8 252.164571"/></g><g id="patch_9"><path fill="none" stroke="#000" stroke-linecap="square" stroke-linejoin="miter" stroke-width=".8" d="M 1244.16 374.358857 L 1244.16 252.164571"/></g><g id="patch_10"><path fill="none" stroke="#000" stroke-linecap="square" stroke-linejoin="miter" stroke-width=".8" d="M 172.8 374.358857 L 1244.16 374.358857"/></g><g id="patch_11"><path fill="none" stroke="#000" stroke-linecap="square" stroke-linejoin="miter" stroke-width=".8" d="M 172.8 252.164571 L 1244.16 252.164571"/></g><g id="text_16"><defs><path id="DejaVuSans-83" d="M 53.515625 70.515625 L 53.515625 60.890625 Q 47.90625 63.578125 42.921875 64.890625 Q 37.9375 66.21875 33.296875 66.21875 Q 25.25 66.21875 20.875 63.09375 Q 16.5 59.96875 16.5 54.203125 Q 16.5 49.359375 19.40625 46.890625 Q 22.3125 44.4375 30.421875 42.921875 L 36.375 41.703125 Q 47.40625 39.59375 52.65625 34.296875 Q 57.90625 29 57.90625 20.125 Q 57.90625 9.515625 50.796875 4.046875 Q 43.703125 -1.421875 29.984375 -1.421875 Q 24.8125 -1.421875 18.96875 -0.25 Q 13.140625 0.921875 6.890625 3.21875 L 6.890625 13.375 Q 12.890625 10.015625 18.65625 8.296875 Q 24.421875 6.59375 29.984375 6.59375 Q 38.421875 6.59375 43.015625 9.90625 Q 47.609375 13.234375 47.609375 19.390625 Q 47.609375 24.75 44.3125 27.78125 Q 41.015625 30.8125 33.5 32.328125 L 27.484375 33.5 Q 16.453125 35.6875 11.515625 40.375 Q 6.59375 45.0625 6.59375 53.421875 Q 6.59375 63.09375 13.40625 68.65625 Q 20.21875 74.21875 32.171875 74.21875 Q 37.3125 74.21875 42.625 73.28125 Q 47.953125 72.359375 53.515625 70.515625 z"/><path id="DejaVuSans-237" d="M 20.65625 79.984375 L 30.375 79.984375 L 14.46875 61.625 L 6.984375 61.625 z M 9.421875 54.6875 L 18.40625 54.6875 L 18.40625 0 L 9.421875 0 z M 13.921875 56 z"/><path id="DejaVuSans-100" d="M 45.40625 46.390625 L 45.40625 75.984375 L 54.390625 75.984375 L 54.390625 0 L 45.40625 0 L 45.40625 8.203125 Q 42.578125 3.328125 38.25 0.953125 Q 33.9375 -1.421875 27.875 -1.421875 Q 17.96875 -1.421875 11.734375 6.484375 Q 5.515625 14.40625 5.515625 27.296875 Q 5.515625 40.1875 11.734375 48.09375 Q 17.96875 56 27.875 56 Q 33.9375 56 38.25 53.625 Q 42.578125 51.265625 45.40625 46.390625 z M 14.796875 27.296875 Q 14.796875 17.390625 18.875 11.75 Q 22.953125 6.109375 30.078125 6.109375 Q 37.203125 6.109375 41.296875 11.75 Q 45.40625 17.390625 45.40625 27.296875 Q 45.40625 37.203125 41.296875 42.84375 Q 37.203125 48.484375 30.078125 48.484375 Q 22.953125 48.484375 18.875 42.84375 Q 14.796875 37.203125 14.796875 27.296875 z"/><path id="DejaVuSans-117" d="M 8.5 21.578125 L 8.5 54.6875 L 17.484375 54.6875 L 17.484375 21.921875 Q 17.484375 14.15625 20.5 10.265625 Q 23.53125 6.390625 29.59375 6.390625 Q 36.859375 6.390625 41.078125 11.03125 Q 45.3125 15.671875 45.3125 23.6875 L 45.3125 54.6875 L 54.296875 54.6875 L 54.296875 0 L 45.3125 0 L 45.3125 8.40625 Q 42.046875 3.421875 37.71875 1 Q 33.40625 -1.421875 27.6875 -1.421875 Q 18.265625 -1.421875 13.375 4.4375 Q 8.5 10.296875 8.5 21.578125 z M 31.109375 56 z"/></defs><g transform="translate(584.169844 246.164571)scale(0.21 -0.21)"><use xlink:href="#DejaVuSans-83"/><use x="63.477" xlink:href="#DejaVuSans-97"/><use x="124.756" xlink:href="#DejaVuSans-237"/><use x="152.539" xlink:href="#DejaVuSans-100"/><use x="216.016" xlink:href="#DejaVuSans-97"/><use x="277.295" xlink:href="#DejaVuSans-32"/><use x="309.082" xlink:href="#DejaVuSans-99"/><use x="364.063" xlink:href="#DejaVuSans-111"/><use x="425.244" xlink:href="#DejaVuSans-110"/><use x="488.623" xlink:href="#DejaVuSans-116"/><use x="527.832" xlink:href="#DejaVuSans-114"/><use x="568.914" xlink:href="#DejaVuSans-111"/><use x="630.096" xlink:href="#DejaVuSans-108"/><use x="657.879" xlink:href="#DejaVuSans-97"/><use x="719.158" xlink:href="#DejaVuSans-100"/><use x="782.635" xlink:href="#DejaVuSans-111"/><use x="843.816" xlink:href="#DejaVuSans-114"/><use x="884.93" xlink:href="#DejaVuSans-32"/><use x="916.717" xlink:href="#DejaVuSans-45"/><use x="952.801" xlink:href="#DejaVuSans-32"/><use x="984.588" xlink:href="#DejaVuSans-117"/><use x="1047.967" xlink:href="#DejaVuSans-40"/><use x="1086.98" xlink:href="#DejaVuSans-107"/><use x="1144.891" xlink:href="#DejaVuSans-41"/></g></g></g><g id="axes_3"><g id="patch_12"><path fill="#fff" d="M 172.8 533.211429 L 1244.16 533.211429 L 1244.16 411.017143 L 172.8 411.017143 z"/></g><g id="matplotlib.axis_5"><g id="xtick_19"><g id="line2d_63"><path fill="none" stroke="gray" stroke-linecap="square" stroke-width=".8" d="M 221.498182 533.211429 L 221.498182 411.017143" clip-path="url(#p03985b7f46)"/></g><g id="line2d_64"><g><use x="221.498" y="533.211" stroke="#000" stroke-width=".8" xlink:href="#m8cf613a246"/></g></g></g><g id="xtick_20"><g id="line2d_65"><path fill="none" stroke="gray" stroke-linecap="square" stroke-width=".8" d="M 343.548763 533.211429 L 343.548763 411.017143" clip-path="url(#p03985b7f46)"/></g><g id="line2d_66"><g><use x="343.549" y="533.211" stroke="#000" stroke-width=".8" xlink:href="#m8cf613a246"/></g></g></g><g id="xtick_21"><g id="line2d_67"><path fill="none" stroke="gray" stroke-linecap="square" stroke-width=".8" d="M 465.599344 533.211429 L 465.599344 411.017143" clip-path="url(#p03985b7f46)"/></g><g id="line2d_68"><g><use x="465.599" y="533.211" stroke="#000" stroke-width=".8" xlink:href="#m8cf613a246"/></g></g></g><g id="xtick_22"><g id="line2d_69"><path fill="none" stroke="gray" stroke-linecap="square" stroke-width=".8" d="M 587.649925 533.211429 L 587.649925 411.017143" clip-path="url(#p03985b7f46)"/></g><g id="line2d_70"><g><use x="587.65" y="533.211" stroke="#000" stroke-width=".8" xlink:href="#m8cf613a246"/></g></g></g><g id="xtick_23"><g id="line2d_71"><path fill="none" stroke="gray" stroke-linecap="square" stroke-width=".8" d="M 709.700506 533.211429 L 709.700506 411.017143" clip-path="url(#p03985b7f46)"/></g><g id="line2d_72"><g><use x="709.701" y="533.211" stroke="#000" stroke-width=".8" xlink:href="#m8cf613a246"/></g></g></g><g id="xtick_24"><g id="line2d_73"><path fill="none" stroke="gray" stroke-linecap="square" stroke-width=".8" d="M 831.751087 533.211429 L 831.751087 411.017143" clip-path="url(#p03985b7f46)"/></g><g id="line2d_74"><g><use x="831.751" y="533.211" stroke="#000" stroke-width=".8" xlink:href="#m8cf613a246"/></g></g></g><g id="xtick_25"><g id="line2d_75"><path fill="none" stroke="gray" stroke-linecap="square" stroke-width=".8" d="M 953.801668 533.211429 L 953.801668 411.017143" clip-path="url(#p03985b7f46)"/></g><g id="line2d_76"><g><use x="953.802" y="533.211" stroke="#000" stroke-width=".8" xlink:href="#m8cf613a246"/></g></g></g><g id="xtick_26"><g id="line2d_77"><path fill="none" stroke="gray" stroke-linecap="square" stroke-width=".8" d="M 1075.852249 533.211429 L 1075.852249 411.017143" clip-path="url(#p03985b7f46)"/></g><g id="line2d_78"><g><use x="1075.852" y="533.211" stroke="#000" stroke-width=".8" xlink:href="#m8cf613a246"/></g></g></g><g id="xtick_27"><g id="line2d_79"><path fill="none" stroke="gray" stroke-linecap="square" stroke-width=".8" d="M 1197.90283 533.211429 L 1197.90283 411.017143" clip-path="url(#p03985b7f46)"/></g><g id="line2d_80"><g><use x="1197.903" y="533.211" stroke="#000" stroke-width=".8" xlink:href="#m8cf613a246"/></g></g></g></g><g id="matplotlib.axis_6"><g id="ytick_13"><g id="line2d_81"><path fill="none" stroke="gray" stroke-linecap="square" stroke-width=".8" d="M 172.8 523.028571 L 1244.16 523.028571" clip-path="url(#p03985b7f46)"/></g><g id="line2d_82"><g><use x="172.8" y="523.029" stroke="#000" stroke-width=".8" xlink:href="#m6c05718cdb"/></g></g><g id="text_17"><g transform="translate(159.4375 526.82779)scale(0.1 -0.1)"><use xlink:href="#DejaVuSans-48"/></g></g></g><g id="ytick_14"><g id="line2d_83"><path fill="none" stroke="gray" stroke-linecap="square" stroke-width=".8" d="M 172.8 502.662857 L 1244.16 502.662857" clip-path="url(#p03985b7f46)"/></g><g id="line2d_84"><g><use x="172.8" y="502.663" stroke="#000" stroke-width=".8" xlink:href="#m6c05718cdb"/></g></g><g id="text_18"><g transform="translate(159.4375 506.462076)scale(0.1 -0.1)"><use xlink:href="#DejaVuSans-49"/></g></g></g><g id="ytick_15"><g id="line2d_85"><path fill="none" stroke="gray" stroke-linecap="square" stroke-width=".8" d="M 172.8 482.297143 L 1244.16 482.297143" clip-path="url(#p03985b7f46)"/></g><g id="line2d_86"><g><use x="172.8" y="482.297" stroke="#000" stroke-width=".8" xlink:href="#m6c05718cdb"/></g></g><g id="text_19"><g transform="translate(159.4375 486.096362)scale(0.1 -0.1)"><use xlink:href="#DejaVuSans-50"/></g></g></g><g id="ytick_16"><g id="line2d_87"><path fill="none" stroke="gray" stroke-linecap="square" stroke-width=".8" d="M 172.8 461.931429 L 1244.16 461.931429" clip-path="url(#p03985b7f46)"/></g><g id="line2d_88"><g><use x="172.8" y="461.931" stroke="#000" stroke-width=".8" xlink:href="#m6c05718cdb"/></g></g><g id="text_20"><g transform="translate(159.4375 465.730647)scale(0.1 -0.1)"><use xlink:href="#DejaVuSans-51"/></g></g></g><g id="ytick_17"><g id="line2d_89"><path fill="none" stroke="gray" stroke-linecap="square" stroke-width=".8" d="M 172.8 441.565714 L 1244.16 441.565714" clip-path="url(#p03985b7f46)"/></g><g id="line2d_90"><g><use x="172.8" y="441.566" stroke="#000" stroke-width=".8" xlink:href="#m6c05718cdb"/></g></g><g id="text_21"><g transform="translate(159.4375 445.364933)scale(0.1 -0.1)"><use xlink:href="#DejaVuSans-52"/></g></g></g><g id="ytick_18"><g id="line2d_91"><path fill="none" stroke="gray" stroke-linecap="square" stroke-width=".8" d="M 172.8 421.2 L 1244.16 421.2" clip-path="url(#p03985b7f46)"/></g><g id="line2d_92"><g><use x="172.8" y="421.2" stroke="#000" stroke-width=".8" xlink:href="#m6c05718cdb"/></g></g><g id="text_22"><g transform="translate(159.4375 424.999219)scale(0.1 -0.1)"><use xlink:href="#DejaVuSans-53"/></g></g></g><g id="text_23"><g transform="translate(152.11 524.785536)rotate(-90)scale(0.16 -0.16)"><use xlink:href="#DejaVuSans-86"/><use x="68.299" xlink:href="#DejaVuSans-111"/><use x="129.48" xlink:href="#DejaVuSans-108"/><use x="157.264" xlink:href="#DejaVuSans-116"/><use x="196.473" xlink:href="#DejaVuSans-97"/><use x="257.752" xlink:href="#DejaVuSans-103"/><use x="321.229" xlink:href="#DejaVuSans-101"/><use x="382.752" xlink:href="#DejaVuSans-109"/><use x="480.164" xlink:href="#DejaVuSans-32"/><use x="511.951" xlink:href="#DejaVuSans-40"/><use x="550.965" xlink:href="#DejaVuSans-86"/><use x="619.373" xlink:href="#DejaVuSans-41"/></g></g></g><g id="line2d_93"><path fill="none" stroke="red" stroke-linecap="square" stroke-width="4" d="M 221.498182 523.028571 L 343.548763 523.028571 L 345.989774 479.527406 L 348.430786 472.562331 L 350.871798 482.521166 L 353.312809 454.3452 L 355.753821 458.326697 L 358.194833 460.322537 L 360.635844 451.157966 L 363.076856 450.964491 L 365.517867 449.762914 L 367.958879 448.07256 L 370.399891 446.779337 L 372.840902 445.190811 L 375.281914 445.384286 L 377.722925 442.604366 L 380.163937 444.192891 L 382.604949 442.604366 L 385.04596 443.999417 L 387.486972 439.814263 L 389.927984 443.592103 L 392.368995 441.311143 L 394.810007 443.999417 L 397.251018 438.918171 L 399.69203 443.500457 L 402.133042 440.903829 L 404.574053 443.693931 L 407.015065 439.916091 L 409.456077 443.500457 L 411.897088 440.313223 L 414.3381 443.897589 L 416.779111 439.610606 L 419.220123 442.696011 L 421.661135 443.693931 L 424.102146 438.918171 L 426.543158 443.592103 L 428.98417 440.415051 L 431.425181 443.897589 L 433.866193 439.417131 L 436.307204 443.693931 L 438.748216 440.01792 L 441.189228 443.897589 L 443.630239 440.01792 L 446.071251 443.693931 L 448.512262 440.313223 L 450.953274 443.592103 L 453.394286 440.415051 L 455.835297 443.194971 L 458.276309 441.005657 L 460.717321 443.592103 L 463.158332 439.121829 L 465.599344 443.693931 L 468.040355 458.428526 L 470.481367 474.059211 L 472.922379 487.98936 L 475.36339 503.81352 L 477.804402 496.156011 L 480.245414 504.31248 L 482.686425 513.069737 L 485.127437 507.703371 L 487.568448 516.562457 L 490.00946 509.5872 L 492.450472 517.652023 L 494.891483 510.187989 L 497.332495 518.252811 L 499.773506 507.795017 L 502.214518 517.458549 L 504.65553 505.3104 L 507.096541 513.477051 L 509.537553 512.377303 L 511.978565 520.6356 L 514.419576 507.795017 L 516.860588 514.271314 L 519.301599 517.35672 L 521.742611 514.271314 L 524.183623 523.028571 L 526.624634 501.929691 L 529.065646 511.379383 L 531.506658 509.291897 L 533.947669 517.458549 L 536.388681 512.58096 L 538.829692 518.751771 L 541.270704 513.874183 L 543.711716 522.926743 L 546.152727 500.931771 L 548.593739 509.984331 L 551.034751 510.58512 L 553.475762 518.446286 L 555.916774 511.185909 L 558.357785 518.751771 L 560.798797 510.289817 L 563.239809 519.148903 L 565.68082 506.603623 L 568.121832 513.568697 L 570.562843 516.85776 L 573.003855 513.477051 L 575.444867 522.234309 L 577.885878 504.913269 L 580.32689 510.391646 L 582.767902 521.531691 L 585.208913 497.052103 L 587.649925 503.121086 L 590.090936 464.802994 L 592.531948 463.998549 L 594.97296 456.137383 L 597.413971 442.899669 L 599.854983 444.885326 L 602.295995 438.225737 L 604.737006 437.02416 L 609.619029 435.934594 L 614.501053 436.331726 L 616.942064 436.229897 L 619.383076 436.433554 L 621.824087 436.128069 L 624.265099 436.036423 L 626.706111 436.433554 L 631.588134 436.128069 L 634.029146 436.331726 L 636.470157 435.832766 L 638.911169 436.229897 L 643.793192 436.331726 L 646.234204 436.036423 L 648.675215 435.934594 L 651.116227 436.229897 L 653.557239 436.036423 L 655.99825 436.229897 L 658.439262 436.036423 L 663.321285 435.934594 L 665.762297 436.229897 L 670.64432 436.433554 L 673.085332 435.832766 L 675.526343 435.832766 L 677.967355 436.331726 L 680.408366 436.331726 L 682.849378 436.128069 L 685.29039 435.730937 L 687.731401 436.229897 L 690.172413 436.331726 L 695.054436 435.730937 L 699.936459 436.229897 L 704.818483 436.331726 L 707.259494 435.934594 L 709.700506 436.036423 L 712.141517 450.465531 L 717.023541 482.419337 L 719.464552 482.022206 L 721.905564 491.869029 L 724.346576 491.869029 L 726.787587 497.449234 L 729.228599 496.553143 L 731.66961 500.931771 L 734.110622 497.642709 L 736.551634 503.620046 L 738.992645 495.657051 L 741.433657 505.514057 L 743.874668 492.174514 L 746.31568 502.123166 L 748.756692 494.160171 L 751.197703 503.019257 L 753.638715 496.654971 L 756.079727 505.514057 L 758.520738 493.76304 L 760.96175 501.929691 L 763.402761 498.141669 L 765.843773 505.412229 L 768.284785 494.659131 L 770.725796 501.328903 L 773.166808 502.917429 L 775.60782 497.449234 L 778.048831 506.104663 L 780.489843 497.143749 L 782.930854 504.913269 L 785.371866 496.950274 L 787.812878 505.208571 L 790.253889 496.553143 L 792.694901 506.501794 L 795.135913 492.866949 L 797.576924 499.832023 L 800.017936 502.326823 L 802.458947 495.952354 L 804.899959 505.605703 L 807.340971 495.25992 L 809.781982 504.017177 L 812.222994 495.850526 L 814.664005 503.121086 L 817.105017 502.326823 L 819.546029 499.241417 L 821.98704 507.000754 L 824.428052 493.661211 L 826.869064 502.622126 L 829.310075 495.361749 L 831.751087 504.414309 L 834.192098 472.857634 L 836.63311 466.788651 L 839.074122 482.521166 L 841.515133 474.955303 L 843.956145 479.731063 L 846.397157 483.009943 L 848.838168 478.132354 L 851.27918 483.2136 L 853.720191 480.230023 L 856.161203 483.407074 L 858.602215 480.627154 L 861.043226 482.71464 L 863.484238 482.816469 L 865.925249 480.525326 L 868.366261 484.109691 L 870.807273 481.024286 L 873.248284 483.508903 L 875.689296 481.71672 L 878.130308 481.920377 L 880.571319 483.315429 L 883.012331 481.126114 L 885.453342 483.2136 L 887.894354 482.918297 L 890.335366 480.922457 L 892.776377 483.906034 L 895.217389 481.625074 L 897.658401 482.419337 L 900.099412 482.419337 L 902.540424 482.612811 L 904.981435 482.419337 L 907.422447 482.419337 L 909.863459 481.625074 L 912.30447 483.508903 L 914.745482 481.818549 L 917.186494 482.71464 L 919.627505 482.21568 L 924.509528 482.612811 L 926.95054 481.71672 L 929.391552 483.009943 L 931.832563 482.113851 L 934.273575 481.920377 L 936.714586 483.315429 L 939.155598 481.523246 L 941.59661 482.419337 L 944.037621 483.610731 L 946.478633 480.321669 L 948.919645 484.303166 L 951.360656 482.022206 L 953.801668 481.920377 L 956.242679 493.864869 L 958.683691 504.516137 L 961.124703 508.192149 L 963.565714 513.670526 L 966.006726 511.776514 L 968.447738 519.342377 L 970.888749 509.790857 L 973.329761 520.044994 L 975.770772 502.723954 L 978.211784 509.08824 L 980.652796 519.342377 L 983.093807 499.740377 L 985.534819 506.104663 L 987.97583 517.550194 L 990.416842 499.933851 L 992.857854 509.291897 L 995.298865 511.08408 L 997.739877 516.85776 L 1000.180889 513.874183 L 1002.6219 520.839257 L 1005.062912 512.978091 L 1007.503923 521.531691 L 1009.944935 504.017177 L 1012.385947 512.672606 L 1014.826958 511.58304 L 1017.26797 521.531691 L 1019.708982 501.0336 L 1022.149993 507.397886 L 1024.591005 518.446286 L 1027.032016 499.832023 L 1029.473028 508.395806 L 1031.91404 513.171566 L 1034.355051 512.275474 L 1036.796063 523.028571 L 1039.237075 499.03776 L 1041.678086 505.412229 L 1044.119098 520.146823 L 1046.560109 490.575806 L 1049.001121 497.948194 L 1051.442133 510.391646 L 1053.883144 502.917429 L 1056.324156 511.08408 L 1058.765167 513.568697 L 1061.206179 516.654103 L 1063.647191 517.458549 L 1066.088202 522.13248 L 1068.529214 509.5872 L 1070.970226 519.250731 L 1073.411237 503.915349 L 1075.852249 511.776514 L 1078.29326 478.733143 L 1080.734272 468.682663 L 1083.175284 483.610731 L 1085.616295 462.511851 L 1088.057307 469.375097 L 1090.498319 474.252686 L 1092.93933 461.61576 L 1095.380342 466.584994 L 1097.821353 466.289691 L 1100.262365 463.010811 L 1102.703377 464.89464 L 1105.144388 463.010811 L 1107.5854 463.010811 L 1110.026411 462.603497 L 1112.467423 463.306114 L 1114.908435 462.206366 L 1117.349446 462.603497 L 1119.790458 464.802994 L 1122.23147 458.825657 L 1124.672481 462.705326 L 1127.113493 463.102457 L 1129.554504 461.412103 L 1131.995516 461.513931 L 1134.436528 463.306114 L 1136.877539 461.61576 L 1139.318551 461.809234 L 1141.759563 462.908983 L 1144.200574 461.513931 L 1149.082597 462.410023 L 1151.523609 461.911063 L 1153.964621 462.11472 L 1156.405632 462.206366 L 1158.846644 461.911063 L 1161.287656 462.11472 L 1163.728667 462.11472 L 1166.169679 461.707406 L 1168.61069 461.809234 L 1171.051702 463.102457 L 1173.492714 461.707406 L 1175.933725 462.206366 L 1178.374737 462.206366 L 1180.815748 461.911063 L 1183.25676 462.206366 L 1185.697772 461.911063 L 1188.138783 462.308194 L 1190.579795 462.012891 L 1195.461818 461.911063 L 1195.461818 461.911063" clip-path="url(#p03985b7f46)"/></g><g id="line2d_94"><path fill="none" stroke="#00f" stroke-dasharray="7.4 3.2" stroke-dashoffset="0" stroke-width="2" d="M 221.498182 523.028571 L 341.107751 523.028571 L 343.548763 441.565714 L 463.158332 441.565714 L 465.599344 523.028571 L 585.208913 523.028571 L 587.649925 421.2 L 707.259494 421.2 L 709.700506 502.662857 L 829.310075 502.662857 L 831.751087 482.297143 L 951.360656 482.297143 L 953.801668 523.028571 L 1073.411237 523.028571 L 1075.852249 461.931429 L 1195.461818 461.931429 L 1195.461818 461.931429" clip-path="url(#p03985b7f46)"/></g><g id="patch_13"><path fill="none" stroke="#000" stroke-linecap="square" stroke-linejoin="miter" stroke-width=".8" d="M 172.8 533.211429 L 172.8 411.017143"/></g><g id="patch_14"><path fill="none" stroke="#000" stroke-linecap="square" stroke-linejoin="miter" stroke-width=".8" d="M 1244.16 533.211429 L 1244.16 411.017143"/></g><g id="patch_15"><path fill="none" stroke="#000" stroke-linecap="square" stroke-linejoin="miter" stroke-width=".8" d="M 172.8 533.211429 L 1244.16 533.211429"/></g><g id="patch_16"><path fill="none" stroke="#000" stroke-linecap="square" stroke-linejoin="miter" stroke-width=".8" d="M 172.8 411.017143 L 1244.16 411.017143"/></g><g id="text_24"><defs><path id="DejaVuSans-68" d="M 19.671875 64.796875 L 19.671875 8.109375 L 31.59375 8.109375 Q 46.6875 8.109375 53.6875 14.9375 Q 60.6875 21.78125 60.6875 36.53125 Q 60.6875 51.171875 53.6875 57.984375 Q 46.6875 64.796875 31.59375 64.796875 z M 9.8125 72.90625 L 30.078125 72.90625 Q 51.265625 72.90625 61.171875 64.09375 Q 71.09375 55.28125 71.09375 36.53125 Q 71.09375 17.671875 61.125 8.828125 Q 51.171875 0 30.078125 0 L 9.8125 0 z"/><path id="DejaVuSans-115" d="M 44.28125 53.078125 L 44.28125 44.578125 Q 40.484375 46.53125 36.375 47.5 Q 32.28125 48.484375 27.875 48.484375 Q 21.1875 48.484375 17.84375 46.4375 Q 14.5 44.390625 14.5 40.28125 Q 14.5 37.15625 16.890625 35.375 Q 19.28125 33.59375 26.515625 31.984375 L 29.59375 31.296875 Q 39.15625 29.25 43.1875 25.515625 Q 47.21875 21.78125 47.21875 15.09375 Q 47.21875 7.46875 41.1875 3.015625 Q 35.15625 -1.421875 24.609375 -1.421875 Q 20.21875 -1.421875 15.453125 -0.5625 Q 10.6875 0.296875 5.421875 2 L 5.421875 11.28125 Q 10.40625 8.6875 15.234375 7.390625 Q 20.0625 6.109375 24.8125 6.109375 Q 31.15625 6.109375 34.5625 8.28125 Q 37.984375 10.453125 37.984375 14.40625 Q 37.984375 18.0625 35.515625 20.015625 Q 33.0625 21.96875 24.703125 23.78125 L 21.578125 24.515625 Q 13.234375 26.265625 9.515625 29.90625 Q 5.8125 33.546875 5.8125 39.890625 Q 5.8125 47.609375 11.28125 51.796875 Q 16.75 56 26.8125 56 Q 31.78125 56 36.171875 55.265625 Q 40.578125 54.546875 44.28125 53.078125 z"/><path id="DejaVuSans-76" d="M 9.8125 72.90625 L 19.671875 72.90625 L 19.671875 8.296875 L 55.171875 8.296875 L 55.171875 0 L 9.8125 0 z"/></defs><g transform="translate(613.784766 405.017143)scale(0.21 -0.21)"><use xlink:href="#DejaVuSans-68"/><use x="77.002" xlink:href="#DejaVuSans-97"/><use x="138.281" xlink:href="#DejaVuSans-100"/><use x="201.758" xlink:href="#DejaVuSans-111"/><use x="262.939" xlink:href="#DejaVuSans-115"/><use x="315.039" xlink:href="#DejaVuSans-32"/><use x="346.826" xlink:href="#DejaVuSans-76"/><use x="402.539" xlink:href="#DejaVuSans-105"/><use x="430.322" xlink:href="#DejaVuSans-100"/><use x="493.799" xlink:href="#DejaVuSans-111"/><use x="554.98" xlink:href="#DejaVuSans-115"/><use x="607.08" xlink:href="#DejaVuSans-32"/><use x="638.867" xlink:href="#DejaVuSans-45"/><use x="674.951" xlink:href="#DejaVuSans-32"/><use x="706.738" xlink:href="#DejaVuSans-121"/><use x="765.918" xlink:href="#DejaVuSans-40"/><use x="804.932" xlink:href="#DejaVuSans-107"/><use x="862.842" xlink:href="#DejaVuSans-41"/></g></g><g id="legend_1"><g id="patch_17"><path fill="#fff" stroke="#ccc" stroke-linejoin="miter" d="M 1195.130312 448.373393 L 1237.16 448.373393 Q 1239.16 448.373393 1239.16 446.373393 L 1239.16 418.017143 Q 1239.16 416.017143 1237.16 416.017143 L 1195.130312 416.017143 Q 1193.130312 416.017143 1193.130312 418.017143 L 1193.130312 446.373393 Q 1193.130312 448.373393 1195.130312 448.373393 z" opacity=".8"/></g><g id="line2d_95"><path fill="none" stroke="red" stroke-linecap="square" stroke-width="4" d="M 1197.130312 424.11558 L 1217.130312 424.11558"/></g><g id="text_25"><g transform="translate(1225.130312 427.61558)scale(0.1 -0.1)"><use xlink:href="#DejaVuSans-121"/></g></g><g id="line2d_97"><path fill="none" stroke="#00f" stroke-dasharray="7.4 3.2" stroke-dashoffset="0" stroke-width="2" d="M 1197.130312 438.793705 L 1217.130312 438.793705"/></g><g id="text_26"><g transform="translate(1225.130312 442.293705)scale(0.1 -0.1)"><use xlink:href="#DejaVuSans-121"/><use x="59.18" xlink:href="#DejaVuSans-114"/></g></g></g></g><g id="axes_4"><g id="patch_18"><path fill="#fff" d="M 172.8 692.064 L 1244.16 692.064 L 1244.16 569.869714 L 172.8 569.869714 z"/></g><g id="matplotlib.axis_7"><g id="xtick_28"><g id="line2d_99"><path fill="none" stroke="gray" stroke-linecap="square" stroke-width=".8" d="M 221.498182 692.064 L 221.498182 569.869714" clip-path="url(#p2e55370cd0)"/></g><g id="line2d_100"><g><use x="221.498" y="692.064" stroke="#000" stroke-width=".8" xlink:href="#m8cf613a246"/></g></g><g id="text_27"><g transform="translate(218.316932 706.662438)scale(0.1 -0.1)"><use xlink:href="#DejaVuSans-48"/></g></g></g><g id="xtick_29"><g id="line2d_101"><path fill="none" stroke="gray" stroke-linecap="square" stroke-width=".8" d="M 343.548763 692.064 L 343.548763 569.869714" clip-path="url(#p2e55370cd0)"/></g><g id="line2d_102"><g><use x="343.549" y="692.064" stroke="#000" stroke-width=".8" xlink:href="#m8cf613a246"/></g></g><g id="text_28"><g transform="translate(337.186263 706.662438)scale(0.1 -0.1)"><use xlink:href="#DejaVuSans-53"/><use x="63.623" xlink:href="#DejaVuSans-48"/></g></g></g><g id="xtick_30"><g id="line2d_103"><path fill="none" stroke="gray" stroke-linecap="square" stroke-width=".8" d="M 465.599344 692.064 L 465.599344 569.869714" clip-path="url(#p2e55370cd0)"/></g><g id="line2d_104"><g><use x="465.599" y="692.064" stroke="#000" stroke-width=".8" xlink:href="#m8cf613a246"/></g></g><g id="text_29"><g transform="translate(456.055594 706.662438)scale(0.1 -0.1)"><use xlink:href="#DejaVuSans-49"/><use x="63.623" xlink:href="#DejaVuSans-48"/><use x="127.246" xlink:href="#DejaVuSans-48"/></g></g></g><g id="xtick_31"><g id="line2d_105"><path fill="none" stroke="gray" stroke-linecap="square" stroke-width=".8" d="M 587.649925 692.064 L 587.649925 569.869714" clip-path="url(#p2e55370cd0)"/></g><g id="line2d_106"><g><use x="587.65" y="692.064" stroke="#000" stroke-width=".8" xlink:href="#m8cf613a246"/></g></g><g id="text_30"><g transform="translate(578.106175 706.662438)scale(0.1 -0.1)"><use xlink:href="#DejaVuSans-49"/><use x="63.623" xlink:href="#DejaVuSans-53"/><use x="127.246" xlink:href="#DejaVuSans-48"/></g></g></g><g id="xtick_32"><g id="line2d_107"><path fill="none" stroke="gray" stroke-linecap="square" stroke-width=".8" d="M 709.700506 692.064 L 709.700506 569.869714" clip-path="url(#p2e55370cd0)"/></g><g id="line2d_108"><g><use x="709.701" y="692.064" stroke="#000" stroke-width=".8" xlink:href="#m8cf613a246"/></g></g><g id="text_31"><g transform="translate(700.156756 706.662438)scale(0.1 -0.1)"><use xlink:href="#DejaVuSans-50"/><use x="63.623" xlink:href="#DejaVuSans-48"/><use x="127.246" xlink:href="#DejaVuSans-48"/></g></g></g><g id="xtick_33"><g id="line2d_109"><path fill="none" stroke="gray" stroke-linecap="square" stroke-width=".8" d="M 831.751087 692.064 L 831.751087 569.869714" clip-path="url(#p2e55370cd0)"/></g><g id="line2d_110"><g><use x="831.751" y="692.064" stroke="#000" stroke-width=".8" xlink:href="#m8cf613a246"/></g></g><g id="text_32"><g transform="translate(822.207337 706.662438)scale(0.1 -0.1)"><use xlink:href="#DejaVuSans-50"/><use x="63.623" xlink:href="#DejaVuSans-53"/><use x="127.246" xlink:href="#DejaVuSans-48"/></g></g></g><g id="xtick_34"><g id="line2d_111"><path fill="none" stroke="gray" stroke-linecap="square" stroke-width=".8" d="M 953.801668 692.064 L 953.801668 569.869714" clip-path="url(#p2e55370cd0)"/></g><g id="line2d_112"><g><use x="953.802" y="692.064" stroke="#000" stroke-width=".8" xlink:href="#m8cf613a246"/></g></g><g id="text_33"><g transform="translate(944.257918 706.662438)scale(0.1 -0.1)"><use xlink:href="#DejaVuSans-51"/><use x="63.623" xlink:href="#DejaVuSans-48"/><use x="127.246" xlink:href="#DejaVuSans-48"/></g></g></g><g id="xtick_35"><g id="line2d_113"><path fill="none" stroke="gray" stroke-linecap="square" stroke-width=".8" d="M 1075.852249 692.064 L 1075.852249 569.869714" clip-path="url(#p2e55370cd0)"/></g><g id="line2d_114"><g><use x="1075.852" y="692.064" stroke="#000" stroke-width=".8" xlink:href="#m8cf613a246"/></g></g><g id="text_34"><g transform="translate(1066.308499 706.662438)scale(0.1 -0.1)"><use xlink:href="#DejaVuSans-51"/><use x="63.623" xlink:href="#DejaVuSans-53"/><use x="127.246" xlink:href="#DejaVuSans-48"/></g></g></g><g id="xtick_36"><g id="line2d_115"><path fill="none" stroke="gray" stroke-linecap="square" stroke-width=".8" d="M 1197.90283 692.064 L 1197.90283 569.869714" clip-path="url(#p2e55370cd0)"/></g><g id="line2d_116"><g><use x="1197.903" y="692.064" stroke="#000" stroke-width=".8" xlink:href="#m8cf613a246"/></g></g><g id="text_35"><g transform="translate(1188.35908 706.662438)scale(0.1 -0.1)"><use xlink:href="#DejaVuSans-52"/><use x="63.623" xlink:href="#DejaVuSans-48"/><use x="127.246" xlink:href="#DejaVuSans-48"/></g></g></g><g id="text_36"><defs><path id="DejaVuSans-65" d="M 34.1875 63.1875 L 20.796875 26.90625 L 47.609375 26.90625 z M 28.609375 72.90625 L 39.796875 72.90625 L 67.578125 0 L 57.328125 0 L 50.6875 18.703125 L 17.828125 18.703125 L 11.1875 0 L 0.78125 0 z"/></defs><g transform="translate(650.835 726.419313)scale(0.18 -0.18)"><use xlink:href="#DejaVuSans-65"/><use x="68.408" xlink:href="#DejaVuSans-109"/><use x="165.82" xlink:href="#DejaVuSans-111"/><use x="227.002" xlink:href="#DejaVuSans-115"/><use x="279.102" xlink:href="#DejaVuSans-116"/><use x="318.311" xlink:href="#DejaVuSans-114"/><use x="359.424" xlink:href="#DejaVuSans-97"/><use x="420.703" xlink:href="#DejaVuSans-115"/><use x="472.803" xlink:href="#DejaVuSans-32"/><use x="504.59" xlink:href="#DejaVuSans-40"/><use x="543.604" xlink:href="#DejaVuSans-107"/><use x="601.514" xlink:href="#DejaVuSans-41"/></g></g></g><g id="matplotlib.axis_8"><g id="ytick_19"><g id="line2d_117"><path fill="none" stroke="gray" stroke-linecap="square" stroke-width=".8" d="M 172.8 675.401143 L 1244.16 675.401143" clip-path="url(#p2e55370cd0)"/></g><g id="line2d_118"><g><use x="172.8" y="675.401" stroke="#000" stroke-width=".8" xlink:href="#m6c05718cdb"/></g></g><g id="text_37"><defs><path id="DejaVuSans-8722" d="M 10.59375 35.5 L 73.1875 35.5 L 73.1875 27.203125 L 10.59375 27.203125 z"/></defs><g transform="translate(151.057812 679.200362)scale(0.1 -0.1)"><use xlink:href="#DejaVuSans-8722"/><use x="83.789" xlink:href="#DejaVuSans-52"/></g></g></g><g id="ytick_20"><g id="line2d_119"><path fill="none" stroke="gray" stroke-linecap="square" stroke-width=".8" d="M 172.8 653.184 L 1244.16 653.184" clip-path="url(#p2e55370cd0)"/></g><g id="line2d_120"><g><use x="172.8" y="653.184" stroke="#000" stroke-width=".8" xlink:href="#m6c05718cdb"/></g></g><g id="text_38"><g transform="translate(151.057812 656.983219)scale(0.1 -0.1)"><use xlink:href="#DejaVuSans-8722"/><use x="83.789" xlink:href="#DejaVuSans-50"/></g></g></g><g id="ytick_21"><g id="line2d_121"><path fill="none" stroke="gray" stroke-linecap="square" stroke-width=".8" d="M 172.8 630.966857 L 1244.16 630.966857" clip-path="url(#p2e55370cd0)"/></g><g id="line2d_122"><g><use x="172.8" y="630.967" stroke="#000" stroke-width=".8" xlink:href="#m6c05718cdb"/></g></g><g id="text_39"><g transform="translate(159.4375 634.766076)scale(0.1 -0.1)"><use xlink:href="#DejaVuSans-48"/></g></g></g><g id="ytick_22"><g id="line2d_123"><path fill="none" stroke="gray" stroke-linecap="square" stroke-width=".8" d="M 172.8 608.749714 L 1244.16 608.749714" clip-path="url(#p2e55370cd0)"/></g><g id="line2d_124"><g><use x="172.8" y="608.75" stroke="#000" stroke-width=".8" xlink:href="#m6c05718cdb"/></g></g><g id="text_40"><g transform="translate(159.4375 612.548933)scale(0.1 -0.1)"><use xlink:href="#DejaVuSans-50"/></g></g></g><g id="ytick_23"><g id="line2d_125"><path fill="none" stroke="gray" stroke-linecap="square" stroke-width=".8" d="M 172.8 586.532571 L 1244.16 586.532571" clip-path="url(#p2e55370cd0)"/></g><g id="line2d_126"><g><use x="172.8" y="586.533" stroke="#000" stroke-width=".8" xlink:href="#m6c05718cdb"/></g></g><g id="text_41"><g transform="translate(159.4375 590.33179)scale(0.1 -0.1)"><use xlink:href="#DejaVuSans-52"/></g></g></g><g id="text_42"><g transform="translate(143.730312 683.638107)rotate(-90)scale(0.16 -0.16)"><use xlink:href="#DejaVuSans-86"/><use x="68.299" xlink:href="#DejaVuSans-111"/><use x="129.48" xlink:href="#DejaVuSans-108"/><use x="157.264" xlink:href="#DejaVuSans-116"/><use x="196.473" xlink:href="#DejaVuSans-97"/><use x="257.752" xlink:href="#DejaVuSans-103"/><use x="321.229" xlink:href="#DejaVuSans-101"/><use x="382.752" xlink:href="#DejaVuSans-109"/><use x="480.164" xlink:href="#DejaVuSans-32"/><use x="511.951" xlink:href="#DejaVuSans-40"/><use x="550.965" xlink:href="#DejaVuSans-86"/><use x="619.373" xlink:href="#DejaVuSans-41"/></g></g></g><g id="line2d_127"><path fill="none" stroke="#000" stroke-linecap="square" stroke-width="4" d="M 221.498182 630.966857 L 341.107751 630.966857 L 343.548763 586.532571 L 345.989774 610.26048 L 348.430786 614.059611 L 350.871798 608.62752 L 353.312809 623.996229 L 355.753821 621.824503 L 358.194833 620.735863 L 360.635844 625.73472 L 363.076856 625.840251 L 365.517867 626.495657 L 367.958879 627.417669 L 370.399891 628.123063 L 372.840902 628.989531 L 375.281914 628.884 L 377.722925 630.40032 L 380.163937 629.533851 L 382.604949 630.40032 L 385.04596 629.639383 L 387.486972 631.922194 L 389.927984 629.861554 L 392.368995 631.105714 L 394.810007 629.639383 L 397.251018 632.410971 L 399.69203 629.911543 L 402.133042 631.327886 L 404.574053 629.806011 L 407.015065 631.866651 L 409.456077 629.911543 L 411.897088 631.650034 L 414.3381 629.694926 L 416.779111 632.03328 L 419.220123 630.350331 L 421.661135 629.806011 L 424.102146 632.410971 L 426.543158 629.861554 L 428.98417 631.594491 L 431.425181 629.694926 L 433.866193 632.138811 L 436.307204 629.806011 L 438.748216 631.811109 L 441.189228 629.694926 L 443.630239 631.811109 L 446.071251 629.806011 L 448.512262 631.650034 L 450.953274 629.861554 L 453.394286 631.594491 L 455.835297 630.078171 L 458.276309 631.272343 L 460.717321 629.861554 L 463.158332 632.299886 L 465.599344 674.240297 L 468.040355 666.203246 L 470.481367 657.677417 L 472.922379 650.079154 L 475.36339 641.447794 L 477.804402 645.624617 L 480.245414 641.175634 L 482.686425 636.398949 L 485.127437 639.326057 L 487.568448 634.493829 L 490.00946 638.298514 L 492.450472 633.89952 L 494.891483 637.970811 L 497.332495 633.571817 L 499.773506 639.276069 L 502.214518 634.005051 L 504.65553 640.631314 L 507.096541 636.176777 L 509.537553 636.77664 L 511.978565 632.272114 L 514.419576 639.276069 L 516.860588 635.743543 L 519.301599 634.060594 L 521.742611 635.743543 L 524.183623 630.966857 L 526.624634 642.475337 L 529.065646 637.32096 L 531.506658 638.459589 L 533.947669 634.005051 L 536.388681 636.665554 L 538.829692 633.299657 L 541.270704 635.96016 L 543.711716 631.0224 L 546.152727 643.019657 L 548.593739 638.081897 L 551.034751 637.754194 L 553.475762 633.466286 L 555.916774 637.426491 L 558.357785 633.299657 L 560.798797 637.915269 L 563.239809 633.08304 L 565.68082 639.92592 L 568.121832 636.126789 L 570.562843 634.332754 L 573.003855 636.176777 L 575.444867 631.400091 L 577.885878 640.847931 L 580.32689 637.859726 L 582.767902 631.783337 L 585.208913 645.13584 L 587.649925 586.282629 L 590.090936 607.183406 L 592.531948 607.622194 L 594.97296 611.910103 L 597.413971 619.130674 L 599.854983 618.047589 L 602.295995 621.680091 L 604.737006 622.335497 L 609.619029 622.929806 L 614.501053 622.713189 L 616.942064 622.768731 L 619.383076 622.657646 L 621.824087 622.824274 L 624.265099 622.874263 L 626.706111 622.657646 L 636.470157 622.985349 L 638.911169 622.768731 L 643.793192 622.713189 L 648.675215 622.929806 L 651.116227 622.768731 L 653.557239 622.874263 L 655.99825 622.768731 L 660.880273 622.874263 L 663.321285 622.929806 L 668.203308 622.713189 L 670.64432 622.657646 L 673.085332 622.985349 L 675.526343 622.985349 L 677.967355 622.713189 L 682.849378 622.824274 L 685.29039 623.040891 L 687.731401 622.768731 L 690.172413 622.713189 L 695.054436 623.040891 L 702.377471 622.768731 L 704.818483 622.713189 L 707.259494 622.929806 L 709.700506 667.308549 L 712.141517 659.438126 L 717.023541 642.008777 L 719.464552 642.225394 L 721.905564 636.8544 L 724.346576 636.8544 L 726.787587 633.810651 L 729.228599 634.299429 L 731.66961 631.911086 L 734.110622 633.70512 L 736.551634 630.444754 L 738.992645 634.788206 L 741.433657 629.411657 L 743.874668 636.687771 L 746.31568 631.261234 L 748.756692 635.604686 L 751.197703 630.772457 L 753.638715 634.243886 L 756.079727 629.411657 L 758.520738 635.821303 L 760.96175 631.366766 L 763.402761 633.43296 L 765.843773 629.4672 L 768.284785 635.332526 L 770.725796 631.694469 L 773.166808 630.828 L 775.60782 633.810651 L 778.048831 629.089509 L 780.489843 633.97728 L 782.930854 629.73936 L 785.371866 634.082811 L 787.812878 629.578286 L 790.253889 634.299429 L 792.694901 628.872891 L 795.135913 636.31008 L 797.576924 632.510949 L 800.017936 631.150149 L 802.458947 634.627131 L 804.899959 629.361669 L 807.340971 635.004823 L 809.781982 630.228137 L 812.222994 634.682674 L 814.664005 630.716914 L 817.105017 631.150149 L 819.546029 632.833097 L 821.98704 628.600731 L 824.428052 635.876846 L 826.869064 630.989074 L 829.310075 634.94928 L 831.751087 618.902949 L 834.192098 636.11568 L 836.63311 639.426034 L 839.074122 630.844663 L 841.515133 634.971497 L 843.956145 632.366537 L 846.397157 630.578057 L 848.838168 633.23856 L 851.27918 630.466971 L 853.720191 632.094377 L 856.161203 630.36144 L 858.602215 631.87776 L 861.043226 630.739131 L 863.484238 630.683589 L 865.925249 631.933303 L 868.366261 629.978194 L 870.807273 631.661143 L 873.248284 630.305897 L 875.689296 631.283451 L 878.130308 631.172366 L 880.571319 630.411429 L 883.012331 631.6056 L 885.453342 630.466971 L 887.894354 630.628046 L 890.335366 631.716686 L 892.776377 630.08928 L 895.217389 631.33344 L 897.658401 630.900206 L 907.422447 630.900206 L 909.863459 631.33344 L 912.30447 630.305897 L 914.745482 631.227909 L 917.186494 630.739131 L 919.627505 631.011291 L 924.509528 630.794674 L 926.95054 631.283451 L 929.391552 630.578057 L 931.832563 631.066834 L 934.273575 631.172366 L 936.714586 630.411429 L 939.155598 631.388983 L 941.59661 630.900206 L 944.037621 630.250354 L 946.478633 632.044389 L 948.919645 629.872663 L 951.360656 631.116823 L 953.801668 653.389509 L 956.242679 646.874331 L 958.683691 641.064549 L 961.124703 639.059451 L 963.565714 636.071246 L 966.006726 637.104343 L 968.447738 632.977509 L 970.888749 638.187429 L 973.329761 632.594263 L 975.770772 642.042103 L 978.211784 638.570674 L 980.652796 632.977509 L 983.093807 643.669509 L 985.534819 640.19808 L 987.97583 633.955063 L 990.416842 643.563977 L 992.857854 638.459589 L 995.298865 637.482034 L 997.739877 634.332754 L 1000.180889 635.96016 L 1002.6219 632.161029 L 1005.062912 636.448937 L 1007.503923 631.783337 L 1009.944935 641.336709 L 1012.385947 636.615566 L 1014.826958 637.209874 L 1017.26797 631.783337 L 1019.708982 642.964114 L 1022.149993 639.492686 L 1024.591005 633.466286 L 1027.032016 643.61952 L 1029.473028 638.948366 L 1031.91404 636.343406 L 1034.355051 636.832183 L 1036.796063 630.966857 L 1039.237075 644.052754 L 1041.678086 640.575771 L 1044.119098 632.53872 L 1046.560109 648.668366 L 1049.001121 644.647063 L 1051.442133 637.859726 L 1053.883144 641.936571 L 1056.324156 637.482034 L 1058.765167 636.126789 L 1061.206179 634.44384 L 1063.647191 634.005051 L 1066.088202 631.455634 L 1068.529214 638.298514 L 1070.970226 633.027497 L 1073.411237 641.392251 L 1075.852249 603.778629 L 1078.29326 621.802286 L 1080.734272 627.284366 L 1083.175284 619.141783 L 1085.616295 630.650263 L 1088.057307 626.906674 L 1090.498319 624.246171 L 1092.93933 631.13904 L 1095.380342 628.428549 L 1097.821353 628.589623 L 1100.262365 630.378103 L 1102.703377 629.35056 L 1105.144388 630.378103 L 1107.5854 630.378103 L 1110.026411 630.600274 L 1112.467423 630.217029 L 1114.908435 630.816891 L 1117.349446 630.600274 L 1119.790458 629.400549 L 1122.23147 632.660914 L 1124.672481 630.544731 L 1127.113493 630.328114 L 1129.554504 631.250126 L 1131.995516 631.194583 L 1134.436528 630.217029 L 1136.877539 631.13904 L 1139.318551 631.033509 L 1141.759563 630.433646 L 1144.200574 631.194583 L 1149.082597 630.705806 L 1151.523609 630.977966 L 1156.405632 630.816891 L 1158.846644 630.977966 L 1163.728667 630.86688 L 1166.169679 631.089051 L 1168.61069 631.033509 L 1171.051702 630.328114 L 1173.492714 631.089051 L 1175.933725 630.816891 L 1178.374737 630.816891 L 1180.815748 630.977966 L 1183.25676 630.816891 L 1185.697772 630.977966 L 1188.138783 630.761349 L 1190.579795 630.922423 L 1195.461818 630.977966 L 1195.461818 630.977966" clip-path="url(#p2e55370cd0)"/></g><g id="patch_19"><path fill="none" stroke="#000" stroke-linecap="square" stroke-linejoin="miter" stroke-width=".8" d="M 172.8 692.064 L 172.8 569.869714"/></g><g id="patch_20"><path fill="none" stroke="#000" stroke-linecap="square" stroke-linejoin="miter" stroke-width=".8" d="M 1244.16 692.064 L 1244.16 569.869714"/></g><g id="patch_21"><path fill="none" stroke="#000" stroke-linecap="square" stroke-linejoin="miter" stroke-width=".8" d="M 172.8 692.064 L 1244.16 692.064"/></g><g id="patch_22"><path fill="none" stroke="#000" stroke-linecap="square" stroke-linejoin="miter" stroke-width=".8" d="M 172.8 569.869714 L 1244.16 569.869714"/></g><g id="text_43"><defs><path id="DejaVuSans-69" d="M 9.8125 72.90625 L 55.90625 72.90625 L 55.90625 64.59375 L 19.671875 64.59375 L 19.671875 43.015625 L 54.390625 43.015625 L 54.390625 34.71875 L 19.671875 34.71875 L 19.671875 8.296875 L 56.78125 8.296875 L 56.78125 0 L 9.8125 0 z"/></defs><g transform="translate(655.596094 563.869714)scale(0.21 -0.21)"><use xlink:href="#DejaVuSans-69"/><use x="63.184" xlink:href="#DejaVuSans-114"/><use x="104.281" xlink:href="#DejaVuSans-114"/><use x="145.363" xlink:href="#DejaVuSans-111"/><use x="206.545" xlink:href="#DejaVuSans-32"/><use x="238.332" xlink:href="#DejaVuSans-45"/><use x="274.416" xlink:href="#DejaVuSans-32"/><use x="306.203" xlink:href="#DejaVuSans-101"/><use x="367.727" xlink:href="#DejaVuSans-40"/><use x="406.74" xlink:href="#DejaVuSans-107"/><use x="464.65" xlink:href="#DejaVuSans-41"/></g></g></g><g id="text_44"><defs><path id="DejaVuSans-67" d="M 64.40625 67.28125 L 64.40625 56.890625 Q 59.421875 61.53125 53.78125 63.8125 Q 48.140625 66.109375 41.796875 66.109375 Q 29.296875 66.109375 22.65625 58.46875 Q 16.015625 50.828125 16.015625 36.375 Q 16.015625 21.96875 22.65625 14.328125 Q 29.296875 6.6875 41.796875 6.6875 Q 48.140625 6.6875 53.78125 8.984375 Q 59.421875 11.28125 64.40625 15.921875 L 64.40625 5.609375 Q 59.234375 2.09375 53.4375 0.328125 Q 47.65625 -1.421875 41.21875 -1.421875 Q 24.65625 -1.421875 15.125 8.703125 Q 5.609375 18.84375 5.609375 36.375 Q 5.609375 53.953125 15.125 64.078125 Q 24.65625 74.21875 41.21875 74.21875 Q 47.75 74.21875 53.53125 72.484375 Q 59.328125 70.75 64.40625 67.28125 z"/></defs><g transform="translate(539.947031 35.307937)scale(0.26 -0.26)"><use xlink:href="#DejaVuSans-67"/><use x="69.824" xlink:href="#DejaVuSans-111"/><use x="131.006" xlink:href="#DejaVuSans-110"/><use x="194.385" xlink:href="#DejaVuSans-116"/><use x="233.594" xlink:href="#DejaVuSans-114"/><use x="274.676" xlink:href="#DejaVuSans-111"/><use x="335.857" xlink:href="#DejaVuSans-108"/><use x="363.641" xlink:href="#DejaVuSans-97"/><use x="424.92" xlink:href="#DejaVuSans-100"/><use x="488.396" xlink:href="#DejaVuSans-111"/><use x="549.578" xlink:href="#DejaVuSans-114"/><use x="590.691" xlink:href="#DejaVuSans-32"/><use x="622.479" xlink:href="#DejaVuSans-97"/><use x="683.758" xlink:href="#DejaVuSans-116"/><use x="722.967" xlink:href="#DejaVuSans-114"/><use x="764.08" xlink:href="#DejaVuSans-97"/><use x="825.359" xlink:href="#DejaVuSans-115"/><use x="877.459" xlink:href="#DejaVuSans-111"/><use x="938.641" xlink:href="#DejaVuSans-32"/><use x="970.428" xlink:href="#DejaVuSans-45"/><use x="1006.512" xlink:href="#DejaVuSans-32"/><use x="1038.299" xlink:href="#DejaVuSans-76"/><use x="1094.012" xlink:href="#DejaVuSans-82"/></g></g></g><defs><clipPath id="p7d42534781"><rect width="1071.36" height="122.194" x="172.8" y="93.312"/></clipPath><clipPath id="pe68ebc449b"><rect width="1071.36" height="122.194" x="172.8" y="252.165"/></clipPath><clipPath id="p03985b7f46"><rect width="1071.36" height="122.194" x="172.8" y="411.017"/></clipPath><clipPath id="p2e55370cd0"><rect width="1071.36" height="122.194" x="172.8" y="569.87"/></clipPath></defs></svg>