<svg xmlns="http://www.w3.org/2000/svg" xmlns:xlink="http://www.w3.org/1999/xlink" width="1843.2" height="1036.8" version="1.1" viewBox="0 0 1382.4 777.6"><defs><style type="text/css">*{stroke-linecap:butt;stroke-linejoin:round;white-space:pre}</style></defs><g id="figure_1"><g id="patch_1"><path fill="#fff" d="M 0 777.6 L 1382.4 777.6 L 1382.4 0 L 0 0 z"/></g><g id="axes_1"><g id="patch_2"><path fill="#fff" d="M 172.8 215.506286 L 1244.16 215.506286 L 1244.16 93.312 L 172.8 93.312 z"/></g><g id="matplotlib.axis_1"><g id="xtick_1"><g id="line2d_1"><path fill="none" stroke="gray" stroke-linecap="square" stroke-width=".8" d="M 221.498182 215.506286 L 221.498182 93.312" clip-path="url(#pbcd78de773)"/></g><g id="line2d_2"><defs><path id="mf9d9dbed5e" stroke="#000" stroke-width=".8" d="M 0 0 L 0 3.5"/></defs><g><use x="221.498" y="215.506" stroke="#000" stroke-width=".8" xlink:href="#mf9d9dbed5e"/></g></g></g><g id="xtick_2"><g id="line2d_3"><path fill="none" stroke="gray" stroke-linecap="square" stroke-width=".8" d="M 343.548763 215.506286 L 343.548763 93.312" clip-path="url(#pbcd78de773)"/></g><g id="line2d_4"><g><use x="343.549" y="215.506" stroke="#000" stroke-width=".8" xlink:href="#mf9d9dbed5e"/></g></g></g><g id="xtick_3"><g id="line2d_5"><path fill="none" stroke="gray" stroke-linecap="square" stroke-width=".8" d="M 465.599344 215.506286 L 465.599344 93.312" clip-path="url(#pbcd78de773)"/></g><g id="line2d_6"><g><use x="465.599" y="215.506" stroke="#000" stroke-width=".8" xlink:href="#mf9d9dbed5e"/></g></g></g><g id="xtick_4"><g id="line2d_7"><path fill="none" stroke="gray" stroke-linecap="square" stroke-width=".8" d="M 587.649925 215.506286 L 587.649925 93.312" clip-path="url(#pbcd78de773)"/></g><g id="line2d_8"><g><use x="587.65" y="215.506" stroke="#000" stroke-width=".8" xlink:href="#mf9d9dbed5e"/></g></g></g><g id="xtick_5"><g id="line2d_9"><path fill="none" stroke="gray" stroke-linecap="square" stroke-width=".8" d="M 709.700506 215.506286 L 709.700506 93.312" clip-path="url(#pbcd78de773)"/></g><g id="line2d_10"><g><use x="709.701" y="215.506" stroke="#000" stroke-width=".8" xlink:href="#mf9d9dbed5e"/></g></g></g><g id="xtick_6"><g id="line2d_11"><path fill="none" stroke="gray" stroke-linecap="square" stroke-width=".8" d="M 831.751087 215.506286 L 831.751087 93.312" clip-path="url(#pbcd78de773)"/></g><g id="line2d_12"><g><use x="831.751" y="215.506" stroke="#000" stroke-width=".8" xlink:href="#mf9d9dbed5e"/></g></g></g><g id="xtick_7"><g id="line2d_13"><path fill="none" stroke="gray" stroke-linecap="square" stroke-width=".8" d="M 953.801668 215.506286 L 953.801668 93.312" clip-path="url(#pbcd78de773)"/></g><g id="line2d_14"><g><use x="953.802" y="215.506" stroke="#000" stroke-width=".8" xlink:href="#mf9d9dbed5e"/></g></g></g><g id="xtick_8"><g id="line2d_15"><path fill="none" stroke="gray" stroke-linecap="square" stroke-width=".8" d="M 1075.852249 215.506286 L 1075.852249 93.312" clip-path="url(#pbcd78de773)"/></g><g id="line2d_16"><g><use x="1075.852" y="215.506" stroke="#000" stroke-width=".8" xlink:href="#mf9d9dbed5e"/></g></g></g><g id="xtick_9"><g id="line2d_17"><path fill="none" stroke="gray" stroke-linecap="square" stroke-width=".8" d="M 1197.90283 215.506286 L 1197.90283 93.312" clip-path="url(#pbcd78de773)"/></g><g id="line2d_18"><g><use x="1197.903" y="215.506" stroke="#000" stroke-width=".8" xlink:href="#mf9d9dbed5e"/></g></g></g></g><g id="matplotlib.axis_2"><g id="ytick_1"><g id="line2d_19"><path fill="none" stroke="gray" stroke-linecap="square" stroke-width=".8" d="M 172.8 205.323429 L 1244.16 205.323429" clip-path="url(#pbcd78de773)"/></g><g id="line2d_20"><defs><path id="m59320d7f4e" stroke="#000" stroke-width=".8" d="M 0 0 L -3.5 0"/></defs><g><use x="172.8" y="205.323" stroke="#000" stroke-width=".8" xlink:href="#m59320d7f4e"/></g></g><g id="text_1"><defs><path id="DejaVuSans-48" d="M 31.78125 66.40625 Q 24.171875 66.40625 20.328125 58.90625 Q 16.5 51.421875 16.5 36.375 Q 16.5 21.390625 20.328125 13.890625 Q 24.171875 6.390625 31.78125 6.390625 Q 39.453125 6.390625 43.28125 13.890625 Q 47.125 21.390625 47.125 36.375 Q 47.125 51.421875 43.28125 58.90625 Q 39.453125 66.40625 31.78125 66.40625 z M 31.78125 74.21875 Q 44.046875 74.21875 50.515625 64.515625 Q 56.984375 54.828125 56.984375 36.375 Q 56.984375 17.96875 50.515625 8.265625 Q 44.046875 -1.421875 31.78125 -1.421875 Q 19.53125 -1.421875 13.0625 8.265625 Q 6.59375 17.96875 6.59375 36.375 Q 6.59375 54.828125 13.0625 64.515625 Q 19.53125 74.21875 31.78125 74.21875 z"/></defs><g transform="translate(159.4375 209.122647)scale(0.1 -0.1)"><use xlink:href="#DejaVuSans-48"/></g></g></g><g id="ytick_2"><g id="line2d_21"><path fill="none" stroke="gray" stroke-linecap="square" stroke-width=".8" d="M 172.8 184.957714 L 1244.16 184.957714" clip-path="url(#pbcd78de773)"/></g><g id="line2d_22"><g><use x="172.8" y="184.958" stroke="#000" stroke-width=".8" xlink:href="#m59320d7f4e"/></g></g><g id="text_2"><defs><path id="DejaVuSans-49" d="M 12.40625 8.296875 L 28.515625 8.296875 L 28.515625 63.921875 L 10.984375 60.40625 L 10.984375 69.390625 L 28.421875 72.90625 L 38.28125 72.90625 L 38.28125 8.296875 L 54.390625 8.296875 L 54.390625 0 L 12.40625 0 z"/></defs><g transform="translate(159.4375 188.756933)scale(0.1 -0.1)"><use xlink:href="#DejaVuSans-49"/></g></g></g><g id="ytick_3"><g id="line2d_23"><path fill="none" stroke="gray" stroke-linecap="square" stroke-width=".8" d="M 172.8 164.592 L 1244.16 164.592" clip-path="url(#pbcd78de773)"/></g><g id="line2d_24"><g><use x="172.8" y="164.592" stroke="#000" stroke-width=".8" xlink:href="#m59320d7f4e"/></g></g><g id="text_3"><defs><path id="DejaVuSans-50" d="M 19.1875 8.296875 L 53.609375 8.296875 L 53.609375 0 L 7.328125 0 L 7.328125 8.296875 Q 12.9375 14.109375 22.625 23.890625 Q 32.328125 33.6875 34.8125 36.53125 Q 39.546875 41.84375 41.421875 45.53125 Q 43.3125 49.21875 43.3125 52.78125 Q 43.3125 58.59375 39.234375 62.25 Q 35.15625 65.921875 28.609375 65.921875 Q 23.96875 65.921875 18.8125 64.3125 Q 13.671875 62.703125 7.8125 59.421875 L 7.8125 69.390625 Q 13.765625 71.78125 18.9375 73 Q 24.125 74.21875 28.421875 74.21875 Q 39.75 74.21875 46.484375 68.546875 Q 53.21875 62.890625 53.21875 53.421875 Q 53.21875 48.921875 51.53125 44.890625 Q 49.859375 40.875 45.40625 35.40625 Q 44.1875 33.984375 37.640625 27.21875 Q 31.109375 20.453125 19.1875 8.296875 z"/></defs><g transform="translate(159.4375 168.391219)scale(0.1 -0.1)"><use xlink:href="#DejaVuSans-50"/></g></g></g><g id="ytick_4"><g id="line2d_25"><path fill="none" stroke="gray" stroke-linecap="square" stroke-width=".8" d="M 172.8 144.226286 L 1244.16 144.226286" clip-path="url(#pbcd78de773)"/></g><g id="line2d_26"><g><use x="172.8" y="144.226" stroke="#000" stroke-width=".8" xlink:href="#m59320d7f4e"/></g></g><g id="text_4"><defs><path id="DejaVuSans-51" d="M 40.578125 39.3125 Q 47.65625 37.796875 51.625 33 Q 55.609375 28.21875 55.609375 21.1875 Q 55.609375 10.40625 48.1875 4.484375 Q 40.765625 -1.421875 27.09375 -1.421875 Q 22.515625 -1.421875 17.65625 -0.515625 Q 12.796875 0.390625 7.625 2.203125 L 7.625 11.71875 Q 11.71875 9.328125 16.59375 8.109375 Q 21.484375 6.890625 26.8125 6.890625 Q 36.078125 6.890625 40.9375 10.546875 Q 45.796875 14.203125 45.796875 21.1875 Q 45.796875 27.640625 41.28125 31.265625 Q 36.765625 34.90625 28.71875 34.90625 L 20.21875 34.90625 L 20.21875 43.015625 L 29.109375 43.015625 Q 36.375 43.015625 40.234375 45.921875 Q 44.09375 48.828125 44.09375 54.296875 Q 44.09375 59.90625 40.109375 62.90625 Q 36.140625 65.921875 28.71875 65.921875 Q 24.65625 65.921875 20.015625 65.03125 Q 15.375 64.15625 9.8125 62.3125 L 9.8125 71.09375 Q 15.4375 72.65625 20.34375 73.4375 Q 25.25 74.21875 29.59375 74.21875 Q 40.828125 74.21875 47.359375 69.109375 Q 53.90625 64.015625 53.90625 55.328125 Q 53.90625 49.265625 50.4375 45.09375 Q 46.96875 40.921875 40.578125 39.3125 z"/></defs><g transform="translate(159.4375 148.025504)scale(0.1 -0.1)"><use xlink:href="#DejaVuSans-51"/></g></g></g><g id="ytick_5"><g id="line2d_27"><path fill="none" stroke="gray" stroke-linecap="square" stroke-width=".8" d="M 172.8 123.860571 L 1244.16 123.860571" clip-path="url(#pbcd78de773)"/></g><g id="line2d_28"><g><use x="172.8" y="123.861" stroke="#000" stroke-width=".8" xlink:href="#m59320d7f4e"/></g></g><g id="text_5"><defs><path id="DejaVuSans-52" d="M 37.796875 64.3125 L 12.890625 25.390625 L 37.796875 25.390625 z M 35.203125 72.90625 L 47.609375 72.90625 L 47.609375 25.390625 L 58.015625 25.390625 L 58.015625 17.1875 L 47.609375 17.1875 L 47.609375 0 L 37.796875 0 L 37.796875 17.1875 L 4.890625 17.1875 L 4.890625 26.703125 z"/></defs><g transform="translate(159.4375 127.65979)scale(0.1 -0.1)"><use xlink:href="#DejaVuSans-52"/></g></g></g><g id="ytick_6"><g id="line2d_29"><path fill="none" stroke="gray" stroke-linecap="square" stroke-width=".8" d="M 172.8 103.494857 L 1244.16 103.494857" clip-path="url(#pbcd78de773)"/></g><g id="line2d_30"><g><use x="172.8" y="103.495" stroke="#000" stroke-width=".8" xlink:href="#m59320d7f4e"/></g></g><g id="text_6"><defs><path id="DejaVuSans-53" d="M 10.796875 72.90625 L 49.515625 72.90625 L 49.515625 64.59375 L 19.828125 64.59375 L 19.828125 46.734375 Q 21.96875 47.46875 24.109375 47.828125 Q 26.265625 48.1875 28.421875 48.1875 Q 40.625 48.1875 47.75 41.5 Q 54.890625 34.8125 54.890625 23.390625 Q 54.890625 11.625 47.5625 5.09375 Q 40.234375 -1.421875 26.90625 -1.421875 Q 22.3125 -1.421875 17.546875 -0.640625 Q 12.796875 0.140625 7.71875 1.703125 L 7.71875 11.625 Q 12.109375 9.234375 16.796875 8.0625 Q 21.484375 6.890625 26.703125 6.890625 Q 35.15625 6.890625 40.078125 11.328125 Q 45.015625 15.765625 45.015625 23.390625 Q 45.015625 31 40.078125 35.4375 Q 35.15625 39.890625 26.703125 39.890625 Q 22.75 39.890625 18.8125 39.015625 Q 14.890625 38.140625 10.796875 36.28125 z"/></defs><g transform="translate(159.4375 107.294076)scale(0.1 -0.1)"><use xlink:href="#DejaVuSans-53"/></g></g></g><g id="text_7"><defs><path id="DejaVuSans-86" d="M 28.609375 0 L 0.78125 72.90625 L 11.078125 72.90625 L 34.1875 11.53125 L 57.328125 72.90625 L 67.578125 72.90625 L 39.796875 0 z"/><path id="DejaVuSans-111" d="M 30.609375 48.390625 Q 23.390625 48.390625 19.1875 42.75 Q 14.984375 37.109375 14.984375 27.296875 Q 14.984375 17.484375 19.15625 11.84375 Q 23.34375 6.203125 30.609375 6.203125 Q 37.796875 6.203125 41.984375 11.859375 Q 46.1875 17.53125 46.1875 27.296875 Q 46.1875 37.015625 41.984375 42.703125 Q 37.796875 48.390625 30.609375 48.390625 z M 30.609375 56 Q 42.328125 56 49.015625 48.375 Q 55.71875 40.765625 55.71875 27.296875 Q 55.71875 13.875 49.015625 6.21875 Q 42.328125 -1.421875 30.609375 -1.421875 Q 18.84375 -1.421875 12.171875 6.21875 Q 5.515625 13.875 5.515625 27.296875 Q 5.515625 40.765625 12.171875 48.375 Q 18.84375 56 30.609375 56 z"/><path id="DejaVuSans-108" d="M 9.421875 75.984375 L 18.40625 75.984375 L 18.40625 0 L 9.421875 0 z"/><path id="DejaVuSans-116" d="M 18.3125 70.21875 L 18.3125 54.6875 L 36.8125 54.6875 L 36.8125 47.703125 L 18.3125 47.703125 L 18.3125 18.015625 Q 18.3125 11.328125 20.140625 9.421875 Q 21.96875 7.515625 27.59375 7.515625 L 36.8125 7.515625 L 36.8125 0 L 27.59375 0 Q 17.1875 0 13.234375 3.875 Q 9.28125 7.765625 9.28125 18.015625 L 9.28125 47.703125 L 2.6875 47.703125 L 2.6875 54.6875 L 9.28125 54.6875 L 9.28125 70.21875 z"/><path id="DejaVuSans-97" d="M 34.28125 27.484375 Q 23.390625 27.484375 19.1875 25 Q 14.984375 22.515625 14.984375 16.5 Q 14.984375 11.71875 18.140625 8.90625 Q 21.296875 6.109375 26.703125 6.109375 Q 34.1875 6.109375 38.703125 11.40625 Q 43.21875 16.703125 43.21875 25.484375 L 43.21875 27.484375 z M 52.203125 31.203125 L 52.203125 0 L 43.21875 0 L 43.21875 8.296875 Q 40.140625 3.328125 35.546875 0.953125 Q 30.953125 -1.421875 24.3125 -1.421875 Q 15.921875 -1.421875 10.953125 3.296875 Q 6 8.015625 6 15.921875 Q 6 25.140625 12.171875 29.828125 Q 18.359375 34.515625 30.609375 34.515625 L 43.21875 34.515625 L 43.21875 35.40625 Q 43.21875 41.609375 39.140625 45 Q 35.0625 48.390625 27.6875 48.390625 Q 23 48.390625 18.546875 47.265625 Q 14.109375 46.140625 10.015625 43.890625 L 10.015625 52.203125 Q 14.9375 54.109375 19.578125 55.046875 Q 24.21875 56 28.609375 56 Q 40.484375 56 46.34375 49.84375 Q 52.203125 43.703125 52.203125 31.203125 z"/><path id="DejaVuSans-103" d="M 45.40625 27.984375 Q 45.40625 37.75 41.375 43.109375 Q 37.359375 48.484375 30.078125 48.484375 Q 22.859375 48.484375 18.828125 43.109375 Q 14.796875 37.75 14.796875 27.984375 Q 14.796875 18.265625 18.828125 12.890625 Q 22.859375 7.515625 30.078125 7.515625 Q 37.359375 7.515625 41.375 12.890625 Q 45.40625 18.265625 45.40625 27.984375 z M 54.390625 6.78125 Q 54.390625 -7.171875 48.1875 -13.984375 Q 42 -20.796875 29.203125 -20.796875 Q 24.46875 -20.796875 20.265625 -20.09375 Q 16.0625 -19.390625 12.109375 -17.921875 L 12.109375 -9.1875 Q 16.0625 -11.328125 19.921875 -12.34375 Q 23.78125 -13.375 27.78125 -13.375 Q 36.625 -13.375 41.015625 -8.765625 Q 45.40625 -4.15625 45.40625 5.171875 L 45.40625 9.625 Q 42.625 4.78125 38.28125 2.390625 Q 33.9375 0 27.875 0 Q 17.828125 0 11.671875 7.65625 Q 5.515625 15.328125 5.515625 27.984375 Q 5.515625 40.671875 11.671875 48.328125 Q 17.828125 56 27.875 56 Q 33.9375 56 38.28125 53.609375 Q 42.625 51.21875 45.40625 46.390625 L 45.40625 54.6875 L 54.390625 54.6875 z"/><path id="DejaVuSans-101" d="M 56.203125 29.59375 L 56.203125 25.203125 L 14.890625 25.203125 Q 15.484375 15.921875 20.484375 11.0625 Q 25.484375 6.203125 34.421875 6.203125 Q 39.59375 6.203125 44.453125 7.46875 Q 49.3125 8.734375 54.109375 11.28125 L 54.109375 2.78125 Q 49.265625 0.734375 44.1875 -0.34375 Q 39.109375 -1.421875 33.890625 -1.421875 Q 20.796875 -1.421875 13.15625 6.1875 Q 5.515625 13.8125 5.515625 26.8125 Q 5.515625 40.234375 12.765625 48.109375 Q 20.015625 56 32.328125 56 Q 43.359375 56 49.78125 48.890625 Q 56.203125 41.796875 56.203125 29.59375 z M 47.21875 32.234375 Q 47.125 39.59375 43.09375 43.984375 Q 39.0625 48.390625 32.421875 48.390625 Q 24.90625 48.390625 20.390625 44.140625 Q 15.875 39.890625 15.1875 32.171875 z"/><path id="DejaVuSans-109" d="M 52 44.1875 Q 55.375 50.25 60.0625 53.125 Q 64.75 56 71.09375 56 Q 79.640625 56 84.28125 50.015625 Q 88.921875 44.046875 88.921875 33.015625 L 88.921875 0 L 79.890625 0 L 79.890625 32.71875 Q 79.890625 40.578125 77.09375 44.375 Q 74.3125 48.1875 68.609375 48.1875 Q 61.625 48.1875 57.5625 43.546875 Q 53.515625 38.921875 53.515625 30.90625 L 53.515625 0 L 44.484375 0 L 44.484375 32.71875 Q 44.484375 40.625 41.703125 44.40625 Q 38.921875 48.1875 33.109375 48.1875 Q 26.21875 48.1875 22.15625 43.53125 Q 18.109375 38.875 18.109375 30.90625 L 18.109375 0 L 9.078125 0 L 9.078125 54.6875 L 18.109375 54.6875 L 18.109375 46.1875 Q 21.1875 51.21875 25.484375 53.609375 Q 29.78125 56 35.6875 56 Q 41.65625 56 45.828125 52.96875 Q 50 49.953125 52 44.1875 z"/><path id="DejaVuSans-32"/><path id="DejaVuSans-40" d="M 31 75.875 Q 24.46875 64.65625 21.28125 53.65625 Q 18.109375 42.671875 18.109375 31.390625 Q 18.109375 20.125 21.3125 9.0625 Q 24.515625 -2 31 -13.1875 L 23.1875 -13.1875 Q 15.875 -1.703125 12.234375 9.375 Q 8.59375 20.453125 8.59375 31.390625 Q 8.59375 42.28125 12.203125 53.3125 Q 15.828125 64.359375 23.1875 75.875 z"/><path id="DejaVuSans-41" d="M 8.015625 75.875 L 15.828125 75.875 Q 23.140625 64.359375 26.78125 53.3125 Q 30.421875 42.28125 30.421875 31.390625 Q 30.421875 20.453125 26.78125 9.375 Q 23.140625 -1.703125 15.828125 -13.1875 L 8.015625 -13.1875 Q 14.5 -2 17.703125 9.0625 Q 20.90625 20.125 20.90625 31.390625 Q 20.90625 42.671875 17.703125 53.65625 Q 14.5 64.65625 8.015625 75.875 z"/></defs><g transform="translate(152.11 207.080393)rotate(-90)scale(0.16 -0.16)"><use xlink:href="#DejaVuSans-86"/><use x="68.299" xlink:href="#DejaVuSans-111"/><use x="129.48" xlink:href="#DejaVuSans-108"/><use x="157.264" xlink:href="#DejaVuSans-116"/><use x="196.473" xlink:href="#DejaVuSans-97"/><use x="257.752" xlink:href="#DejaVuSans-103"/><use x="321.229" xlink:href="#DejaVuSans-101"/><use x="382.752" xlink:href="#DejaVuSans-109"/><use x="480.164" xlink:href="#DejaVuSans-32"/><use x="511.951" xlink:href="#DejaVuSans-40"/><use x="550.965" xlink:href="#DejaVuSans-86"/><use x="619.373" xlink:href="#DejaVuSans-41"/></g></g></g><g id="line2d_31"><path fill="none" stroke="#00f" stroke-linecap="square" stroke-width="4" d="M 221.498182 205.323429 L 341.107751 205.323429 L 343.548763 123.860571 L 463.158332 123.860571 L 465.599344 205.323429 L 585.208913 205.323429 L 587.649925 103.494857 L 707.259494 103.494857 L 709.700506 184.957714 L 829.310075 184.957714 L 831.751087 164.592 L 951.360656 164.592 L 953.801668 205.323429 L 1073.411237 205.323429 L 1075.852249 144.226286 L 1195.461818 144.226286 L 1195.461818 144.226286" clip-path="url(#pbcd78de773)"/></g><g id="patch_3"><path fill="none" stroke="#000" stroke-linecap="square" stroke-linejoin="miter" stroke-width=".8" d="M 172.8 215.506286 L 172.8 93.312"/></g><g id="patch_4"><path fill="none" stroke="#000" stroke-linecap="square" stroke-linejoin="miter" stroke-width=".8" d="M 1244.16 215.506286 L 1244.16 93.312"/></g><g id="patch_5"><path fill="none" stroke="#000" stroke-linecap="square" stroke-linejoin="miter" stroke-width=".8" d="M 172.8 215.506286 L 1244.16 215.506286"/></g><g id="patch_6"><path fill="none" stroke="#000" stroke-linecap="square" stroke-linejoin="miter" stroke-width=".8" d="M 172.8 93.312 L 1244.16 93.312"/></g><g id="text_8"><defs><path id="DejaVuSans-82" d="M 44.390625 34.1875 Q 47.5625 33.109375 50.5625 29.59375 Q 53.5625 26.078125 56.59375 19.921875 L 66.609375 0 L 56 0 L 46.6875 18.703125 Q 43.0625 26.03125 39.671875 28.421875 Q 36.28125 30.8125 30.421875 30.8125 L 19.671875 30.8125 L 19.671875 0 L 9.8125 0 L 9.8125 72.90625 L 32.078125 72.90625 Q 44.578125 72.90625 50.734375 67.671875 Q 56.890625 62.453125 56.890625 51.90625 Q 56.890625 45.015625 53.6875 40.46875 Q 50.484375 35.9375 44.390625 34.1875 z M 19.671875 64.796875 L 19.671875 38.921875 L 32.078125 38.921875 Q 39.203125 38.921875 42.84375 42.21875 Q 46.484375 45.515625 46.484375 51.90625 Q 46.484375 58.296875 42.84375 61.546875 Q 39.203125 64.796875 32.078125 64.796875 z"/><path id="DejaVuSans-102" d="M 37.109375 75.984375 L 37.109375 68.5 L 28.515625 68.5 Q 23.6875 68.5 21.796875 66.546875 Q 19.921875 64.59375 19.921875 59.515625 L 19.921875 54.6875 L 34.71875 54.6875 L 34.71875 47.703125 L 19.921875 47.703125 L 19.921875 0 L 10.890625 0 L 10.890625 47.703125 L 2.296875 47.703125 L 2.296875 54.6875 L 10.890625 54.6875 L 10.890625 58.5 Q 10.890625 67.625 15.140625 71.796875 Q 19.390625 75.984375 28.609375 75.984375 z"/><path id="DejaVuSans-114" d="M 41.109375 46.296875 Q 39.59375 47.171875 37.8125 47.578125 Q 36.03125 48 33.890625 48 Q 26.265625 48 22.1875 43.046875 Q 18.109375 38.09375 18.109375 28.8125 L 18.109375 0 L 9.078125 0 L 9.078125 54.6875 L 18.109375 54.6875 L 18.109375 46.1875 Q 20.953125 51.171875 25.484375 53.578125 Q 30.03125 56 36.53125 56 Q 37.453125 56 38.578125 55.875 Q 39.703125 55.765625 41.0625 55.515625 z"/><path id="DejaVuSans-110" d="M 54.890625 33.015625 L 54.890625 0 L 45.90625 0 L 45.90625 32.71875 Q 45.90625 40.484375 42.875 44.328125 Q 39.84375 48.1875 33.796875 48.1875 Q 26.515625 48.1875 22.3125 43.546875 Q 18.109375 38.921875 18.109375 30.90625 L 18.109375 0 L 9.078125 0 L 9.078125 54.6875 L 18.109375 54.6875 L 18.109375 46.1875 Q 21.34375 51.125 25.703125 53.5625 Q 30.078125 56 35.796875 56 Q 45.21875 56 50.046875 50.171875 Q 54.890625 44.34375 54.890625 33.015625 z"/><path id="DejaVuSans-99" d="M 48.78125 52.59375 L 48.78125 44.1875 Q 44.96875 46.296875 41.140625 47.34375 Q 37.3125 48.390625 33.40625 48.390625 Q 24.65625 48.390625 19.8125 42.84375 Q 14.984375 37.3125 14.984375 27.296875 Q 14.984375 17.28125 19.8125 11.734375 Q 24.65625 6.203125 33.40625 6.203125 Q 37.3125 6.203125 41.140625 7.25 Q 44.96875 8.296875 48.78125 10.40625 L 48.78125 2.09375 Q 45.015625 0.34375 40.984375 -0.53125 Q 36.96875 -1.421875 32.421875 -1.421875 Q 20.0625 -1.421875 12.78125 6.34375 Q 5.515625 14.109375 5.515625 27.296875 Q 5.515625 40.671875 12.859375 48.328125 Q 20.21875 56 33.015625 56 Q 37.15625 56 41.109375 55.140625 Q 45.0625 54.296875 48.78125 52.59375 z"/><path id="DejaVuSans-105" d="M 9.421875 54.6875 L 18.40625 54.6875 L 18.40625 0 L 9.421875 0 z M 9.421875 75.984375 L 18.40625 75.984375 L 18.40625 64.59375 L 9.421875 64.59375 z"/><path id="DejaVuSans-45" d="M 4.890625 31.390625 L 31.203125 31.390625 L 31.203125 23.390625 L 4.890625 23.390625 z"/><path id="DejaVuSans-121" d="M 32.171875 -5.078125 Q 28.375 -14.84375 24.75 -17.8125 Q 21.140625 -20.796875 15.09375 -20.796875 L 7.90625 -20.796875 L 7.90625 -13.28125 L 13.1875 -13.28125 Q 16.890625 -13.28125 18.9375 -11.515625 Q 21 -9.765625 23.484375 -3.21875 L 25.09375 0.875 L 2.984375 54.6875 L 12.5 54.6875 L 29.59375 11.921875 L 46.6875 54.6875 L 56.203125 54.6875 z"/><path id="DejaVuSans-107" d="M 9.078125 75.984375 L 18.109375 75.984375 L 18.109375 31.109375 L 44.921875 54.6875 L 56.390625 54.6875 L 27.390625 29.109375 L 57.625 0 L 45.90625 0 L 18.109375 26.703125 L 18.109375 0 L 9.078125 0 z"/></defs><g transform="translate(616.752656 87.312)scale(0.21 -0.21)"><use xlink:href="#DejaVuSans-82"/><use x="69.42" xlink:href="#DejaVuSans-101"/><use x="130.943" xlink:href="#DejaVuSans-102"/><use x="166.148" xlink:href="#DejaVuSans-101"/><use x="227.672" xlink:href="#DejaVuSans-114"/><use x="268.754" xlink:href="#DejaVuSans-101"/><use x="330.277" xlink:href="#DejaVuSans-110"/><use x="393.656" xlink:href="#DejaVuSans-99"/><use x="448.637" xlink:href="#DejaVuSans-105"/><use x="476.42" xlink:href="#DejaVuSans-97"/><use x="537.699" xlink:href="#DejaVuSans-32"/><use x="569.486" xlink:href="#DejaVuSans-45"/><use x="605.57" xlink:href="#DejaVuSans-32"/><use x="637.357" xlink:href="#DejaVuSans-121"/><use x="696.537" xlink:href="#DejaVuSans-114"/><use x="737.65" xlink:href="#DejaVuSans-40"/><use x="776.664" xlink:href="#DejaVuSans-107"/><use x="834.574" xlink:href="#DejaVuSans-41"/></g></g></g><g id="axes_2"><g id="patch_7"><path fill="#fff" d="M 172.8 374.358857 L 1244.16 374.358857 L 1244.16 252.164571 L 172.8 252.164571 z"/></g><g id="matplotlib.axis_3"><g id="xtick_10"><g id="line2d_32"><path fill="none" stroke="gray" stroke-linecap="square" stroke-width=".8" d="M 221.498182 374.358857 L 221.498182 252.164571" clip-path="url(#p8289a4af48)"/></g><g id="line2d_33"><g><use x="221.498" y="374.359" stroke="#000" stroke-width=".8" xlink:href="#mf9d9dbed5e"/></g></g></g><g id="xtick_11"><g id="line2d_34"><path fill="none" stroke="gray" stroke-linecap="square" stroke-width=".8" d="M 343.548763 374.358857 L 343.548763 252.164571" clip-path="url(#p8289a4af48)"/></g><g id="line2d_35"><g><use x="343.549" y="374.359" stroke="#000" stroke-width=".8" xlink:href="#mf9d9dbed5e"/></g></g></g><g id="xtick_12"><g id="line2d_36"><path fill="none" stroke="gray" stroke-linecap="square" stroke-width=".8" d="M 465.599344 374.358857 L 465.599344 252.164571" clip-path="url(#p8289a4af48)"/></g><g id="line2d_37"><g><use x="465.599" y="374.359" stroke="#000" stroke-width=".8" xlink:href="#mf9d9dbed5e"/></g></g></g><g id="xtick_13"><g id="line2d_38"><path fill="none" stroke="gray" stroke-linecap="square" stroke-width=".8" d="M 587.649925 374.358857 L 587.649925 252.164571" clip-path="url(#p8289a4af48)"/></g><g id="line2d_39"><g><use x="587.65" y="374.359" stroke="#000" stroke-width=".8" xlink:href="#mf9d9dbed5e"/></g></g></g><g id="xtick_14"><g id="line2d_40"><path fill="none" stroke="gray" stroke-linecap="square" stroke-width=".8" d="M 709.700506 374.358857 L 709.700506 252.164571" clip-path="url(#p8289a4af48)"/></g><g id="line2d_41"><g><use x="709.701" y="374.359" stroke="#000" stroke-width=".8" xlink:href="#mf9d9dbed5e"/></g></g></g><g id="xtick_15"><g id="line2d_42"><path fill="none" stroke="gray" stroke-linecap="square" stroke-width=".8" d="M 831.751087 374.358857 L 831.751087 252.164571" clip-path="url(#p8289a4af48)"/></g><g id="line2d_43"><g><use x="831.751" y="374.359" stroke="#000" stroke-width=".8" xlink:href="#mf9d9dbed5e"/></g></g></g><g id="xtick_16"><g id="line2d_44"><path fill="none" stroke="gray" stroke-linecap="square" stroke-width=".8" d="M 953.801668 374.358857 L 953.801668 252.164571" clip-path="url(#p8289a4af48)"/></g><g id="line2d_45"><g><use x="953.802" y="374.359" stroke="#000" stroke-width=".8" xlink:href="#mf9d9dbed5e"/></g></g></g><g id="xtick_17"><g id="line2d_46"><path fill="none" stroke="gray" stroke-linecap="square" stroke-width=".8" d="M 1075.852249 374.358857 L 1075.852249 252.164571" clip-path="url(#p8289a4af48)"/></g><g id="line2d_47"><g><use x="1075.852" y="374.359" stroke="#000" stroke-width=".8" xlink:href="#mf9d9dbed5e"/></g></g></g><g id="xtick_18"><g id="line2d_48"><path fill="none" stroke="gray" stroke-linecap="square" stroke-width=".8" d="M 1197.90283 374.358857 L 1197.90283 252.164571" clip-path="url(#p8289a4af48)"/></g><g id="line2d_49"><g><use x="1197.903" y="374.359" stroke="#000" stroke-width=".8" xlink:href="#mf9d9dbed5e"/></g></g></g></g><g id="matplotlib.axis_4"><g id="ytick_7"><g id="line2d_50"><path fill="none" stroke="gray" stroke-linecap="square" stroke-width=".8" d="M 172.8 364.176 L 1244.16 364.176" clip-path="url(#p8289a4af48)"/></g><g id="line2d_51"><g><use x="172.8" y="364.176" stroke="#000" stroke-width=".8" xlink:href="#m59320d7f4e"/></g></g><g id="text_9"><g transform="translate(159.4375 367.975219)scale(0.1 -0.1)"><use xlink:href="#DejaVuSans-48"/></g></g></g><g id="ytick_8"><g id="line2d_52"><path fill="none" stroke="gray" stroke-linecap="square" stroke-width=".8" d="M 172.8 343.810286 L 1244.16 343.810286" clip-path="url(#p8289a4af48)"/></g><g id="line2d_53"><g><use x="172.8" y="343.81" stroke="#000" stroke-width=".8" xlink:href="#m59320d7f4e"/></g></g><g id="text_10"><g transform="translate(159.4375 347.609504)scale(0.1 -0.1)"><use xlink:href="#DejaVuSans-49"/></g></g></g><g id="ytick_9"><g id="line2d_54"><path fill="none" stroke="gray" stroke-linecap="square" stroke-width=".8" d="M 172.8 323.444571 L 1244.16 323.444571" clip-path="url(#p8289a4af48)"/></g><g id="line2d_55"><g><use x="172.8" y="323.445" stroke="#000" stroke-width=".8" xlink:href="#m59320d7f4e"/></g></g><g id="text_11"><g transform="translate(159.4375 327.24379)scale(0.1 -0.1)"><use xlink:href="#DejaVuSans-50"/></g></g></g><g id="ytick_10"><g id="line2d_56"><path fill="none" stroke="gray" stroke-linecap="square" stroke-width=".8" d="M 172.8 303.078857 L 1244.16 303.078857" clip-path="url(#p8289a4af48)"/></g><g id="line2d_57"><g><use x="172.8" y="303.079" stroke="#000" stroke-width=".8" xlink:href="#m59320d7f4e"/></g></g><g id="text_12"><g transform="translate(159.4375 306.878076)scale(0.1 -0.1)"><use xlink:href="#DejaVuSans-51"/></g></g></g><g id="ytick_11"><g id="line2d_58"><path fill="none" stroke="gray" stroke-linecap="square" stroke-width=".8" d="M 172.8 282.713143 L 1244.16 282.713143" clip-path="url(#p8289a4af48)"/></g><g id="line2d_59"><g><use x="172.8" y="282.713" stroke="#000" stroke-width=".8" xlink:href="#m59320d7f4e"/></g></g><g id="text_13"><g transform="translate(159.4375 286.512362)scale(0.1 -0.1)"><use xlink:href="#DejaVuSans-52"/></g></g></g><g id="ytick_12"><g id="line2d_60"><path fill="none" stroke="gray" stroke-linecap="square" stroke-width=".8" d="M 172.8 262.347429 L 1244.16 262.347429" clip-path="url(#p8289a4af48)"/></g><g id="line2d_61"><g><use x="172.8" y="262.347" stroke="#000" stroke-width=".8" xlink:href="#m59320d7f4e"/></g></g><g id="text_14"><g transform="translate(159.4375 266.146647)scale(0.1 -0.1)"><use xlink:href="#DejaVuSans-53"/></g></g></g><g id="text_15"><g transform="translate(152.11 365.932964)rotate(-90)scale(0.16 -0.16)"><use xlink:href="#DejaVuSans-86"/><use x="68.299" xlink:href="#DejaVuSans-111"/><use x="129.48" xlink:href="#DejaVuSans-108"/><use x="157.264" xlink:href="#DejaVuSans-116"/><use x="196.473" xlink:href="#DejaVuSans-97"/><use x="257.752" xlink:href="#DejaVuSans-103"/><use x="321.229" xlink:href="#DejaVuSans-101"/><use x="382.752" xlink:href="#DejaVuSans-109"/><use x="480.164" xlink:href="#DejaVuSans-32"/><use x="511.951" xlink:href="#DejaVuSans-40"/><use x="550.965" xlink:href="#DejaVuSans-86"/><use x="619.373" xlink:href="#DejaVuSans-41"/></g></g></g><g id="line2d_62"><path fill="none" stroke="green" stroke-dasharray="14.8 6.4" stroke-dashoffset="0" stroke-width="4" d="M 221.498182 364.176 L 341.107751 364.176 L 343.548763 262.347429 L 348.430786 262.347429 L 350.871798 364.176 L 353.312809 268.211268 L 355.753821 262.347429 L 358.194833 362.195577 L 360.635844 262.347429 L 363.076856 262.347429 L 365.517867 364.176 L 367.958879 262.347429 L 370.399891 262.347429 L 372.840902 364.176 L 375.281914 262.347429 L 377.722925 267.326072 L 380.163937 364.176 L 382.604949 262.347429 L 385.04596 262.347429 L 387.486972 364.176 L 389.927984 277.159148 L 392.368995 262.347429 L 394.810007 301.87005 L 397.251018 297.891258 L 399.69203 262.347429 L 402.133042 305.435476 L 407.015065 262.347429 L 409.456077 307.231569 L 411.897088 282.420858 L 414.3381 262.347429 L 416.779111 316.154868 L 419.220123 294.668252 L 421.661135 262.347429 L 424.102146 287.701806 L 426.543158 321.812025 L 428.98417 262.347429 L 431.425181 272.190382 L 433.866193 333.327658 L 436.307204 262.347429 L 438.748216 262.347429 L 441.189228 364.176 L 443.630239 273.78404 L 446.071251 262.347429 L 448.512262 317.595885 L 450.953274 277.246098 L 453.394286 262.347429 L 455.835297 316.887422 L 458.276309 274.251575 L 460.717321 262.347429 L 463.158332 335.280391 L 465.599344 364.176 L 585.208913 364.176 L 587.649925 262.347429 L 707.259494 262.347429 L 709.700506 364.176 L 719.464552 364.176 L 721.905564 291.722629 L 724.346576 364.176 L 729.228599 364.176 L 731.66961 304.5915 L 734.110622 364.176 L 738.992645 364.176 L 741.433657 262.347429 L 743.874668 364.176 L 751.197703 364.176 L 753.638715 262.347429 L 756.079727 364.176 L 763.402761 364.176 L 765.843773 315.778183 L 768.284785 364.176 L 770.725796 364.176 L 773.166808 323.641101 L 775.60782 364.176 L 778.048831 364.176 L 780.489843 262.347429 L 782.930854 364.176 L 790.253889 364.176 L 792.694901 307.866592 L 795.135913 364.176 L 800.017936 364.176 L 802.458947 262.347429 L 804.899959 364.176 L 812.222994 364.176 L 814.664005 262.347429 L 817.105017 364.176 L 824.428052 364.176 L 826.869064 284.568174 L 829.310075 364.176 L 831.751087 364.176 L 834.192098 262.347429 L 836.63311 364.176 L 841.515133 364.176 L 843.956145 262.347429 L 846.397157 364.176 L 851.27918 364.176 L 853.720191 262.347429 L 856.161203 364.176 L 861.043226 364.176 L 863.484238 262.347429 L 865.925249 364.176 L 870.807273 364.176 L 873.248284 262.347429 L 875.689296 364.176 L 880.571319 364.176 L 883.012331 271.546703 L 885.453342 364.176 L 890.335366 364.176 L 892.776377 262.347429 L 895.217389 364.176 L 900.099412 364.176 L 902.540424 262.347429 L 904.981435 364.176 L 909.863459 364.176 L 912.30447 266.516168 L 914.745482 364.176 L 919.627505 364.176 L 922.068517 262.347429 L 924.509528 364.176 L 929.391552 364.176 L 931.832563 262.347429 L 934.273575 364.176 L 939.155598 364.176 L 941.59661 262.347429 L 944.037621 364.176 L 948.919645 364.176 L 951.360656 262.347429 L 953.801668 364.176 L 1073.411237 364.176 L 1075.852249 262.347429 L 1078.29326 262.347429 L 1080.734272 364.176 L 1083.175284 364.176 L 1085.616295 289.268439 L 1088.057307 275.012628 L 1090.498319 364.176 L 1092.93933 364.176 L 1095.380342 262.347429 L 1097.821353 364.176 L 1100.262365 364.176 L 1102.703377 262.347429 L 1105.144388 364.176 L 1107.5854 364.176 L 1110.026411 263.45793 L 1112.467423 364.176 L 1114.908435 364.176 L 1117.349446 262.347429 L 1119.790458 364.176 L 1122.23147 364.176 L 1124.672481 262.347429 L 1127.113493 364.176 L 1129.554504 364.176 L 1131.995516 262.347429 L 1134.436528 364.176 L 1136.877539 364.176 L 1139.318551 285.958562 L 1141.759563 307.29912 L 1144.200574 364.176 L 1146.641586 278.210039 L 1149.082597 364.176 L 1151.523609 360.936181 L 1153.964621 262.347429 L 1156.405632 319.994619 L 1158.846644 364.176 L 1161.287656 347.342291 L 1163.728667 262.347429 L 1166.169679 364.176 L 1168.61069 364.176 L 1171.051702 262.347429 L 1173.492714 364.176 L 1175.933725 364.176 L 1178.374737 262.347429 L 1180.815748 364.176 L 1183.25676 364.176 L 1185.697772 264.643398 L 1188.138783 364.176 L 1190.579795 364.176 L 1193.020807 262.347429 L 1195.461818 364.176 L 1195.461818 364.176" clip-path="url(#p8289a4af48)"/></g><g id="patch_8"><path fill="none" stroke="#000" stroke-linecap="square" stroke-linejoin="miter" stroke-width=".8" d="M 172.8 374.358857 L 172.8 252.164571"/></g><g id="patch_9"><path fill="none" stroke="#000" stroke-linecap="square" stroke-linejoin="miter" stroke-width=".8" d="M 1244.16 374.358857 L 1244.16 252.164571"/></g><g id="patch_10"><path fill="none" stroke="#000" stroke-linecap="square" stroke-linejoin="miter" stroke-width=".8" d="M 172.8 374.358857 L 1244.16 374.358857"/></g><g id="patch_11"><path fill="none" stroke="#000" stroke-linecap="square" stroke-linejoin="miter" stroke-width=".8" d="M 172.8 252.164571 L 1244.16 252.164571"/></g><g id="text_16"><defs><path id="DejaVuSans-83" d="M 53.515625 70.515625 L 53.515625 60.890625 Q 47.90625 63.578125 42.921875 64.890625 Q 37.9375 66.21875 33.296875 66.21875 Q 25.25 66.21875 20.875 63.09375 Q 16.5 59.96875 16.5 54.203125 Q 16.5 49.359375 19.40625 46.890625 Q 22.3125 44.4375 30.421875 42.921875 L 36.375 41.703125 Q 47.40625 39.59375 52.65625 34.296875 Q 57.90625 29 57.90625 20.125 Q 57.90625 9.515625 50.796875 4.046875 Q 43.703125 -1.421875 29.984375 -1.421875 Q 24.8125 -1.421875 18.96875 -0.25 Q 13.140625 0.921875 6.890625 3.21875 L 6.890625 13.375 Q 12.890625 10.015625 18.65625 8.296875 Q 24.421875 6.59375 29.984375 6.59375 Q 38.421875 6.59375 43.015625 9.90625 Q 47.609375 13.234375 47.609375 19.390625 Q 47.609375 24.75 44.3125 27.78125 Q 41.015625 30.8125 33.5 32.328125 L 27.484375 33.5 Q 16.453125 35.6875 11.515625 40.375 Q 6.59375 45.0625 6.59375 53.421875 Q 6.59375 63.09375 13.40625 68.65625 Q 20.21875 74.21875 32.171875 74.21875 Q 37.3125 74.21875 42.625 73.28125 Q 47.953125 72.359375 53.515625 70.515625 z"/><path id="DejaVuSans-237" d="M 20.65625 79.984375 L 30.375 79.984375 L 14.46875 61.625 L 6.984375 61.625 z M 9.421875 54.6875 L 18.40625 54.6875 L 18.40625 0 L 9.421875 0 z M 13.921875 56 z"/><path id="DejaVuSans-100" d="M 45.40625 46.390625 L 45.40625 75.984375 L 54.390625 75.984375 L 54.390625 0 L 45.40625 0 L 45.40625 8.203125 Q 42.578125 3.328125 38.25 0.953125 Q 33.9375 -1.421875 27.875 -1.421875 Q 17.96875 -1.421875 11.734375 6.484375 Q 5.515625 14.40625 5.515625 27.296875 Q 5.515625 40.1875 11.734375 48.09375 Q 17.96875 56 27.875 56 Q 33.9375 56 38.25 53.625 Q 42.578125 51.265625 45.40625 46.390625 z M 14.796875 27.296875 Q 14.796875 17.390625 18.875 11.75 Q 22.953125 6.109375 30.078125 6.109375 Q 37.203125 6.109375 41.296875 11.75 Q 45.40625 17.390625 45.40625 27.296875 Q 45.40625 37.203125 41.296875 42.84375 Q 37.203125 48.484375 30.078125 48.484375 Q 22.953125 48.484375 18.875 42.84375 Q 14.796875 37.203125 14.796875 27.296875 z"/><path id="DejaVuSans-117" d="M 8.5 21.578125 L 8.5 54.6875 L 17.484375 54.6875 L 17.484375 21.921875 Q 17.484375 14.15625 20.5 10.265625 Q 23.53125 6.390625 29.59375 6.390625 Q 36.859375 6.390625 41.078125 11.03125 Q 45.3125 15.671875 45.3125 23.6875 L 45.3125 54.6875 L 54.296875 54.6875 L 54.296875 0 L 45.3125 0 L 45.3125 8.40625 Q 42.046875 3.421875 37.71875 1 Q 33.40625 -1.421875 27.6875 -1.421875 Q 18.265625 -1.421875 13.375 4.4375 Q 8.5 10.296875 8.5 21.578125 z M 31.109375 56 z"/></defs><g transform="translate(584.169844 246.164571)scale(0.21 -0.21)"><use xlink:href="#DejaVuSans-83"/><use x="63.477" xlink:href="#DejaVuSans-97"/><use x="124.756" xlink:href="#DejaVuSans-237"/><use x="152.539" xlink:href="#DejaVuSans-100"/><use x="216.016" xlink:href="#DejaVuSans-97"/><use x="277.295" xlink:href="#DejaVuSans-32"/><use x="309.082" xlink:href="#DejaVuSans-99"/><use x="364.063" xlink:href="#DejaVuSans-111"/><use x="425.244" xlink:href="#DejaVuSans-110"/><use x="488.623" xlink:href="#DejaVuSans-116"/><use x="527.832" xlink:href="#DejaVuSans-114"/><use x="568.914" xlink:href="#DejaVuSans-111"/><use x="630.096" xlink:href="#DejaVuSans-108"/><use x="657.879" xlink:href="#DejaVuSans-97"/><use x="719.158" xlink:href="#DejaVuSans-100"/><use x="782.635" xlink:href="#DejaVuSans-111"/><use x="843.816" xlink:href="#DejaVuSans-114"/><use x="884.93" xlink:href="#DejaVuSans-32"/><use x="916.717" xlink:href="#DejaVuSans-45"/><use x="952.801" xlink:href="#DejaVuSans-32"/><use x="984.588" xlink:href="#DejaVuSans-117"/><use x="1047.967" xlink:href="#DejaVuSans-40"/><use x="1086.98" xlink:href="#DejaVuSans-107"/><use x="1144.891" xlink:href="#DejaVuSans-41"/></g></g></g><g id="axes_3"><g id="patch_12"><path fill="#fff" d="M 172.8 533.211429 L 1244.16 533.211429 L 1244.16 411.017143 L 172.8 411.017143 z"/></g><g id="matplotlib.axis_5"><g id="xtick_19"><g id="line2d_63"><path fill="none" stroke="gray" stroke-linecap="square" stroke-width=".8" d="M 221.498182 533.211429 L 221.498182 411.017143" clip-path="url(#pd2fcdeec5f)"/></g><g id="line2d_64"><g><use x="221.498" y="533.211" stroke="#000" stroke-width=".8" xlink:href="#mf9d9dbed5e"/></g></g></g><g id="xtick_20"><g id="line2d_65"><path fill="none" stroke="gray" stroke-linecap="square" stroke-width=".8" d="M 343.548763 533.211429 L 343.548763 411.017143" clip-path="url(#pd2fcdeec5f)"/></g><g id="line2d_66"><g><use x="343.549" y="533.211" stroke="#000" stroke-width=".8" xlink:href="#mf9d9dbed5e"/></g></g></g><g id="xtick_21"><g id="line2d_67"><path fill="none" stroke="gray" stroke-linecap="square" stroke-width=".8" d="M 465.599344 533.211429 L 465.599344 411.017143" clip-path="url(#pd2fcdeec5f)"/></g><g id="line2d_68"><g><use x="465.599" y="533.211" stroke="#000" stroke-width=".8" xlink:href="#mf9d9dbed5e"/></g></g></g><g id="xtick_22"><g id="line2d_69"><path fill="none" stroke="gray" stroke-linecap="square" stroke-width=".8" d="M 587.649925 533.211429 L 587.649925 411.017143" clip-path="url(#pd2fcdeec5f)"/></g><g id="line2d_70"><g><use x="587.65" y="533.211" stroke="#000" stroke-width=".8" xlink:href="#mf9d9dbed5e"/></g></g></g><g id="xtick_23"><g id="line2d_71"><path fill="none" stroke="gray" stroke-linecap="square" stroke-width=".8" d="M 709.700506 533.211429 L 709.700506 411.017143" clip-path="url(#pd2fcdeec5f)"/></g><g id="line2d_72"><g><use x="709.701" y="533.211" stroke="#000" stroke-width=".8" xlink:href="#mf9d9dbed5e"/></g></g></g><g id="xtick_24"><g id="line2d_73"><path fill="none" stroke="gray" stroke-linecap="square" stroke-width=".8" d="M 831.751087 533.211429 L 831.751087 411.017143" clip-path="url(#pd2fcdeec5f)"/></g><g id="line2d_74"><g><use x="831.751" y="533.211" stroke="#000" stroke-width=".8" xlink:href="#mf9d9dbed5e"/></g></g></g><g id="xtick_25"><g id="line2d_75"><path fill="none" stroke="gray" stroke-linecap="square" stroke-width=".8" d="M 953.801668 533.211429 L 953.801668 411.017143" clip-path="url(#pd2fcdeec5f)"/></g><g id="line2d_76"><g><use x="953.802" y="533.211" stroke="#000" stroke-width=".8" xlink:href="#mf9d9dbed5e"/></g></g></g><g id="xtick_26"><g id="line2d_77"><path fill="none" stroke="gray" stroke-linecap="square" stroke-width=".8" d="M 1075.852249 533.211429 L 1075.852249 411.017143" clip-path="url(#pd2fcdeec5f)"/></g><g id="line2d_78"><g><use x="1075.852" y="533.211" stroke="#000" stroke-width=".8" xlink:href="#mf9d9dbed5e"/></g></g></g><g id="xtick_27"><g id="line2d_79"><path fill="none" stroke="gray" stroke-linecap="square" stroke-width=".8" d="M 1197.90283 533.211429 L 1197.90283 411.017143" clip-path="url(#pd2fcdeec5f)"/></g><g id="line2d_80"><g><use x="1197.903" y="533.211" stroke="#000" stroke-width=".8" xlink:href="#mf9d9dbed5e"/></g></g></g></g><g id="matplotlib.axis_6"><g id="ytick_13"><g id="line2d_81"><path fill="none" stroke="gray" stroke-linecap="square" stroke-width=".8" d="M 172.8 523.028571 L 1244.16 523.028571" clip-path="url(#pd2fcdeec5f)"/></g><g id="line2d_82"><g><use x="172.8" y="523.029" stroke="#000" stroke-width=".8" xlink:href="#m59320d7f4e"/></g></g><g id="text_17"><g transform="translate(159.4375 526.82779)scale(0.1 -0.1)"><use xlink:href="#DejaVuSans-48"/></g></g></g><g id="ytick_14"><g id="line2d_83"><path fill="none" stroke="gray" stroke-linecap="square" stroke-width=".8" d="M 172.8 502.662857 L 1244.16 502.662857" clip-path="url(#pd2fcdeec5f)"/></g><g id="line2d_84"><g><use x="172.8" y="502.663" stroke="#000" stroke-width=".8" xlink:href="#m59320d7f4e"/></g></g><g id="text_18"><g transform="translate(159.4375 506.462076)scale(0.1 -0.1)"><use xlink:href="#DejaVuSans-49"/></g></g></g><g id="ytick_15"><g id="line2d_85"><path fill="none" stroke="gray" stroke-linecap="square" stroke-width=".8" d="M 172.8 482.297143 L 1244.16 482.297143" clip-path="url(#pd2fcdeec5f)"/></g><g id="line2d_86"><g><use x="172.8" y="482.297" stroke="#000" stroke-width=".8" xlink:href="#m59320d7f4e"/></g></g><g id="text_19"><g transform="translate(159.4375 486.096362)scale(0.1 -0.1)"><use xlink:href="#DejaVuSans-50"/></g></g></g><g id="ytick_16"><g id="line2d_87"><path fill="none" stroke="gray" stroke-linecap="square" stroke-width=".8" d="M 172.8 461.931429 L 1244.16 461.931429" clip-path="url(#pd2fcdeec5f)"/></g><g id="line2d_88"><g><use x="172.8" y="461.931" stroke="#000" stroke-width=".8" xlink:href="#m59320d7f4e"/></g></g><g id="text_20"><g transform="translate(159.4375 465.730647)scale(0.1 -0.1)"><use xlink:href="#DejaVuSans-51"/></g></g></g><g id="ytick_17"><g id="line2d_89"><path fill="none" stroke="gray" stroke-linecap="square" stroke-width=".8" d="M 172.8 441.565714 L 1244.16 441.565714" clip-path="url(#pd2fcdeec5f)"/></g><g id="line2d_90"><g><use x="172.8" y="441.566" stroke="#000" stroke-width=".8" xlink:href="#m59320d7f4e"/></g></g><g id="text_21"><g transform="translate(159.4375 445.364933)scale(0.1 -0.1)"><use xlink:href="#DejaVuSans-52"/></g></g></g><g id="ytick_18"><g id="line2d_91"><path fill="none" stroke="gray" stroke-linecap="square" stroke-width=".8" d="M 172.8 421.2 L 1244.16 421.2" clip-path="url(#pd2fcdeec5f)"/></g><g id="line2d_92"><g><use x="172.8" y="421.2" stroke="#000" stroke-width=".8" xlink:href="#m59320d7f4e"/></g></g><g id="text_22"><g transform="translate(159.4375 424.999219)scale(0.1 -0.1)"><use xlink:href="#DejaVuSans-53"/></g></g></g><g id="text_23"><g transform="translate(152.11 524.785536)rotate(-90)scale(0.16 -0.16)"><use xlink:href="#DejaVuSans-86"/><use x="68.299" xlink:href="#DejaVuSans-111"/><use x="129.48" xlink:href="#DejaVuSans-108"/><use x="157.264" xlink:href="#DejaVuSans-116"/><use x="196.473" xlink:href="#DejaVuSans-97"/><use x="257.752" xlink:href="#DejaVuSans-103"/><use x="321.229" xlink:href="#DejaVuSans-101"/><use x="382.752" xlink:href="#DejaVuSans-109"/><use x="480.164" xlink:href="#DejaVuSans-32"/><use x="511.951" xlink:href="#DejaVuSans-40"/><use x="550.965" xlink:href="#DejaVuSans-86"/><use x="619.373" xlink:href="#DejaVuSans-41"/></g></g></g><g id="line2d_93"><path fill="none" stroke="red" stroke-linecap="square" stroke-width="4" d="M 221.498182 523.028571 L 343.548763 523.028571 L 345.989774 485.301086 L 348.430786 442.400709 L 350.871798 437.125989 L 353.312809 450.760834 L 355.753821 443.999417 L 358.194833 437.818423 L 360.635844 451.555097 L 363.076856 441.107486 L 365.517867 436.922331 L 367.958879 452.257714 L 370.399891 441.005657 L 372.840902 437.02416 L 375.281914 452.756674 L 377.722925 440.109566 L 380.163937 439.121829 L 382.604949 452.257714 L 385.04596 442.400709 L 387.486972 437.02416 L 389.927984 450.170229 L 392.368995 449.864743 L 394.810007 439.121829 L 397.251018 445.985074 L 399.69203 449.762914 L 402.133042 438.918171 L 404.574053 447.176469 L 407.015065 448.174389 L 409.456077 439.610606 L 411.897088 446.982994 L 414.3381 447.879086 L 416.779111 439.121829 L 419.220123 446.585863 L 421.661135 451.06632 L 424.102146 439.51896 L 426.543158 443.693931 L 428.98417 452.257714 L 431.425181 440.01792 L 433.866193 442.207234 L 436.307204 452.553017 L 438.748216 441.79992 L 441.189228 436.922331 L 443.630239 450.465531 L 446.071251 448.07256 L 448.512262 438.918171 L 450.953274 447.980914 L 453.394286 447.777257 L 455.835297 439.121829 L 458.276309 448.07256 L 460.717321 446.382206 L 463.158332 438.52104 L 465.599344 448.276217 L 468.040355 466.89048 L 470.481367 481.818549 L 475.36339 508.293977 L 477.804402 521.928823 L 480.245414 523.028571 L 587.649925 523.028571 L 592.531948 444.29472 L 594.97296 437.02416 L 599.854983 436.5252 L 609.619029 436.229897 L 612.060041 436.433554 L 614.501053 436.331726 L 616.942064 436.433554 L 619.383076 436.128069 L 621.824087 435.934594 L 624.265099 436.331726 L 634.029146 435.832766 L 636.470157 436.5252 L 638.911169 430.456217 L 641.35218 436.036423 L 643.793192 435.934594 L 646.234204 436.331726 L 651.116227 435.730937 L 653.557239 435.934594 L 655.99825 435.934594 L 658.439262 436.433554 L 660.880273 435.730937 L 663.321285 436.036423 L 665.762297 435.934594 L 670.64432 436.229897 L 673.085332 436.036423 L 677.967355 436.128069 L 680.408366 436.229897 L 682.849378 435.832766 L 687.731401 436.331726 L 690.172413 436.128069 L 692.613424 436.433554 L 695.054436 435.934594 L 702.377471 436.036423 L 704.818483 436.229897 L 707.259494 436.036423 L 709.700506 436.229897 L 712.141517 452.155886 L 717.023541 483.111771 L 719.464552 496.451314 L 721.905564 511.08408 L 724.346576 474.150857 L 726.787587 481.71672 L 729.228599 495.056263 L 731.66961 510.880423 L 734.110622 479.629234 L 736.551634 487.98936 L 738.992645 500.829943 L 741.433657 514.963749 L 743.874668 474.354514 L 746.31568 468.479006 L 748.756692 486.299006 L 751.197703 499.933851 L 753.638715 511.980171 L 756.079727 476.340171 L 758.520738 466.187863 L 760.96175 483.71256 L 763.402761 497.143749 L 765.843773 508.996594 L 768.284785 485.800046 L 770.725796 496.247657 L 773.166808 508.894766 L 775.60782 490.178674 L 778.048831 501.125246 L 780.489843 513.375223 L 782.930854 475.749566 L 785.371866 470.16936 L 790.253889 498.243497 L 792.694901 508.996594 L 795.135913 481.818549 L 797.576924 491.573726 L 802.458947 514.963749 L 804.899959 473.753726 L 807.340971 468.977966 L 812.222994 499.638549 L 814.664005 512.082 L 817.105017 472.063371 L 819.546029 466.096217 L 824.428052 497.642709 L 826.869064 510.982251 L 829.310075 477.837051 L 831.751087 480.026366 L 834.192098 493.661211 L 836.63311 459.823577 L 839.074122 463.407943 L 841.515133 478.529486 L 843.956145 492.866949 L 846.397157 460.516011 L 848.838168 460.220709 L 851.27918 478.631314 L 853.720191 491.970857 L 856.161203 461.310274 L 858.602215 462.908983 L 863.484238 492.367989 L 865.925249 461.61576 L 868.366261 463.010811 L 873.248284 492.174514 L 875.689296 462.308194 L 878.130308 462.705326 L 883.012331 491.573726 L 885.453342 455.638423 L 887.894354 466.493349 L 890.335366 481.625074 L 892.776377 494.058343 L 895.217389 456.931646 L 897.658401 463.102457 L 902.540424 492.174514 L 904.981435 456.534514 L 907.422447 462.012891 L 909.863459 477.541749 L 912.30447 491.777383 L 914.745482 457.135303 L 917.186494 462.410023 L 919.627505 478.040709 L 922.068517 494.659131 L 924.509528 457.929566 L 926.95054 461.218629 L 929.391552 476.645657 L 931.832563 493.966697 L 934.273575 457.725909 L 936.714586 460.719669 L 939.155598 476.146697 L 941.59661 493.26408 L 944.037621 458.133223 L 946.478633 460.821497 L 948.919645 479.527406 L 951.360656 493.070606 L 953.801668 458.622 L 956.242679 460.322537 L 958.683691 479.028446 L 963.565714 506.104663 L 966.006726 516.3588 L 968.447738 523.028571 L 1075.852249 523.028571 L 1078.29326 478.834971 L 1080.734272 442.899669 L 1083.175284 452.950149 L 1085.616295 471.961543 L 1088.057307 461.218629 L 1090.498319 449.864743 L 1092.93933 460.017051 L 1095.380342 478.631314 L 1097.821353 447.5736 L 1100.262365 456.432686 L 1102.703377 475.250606 L 1105.144388 445.384286 L 1107.5854 456.34104 L 1110.026411 472.063371 L 1112.467423 444.885326 L 1114.908435 456.636343 L 1117.349446 472.66416 L 1119.790458 447.5736 L 1122.23147 456.931646 L 1124.672481 472.66416 L 1127.113493 446.382206 L 1129.554504 454.742331 L 1131.995516 473.254766 L 1134.436528 446.280377 L 1136.877539 454.945989 L 1139.318551 471.16728 L 1141.759563 459.222789 L 1144.200574 458.326697 L 1146.641586 469.975886 L 1149.082597 454.151726 L 1151.523609 466.187863 L 1153.964621 480.922457 L 1156.405632 452.654846 L 1158.846644 452.950149 L 1161.287656 467.786571 L 1163.728667 479.232103 L 1166.169679 445.689771 L 1168.61069 457.827737 L 1171.051702 473.16312 L 1173.492714 447.980914 L 1175.933725 457.328777 L 1178.374737 473.061291 L 1180.815748 446.382206 L 1183.25676 454.640503 L 1185.697772 472.857634 L 1188.138783 446.382206 L 1190.579795 455.34312 L 1193.020807 474.252686 L 1195.461818 444.79368 L 1195.461818 444.79368" clip-path="url(#pd2fcdeec5f)"/></g><g id="line2d_94"><path fill="none" stroke="#00f" stroke-dasharray="7.4 3.2" stroke-dashoffset="0" stroke-width="2" d="M 221.498182 523.028571 L 341.107751 523.028571 L 343.548763 441.565714 L 463.158332 441.565714 L 465.599344 523.028571 L 585.208913 523.028571 L 587.649925 421.2 L 707.259494 421.2 L 709.700506 502.662857 L 829.310075 502.662857 L 831.751087 482.297143 L 951.360656 482.297143 L 953.801668 523.028571 L 1073.411237 523.028571 L 1075.852249 461.931429 L 1195.461818 461.931429 L 1195.461818 461.931429" clip-path="url(#pd2fcdeec5f)"/></g><g id="patch_13"><path fill="none" stroke="#000" stroke-linecap="square" stroke-linejoin="miter" stroke-width=".8" d="M 172.8 533.211429 L 172.8 411.017143"/></g><g id="patch_14"><path fill="none" stroke="#000" stroke-linecap="square" stroke-linejoin="miter" stroke-width=".8" d="M 1244.16 533.211429 L 1244.16 411.017143"/></g><g id="patch_15"><path fill="none" stroke="#000" stroke-linecap="square" stroke-linejoin="miter" stroke-width=".8" d="M 172.8 533.211429 L 1244.16 533.211429"/></g><g id="patch_16"><path fill="none" stroke="#000" stroke-linecap="square" stroke-linejoin="miter" stroke-width=".8" d="M 172.8 411.017143 L 1244.16 411.017143"/></g><g id="text_24"><defs><path id="DejaVuSans-68" d="M 19.671875 64.796875 L 19.671875 8.109375 L 31.59375 8.109375 Q 46.6875 8.109375 53.6875 14.9375 Q 60.6875 21.78125 60.6875 36.53125 Q 60.6875 51.171875 53.6875 57.984375 Q 46.6875 64.796875 31.59375 64.796875 z M 9.8125 72.90625 L 30.078125 72.90625 Q 51.265625 72.90625 61.171875 64.09375 Q 71.09375 55.28125 71.09375 36.53125 Q 71.09375 17.671875 61.125 8.828125 Q 51.171875 0 30.078125 0 L 9.8125 0 z"/><path id="DejaVuSans-115" d="M 44.28125 53.078125 L 44.28125 44.578125 Q 40.484375 46.53125 36.375 47.5 Q 32.28125 48.484375 27.875 48.484375 Q 21.1875 48.484375 17.84375 46.4375 Q 14.5 44.390625 14.5 40.28125 Q 14.5 37.15625 16.890625 35.375 Q 19.28125 33.59375 26.515625 31.984375 L 29.59375 31.296875 Q 39.15625 29.25 43.1875 25.515625 Q 47.21875 21.78125 47.21875 15.09375 Q 47.21875 7.46875 41.1875 3.015625 Q 35.15625 -1.421875 24.609375 -1.421875 Q 20.21875 -1.421875 15.453125 -0.5625 Q 10.6875 0.296875 5.421875 2 L 5.421875 11.28125 Q 10.40625 8.6875 15.234375 7.390625 Q 20.0625 6.109375 24.8125 6.109375 Q 31.15625 6.109375 34.5625 8.28125 Q 37.984375 10.453125 37.984375 14.40625 Q 37.984375 18.0625 35.515625 20.015625 Q 33.0625 21.96875 24.703125 23.78125 L 21.578125 24.515625 Q 13.234375 26.265625 9.515625 29.90625 Q 5.8125 33.546875 5.8125 39.890625 Q 5.8125 47.609375 11.28125 51.796875 Q 16.75 56 26.8125 56 Q 31.78125 56 36.171875 55.265625 Q 40.578125 54.546875 44.28125 53.078125 z"/><path id="DejaVuSans-76" d="M 9.8125 72.90625 L 19.671875 72.90625 L 19.671875 8.296875 L 55.171875 8.296875 L 55.171875 0 L 9.8125 0 z"/></defs><g transform="translate(613.784766 405.017143)scale(0.21 -0.21)"><use xlink:href="#DejaVuSans-68"/><use x="77.002" xlink:href="#DejaVuSans-97"/><use x="138.281" xlink:href="#DejaVuSans-100"/><use x="201.758" xlink:href="#DejaVuSans-111"/><use x="262.939" xlink:href="#DejaVuSans-115"/><use x="315.039" xlink:href="#DejaVuSans-32"/><use x="346.826" xlink:href="#DejaVuSans-76"/><use x="402.539" xlink:href="#DejaVuSans-105"/><use x="430.322" xlink:href="#DejaVuSans-100"/><use x="493.799" xlink:href="#DejaVuSans-111"/><use x="554.98" xlink:href="#DejaVuSans-115"/><use x="607.08" xlink:href="#DejaVuSans-32"/><use x="638.867" xlink:href="#DejaVuSans-45"/><use x="674.951" xlink:href="#DejaVuSans-32"/><use x="706.738" xlink:href="#DejaVuSans-121"/><use x="765.918" xlink:href="#DejaVuSans-40"/><use x="804.932" xlink:href="#DejaVuSans-107"/><use x="862.842" xlink:href="#DejaVuSans-41"/></g></g><g id="legend_1"><g id="patch_17"><path fill="#fff" stroke="#ccc" stroke-linejoin="miter" d="M 1195.130312 448.373393 L 1237.16 448.373393 Q 1239.16 448.373393 1239.16 446.373393 L 1239.16 418.017143 Q 1239.16 416.017143 1237.16 416.017143 L 1195.130312 416.017143 Q 1193.130312 416.017143 1193.130312 418.017143 L 1193.130312 446.373393 Q 1193.130312 448.373393 1195.130312 448.373393 z" opacity=".8"/></g><g id="line2d_95"><path fill="none" stroke="red" stroke-linecap="square" stroke-width="4" d="M 1197.130312 424.11558 L 1217.130312 424.11558"/></g><g id="text_25"><g transform="translate(1225.130312 427.61558)scale(0.1 -0.1)"><use xlink:href="#DejaVuSans-121"/></g></g><g id="line2d_97"><path fill="none" stroke="#00f" stroke-dasharray="7.4 3.2" stroke-dashoffset="0" stroke-width="2" d="M 1197.130312 438.793705 L 1217.130312 438.793705"/></g><g id="text_26"><g transform="translate(1225.130312 442.293705)scale(0.1 -0.1)"><use xlink:href="#DejaVuSans-121"/><use x="59.18" xlink:href="#DejaVuSans-114"/></g></g></g></g><g id="axes_4"><g id="patch_18"><path fill="#fff" d="M 172.8 692.064 L 1244.16 692.064 L 1244.16 569.869714 L 172.8 569.869714 z"/></g><g id="matplotlib.axis_7"><g id="xtick_28"><g id="line2d_99"><path fill="none" stroke="gray" stroke-linecap="square" stroke-width=".8" d="M 221.498182 692.064 L 221.498182 569.869714" clip-path="url(#p23912a65df)"/></g><g id="line2d_100"><g><use x="221.498" y="692.064" stroke="#000" stroke-width=".8" xlink:href="#mf9d9dbed5e"/></g></g><g id="text_27"><g transform="translate(218.316932 706.662438)scale(0.1 -0.1)"><use xlink:href="#DejaVuSans-48"/></g></g></g><g id="xtick_29"><g id="line2d_101"><path fill="none" stroke="gray" stroke-linecap="square" stroke-width=".8" d="M 343.548763 692.064 L 343.548763 569.869714" clip-path="url(#p23912a65df)"/></g><g id="line2d_102"><g><use x="343.549" y="692.064" stroke="#000" stroke-width=".8" xlink:href="#mf9d9dbed5e"/></g></g><g id="text_28"><g transform="translate(337.186263 706.662438)scale(0.1 -0.1)"><use xlink:href="#DejaVuSans-53"/><use x="63.623" xlink:href="#DejaVuSans-48"/></g></g></g><g id="xtick_30"><g id="line2d_103"><path fill="none" stroke="gray" stroke-linecap="square" stroke-width=".8" d="M 465.599344 692.064 L 465.599344 569.869714" clip-path="url(#p23912a65df)"/></g><g id="line2d_104"><g><use x="465.599" y="692.064" stroke="#000" stroke-width=".8" xlink:href="#mf9d9dbed5e"/></g></g><g id="text_29"><g transform="translate(456.055594 706.662438)scale(0.1 -0.1)"><use xlink:href="#DejaVuSans-49"/><use x="63.623" xlink:href="#DejaVuSans-48"/><use x="127.246" xlink:href="#DejaVuSans-48"/></g></g></g><g id="xtick_31"><g id="line2d_105"><path fill="none" stroke="gray" stroke-linecap="square" stroke-width=".8" d="M 587.649925 692.064 L 587.649925 569.869714" clip-path="url(#p23912a65df)"/></g><g id="line2d_106"><g><use x="587.65" y="692.064" stroke="#000" stroke-width=".8" xlink:href="#mf9d9dbed5e"/></g></g><g id="text_30"><g transform="translate(578.106175 706.662438)scale(0.1 -0.1)"><use xlink:href="#DejaVuSans-49"/><use x="63.623" xlink:href="#DejaVuSans-53"/><use x="127.246" xlink:href="#DejaVuSans-48"/></g></g></g><g id="xtick_32"><g id="line2d_107"><path fill="none" stroke="gray" stroke-linecap="square" stroke-width=".8" d="M 709.700506 692.064 L 709.700506 569.869714" clip-path="url(#p23912a65df)"/></g><g id="line2d_108"><g><use x="709.701" y="692.064" stroke="#000" stroke-width=".8" xlink:href="#mf9d9dbed5e"/></g></g><g id="text_31"><g transform="translate(700.156756 706.662438)scale(0.1 -0.1)"><use xlink:href="#DejaVuSans-50"/><use x="63.623" xlink:href="#DejaVuSans-48"/><use x="127.246" xlink:href="#DejaVuSans-48"/></g></g></g><g id="xtick_33"><g id="line2d_109"><path fill="none" stroke="gray" stroke-linecap="square" stroke-width=".8" d="M 831.751087 692.064 L 831.751087 569.869714" clip-path="url(#p23912a65df)"/></g><g id="line2d_110"><g><use x="831.751" y="692.064" stroke="#000" stroke-width=".8" xlink:href="#mf9d9dbed5e"/></g></g><g id="text_32"><g transform="translate(822.207337 706.662438)scale(0.1 -0.1)"><use xlink:href="#DejaVuSans-50"/><use x="63.623" xlink:href="#DejaVuSans-53"/><use x="127.246" xlink:href="#DejaVuSans-48"/></g></g></g><g id="xtick_34"><g id="line2d_111"><path fill="none" stroke="gray" stroke-linecap="square" stroke-width=".8" d="M 953.801668 692.064 L 953.801668 569.869714" clip-path="url(#p23912a65df)"/></g><g id="line2d_112"><g><use x="953.802" y="692.064" stroke="#000" stroke-width=".8" xlink:href="#mf9d9dbed5e"/></g></g><g id="text_33"><g transform="translate(944.257918 706.662438)scale(0.1 -0.1)"><use xlink:href="#DejaVuSans-51"/><use x="63.623" xlink:href="#DejaVuSans-48"/><use x="127.246" xlink:href="#DejaVuSans-48"/></g></g></g><g id="xtick_35"><g id="line2d_113"><path fill="none" stroke="gray" stroke-linecap="square" stroke-width=".8" d="M 1075.852249 692.064 L 1075.852249 569.869714" clip-path="url(#p23912a65df)"/></g><g id="line2d_114"><g><use x="1075.852" y="692.064" stroke="#000" stroke-width=".8" xlink:href="#mf9d9dbed5e"/></g></g><g id="text_34"><g transform="translate(1066.308499 706.662438)scale(0.1 -0.1)"><use xlink:href="#DejaVuSans-51"/><use x="63.623" xlink:href="#DejaVuSans-53"/><use x="127.246" xlink:href="#DejaVuSans-48"/></g></g></g><g id="xtick_36"><g id="line2d_115"><path fill="none" stroke="gray" stroke-linecap="square" stroke-width=".8" d="M 1197.90283 692.064 L 1197.90283 569.869714" clip-path="url(#p23912a65df)"/></g><g id="line2d_116"><g><use x="1197.903" y="692.064" stroke="#000" stroke-width=".8" xlink:href="#mf9d9dbed5e"/></g></g><g id="text_35"><g transform="translate(1188.35908 706.662438)scale(0.1 -0.1)"><use xlink:href="#DejaVuSans-52"/><use x="63.623" xlink:href="#DejaVuSans-48"/><use x="127.246" xlink:href="#DejaVuSans-48"/></g></g></g><g id="text_36"><defs><path id="DejaVuSans-65" d="M 34.1875 63.1875 L 20.796875 26.90625 L 47.609375 26.90625 z M 28.609375 72.90625 L 39.796875 72.90625 L 67.578125 0 L 57.328125 0 L 50.6875 18.703125 L 17.828125 18.703125 L 11.1875 0 L 0.78125 0 z"/></defs><g transform="translate(650.835 726.419313)scale(0.18 -0.18)"><use xlink:href="#DejaVuSans-65"/><use x="68.408" xlink:href="#DejaVuSans-109"/><use x="165.82" xlink:href="#DejaVuSans-111"/><use x="227.002" xlink:href="#DejaVuSans-115"/><use x="279.102" xlink:href="#DejaVuSans-116"/><use x="318.311" xlink:href="#DejaVuSans-114"/><use x="359.424" xlink:href="#DejaVuSans-97"/><use x="420.703" xlink:href="#DejaVuSans-115"/><use x="472.803" xlink:href="#DejaVuSans-32"/><use x="504.59" xlink:href="#DejaVuSans-40"/><use x="543.604" xlink:href="#DejaVuSans-107"/><use x="601.514" xlink:href="#DejaVuSans-41"/></g></g></g><g id="matplotlib.axis_8"><g id="ytick_19"><g id="line2d_117"><path fill="none" stroke="gray" stroke-linecap="square" stroke-width=".8" d="M 172.8 675.401143 L 1244.16 675.401143" clip-path="url(#p23912a65df)"/></g><g id="line2d_118"><g><use x="172.8" y="675.401" stroke="#000" stroke-width=".8" xlink:href="#m59320d7f4e"/></g></g><g id="text_37"><defs><path id="DejaVuSans-8722" d="M 10.59375 35.5 L 73.1875 35.5 L 73.1875 27.203125 L 10.59375 27.203125 z"/></defs><g transform="translate(151.057812 679.200362)scale(0.1 -0.1)"><use xlink:href="#DejaVuSans-8722"/><use x="83.789" xlink:href="#DejaVuSans-52"/></g></g></g><g id="ytick_20"><g id="line2d_119"><path fill="none" stroke="gray" stroke-linecap="square" stroke-width=".8" d="M 172.8 653.184 L 1244.16 653.184" clip-path="url(#p23912a65df)"/></g><g id="line2d_120"><g><use x="172.8" y="653.184" stroke="#000" stroke-width=".8" xlink:href="#m59320d7f4e"/></g></g><g id="text_38"><g transform="translate(151.057812 656.983219)scale(0.1 -0.1)"><use xlink:href="#DejaVuSans-8722"/><use x="83.789" xlink:href="#DejaVuSans-50"/></g></g></g><g id="ytick_21"><g id="line2d_121"><path fill="none" stroke="gray" stroke-linecap="square" stroke-width=".8" d="M 172.8 630.966857 L 1244.16 630.966857" clip-path="url(#p23912a65df)"/></g><g id="line2d_122"><g><use x="172.8" y="630.967" stroke="#000" stroke-width=".8" xlink:href="#m59320d7f4e"/></g></g><g id="text_39"><g transform="translate(159.4375 634.766076)scale(0.1 -0.1)"><use xlink:href="#DejaVuSans-48"/></g></g></g><g id="ytick_22"><g id="line2d_123"><path fill="none" stroke="gray" stroke-linecap="square" stroke-width=".8" d="M 172.8 608.749714 L 1244.16 608.749714" clip-path="url(#p23912a65df)"/></g><g id="line2d_124"><g><use x="172.8" y="608.75" stroke="#000" stroke-width=".8" xlink:href="#m59320d7f4e"/></g></g><g id="text_40"><g transform="translate(159.4375 612.548933)scale(0.1 -0.1)"><use xlink:href="#DejaVuSans-50"/></g></g></g><g id="ytick_23"><g id="line2d_125"><path fill="none" stroke="gray" stroke-linecap="square" stroke-width=".8" d="M 172.8 586.532571 L 1244.16 586.532571" clip-path="url(#p23912a65df)"/></g><g id="line2d_126"><g><use x="172.8" y="586.533" stroke="#000" stroke-width=".8" xlink:href="#m59320d7f4e"/></g></g><g id="text_41"><g transform="translate(159.4375 590.33179)scale(0.1 -0.1)"><use xlink:href="#DejaVuSans-52"/></g></g></g><g id="text_42"><g transform="translate(143.730312 683.638107)rotate(-90)scale(0.16 -0.16)"><use xlink:href="#DejaVuSans-86"/><use x="68.299" xlink:href="#DejaVuSans-111"/><use x="129.48" xlink:href="#DejaVuSans-108"/><use x="157.264" xlink:href="#DejaVuSans-116"/><use x="196.473" xlink:href="#DejaVuSans-97"/><use x="257.752" xlink:href="#DejaVuSans-103"/><use x="321.229" xlink:href="#DejaVuSans-101"/><use x="382.752" xlink:href="#DejaVuSans-109"/><use x="480.164" xlink:href="#DejaVuSans-32"/><use x="511.951" xlink:href="#DejaVuSans-40"/><use x="550.965" xlink:href="#DejaVuSans-86"/><use x="619.373" xlink:href="#DejaVuSans-41"/></g></g></g><g id="line2d_127"><path fill="none" stroke="#000" stroke-linecap="square" stroke-width="4" d="M 221.498182 630.966857 L 341.107751 630.966857 L 343.548763 586.532571 L 345.989774 607.1112 L 348.430786 630.511406 L 350.871798 633.388526 L 353.312809 625.951337 L 355.753821 629.639383 L 358.194833 633.010834 L 360.635844 625.518103 L 363.076856 631.2168 L 365.517867 633.499611 L 367.958879 625.134857 L 370.399891 631.272343 L 372.840902 633.444069 L 375.281914 624.862697 L 377.722925 631.76112 L 380.163937 632.299886 L 382.604949 625.134857 L 385.04596 630.511406 L 387.486972 633.444069 L 389.927984 626.273486 L 392.368995 626.440114 L 394.810007 632.299886 L 397.251018 628.556297 L 399.69203 626.495657 L 402.133042 632.410971 L 404.574053 627.906446 L 407.015065 627.362126 L 409.456077 632.03328 L 411.897088 628.011977 L 414.3381 627.5232 L 416.779111 632.299886 L 419.220123 628.228594 L 421.661135 625.784709 L 424.102146 632.083269 L 426.543158 629.806011 L 428.98417 625.134857 L 431.425181 631.811109 L 433.866193 630.616937 L 436.307204 624.973783 L 438.748216 630.839109 L 441.189228 633.499611 L 443.630239 626.112411 L 446.071251 627.417669 L 448.512262 632.410971 L 450.953274 627.467657 L 453.394286 627.578743 L 455.835297 632.299886 L 458.276309 627.417669 L 460.717321 628.33968 L 463.158332 632.627589 L 465.599344 671.740869 L 468.040355 661.587634 L 470.481367 653.445051 L 475.36339 639.003909 L 477.804402 631.56672 L 480.245414 630.966857 L 585.208913 630.966857 L 587.649925 575.424 L 592.531948 618.369737 L 594.97296 622.335497 L 599.854983 622.607657 L 609.619029 622.768731 L 612.060041 622.657646 L 621.824087 622.929806 L 624.265099 622.713189 L 634.029146 622.985349 L 636.470157 622.607657 L 638.911169 625.918011 L 641.35218 622.874263 L 643.793192 622.929806 L 646.234204 622.713189 L 651.116227 623.040891 L 658.439262 622.657646 L 660.880273 623.040891 L 663.321285 622.874263 L 668.203308 622.874263 L 670.64432 622.768731 L 675.526343 622.874263 L 680.408366 622.768731 L 682.849378 622.985349 L 687.731401 622.713189 L 690.172413 622.824274 L 692.613424 622.657646 L 695.054436 622.929806 L 702.377471 622.874263 L 704.818483 622.768731 L 707.259494 622.874263 L 709.700506 667.203017 L 712.141517 658.516114 L 717.023541 641.631086 L 719.464552 634.354971 L 721.905564 626.373463 L 724.346576 646.518857 L 726.787587 642.392023 L 729.228599 635.115909 L 731.66961 626.484549 L 734.110622 643.530651 L 736.551634 638.970583 L 738.992645 631.966629 L 741.433657 624.25728 L 743.874668 646.407771 L 746.31568 649.612594 L 748.756692 639.892594 L 751.197703 632.455406 L 753.638715 625.884686 L 756.079727 645.324686 L 758.520738 650.862309 L 760.96175 641.303383 L 763.402761 633.97728 L 765.843773 627.512091 L 768.284785 640.164754 L 770.725796 634.466057 L 773.166808 627.567634 L 775.60782 637.776411 L 778.048831 631.805554 L 780.489843 625.123749 L 782.930854 645.646834 L 785.371866 648.690583 L 790.253889 633.377417 L 792.694901 627.512091 L 795.135913 642.33648 L 797.576924 637.015474 L 802.458947 624.25728 L 804.899959 646.735474 L 807.340971 649.340434 L 812.222994 632.61648 L 814.664005 625.829143 L 817.105017 647.657486 L 819.546029 650.912297 L 824.428052 633.70512 L 826.869064 626.429006 L 829.310075 644.508206 L 831.751087 632.205463 L 834.192098 624.768274 L 836.63311 643.225166 L 839.074122 641.270057 L 841.515133 633.021943 L 843.956145 625.201509 L 846.397157 642.847474 L 848.838168 643.008549 L 851.27918 632.9664 L 853.720191 625.690286 L 856.161203 642.41424 L 858.602215 641.542217 L 863.484238 625.473669 L 865.925249 642.247611 L 868.366261 641.486674 L 873.248284 625.5792 L 875.689296 641.86992 L 878.130308 641.653303 L 883.012331 625.906903 L 885.453342 645.507977 L 887.894354 639.587109 L 890.335366 631.33344 L 892.776377 624.551657 L 895.217389 644.802583 L 897.658401 641.436686 L 902.540424 625.5792 L 904.981435 645.0192 L 907.422447 642.030994 L 909.863459 633.560709 L 912.30447 625.795817 L 914.745482 644.691497 L 917.186494 641.814377 L 919.627505 633.288549 L 922.068517 624.223954 L 924.509528 644.258263 L 926.95054 642.464229 L 929.391552 634.049486 L 931.832563 624.601646 L 934.273575 644.369349 L 936.714586 642.736389 L 939.155598 634.321646 L 941.59661 624.984891 L 944.037621 644.147177 L 946.478633 642.680846 L 948.919645 632.477623 L 951.360656 625.090423 L 953.801668 666.097714 L 956.242679 665.170149 L 958.683691 654.966926 L 963.565714 640.19808 L 966.006726 634.604914 L 968.447738 630.966857 L 1073.411237 630.966857 L 1075.852249 597.641143 L 1078.29326 621.746743 L 1080.734272 641.347817 L 1083.175284 635.865737 L 1085.616295 625.495886 L 1088.057307 631.355657 L 1090.498319 637.548686 L 1092.93933 632.011063 L 1095.380342 621.857829 L 1097.821353 638.7984 L 1100.262365 633.966171 L 1102.703377 623.701851 L 1105.144388 639.992571 L 1107.5854 634.01616 L 1110.026411 625.440343 L 1112.467423 640.264731 L 1114.908435 633.855086 L 1117.349446 625.11264 L 1119.790458 638.7984 L 1122.23147 633.694011 L 1124.672481 625.11264 L 1127.113493 639.448251 L 1129.554504 634.888183 L 1131.995516 624.790491 L 1134.436528 639.503794 L 1136.877539 634.777097 L 1139.318551 625.92912 L 1141.759563 632.444297 L 1144.200574 632.933074 L 1146.641586 626.578971 L 1149.082597 635.210331 L 1151.523609 628.645166 L 1153.964621 620.608114 L 1156.405632 636.026811 L 1158.846644 635.865737 L 1161.287656 627.773143 L 1163.728667 621.530126 L 1166.169679 639.825943 L 1168.61069 633.205234 L 1171.051702 624.84048 L 1173.492714 638.576229 L 1175.933725 633.477394 L 1178.374737 624.896023 L 1180.815748 639.448251 L 1183.25676 634.943726 L 1185.697772 625.007109 L 1188.138783 639.448251 L 1190.579795 634.56048 L 1193.020807 624.246171 L 1195.461818 640.31472 L 1195.461818 640.31472" clip-path="url(#p23912a65df)"/></g><g id="patch_19"><path fill="none" stroke="#000" stroke-linecap="square" stroke-linejoin="miter" stroke-width=".8" d="M 172.8 692.064 L 172.8 569.869714"/></g><g id="patch_20"><path fill="none" stroke="#000" stroke-linecap="square" stroke-linejoin="miter" stroke-width=".8" d="M 1244.16 692.064 L 1244.16 569.869714"/></g><g id="patch_21"><path fill="none" stroke="#000" stroke-linecap="square" stroke-linejoin="miter" stroke-width=".8" d="M 172.8 692.064 L 1244.16 692.064"/></g><g id="patch_22"><path fill="none" stroke="#000" stroke-linecap="square" stroke-linejoin="miter" stroke-width=".8" d="M 172.8 569.869714 L 1244.16 569.869714"/></g><g id="text_43"><defs><path id="DejaVuSans-69" d="M 9.8125 72.90625 L 55.90625 72.90625 L 55.90625 64.59375 L 19.671875 64.59375 L 19.671875 43.015625 L 54.390625 43.015625 L 54.390625 34.71875 L 19.671875 34.71875 L 19.671875 8.296875 L 56.78125 8.296875 L 56.78125 0 L 9.8125 0 z"/></defs><g transform="translate(655.596094 563.869714)scale(0.21 -0.21)"><use xlink:href="#DejaVuSans-69"/><use x="63.184" xlink:href="#DejaVuSans-114"/><use x="104.281" xlink:href="#DejaVuSans-114"/><use x="145.363" xlink:href="#DejaVuSans-111"/><use x="206.545" xlink:href="#DejaVuSans-32"/><use x="238.332" xlink:href="#DejaVuSans-45"/><use x="274.416" xlink:href="#DejaVuSans-32"/><use x="306.203" xlink:href="#DejaVuSans-101"/><use x="367.727" xlink:href="#DejaVuSans-40"/><use x="406.74" xlink:href="#DejaVuSans-107"/><use x="464.65" xlink:href="#DejaVuSans-41"/></g></g></g><g id="text_44"><defs><path id="DejaVuSans-67" d="M 64.40625 67.28125 L 64.40625 56.890625 Q 59.421875 61.53125 53.78125 63.8125 Q 48.140625 66.109375 41.796875 66.109375 Q 29.296875 66.109375 22.65625 58.46875 Q 16.015625 50.828125 16.015625 36.375 Q 16.015625 21.96875 22.65625 14.328125 Q 29.296875 6.6875 41.796875 6.6875 Q 48.140625 6.6875 53.78125 8.984375 Q 59.421875 11.28125 64.40625 15.921875 L 64.40625 5.609375 Q 59.234375 2.09375 53.4375 0.328125 Q 47.65625 -1.421875 41.21875 -1.421875 Q 24.65625 -1.421875 15.125 8.703125 Q 5.609375 18.84375 5.609375 36.375 Q 5.609375 53.953125 15.125 64.078125 Q 24.65625 74.21875 41.21875 74.21875 Q 47.75 74.21875 53.53125 72.484375 Q 59.328125 70.75 64.40625 67.28125 z"/><path id="DejaVuSans-70" d="M 9.8125 72.90625 L 51.703125 72.90625 L 51.703125 64.59375 L 19.671875 64.59375 L 19.671875 43.109375 L 48.578125 43.109375 L 48.578125 34.8125 L 19.671875 34.8125 L 19.671875 0 L 9.8125 0 z"/></defs><g transform="translate(539.713437 35.307937)scale(0.26 -0.26)"><use xlink:href="#DejaVuSans-67"/><use x="69.824" xlink:href="#DejaVuSans-111"/><use x="131.006" xlink:href="#DejaVuSans-110"/><use x="194.385" xlink:href="#DejaVuSans-116"/><use x="233.594" xlink:href="#DejaVuSans-114"/><use x="274.676" xlink:href="#DejaVuSans-111"/><use x="335.857" xlink:href="#DejaVuSans-108"/><use x="363.641" xlink:href="#DejaVuSans-97"/><use x="424.92" xlink:href="#DejaVuSans-100"/><use x="488.396" xlink:href="#DejaVuSans-111"/><use x="549.578" xlink:href="#DejaVuSans-114"/><use x="590.691" xlink:href="#DejaVuSans-32"/><use x="622.479" xlink:href="#DejaVuSans-97"/><use x="683.758" xlink:href="#DejaVuSans-116"/><use x="722.967" xlink:href="#DejaVuSans-114"/><use x="764.08" xlink:href="#DejaVuSans-97"/><use x="825.359" xlink:href="#DejaVuSans-115"/><use x="877.459" xlink:href="#DejaVuSans-111"/><use x="938.641" xlink:href="#DejaVuSans-32"/><use x="970.428" xlink:href="#DejaVuSans-45"/><use x="1006.512" xlink:href="#DejaVuSans-32"/><use x="1038.299" xlink:href="#DejaVuSans-82"/><use x="1107.781" xlink:href="#DejaVuSans-70"/></g></g></g><defs><clipPath id="pbcd78de773"><rect width="1071.36" height="122.194" x="172.8" y="93.312"/></clipPath><clipPath id="p8289a4af48"><rect width="1071.36" height="122.194" x="172.8" y="252.165"/></clipPath><clipPath id="pd2fcdeec5f"><rect width="1071.36" height="122.194" x="172.8" y="411.017"/></clipPath><clipPath id="p23912a65df"><rect width="1071.36" height="122.194" x="172.8" y="569.87"/></clipPath></defs></svg>